<svg width="1044" height="710" viewBox="0 0 1044 710" fill="none" xmlns="http://www.w3.org/2000/svg">
<path d="M727.802 1.19214C725.939 1.57764 721.245 2.27142 717.449 2.73395C684.873 6.97382 653.884 23.3167 632.144 47.7539C629.245 50.9917 626.553 53.6127 626.139 53.6127C625.725 53.6127 622.55 52.2251 619.168 50.5291C605.434 43.8224 589.974 39.1971 573.547 36.9615C561.193 35.2655 539.591 35.8052 527.651 38.1178C495.143 44.362 468.226 59.2402 447.59 82.5211C428.679 103.798 418.258 129.777 417.291 157.914C417.153 162.462 416.946 166.317 416.808 166.471C416.67 166.625 412.943 167.704 408.595 168.861C381.402 176.261 355.728 192.219 338.818 212.185C324.601 228.99 314.8 250.19 311.556 271.004C309.831 282.336 310.521 302.61 313.006 313.249C317.906 334.294 326.119 350.02 340.958 366.671C352.967 380.162 362.767 387.948 378.227 396.196C387.062 400.899 397.069 404.908 407.836 408.068L415.014 410.15L415.152 422.484C415.359 440.908 417.913 453.011 425.228 469.508C439.584 502.04 470.504 528.558 507.221 539.968C523.51 545.055 533.724 546.52 552.152 546.52C568.854 546.52 577.136 545.518 590.802 541.895C605.917 537.886 622.412 530.331 634.835 521.697C638.01 519.462 640.84 517.689 641.116 517.689C641.392 517.689 644.015 519.77 647.051 522.314C661.269 534.494 680.042 544.593 698.746 550.143C721.452 556.773 749.129 557.621 772.664 552.302C812.142 543.437 845.408 518.537 863.491 484.309C864.733 481.919 866.114 479.915 866.528 479.915C866.942 479.915 870.048 480.609 873.429 481.38C907.524 489.705 946.174 484.232 977.301 466.81C1008.7 449.234 1030.65 421.559 1039.14 388.95C1044.39 368.83 1044.39 351.254 1039.07 330.748C1034.38 312.786 1024.3 294.208 1011.88 280.64C1009.95 278.559 1008.36 276.554 1008.36 276.246C1008.36 275.938 1009.81 272.777 1011.53 269.308C1029.13 233.847 1027.89 193.684 1008.08 159.61C992.968 133.631 968.053 113.203 938.237 102.256C920.154 95.6263 907.731 93.4677 886.612 93.3136L870.876 93.2365L868.529 86.8381C858.245 58.3152 835.746 33.1071 807.034 17.9976C797.786 13.141 781.912 7.20514 772.318 5.04663C756.168 1.50055 736.153 -0.272522 727.802 1.19214Z" fill="#357C05"/>
<path d="M359.066 430.217C348.811 433.602 340.139 444.84 336.887 458.824C335.595 464.379 335.178 473.83 335.97 479.896C337.012 488.261 340.598 497.2 345.225 503.138C358.358 520.124 379.119 518.208 390.584 499.052C393.586 494.007 396.171 486.409 397.046 480.023C400.09 457.802 390.292 436.347 374.533 430.473C370.573 429.068 362.985 428.877 359.066 430.217Z" fill="#357C05"/>
<path d="M282.522 540.682C278.603 542.215 275.143 545.28 272.141 549.877C267.597 556.837 265.513 564.563 265.513 574.716C265.513 584.933 267.931 593.489 272.808 600.258C285.732 618.392 306.286 607.984 309.913 581.549C310.246 579.058 310.538 575.929 310.538 574.525C310.538 563.669 306.411 551.857 300.449 545.599C295.696 540.618 288.067 538.511 282.522 540.682Z" fill="#357C05"/>
<path d="M223.449 656.579C219.864 657.728 216.07 662.453 214.152 668.072C213.318 670.499 213.193 671.904 213.193 677.331C213.193 682.759 213.36 684.1 214.152 686.462C218.238 698.147 227.618 701.979 234.497 694.699C238.333 690.613 240.751 682.886 240.417 675.799C240.209 671.584 238.666 666.093 236.79 662.772C233.955 657.856 228.035 655.11 223.449 656.579Z" fill="#357C05"/>
<path d="M278.136 709.356C39.5055 705.995 87.6798 593.122 141.596 537.105C223.94 483.329 339.755 534.304 387.369 566.514C548.697 689.19 381.767 712.857 278.136 709.356Z" fill="#357C05"/>
<path d="M162.602 503.495C120.59 520.3 138.095 546.908 152.099 558.112C167.504 553.911 202.514 543.41 219.319 535.008C236.124 526.605 199.713 490.895 179.407 474.09C152.099 461.486 171.005 408.969 166.804 371.157C162.602 333.346 70.1742 253.523 17.6586 306.038C-24.3538 348.051 18.3591 371.157 44.9671 377.459C34.8842 367.376 44.9671 345.249 51.269 335.446C113.447 305.197 119.189 390.062 114.288 436.275C124.371 466.524 150.699 493.692 162.602 503.495Z" fill="#357C05"/>
<path d="M125.913 616.669C121.021 603.054 120.793 576.929 159.02 581.359C206.802 586.897 137.437 636.778 125.913 616.669Z" fill="#5AAF21"/>
<path d="M222.341 605.91C258.159 590.519 334.093 573.943 351.286 630.774C372.777 701.812 172.195 653.862 222.341 605.91Z" fill="#5AAF21"/>
<path d="M253.218 620.654C233.612 607.351 188.519 581.163 164.992 582.843C135.583 584.944 236.413 582.84 253.218 593.343" stroke="#282828" stroke-width="2"/>
<path d="M328.837 618.549L349.843 610.146" stroke="#282828" stroke-width="2"/>
<path d="M379.252 616.449C360.346 622.051 322.535 634.515 322.535 639.556" stroke="#282828" stroke-width="2"/>
</svg>
