<svg width="80" height="69" viewBox="0 0 80 69" fill="none" xmlns="http://www.w3.org/2000/svg">
<g clip-path="url(#clip0_178_9)">
<path d="M24.6061 59.7395C13.5618 51.2032 0.590332 41.1798 0.590332 23.8037C0.590332 5.65827 19.9532 -7.49716 37.027 6.75094L31.3083 20.1233C31.0427 20.7435 30.9967 21.4361 31.1777 22.0862C31.3587 22.7362 31.7559 23.3047 32.3033 23.6972L43.446 31.6811L33.7468 43.0339C33.2636 43.5996 33.011 44.3274 33.0393 45.0718C33.0678 45.8162 33.3752 46.5225 33.9002 47.0495L40.5866 53.7555L37.0074 68.114C34.0339 67.116 31.0447 64.7886 27.969 62.3548C26.8756 61.4975 25.7533 60.6257 24.6022 59.7395" fill="#5AAF21"/>
<path d="M43.1165 68.0142C45.9955 66.9689 48.8943 64.7125 51.8716 62.3576C52.9651 61.495 54.0873 60.622 55.2384 59.7383C66.2827 51.2021 79.2544 41.1787 79.2544 23.8025C79.2544 5.9924 60.6072 -7.00524 43.7772 5.98056L37.6691 20.2681L49.5039 28.7452C49.8366 28.9839 50.1162 29.2895 50.3248 29.6425C50.5334 29.9954 50.6665 30.388 50.7157 30.7953C50.7649 31.2026 50.7291 31.6158 50.6105 32.0085C50.4919 32.4012 50.2932 32.7649 50.027 33.0764L40.0053 44.8038L45.9444 50.7564C46.3042 51.1177 46.5648 51.5662 46.7005 52.0583C46.8363 52.5505 46.8427 53.0695 46.7192 53.5649L43.1165 68.0142Z" fill="#357C05"/>
</g>
<defs>
<clipPath id="clip0_178_9">
<rect width="80" height="68.6792" fill="white"/>
</clipPath>
</defs>
</svg>
