<svg width="1190" height="662" viewBox="0 0 1190 662" fill="none" xmlns="http://www.w3.org/2000/svg">
<path d="M353.431 0.453735C355.518 0.793121 360.774 1.40402 365.025 1.81131C401.506 5.54462 436.21 19.9348 460.557 41.4522C463.803 44.3031 466.818 46.611 467.281 46.611C467.745 46.611 471.3 45.3891 475.088 43.8958C490.469 37.9904 507.782 33.9177 526.177 31.9492C540.013 30.4559 564.205 30.9311 577.576 32.9674C613.981 38.4655 644.124 51.5661 667.234 72.0653C688.412 90.7997 700.083 113.675 701.165 138.45C701.32 142.455 701.552 145.849 701.706 145.985C701.861 146.12 706.035 147.071 710.904 148.089C741.357 154.605 770.109 168.656 789.046 186.237C804.968 201.034 815.943 219.701 819.576 238.028C821.508 248.006 820.735 265.858 817.953 275.225C812.465 293.756 803.267 307.603 786.65 322.265C773.201 334.143 762.226 340.999 744.912 348.262C735.019 352.402 723.812 355.932 711.754 358.715L703.716 360.548L703.561 371.408C703.33 387.631 700.47 398.288 692.277 412.814C676.2 441.459 641.574 464.809 600.455 474.855C582.214 479.335 570.775 480.624 550.138 480.624C531.433 480.624 522.158 479.742 506.855 476.552C489.928 473.022 471.455 466.37 457.543 458.768C453.987 456.799 450.818 455.238 450.509 455.238C450.2 455.238 447.263 457.071 443.862 459.311C427.94 470.035 406.917 478.928 385.971 483.815C360.542 489.652 329.548 490.399 303.191 485.715C258.981 477.909 221.726 455.985 201.476 425.847C200.085 423.743 198.539 421.978 198.075 421.978C197.611 421.978 194.133 422.589 190.346 423.267C152.164 430.598 108.881 425.779 74.0221 410.438C38.8545 394.962 14.2758 370.594 4.76895 341.881C-1.10519 324.165 -1.10519 308.689 4.84622 290.633C10.1021 274.818 21.3866 258.459 35.2991 246.512C37.4633 244.68 39.2409 242.915 39.2409 242.643C39.2409 242.372 37.6178 239.589 35.6856 236.534C15.9762 205.31 17.3675 169.946 39.5501 139.944C56.477 117.069 84.3792 99.0808 117.769 89.4421C138.02 83.6046 151.932 81.704 175.583 81.5682L193.206 81.5004L195.834 75.8665C207.35 50.7515 232.547 28.5553 264.7 15.2512C275.057 10.9749 292.834 5.74823 303.578 3.84766C321.664 0.72525 344.079 -0.835938 353.431 0.453735Z" fill="#357C05"/>
<path d="M762.154 360.297C773.639 363.277 783.35 373.173 786.992 385.486C788.439 390.377 788.906 398.698 788.019 404.04C786.852 411.405 782.836 419.277 777.654 424.505C762.947 439.461 739.697 437.774 726.858 420.907C723.496 416.465 720.601 409.775 719.621 404.152C716.213 384.586 727.184 365.695 744.832 360.522C749.268 359.285 757.765 359.116 762.154 360.297Z" fill="#357C05"/>
<path d="M815.838 435.581C820.227 436.93 824.102 439.629 827.463 443.677C832.552 449.806 834.887 456.609 834.887 465.549C834.887 474.544 832.179 482.079 826.716 488.038C812.243 504.006 789.226 494.841 785.164 471.565C784.791 469.372 784.464 466.617 784.464 465.38C784.464 455.822 789.086 445.42 795.762 439.91C801.085 435.525 809.629 433.669 815.838 435.581Z" fill="#357C05"/>
<path d="M1156.5 447.667C1206.01 539.371 1237.54 708.014 967.519 648.948C629.999 575.116 1028.17 280.664 1156.5 447.667Z" fill="#357C05"/>
<path d="M1067.72 654.22C1193.59 619.062 1126.61 566.325 1077.39 544.351C1109.03 523.959 1084.13 501.282 1067.72 492.493C957.324 444.678 946.718 488.391 955.214 516.224C891.05 513.587 891.929 525.892 902.477 581.267C910.915 625.566 1016.16 648.361 1067.72 654.22Z" fill="#5AAF21"/>
<path d="M946.424 503.04C941.443 494.543 926.911 476.847 908.629 474.034" stroke="#282828" stroke-width="3"/>
<path d="M1109.91 552.263C1094.38 537.321 1050.32 510.952 998.282 525.015" stroke="#282828" stroke-width="3"/>
<ellipse cx="47.9429" cy="27.0447" rx="47.9429" ry="27.0447" transform="matrix(-0.810963 -0.585097 -0.585097 0.810963 1157.38 493.22)" fill="#B7D7A3"/>
<path d="M975.43 441.514C960.781 434.19 929.548 425.342 921.814 448.546C912.145 477.552 986.15 445.91 975.43 441.514Z" fill="#B7D7A3"/>
<circle cx="34.6775" cy="34.6775" r="33.7633" transform="matrix(-1 0 0 1 962.082 452.447)" fill="#357C05" fill-opacity="0.39" stroke="#282828" stroke-width="1.82857"/>
</svg>
