<svg width="817" height="429" viewBox="0 0 817 429" fill="none" xmlns="http://www.w3.org/2000/svg">
<rect x="7.061" y="6.50735" width="802.925" height="415.097" fill="#D9D9D9" stroke="#5AAF21" stroke-width="12.9853"/>
<path d="M13 13.4399V66.7H92.8901V13.4399H13ZM13 13.4399H26.315V26.7549H39.63V13.4399H52.945V26.7549H66.26V13.4399H79.575V26.7549H92.8901V40.07H79.575V53.385H92.8901V66.7H79.575V53.385H66.26V66.7H52.945V53.385H39.63V66.7H26.315V53.385H13V40.07H26.315V26.7549H13V13.4399ZM26.315 40.07V53.385H39.63V40.07H26.315ZM39.63 40.07H52.945V26.7549H39.63V40.07ZM52.945 40.07V53.385H66.26V40.07H52.945ZM66.26 40.07H79.575V26.7549H66.26V40.07Z" fill="#5AAF21" fill-opacity="0.5"/>
<path d="M13 66.6992V119.959H92.8901V66.6992H13ZM13 66.6992H26.315V80.0142H39.63V66.6992H52.945V80.0142H66.26V66.6992H79.575V80.0142H92.8901V93.3292H79.575V106.644H92.8901V119.959H79.575V106.644H66.26V119.959H52.945V106.644H39.63V119.959H26.315V106.644H13V93.3292H26.315V80.0142H13V66.6992ZM26.315 93.3292V106.644H39.63V93.3292H26.315ZM39.63 93.3292H52.945V80.0142H39.63V93.3292ZM52.945 93.3292V106.644H66.26V93.3292H52.945ZM66.26 93.3292H79.575V80.0142H66.26V93.3292Z" fill="#5AAF21" fill-opacity="0.5"/>
<path d="M13 119.959V173.22H92.8901V119.959H13ZM13 119.959H26.315V133.274H39.63V119.959H52.945V133.274H66.26V119.959H79.575V133.274H92.8901V146.589H79.575V159.904H92.8901V173.22H79.575V159.904H66.26V173.22H52.945V159.904H39.63V173.22H26.315V159.904H13V146.589H26.315V133.274H13V119.959ZM26.315 146.589V159.904H39.63V146.589H26.315ZM39.63 146.589H52.945V133.274H39.63V146.589ZM52.945 146.589V159.904H66.26V146.589H52.945ZM66.26 146.589H79.575V133.274H66.26V146.589Z" fill="#5AAF21" fill-opacity="0.5"/>
<path d="M13 173.22V226.48H92.8901V173.22H13ZM13 173.22H26.315V186.535H39.63V173.22H52.945V186.535H66.26V173.22H79.575V186.535H92.8901V199.85H79.575V213.165H92.8901V226.48H79.575V213.165H66.26V226.48H52.945V213.165H39.63V226.48H26.315V213.165H13V199.85H26.315V186.535H13V173.22ZM26.315 199.85V213.165H39.63V199.85H26.315ZM39.63 199.85H52.945V186.535H39.63V199.85ZM52.945 199.85V213.165H66.26V199.85H52.945ZM66.26 199.85H79.575V186.535H66.26V199.85Z" fill="#5AAF21" fill-opacity="0.5"/>
<path d="M13 226.479V279.74H92.8901V226.479H13ZM13 226.479H26.315V239.795H39.63V226.479H52.945V239.795H66.26V226.479H79.575V239.795H92.8901V253.11H79.575V266.425H92.8901V279.74H79.575V266.425H66.26V279.74H52.945V266.425H39.63V279.74H26.315V266.425H13V253.11H26.315V239.795H13V226.479ZM26.315 253.11V266.425H39.63V253.11H26.315ZM39.63 253.11H52.945V239.795H39.63V253.11ZM52.945 253.11V266.425H66.26V253.11H52.945ZM66.26 253.11H79.575V239.795H66.26V253.11Z" fill="#5AAF21" fill-opacity="0.5"/>
<path d="M13 279.74V333H92.8901V279.74H13ZM13 279.74H26.315V293.055H39.63V279.74H52.945V293.055H66.26V279.74H79.575V293.055H92.8901V306.37H79.575V319.685H92.8901V333H79.575V319.685H66.26V333H52.945V319.685H39.63V333H26.315V319.685H13V306.37H26.315V293.055H13V279.74ZM26.315 306.37V319.685H39.63V306.37H26.315ZM39.63 306.37H52.945V293.055H39.63V306.37ZM52.945 306.37V319.685H66.26V306.37H52.945ZM66.26 306.37H79.575V293.055H66.26V306.37Z" fill="#5AAF21" fill-opacity="0.5"/>
<path d="M13 333V386.26H92.8901V333H13ZM13 333H26.315V346.315H39.63V333H52.945V346.315H66.26V333H79.575V346.315H92.8901V359.63H79.575V372.945H92.8901V386.26H79.575V372.945H66.26V386.26H52.945V372.945H39.63V386.26H26.315V372.945H13V359.63H26.315V346.315H13V333ZM26.315 359.63V372.945H39.63V359.63H26.315ZM39.63 359.63H52.945V346.315H39.63V359.63ZM52.945 359.63V372.945H66.26V359.63H52.945ZM66.26 359.63H79.575V346.315H66.26V359.63Z" fill="#5AAF21" fill-opacity="0.5"/>
<path d="M13 386.26V426.205L92.8901 417.328V386.26H13ZM13 386.26H26.315V399.575H39.63V386.26H52.945V399.575H66.26V386.26H79.575V399.575H92.8901V412.89H79.575V426.205H66.26H52.945H39.63H26.315H13V412.89H26.315V399.575H13V386.26ZM26.315 412.89V426.205H39.63V412.89H26.315ZM39.63 412.89H52.945V399.575H39.63V412.89ZM52.945 412.89V426.205H66.26V412.89H52.945ZM66.26 412.89H79.575V399.575H66.26V412.89Z" fill="#5AAF21" fill-opacity="0.5"/>
<path d="M92.2983 386.26V426.205L172.188 417.328V386.26H92.2983ZM92.2983 386.26H105.613V399.575H118.928V386.26H132.243V399.575H145.558V386.26H158.873V399.575H172.188V412.89H158.873V426.205H145.558H132.243H118.928H105.613H92.2983V412.89H105.613V399.575H92.2983V386.26ZM105.613 412.89V426.205H118.928V412.89H105.613ZM118.928 412.89H132.243V399.575H118.928V412.89ZM132.243 412.89V426.205H145.558V412.89H132.243ZM145.558 412.89H158.873V399.575H145.558V412.89Z" fill="#5AAF21" fill-opacity="0.5"/>
<path d="M171.597 386.26V426.205L251.487 417.328V386.26H171.597ZM171.597 386.26H184.912V399.575H198.227V386.26H211.542V399.575H224.857V386.26H238.172V399.575H251.487V412.89H238.172V426.205H224.857H211.542H198.227H184.912H171.597V412.89H184.912V399.575H171.597V386.26ZM184.912 412.89V426.205H198.227V412.89H184.912ZM198.227 412.89H211.542V399.575H198.227V412.89ZM211.542 412.89V426.205H224.857V412.89H211.542ZM224.857 412.89H238.172V399.575H224.857V412.89Z" fill="#5AAF21" fill-opacity="0.5"/>
<path d="M250.895 386.26V426.205L330.785 417.328V386.26H250.895ZM250.895 386.26H264.21V399.575H277.525V386.26H290.84V399.575H304.155V386.26H317.47V399.575H330.785V412.89H317.47V426.205H304.155H290.84H277.525H264.21H250.895V412.89H264.21V399.575H250.895V386.26ZM264.21 412.89V426.205H277.525V412.89H264.21ZM277.525 412.89H290.84V399.575H277.525V412.89ZM290.84 412.89V426.205H304.155V412.89H290.84ZM304.155 412.89H317.47V399.575H304.155V412.89Z" fill="#5AAF21" fill-opacity="0.5"/>
<path d="M330.193 386.26V426.205L410.083 417.328V386.26H330.193ZM330.193 386.26H343.508V399.575H356.823V386.26H370.138V399.575H383.453V386.26H396.768V399.575H410.083V412.89H396.768V426.205H383.453H370.138H356.823H343.508H330.193V412.89H343.508V399.575H330.193V386.26ZM343.508 412.89V426.205H356.823V412.89H343.508ZM356.823 412.89H370.138V399.575H356.823V412.89ZM370.138 412.89V426.205H383.453V412.89H370.138ZM383.453 412.89H396.768V399.575H383.453V412.89Z" fill="#5AAF21" fill-opacity="0.5"/>
<path d="M409.491 386.26V426.205L489.381 417.328V386.26H409.491ZM409.491 386.26H422.806V399.575H436.121V386.26H449.436V399.575H462.751V386.26H476.066V399.575H489.381V412.89H476.066V426.205H462.751H449.436H436.121H422.806H409.491V412.89H422.806V399.575H409.491V386.26ZM422.806 412.89V426.205H436.121V412.89H422.806ZM436.121 412.89H449.436V399.575H436.121V412.89ZM449.436 412.89V426.205H462.751V412.89H449.436ZM462.751 412.89H476.066V399.575H462.751V412.89Z" fill="#5AAF21" fill-opacity="0.5"/>
<path d="M488.79 386.26V426.205L568.68 417.328V386.26H488.79ZM488.79 386.26H502.105V399.575H515.42V386.26H528.735V399.575H542.05V386.26H555.365V399.575H568.68V412.89H555.365V426.205H542.05H528.735H515.42H502.105H488.79V412.89H502.105V399.575H488.79V386.26ZM502.105 412.89V426.205H515.42V412.89H502.105ZM515.42 412.89H528.735V399.575H515.42V412.89ZM528.735 412.89V426.205H542.05V412.89H528.735ZM542.05 412.89H555.365V399.575H542.05V412.89Z" fill="#5AAF21" fill-opacity="0.5"/>
<path d="M568.088 386.26V426.205L647.978 417.328V386.26H568.088ZM568.088 386.26H581.403V399.575H594.718V386.26H608.033V399.575H621.348V386.26H634.663V399.575H647.978V412.89H634.663V426.205H621.348H608.033H594.718H581.403H568.088V412.89H581.403V399.575H568.088V386.26ZM581.403 412.89V426.205H594.718V412.89H581.403ZM594.718 412.89H608.033V399.575H594.718V412.89ZM608.033 412.89V426.205H621.348V412.89H608.033ZM621.348 412.89H634.663V399.575H621.348V412.89Z" fill="#5AAF21" fill-opacity="0.5"/>
<path d="M647.386 386.26V426.205L727.276 417.328V386.26H647.386ZM647.386 386.26H660.701V399.575H674.016V386.26H687.331V399.575H700.646V386.26H713.961V399.575H727.276V412.89H713.961V426.205H700.646H687.331H674.016H660.701H647.386V412.89H660.701V399.575H647.386V386.26ZM660.701 412.89V426.205H674.016V412.89H660.701ZM674.016 412.89H687.331V399.575H674.016V412.89ZM687.331 412.89V426.205H700.646V412.89H687.331ZM700.646 412.89H713.961V399.575H700.646V412.89Z" fill="#5AAF21" fill-opacity="0.5"/>
<path d="M726.684 386.26V426.205L806.574 417.328V386.26H726.684ZM726.684 386.26H739.999V399.575H753.314V386.26H766.629V399.575H779.944V386.26H793.259V399.575H806.574V412.89H793.259V426.205H779.944H766.629H753.314H739.999H726.684V412.89H739.999V399.575H726.684V386.26ZM739.999 412.89V426.205H753.314V412.89H739.999ZM753.314 412.89H766.629V399.575H753.314V412.89ZM766.629 412.89V426.205H779.944V412.89H766.629ZM779.944 412.89H793.259V399.575H779.944V412.89Z" fill="#5AAF21" fill-opacity="0.5"/>
<path d="M92.2983 13.4399V66.7H172.188V13.4399H92.2983ZM92.2983 13.4399H105.613V26.7549H118.928V13.4399H132.243V26.7549H145.558V13.4399H158.873V26.7549H172.188V40.07H158.873V53.385H172.188V66.7H158.873V53.385H145.558V66.7H132.243V53.385H118.928V66.7H105.613V53.385H92.2983V40.07H105.613V26.7549H92.2983V13.4399ZM105.613 40.07V53.385H118.928V40.07H105.613ZM118.928 40.07H132.243V26.7549H118.928V40.07ZM132.243 40.07V53.385H145.558V40.07H132.243ZM145.558 40.07H158.873V26.7549H145.558V40.07Z" fill="#5AAF21" fill-opacity="0.5"/>
<path d="M92.2983 66.6992V119.959H172.188V66.6992H92.2983ZM92.2983 66.6992H105.613V80.0142H118.928V66.6992H132.243V80.0142H145.558V66.6992H158.873V80.0142H172.188V93.3292H158.873V106.644H172.188V119.959H158.873V106.644H145.558V119.959H132.243V106.644H118.928V119.959H105.613V106.644H92.2983V93.3292H105.613V80.0142H92.2983V66.6992ZM105.613 93.3292V106.644H118.928V93.3292H105.613ZM118.928 93.3292H132.243V80.0142H118.928V93.3292ZM132.243 93.3292V106.644H145.558V93.3292H132.243ZM145.558 93.3292H158.873V80.0142H145.558V93.3292Z" fill="#5AAF21" fill-opacity="0.5"/>
<path d="M92.2983 119.959V173.22H172.188V119.959H92.2983ZM92.2983 119.959H105.613V133.274H118.928V119.959H132.243V133.274H145.558V119.959H158.873V133.274H172.188V146.589H158.873V159.904H172.188V173.22H158.873V159.904H145.558V173.22H132.243V159.904H118.928V173.22H105.613V159.904H92.2983V146.589H105.613V133.274H92.2983V119.959ZM105.613 146.589V159.904H118.928V146.589H105.613ZM118.928 146.589H132.243V133.274H118.928V146.589ZM132.243 146.589V159.904H145.558V146.589H132.243ZM145.558 146.589H158.873V133.274H145.558V146.589Z" fill="#5AAF21" fill-opacity="0.5"/>
<path d="M92.2983 173.22V226.48H172.188V173.22H92.2983ZM92.2983 173.22H105.613V186.535H118.928V173.22H132.243V186.535H145.558V173.22H158.873V186.535H172.188V199.85H158.873V213.165H172.188V226.48H158.873V213.165H145.558V226.48H132.243V213.165H118.928V226.48H105.613V213.165H92.2983V199.85H105.613V186.535H92.2983V173.22ZM105.613 199.85V213.165H118.928V199.85H105.613ZM118.928 199.85H132.243V186.535H118.928V199.85ZM132.243 199.85V213.165H145.558V199.85H132.243ZM145.558 199.85H158.873V186.535H145.558V199.85Z" fill="#5AAF21" fill-opacity="0.5"/>
<path d="M92.2983 226.479V279.74H172.188V226.479H92.2983ZM92.2983 226.479H105.613V239.795H118.928V226.479H132.243V239.795H145.558V226.479H158.873V239.795H172.188V253.11H158.873V266.425H172.188V279.74H158.873V266.425H145.558V279.74H132.243V266.425H118.928V279.74H105.613V266.425H92.2983V253.11H105.613V239.795H92.2983V226.479ZM105.613 253.11V266.425H118.928V253.11H105.613ZM118.928 253.11H132.243V239.795H118.928V253.11ZM132.243 253.11V266.425H145.558V253.11H132.243ZM145.558 253.11H158.873V239.795H145.558V253.11Z" fill="#5AAF21" fill-opacity="0.5"/>
<path d="M92.2983 279.74V333H172.188V279.74H92.2983ZM92.2983 279.74H105.613V293.055H118.928V279.74H132.243V293.055H145.558V279.74H158.873V293.055H172.188V306.37H158.873V319.685H172.188V333H158.873V319.685H145.558V333H132.243V319.685H118.928V333H105.613V319.685H92.2983V306.37H105.613V293.055H92.2983V279.74ZM105.613 306.37V319.685H118.928V306.37H105.613ZM118.928 306.37H132.243V293.055H118.928V306.37ZM132.243 306.37V319.685H145.558V306.37H132.243ZM145.558 306.37H158.873V293.055H145.558V306.37Z" fill="#5AAF21" fill-opacity="0.5"/>
<path d="M92.2983 333V386.26H172.188V333H92.2983ZM92.2983 333H105.613V346.315H118.928V333H132.243V346.315H145.558V333H158.873V346.315H172.188V359.63H158.873V372.945H172.188V386.26H158.873V372.945H145.558V386.26H132.243V372.945H118.928V386.26H105.613V372.945H92.2983V359.63H105.613V346.315H92.2983V333ZM105.613 359.63V372.945H118.928V359.63H105.613ZM118.928 359.63H132.243V346.315H118.928V359.63ZM132.243 359.63V372.945H145.558V359.63H132.243ZM145.558 359.63H158.873V346.315H145.558V359.63Z" fill="#5AAF21" fill-opacity="0.5"/>
<path d="M171.597 13.4399V66.7H251.487V13.4399H171.597ZM171.597 13.4399H184.912V26.7549H198.227V13.4399H211.542V26.7549H224.857V13.4399H238.172V26.7549H251.487V40.07H238.172V53.385H251.487V66.7H238.172V53.385H224.857V66.7H211.542V53.385H198.227V66.7H184.912V53.385H171.597V40.07H184.912V26.7549H171.597V13.4399ZM184.912 40.07V53.385H198.227V40.07H184.912ZM198.227 40.07H211.542V26.7549H198.227V40.07ZM211.542 40.07V53.385H224.857V40.07H211.542ZM224.857 40.07H238.172V26.7549H224.857V40.07Z" fill="#5AAF21" fill-opacity="0.5"/>
<path d="M171.597 66.6992V119.959H251.487V66.6992H171.597ZM171.597 66.6992H184.912V80.0142H198.227V66.6992H211.542V80.0142H224.857V66.6992H238.172V80.0142H251.487V93.3292H238.172V106.644H251.487V119.959H238.172V106.644H224.857V119.959H211.542V106.644H198.227V119.959H184.912V106.644H171.597V93.3292H184.912V80.0142H171.597V66.6992ZM184.912 93.3292V106.644H198.227V93.3292H184.912ZM198.227 93.3292H211.542V80.0142H198.227V93.3292ZM211.542 93.3292V106.644H224.857V93.3292H211.542ZM224.857 93.3292H238.172V80.0142H224.857V93.3292Z" fill="#5AAF21" fill-opacity="0.5"/>
<path d="M171.597 119.959V173.22H251.487V119.959H171.597ZM171.597 119.959H184.912V133.274H198.227V119.959H211.542V133.274H224.857V119.959H238.172V133.274H251.487V146.589H238.172V159.904H251.487V173.22H238.172V159.904H224.857V173.22H211.542V159.904H198.227V173.22H184.912V159.904H171.597V146.589H184.912V133.274H171.597V119.959ZM184.912 146.589V159.904H198.227V146.589H184.912ZM198.227 146.589H211.542V133.274H198.227V146.589ZM211.542 146.589V159.904H224.857V146.589H211.542ZM224.857 146.589H238.172V133.274H224.857V146.589Z" fill="#5AAF21" fill-opacity="0.5"/>
<path d="M171.597 173.22V226.48H251.487V173.22H171.597ZM171.597 173.22H184.912V186.535H198.227V173.22H211.542V186.535H224.857V173.22H238.172V186.535H251.487V199.85H238.172V213.165H251.487V226.48H238.172V213.165H224.857V226.48H211.542V213.165H198.227V226.48H184.912V213.165H171.597V199.85H184.912V186.535H171.597V173.22ZM184.912 199.85V213.165H198.227V199.85H184.912ZM198.227 199.85H211.542V186.535H198.227V199.85ZM211.542 199.85V213.165H224.857V199.85H211.542ZM224.857 199.85H238.172V186.535H224.857V199.85Z" fill="#5AAF21" fill-opacity="0.5"/>
<path d="M171.597 226.479V279.74H251.487V226.479H171.597ZM171.597 226.479H184.912V239.795H198.227V226.479H211.542V239.795H224.857V226.479H238.172V239.795H251.487V253.11H238.172V266.425H251.487V279.74H238.172V266.425H224.857V279.74H211.542V266.425H198.227V279.74H184.912V266.425H171.597V253.11H184.912V239.795H171.597V226.479ZM184.912 253.11V266.425H198.227V253.11H184.912ZM198.227 253.11H211.542V239.795H198.227V253.11ZM211.542 253.11V266.425H224.857V253.11H211.542ZM224.857 253.11H238.172V239.795H224.857V253.11Z" fill="#5AAF21" fill-opacity="0.5"/>
<path d="M171.597 279.74V333H251.487V279.74H171.597ZM171.597 279.74H184.912V293.055H198.227V279.74H211.542V293.055H224.857V279.74H238.172V293.055H251.487V306.37H238.172V319.685H251.487V333H238.172V319.685H224.857V333H211.542V319.685H198.227V333H184.912V319.685H171.597V306.37H184.912V293.055H171.597V279.74ZM184.912 306.37V319.685H198.227V306.37H184.912ZM198.227 306.37H211.542V293.055H198.227V306.37ZM211.542 306.37V319.685H224.857V306.37H211.542ZM224.857 306.37H238.172V293.055H224.857V306.37Z" fill="#5AAF21" fill-opacity="0.5"/>
<path d="M171.597 333V386.26H251.487V333H171.597ZM171.597 333H184.912V346.315H198.227V333H211.542V346.315H224.857V333H238.172V346.315H251.487V359.63H238.172V372.945H251.487V386.26H238.172V372.945H224.857V386.26H211.542V372.945H198.227V386.26H184.912V372.945H171.597V359.63H184.912V346.315H171.597V333ZM184.912 359.63V372.945H198.227V359.63H184.912ZM198.227 359.63H211.542V346.315H198.227V359.63ZM211.542 359.63V372.945H224.857V359.63H211.542ZM224.857 359.63H238.172V346.315H224.857V359.63Z" fill="#5AAF21" fill-opacity="0.5"/>
<path d="M250.895 13.4399V66.7H330.785V13.4399H250.895ZM250.895 13.4399H264.21V26.7549H277.525V13.4399H290.84V26.7549H304.155V13.4399H317.47V26.7549H330.785V40.07H317.47V53.385H330.785V66.7H317.47V53.385H304.155V66.7H290.84V53.385H277.525V66.7H264.21V53.385H250.895V40.07H264.21V26.7549H250.895V13.4399ZM264.21 40.07V53.385H277.525V40.07H264.21ZM277.525 40.07H290.84V26.7549H277.525V40.07ZM290.84 40.07V53.385H304.155V40.07H290.84ZM304.155 40.07H317.47V26.7549H304.155V40.07Z" fill="#5AAF21" fill-opacity="0.5"/>
<path d="M250.895 66.6992V119.959H330.785V66.6992H250.895ZM250.895 66.6992H264.21V80.0142H277.525V66.6992H290.84V80.0142H304.155V66.6992H317.47V80.0142H330.785V93.3292H317.47V106.644H330.785V119.959H317.47V106.644H304.155V119.959H290.84V106.644H277.525V119.959H264.21V106.644H250.895V93.3292H264.21V80.0142H250.895V66.6992ZM264.21 93.3292V106.644H277.525V93.3292H264.21ZM277.525 93.3292H290.84V80.0142H277.525V93.3292ZM290.84 93.3292V106.644H304.155V93.3292H290.84ZM304.155 93.3292H317.47V80.0142H304.155V93.3292Z" fill="#5AAF21" fill-opacity="0.5"/>
<path d="M250.895 119.959V173.22H330.785V119.959H250.895ZM250.895 119.959H264.21V133.274H277.525V119.959H290.84V133.274H304.155V119.959H317.47V133.274H330.785V146.589H317.47V159.904H330.785V173.22H317.47V159.904H304.155V173.22H290.84V159.904H277.525V173.22H264.21V159.904H250.895V146.589H264.21V133.274H250.895V119.959ZM264.21 146.589V159.904H277.525V146.589H264.21ZM277.525 146.589H290.84V133.274H277.525V146.589ZM290.84 146.589V159.904H304.155V146.589H290.84ZM304.155 146.589H317.47V133.274H304.155V146.589Z" fill="#5AAF21" fill-opacity="0.5"/>
<path d="M250.895 173.22V226.48H330.785V173.22H250.895ZM250.895 173.22H264.21V186.535H277.525V173.22H290.84V186.535H304.155V173.22H317.47V186.535H330.785V199.85H317.47V213.165H330.785V226.48H317.47V213.165H304.155V226.48H290.84V213.165H277.525V226.48H264.21V213.165H250.895V199.85H264.21V186.535H250.895V173.22ZM264.21 199.85V213.165H277.525V199.85H264.21ZM277.525 199.85H290.84V186.535H277.525V199.85ZM290.84 199.85V213.165H304.155V199.85H290.84ZM304.155 199.85H317.47V186.535H304.155V199.85Z" fill="#5AAF21" fill-opacity="0.5"/>
<path d="M250.895 226.479V279.74H330.785V226.479H250.895ZM250.895 226.479H264.21V239.795H277.525V226.479H290.84V239.795H304.155V226.479H317.47V239.795H330.785V253.11H317.47V266.425H330.785V279.74H317.47V266.425H304.155V279.74H290.84V266.425H277.525V279.74H264.21V266.425H250.895V253.11H264.21V239.795H250.895V226.479ZM264.21 253.11V266.425H277.525V253.11H264.21ZM277.525 253.11H290.84V239.795H277.525V253.11ZM290.84 253.11V266.425H304.155V253.11H290.84ZM304.155 253.11H317.47V239.795H304.155V253.11Z" fill="#5AAF21" fill-opacity="0.5"/>
<path d="M250.895 279.74V333H330.785V279.74H250.895ZM250.895 279.74H264.21V293.055H277.525V279.74H290.84V293.055H304.155V279.74H317.47V293.055H330.785V306.37H317.47V319.685H330.785V333H317.47V319.685H304.155V333H290.84V319.685H277.525V333H264.21V319.685H250.895V306.37H264.21V293.055H250.895V279.74ZM264.21 306.37V319.685H277.525V306.37H264.21ZM277.525 306.37H290.84V293.055H277.525V306.37ZM290.84 306.37V319.685H304.155V306.37H290.84ZM304.155 306.37H317.47V293.055H304.155V306.37Z" fill="#5AAF21" fill-opacity="0.5"/>
<path d="M250.895 333V386.26H330.785V333H250.895ZM250.895 333H264.21V346.315H277.525V333H290.84V346.315H304.155V333H317.47V346.315H330.785V359.63H317.47V372.945H330.785V386.26H317.47V372.945H304.155V386.26H290.84V372.945H277.525V386.26H264.21V372.945H250.895V359.63H264.21V346.315H250.895V333ZM264.21 359.63V372.945H277.525V359.63H264.21ZM277.525 359.63H290.84V346.315H277.525V359.63ZM290.84 359.63V372.945H304.155V359.63H290.84ZM304.155 359.63H317.47V346.315H304.155V359.63Z" fill="#5AAF21" fill-opacity="0.5"/>
<path d="M330.193 13.4399V66.7H410.083V13.4399H330.193ZM330.193 13.4399H343.508V26.7549H356.823V13.4399H370.138V26.7549H383.453V13.4399H396.768V26.7549H410.083V40.07H396.768V53.385H410.083V66.7H396.768V53.385H383.453V66.7H370.138V53.385H356.823V66.7H343.508V53.385H330.193V40.07H343.508V26.7549H330.193V13.4399ZM343.508 40.07V53.385H356.823V40.07H343.508ZM356.823 40.07H370.138V26.7549H356.823V40.07ZM370.138 40.07V53.385H383.453V40.07H370.138ZM383.453 40.07H396.768V26.7549H383.453V40.07Z" fill="#5AAF21" fill-opacity="0.5"/>
<path d="M330.193 66.6992V119.959H410.083V66.6992H330.193ZM330.193 66.6992H343.508V80.0142H356.823V66.6992H370.138V80.0142H383.453V66.6992H396.768V80.0142H410.083V93.3292H396.768V106.644H410.083V119.959H396.768V106.644H383.453V119.959H370.138V106.644H356.823V119.959H343.508V106.644H330.193V93.3292H343.508V80.0142H330.193V66.6992ZM343.508 93.3292V106.644H356.823V93.3292H343.508ZM356.823 93.3292H370.138V80.0142H356.823V93.3292ZM370.138 93.3292V106.644H383.453V93.3292H370.138ZM383.453 93.3292H396.768V80.0142H383.453V93.3292Z" fill="#5AAF21" fill-opacity="0.5"/>
<path d="M330.193 119.959V173.22H410.083V119.959H330.193ZM330.193 119.959H343.508V133.274H356.823V119.959H370.138V133.274H383.453V119.959H396.768V133.274H410.083V146.589H396.768V159.904H410.083V173.22H396.768V159.904H383.453V173.22H370.138V159.904H356.823V173.22H343.508V159.904H330.193V146.589H343.508V133.274H330.193V119.959ZM343.508 146.589V159.904H356.823V146.589H343.508ZM356.823 146.589H370.138V133.274H356.823V146.589ZM370.138 146.589V159.904H383.453V146.589H370.138ZM383.453 146.589H396.768V133.274H383.453V146.589Z" fill="#5AAF21" fill-opacity="0.5"/>
<path d="M330.193 173.22V226.48H410.083V173.22H330.193ZM330.193 173.22H343.508V186.535H356.823V173.22H370.138V186.535H383.453V173.22H396.768V186.535H410.083V199.85H396.768V213.165H410.083V226.48H396.768V213.165H383.453V226.48H370.138V213.165H356.823V226.48H343.508V213.165H330.193V199.85H343.508V186.535H330.193V173.22ZM343.508 199.85V213.165H356.823V199.85H343.508ZM356.823 199.85H370.138V186.535H356.823V199.85ZM370.138 199.85V213.165H383.453V199.85H370.138ZM383.453 199.85H396.768V186.535H383.453V199.85Z" fill="#5AAF21" fill-opacity="0.5"/>
<path d="M330.193 226.479V279.74H410.083V226.479H330.193ZM330.193 226.479H343.508V239.795H356.823V226.479H370.138V239.795H383.453V226.479H396.768V239.795H410.083V253.11H396.768V266.425H410.083V279.74H396.768V266.425H383.453V279.74H370.138V266.425H356.823V279.74H343.508V266.425H330.193V253.11H343.508V239.795H330.193V226.479ZM343.508 253.11V266.425H356.823V253.11H343.508ZM356.823 253.11H370.138V239.795H356.823V253.11ZM370.138 253.11V266.425H383.453V253.11H370.138ZM383.453 253.11H396.768V239.795H383.453V253.11Z" fill="#5AAF21" fill-opacity="0.5"/>
<path d="M330.193 279.74V333H410.083V279.74H330.193ZM330.193 279.74H343.508V293.055H356.823V279.74H370.138V293.055H383.453V279.74H396.768V293.055H410.083V306.37H396.768V319.685H410.083V333H396.768V319.685H383.453V333H370.138V319.685H356.823V333H343.508V319.685H330.193V306.37H343.508V293.055H330.193V279.74ZM343.508 306.37V319.685H356.823V306.37H343.508ZM356.823 306.37H370.138V293.055H356.823V306.37ZM370.138 306.37V319.685H383.453V306.37H370.138ZM383.453 306.37H396.768V293.055H383.453V306.37Z" fill="#5AAF21" fill-opacity="0.5"/>
<path d="M330.193 333V386.26H410.083V333H330.193ZM330.193 333H343.508V346.315H356.823V333H370.138V346.315H383.453V333H396.768V346.315H410.083V359.63H396.768V372.945H410.083V386.26H396.768V372.945H383.453V386.26H370.138V372.945H356.823V386.26H343.508V372.945H330.193V359.63H343.508V346.315H330.193V333ZM343.508 359.63V372.945H356.823V359.63H343.508ZM356.823 359.63H370.138V346.315H356.823V359.63ZM370.138 359.63V372.945H383.453V359.63H370.138ZM383.453 359.63H396.768V346.315H383.453V359.63Z" fill="#5AAF21" fill-opacity="0.5"/>
<path d="M409.491 13.4399V66.7H489.381V13.4399H409.491ZM409.491 13.4399H422.806V26.7549H436.121V13.4399H449.436V26.7549H462.751V13.4399H476.066V26.7549H489.381V40.07H476.066V53.385H489.381V66.7H476.066V53.385H462.751V66.7H449.436V53.385H436.121V66.7H422.806V53.385H409.491V40.07H422.806V26.7549H409.491V13.4399ZM422.806 40.07V53.385H436.121V40.07H422.806ZM436.121 40.07H449.436V26.7549H436.121V40.07ZM449.436 40.07V53.385H462.751V40.07H449.436ZM462.751 40.07H476.066V26.7549H462.751V40.07Z" fill="#5AAF21" fill-opacity="0.5"/>
<path d="M409.491 66.6992V119.959H489.381V66.6992H409.491ZM409.491 66.6992H422.806V80.0142H436.121V66.6992H449.436V80.0142H462.751V66.6992H476.066V80.0142H489.381V93.3292H476.066V106.644H489.381V119.959H476.066V106.644H462.751V119.959H449.436V106.644H436.121V119.959H422.806V106.644H409.491V93.3292H422.806V80.0142H409.491V66.6992ZM422.806 93.3292V106.644H436.121V93.3292H422.806ZM436.121 93.3292H449.436V80.0142H436.121V93.3292ZM449.436 93.3292V106.644H462.751V93.3292H449.436ZM462.751 93.3292H476.066V80.0142H462.751V93.3292Z" fill="#5AAF21" fill-opacity="0.5"/>
<path d="M409.491 119.959V173.22H489.381V119.959H409.491ZM409.491 119.959H422.806V133.274H436.121V119.959H449.436V133.274H462.751V119.959H476.066V133.274H489.381V146.589H476.066V159.904H489.381V173.22H476.066V159.904H462.751V173.22H449.436V159.904H436.121V173.22H422.806V159.904H409.491V146.589H422.806V133.274H409.491V119.959ZM422.806 146.589V159.904H436.121V146.589H422.806ZM436.121 146.589H449.436V133.274H436.121V146.589ZM449.436 146.589V159.904H462.751V146.589H449.436ZM462.751 146.589H476.066V133.274H462.751V146.589Z" fill="#5AAF21" fill-opacity="0.5"/>
<path d="M409.491 173.22V226.48H489.381V173.22H409.491ZM409.491 173.22H422.806V186.535H436.121V173.22H449.436V186.535H462.751V173.22H476.066V186.535H489.381V199.85H476.066V213.165H489.381V226.48H476.066V213.165H462.751V226.48H449.436V213.165H436.121V226.48H422.806V213.165H409.491V199.85H422.806V186.535H409.491V173.22ZM422.806 199.85V213.165H436.121V199.85H422.806ZM436.121 199.85H449.436V186.535H436.121V199.85ZM449.436 199.85V213.165H462.751V199.85H449.436ZM462.751 199.85H476.066V186.535H462.751V199.85Z" fill="#5AAF21" fill-opacity="0.5"/>
<path d="M409.491 226.479V279.74H489.381V226.479H409.491ZM409.491 226.479H422.806V239.795H436.121V226.479H449.436V239.795H462.751V226.479H476.066V239.795H489.381V253.11H476.066V266.425H489.381V279.74H476.066V266.425H462.751V279.74H449.436V266.425H436.121V279.74H422.806V266.425H409.491V253.11H422.806V239.795H409.491V226.479ZM422.806 253.11V266.425H436.121V253.11H422.806ZM436.121 253.11H449.436V239.795H436.121V253.11ZM449.436 253.11V266.425H462.751V253.11H449.436ZM462.751 253.11H476.066V239.795H462.751V253.11Z" fill="#5AAF21" fill-opacity="0.5"/>
<path d="M409.491 279.74V333H489.381V279.74H409.491ZM409.491 279.74H422.806V293.055H436.121V279.74H449.436V293.055H462.751V279.74H476.066V293.055H489.381V306.37H476.066V319.685H489.381V333H476.066V319.685H462.751V333H449.436V319.685H436.121V333H422.806V319.685H409.491V306.37H422.806V293.055H409.491V279.74ZM422.806 306.37V319.685H436.121V306.37H422.806ZM436.121 306.37H449.436V293.055H436.121V306.37ZM449.436 306.37V319.685H462.751V306.37H449.436ZM462.751 306.37H476.066V293.055H462.751V306.37Z" fill="#5AAF21" fill-opacity="0.5"/>
<path d="M409.491 333V386.26H489.381V333H409.491ZM409.491 333H422.806V346.315H436.121V333H449.436V346.315H462.751V333H476.066V346.315H489.381V359.63H476.066V372.945H489.381V386.26H476.066V372.945H462.751V386.26H449.436V372.945H436.121V386.26H422.806V372.945H409.491V359.63H422.806V346.315H409.491V333ZM422.806 359.63V372.945H436.121V359.63H422.806ZM436.121 359.63H449.436V346.315H436.121V359.63ZM449.436 359.63V372.945H462.751V359.63H449.436ZM462.751 359.63H476.066V346.315H462.751V359.63Z" fill="#5AAF21" fill-opacity="0.5"/>
<path d="M488.79 13.4399V66.7H568.68V13.4399H488.79ZM488.79 13.4399H502.105V26.7549H515.42V13.4399H528.735V26.7549H542.05V13.4399H555.365V26.7549H568.68V40.07H555.365V53.385H568.68V66.7H555.365V53.385H542.05V66.7H528.735V53.385H515.42V66.7H502.105V53.385H488.79V40.07H502.105V26.7549H488.79V13.4399ZM502.105 40.07V53.385H515.42V40.07H502.105ZM515.42 40.07H528.735V26.7549H515.42V40.07ZM528.735 40.07V53.385H542.05V40.07H528.735ZM542.05 40.07H555.365V26.7549H542.05V40.07Z" fill="#5AAF21" fill-opacity="0.5"/>
<path d="M488.79 66.6992V119.959H568.68V66.6992H488.79ZM488.79 66.6992H502.105V80.0142H515.42V66.6992H528.735V80.0142H542.05V66.6992H555.365V80.0142H568.68V93.3292H555.365V106.644H568.68V119.959H555.365V106.644H542.05V119.959H528.735V106.644H515.42V119.959H502.105V106.644H488.79V93.3292H502.105V80.0142H488.79V66.6992ZM502.105 93.3292V106.644H515.42V93.3292H502.105ZM515.42 93.3292H528.735V80.0142H515.42V93.3292ZM528.735 93.3292V106.644H542.05V93.3292H528.735ZM542.05 93.3292H555.365V80.0142H542.05V93.3292Z" fill="#5AAF21" fill-opacity="0.5"/>
<path d="M488.79 119.959V173.22H568.68V119.959H488.79ZM488.79 119.959H502.105V133.274H515.42V119.959H528.735V133.274H542.05V119.959H555.365V133.274H568.68V146.589H555.365V159.904H568.68V173.22H555.365V159.904H542.05V173.22H528.735V159.904H515.42V173.22H502.105V159.904H488.79V146.589H502.105V133.274H488.79V119.959ZM502.105 146.589V159.904H515.42V146.589H502.105ZM515.42 146.589H528.735V133.274H515.42V146.589ZM528.735 146.589V159.904H542.05V146.589H528.735ZM542.05 146.589H555.365V133.274H542.05V146.589Z" fill="#5AAF21" fill-opacity="0.5"/>
<path d="M488.79 173.22V226.48H568.68V173.22H488.79ZM488.79 173.22H502.105V186.535H515.42V173.22H528.735V186.535H542.05V173.22H555.365V186.535H568.68V199.85H555.365V213.165H568.68V226.48H555.365V213.165H542.05V226.48H528.735V213.165H515.42V226.48H502.105V213.165H488.79V199.85H502.105V186.535H488.79V173.22ZM502.105 199.85V213.165H515.42V199.85H502.105ZM515.42 199.85H528.735V186.535H515.42V199.85ZM528.735 199.85V213.165H542.05V199.85H528.735ZM542.05 199.85H555.365V186.535H542.05V199.85Z" fill="#5AAF21" fill-opacity="0.5"/>
<path d="M488.79 226.479V279.74H568.68V226.479H488.79ZM488.79 226.479H502.105V239.795H515.42V226.479H528.735V239.795H542.05V226.479H555.365V239.795H568.68V253.11H555.365V266.425H568.68V279.74H555.365V266.425H542.05V279.74H528.735V266.425H515.42V279.74H502.105V266.425H488.79V253.11H502.105V239.795H488.79V226.479ZM502.105 253.11V266.425H515.42V253.11H502.105ZM515.42 253.11H528.735V239.795H515.42V253.11ZM528.735 253.11V266.425H542.05V253.11H528.735ZM542.05 253.11H555.365V239.795H542.05V253.11Z" fill="#5AAF21" fill-opacity="0.5"/>
<path d="M488.79 279.74V333H568.68V279.74H488.79ZM488.79 279.74H502.105V293.055H515.42V279.74H528.735V293.055H542.05V279.74H555.365V293.055H568.68V306.37H555.365V319.685H568.68V333H555.365V319.685H542.05V333H528.735V319.685H515.42V333H502.105V319.685H488.79V306.37H502.105V293.055H488.79V279.74ZM502.105 306.37V319.685H515.42V306.37H502.105ZM515.42 306.37H528.735V293.055H515.42V306.37ZM528.735 306.37V319.685H542.05V306.37H528.735ZM542.05 306.37H555.365V293.055H542.05V306.37Z" fill="#5AAF21" fill-opacity="0.5"/>
<path d="M488.79 333V386.26H568.68V333H488.79ZM488.79 333H502.105V346.315H515.42V333H528.735V346.315H542.05V333H555.365V346.315H568.68V359.63H555.365V372.945H568.68V386.26H555.365V372.945H542.05V386.26H528.735V372.945H515.42V386.26H502.105V372.945H488.79V359.63H502.105V346.315H488.79V333ZM502.105 359.63V372.945H515.42V359.63H502.105ZM515.42 359.63H528.735V346.315H515.42V359.63ZM528.735 359.63V372.945H542.05V359.63H528.735ZM542.05 359.63H555.365V346.315H542.05V359.63Z" fill="#5AAF21" fill-opacity="0.5"/>
<path d="M568.088 13.4399V66.7H647.978V13.4399H568.088ZM568.088 13.4399H581.403V26.7549H594.718V13.4399H608.033V26.7549H621.348V13.4399H634.663V26.7549H647.978V40.07H634.663V53.385H647.978V66.7H634.663V53.385H621.348V66.7H608.033V53.385H594.718V66.7H581.403V53.385H568.088V40.07H581.403V26.7549H568.088V13.4399ZM581.403 40.07V53.385H594.718V40.07H581.403ZM594.718 40.07H608.033V26.7549H594.718V40.07ZM608.033 40.07V53.385H621.348V40.07H608.033ZM621.348 40.07H634.663V26.7549H621.348V40.07Z" fill="#5AAF21" fill-opacity="0.5"/>
<path d="M568.088 66.6992V119.959H647.978V66.6992H568.088ZM568.088 66.6992H581.403V80.0142H594.718V66.6992H608.033V80.0142H621.348V66.6992H634.663V80.0142H647.978V93.3292H634.663V106.644H647.978V119.959H634.663V106.644H621.348V119.959H608.033V106.644H594.718V119.959H581.403V106.644H568.088V93.3292H581.403V80.0142H568.088V66.6992ZM581.403 93.3292V106.644H594.718V93.3292H581.403ZM594.718 93.3292H608.033V80.0142H594.718V93.3292ZM608.033 93.3292V106.644H621.348V93.3292H608.033ZM621.348 93.3292H634.663V80.0142H621.348V93.3292Z" fill="#5AAF21" fill-opacity="0.5"/>
<path d="M568.088 119.959V173.22H647.978V119.959H568.088ZM568.088 119.959H581.403V133.274H594.718V119.959H608.033V133.274H621.348V119.959H634.663V133.274H647.978V146.589H634.663V159.904H647.978V173.22H634.663V159.904H621.348V173.22H608.033V159.904H594.718V173.22H581.403V159.904H568.088V146.589H581.403V133.274H568.088V119.959ZM581.403 146.589V159.904H594.718V146.589H581.403ZM594.718 146.589H608.033V133.274H594.718V146.589ZM608.033 146.589V159.904H621.348V146.589H608.033ZM621.348 146.589H634.663V133.274H621.348V146.589Z" fill="#5AAF21" fill-opacity="0.5"/>
<path d="M568.088 173.22V226.48H647.978V173.22H568.088ZM568.088 173.22H581.403V186.535H594.718V173.22H608.033V186.535H621.348V173.22H634.663V186.535H647.978V199.85H634.663V213.165H647.978V226.48H634.663V213.165H621.348V226.48H608.033V213.165H594.718V226.48H581.403V213.165H568.088V199.85H581.403V186.535H568.088V173.22ZM581.403 199.85V213.165H594.718V199.85H581.403ZM594.718 199.85H608.033V186.535H594.718V199.85ZM608.033 199.85V213.165H621.348V199.85H608.033ZM621.348 199.85H634.663V186.535H621.348V199.85Z" fill="#5AAF21" fill-opacity="0.5"/>
<path d="M568.088 226.479V279.74H647.978V226.479H568.088ZM568.088 226.479H581.403V239.795H594.718V226.479H608.033V239.795H621.348V226.479H634.663V239.795H647.978V253.11H634.663V266.425H647.978V279.74H634.663V266.425H621.348V279.74H608.033V266.425H594.718V279.74H581.403V266.425H568.088V253.11H581.403V239.795H568.088V226.479ZM581.403 253.11V266.425H594.718V253.11H581.403ZM594.718 253.11H608.033V239.795H594.718V253.11ZM608.033 253.11V266.425H621.348V253.11H608.033ZM621.348 253.11H634.663V239.795H621.348V253.11Z" fill="#5AAF21" fill-opacity="0.5"/>
<path d="M568.088 279.74V333H647.978V279.74H568.088ZM568.088 279.74H581.403V293.055H594.718V279.74H608.033V293.055H621.348V279.74H634.663V293.055H647.978V306.37H634.663V319.685H647.978V333H634.663V319.685H621.348V333H608.033V319.685H594.718V333H581.403V319.685H568.088V306.37H581.403V293.055H568.088V279.74ZM581.403 306.37V319.685H594.718V306.37H581.403ZM594.718 306.37H608.033V293.055H594.718V306.37ZM608.033 306.37V319.685H621.348V306.37H608.033ZM621.348 306.37H634.663V293.055H621.348V306.37Z" fill="#5AAF21" fill-opacity="0.5"/>
<path d="M568.088 333V386.26H647.978V333H568.088ZM568.088 333H581.403V346.315H594.718V333H608.033V346.315H621.348V333H634.663V346.315H647.978V359.63H634.663V372.945H647.978V386.26H634.663V372.945H621.348V386.26H608.033V372.945H594.718V386.26H581.403V372.945H568.088V359.63H581.403V346.315H568.088V333ZM581.403 359.63V372.945H594.718V359.63H581.403ZM594.718 359.63H608.033V346.315H594.718V359.63ZM608.033 359.63V372.945H621.348V359.63H608.033ZM621.348 359.63H634.663V346.315H621.348V359.63Z" fill="#5AAF21" fill-opacity="0.5"/>
<path d="M647.386 13.4399V66.7H727.276V13.4399H647.386ZM647.386 13.4399H660.701V26.7549H674.016V13.4399H687.331V26.7549H700.646V13.4399H713.961V26.7549H727.276V40.07H713.961V53.385H727.276V66.7H713.961V53.385H700.646V66.7H687.331V53.385H674.016V66.7H660.701V53.385H647.386V40.07H660.701V26.7549H647.386V13.4399ZM660.701 40.07V53.385H674.016V40.07H660.701ZM674.016 40.07H687.331V26.7549H674.016V40.07ZM687.331 40.07V53.385H700.646V40.07H687.331ZM700.646 40.07H713.961V26.7549H700.646V40.07Z" fill="#5AAF21" fill-opacity="0.5"/>
<path d="M647.386 66.6992V119.959H727.276V66.6992H647.386ZM647.386 66.6992H660.701V80.0142H674.016V66.6992H687.331V80.0142H700.646V66.6992H713.961V80.0142H727.276V93.3292H713.961V106.644H727.276V119.959H713.961V106.644H700.646V119.959H687.331V106.644H674.016V119.959H660.701V106.644H647.386V93.3292H660.701V80.0142H647.386V66.6992ZM660.701 93.3292V106.644H674.016V93.3292H660.701ZM674.016 93.3292H687.331V80.0142H674.016V93.3292ZM687.331 93.3292V106.644H700.646V93.3292H687.331ZM700.646 93.3292H713.961V80.0142H700.646V93.3292Z" fill="#5AAF21" fill-opacity="0.5"/>
<path d="M647.386 119.959V173.22H727.276V119.959H647.386ZM647.386 119.959H660.701V133.274H674.016V119.959H687.331V133.274H700.646V119.959H713.961V133.274H727.276V146.589H713.961V159.904H727.276V173.22H713.961V159.904H700.646V173.22H687.331V159.904H674.016V173.22H660.701V159.904H647.386V146.589H660.701V133.274H647.386V119.959ZM660.701 146.589V159.904H674.016V146.589H660.701ZM674.016 146.589H687.331V133.274H674.016V146.589ZM687.331 146.589V159.904H700.646V146.589H687.331ZM700.646 146.589H713.961V133.274H700.646V146.589Z" fill="#5AAF21" fill-opacity="0.5"/>
<path d="M647.386 173.22V226.48H727.276V173.22H647.386ZM647.386 173.22H660.701V186.535H674.016V173.22H687.331V186.535H700.646V173.22H713.961V186.535H727.276V199.85H713.961V213.165H727.276V226.48H713.961V213.165H700.646V226.48H687.331V213.165H674.016V226.48H660.701V213.165H647.386V199.85H660.701V186.535H647.386V173.22ZM660.701 199.85V213.165H674.016V199.85H660.701ZM674.016 199.85H687.331V186.535H674.016V199.85ZM687.331 199.85V213.165H700.646V199.85H687.331ZM700.646 199.85H713.961V186.535H700.646V199.85Z" fill="#5AAF21" fill-opacity="0.5"/>
<path d="M647.386 226.479V279.74H727.276V226.479H647.386ZM647.386 226.479H660.701V239.795H674.016V226.479H687.331V239.795H700.646V226.479H713.961V239.795H727.276V253.11H713.961V266.425H727.276V279.74H713.961V266.425H700.646V279.74H687.331V266.425H674.016V279.74H660.701V266.425H647.386V253.11H660.701V239.795H647.386V226.479ZM660.701 253.11V266.425H674.016V253.11H660.701ZM674.016 253.11H687.331V239.795H674.016V253.11ZM687.331 253.11V266.425H700.646V253.11H687.331ZM700.646 253.11H713.961V239.795H700.646V253.11Z" fill="#5AAF21" fill-opacity="0.5"/>
<path d="M647.386 279.74V333H727.276V279.74H647.386ZM647.386 279.74H660.701V293.055H674.016V279.74H687.331V293.055H700.646V279.74H713.961V293.055H727.276V306.37H713.961V319.685H727.276V333H713.961V319.685H700.646V333H687.331V319.685H674.016V333H660.701V319.685H647.386V306.37H660.701V293.055H647.386V279.74ZM660.701 306.37V319.685H674.016V306.37H660.701ZM674.016 306.37H687.331V293.055H674.016V306.37ZM687.331 306.37V319.685H700.646V306.37H687.331ZM700.646 306.37H713.961V293.055H700.646V306.37Z" fill="#5AAF21" fill-opacity="0.5"/>
<path d="M647.386 333V386.26H727.276V333H647.386ZM647.386 333H660.701V346.315H674.016V333H687.331V346.315H700.646V333H713.961V346.315H727.276V359.63H713.961V372.945H727.276V386.26H713.961V372.945H700.646V386.26H687.331V372.945H674.016V386.26H660.701V372.945H647.386V359.63H660.701V346.315H647.386V333ZM660.701 359.63V372.945H674.016V359.63H660.701ZM674.016 359.63H687.331V346.315H674.016V359.63ZM687.331 359.63V372.945H700.646V359.63H687.331ZM700.646 359.63H713.961V346.315H700.646V359.63Z" fill="#5AAF21" fill-opacity="0.5"/>
<path d="M726.684 13.4399V66.7H806.574V13.4399H726.684ZM726.684 13.4399H739.999V26.7549H753.314V13.4399H766.629V26.7549H779.944V13.4399H793.259V26.7549H806.574V40.07H793.259V53.385H806.574V66.7H793.259V53.385H779.944V66.7H766.629V53.385H753.314V66.7H739.999V53.385H726.684V40.07H739.999V26.7549H726.684V13.4399ZM739.999 40.07V53.385H753.314V40.07H739.999ZM753.314 40.07H766.629V26.7549H753.314V40.07ZM766.629 40.07V53.385H779.944V40.07H766.629ZM779.944 40.07H793.259V26.7549H779.944V40.07Z" fill="#5AAF21" fill-opacity="0.5"/>
<path d="M726.684 66.6992V119.959H806.574V66.6992H726.684ZM726.684 66.6992H739.999V80.0142H753.314V66.6992H766.629V80.0142H779.944V66.6992H793.259V80.0142H806.574V93.3292H793.259V106.644H806.574V119.959H793.259V106.644H779.944V119.959H766.629V106.644H753.314V119.959H739.999V106.644H726.684V93.3292H739.999V80.0142H726.684V66.6992ZM739.999 93.3292V106.644H753.314V93.3292H739.999ZM753.314 93.3292H766.629V80.0142H753.314V93.3292ZM766.629 93.3292V106.644H779.944V93.3292H766.629ZM779.944 93.3292H793.259V80.0142H779.944V93.3292Z" fill="#5AAF21" fill-opacity="0.5"/>
<path d="M726.684 119.959V173.22H806.574V119.959H726.684ZM726.684 119.959H739.999V133.274H753.314V119.959H766.629V133.274H779.944V119.959H793.259V133.274H806.574V146.589H793.259V159.904H806.574V173.22H793.259V159.904H779.944V173.22H766.629V159.904H753.314V173.22H739.999V159.904H726.684V146.589H739.999V133.274H726.684V119.959ZM739.999 146.589V159.904H753.314V146.589H739.999ZM753.314 146.589H766.629V133.274H753.314V146.589ZM766.629 146.589V159.904H779.944V146.589H766.629ZM779.944 146.589H793.259V133.274H779.944V146.589Z" fill="#5AAF21" fill-opacity="0.5"/>
<path d="M726.684 173.22V226.48H806.574V173.22H726.684ZM726.684 173.22H739.999V186.535H753.314V173.22H766.629V186.535H779.944V173.22H793.259V186.535H806.574V199.85H793.259V213.165H806.574V226.48H793.259V213.165H779.944V226.48H766.629V213.165H753.314V226.48H739.999V213.165H726.684V199.85H739.999V186.535H726.684V173.22ZM739.999 199.85V213.165H753.314V199.85H739.999ZM753.314 199.85H766.629V186.535H753.314V199.85ZM766.629 199.85V213.165H779.944V199.85H766.629ZM779.944 199.85H793.259V186.535H779.944V199.85Z" fill="#5AAF21" fill-opacity="0.5"/>
<path d="M726.684 226.479V279.74H806.574V226.479H726.684ZM726.684 226.479H739.999V239.795H753.314V226.479H766.629V239.795H779.944V226.479H793.259V239.795H806.574V253.11H793.259V266.425H806.574V279.74H793.259V266.425H779.944V279.74H766.629V266.425H753.314V279.74H739.999V266.425H726.684V253.11H739.999V239.795H726.684V226.479ZM739.999 253.11V266.425H753.314V253.11H739.999ZM753.314 253.11H766.629V239.795H753.314V253.11ZM766.629 253.11V266.425H779.944V253.11H766.629ZM779.944 253.11H793.259V239.795H779.944V253.11Z" fill="#5AAF21" fill-opacity="0.5"/>
<path d="M726.684 279.74V333H806.574V279.74H726.684ZM726.684 279.74H739.999V293.055H753.314V279.74H766.629V293.055H779.944V279.74H793.259V293.055H806.574V306.37H793.259V319.685H806.574V333H793.259V319.685H779.944V333H766.629V319.685H753.314V333H739.999V319.685H726.684V306.37H739.999V293.055H726.684V279.74ZM739.999 306.37V319.685H753.314V306.37H739.999ZM753.314 306.37H766.629V293.055H753.314V306.37ZM766.629 306.37V319.685H779.944V306.37H766.629ZM779.944 306.37H793.259V293.055H779.944V306.37Z" fill="#5AAF21" fill-opacity="0.5"/>
<path d="M726.684 333V386.26H806.574V333H726.684ZM726.684 333H739.999V346.315H753.314V333H766.629V346.315H779.944V333H793.259V346.315H806.574V359.63H793.259V372.945H806.574V386.26H793.259V372.945H779.944V386.26H766.629V372.945H753.314V386.26H739.999V372.945H726.684V359.63H739.999V346.315H726.684V333ZM739.999 359.63V372.945H753.314V359.63H739.999ZM753.314 359.63H766.629V346.315H753.314V359.63ZM766.629 359.63V372.945H779.944V359.63H766.629ZM779.944 359.63H793.259V346.315H779.944V359.63Z" fill="#5AAF21" fill-opacity="0.5"/>
<path d="M752.723 66.6996L749.172 63.1489L763.375 48.9462L749.172 34.7435L752.723 31.1929L766.925 45.3955L781.128 31.1929L784.679 34.7435L770.476 48.9462L784.679 63.1489L781.128 66.6996L766.925 52.4969L752.723 66.6996Z" fill="#357C05"/>
<path d="M729.643 62.443V41.3674H698.871M729.643 62.443V69.0668H691.178V41.3674H698.871M729.643 62.443H734.969V34.7437H698.871V41.3674" stroke="#357C05" stroke-width="3.55067"/>
<path d="M676.975 66.6995V59.5981H634.367V66.6995H676.975Z" fill="#357C05"/>
</svg>
