<svg width="1146" height="594" viewBox="0 0 1146 594" fill="none" xmlns="http://www.w3.org/2000/svg">
<rect x="8.2948" y="5.51429" width="1125.28" height="578.202" fill="#D9D9D9" stroke="#5AAF21" stroke-width="10.9714"/>
<path d="M13 11.6201V86.7504H125.695V11.6201H13ZM13 11.6201H31.7826V30.4027H50.5651V11.6201H69.3477V30.4027H88.1302V11.6201H106.913V30.4027H125.695V49.1852H106.913V67.9678H125.695V86.7504H106.913V67.9678H88.1302V86.7504H69.3477V67.9678H50.5651V86.7504H31.7826V67.9678H13V49.1852H31.7826V30.4027H13V11.6201ZM31.7826 49.1852V67.9678H50.5651V49.1852H31.7826ZM50.5651 49.1852H69.3477V30.4027H50.5651V49.1852ZM69.3477 49.1852V67.9678H88.1302V49.1852H69.3477ZM88.1302 49.1852H106.913V30.4027H88.1302V49.1852Z" fill="#5AAF21" fill-opacity="0.5"/>
<path d="M13 86.7505V161.881H125.695V86.7505H13ZM13 86.7505H31.7826V105.533H50.5651V86.7505H69.3477V105.533H88.1302V86.7505H106.913V105.533H125.695V124.316H106.913V143.098H125.695V161.881H106.913V143.098H88.1302V161.881H69.3477V143.098H50.5651V161.881H31.7826V143.098H13V124.316H31.7826V105.533H13V86.7505ZM31.7826 124.316V143.098H50.5651V124.316H31.7826ZM50.5651 124.316H69.3477V105.533H50.5651V124.316ZM69.3477 124.316V143.098H88.1302V124.316H69.3477ZM88.1302 124.316H106.913V105.533H88.1302V124.316Z" fill="#5AAF21" fill-opacity="0.5"/>
<path d="M13 161.88V237.011H125.695V161.88H13ZM13 161.88H31.7826V180.663H50.5651V161.88H69.3477V180.663H88.1302V161.88H106.913V180.663H125.695V199.445H106.913V218.228H125.695V237.011H106.913V218.228H88.1302V237.011H69.3477V218.228H50.5651V237.011H31.7826V218.228H13V199.445H31.7826V180.663H13V161.88ZM31.7826 199.445V218.228H50.5651V199.445H31.7826ZM50.5651 199.445H69.3477V180.663H50.5651V199.445ZM69.3477 199.445V218.228H88.1302V199.445H69.3477ZM88.1302 199.445H106.913V180.663H88.1302V199.445Z" fill="#5AAF21" fill-opacity="0.5"/>
<path d="M13 237.011V312.141H125.695V237.011H13ZM13 237.011H31.7826V255.793H50.5651V237.011H69.3477V255.793H88.1302V237.011H106.913V255.793H125.695V274.576H106.913V293.358H125.695V312.141H106.913V293.358H88.1302V312.141H69.3477V293.358H50.5651V312.141H31.7826V293.358H13V274.576H31.7826V255.793H13V237.011ZM31.7826 274.576V293.358H50.5651V274.576H31.7826ZM50.5651 274.576H69.3477V255.793H50.5651V274.576ZM69.3477 274.576V293.358H88.1302V274.576H69.3477ZM88.1302 274.576H106.913V255.793H88.1302V274.576Z" fill="#5AAF21" fill-opacity="0.5"/>
<path d="M13 312.141V387.271H125.695V312.141H13ZM13 312.141H31.7826V330.924H50.5651V312.141H69.3477V330.924H88.1302V312.141H106.913V330.924H125.695V349.706H106.913V368.489H125.695V387.271H106.913V368.489H88.1302V387.271H69.3477V368.489H50.5651V387.271H31.7826V368.489H13V349.706H31.7826V330.924H13V312.141ZM31.7826 349.706V368.489H50.5651V349.706H31.7826ZM50.5651 349.706H69.3477V330.924H50.5651V349.706ZM69.3477 349.706V368.489H88.1302V349.706H69.3477ZM88.1302 349.706H106.913V330.924H88.1302V349.706Z" fill="#5AAF21" fill-opacity="0.5"/>
<path d="M13 387.271V462.402H125.695V387.271H13ZM13 387.271H31.7826V406.054H50.5651V387.271H69.3477V406.054H88.1302V387.271H106.913V406.054H125.695V424.837H106.913V443.619H125.695V462.402H106.913V443.619H88.1302V462.402H69.3477V443.619H50.5651V462.402H31.7826V443.619H13V424.837H31.7826V406.054H13V387.271ZM31.7826 424.837V443.619H50.5651V424.837H31.7826ZM50.5651 424.837H69.3477V406.054H50.5651V424.837ZM69.3477 424.837V443.619H88.1302V424.837H69.3477ZM88.1302 424.837H106.913V406.054H88.1302V424.837Z" fill="#5AAF21" fill-opacity="0.5"/>
<path d="M13 462.401V537.532H125.695V462.401H13ZM13 462.401H31.7826V481.184H50.5651V462.401H69.3477V481.184H88.1302V462.401H106.913V481.184H125.695V499.966H106.913V518.749H125.695V537.532H106.913V518.749H88.1302V537.532H69.3477V518.749H50.5651V537.532H31.7826V518.749H13V499.966H31.7826V481.184H13V462.401ZM31.7826 499.966V518.749H50.5651V499.966H31.7826ZM50.5651 499.966H69.3477V481.184H50.5651V499.966ZM69.3477 499.966V518.749H88.1302V499.966H69.3477ZM88.1302 499.966H106.913V481.184H88.1302V499.966Z" fill="#5AAF21" fill-opacity="0.5"/>
<path d="M13 537.532V593.879L125.695 581.358V537.532H13ZM13 537.532H31.7826V556.314H50.5651V537.532H69.3477V556.314H88.1302V537.532H106.913V556.314H125.695V575.097H106.913V593.879H88.1302H69.3477H50.5651H31.7826H13V575.097H31.7826V556.314H13V537.532ZM31.7826 575.097V593.879H50.5651V575.097H31.7826ZM50.5651 575.097H69.3477V556.314H50.5651V575.097ZM69.3477 575.097V593.879H88.1302V575.097H69.3477ZM88.1302 575.097H106.913V556.314H88.1302V575.097Z" fill="#5AAF21" fill-opacity="0.5"/>
<path d="M124.861 537.532V593.879L237.556 581.358V537.532H124.861ZM124.861 537.532H143.643V556.314H162.426V537.532H181.208V556.314H199.991V537.532H218.773V556.314H237.556V575.097H218.773V593.879H199.991H181.208H162.426H143.643H124.861V575.097H143.643V556.314H124.861V537.532ZM143.643 575.097V593.879H162.426V575.097H143.643ZM162.426 575.097H181.208V556.314H162.426V575.097ZM181.208 575.097V593.879H199.991V575.097H181.208ZM199.991 575.097H218.773V556.314H199.991V575.097Z" fill="#5AAF21" fill-opacity="0.5"/>
<path d="M236.721 537.532V593.879L349.417 581.358V537.532H236.721ZM236.721 537.532H255.504V556.314H274.286V537.532H293.069V556.314H311.851V537.532H330.634V556.314H349.417V575.097H330.634V593.879H311.851H293.069H274.286H255.504H236.721V575.097H255.504V556.314H236.721V537.532ZM255.504 575.097V593.879H274.286V575.097H255.504ZM274.286 575.097H293.069V556.314H274.286V575.097ZM293.069 575.097V593.879H311.851V575.097H293.069ZM311.851 575.097H330.634V556.314H311.851V575.097Z" fill="#5AAF21" fill-opacity="0.5"/>
<path d="M348.582 537.532V593.879L461.277 581.358V537.532H348.582ZM348.582 537.532H367.364V556.314H386.147V537.532H404.929V556.314H423.712V537.532H442.495V556.314H461.277V575.097H442.495V593.879H423.712H404.929H386.147H367.364H348.582V575.097H367.364V556.314H348.582V537.532ZM367.364 575.097V593.879H386.147V575.097H367.364ZM386.147 575.097H404.929V556.314H386.147V575.097ZM404.929 575.097V593.879H423.712V575.097H404.929ZM423.712 575.097H442.495V556.314H423.712V575.097Z" fill="#5AAF21" fill-opacity="0.5"/>
<path d="M460.442 537.532V593.879L573.138 581.358V537.532H460.442ZM460.442 537.532H479.225V556.314H498.007V537.532H516.79V556.314H535.573V537.532H554.355V556.314H573.138V575.097H554.355V593.879H535.573H516.79H498.007H479.225H460.442V575.097H479.225V556.314H460.442V537.532ZM479.225 575.097V593.879H498.007V575.097H479.225ZM498.007 575.097H516.79V556.314H498.007V575.097ZM516.79 575.097V593.879H535.573V575.097H516.79ZM535.573 575.097H554.355V556.314H535.573V575.097Z" fill="#5AAF21" fill-opacity="0.5"/>
<path d="M572.303 537.532V593.879L684.998 581.358V537.532H572.303ZM572.303 537.532H591.085V556.314H609.868V537.532H628.651V556.314H647.433V537.532H666.216V556.314H684.998V575.097H666.216V593.879H647.433H628.651H609.868H591.085H572.303V575.097H591.085V556.314H572.303V537.532ZM591.085 575.097V593.879H609.868V575.097H591.085ZM609.868 575.097H628.651V556.314H609.868V575.097ZM628.651 575.097V593.879H647.433V575.097H628.651ZM647.433 575.097H666.216V556.314H647.433V575.097Z" fill="#5AAF21" fill-opacity="0.5"/>
<path d="M684.163 537.532V593.879L796.859 581.358V537.532H684.163ZM684.163 537.532H702.946V556.314H721.729V537.532H740.511V556.314H759.294V537.532H778.076V556.314H796.859V575.097H778.076V593.879H759.294H740.511H721.729H702.946H684.163V575.097H702.946V556.314H684.163V537.532ZM702.946 575.097V593.879H721.729V575.097H702.946ZM721.729 575.097H740.511V556.314H721.729V575.097ZM740.511 575.097V593.879H759.294V575.097H740.511ZM759.294 575.097H778.076V556.314H759.294V575.097Z" fill="#5AAF21" fill-opacity="0.5"/>
<path d="M796.024 537.532V593.879L908.719 581.358V537.532H796.024ZM796.024 537.532H814.807V556.314H833.589V537.532H852.372V556.314H871.154V537.532H889.937V556.314H908.719V575.097H889.937V593.879H871.154H852.372H833.589H814.807H796.024V575.097H814.807V556.314H796.024V537.532ZM814.807 575.097V593.879H833.589V575.097H814.807ZM833.589 575.097H852.372V556.314H833.589V575.097ZM852.372 575.097V593.879H871.154V575.097H852.372ZM871.154 575.097H889.937V556.314H871.154V575.097Z" fill="#5AAF21" fill-opacity="0.5"/>
<path d="M907.885 537.532V593.879L1020.58 581.358V537.532H907.885ZM907.885 537.532H926.667V556.314H945.45V537.532H964.232V556.314H983.015V537.532H1001.8V556.314H1020.58V575.097H1001.8V593.879H983.015H964.232H945.45H926.667H907.885V575.097H926.667V556.314H907.885V537.532ZM926.667 575.097V593.879H945.45V575.097H926.667ZM945.45 575.097H964.232V556.314H945.45V575.097ZM964.232 575.097V593.879H983.015V575.097H964.232ZM983.015 575.097H1001.8V556.314H983.015V575.097Z" fill="#5AAF21" fill-opacity="0.5"/>
<path d="M1019.75 537.532V593.879L1132.44 581.358V537.532H1019.75ZM1019.75 537.532H1038.53V556.314H1057.31V537.532H1076.09V556.314H1094.88V537.532H1113.66V556.314H1132.44V575.097H1113.66V593.879H1094.88H1076.09H1057.31H1038.53H1019.75V575.097H1038.53V556.314H1019.75V537.532ZM1038.53 575.097V593.879H1057.31V575.097H1038.53ZM1057.31 575.097H1076.09V556.314H1057.31V575.097ZM1076.09 575.097V593.879H1094.88V575.097H1076.09ZM1094.88 575.097H1113.66V556.314H1094.88V575.097Z" fill="#5AAF21" fill-opacity="0.5"/>
<path d="M124.861 11.6201V86.7504H237.556V11.6201H124.861ZM124.861 11.6201H143.643V30.4027H162.426V11.6201H181.208V30.4027H199.991V11.6201H218.773V30.4027H237.556V49.1852H218.773V67.9678H237.556V86.7504H218.773V67.9678H199.991V86.7504H181.208V67.9678H162.426V86.7504H143.643V67.9678H124.861V49.1852H143.643V30.4027H124.861V11.6201ZM143.643 49.1852V67.9678H162.426V49.1852H143.643ZM162.426 49.1852H181.208V30.4027H162.426V49.1852ZM181.208 49.1852V67.9678H199.991V49.1852H181.208ZM199.991 49.1852H218.773V30.4027H199.991V49.1852Z" fill="#5AAF21" fill-opacity="0.5"/>
<path d="M124.861 86.7505V161.881H237.556V86.7505H124.861ZM124.861 86.7505H143.643V105.533H162.426V86.7505H181.208V105.533H199.991V86.7505H218.773V105.533H237.556V124.316H218.773V143.098H237.556V161.881H218.773V143.098H199.991V161.881H181.208V143.098H162.426V161.881H143.643V143.098H124.861V124.316H143.643V105.533H124.861V86.7505ZM143.643 124.316V143.098H162.426V124.316H143.643ZM162.426 124.316H181.208V105.533H162.426V124.316ZM181.208 124.316V143.098H199.991V124.316H181.208ZM199.991 124.316H218.773V105.533H199.991V124.316Z" fill="#5AAF21" fill-opacity="0.5"/>
<path d="M124.861 161.88V237.011H237.556V161.88H124.861ZM124.861 161.88H143.643V180.663H162.426V161.88H181.208V180.663H199.991V161.88H218.773V180.663H237.556V199.445H218.773V218.228H237.556V237.011H218.773V218.228H199.991V237.011H181.208V218.228H162.426V237.011H143.643V218.228H124.861V199.445H143.643V180.663H124.861V161.88ZM143.643 199.445V218.228H162.426V199.445H143.643ZM162.426 199.445H181.208V180.663H162.426V199.445ZM181.208 199.445V218.228H199.991V199.445H181.208ZM199.991 199.445H218.773V180.663H199.991V199.445Z" fill="#5AAF21" fill-opacity="0.5"/>
<path d="M124.861 237.011V312.141H237.556V237.011H124.861ZM124.861 237.011H143.643V255.793H162.426V237.011H181.208V255.793H199.991V237.011H218.773V255.793H237.556V274.576H218.773V293.358H237.556V312.141H218.773V293.358H199.991V312.141H181.208V293.358H162.426V312.141H143.643V293.358H124.861V274.576H143.643V255.793H124.861V237.011ZM143.643 274.576V293.358H162.426V274.576H143.643ZM162.426 274.576H181.208V255.793H162.426V274.576ZM181.208 274.576V293.358H199.991V274.576H181.208ZM199.991 274.576H218.773V255.793H199.991V274.576Z" fill="#5AAF21" fill-opacity="0.5"/>
<path d="M124.861 312.141V387.271H237.556V312.141H124.861ZM124.861 312.141H143.643V330.924H162.426V312.141H181.208V330.924H199.991V312.141H218.773V330.924H237.556V349.706H218.773V368.489H237.556V387.271H218.773V368.489H199.991V387.271H181.208V368.489H162.426V387.271H143.643V368.489H124.861V349.706H143.643V330.924H124.861V312.141ZM143.643 349.706V368.489H162.426V349.706H143.643ZM162.426 349.706H181.208V330.924H162.426V349.706ZM181.208 349.706V368.489H199.991V349.706H181.208ZM199.991 349.706H218.773V330.924H199.991V349.706Z" fill="#5AAF21" fill-opacity="0.5"/>
<path d="M124.861 387.271V462.402H237.556V387.271H124.861ZM124.861 387.271H143.643V406.054H162.426V387.271H181.208V406.054H199.991V387.271H218.773V406.054H237.556V424.837H218.773V443.619H237.556V462.402H218.773V443.619H199.991V462.402H181.208V443.619H162.426V462.402H143.643V443.619H124.861V424.837H143.643V406.054H124.861V387.271ZM143.643 424.837V443.619H162.426V424.837H143.643ZM162.426 424.837H181.208V406.054H162.426V424.837ZM181.208 424.837V443.619H199.991V424.837H181.208ZM199.991 424.837H218.773V406.054H199.991V424.837Z" fill="#5AAF21" fill-opacity="0.5"/>
<path d="M124.861 462.401V537.532H237.556V462.401H124.861ZM124.861 462.401H143.643V481.184H162.426V462.401H181.208V481.184H199.991V462.401H218.773V481.184H237.556V499.966H218.773V518.749H237.556V537.532H218.773V518.749H199.991V537.532H181.208V518.749H162.426V537.532H143.643V518.749H124.861V499.966H143.643V481.184H124.861V462.401ZM143.643 499.966V518.749H162.426V499.966H143.643ZM162.426 499.966H181.208V481.184H162.426V499.966ZM181.208 499.966V518.749H199.991V499.966H181.208ZM199.991 499.966H218.773V481.184H199.991V499.966Z" fill="#5AAF21" fill-opacity="0.5"/>
<path d="M236.721 11.6201V86.7504H349.417V11.6201H236.721ZM236.721 11.6201H255.504V30.4027H274.286V11.6201H293.069V30.4027H311.851V11.6201H330.634V30.4027H349.417V49.1852H330.634V67.9678H349.417V86.7504H330.634V67.9678H311.851V86.7504H293.069V67.9678H274.286V86.7504H255.504V67.9678H236.721V49.1852H255.504V30.4027H236.721V11.6201ZM255.504 49.1852V67.9678H274.286V49.1852H255.504ZM274.286 49.1852H293.069V30.4027H274.286V49.1852ZM293.069 49.1852V67.9678H311.851V49.1852H293.069ZM311.851 49.1852H330.634V30.4027H311.851V49.1852Z" fill="#5AAF21" fill-opacity="0.5"/>
<path d="M236.721 86.7505V161.881H349.417V86.7505H236.721ZM236.721 86.7505H255.504V105.533H274.286V86.7505H293.069V105.533H311.851V86.7505H330.634V105.533H349.417V124.316H330.634V143.098H349.417V161.881H330.634V143.098H311.851V161.881H293.069V143.098H274.286V161.881H255.504V143.098H236.721V124.316H255.504V105.533H236.721V86.7505ZM255.504 124.316V143.098H274.286V124.316H255.504ZM274.286 124.316H293.069V105.533H274.286V124.316ZM293.069 124.316V143.098H311.851V124.316H293.069ZM311.851 124.316H330.634V105.533H311.851V124.316Z" fill="#5AAF21" fill-opacity="0.5"/>
<path d="M236.721 161.88V237.011H349.417V161.88H236.721ZM236.721 161.88H255.504V180.663H274.286V161.88H293.069V180.663H311.851V161.88H330.634V180.663H349.417V199.445H330.634V218.228H349.417V237.011H330.634V218.228H311.851V237.011H293.069V218.228H274.286V237.011H255.504V218.228H236.721V199.445H255.504V180.663H236.721V161.88ZM255.504 199.445V218.228H274.286V199.445H255.504ZM274.286 199.445H293.069V180.663H274.286V199.445ZM293.069 199.445V218.228H311.851V199.445H293.069ZM311.851 199.445H330.634V180.663H311.851V199.445Z" fill="#5AAF21" fill-opacity="0.5"/>
<path d="M236.721 237.011V312.141H349.417V237.011H236.721ZM236.721 237.011H255.504V255.793H274.286V237.011H293.069V255.793H311.851V237.011H330.634V255.793H349.417V274.576H330.634V293.358H349.417V312.141H330.634V293.358H311.851V312.141H293.069V293.358H274.286V312.141H255.504V293.358H236.721V274.576H255.504V255.793H236.721V237.011ZM255.504 274.576V293.358H274.286V274.576H255.504ZM274.286 274.576H293.069V255.793H274.286V274.576ZM293.069 274.576V293.358H311.851V274.576H293.069ZM311.851 274.576H330.634V255.793H311.851V274.576Z" fill="#5AAF21" fill-opacity="0.5"/>
<path d="M236.721 312.141V387.271H349.417V312.141H236.721ZM236.721 312.141H255.504V330.924H274.286V312.141H293.069V330.924H311.851V312.141H330.634V330.924H349.417V349.706H330.634V368.489H349.417V387.271H330.634V368.489H311.851V387.271H293.069V368.489H274.286V387.271H255.504V368.489H236.721V349.706H255.504V330.924H236.721V312.141ZM255.504 349.706V368.489H274.286V349.706H255.504ZM274.286 349.706H293.069V330.924H274.286V349.706ZM293.069 349.706V368.489H311.851V349.706H293.069ZM311.851 349.706H330.634V330.924H311.851V349.706Z" fill="#5AAF21" fill-opacity="0.5"/>
<path d="M236.721 387.271V462.402H349.417V387.271H236.721ZM236.721 387.271H255.504V406.054H274.286V387.271H293.069V406.054H311.851V387.271H330.634V406.054H349.417V424.837H330.634V443.619H349.417V462.402H330.634V443.619H311.851V462.402H293.069V443.619H274.286V462.402H255.504V443.619H236.721V424.837H255.504V406.054H236.721V387.271ZM255.504 424.837V443.619H274.286V424.837H255.504ZM274.286 424.837H293.069V406.054H274.286V424.837ZM293.069 424.837V443.619H311.851V424.837H293.069ZM311.851 424.837H330.634V406.054H311.851V424.837Z" fill="#5AAF21" fill-opacity="0.5"/>
<path d="M236.721 462.401V537.532H349.417V462.401H236.721ZM236.721 462.401H255.504V481.184H274.286V462.401H293.069V481.184H311.851V462.401H330.634V481.184H349.417V499.966H330.634V518.749H349.417V537.532H330.634V518.749H311.851V537.532H293.069V518.749H274.286V537.532H255.504V518.749H236.721V499.966H255.504V481.184H236.721V462.401ZM255.504 499.966V518.749H274.286V499.966H255.504ZM274.286 499.966H293.069V481.184H274.286V499.966ZM293.069 499.966V518.749H311.851V499.966H293.069ZM311.851 499.966H330.634V481.184H311.851V499.966Z" fill="#5AAF21" fill-opacity="0.5"/>
<path d="M348.582 11.6201V86.7504H461.277V11.6201H348.582ZM348.582 11.6201H367.364V30.4027H386.147V11.6201H404.929V30.4027H423.712V11.6201H442.495V30.4027H461.277V49.1852H442.495V67.9678H461.277V86.7504H442.495V67.9678H423.712V86.7504H404.929V67.9678H386.147V86.7504H367.364V67.9678H348.582V49.1852H367.364V30.4027H348.582V11.6201ZM367.364 49.1852V67.9678H386.147V49.1852H367.364ZM386.147 49.1852H404.929V30.4027H386.147V49.1852ZM404.929 49.1852V67.9678H423.712V49.1852H404.929ZM423.712 49.1852H442.495V30.4027H423.712V49.1852Z" fill="#5AAF21" fill-opacity="0.5"/>
<path d="M348.582 86.7505V161.881H461.277V86.7505H348.582ZM348.582 86.7505H367.364V105.533H386.147V86.7505H404.929V105.533H423.712V86.7505H442.495V105.533H461.277V124.316H442.495V143.098H461.277V161.881H442.495V143.098H423.712V161.881H404.929V143.098H386.147V161.881H367.364V143.098H348.582V124.316H367.364V105.533H348.582V86.7505ZM367.364 124.316V143.098H386.147V124.316H367.364ZM386.147 124.316H404.929V105.533H386.147V124.316ZM404.929 124.316V143.098H423.712V124.316H404.929ZM423.712 124.316H442.495V105.533H423.712V124.316Z" fill="#5AAF21" fill-opacity="0.5"/>
<path d="M348.582 161.88V237.011H461.277V161.88H348.582ZM348.582 161.88H367.364V180.663H386.147V161.88H404.929V180.663H423.712V161.88H442.495V180.663H461.277V199.445H442.495V218.228H461.277V237.011H442.495V218.228H423.712V237.011H404.929V218.228H386.147V237.011H367.364V218.228H348.582V199.445H367.364V180.663H348.582V161.88ZM367.364 199.445V218.228H386.147V199.445H367.364ZM386.147 199.445H404.929V180.663H386.147V199.445ZM404.929 199.445V218.228H423.712V199.445H404.929ZM423.712 199.445H442.495V180.663H423.712V199.445Z" fill="#5AAF21" fill-opacity="0.5"/>
<path d="M348.582 237.011V312.141H461.277V237.011H348.582ZM348.582 237.011H367.364V255.793H386.147V237.011H404.929V255.793H423.712V237.011H442.495V255.793H461.277V274.576H442.495V293.358H461.277V312.141H442.495V293.358H423.712V312.141H404.929V293.358H386.147V312.141H367.364V293.358H348.582V274.576H367.364V255.793H348.582V237.011ZM367.364 274.576V293.358H386.147V274.576H367.364ZM386.147 274.576H404.929V255.793H386.147V274.576ZM404.929 274.576V293.358H423.712V274.576H404.929ZM423.712 274.576H442.495V255.793H423.712V274.576Z" fill="#5AAF21" fill-opacity="0.5"/>
<path d="M348.582 312.141V387.271H461.277V312.141H348.582ZM348.582 312.141H367.364V330.924H386.147V312.141H404.929V330.924H423.712V312.141H442.495V330.924H461.277V349.706H442.495V368.489H461.277V387.271H442.495V368.489H423.712V387.271H404.929V368.489H386.147V387.271H367.364V368.489H348.582V349.706H367.364V330.924H348.582V312.141ZM367.364 349.706V368.489H386.147V349.706H367.364ZM386.147 349.706H404.929V330.924H386.147V349.706ZM404.929 349.706V368.489H423.712V349.706H404.929ZM423.712 349.706H442.495V330.924H423.712V349.706Z" fill="#5AAF21" fill-opacity="0.5"/>
<path d="M348.582 387.271V462.402H461.277V387.271H348.582ZM348.582 387.271H367.364V406.054H386.147V387.271H404.929V406.054H423.712V387.271H442.495V406.054H461.277V424.837H442.495V443.619H461.277V462.402H442.495V443.619H423.712V462.402H404.929V443.619H386.147V462.402H367.364V443.619H348.582V424.837H367.364V406.054H348.582V387.271ZM367.364 424.837V443.619H386.147V424.837H367.364ZM386.147 424.837H404.929V406.054H386.147V424.837ZM404.929 424.837V443.619H423.712V424.837H404.929ZM423.712 424.837H442.495V406.054H423.712V424.837Z" fill="#5AAF21" fill-opacity="0.5"/>
<path d="M348.582 462.401V537.532H461.277V462.401H348.582ZM348.582 462.401H367.364V481.184H386.147V462.401H404.929V481.184H423.712V462.401H442.495V481.184H461.277V499.966H442.495V518.749H461.277V537.532H442.495V518.749H423.712V537.532H404.929V518.749H386.147V537.532H367.364V518.749H348.582V499.966H367.364V481.184H348.582V462.401ZM367.364 499.966V518.749H386.147V499.966H367.364ZM386.147 499.966H404.929V481.184H386.147V499.966ZM404.929 499.966V518.749H423.712V499.966H404.929ZM423.712 499.966H442.495V481.184H423.712V499.966Z" fill="#5AAF21" fill-opacity="0.5"/>
<path d="M460.442 11.6201V86.7504H573.138V11.6201H460.442ZM460.442 11.6201H479.225V30.4027H498.007V11.6201H516.79V30.4027H535.573V11.6201H554.355V30.4027H573.138V49.1852H554.355V67.9678H573.138V86.7504H554.355V67.9678H535.573V86.7504H516.79V67.9678H498.007V86.7504H479.225V67.9678H460.442V49.1852H479.225V30.4027H460.442V11.6201ZM479.225 49.1852V67.9678H498.007V49.1852H479.225ZM498.007 49.1852H516.79V30.4027H498.007V49.1852ZM516.79 49.1852V67.9678H535.573V49.1852H516.79ZM535.573 49.1852H554.355V30.4027H535.573V49.1852Z" fill="#5AAF21" fill-opacity="0.5"/>
<path d="M460.442 86.7505V161.881H573.138V86.7505H460.442ZM460.442 86.7505H479.225V105.533H498.007V86.7505H516.79V105.533H535.573V86.7505H554.355V105.533H573.138V124.316H554.355V143.098H573.138V161.881H554.355V143.098H535.573V161.881H516.79V143.098H498.007V161.881H479.225V143.098H460.442V124.316H479.225V105.533H460.442V86.7505ZM479.225 124.316V143.098H498.007V124.316H479.225ZM498.007 124.316H516.79V105.533H498.007V124.316ZM516.79 124.316V143.098H535.573V124.316H516.79ZM535.573 124.316H554.355V105.533H535.573V124.316Z" fill="#5AAF21" fill-opacity="0.5"/>
<path d="M460.442 161.88V237.011H573.138V161.88H460.442ZM460.442 161.88H479.225V180.663H498.007V161.88H516.79V180.663H535.573V161.88H554.355V180.663H573.138V199.445H554.355V218.228H573.138V237.011H554.355V218.228H535.573V237.011H516.79V218.228H498.007V237.011H479.225V218.228H460.442V199.445H479.225V180.663H460.442V161.88ZM479.225 199.445V218.228H498.007V199.445H479.225ZM498.007 199.445H516.79V180.663H498.007V199.445ZM516.79 199.445V218.228H535.573V199.445H516.79ZM535.573 199.445H554.355V180.663H535.573V199.445Z" fill="#5AAF21" fill-opacity="0.5"/>
<path d="M460.442 237.011V312.141H573.138V237.011H460.442ZM460.442 237.011H479.225V255.793H498.007V237.011H516.79V255.793H535.573V237.011H554.355V255.793H573.138V274.576H554.355V293.358H573.138V312.141H554.355V293.358H535.573V312.141H516.79V293.358H498.007V312.141H479.225V293.358H460.442V274.576H479.225V255.793H460.442V237.011ZM479.225 274.576V293.358H498.007V274.576H479.225ZM498.007 274.576H516.79V255.793H498.007V274.576ZM516.79 274.576V293.358H535.573V274.576H516.79ZM535.573 274.576H554.355V255.793H535.573V274.576Z" fill="#5AAF21" fill-opacity="0.5"/>
<path d="M460.442 312.141V387.271H573.138V312.141H460.442ZM460.442 312.141H479.225V330.924H498.007V312.141H516.79V330.924H535.573V312.141H554.355V330.924H573.138V349.706H554.355V368.489H573.138V387.271H554.355V368.489H535.573V387.271H516.79V368.489H498.007V387.271H479.225V368.489H460.442V349.706H479.225V330.924H460.442V312.141ZM479.225 349.706V368.489H498.007V349.706H479.225ZM498.007 349.706H516.79V330.924H498.007V349.706ZM516.79 349.706V368.489H535.573V349.706H516.79ZM535.573 349.706H554.355V330.924H535.573V349.706Z" fill="#5AAF21" fill-opacity="0.5"/>
<path d="M460.442 387.271V462.402H573.138V387.271H460.442ZM460.442 387.271H479.225V406.054H498.007V387.271H516.79V406.054H535.573V387.271H554.355V406.054H573.138V424.837H554.355V443.619H573.138V462.402H554.355V443.619H535.573V462.402H516.79V443.619H498.007V462.402H479.225V443.619H460.442V424.837H479.225V406.054H460.442V387.271ZM479.225 424.837V443.619H498.007V424.837H479.225ZM498.007 424.837H516.79V406.054H498.007V424.837ZM516.79 424.837V443.619H535.573V424.837H516.79ZM535.573 424.837H554.355V406.054H535.573V424.837Z" fill="#5AAF21" fill-opacity="0.5"/>
<path d="M460.442 462.401V537.532H573.138V462.401H460.442ZM460.442 462.401H479.225V481.184H498.007V462.401H516.79V481.184H535.573V462.401H554.355V481.184H573.138V499.966H554.355V518.749H573.138V537.532H554.355V518.749H535.573V537.532H516.79V518.749H498.007V537.532H479.225V518.749H460.442V499.966H479.225V481.184H460.442V462.401ZM479.225 499.966V518.749H498.007V499.966H479.225ZM498.007 499.966H516.79V481.184H498.007V499.966ZM516.79 499.966V518.749H535.573V499.966H516.79ZM535.573 499.966H554.355V481.184H535.573V499.966Z" fill="#5AAF21" fill-opacity="0.5"/>
<path d="M572.303 11.6201V86.7504H684.998V11.6201H572.303ZM572.303 11.6201H591.085V30.4027H609.868V11.6201H628.651V30.4027H647.433V11.6201H666.216V30.4027H684.998V49.1852H666.216V67.9678H684.998V86.7504H666.216V67.9678H647.433V86.7504H628.651V67.9678H609.868V86.7504H591.085V67.9678H572.303V49.1852H591.085V30.4027H572.303V11.6201ZM591.085 49.1852V67.9678H609.868V49.1852H591.085ZM609.868 49.1852H628.651V30.4027H609.868V49.1852ZM628.651 49.1852V67.9678H647.433V49.1852H628.651ZM647.433 49.1852H666.216V30.4027H647.433V49.1852Z" fill="#5AAF21" fill-opacity="0.5"/>
<path d="M572.303 86.7505V161.881H684.998V86.7505H572.303ZM572.303 86.7505H591.085V105.533H609.868V86.7505H628.651V105.533H647.433V86.7505H666.216V105.533H684.998V124.316H666.216V143.098H684.998V161.881H666.216V143.098H647.433V161.881H628.651V143.098H609.868V161.881H591.085V143.098H572.303V124.316H591.085V105.533H572.303V86.7505ZM591.085 124.316V143.098H609.868V124.316H591.085ZM609.868 124.316H628.651V105.533H609.868V124.316ZM628.651 124.316V143.098H647.433V124.316H628.651ZM647.433 124.316H666.216V105.533H647.433V124.316Z" fill="#5AAF21" fill-opacity="0.5"/>
<path d="M572.303 161.88V237.011H684.998V161.88H572.303ZM572.303 161.88H591.085V180.663H609.868V161.88H628.651V180.663H647.433V161.88H666.216V180.663H684.998V199.445H666.216V218.228H684.998V237.011H666.216V218.228H647.433V237.011H628.651V218.228H609.868V237.011H591.085V218.228H572.303V199.445H591.085V180.663H572.303V161.88ZM591.085 199.445V218.228H609.868V199.445H591.085ZM609.868 199.445H628.651V180.663H609.868V199.445ZM628.651 199.445V218.228H647.433V199.445H628.651ZM647.433 199.445H666.216V180.663H647.433V199.445Z" fill="#5AAF21" fill-opacity="0.5"/>
<path d="M572.303 237.011V312.141H684.998V237.011H572.303ZM572.303 237.011H591.085V255.793H609.868V237.011H628.651V255.793H647.433V237.011H666.216V255.793H684.998V274.576H666.216V293.358H684.998V312.141H666.216V293.358H647.433V312.141H628.651V293.358H609.868V312.141H591.085V293.358H572.303V274.576H591.085V255.793H572.303V237.011ZM591.085 274.576V293.358H609.868V274.576H591.085ZM609.868 274.576H628.651V255.793H609.868V274.576ZM628.651 274.576V293.358H647.433V274.576H628.651ZM647.433 274.576H666.216V255.793H647.433V274.576Z" fill="#5AAF21" fill-opacity="0.5"/>
<path d="M572.303 312.141V387.271H684.998V312.141H572.303ZM572.303 312.141H591.085V330.924H609.868V312.141H628.651V330.924H647.433V312.141H666.216V330.924H684.998V349.706H666.216V368.489H684.998V387.271H666.216V368.489H647.433V387.271H628.651V368.489H609.868V387.271H591.085V368.489H572.303V349.706H591.085V330.924H572.303V312.141ZM591.085 349.706V368.489H609.868V349.706H591.085ZM609.868 349.706H628.651V330.924H609.868V349.706ZM628.651 349.706V368.489H647.433V349.706H628.651ZM647.433 349.706H666.216V330.924H647.433V349.706Z" fill="#5AAF21" fill-opacity="0.5"/>
<path d="M572.303 387.271V462.402H684.998V387.271H572.303ZM572.303 387.271H591.085V406.054H609.868V387.271H628.651V406.054H647.433V387.271H666.216V406.054H684.998V424.837H666.216V443.619H684.998V462.402H666.216V443.619H647.433V462.402H628.651V443.619H609.868V462.402H591.085V443.619H572.303V424.837H591.085V406.054H572.303V387.271ZM591.085 424.837V443.619H609.868V424.837H591.085ZM609.868 424.837H628.651V406.054H609.868V424.837ZM628.651 424.837V443.619H647.433V424.837H628.651ZM647.433 424.837H666.216V406.054H647.433V424.837Z" fill="#5AAF21" fill-opacity="0.5"/>
<path d="M572.303 462.401V537.532H684.998V462.401H572.303ZM572.303 462.401H591.085V481.184H609.868V462.401H628.651V481.184H647.433V462.401H666.216V481.184H684.998V499.966H666.216V518.749H684.998V537.532H666.216V518.749H647.433V537.532H628.651V518.749H609.868V537.532H591.085V518.749H572.303V499.966H591.085V481.184H572.303V462.401ZM591.085 499.966V518.749H609.868V499.966H591.085ZM609.868 499.966H628.651V481.184H609.868V499.966ZM628.651 499.966V518.749H647.433V499.966H628.651ZM647.433 499.966H666.216V481.184H647.433V499.966Z" fill="#5AAF21" fill-opacity="0.5"/>
<path d="M684.163 11.6201V86.7504H796.859V11.6201H684.163ZM684.163 11.6201H702.946V30.4027H721.729V11.6201H740.511V30.4027H759.294V11.6201H778.076V30.4027H796.859V49.1852H778.076V67.9678H796.859V86.7504H778.076V67.9678H759.294V86.7504H740.511V67.9678H721.729V86.7504H702.946V67.9678H684.163V49.1852H702.946V30.4027H684.163V11.6201ZM702.946 49.1852V67.9678H721.729V49.1852H702.946ZM721.729 49.1852H740.511V30.4027H721.729V49.1852ZM740.511 49.1852V67.9678H759.294V49.1852H740.511ZM759.294 49.1852H778.076V30.4027H759.294V49.1852Z" fill="#5AAF21" fill-opacity="0.5"/>
<path d="M684.163 86.7505V161.881H796.859V86.7505H684.163ZM684.163 86.7505H702.946V105.533H721.729V86.7505H740.511V105.533H759.294V86.7505H778.076V105.533H796.859V124.316H778.076V143.098H796.859V161.881H778.076V143.098H759.294V161.881H740.511V143.098H721.729V161.881H702.946V143.098H684.163V124.316H702.946V105.533H684.163V86.7505ZM702.946 124.316V143.098H721.729V124.316H702.946ZM721.729 124.316H740.511V105.533H721.729V124.316ZM740.511 124.316V143.098H759.294V124.316H740.511ZM759.294 124.316H778.076V105.533H759.294V124.316Z" fill="#5AAF21" fill-opacity="0.5"/>
<path d="M684.163 161.88V237.011H796.859V161.88H684.163ZM684.163 161.88H702.946V180.663H721.729V161.88H740.511V180.663H759.294V161.88H778.076V180.663H796.859V199.445H778.076V218.228H796.859V237.011H778.076V218.228H759.294V237.011H740.511V218.228H721.729V237.011H702.946V218.228H684.163V199.445H702.946V180.663H684.163V161.88ZM702.946 199.445V218.228H721.729V199.445H702.946ZM721.729 199.445H740.511V180.663H721.729V199.445ZM740.511 199.445V218.228H759.294V199.445H740.511ZM759.294 199.445H778.076V180.663H759.294V199.445Z" fill="#5AAF21" fill-opacity="0.5"/>
<path d="M684.163 237.011V312.141H796.859V237.011H684.163ZM684.163 237.011H702.946V255.793H721.729V237.011H740.511V255.793H759.294V237.011H778.076V255.793H796.859V274.576H778.076V293.358H796.859V312.141H778.076V293.358H759.294V312.141H740.511V293.358H721.729V312.141H702.946V293.358H684.163V274.576H702.946V255.793H684.163V237.011ZM702.946 274.576V293.358H721.729V274.576H702.946ZM721.729 274.576H740.511V255.793H721.729V274.576ZM740.511 274.576V293.358H759.294V274.576H740.511ZM759.294 274.576H778.076V255.793H759.294V274.576Z" fill="#5AAF21" fill-opacity="0.5"/>
<path d="M684.163 312.141V387.271H796.859V312.141H684.163ZM684.163 312.141H702.946V330.924H721.729V312.141H740.511V330.924H759.294V312.141H778.076V330.924H796.859V349.706H778.076V368.489H796.859V387.271H778.076V368.489H759.294V387.271H740.511V368.489H721.729V387.271H702.946V368.489H684.163V349.706H702.946V330.924H684.163V312.141ZM702.946 349.706V368.489H721.729V349.706H702.946ZM721.729 349.706H740.511V330.924H721.729V349.706ZM740.511 349.706V368.489H759.294V349.706H740.511ZM759.294 349.706H778.076V330.924H759.294V349.706Z" fill="#5AAF21" fill-opacity="0.5"/>
<path d="M684.163 387.271V462.402H796.859V387.271H684.163ZM684.163 387.271H702.946V406.054H721.729V387.271H740.511V406.054H759.294V387.271H778.076V406.054H796.859V424.837H778.076V443.619H796.859V462.402H778.076V443.619H759.294V462.402H740.511V443.619H721.729V462.402H702.946V443.619H684.163V424.837H702.946V406.054H684.163V387.271ZM702.946 424.837V443.619H721.729V424.837H702.946ZM721.729 424.837H740.511V406.054H721.729V424.837ZM740.511 424.837V443.619H759.294V424.837H740.511ZM759.294 424.837H778.076V406.054H759.294V424.837Z" fill="#5AAF21" fill-opacity="0.5"/>
<path d="M684.163 462.401V537.532H796.859V462.401H684.163ZM684.163 462.401H702.946V481.184H721.729V462.401H740.511V481.184H759.294V462.401H778.076V481.184H796.859V499.966H778.076V518.749H796.859V537.532H778.076V518.749H759.294V537.532H740.511V518.749H721.729V537.532H702.946V518.749H684.163V499.966H702.946V481.184H684.163V462.401ZM702.946 499.966V518.749H721.729V499.966H702.946ZM721.729 499.966H740.511V481.184H721.729V499.966ZM740.511 499.966V518.749H759.294V499.966H740.511ZM759.294 499.966H778.076V481.184H759.294V499.966Z" fill="#5AAF21" fill-opacity="0.5"/>
<path d="M796.024 11.6201V86.7504H908.719V11.6201H796.024ZM796.024 11.6201H814.807V30.4027H833.589V11.6201H852.372V30.4027H871.154V11.6201H889.937V30.4027H908.719V49.1852H889.937V67.9678H908.719V86.7504H889.937V67.9678H871.154V86.7504H852.372V67.9678H833.589V86.7504H814.807V67.9678H796.024V49.1852H814.807V30.4027H796.024V11.6201ZM814.807 49.1852V67.9678H833.589V49.1852H814.807ZM833.589 49.1852H852.372V30.4027H833.589V49.1852ZM852.372 49.1852V67.9678H871.154V49.1852H852.372ZM871.154 49.1852H889.937V30.4027H871.154V49.1852Z" fill="#5AAF21" fill-opacity="0.5"/>
<path d="M796.024 86.7505V161.881H908.719V86.7505H796.024ZM796.024 86.7505H814.807V105.533H833.589V86.7505H852.372V105.533H871.154V86.7505H889.937V105.533H908.719V124.316H889.937V143.098H908.719V161.881H889.937V143.098H871.154V161.881H852.372V143.098H833.589V161.881H814.807V143.098H796.024V124.316H814.807V105.533H796.024V86.7505ZM814.807 124.316V143.098H833.589V124.316H814.807ZM833.589 124.316H852.372V105.533H833.589V124.316ZM852.372 124.316V143.098H871.154V124.316H852.372ZM871.154 124.316H889.937V105.533H871.154V124.316Z" fill="#5AAF21" fill-opacity="0.5"/>
<path d="M796.024 161.88V237.011H908.719V161.88H796.024ZM796.024 161.88H814.807V180.663H833.589V161.88H852.372V180.663H871.154V161.88H889.937V180.663H908.719V199.445H889.937V218.228H908.719V237.011H889.937V218.228H871.154V237.011H852.372V218.228H833.589V237.011H814.807V218.228H796.024V199.445H814.807V180.663H796.024V161.88ZM814.807 199.445V218.228H833.589V199.445H814.807ZM833.589 199.445H852.372V180.663H833.589V199.445ZM852.372 199.445V218.228H871.154V199.445H852.372ZM871.154 199.445H889.937V180.663H871.154V199.445Z" fill="#5AAF21" fill-opacity="0.5"/>
<path d="M796.024 237.011V312.141H908.719V237.011H796.024ZM796.024 237.011H814.807V255.793H833.589V237.011H852.372V255.793H871.154V237.011H889.937V255.793H908.719V274.576H889.937V293.358H908.719V312.141H889.937V293.358H871.154V312.141H852.372V293.358H833.589V312.141H814.807V293.358H796.024V274.576H814.807V255.793H796.024V237.011ZM814.807 274.576V293.358H833.589V274.576H814.807ZM833.589 274.576H852.372V255.793H833.589V274.576ZM852.372 274.576V293.358H871.154V274.576H852.372ZM871.154 274.576H889.937V255.793H871.154V274.576Z" fill="#5AAF21" fill-opacity="0.5"/>
<path d="M796.024 312.141V387.271H908.719V312.141H796.024ZM796.024 312.141H814.807V330.924H833.589V312.141H852.372V330.924H871.154V312.141H889.937V330.924H908.719V349.706H889.937V368.489H908.719V387.271H889.937V368.489H871.154V387.271H852.372V368.489H833.589V387.271H814.807V368.489H796.024V349.706H814.807V330.924H796.024V312.141ZM814.807 349.706V368.489H833.589V349.706H814.807ZM833.589 349.706H852.372V330.924H833.589V349.706ZM852.372 349.706V368.489H871.154V349.706H852.372ZM871.154 349.706H889.937V330.924H871.154V349.706Z" fill="#5AAF21" fill-opacity="0.5"/>
<path d="M796.024 387.271V462.402H908.719V387.271H796.024ZM796.024 387.271H814.807V406.054H833.589V387.271H852.372V406.054H871.154V387.271H889.937V406.054H908.719V424.837H889.937V443.619H908.719V462.402H889.937V443.619H871.154V462.402H852.372V443.619H833.589V462.402H814.807V443.619H796.024V424.837H814.807V406.054H796.024V387.271ZM814.807 424.837V443.619H833.589V424.837H814.807ZM833.589 424.837H852.372V406.054H833.589V424.837ZM852.372 424.837V443.619H871.154V424.837H852.372ZM871.154 424.837H889.937V406.054H871.154V424.837Z" fill="#5AAF21" fill-opacity="0.5"/>
<path d="M796.024 462.401V537.532H908.719V462.401H796.024ZM796.024 462.401H814.807V481.184H833.589V462.401H852.372V481.184H871.154V462.401H889.937V481.184H908.719V499.966H889.937V518.749H908.719V537.532H889.937V518.749H871.154V537.532H852.372V518.749H833.589V537.532H814.807V518.749H796.024V499.966H814.807V481.184H796.024V462.401ZM814.807 499.966V518.749H833.589V499.966H814.807ZM833.589 499.966H852.372V481.184H833.589V499.966ZM852.372 499.966V518.749H871.154V499.966H852.372ZM871.154 499.966H889.937V481.184H871.154V499.966Z" fill="#5AAF21" fill-opacity="0.5"/>
<path d="M907.885 11.6201V86.7504H1020.58V11.6201H907.885ZM907.885 11.6201H926.667V30.4027H945.45V11.6201H964.232V30.4027H983.015V11.6201H1001.8V30.4027H1020.58V49.1852H1001.8V67.9678H1020.58V86.7504H1001.8V67.9678H983.015V86.7504H964.232V67.9678H945.45V86.7504H926.667V67.9678H907.885V49.1852H926.667V30.4027H907.885V11.6201ZM926.667 49.1852V67.9678H945.45V49.1852H926.667ZM945.45 49.1852H964.232V30.4027H945.45V49.1852ZM964.232 49.1852V67.9678H983.015V49.1852H964.232ZM983.015 49.1852H1001.8V30.4027H983.015V49.1852Z" fill="#5AAF21" fill-opacity="0.5"/>
<path d="M907.885 86.7505V161.881H1020.58V86.7505H907.885ZM907.885 86.7505H926.667V105.533H945.45V86.7505H964.232V105.533H983.015V86.7505H1001.8V105.533H1020.58V124.316H1001.8V143.098H1020.58V161.881H1001.8V143.098H983.015V161.881H964.232V143.098H945.45V161.881H926.667V143.098H907.885V124.316H926.667V105.533H907.885V86.7505ZM926.667 124.316V143.098H945.45V124.316H926.667ZM945.45 124.316H964.232V105.533H945.45V124.316ZM964.232 124.316V143.098H983.015V124.316H964.232ZM983.015 124.316H1001.8V105.533H983.015V124.316Z" fill="#5AAF21" fill-opacity="0.5"/>
<path d="M907.885 161.88V237.011H1020.58V161.88H907.885ZM907.885 161.88H926.667V180.663H945.45V161.88H964.232V180.663H983.015V161.88H1001.8V180.663H1020.58V199.445H1001.8V218.228H1020.58V237.011H1001.8V218.228H983.015V237.011H964.232V218.228H945.45V237.011H926.667V218.228H907.885V199.445H926.667V180.663H907.885V161.88ZM926.667 199.445V218.228H945.45V199.445H926.667ZM945.45 199.445H964.232V180.663H945.45V199.445ZM964.232 199.445V218.228H983.015V199.445H964.232ZM983.015 199.445H1001.8V180.663H983.015V199.445Z" fill="#5AAF21" fill-opacity="0.5"/>
<path d="M907.885 237.011V312.141H1020.58V237.011H907.885ZM907.885 237.011H926.667V255.793H945.45V237.011H964.232V255.793H983.015V237.011H1001.8V255.793H1020.58V274.576H1001.8V293.358H1020.58V312.141H1001.8V293.358H983.015V312.141H964.232V293.358H945.45V312.141H926.667V293.358H907.885V274.576H926.667V255.793H907.885V237.011ZM926.667 274.576V293.358H945.45V274.576H926.667ZM945.45 274.576H964.232V255.793H945.45V274.576ZM964.232 274.576V293.358H983.015V274.576H964.232ZM983.015 274.576H1001.8V255.793H983.015V274.576Z" fill="#5AAF21" fill-opacity="0.5"/>
<path d="M907.885 312.141V387.271H1020.58V312.141H907.885ZM907.885 312.141H926.667V330.924H945.45V312.141H964.232V330.924H983.015V312.141H1001.8V330.924H1020.58V349.706H1001.8V368.489H1020.58V387.271H1001.8V368.489H983.015V387.271H964.232V368.489H945.45V387.271H926.667V368.489H907.885V349.706H926.667V330.924H907.885V312.141ZM926.667 349.706V368.489H945.45V349.706H926.667ZM945.45 349.706H964.232V330.924H945.45V349.706ZM964.232 349.706V368.489H983.015V349.706H964.232ZM983.015 349.706H1001.8V330.924H983.015V349.706Z" fill="#5AAF21" fill-opacity="0.5"/>
<path d="M907.885 387.271V462.402H1020.58V387.271H907.885ZM907.885 387.271H926.667V406.054H945.45V387.271H964.232V406.054H983.015V387.271H1001.8V406.054H1020.58V424.837H1001.8V443.619H1020.58V462.402H1001.8V443.619H983.015V462.402H964.232V443.619H945.45V462.402H926.667V443.619H907.885V424.837H926.667V406.054H907.885V387.271ZM926.667 424.837V443.619H945.45V424.837H926.667ZM945.45 424.837H964.232V406.054H945.45V424.837ZM964.232 424.837V443.619H983.015V424.837H964.232ZM983.015 424.837H1001.8V406.054H983.015V424.837Z" fill="#5AAF21" fill-opacity="0.5"/>
<path d="M907.885 462.401V537.532H1020.58V462.401H907.885ZM907.885 462.401H926.667V481.184H945.45V462.401H964.232V481.184H983.015V462.401H1001.8V481.184H1020.58V499.966H1001.8V518.749H1020.58V537.532H1001.8V518.749H983.015V537.532H964.232V518.749H945.45V537.532H926.667V518.749H907.885V499.966H926.667V481.184H907.885V462.401ZM926.667 499.966V518.749H945.45V499.966H926.667ZM945.45 499.966H964.232V481.184H945.45V499.966ZM964.232 499.966V518.749H983.015V499.966H964.232ZM983.015 499.966H1001.8V481.184H983.015V499.966Z" fill="#5AAF21" fill-opacity="0.5"/>
<path d="M1019.75 11.6201V86.7504H1132.44V11.6201H1019.75ZM1019.75 11.6201H1038.53V30.4027H1057.31V11.6201H1076.09V30.4027H1094.88V11.6201H1113.66V30.4027H1132.44V49.1852H1113.66V67.9678H1132.44V86.7504H1113.66V67.9678H1094.88V86.7504H1076.09V67.9678H1057.31V86.7504H1038.53V67.9678H1019.75V49.1852H1038.53V30.4027H1019.75V11.6201ZM1038.53 49.1852V67.9678H1057.31V49.1852H1038.53ZM1057.31 49.1852H1076.09V30.4027H1057.31V49.1852ZM1076.09 49.1852V67.9678H1094.88V49.1852H1076.09ZM1094.88 49.1852H1113.66V30.4027H1094.88V49.1852Z" fill="#5AAF21" fill-opacity="0.5"/>
<path d="M1019.75 86.7505V161.881H1132.44V86.7505H1019.75ZM1019.75 86.7505H1038.53V105.533H1057.31V86.7505H1076.09V105.533H1094.88V86.7505H1113.66V105.533H1132.44V124.316H1113.66V143.098H1132.44V161.881H1113.66V143.098H1094.88V161.881H1076.09V143.098H1057.31V161.881H1038.53V143.098H1019.75V124.316H1038.53V105.533H1019.75V86.7505ZM1038.53 124.316V143.098H1057.31V124.316H1038.53ZM1057.31 124.316H1076.09V105.533H1057.31V124.316ZM1076.09 124.316V143.098H1094.88V124.316H1076.09ZM1094.88 124.316H1113.66V105.533H1094.88V124.316Z" fill="#5AAF21" fill-opacity="0.5"/>
<path d="M1019.75 161.88V237.011H1132.44V161.88H1019.75ZM1019.75 161.88H1038.53V180.663H1057.31V161.88H1076.09V180.663H1094.88V161.88H1113.66V180.663H1132.44V199.445H1113.66V218.228H1132.44V237.011H1113.66V218.228H1094.88V237.011H1076.09V218.228H1057.31V237.011H1038.53V218.228H1019.75V199.445H1038.53V180.663H1019.75V161.88ZM1038.53 199.445V218.228H1057.31V199.445H1038.53ZM1057.31 199.445H1076.09V180.663H1057.31V199.445ZM1076.09 199.445V218.228H1094.88V199.445H1076.09ZM1094.88 199.445H1113.66V180.663H1094.88V199.445Z" fill="#5AAF21" fill-opacity="0.5"/>
<path d="M1019.75 237.011V312.141H1132.44V237.011H1019.75ZM1019.75 237.011H1038.53V255.793H1057.31V237.011H1076.09V255.793H1094.88V237.011H1113.66V255.793H1132.44V274.576H1113.66V293.358H1132.44V312.141H1113.66V293.358H1094.88V312.141H1076.09V293.358H1057.31V312.141H1038.53V293.358H1019.75V274.576H1038.53V255.793H1019.75V237.011ZM1038.53 274.576V293.358H1057.31V274.576H1038.53ZM1057.31 274.576H1076.09V255.793H1057.31V274.576ZM1076.09 274.576V293.358H1094.88V274.576H1076.09ZM1094.88 274.576H1113.66V255.793H1094.88V274.576Z" fill="#5AAF21" fill-opacity="0.5"/>
<path d="M1019.75 312.141V387.271H1132.44V312.141H1019.75ZM1019.75 312.141H1038.53V330.924H1057.31V312.141H1076.09V330.924H1094.88V312.141H1113.66V330.924H1132.44V349.706H1113.66V368.489H1132.44V387.271H1113.66V368.489H1094.88V387.271H1076.09V368.489H1057.31V387.271H1038.53V368.489H1019.75V349.706H1038.53V330.924H1019.75V312.141ZM1038.53 349.706V368.489H1057.31V349.706H1038.53ZM1057.31 349.706H1076.09V330.924H1057.31V349.706ZM1076.09 349.706V368.489H1094.88V349.706H1076.09ZM1094.88 349.706H1113.66V330.924H1094.88V349.706Z" fill="#5AAF21" fill-opacity="0.5"/>
<path d="M1019.75 387.271V462.402H1132.44V387.271H1019.75ZM1019.75 387.271H1038.53V406.054H1057.31V387.271H1076.09V406.054H1094.88V387.271H1113.66V406.054H1132.44V424.837H1113.66V443.619H1132.44V462.402H1113.66V443.619H1094.88V462.402H1076.09V443.619H1057.31V462.402H1038.53V443.619H1019.75V424.837H1038.53V406.054H1019.75V387.271ZM1038.53 424.837V443.619H1057.31V424.837H1038.53ZM1057.31 424.837H1076.09V406.054H1057.31V424.837ZM1076.09 424.837V443.619H1094.88V424.837H1076.09ZM1094.88 424.837H1113.66V406.054H1094.88V424.837Z" fill="#5AAF21" fill-opacity="0.5"/>
<path d="M1019.75 462.401V537.532H1132.44V462.401H1019.75ZM1019.75 462.401H1038.53V481.184H1057.31V462.401H1076.09V481.184H1094.88V462.401H1113.66V481.184H1132.44V499.966H1113.66V518.749H1132.44V537.532H1113.66V518.749H1094.88V537.532H1076.09V518.749H1057.31V537.532H1038.53V518.749H1019.75V499.966H1038.53V481.184H1019.75V462.401ZM1038.53 499.966V518.749H1057.31V499.966H1038.53ZM1057.31 499.966H1076.09V481.184H1057.31V499.966ZM1076.09 499.966V518.749H1094.88V499.966H1076.09ZM1094.88 499.966H1113.66V481.184H1094.88V499.966Z" fill="#5AAF21" fill-opacity="0.5"/>
<path d="M1056.48 86.7499L1051.47 81.7412L1071.5 61.7065L1051.47 41.6718L1056.48 36.6631L1076.51 56.6978L1096.54 36.6631L1101.55 41.6718L1081.52 61.7065L1101.55 81.7412L1096.54 86.7499L1076.51 66.7152L1056.48 86.7499Z" fill="#357C05"/>
<path d="M1023.92 80.7455V51.0156H980.51M1023.92 80.7455V90.0891H969.658V51.0156H980.51M1023.92 80.7455H1031.43V41.6719H980.51V51.0156" stroke="#357C05" stroke-width="3"/>
<path d="M949.623 86.7498V76.7324H889.519V86.7498H949.623Z" fill="#357C05"/>
<rect y="589" width="1146" height="5" fill="#282828"/>
</svg>
