<svg width="1282" height="711" viewBox="0 0 1282 711" fill="none" xmlns="http://www.w3.org/2000/svg">
<path d="M27.5 0V710" stroke="#5AAF21" stroke-opacity="0.5" stroke-width="3"/>
<path d="M2 1V711" stroke="#5AAF21" stroke-opacity="0.5" stroke-width="3"/>
<path d="M76 0V710" stroke="#5AAF21" stroke-opacity="0.5" stroke-width="3"/>
<path d="M126 0V710" stroke="#5AAF21" stroke-opacity="0.5" stroke-width="3"/>
<path d="M176 0V710" stroke="#5AAF21" stroke-opacity="0.5" stroke-width="3"/>
<path d="M226 0V710" stroke="#5AAF21" stroke-opacity="0.5" stroke-width="3"/>
<path d="M276 0V710" stroke="#5AAF21" stroke-opacity="0.5" stroke-width="3"/>
<path d="M326 0V710" stroke="#5AAF21" stroke-opacity="0.5" stroke-width="3"/>
<path d="M376 0V710" stroke="#5AAF21" stroke-opacity="0.5" stroke-width="3"/>
<path d="M426 0V710" stroke="#5AAF21" stroke-opacity="0.5" stroke-width="3"/>
<path d="M476 0L476 710" stroke="#5AAF21" stroke-opacity="0.5" stroke-width="3"/>
<path d="M526 0V710" stroke="#5AAF21" stroke-opacity="0.5" stroke-width="3"/>
<path d="M576 0V710" stroke="#5AAF21" stroke-opacity="0.5" stroke-width="3"/>
<path d="M626 0V710" stroke="#5AAF21" stroke-opacity="0.5" stroke-width="3"/>
<path d="M676 0V710" stroke="#5AAF21" stroke-opacity="0.5" stroke-width="3"/>
<path d="M726 0V710" stroke="#5AAF21" stroke-opacity="0.5" stroke-width="3"/>
<path d="M776 0V710" stroke="#5AAF21" stroke-opacity="0.5" stroke-width="3"/>
<path d="M801 0V710" stroke="#5AAF21" stroke-opacity="0.5" stroke-width="3"/>
<path d="M851 0V710" stroke="#5AAF21" stroke-opacity="0.5" stroke-width="3"/>
<path d="M901 0V710" stroke="#5AAF21" stroke-opacity="0.5" stroke-width="3"/>
<path d="M951 0V710" stroke="#5AAF21" stroke-opacity="0.5" stroke-width="3"/>
<path d="M1001 0V710" stroke="#5AAF21" stroke-opacity="0.5" stroke-width="3"/>
<path d="M1051 0V710" stroke="#5AAF21" stroke-opacity="0.5" stroke-width="3"/>
<path d="M1126 0V710" stroke="#5AAF21" stroke-opacity="0.5" stroke-width="3"/>
<path d="M1151 0V710" stroke="#5AAF21" stroke-opacity="0.5" stroke-width="3"/>
<path d="M1227 0V710" stroke="#5AAF21" stroke-opacity="0.5" stroke-width="3"/>
<path d="M1276 0V710" stroke="#5AAF21" stroke-opacity="0.5" stroke-width="3"/>
<path d="M51 0V710" stroke="#5AAF21" stroke-opacity="0.5" stroke-width="3"/>
<path d="M101 0V710" stroke="#5AAF21" stroke-opacity="0.5" stroke-width="3"/>
<path d="M151 0V710" stroke="#5AAF21" stroke-opacity="0.5" stroke-width="3"/>
<path d="M201 0V710" stroke="#5AAF21" stroke-opacity="0.5" stroke-width="3"/>
<path d="M251 0V710" stroke="#5AAF21" stroke-opacity="0.5" stroke-width="3"/>
<path d="M301 0V710" stroke="#5AAF21" stroke-opacity="0.5" stroke-width="3"/>
<path d="M351 0V710" stroke="#5AAF21" stroke-opacity="0.5" stroke-width="3"/>
<path d="M401 0V710" stroke="#5AAF21" stroke-opacity="0.5" stroke-width="3"/>
<path d="M451 0V710" stroke="#5AAF21" stroke-opacity="0.5" stroke-width="3"/>
<path d="M501 0V710" stroke="#5AAF21" stroke-opacity="0.5" stroke-width="3"/>
<path d="M551 0V710" stroke="#5AAF21" stroke-opacity="0.5" stroke-width="3"/>
<path d="M601 0V710" stroke="#5AAF21" stroke-opacity="0.5" stroke-width="3"/>
<path d="M651 0V710" stroke="#5AAF21" stroke-opacity="0.5" stroke-width="3"/>
<path d="M701 0V710" stroke="#5AAF21" stroke-opacity="0.5" stroke-width="3"/>
<path d="M751 0V710" stroke="#5AAF21" stroke-opacity="0.5" stroke-width="3"/>
<path d="M1101 0V710" stroke="#5AAF21" stroke-opacity="0.5" stroke-width="3"/>
<path d="M826 0V710" stroke="#5AAF21" stroke-opacity="0.5" stroke-width="3"/>
<path d="M876 0V710" stroke="#5AAF21" stroke-opacity="0.5" stroke-width="3"/>
<path d="M926 0V710" stroke="#5AAF21" stroke-opacity="0.5" stroke-width="3"/>
<path d="M976 0V710" stroke="#5AAF21" stroke-opacity="0.5" stroke-width="3"/>
<path d="M1026 0V710" stroke="#5AAF21" stroke-opacity="0.5" stroke-width="3"/>
<path d="M1076 0V710" stroke="#5AAF21" stroke-opacity="0.5" stroke-width="3"/>
<path d="M1201 0V710" stroke="#5AAF21" stroke-opacity="0.5" stroke-width="3"/>
<path d="M1176 0V710" stroke="#5AAF21" stroke-opacity="0.5" stroke-width="3"/>
<path d="M1251 0V710" stroke="#5AAF21" stroke-opacity="0.5" stroke-width="3"/>
<path d="M1 22H1281.5" stroke="#5AAF21" stroke-opacity="0.5" stroke-width="3"/>
<path d="M1 47H1281.5" stroke="#5AAF21" stroke-opacity="0.5" stroke-width="3"/>
<path d="M1 72H1281.5" stroke="#5AAF21" stroke-opacity="0.5" stroke-width="3"/>
<path d="M1 97H1281.5" stroke="#5AAF21" stroke-opacity="0.5" stroke-width="3"/>
<path d="M1 109H1281.5" stroke="#5AAF21" stroke-opacity="0.5" stroke-width="3"/>
<path d="M1 134H1281.5" stroke="#5AAF21" stroke-opacity="0.5" stroke-width="3"/>
<path d="M1 159H1281.5" stroke="#5AAF21" stroke-opacity="0.5" stroke-width="3"/>
<path d="M1 184H1281.5" stroke="#5AAF21" stroke-opacity="0.5" stroke-width="3"/>
<path d="M1 209H1281.5" stroke="#5AAF21" stroke-opacity="0.5" stroke-width="3"/>
<path d="M1 234H1281.5" stroke="#5AAF21" stroke-opacity="0.5" stroke-width="3"/>
<path d="M1 259H1281.5" stroke="#5AAF21" stroke-opacity="0.5" stroke-width="3"/>
<path d="M1 284H1281.5" stroke="#5AAF21" stroke-opacity="0.5" stroke-width="3"/>
<path d="M1 309H1281.5" stroke="#5AAF21" stroke-opacity="0.5" stroke-width="3"/>
<path d="M1 334H1281.5" stroke="#5AAF21" stroke-opacity="0.5" stroke-width="3"/>
<path d="M1 359H1281.5" stroke="#5AAF21" stroke-opacity="0.5" stroke-width="3"/>
<path d="M1 384H1281.5" stroke="#5AAF21" stroke-opacity="0.5" stroke-width="3"/>
<path d="M1 409H1281.5" stroke="#5AAF21" stroke-opacity="0.5" stroke-width="3"/>
<path d="M1 434H1281.5" stroke="#5AAF21" stroke-opacity="0.5" stroke-width="3"/>
<path d="M1 459H1281.5" stroke="#5AAF21" stroke-opacity="0.5" stroke-width="3"/>
<path d="M1 484H1281.5" stroke="#5AAF21" stroke-opacity="0.5" stroke-width="3"/>
<path d="M1 509H1281.5" stroke="#5AAF21" stroke-opacity="0.5" stroke-width="3"/>
<path d="M1 534H1281.5" stroke="#5AAF21" stroke-opacity="0.5" stroke-width="3"/>
<path d="M1 559H1281.5" stroke="#5AAF21" stroke-opacity="0.5" stroke-width="3"/>
<path d="M1 584H1281.5" stroke="#5AAF21" stroke-opacity="0.5" stroke-width="3"/>
<path d="M1 609H1281.5" stroke="#5AAF21" stroke-opacity="0.5" stroke-width="3"/>
<path d="M1 634H1281.5" stroke="#5AAF21" stroke-opacity="0.5" stroke-width="3"/>
<path d="M1 659H1281.5" stroke="#5AAF21" stroke-opacity="0.5" stroke-width="3"/>
<path d="M1 684H1281.5" stroke="#5AAF21" stroke-opacity="0.5" stroke-width="3"/>
<path d="M1 709H1281.5" stroke="#5AAF21" stroke-opacity="0.5" stroke-width="3"/>
</svg>
