<svg width="1283" height="1666" viewBox="0 0 1283 1666" fill="none" xmlns="http://www.w3.org/2000/svg">
<path d="M26 2V1653" stroke="#5AAF21" stroke-opacity="0.5" stroke-width="3"/>
<path d="M2 2V1659" stroke="#5AAF21" stroke-opacity="0.5" stroke-width="3"/>
<path d="M76 2V636" stroke="#5AAF21" stroke-opacity="0.5" stroke-width="3"/>
<path d="M126 3V637" stroke="#5AAF21" stroke-opacity="0.5" stroke-width="3"/>
<path d="M176 2V636" stroke="#5AAF21" stroke-opacity="0.5" stroke-width="3"/>
<path d="M226 2V636" stroke="#5AAF21" stroke-opacity="0.5" stroke-width="3"/>
<path d="M276 2V636" stroke="#5AAF21" stroke-opacity="0.5" stroke-width="3"/>
<path d="M326 0V634" stroke="#5AAF21" stroke-opacity="0.5" stroke-width="3"/>
<path d="M376 2V636" stroke="#5AAF21" stroke-opacity="0.5" stroke-width="3"/>
<path d="M426 3V637" stroke="#5AAF21" stroke-opacity="0.5" stroke-width="3"/>
<path d="M476 3V637" stroke="#5AAF21" stroke-opacity="0.5" stroke-width="3"/>
<path d="M526 2V636" stroke="#5AAF21" stroke-opacity="0.5" stroke-width="3"/>
<path d="M576 1V635" stroke="#5AAF21" stroke-opacity="0.5" stroke-width="3"/>
<path d="M626 0V634" stroke="#5AAF21" stroke-opacity="0.5" stroke-width="3"/>
<path d="M676 3V637" stroke="#5AAF21" stroke-opacity="0.5" stroke-width="3"/>
<path d="M726 1V635" stroke="#5AAF21" stroke-opacity="0.5" stroke-width="3"/>
<path d="M776 1V635" stroke="#5AAF21" stroke-opacity="0.5" stroke-width="3"/>
<path d="M801 3V637" stroke="#5AAF21" stroke-opacity="0.5" stroke-width="3"/>
<path d="M851 3V637" stroke="#5AAF21" stroke-opacity="0.5" stroke-width="3"/>
<path d="M901 2V636" stroke="#5AAF21" stroke-opacity="0.5" stroke-width="3"/>
<path d="M951 2V636" stroke="#5AAF21" stroke-opacity="0.5" stroke-width="3"/>
<path d="M1001 2V636" stroke="#5AAF21" stroke-opacity="0.5" stroke-width="3"/>
<path d="M1051 2V636" stroke="#5AAF21" stroke-opacity="0.5" stroke-width="3"/>
<path d="M1126 2V636" stroke="#5AAF21" stroke-opacity="0.5" stroke-width="3"/>
<path d="M1151 2V636" stroke="#5AAF21" stroke-opacity="0.5" stroke-width="3"/>
<path d="M1227 6V640" stroke="#5AAF21" stroke-opacity="0.5" stroke-width="3"/>
<path d="M1276 2V636" stroke="#5AAF21" stroke-opacity="0.5" stroke-width="3"/>
<path d="M52 2V1653" stroke="#5AAF21" stroke-opacity="0.5" stroke-width="3"/>
<path d="M101 2V636" stroke="#5AAF21" stroke-opacity="0.5" stroke-width="3"/>
<path d="M151 3V637" stroke="#5AAF21" stroke-opacity="0.5" stroke-width="3"/>
<path d="M201 3V637" stroke="#5AAF21" stroke-opacity="0.5" stroke-width="3"/>
<path d="M251 2V636" stroke="#5AAF21" stroke-opacity="0.5" stroke-width="3"/>
<path d="M301 3V637" stroke="#5AAF21" stroke-opacity="0.5" stroke-width="3"/>
<path d="M351 0V634" stroke="#5AAF21" stroke-opacity="0.5" stroke-width="3"/>
<path d="M401 5V639" stroke="#5AAF21" stroke-opacity="0.5" stroke-width="3"/>
<path d="M451 1V635" stroke="#5AAF21" stroke-opacity="0.5" stroke-width="3"/>
<path d="M501 4V638" stroke="#5AAF21" stroke-opacity="0.5" stroke-width="3"/>
<path d="M551 1V635" stroke="#5AAF21" stroke-opacity="0.5" stroke-width="3"/>
<path d="M601 0V634" stroke="#5AAF21" stroke-opacity="0.5" stroke-width="3"/>
<path d="M651 1V635" stroke="#5AAF21" stroke-opacity="0.5" stroke-width="3"/>
<path d="M701 4V638" stroke="#5AAF21" stroke-opacity="0.5" stroke-width="3"/>
<path d="M751 2V636" stroke="#5AAF21" stroke-opacity="0.5" stroke-width="3"/>
<path d="M1101 5V639" stroke="#5AAF21" stroke-opacity="0.5" stroke-width="3"/>
<path d="M826 3V637" stroke="#5AAF21" stroke-opacity="0.5" stroke-width="3"/>
<path d="M876 3V637" stroke="#5AAF21" stroke-opacity="0.5" stroke-width="3"/>
<path d="M926 3V637" stroke="#5AAF21" stroke-opacity="0.5" stroke-width="3"/>
<path d="M976 1V635" stroke="#5AAF21" stroke-opacity="0.5" stroke-width="3"/>
<path d="M1026 2V636" stroke="#5AAF21" stroke-opacity="0.5" stroke-width="3"/>
<path d="M1076 1V635" stroke="#5AAF21" stroke-opacity="0.5" stroke-width="3"/>
<path d="M1201 7V641" stroke="#5AAF21" stroke-opacity="0.5" stroke-width="3"/>
<path d="M1176 0V634" stroke="#5AAF21" stroke-opacity="0.5" stroke-width="3"/>
<path d="M1251 0V634" stroke="#5AAF21" stroke-opacity="0.5" stroke-width="3"/>
<path d="M2 26H1282.5" stroke="#5AAF21" stroke-opacity="0.5" stroke-width="3"/>
<path d="M2 3H1282.5" stroke="#5AAF21" stroke-opacity="0.5" stroke-width="3"/>
<path d="M2 51H1282.5" stroke="#5AAF21" stroke-opacity="0.5" stroke-width="3"/>
<path d="M2 76H1282.5" stroke="#5AAF21" stroke-opacity="0.5" stroke-width="3"/>
<path d="M2 101H1282.5" stroke="#5AAF21" stroke-opacity="0.5" stroke-width="3"/>
<path d="M2 126H1282.5" stroke="#5AAF21" stroke-opacity="0.5" stroke-width="3"/>
<path d="M2 151H1282.5" stroke="#5AAF21" stroke-opacity="0.5" stroke-width="3"/>
<path d="M2 176H1282.5" stroke="#5AAF21" stroke-opacity="0.5" stroke-width="3"/>
<path d="M2 201H1282.5" stroke="#5AAF21" stroke-opacity="0.5" stroke-width="3"/>
<path d="M2 226H1282.5" stroke="#5AAF21" stroke-opacity="0.5" stroke-width="3"/>
<path d="M2 251H1282.5" stroke="#5AAF21" stroke-opacity="0.5" stroke-width="3"/>
<path d="M2 276H1282.5" stroke="#5AAF21" stroke-opacity="0.5" stroke-width="3"/>
<path d="M2 301H1282.5" stroke="#5AAF21" stroke-opacity="0.5" stroke-width="3"/>
<path d="M2 326H1282.5" stroke="#5AAF21" stroke-opacity="0.5" stroke-width="3"/>
<path d="M2 351H1282.5" stroke="#5AAF21" stroke-opacity="0.5" stroke-width="3"/>
<path d="M2 376H1282.5" stroke="#5AAF21" stroke-opacity="0.5" stroke-width="3"/>
<path d="M2 401H1282.5" stroke="#5AAF21" stroke-opacity="0.5" stroke-width="3"/>
<path d="M2 426H1282.5" stroke="#5AAF21" stroke-opacity="0.5" stroke-width="3"/>
<path d="M2 451H1282.5" stroke="#5AAF21" stroke-opacity="0.5" stroke-width="3"/>
<path d="M2 476H1282.5" stroke="#5AAF21" stroke-opacity="0.5" stroke-width="3"/>
<path d="M2 501H1282.5" stroke="#5AAF21" stroke-opacity="0.5" stroke-width="3"/>
<path d="M2 526H1282.5" stroke="#5AAF21" stroke-opacity="0.5" stroke-width="3"/>
<path d="M2 551H1282.5" stroke="#5AAF21" stroke-opacity="0.5" stroke-width="3"/>
<path d="M2 576H1282.5" stroke="#5AAF21" stroke-opacity="0.5" stroke-width="3"/>
<path d="M2 601H1282.5" stroke="#5AAF21" stroke-opacity="0.5" stroke-width="3"/>
<path d="M2 626H1282.5" stroke="#5AAF21" stroke-opacity="0.5" stroke-width="3"/>
<path d="M2 651H1282.5" stroke="#5AAF21" stroke-opacity="0.5" stroke-width="3"/>
<path d="M2 676H1282.5" stroke="#5AAF21" stroke-opacity="0.5" stroke-width="3"/>
<path d="M2 701H1282.5" stroke="#5AAF21" stroke-opacity="0.5" stroke-width="3"/>
<path d="M2 726H1282.5" stroke="#5AAF21" stroke-opacity="0.5" stroke-width="3"/>
<path d="M2 751H1282.5" stroke="#5AAF21" stroke-opacity="0.5" stroke-width="3"/>
<path d="M2 776H1282.5" stroke="#5AAF21" stroke-opacity="0.5" stroke-width="3"/>
<path d="M2 801H1282.5" stroke="#5AAF21" stroke-opacity="0.5" stroke-width="3"/>
<path d="M2 826H1282.5" stroke="#5AAF21" stroke-opacity="0.5" stroke-width="3"/>
<path d="M2 851H1282.5" stroke="#5AAF21" stroke-opacity="0.5" stroke-width="3"/>
<path d="M2 876H1282.5" stroke="#5AAF21" stroke-opacity="0.5" stroke-width="3"/>
<path d="M2 901H1282.5" stroke="#5AAF21" stroke-opacity="0.5" stroke-width="3"/>
<path d="M2 919H1282.5" stroke="#5AAF21" stroke-opacity="0.5" stroke-width="3"/>
<path d="M77 636V1662" stroke="#5AAF21" stroke-opacity="0.5" stroke-width="3"/>
<path d="M127 636V1662" stroke="#5AAF21" stroke-opacity="0.5" stroke-width="3"/>
<path d="M177 636V1662" stroke="#5AAF21" stroke-opacity="0.5" stroke-width="3"/>
<path d="M227 636V1662" stroke="#5AAF21" stroke-opacity="0.5" stroke-width="3"/>
<path d="M277 636V1662" stroke="#5AAF21" stroke-opacity="0.5" stroke-width="3"/>
<path d="M327 636V1662" stroke="#5AAF21" stroke-opacity="0.5" stroke-width="3"/>
<path d="M377 636V1662" stroke="#5AAF21" stroke-opacity="0.5" stroke-width="3"/>
<path d="M427 636V1662" stroke="#5AAF21" stroke-opacity="0.5" stroke-width="3"/>
<path d="M477 636V1662" stroke="#5AAF21" stroke-opacity="0.5" stroke-width="3"/>
<path d="M527 636V1662" stroke="#5AAF21" stroke-opacity="0.5" stroke-width="3"/>
<path d="M577 636V1662" stroke="#5AAF21" stroke-opacity="0.5" stroke-width="3"/>
<path d="M627 636V1662" stroke="#5AAF21" stroke-opacity="0.5" stroke-width="3"/>
<path d="M677 636V1662" stroke="#5AAF21" stroke-opacity="0.5" stroke-width="3"/>
<path d="M727 636V1662" stroke="#5AAF21" stroke-opacity="0.5" stroke-width="3"/>
<path d="M777 636V1662" stroke="#5AAF21" stroke-opacity="0.5" stroke-width="3"/>
<path d="M802 636V1662" stroke="#5AAF21" stroke-opacity="0.5" stroke-width="3"/>
<path d="M852 636V1662" stroke="#5AAF21" stroke-opacity="0.5" stroke-width="3"/>
<path d="M902 636V1662" stroke="#5AAF21" stroke-opacity="0.5" stroke-width="3"/>
<path d="M952 636V1662" stroke="#5AAF21" stroke-opacity="0.5" stroke-width="3"/>
<path d="M1002 636V1662" stroke="#5AAF21" stroke-opacity="0.5" stroke-width="3"/>
<path d="M1052 636V1662" stroke="#5AAF21" stroke-opacity="0.5" stroke-width="3"/>
<path d="M1127 636V1662" stroke="#5AAF21" stroke-opacity="0.5" stroke-width="3"/>
<path d="M1152 636V1662" stroke="#5AAF21" stroke-opacity="0.5" stroke-width="3"/>
<path d="M1227 640V1666" stroke="#5AAF21" stroke-opacity="0.5" stroke-width="3"/>
<path d="M102 636V1662" stroke="#5AAF21" stroke-opacity="0.5" stroke-width="3"/>
<path d="M152 636V1662" stroke="#5AAF21" stroke-opacity="0.5" stroke-width="3"/>
<path d="M202 636V1662" stroke="#5AAF21" stroke-opacity="0.5" stroke-width="3"/>
<path d="M252 636V1662" stroke="#5AAF21" stroke-opacity="0.5" stroke-width="3"/>
<path d="M302 636V1662" stroke="#5AAF21" stroke-opacity="0.5" stroke-width="3"/>
<path d="M352 636V1662" stroke="#5AAF21" stroke-opacity="0.5" stroke-width="3"/>
<path d="M402 636V1662" stroke="#5AAF21" stroke-opacity="0.5" stroke-width="3"/>
<path d="M452 636V1662" stroke="#5AAF21" stroke-opacity="0.5" stroke-width="3"/>
<path d="M502 636V1662" stroke="#5AAF21" stroke-opacity="0.5" stroke-width="3"/>
<path d="M552 636V1662" stroke="#5AAF21" stroke-opacity="0.5" stroke-width="3"/>
<path d="M602 636V1662" stroke="#5AAF21" stroke-opacity="0.5" stroke-width="3"/>
<path d="M652 636V1662" stroke="#5AAF21" stroke-opacity="0.5" stroke-width="3"/>
<path d="M702 636V1662" stroke="#5AAF21" stroke-opacity="0.5" stroke-width="3"/>
<path d="M752 636V1662" stroke="#5AAF21" stroke-opacity="0.5" stroke-width="3"/>
<path d="M1102 636V1662" stroke="#5AAF21" stroke-opacity="0.5" stroke-width="3"/>
<path d="M827 636V1662" stroke="#5AAF21" stroke-opacity="0.5" stroke-width="3"/>
<path d="M877 636V1662" stroke="#5AAF21" stroke-opacity="0.5" stroke-width="3"/>
<path d="M927 636V1662" stroke="#5AAF21" stroke-opacity="0.5" stroke-width="3"/>
<path d="M977 636V1662" stroke="#5AAF21" stroke-opacity="0.5" stroke-width="3"/>
<path d="M1027 636V1662" stroke="#5AAF21" stroke-opacity="0.5" stroke-width="3"/>
<path d="M1077 636V1662" stroke="#5AAF21" stroke-opacity="0.5" stroke-width="3"/>
<path d="M1202 636V1662" stroke="#5AAF21" stroke-opacity="0.5" stroke-width="3"/>
<path d="M1177 636V1662" stroke="#5AAF21" stroke-opacity="0.5" stroke-width="3"/>
<path d="M1251 634V1660" stroke="#5AAF21" stroke-opacity="0.5" stroke-width="3"/>
<path d="M1276 636V1662" stroke="#5AAF21" stroke-opacity="0.5" stroke-width="3"/>
<path d="M0 940H1280.5" stroke="#5AAF21" stroke-opacity="0.5" stroke-width="3"/>
<path d="M2 961H1282.5" stroke="#5AAF21" stroke-opacity="0.5" stroke-width="3"/>
<path d="M2 986H1282.5" stroke="#5AAF21" stroke-opacity="0.5" stroke-width="3"/>
<path d="M2 1011H1282.5" stroke="#5AAF21" stroke-opacity="0.5" stroke-width="3"/>
<path d="M2 1036H1282.5" stroke="#5AAF21" stroke-opacity="0.5" stroke-width="3"/>
<path d="M2 1061H1282.5" stroke="#5AAF21" stroke-opacity="0.5" stroke-width="3"/>
<path d="M2 1086H1282.5" stroke="#5AAF21" stroke-opacity="0.5" stroke-width="3"/>
<path d="M2 1111H1282.5" stroke="#5AAF21" stroke-opacity="0.5" stroke-width="3"/>
<path d="M2 1136H1282.5" stroke="#5AAF21" stroke-opacity="0.5" stroke-width="3"/>
<path d="M2 1161H1282.5" stroke="#5AAF21" stroke-opacity="0.5" stroke-width="3"/>
<path d="M2 1186H1282.5" stroke="#5AAF21" stroke-opacity="0.5" stroke-width="3"/>
<path d="M2 1211H1282.5" stroke="#5AAF21" stroke-opacity="0.5" stroke-width="3"/>
<path d="M2 1236H1282.5" stroke="#5AAF21" stroke-opacity="0.5" stroke-width="3"/>
<path d="M2 1261H1282.5" stroke="#5AAF21" stroke-opacity="0.5" stroke-width="3"/>
<path d="M2 1286H1282.5" stroke="#5AAF21" stroke-opacity="0.5" stroke-width="3"/>
<path d="M2 1311H1282.5" stroke="#5AAF21" stroke-opacity="0.5" stroke-width="3"/>
<path d="M2 1336H1282.5" stroke="#5AAF21" stroke-opacity="0.5" stroke-width="3"/>
<path d="M2 1361H1282.5" stroke="#5AAF21" stroke-opacity="0.5" stroke-width="3"/>
<path d="M2 1386H1282.5" stroke="#5AAF21" stroke-opacity="0.5" stroke-width="3"/>
<path d="M2 1411H1282.5" stroke="#5AAF21" stroke-opacity="0.5" stroke-width="3"/>
<path d="M2 1436H1282.5" stroke="#5AAF21" stroke-opacity="0.5" stroke-width="3"/>
<path d="M2 1461H1282.5" stroke="#5AAF21" stroke-opacity="0.5" stroke-width="3"/>
<path d="M2 1486H1282.5" stroke="#5AAF21" stroke-opacity="0.5" stroke-width="3"/>
<path d="M2 1511H1282.5" stroke="#5AAF21" stroke-opacity="0.5" stroke-width="3"/>
<path d="M2 1536H1282.5" stroke="#5AAF21" stroke-opacity="0.5" stroke-width="3"/>
<path d="M2 1561H1282.5" stroke="#5AAF21" stroke-opacity="0.5" stroke-width="3"/>
<path d="M2 1586H1282.5" stroke="#5AAF21" stroke-opacity="0.5" stroke-width="3"/>
<path d="M2 1611H1282.5" stroke="#5AAF21" stroke-opacity="0.5" stroke-width="3"/>
<path d="M2 1636H1282.5" stroke="#5AAF21" stroke-opacity="0.5" stroke-width="3"/>
<path d="M2 1661H1282.5" stroke="#5AAF21" stroke-opacity="0.5" stroke-width="3"/>
</svg>
