<svg width="690" height="362" viewBox="0 0 690 362" fill="none" xmlns="http://www.w3.org/2000/svg">
<rect x="5.98206" y="5.51429" width="678.4" height="350.72" fill="#D9D9D9" stroke="#5AAF21" stroke-width="10.9714"/>
<path d="M11 11.3711V56.3711H78.5V11.3711H11ZM11 11.3711H22.25V22.6211H33.5V11.3711H44.75V22.6211H56V11.3711H67.25V22.6211H78.5V33.8711H67.25V45.1211H78.5V56.3711H67.25V45.1211H56V56.3711H44.75V45.1211H33.5V56.3711H22.25V45.1211H11V33.8711H22.25V22.6211H11V11.3711ZM22.25 33.8711V45.1211H33.5V33.8711H22.25ZM33.5 33.8711H44.75V22.6211H33.5V33.8711ZM44.75 33.8711V45.1211H56V33.8711H44.75ZM56 33.8711H67.25V22.6211H56V33.8711Z" fill="#5AAF21" fill-opacity="0.5"/>
<path d="M11 56.3711V101.371H78.5V56.3711H11ZM11 56.3711H22.25V67.6211H33.5V56.3711H44.75V67.6211H56V56.3711H67.25V67.6211H78.5V78.8711H67.25V90.1211H78.5V101.371H67.25V90.1211H56V101.371H44.75V90.1211H33.5V101.371H22.25V90.1211H11V78.8711H22.25V67.6211H11V56.3711ZM22.25 78.8711V90.1211H33.5V78.8711H22.25ZM33.5 78.8711H44.75V67.6211H33.5V78.8711ZM44.75 78.8711V90.1211H56V78.8711H44.75ZM56 78.8711H67.25V67.6211H56V78.8711Z" fill="#5AAF21" fill-opacity="0.5"/>
<path d="M11 101.371V146.371H78.5V101.371H11ZM11 101.371H22.25V112.621H33.5V101.371H44.75V112.621H56V101.371H67.25V112.621H78.5V123.871H67.25V135.121H78.5V146.371H67.25V135.121H56V146.371H44.75V135.121H33.5V146.371H22.25V135.121H11V123.871H22.25V112.621H11V101.371ZM22.25 123.871V135.121H33.5V123.871H22.25ZM33.5 123.871H44.75V112.621H33.5V123.871ZM44.75 123.871V135.121H56V123.871H44.75ZM56 123.871H67.25V112.621H56V123.871Z" fill="#5AAF21" fill-opacity="0.5"/>
<path d="M11 146.371V191.371H78.5V146.371H11ZM11 146.371H22.25V157.621H33.5V146.371H44.75V157.621H56V146.371H67.25V157.621H78.5V168.871H67.25V180.121H78.5V191.371H67.25V180.121H56V191.371H44.75V180.121H33.5V191.371H22.25V180.121H11V168.871H22.25V157.621H11V146.371ZM22.25 168.871V180.121H33.5V168.871H22.25ZM33.5 168.871H44.75V157.621H33.5V168.871ZM44.75 168.871V180.121H56V168.871H44.75ZM56 168.871H67.25V157.621H56V168.871Z" fill="#5AAF21" fill-opacity="0.5"/>
<path d="M11 191.371V236.371H78.5V191.371H11ZM11 191.371H22.25V202.621H33.5V191.371H44.75V202.621H56V191.371H67.25V202.621H78.5V213.871H67.25V225.121H78.5V236.371H67.25V225.121H56V236.371H44.75V225.121H33.5V236.371H22.25V225.121H11V213.871H22.25V202.621H11V191.371ZM22.25 213.871V225.121H33.5V213.871H22.25ZM33.5 213.871H44.75V202.621H33.5V213.871ZM44.75 213.871V225.121H56V213.871H44.75ZM56 213.871H67.25V202.621H56V213.871Z" fill="#5AAF21" fill-opacity="0.5"/>
<path d="M11 236.371V281.371H78.5V236.371H11ZM11 236.371H22.25V247.621H33.5V236.371H44.75V247.621H56V236.371H67.25V247.621H78.5V258.871H67.25V270.121H78.5V281.371H67.25V270.121H56V281.371H44.75V270.121H33.5V281.371H22.25V270.121H11V258.871H22.25V247.621H11V236.371ZM22.25 258.871V270.121H33.5V258.871H22.25ZM33.5 258.871H44.75V247.621H33.5V258.871ZM44.75 258.871V270.121H56V258.871H44.75ZM56 258.871H67.25V247.621H56V258.871Z" fill="#5AAF21" fill-opacity="0.5"/>
<path d="M11 281.371V326.371H78.5V281.371H11ZM11 281.371H22.25V292.621H33.5V281.371H44.75V292.621H56V281.371H67.25V292.621H78.5V303.871H67.25V315.121H78.5V326.371H67.25V315.121H56V326.371H44.75V315.121H33.5V326.371H22.25V315.121H11V303.871H22.25V292.621H11V281.371ZM22.25 303.871V315.121H33.5V303.871H22.25ZM33.5 303.871H44.75V292.621H33.5V303.871ZM44.75 303.871V315.121H56V303.871H44.75ZM56 303.871H67.25V292.621H56V303.871Z" fill="#5AAF21" fill-opacity="0.5"/>
<path d="M11 326.371V360.121L78.5 352.621V326.371H11ZM11 326.371H22.25V337.621H33.5V326.371H44.75V337.621H56V326.371H67.25V337.621H78.5V348.871H67.25V360.121H56H44.75H33.5H22.25H11V348.871H22.25V337.621H11V326.371ZM22.25 348.871V360.121H33.5V348.871H22.25ZM33.5 348.871H44.75V337.621H33.5V348.871ZM44.75 348.871V360.121H56V348.871H44.75ZM56 348.871H67.25V337.621H56V348.871Z" fill="#5AAF21" fill-opacity="0.5"/>
<path d="M78 326.371V360.121L145.5 352.621V326.371H78ZM78 326.371H89.25V337.621H100.5V326.371H111.75V337.621H123V326.371H134.25V337.621H145.5V348.871H134.25V360.121H123H111.75H100.5H89.25H78V348.871H89.25V337.621H78V326.371ZM89.25 348.871V360.121H100.5V348.871H89.25ZM100.5 348.871H111.75V337.621H100.5V348.871ZM111.75 348.871V360.121H123V348.871H111.75ZM123 348.871H134.25V337.621H123V348.871Z" fill="#5AAF21" fill-opacity="0.5"/>
<path d="M145 326.371V360.121L212.5 352.621V326.371H145ZM145 326.371H156.25V337.621H167.5V326.371H178.75V337.621H190V326.371H201.25V337.621H212.5V348.871H201.25V360.121H190H178.75H167.5H156.25H145V348.871H156.25V337.621H145V326.371ZM156.25 348.871V360.121H167.5V348.871H156.25ZM167.5 348.871H178.75V337.621H167.5V348.871ZM178.75 348.871V360.121H190V348.871H178.75ZM190 348.871H201.25V337.621H190V348.871Z" fill="#5AAF21" fill-opacity="0.5"/>
<path d="M212 326.371V360.121L279.5 352.621V326.371H212ZM212 326.371H223.25V337.621H234.5V326.371H245.75V337.621H257V326.371H268.25V337.621H279.5V348.871H268.25V360.121H257H245.75H234.5H223.25H212V348.871H223.25V337.621H212V326.371ZM223.25 348.871V360.121H234.5V348.871H223.25ZM234.5 348.871H245.75V337.621H234.5V348.871ZM245.75 348.871V360.121H257V348.871H245.75ZM257 348.871H268.25V337.621H257V348.871Z" fill="#5AAF21" fill-opacity="0.5"/>
<path d="M279 326.371V360.121L346.5 352.621V326.371H279ZM279 326.371H290.25V337.621H301.5V326.371H312.75V337.621H324V326.371H335.25V337.621H346.5V348.871H335.25V360.121H324H312.75H301.5H290.25H279V348.871H290.25V337.621H279V326.371ZM290.25 348.871V360.121H301.5V348.871H290.25ZM301.5 348.871H312.75V337.621H301.5V348.871ZM312.75 348.871V360.121H324V348.871H312.75ZM324 348.871H335.25V337.621H324V348.871Z" fill="#5AAF21" fill-opacity="0.5"/>
<path d="M346 326.371V360.121L413.5 352.621V326.371H346ZM346 326.371H357.25V337.621H368.5V326.371H379.75V337.621H391V326.371H402.25V337.621H413.5V348.871H402.25V360.121H391H379.75H368.5H357.25H346V348.871H357.25V337.621H346V326.371ZM357.25 348.871V360.121H368.5V348.871H357.25ZM368.5 348.871H379.75V337.621H368.5V348.871ZM379.75 348.871V360.121H391V348.871H379.75ZM391 348.871H402.25V337.621H391V348.871Z" fill="#5AAF21" fill-opacity="0.5"/>
<path d="M413 326.371V360.121L480.5 352.621V326.371H413ZM413 326.371H424.25V337.621H435.5V326.371H446.75V337.621H458V326.371H469.25V337.621H480.5V348.871H469.25V360.121H458H446.75H435.5H424.25H413V348.871H424.25V337.621H413V326.371ZM424.25 348.871V360.121H435.5V348.871H424.25ZM435.5 348.871H446.75V337.621H435.5V348.871ZM446.75 348.871V360.121H458V348.871H446.75ZM458 348.871H469.25V337.621H458V348.871Z" fill="#5AAF21" fill-opacity="0.5"/>
<path d="M480 326.371V360.121L547.5 352.621V326.371H480ZM480 326.371H491.25V337.621H502.5V326.371H513.75V337.621H525V326.371H536.25V337.621H547.5V348.871H536.25V360.121H525H513.75H502.5H491.25H480V348.871H491.25V337.621H480V326.371ZM491.25 348.871V360.121H502.5V348.871H491.25ZM502.5 348.871H513.75V337.621H502.5V348.871ZM513.75 348.871V360.121H525V348.871H513.75ZM525 348.871H536.25V337.621H525V348.871Z" fill="#5AAF21" fill-opacity="0.5"/>
<path d="M547 326.371V360.121L614.5 352.621V326.371H547ZM547 326.371H558.25V337.621H569.5V326.371H580.75V337.621H592V326.371H603.25V337.621H614.5V348.871H603.25V360.121H592H580.75H569.5H558.25H547V348.871H558.25V337.621H547V326.371ZM558.25 348.871V360.121H569.5V348.871H558.25ZM569.5 348.871H580.75V337.621H569.5V348.871ZM580.75 348.871V360.121H592V348.871H580.75ZM592 348.871H603.25V337.621H592V348.871Z" fill="#5AAF21" fill-opacity="0.5"/>
<path d="M614 326.371V360.121L681.5 352.621V326.371H614ZM614 326.371H625.25V337.621H636.5V326.371H647.75V337.621H659V326.371H670.25V337.621H681.5V348.871H670.25V360.121H659H647.75H636.5H625.25H614V348.871H625.25V337.621H614V326.371ZM625.25 348.871V360.121H636.5V348.871H625.25ZM636.5 348.871H647.75V337.621H636.5V348.871ZM647.75 348.871V360.121H659V348.871H647.75ZM659 348.871H670.25V337.621H659V348.871Z" fill="#5AAF21" fill-opacity="0.5"/>
<path d="M78 11.3711V56.3711H145.5V11.3711H78ZM78 11.3711H89.25V22.6211H100.5V11.3711H111.75V22.6211H123V11.3711H134.25V22.6211H145.5V33.8711H134.25V45.1211H145.5V56.3711H134.25V45.1211H123V56.3711H111.75V45.1211H100.5V56.3711H89.25V45.1211H78V33.8711H89.25V22.6211H78V11.3711ZM89.25 33.8711V45.1211H100.5V33.8711H89.25ZM100.5 33.8711H111.75V22.6211H100.5V33.8711ZM111.75 33.8711V45.1211H123V33.8711H111.75ZM123 33.8711H134.25V22.6211H123V33.8711Z" fill="#5AAF21" fill-opacity="0.5"/>
<path d="M78 56.3711V101.371H145.5V56.3711H78ZM78 56.3711H89.25V67.6211H100.5V56.3711H111.75V67.6211H123V56.3711H134.25V67.6211H145.5V78.8711H134.25V90.1211H145.5V101.371H134.25V90.1211H123V101.371H111.75V90.1211H100.5V101.371H89.25V90.1211H78V78.8711H89.25V67.6211H78V56.3711ZM89.25 78.8711V90.1211H100.5V78.8711H89.25ZM100.5 78.8711H111.75V67.6211H100.5V78.8711ZM111.75 78.8711V90.1211H123V78.8711H111.75ZM123 78.8711H134.25V67.6211H123V78.8711Z" fill="#5AAF21" fill-opacity="0.5"/>
<path d="M78 101.371V146.371H145.5V101.371H78ZM78 101.371H89.25V112.621H100.5V101.371H111.75V112.621H123V101.371H134.25V112.621H145.5V123.871H134.25V135.121H145.5V146.371H134.25V135.121H123V146.371H111.75V135.121H100.5V146.371H89.25V135.121H78V123.871H89.25V112.621H78V101.371ZM89.25 123.871V135.121H100.5V123.871H89.25ZM100.5 123.871H111.75V112.621H100.5V123.871ZM111.75 123.871V135.121H123V123.871H111.75ZM123 123.871H134.25V112.621H123V123.871Z" fill="#5AAF21" fill-opacity="0.5"/>
<path d="M78 146.371V191.371H145.5V146.371H78ZM78 146.371H89.25V157.621H100.5V146.371H111.75V157.621H123V146.371H134.25V157.621H145.5V168.871H134.25V180.121H145.5V191.371H134.25V180.121H123V191.371H111.75V180.121H100.5V191.371H89.25V180.121H78V168.871H89.25V157.621H78V146.371ZM89.25 168.871V180.121H100.5V168.871H89.25ZM100.5 168.871H111.75V157.621H100.5V168.871ZM111.75 168.871V180.121H123V168.871H111.75ZM123 168.871H134.25V157.621H123V168.871Z" fill="#5AAF21" fill-opacity="0.5"/>
<path d="M78 191.371V236.371H145.5V191.371H78ZM78 191.371H89.25V202.621H100.5V191.371H111.75V202.621H123V191.371H134.25V202.621H145.5V213.871H134.25V225.121H145.5V236.371H134.25V225.121H123V236.371H111.75V225.121H100.5V236.371H89.25V225.121H78V213.871H89.25V202.621H78V191.371ZM89.25 213.871V225.121H100.5V213.871H89.25ZM100.5 213.871H111.75V202.621H100.5V213.871ZM111.75 213.871V225.121H123V213.871H111.75ZM123 213.871H134.25V202.621H123V213.871Z" fill="#5AAF21" fill-opacity="0.5"/>
<path d="M78 236.371V281.371H145.5V236.371H78ZM78 236.371H89.25V247.621H100.5V236.371H111.75V247.621H123V236.371H134.25V247.621H145.5V258.871H134.25V270.121H145.5V281.371H134.25V270.121H123V281.371H111.75V270.121H100.5V281.371H89.25V270.121H78V258.871H89.25V247.621H78V236.371ZM89.25 258.871V270.121H100.5V258.871H89.25ZM100.5 258.871H111.75V247.621H100.5V258.871ZM111.75 258.871V270.121H123V258.871H111.75ZM123 258.871H134.25V247.621H123V258.871Z" fill="#5AAF21" fill-opacity="0.5"/>
<path d="M78 281.371V326.371H145.5V281.371H78ZM78 281.371H89.25V292.621H100.5V281.371H111.75V292.621H123V281.371H134.25V292.621H145.5V303.871H134.25V315.121H145.5V326.371H134.25V315.121H123V326.371H111.75V315.121H100.5V326.371H89.25V315.121H78V303.871H89.25V292.621H78V281.371ZM89.25 303.871V315.121H100.5V303.871H89.25ZM100.5 303.871H111.75V292.621H100.5V303.871ZM111.75 303.871V315.121H123V303.871H111.75ZM123 303.871H134.25V292.621H123V303.871Z" fill="#5AAF21" fill-opacity="0.5"/>
<path d="M145 11.3711V56.3711H212.5V11.3711H145ZM145 11.3711H156.25V22.6211H167.5V11.3711H178.75V22.6211H190V11.3711H201.25V22.6211H212.5V33.8711H201.25V45.1211H212.5V56.3711H201.25V45.1211H190V56.3711H178.75V45.1211H167.5V56.3711H156.25V45.1211H145V33.8711H156.25V22.6211H145V11.3711ZM156.25 33.8711V45.1211H167.5V33.8711H156.25ZM167.5 33.8711H178.75V22.6211H167.5V33.8711ZM178.75 33.8711V45.1211H190V33.8711H178.75ZM190 33.8711H201.25V22.6211H190V33.8711Z" fill="#5AAF21" fill-opacity="0.5"/>
<path d="M145 56.3711V101.371H212.5V56.3711H145ZM145 56.3711H156.25V67.6211H167.5V56.3711H178.75V67.6211H190V56.3711H201.25V67.6211H212.5V78.8711H201.25V90.1211H212.5V101.371H201.25V90.1211H190V101.371H178.75V90.1211H167.5V101.371H156.25V90.1211H145V78.8711H156.25V67.6211H145V56.3711ZM156.25 78.8711V90.1211H167.5V78.8711H156.25ZM167.5 78.8711H178.75V67.6211H167.5V78.8711ZM178.75 78.8711V90.1211H190V78.8711H178.75ZM190 78.8711H201.25V67.6211H190V78.8711Z" fill="#5AAF21" fill-opacity="0.5"/>
<path d="M145 101.371V146.371H212.5V101.371H145ZM145 101.371H156.25V112.621H167.5V101.371H178.75V112.621H190V101.371H201.25V112.621H212.5V123.871H201.25V135.121H212.5V146.371H201.25V135.121H190V146.371H178.75V135.121H167.5V146.371H156.25V135.121H145V123.871H156.25V112.621H145V101.371ZM156.25 123.871V135.121H167.5V123.871H156.25ZM167.5 123.871H178.75V112.621H167.5V123.871ZM178.75 123.871V135.121H190V123.871H178.75ZM190 123.871H201.25V112.621H190V123.871Z" fill="#5AAF21" fill-opacity="0.5"/>
<path d="M145 146.371V191.371H212.5V146.371H145ZM145 146.371H156.25V157.621H167.5V146.371H178.75V157.621H190V146.371H201.25V157.621H212.5V168.871H201.25V180.121H212.5V191.371H201.25V180.121H190V191.371H178.75V180.121H167.5V191.371H156.25V180.121H145V168.871H156.25V157.621H145V146.371ZM156.25 168.871V180.121H167.5V168.871H156.25ZM167.5 168.871H178.75V157.621H167.5V168.871ZM178.75 168.871V180.121H190V168.871H178.75ZM190 168.871H201.25V157.621H190V168.871Z" fill="#5AAF21" fill-opacity="0.5"/>
<path d="M145 191.371V236.371H212.5V191.371H145ZM145 191.371H156.25V202.621H167.5V191.371H178.75V202.621H190V191.371H201.25V202.621H212.5V213.871H201.25V225.121H212.5V236.371H201.25V225.121H190V236.371H178.75V225.121H167.5V236.371H156.25V225.121H145V213.871H156.25V202.621H145V191.371ZM156.25 213.871V225.121H167.5V213.871H156.25ZM167.5 213.871H178.75V202.621H167.5V213.871ZM178.75 213.871V225.121H190V213.871H178.75ZM190 213.871H201.25V202.621H190V213.871Z" fill="#5AAF21" fill-opacity="0.5"/>
<path d="M145 236.371V281.371H212.5V236.371H145ZM145 236.371H156.25V247.621H167.5V236.371H178.75V247.621H190V236.371H201.25V247.621H212.5V258.871H201.25V270.121H212.5V281.371H201.25V270.121H190V281.371H178.75V270.121H167.5V281.371H156.25V270.121H145V258.871H156.25V247.621H145V236.371ZM156.25 258.871V270.121H167.5V258.871H156.25ZM167.5 258.871H178.75V247.621H167.5V258.871ZM178.75 258.871V270.121H190V258.871H178.75ZM190 258.871H201.25V247.621H190V258.871Z" fill="#5AAF21" fill-opacity="0.5"/>
<path d="M145 281.371V326.371H212.5V281.371H145ZM145 281.371H156.25V292.621H167.5V281.371H178.75V292.621H190V281.371H201.25V292.621H212.5V303.871H201.25V315.121H212.5V326.371H201.25V315.121H190V326.371H178.75V315.121H167.5V326.371H156.25V315.121H145V303.871H156.25V292.621H145V281.371ZM156.25 303.871V315.121H167.5V303.871H156.25ZM167.5 303.871H178.75V292.621H167.5V303.871ZM178.75 303.871V315.121H190V303.871H178.75ZM190 303.871H201.25V292.621H190V303.871Z" fill="#5AAF21" fill-opacity="0.5"/>
<path d="M212 11.3711V56.3711H279.5V11.3711H212ZM212 11.3711H223.25V22.6211H234.5V11.3711H245.75V22.6211H257V11.3711H268.25V22.6211H279.5V33.8711H268.25V45.1211H279.5V56.3711H268.25V45.1211H257V56.3711H245.75V45.1211H234.5V56.3711H223.25V45.1211H212V33.8711H223.25V22.6211H212V11.3711ZM223.25 33.8711V45.1211H234.5V33.8711H223.25ZM234.5 33.8711H245.75V22.6211H234.5V33.8711ZM245.75 33.8711V45.1211H257V33.8711H245.75ZM257 33.8711H268.25V22.6211H257V33.8711Z" fill="#5AAF21" fill-opacity="0.5"/>
<path d="M212 56.3711V101.371H279.5V56.3711H212ZM212 56.3711H223.25V67.6211H234.5V56.3711H245.75V67.6211H257V56.3711H268.25V67.6211H279.5V78.8711H268.25V90.1211H279.5V101.371H268.25V90.1211H257V101.371H245.75V90.1211H234.5V101.371H223.25V90.1211H212V78.8711H223.25V67.6211H212V56.3711ZM223.25 78.8711V90.1211H234.5V78.8711H223.25ZM234.5 78.8711H245.75V67.6211H234.5V78.8711ZM245.75 78.8711V90.1211H257V78.8711H245.75ZM257 78.8711H268.25V67.6211H257V78.8711Z" fill="#5AAF21" fill-opacity="0.5"/>
<path d="M212 101.371V146.371H279.5V101.371H212ZM212 101.371H223.25V112.621H234.5V101.371H245.75V112.621H257V101.371H268.25V112.621H279.5V123.871H268.25V135.121H279.5V146.371H268.25V135.121H257V146.371H245.75V135.121H234.5V146.371H223.25V135.121H212V123.871H223.25V112.621H212V101.371ZM223.25 123.871V135.121H234.5V123.871H223.25ZM234.5 123.871H245.75V112.621H234.5V123.871ZM245.75 123.871V135.121H257V123.871H245.75ZM257 123.871H268.25V112.621H257V123.871Z" fill="#5AAF21" fill-opacity="0.5"/>
<path d="M212 146.371V191.371H279.5V146.371H212ZM212 146.371H223.25V157.621H234.5V146.371H245.75V157.621H257V146.371H268.25V157.621H279.5V168.871H268.25V180.121H279.5V191.371H268.25V180.121H257V191.371H245.75V180.121H234.5V191.371H223.25V180.121H212V168.871H223.25V157.621H212V146.371ZM223.25 168.871V180.121H234.5V168.871H223.25ZM234.5 168.871H245.75V157.621H234.5V168.871ZM245.75 168.871V180.121H257V168.871H245.75ZM257 168.871H268.25V157.621H257V168.871Z" fill="#5AAF21" fill-opacity="0.5"/>
<path d="M212 191.371V236.371H279.5V191.371H212ZM212 191.371H223.25V202.621H234.5V191.371H245.75V202.621H257V191.371H268.25V202.621H279.5V213.871H268.25V225.121H279.5V236.371H268.25V225.121H257V236.371H245.75V225.121H234.5V236.371H223.25V225.121H212V213.871H223.25V202.621H212V191.371ZM223.25 213.871V225.121H234.5V213.871H223.25ZM234.5 213.871H245.75V202.621H234.5V213.871ZM245.75 213.871V225.121H257V213.871H245.75ZM257 213.871H268.25V202.621H257V213.871Z" fill="#5AAF21" fill-opacity="0.5"/>
<path d="M212 236.371V281.371H279.5V236.371H212ZM212 236.371H223.25V247.621H234.5V236.371H245.75V247.621H257V236.371H268.25V247.621H279.5V258.871H268.25V270.121H279.5V281.371H268.25V270.121H257V281.371H245.75V270.121H234.5V281.371H223.25V270.121H212V258.871H223.25V247.621H212V236.371ZM223.25 258.871V270.121H234.5V258.871H223.25ZM234.5 258.871H245.75V247.621H234.5V258.871ZM245.75 258.871V270.121H257V258.871H245.75ZM257 258.871H268.25V247.621H257V258.871Z" fill="#5AAF21" fill-opacity="0.5"/>
<path d="M212 281.371V326.371H279.5V281.371H212ZM212 281.371H223.25V292.621H234.5V281.371H245.75V292.621H257V281.371H268.25V292.621H279.5V303.871H268.25V315.121H279.5V326.371H268.25V315.121H257V326.371H245.75V315.121H234.5V326.371H223.25V315.121H212V303.871H223.25V292.621H212V281.371ZM223.25 303.871V315.121H234.5V303.871H223.25ZM234.5 303.871H245.75V292.621H234.5V303.871ZM245.75 303.871V315.121H257V303.871H245.75ZM257 303.871H268.25V292.621H257V303.871Z" fill="#5AAF21" fill-opacity="0.5"/>
<path d="M279 11.3711V56.3711H346.5V11.3711H279ZM279 11.3711H290.25V22.6211H301.5V11.3711H312.75V22.6211H324V11.3711H335.25V22.6211H346.5V33.8711H335.25V45.1211H346.5V56.3711H335.25V45.1211H324V56.3711H312.75V45.1211H301.5V56.3711H290.25V45.1211H279V33.8711H290.25V22.6211H279V11.3711ZM290.25 33.8711V45.1211H301.5V33.8711H290.25ZM301.5 33.8711H312.75V22.6211H301.5V33.8711ZM312.75 33.8711V45.1211H324V33.8711H312.75ZM324 33.8711H335.25V22.6211H324V33.8711Z" fill="#5AAF21" fill-opacity="0.5"/>
<path d="M279 56.3711V101.371H346.5V56.3711H279ZM279 56.3711H290.25V67.6211H301.5V56.3711H312.75V67.6211H324V56.3711H335.25V67.6211H346.5V78.8711H335.25V90.1211H346.5V101.371H335.25V90.1211H324V101.371H312.75V90.1211H301.5V101.371H290.25V90.1211H279V78.8711H290.25V67.6211H279V56.3711ZM290.25 78.8711V90.1211H301.5V78.8711H290.25ZM301.5 78.8711H312.75V67.6211H301.5V78.8711ZM312.75 78.8711V90.1211H324V78.8711H312.75ZM324 78.8711H335.25V67.6211H324V78.8711Z" fill="#5AAF21" fill-opacity="0.5"/>
<path d="M279 101.371V146.371H346.5V101.371H279ZM279 101.371H290.25V112.621H301.5V101.371H312.75V112.621H324V101.371H335.25V112.621H346.5V123.871H335.25V135.121H346.5V146.371H335.25V135.121H324V146.371H312.75V135.121H301.5V146.371H290.25V135.121H279V123.871H290.25V112.621H279V101.371ZM290.25 123.871V135.121H301.5V123.871H290.25ZM301.5 123.871H312.75V112.621H301.5V123.871ZM312.75 123.871V135.121H324V123.871H312.75ZM324 123.871H335.25V112.621H324V123.871Z" fill="#5AAF21" fill-opacity="0.5"/>
<path d="M279 146.371V191.371H346.5V146.371H279ZM279 146.371H290.25V157.621H301.5V146.371H312.75V157.621H324V146.371H335.25V157.621H346.5V168.871H335.25V180.121H346.5V191.371H335.25V180.121H324V191.371H312.75V180.121H301.5V191.371H290.25V180.121H279V168.871H290.25V157.621H279V146.371ZM290.25 168.871V180.121H301.5V168.871H290.25ZM301.5 168.871H312.75V157.621H301.5V168.871ZM312.75 168.871V180.121H324V168.871H312.75ZM324 168.871H335.25V157.621H324V168.871Z" fill="#5AAF21" fill-opacity="0.5"/>
<path d="M279 191.371V236.371H346.5V191.371H279ZM279 191.371H290.25V202.621H301.5V191.371H312.75V202.621H324V191.371H335.25V202.621H346.5V213.871H335.25V225.121H346.5V236.371H335.25V225.121H324V236.371H312.75V225.121H301.5V236.371H290.25V225.121H279V213.871H290.25V202.621H279V191.371ZM290.25 213.871V225.121H301.5V213.871H290.25ZM301.5 213.871H312.75V202.621H301.5V213.871ZM312.75 213.871V225.121H324V213.871H312.75ZM324 213.871H335.25V202.621H324V213.871Z" fill="#5AAF21" fill-opacity="0.5"/>
<path d="M279 236.371V281.371H346.5V236.371H279ZM279 236.371H290.25V247.621H301.5V236.371H312.75V247.621H324V236.371H335.25V247.621H346.5V258.871H335.25V270.121H346.5V281.371H335.25V270.121H324V281.371H312.75V270.121H301.5V281.371H290.25V270.121H279V258.871H290.25V247.621H279V236.371ZM290.25 258.871V270.121H301.5V258.871H290.25ZM301.5 258.871H312.75V247.621H301.5V258.871ZM312.75 258.871V270.121H324V258.871H312.75ZM324 258.871H335.25V247.621H324V258.871Z" fill="#5AAF21" fill-opacity="0.5"/>
<path d="M279 281.371V326.371H346.5V281.371H279ZM279 281.371H290.25V292.621H301.5V281.371H312.75V292.621H324V281.371H335.25V292.621H346.5V303.871H335.25V315.121H346.5V326.371H335.25V315.121H324V326.371H312.75V315.121H301.5V326.371H290.25V315.121H279V303.871H290.25V292.621H279V281.371ZM290.25 303.871V315.121H301.5V303.871H290.25ZM301.5 303.871H312.75V292.621H301.5V303.871ZM312.75 303.871V315.121H324V303.871H312.75ZM324 303.871H335.25V292.621H324V303.871Z" fill="#5AAF21" fill-opacity="0.5"/>
<path d="M346 11.3711V56.3711H413.5V11.3711H346ZM346 11.3711H357.25V22.6211H368.5V11.3711H379.75V22.6211H391V11.3711H402.25V22.6211H413.5V33.8711H402.25V45.1211H413.5V56.3711H402.25V45.1211H391V56.3711H379.75V45.1211H368.5V56.3711H357.25V45.1211H346V33.8711H357.25V22.6211H346V11.3711ZM357.25 33.8711V45.1211H368.5V33.8711H357.25ZM368.5 33.8711H379.75V22.6211H368.5V33.8711ZM379.75 33.8711V45.1211H391V33.8711H379.75ZM391 33.8711H402.25V22.6211H391V33.8711Z" fill="#5AAF21" fill-opacity="0.5"/>
<path d="M346 56.3711V101.371H413.5V56.3711H346ZM346 56.3711H357.25V67.6211H368.5V56.3711H379.75V67.6211H391V56.3711H402.25V67.6211H413.5V78.8711H402.25V90.1211H413.5V101.371H402.25V90.1211H391V101.371H379.75V90.1211H368.5V101.371H357.25V90.1211H346V78.8711H357.25V67.6211H346V56.3711ZM357.25 78.8711V90.1211H368.5V78.8711H357.25ZM368.5 78.8711H379.75V67.6211H368.5V78.8711ZM379.75 78.8711V90.1211H391V78.8711H379.75ZM391 78.8711H402.25V67.6211H391V78.8711Z" fill="#5AAF21" fill-opacity="0.5"/>
<path d="M346 101.371V146.371H413.5V101.371H346ZM346 101.371H357.25V112.621H368.5V101.371H379.75V112.621H391V101.371H402.25V112.621H413.5V123.871H402.25V135.121H413.5V146.371H402.25V135.121H391V146.371H379.75V135.121H368.5V146.371H357.25V135.121H346V123.871H357.25V112.621H346V101.371ZM357.25 123.871V135.121H368.5V123.871H357.25ZM368.5 123.871H379.75V112.621H368.5V123.871ZM379.75 123.871V135.121H391V123.871H379.75ZM391 123.871H402.25V112.621H391V123.871Z" fill="#5AAF21" fill-opacity="0.5"/>
<path d="M346 146.371V191.371H413.5V146.371H346ZM346 146.371H357.25V157.621H368.5V146.371H379.75V157.621H391V146.371H402.25V157.621H413.5V168.871H402.25V180.121H413.5V191.371H402.25V180.121H391V191.371H379.75V180.121H368.5V191.371H357.25V180.121H346V168.871H357.25V157.621H346V146.371ZM357.25 168.871V180.121H368.5V168.871H357.25ZM368.5 168.871H379.75V157.621H368.5V168.871ZM379.75 168.871V180.121H391V168.871H379.75ZM391 168.871H402.25V157.621H391V168.871Z" fill="#5AAF21" fill-opacity="0.5"/>
<path d="M346 191.371V236.371H413.5V191.371H346ZM346 191.371H357.25V202.621H368.5V191.371H379.75V202.621H391V191.371H402.25V202.621H413.5V213.871H402.25V225.121H413.5V236.371H402.25V225.121H391V236.371H379.75V225.121H368.5V236.371H357.25V225.121H346V213.871H357.25V202.621H346V191.371ZM357.25 213.871V225.121H368.5V213.871H357.25ZM368.5 213.871H379.75V202.621H368.5V213.871ZM379.75 213.871V225.121H391V213.871H379.75ZM391 213.871H402.25V202.621H391V213.871Z" fill="#5AAF21" fill-opacity="0.5"/>
<path d="M346 236.371V281.371H413.5V236.371H346ZM346 236.371H357.25V247.621H368.5V236.371H379.75V247.621H391V236.371H402.25V247.621H413.5V258.871H402.25V270.121H413.5V281.371H402.25V270.121H391V281.371H379.75V270.121H368.5V281.371H357.25V270.121H346V258.871H357.25V247.621H346V236.371ZM357.25 258.871V270.121H368.5V258.871H357.25ZM368.5 258.871H379.75V247.621H368.5V258.871ZM379.75 258.871V270.121H391V258.871H379.75ZM391 258.871H402.25V247.621H391V258.871Z" fill="#5AAF21" fill-opacity="0.5"/>
<path d="M346 281.371V326.371H413.5V281.371H346ZM346 281.371H357.25V292.621H368.5V281.371H379.75V292.621H391V281.371H402.25V292.621H413.5V303.871H402.25V315.121H413.5V326.371H402.25V315.121H391V326.371H379.75V315.121H368.5V326.371H357.25V315.121H346V303.871H357.25V292.621H346V281.371ZM357.25 303.871V315.121H368.5V303.871H357.25ZM368.5 303.871H379.75V292.621H368.5V303.871ZM379.75 303.871V315.121H391V303.871H379.75ZM391 303.871H402.25V292.621H391V303.871Z" fill="#5AAF21" fill-opacity="0.5"/>
<path d="M413 11.3711V56.3711H480.5V11.3711H413ZM413 11.3711H424.25V22.6211H435.5V11.3711H446.75V22.6211H458V11.3711H469.25V22.6211H480.5V33.8711H469.25V45.1211H480.5V56.3711H469.25V45.1211H458V56.3711H446.75V45.1211H435.5V56.3711H424.25V45.1211H413V33.8711H424.25V22.6211H413V11.3711ZM424.25 33.8711V45.1211H435.5V33.8711H424.25ZM435.5 33.8711H446.75V22.6211H435.5V33.8711ZM446.75 33.8711V45.1211H458V33.8711H446.75ZM458 33.8711H469.25V22.6211H458V33.8711Z" fill="#5AAF21" fill-opacity="0.5"/>
<path d="M413 56.3711V101.371H480.5V56.3711H413ZM413 56.3711H424.25V67.6211H435.5V56.3711H446.75V67.6211H458V56.3711H469.25V67.6211H480.5V78.8711H469.25V90.1211H480.5V101.371H469.25V90.1211H458V101.371H446.75V90.1211H435.5V101.371H424.25V90.1211H413V78.8711H424.25V67.6211H413V56.3711ZM424.25 78.8711V90.1211H435.5V78.8711H424.25ZM435.5 78.8711H446.75V67.6211H435.5V78.8711ZM446.75 78.8711V90.1211H458V78.8711H446.75ZM458 78.8711H469.25V67.6211H458V78.8711Z" fill="#5AAF21" fill-opacity="0.5"/>
<path d="M413 101.371V146.371H480.5V101.371H413ZM413 101.371H424.25V112.621H435.5V101.371H446.75V112.621H458V101.371H469.25V112.621H480.5V123.871H469.25V135.121H480.5V146.371H469.25V135.121H458V146.371H446.75V135.121H435.5V146.371H424.25V135.121H413V123.871H424.25V112.621H413V101.371ZM424.25 123.871V135.121H435.5V123.871H424.25ZM435.5 123.871H446.75V112.621H435.5V123.871ZM446.75 123.871V135.121H458V123.871H446.75ZM458 123.871H469.25V112.621H458V123.871Z" fill="#5AAF21" fill-opacity="0.5"/>
<path d="M413 146.371V191.371H480.5V146.371H413ZM413 146.371H424.25V157.621H435.5V146.371H446.75V157.621H458V146.371H469.25V157.621H480.5V168.871H469.25V180.121H480.5V191.371H469.25V180.121H458V191.371H446.75V180.121H435.5V191.371H424.25V180.121H413V168.871H424.25V157.621H413V146.371ZM424.25 168.871V180.121H435.5V168.871H424.25ZM435.5 168.871H446.75V157.621H435.5V168.871ZM446.75 168.871V180.121H458V168.871H446.75ZM458 168.871H469.25V157.621H458V168.871Z" fill="#5AAF21" fill-opacity="0.5"/>
<path d="M413 191.371V236.371H480.5V191.371H413ZM413 191.371H424.25V202.621H435.5V191.371H446.75V202.621H458V191.371H469.25V202.621H480.5V213.871H469.25V225.121H480.5V236.371H469.25V225.121H458V236.371H446.75V225.121H435.5V236.371H424.25V225.121H413V213.871H424.25V202.621H413V191.371ZM424.25 213.871V225.121H435.5V213.871H424.25ZM435.5 213.871H446.75V202.621H435.5V213.871ZM446.75 213.871V225.121H458V213.871H446.75ZM458 213.871H469.25V202.621H458V213.871Z" fill="#5AAF21" fill-opacity="0.5"/>
<path d="M413 236.371V281.371H480.5V236.371H413ZM413 236.371H424.25V247.621H435.5V236.371H446.75V247.621H458V236.371H469.25V247.621H480.5V258.871H469.25V270.121H480.5V281.371H469.25V270.121H458V281.371H446.75V270.121H435.5V281.371H424.25V270.121H413V258.871H424.25V247.621H413V236.371ZM424.25 258.871V270.121H435.5V258.871H424.25ZM435.5 258.871H446.75V247.621H435.5V258.871ZM446.75 258.871V270.121H458V258.871H446.75ZM458 258.871H469.25V247.621H458V258.871Z" fill="#5AAF21" fill-opacity="0.5"/>
<path d="M413 281.371V326.371H480.5V281.371H413ZM413 281.371H424.25V292.621H435.5V281.371H446.75V292.621H458V281.371H469.25V292.621H480.5V303.871H469.25V315.121H480.5V326.371H469.25V315.121H458V326.371H446.75V315.121H435.5V326.371H424.25V315.121H413V303.871H424.25V292.621H413V281.371ZM424.25 303.871V315.121H435.5V303.871H424.25ZM435.5 303.871H446.75V292.621H435.5V303.871ZM446.75 303.871V315.121H458V303.871H446.75ZM458 303.871H469.25V292.621H458V303.871Z" fill="#5AAF21" fill-opacity="0.5"/>
<path d="M480 11.3711V56.3711H547.5V11.3711H480ZM480 11.3711H491.25V22.6211H502.5V11.3711H513.75V22.6211H525V11.3711H536.25V22.6211H547.5V33.8711H536.25V45.1211H547.5V56.3711H536.25V45.1211H525V56.3711H513.75V45.1211H502.5V56.3711H491.25V45.1211H480V33.8711H491.25V22.6211H480V11.3711ZM491.25 33.8711V45.1211H502.5V33.8711H491.25ZM502.5 33.8711H513.75V22.6211H502.5V33.8711ZM513.75 33.8711V45.1211H525V33.8711H513.75ZM525 33.8711H536.25V22.6211H525V33.8711Z" fill="#5AAF21" fill-opacity="0.5"/>
<path d="M480 56.3711V101.371H547.5V56.3711H480ZM480 56.3711H491.25V67.6211H502.5V56.3711H513.75V67.6211H525V56.3711H536.25V67.6211H547.5V78.8711H536.25V90.1211H547.5V101.371H536.25V90.1211H525V101.371H513.75V90.1211H502.5V101.371H491.25V90.1211H480V78.8711H491.25V67.6211H480V56.3711ZM491.25 78.8711V90.1211H502.5V78.8711H491.25ZM502.5 78.8711H513.75V67.6211H502.5V78.8711ZM513.75 78.8711V90.1211H525V78.8711H513.75ZM525 78.8711H536.25V67.6211H525V78.8711Z" fill="#5AAF21" fill-opacity="0.5"/>
<path d="M480 101.371V146.371H547.5V101.371H480ZM480 101.371H491.25V112.621H502.5V101.371H513.75V112.621H525V101.371H536.25V112.621H547.5V123.871H536.25V135.121H547.5V146.371H536.25V135.121H525V146.371H513.75V135.121H502.5V146.371H491.25V135.121H480V123.871H491.25V112.621H480V101.371ZM491.25 123.871V135.121H502.5V123.871H491.25ZM502.5 123.871H513.75V112.621H502.5V123.871ZM513.75 123.871V135.121H525V123.871H513.75ZM525 123.871H536.25V112.621H525V123.871Z" fill="#5AAF21" fill-opacity="0.5"/>
<path d="M480 146.371V191.371H547.5V146.371H480ZM480 146.371H491.25V157.621H502.5V146.371H513.75V157.621H525V146.371H536.25V157.621H547.5V168.871H536.25V180.121H547.5V191.371H536.25V180.121H525V191.371H513.75V180.121H502.5V191.371H491.25V180.121H480V168.871H491.25V157.621H480V146.371ZM491.25 168.871V180.121H502.5V168.871H491.25ZM502.5 168.871H513.75V157.621H502.5V168.871ZM513.75 168.871V180.121H525V168.871H513.75ZM525 168.871H536.25V157.621H525V168.871Z" fill="#5AAF21" fill-opacity="0.5"/>
<path d="M480 191.371V236.371H547.5V191.371H480ZM480 191.371H491.25V202.621H502.5V191.371H513.75V202.621H525V191.371H536.25V202.621H547.5V213.871H536.25V225.121H547.5V236.371H536.25V225.121H525V236.371H513.75V225.121H502.5V236.371H491.25V225.121H480V213.871H491.25V202.621H480V191.371ZM491.25 213.871V225.121H502.5V213.871H491.25ZM502.5 213.871H513.75V202.621H502.5V213.871ZM513.75 213.871V225.121H525V213.871H513.75ZM525 213.871H536.25V202.621H525V213.871Z" fill="#5AAF21" fill-opacity="0.5"/>
<path d="M480 236.371V281.371H547.5V236.371H480ZM480 236.371H491.25V247.621H502.5V236.371H513.75V247.621H525V236.371H536.25V247.621H547.5V258.871H536.25V270.121H547.5V281.371H536.25V270.121H525V281.371H513.75V270.121H502.5V281.371H491.25V270.121H480V258.871H491.25V247.621H480V236.371ZM491.25 258.871V270.121H502.5V258.871H491.25ZM502.5 258.871H513.75V247.621H502.5V258.871ZM513.75 258.871V270.121H525V258.871H513.75ZM525 258.871H536.25V247.621H525V258.871Z" fill="#5AAF21" fill-opacity="0.5"/>
<path d="M480 281.371V326.371H547.5V281.371H480ZM480 281.371H491.25V292.621H502.5V281.371H513.75V292.621H525V281.371H536.25V292.621H547.5V303.871H536.25V315.121H547.5V326.371H536.25V315.121H525V326.371H513.75V315.121H502.5V326.371H491.25V315.121H480V303.871H491.25V292.621H480V281.371ZM491.25 303.871V315.121H502.5V303.871H491.25ZM502.5 303.871H513.75V292.621H502.5V303.871ZM513.75 303.871V315.121H525V303.871H513.75ZM525 303.871H536.25V292.621H525V303.871Z" fill="#5AAF21" fill-opacity="0.5"/>
<path d="M547 11.3711V56.3711H614.5V11.3711H547ZM547 11.3711H558.25V22.6211H569.5V11.3711H580.75V22.6211H592V11.3711H603.25V22.6211H614.5V33.8711H603.25V45.1211H614.5V56.3711H603.25V45.1211H592V56.3711H580.75V45.1211H569.5V56.3711H558.25V45.1211H547V33.8711H558.25V22.6211H547V11.3711ZM558.25 33.8711V45.1211H569.5V33.8711H558.25ZM569.5 33.8711H580.75V22.6211H569.5V33.8711ZM580.75 33.8711V45.1211H592V33.8711H580.75ZM592 33.8711H603.25V22.6211H592V33.8711Z" fill="#5AAF21" fill-opacity="0.5"/>
<path d="M547 56.3711V101.371H614.5V56.3711H547ZM547 56.3711H558.25V67.6211H569.5V56.3711H580.75V67.6211H592V56.3711H603.25V67.6211H614.5V78.8711H603.25V90.1211H614.5V101.371H603.25V90.1211H592V101.371H580.75V90.1211H569.5V101.371H558.25V90.1211H547V78.8711H558.25V67.6211H547V56.3711ZM558.25 78.8711V90.1211H569.5V78.8711H558.25ZM569.5 78.8711H580.75V67.6211H569.5V78.8711ZM580.75 78.8711V90.1211H592V78.8711H580.75ZM592 78.8711H603.25V67.6211H592V78.8711Z" fill="#5AAF21" fill-opacity="0.5"/>
<path d="M547 101.371V146.371H614.5V101.371H547ZM547 101.371H558.25V112.621H569.5V101.371H580.75V112.621H592V101.371H603.25V112.621H614.5V123.871H603.25V135.121H614.5V146.371H603.25V135.121H592V146.371H580.75V135.121H569.5V146.371H558.25V135.121H547V123.871H558.25V112.621H547V101.371ZM558.25 123.871V135.121H569.5V123.871H558.25ZM569.5 123.871H580.75V112.621H569.5V123.871ZM580.75 123.871V135.121H592V123.871H580.75ZM592 123.871H603.25V112.621H592V123.871Z" fill="#5AAF21" fill-opacity="0.5"/>
<path d="M547 146.371V191.371H614.5V146.371H547ZM547 146.371H558.25V157.621H569.5V146.371H580.75V157.621H592V146.371H603.25V157.621H614.5V168.871H603.25V180.121H614.5V191.371H603.25V180.121H592V191.371H580.75V180.121H569.5V191.371H558.25V180.121H547V168.871H558.25V157.621H547V146.371ZM558.25 168.871V180.121H569.5V168.871H558.25ZM569.5 168.871H580.75V157.621H569.5V168.871ZM580.75 168.871V180.121H592V168.871H580.75ZM592 168.871H603.25V157.621H592V168.871Z" fill="#5AAF21" fill-opacity="0.5"/>
<path d="M547 191.371V236.371H614.5V191.371H547ZM547 191.371H558.25V202.621H569.5V191.371H580.75V202.621H592V191.371H603.25V202.621H614.5V213.871H603.25V225.121H614.5V236.371H603.25V225.121H592V236.371H580.75V225.121H569.5V236.371H558.25V225.121H547V213.871H558.25V202.621H547V191.371ZM558.25 213.871V225.121H569.5V213.871H558.25ZM569.5 213.871H580.75V202.621H569.5V213.871ZM580.75 213.871V225.121H592V213.871H580.75ZM592 213.871H603.25V202.621H592V213.871Z" fill="#5AAF21" fill-opacity="0.5"/>
<path d="M547 236.371V281.371H614.5V236.371H547ZM547 236.371H558.25V247.621H569.5V236.371H580.75V247.621H592V236.371H603.25V247.621H614.5V258.871H603.25V270.121H614.5V281.371H603.25V270.121H592V281.371H580.75V270.121H569.5V281.371H558.25V270.121H547V258.871H558.25V247.621H547V236.371ZM558.25 258.871V270.121H569.5V258.871H558.25ZM569.5 258.871H580.75V247.621H569.5V258.871ZM580.75 258.871V270.121H592V258.871H580.75ZM592 258.871H603.25V247.621H592V258.871Z" fill="#5AAF21" fill-opacity="0.5"/>
<path d="M547 281.371V326.371H614.5V281.371H547ZM547 281.371H558.25V292.621H569.5V281.371H580.75V292.621H592V281.371H603.25V292.621H614.5V303.871H603.25V315.121H614.5V326.371H603.25V315.121H592V326.371H580.75V315.121H569.5V326.371H558.25V315.121H547V303.871H558.25V292.621H547V281.371ZM558.25 303.871V315.121H569.5V303.871H558.25ZM569.5 303.871H580.75V292.621H569.5V303.871ZM580.75 303.871V315.121H592V303.871H580.75ZM592 303.871H603.25V292.621H592V303.871Z" fill="#5AAF21" fill-opacity="0.5"/>
<path d="M614 11.3711V56.3711H681.5V11.3711H614ZM614 11.3711H625.25V22.6211H636.5V11.3711H647.75V22.6211H659V11.3711H670.25V22.6211H681.5V33.8711H670.25V45.1211H681.5V56.3711H670.25V45.1211H659V56.3711H647.75V45.1211H636.5V56.3711H625.25V45.1211H614V33.8711H625.25V22.6211H614V11.3711ZM625.25 33.8711V45.1211H636.5V33.8711H625.25ZM636.5 33.8711H647.75V22.6211H636.5V33.8711ZM647.75 33.8711V45.1211H659V33.8711H647.75ZM659 33.8711H670.25V22.6211H659V33.8711Z" fill="#5AAF21" fill-opacity="0.5"/>
<path d="M614 56.3711V101.371H681.5V56.3711H614ZM614 56.3711H625.25V67.6211H636.5V56.3711H647.75V67.6211H659V56.3711H670.25V67.6211H681.5V78.8711H670.25V90.1211H681.5V101.371H670.25V90.1211H659V101.371H647.75V90.1211H636.5V101.371H625.25V90.1211H614V78.8711H625.25V67.6211H614V56.3711ZM625.25 78.8711V90.1211H636.5V78.8711H625.25ZM636.5 78.8711H647.75V67.6211H636.5V78.8711ZM647.75 78.8711V90.1211H659V78.8711H647.75ZM659 78.8711H670.25V67.6211H659V78.8711Z" fill="#5AAF21" fill-opacity="0.5"/>
<path d="M614 101.371V146.371H681.5V101.371H614ZM614 101.371H625.25V112.621H636.5V101.371H647.75V112.621H659V101.371H670.25V112.621H681.5V123.871H670.25V135.121H681.5V146.371H670.25V135.121H659V146.371H647.75V135.121H636.5V146.371H625.25V135.121H614V123.871H625.25V112.621H614V101.371ZM625.25 123.871V135.121H636.5V123.871H625.25ZM636.5 123.871H647.75V112.621H636.5V123.871ZM647.75 123.871V135.121H659V123.871H647.75ZM659 123.871H670.25V112.621H659V123.871Z" fill="#5AAF21" fill-opacity="0.5"/>
<path d="M614 146.371V191.371H681.5V146.371H614ZM614 146.371H625.25V157.621H636.5V146.371H647.75V157.621H659V146.371H670.25V157.621H681.5V168.871H670.25V180.121H681.5V191.371H670.25V180.121H659V191.371H647.75V180.121H636.5V191.371H625.25V180.121H614V168.871H625.25V157.621H614V146.371ZM625.25 168.871V180.121H636.5V168.871H625.25ZM636.5 168.871H647.75V157.621H636.5V168.871ZM647.75 168.871V180.121H659V168.871H647.75ZM659 168.871H670.25V157.621H659V168.871Z" fill="#5AAF21" fill-opacity="0.5"/>
<path d="M614 191.371V236.371H681.5V191.371H614ZM614 191.371H625.25V202.621H636.5V191.371H647.75V202.621H659V191.371H670.25V202.621H681.5V213.871H670.25V225.121H681.5V236.371H670.25V225.121H659V236.371H647.75V225.121H636.5V236.371H625.25V225.121H614V213.871H625.25V202.621H614V191.371ZM625.25 213.871V225.121H636.5V213.871H625.25ZM636.5 213.871H647.75V202.621H636.5V213.871ZM647.75 213.871V225.121H659V213.871H647.75ZM659 213.871H670.25V202.621H659V213.871Z" fill="#5AAF21" fill-opacity="0.5"/>
<path d="M614 236.371V281.371H681.5V236.371H614ZM614 236.371H625.25V247.621H636.5V236.371H647.75V247.621H659V236.371H670.25V247.621H681.5V258.871H670.25V270.121H681.5V281.371H670.25V270.121H659V281.371H647.75V270.121H636.5V281.371H625.25V270.121H614V258.871H625.25V247.621H614V236.371ZM625.25 258.871V270.121H636.5V258.871H625.25ZM636.5 258.871H647.75V247.621H636.5V258.871ZM647.75 258.871V270.121H659V258.871H647.75ZM659 258.871H670.25V247.621H659V258.871Z" fill="#5AAF21" fill-opacity="0.5"/>
<path d="M614 281.371V326.371H681.5V281.371H614ZM614 281.371H625.25V292.621H636.5V281.371H647.75V292.621H659V281.371H670.25V292.621H681.5V303.871H670.25V315.121H681.5V326.371H670.25V315.121H659V326.371H647.75V315.121H636.5V326.371H625.25V315.121H614V303.871H625.25V292.621H614V281.371ZM625.25 303.871V315.121H636.5V303.871H625.25ZM636.5 303.871H647.75V292.621H636.5V303.871ZM647.75 303.871V315.121H659V303.871H647.75ZM659 303.871H670.25V292.621H659V303.871Z" fill="#5AAF21" fill-opacity="0.5"/>
<path d="M636 56.3711L633 53.3711L645 41.3711L633 29.3711L636 26.3711L648 38.3711L660 26.3711L663 29.3711L651 41.3711L663 53.3711L660 56.3711L648 44.3711L636 56.3711Z" fill="#357C05"/>
<path d="M616.5 52.7746V34.9676H590.5M616.5 52.7746V58.3711H584V34.9676H590.5M616.5 52.7746H621V29.3711H590.5V34.9676" stroke="#357C05" stroke-width="3"/>
<path d="M572 56.3711V50.3711H536V56.3711H572Z" fill="#357C05"/>
</svg>
