<svg width="1285" height="750" viewBox="0 0 1285 750" fill="none" xmlns="http://www.w3.org/2000/svg">
<path d="M27 0V747" stroke="#5AAF21" stroke-opacity="0.5" stroke-width="3"/>
<path d="M77 0V747" stroke="#5AAF21" stroke-opacity="0.5" stroke-width="3"/>
<path d="M127 0V747" stroke="#5AAF21" stroke-opacity="0.5" stroke-width="3"/>
<path d="M177 0V747" stroke="#5AAF21" stroke-opacity="0.5" stroke-width="3"/>
<path d="M227 0V747" stroke="#5AAF21" stroke-opacity="0.5" stroke-width="3"/>
<path d="M277 0V747" stroke="#5AAF21" stroke-opacity="0.5" stroke-width="3"/>
<path d="M327 0V747" stroke="#5AAF21" stroke-opacity="0.5" stroke-width="3"/>
<path d="M377 0V747" stroke="#5AAF21" stroke-opacity="0.5" stroke-width="3"/>
<path d="M427 0V747" stroke="#5AAF21" stroke-opacity="0.5" stroke-width="3"/>
<path d="M477 0V747" stroke="#5AAF21" stroke-opacity="0.5" stroke-width="3"/>
<path d="M527 0V747" stroke="#5AAF21" stroke-opacity="0.5" stroke-width="3"/>
<path d="M577 0V747" stroke="#5AAF21" stroke-opacity="0.5" stroke-width="3"/>
<path d="M627 0V747" stroke="#5AAF21" stroke-opacity="0.5" stroke-width="3"/>
<path d="M677 0V747" stroke="#5AAF21" stroke-opacity="0.5" stroke-width="3"/>
<path d="M727 0V747" stroke="#5AAF21" stroke-opacity="0.5" stroke-width="3"/>
<path d="M777 0V747" stroke="#5AAF21" stroke-opacity="0.5" stroke-width="3"/>
<path d="M802 0V747" stroke="#5AAF21" stroke-opacity="0.5" stroke-width="3"/>
<path d="M852 0V747" stroke="#5AAF21" stroke-opacity="0.5" stroke-width="3"/>
<path d="M902 0V747" stroke="#5AAF21" stroke-opacity="0.5" stroke-width="3"/>
<path d="M952 0V747" stroke="#5AAF21" stroke-opacity="0.5" stroke-width="3"/>
<path d="M1002 0V747" stroke="#5AAF21" stroke-opacity="0.5" stroke-width="3"/>
<path d="M1052 0V747" stroke="#5AAF21" stroke-opacity="0.5" stroke-width="3"/>
<path d="M1127 0V747" stroke="#5AAF21" stroke-opacity="0.5" stroke-width="3"/>
<path d="M1152 0V747" stroke="#5AAF21" stroke-opacity="0.5" stroke-width="3"/>
<path d="M1227 0V747" stroke="#5AAF21" stroke-opacity="0.5" stroke-width="3"/>
<path d="M1277 0V747" stroke="#5AAF21" stroke-opacity="0.5" stroke-width="3"/>
<path d="M52 0V747" stroke="#5AAF21" stroke-opacity="0.5" stroke-width="3"/>
<path d="M102 0V747" stroke="#5AAF21" stroke-opacity="0.5" stroke-width="3"/>
<path d="M152 0V747" stroke="#5AAF21" stroke-opacity="0.5" stroke-width="3"/>
<path d="M202 0V747" stroke="#5AAF21" stroke-opacity="0.5" stroke-width="3"/>
<path d="M252 0V747" stroke="#5AAF21" stroke-opacity="0.5" stroke-width="3"/>
<path d="M302 0V747" stroke="#5AAF21" stroke-opacity="0.5" stroke-width="3"/>
<path d="M352 0V747" stroke="#5AAF21" stroke-opacity="0.5" stroke-width="3"/>
<path d="M402 0V747" stroke="#5AAF21" stroke-opacity="0.5" stroke-width="3"/>
<path d="M452 0V747" stroke="#5AAF21" stroke-opacity="0.5" stroke-width="3"/>
<path d="M502 0V747" stroke="#5AAF21" stroke-opacity="0.5" stroke-width="3"/>
<path d="M552 0V747" stroke="#5AAF21" stroke-opacity="0.5" stroke-width="3"/>
<path d="M602 0V747" stroke="#5AAF21" stroke-opacity="0.5" stroke-width="3"/>
<path d="M652 0V747" stroke="#5AAF21" stroke-opacity="0.5" stroke-width="3"/>
<path d="M702 0V747" stroke="#5AAF21" stroke-opacity="0.5" stroke-width="3"/>
<path d="M752 0V747" stroke="#5AAF21" stroke-opacity="0.5" stroke-width="3"/>
<path d="M1102 0V747" stroke="#5AAF21" stroke-opacity="0.5" stroke-width="3"/>
<path d="M827 0V747" stroke="#5AAF21" stroke-opacity="0.5" stroke-width="3"/>
<path d="M877 0V747" stroke="#5AAF21" stroke-opacity="0.5" stroke-width="3"/>
<path d="M927 0V747" stroke="#5AAF21" stroke-opacity="0.5" stroke-width="3"/>
<path d="M977 0V747" stroke="#5AAF21" stroke-opacity="0.5" stroke-width="3"/>
<path d="M1027 0V747" stroke="#5AAF21" stroke-opacity="0.5" stroke-width="3"/>
<path d="M1077 0V747" stroke="#5AAF21" stroke-opacity="0.5" stroke-width="3"/>
<path d="M1202 0V747" stroke="#5AAF21" stroke-opacity="0.5" stroke-width="3"/>
<path d="M1177 0V747" stroke="#5AAF21" stroke-opacity="0.5" stroke-width="3"/>
<path d="M1252 0V747" stroke="#5AAF21" stroke-opacity="0.5" stroke-width="3"/>
<path d="M4 21H1284.5" stroke="#5AAF21" stroke-opacity="0.5" stroke-width="3"/>
<path d="M2 46H1282.5" stroke="#5AAF21" stroke-opacity="0.5" stroke-width="3"/>
<path d="M2 71H1282.5" stroke="#5AAF21" stroke-opacity="0.5" stroke-width="3"/>
<path d="M2 96H1282.5" stroke="#5AAF21" stroke-opacity="0.5" stroke-width="3"/>
<path d="M2 121H1282.5" stroke="#5AAF21" stroke-opacity="0.5" stroke-width="3"/>
<path d="M2 146H1282.5" stroke="#5AAF21" stroke-opacity="0.5" stroke-width="3"/>
<path d="M2 171H1282.5" stroke="#5AAF21" stroke-opacity="0.5" stroke-width="3"/>
<path d="M2 196H1282.5" stroke="#5AAF21" stroke-opacity="0.5" stroke-width="3"/>
<path d="M2 221H1282.5" stroke="#5AAF21" stroke-opacity="0.5" stroke-width="3"/>
<path d="M2 246H1282.5" stroke="#5AAF21" stroke-opacity="0.5" stroke-width="3"/>
<path d="M2 271H1282.5" stroke="#5AAF21" stroke-opacity="0.5" stroke-width="3"/>
<path d="M2 296H1282.5" stroke="#5AAF21" stroke-opacity="0.5" stroke-width="3"/>
<path d="M2 321H1282.5" stroke="#5AAF21" stroke-opacity="0.5" stroke-width="3"/>
<path d="M2 346H1282.5" stroke="#5AAF21" stroke-opacity="0.5" stroke-width="3"/>
<path d="M2 371H1282.5" stroke="#5AAF21" stroke-opacity="0.5" stroke-width="3"/>
<path d="M2 396H1282.5" stroke="#5AAF21" stroke-opacity="0.5" stroke-width="3"/>
<path d="M2 421H1282.5" stroke="#5AAF21" stroke-opacity="0.5" stroke-width="3"/>
<path d="M2 446H1282.5" stroke="#5AAF21" stroke-opacity="0.5" stroke-width="3"/>
<path d="M2 471H1282.5" stroke="#5AAF21" stroke-opacity="0.5" stroke-width="3"/>
<path d="M2 496H1282.5" stroke="#5AAF21" stroke-opacity="0.5" stroke-width="3"/>
<path d="M2 521H1282.5" stroke="#5AAF21" stroke-opacity="0.5" stroke-width="3"/>
<path d="M2 546H1282.5" stroke="#5AAF21" stroke-opacity="0.5" stroke-width="3"/>
<path d="M2 571H1282.5" stroke="#5AAF21" stroke-opacity="0.5" stroke-width="3"/>
<path d="M2 596H1282.5" stroke="#5AAF21" stroke-opacity="0.5" stroke-width="3"/>
<path d="M2 621H1282.5" stroke="#5AAF21" stroke-opacity="0.5" stroke-width="3"/>
<path d="M2 646H1282.5" stroke="#5AAF21" stroke-opacity="0.5" stroke-width="3"/>
<path d="M2 671H1282.5" stroke="#5AAF21" stroke-opacity="0.5" stroke-width="3"/>
<path d="M2 696H1282.5" stroke="#5AAF21" stroke-opacity="0.5" stroke-width="3"/>
<path d="M2 721H1282.5" stroke="#5AAF21" stroke-opacity="0.5" stroke-width="3"/>
<path d="M2 3V750" stroke="#5AAF21" stroke-opacity="0.5" stroke-width="3"/>
<path d="M2 746H1282.5" stroke="#5AAF21" stroke-opacity="0.5" stroke-width="3"/>
</svg>
