<svg width="1282" height="1479" viewBox="0 0 1282 1479" fill="none" xmlns="http://www.w3.org/2000/svg">
<path d="M24.5 0.5V1478.5" stroke="#5AAF21" stroke-opacity="0.5" stroke-width="3"/>
<path d="M1.5 0V1478" stroke="#5AAF21" stroke-opacity="0.5" stroke-width="3"/>
<path d="M74.5 0.5V1478.5" stroke="#5AAF21" stroke-opacity="0.5" stroke-width="3"/>
<path d="M124.5 0.5V1478.5" stroke="#5AAF21" stroke-opacity="0.5" stroke-width="3"/>
<path d="M174.5 0.5V1478.5" stroke="#5AAF21" stroke-opacity="0.5" stroke-width="3"/>
<path d="M224.5 0.5V1478.5" stroke="#5AAF21" stroke-opacity="0.5" stroke-width="3"/>
<path d="M274.5 0.5V1478.5" stroke="#5AAF21" stroke-opacity="0.5" stroke-width="3"/>
<path d="M324.5 0.5V1478.5" stroke="#5AAF21" stroke-opacity="0.5" stroke-width="3"/>
<path d="M374.5 0.5V1478.5" stroke="#5AAF21" stroke-opacity="0.5" stroke-width="3"/>
<path d="M424.5 0.5V1478.5" stroke="#5AAF21" stroke-opacity="0.5" stroke-width="3"/>
<path d="M474.5 0.5V1478.5" stroke="#5AAF21" stroke-opacity="0.5" stroke-width="3"/>
<path d="M524.5 0.5V1478.5" stroke="#5AAF21" stroke-opacity="0.5" stroke-width="3"/>
<path d="M574.5 0.5V1478.5" stroke="#5AAF21" stroke-opacity="0.5" stroke-width="3"/>
<path d="M624.5 0.5L624.5 1478.5" stroke="#5AAF21" stroke-opacity="0.5" stroke-width="3"/>
<path d="M674.5 0.5V1478.5" stroke="#5AAF21" stroke-opacity="0.5" stroke-width="3"/>
<path d="M724.5 0.5L724.5 1478.5" stroke="#5AAF21" stroke-opacity="0.5" stroke-width="3"/>
<path d="M774.5 0.5V1478.5" stroke="#5AAF21" stroke-opacity="0.5" stroke-width="3"/>
<path d="M799.5 0.5V1478.5" stroke="#5AAF21" stroke-opacity="0.5" stroke-width="3"/>
<path d="M849.5 0.5V1478.5" stroke="#5AAF21" stroke-opacity="0.5" stroke-width="3"/>
<path d="M899.5 0.5V1478.5" stroke="#5AAF21" stroke-opacity="0.5" stroke-width="3"/>
<path d="M949.5 0.5V1478.5" stroke="#5AAF21" stroke-opacity="0.5" stroke-width="3"/>
<path d="M999.5 0.5V1478.5" stroke="#5AAF21" stroke-opacity="0.5" stroke-width="3"/>
<path d="M1049.5 0.5L1049.5 1478.5" stroke="#5AAF21" stroke-opacity="0.5" stroke-width="3"/>
<path d="M1124.5 0.5V1478.5" stroke="#5AAF21" stroke-opacity="0.5" stroke-width="3"/>
<path d="M1149.5 0.5V1478.5" stroke="#5AAF21" stroke-opacity="0.5" stroke-width="3"/>
<path d="M1224.5 0.5V1478.5" stroke="#5AAF21" stroke-opacity="0.5" stroke-width="3"/>
<path d="M1274.5 0.5V1478.5" stroke="#5AAF21" stroke-opacity="0.5" stroke-width="3"/>
<path d="M49.5 0.5V1478.5" stroke="#5AAF21" stroke-opacity="0.5" stroke-width="3"/>
<path d="M99.5 0.5V1478.5" stroke="#5AAF21" stroke-opacity="0.5" stroke-width="3"/>
<path d="M149.5 0.5V1478.5" stroke="#5AAF21" stroke-opacity="0.5" stroke-width="3"/>
<path d="M199.5 0.5V1478.5" stroke="#5AAF21" stroke-opacity="0.5" stroke-width="3"/>
<path d="M249.5 0.5V1478.5" stroke="#5AAF21" stroke-opacity="0.5" stroke-width="3"/>
<path d="M299.5 0.5V1478.5" stroke="#5AAF21" stroke-opacity="0.5" stroke-width="3"/>
<path d="M349.5 0.5V1478.5" stroke="#5AAF21" stroke-opacity="0.5" stroke-width="3"/>
<path d="M399.5 0.5V1478.5" stroke="#5AAF21" stroke-opacity="0.5" stroke-width="3"/>
<path d="M449.5 0.5L449.5 1478.5" stroke="#5AAF21" stroke-opacity="0.5" stroke-width="3"/>
<path d="M499.5 0.5V1478.5" stroke="#5AAF21" stroke-opacity="0.5" stroke-width="3"/>
<path d="M549.5 0.5V1478.5" stroke="#5AAF21" stroke-opacity="0.5" stroke-width="3"/>
<path d="M599.5 0.5V1478.5" stroke="#5AAF21" stroke-opacity="0.5" stroke-width="3"/>
<path d="M649.5 0.5V1478.5" stroke="#5AAF21" stroke-opacity="0.5" stroke-width="3"/>
<path d="M699.5 0.5V1478.5" stroke="#5AAF21" stroke-opacity="0.5" stroke-width="3"/>
<path d="M749.5 0.5V1478.5" stroke="#5AAF21" stroke-opacity="0.5" stroke-width="3"/>
<path d="M1099.5 0.5V1478.5" stroke="#5AAF21" stroke-opacity="0.5" stroke-width="3"/>
<path d="M824.5 0.5V1478.5" stroke="#5AAF21" stroke-opacity="0.5" stroke-width="3"/>
<path d="M874.5 0.5V1478.5" stroke="#5AAF21" stroke-opacity="0.5" stroke-width="3"/>
<path d="M924.5 0.5V1478.5" stroke="#5AAF21" stroke-opacity="0.5" stroke-width="3"/>
<path d="M974.5 0.5V1478.5" stroke="#5AAF21" stroke-opacity="0.5" stroke-width="3"/>
<path d="M1024.5 0.5L1024.5 1478.5" stroke="#5AAF21" stroke-opacity="0.5" stroke-width="3"/>
<path d="M1074.5 0.5L1074.5 1478.5" stroke="#5AAF21" stroke-opacity="0.5" stroke-width="3"/>
<path d="M1199.5 0.5V1478.5" stroke="#5AAF21" stroke-opacity="0.5" stroke-width="3"/>
<path d="M1174.5 0.5V1478.5" stroke="#5AAF21" stroke-opacity="0.5" stroke-width="3"/>
<path d="M1249.5 0.5V1478.5" stroke="#5AAF21" stroke-opacity="0.5" stroke-width="3"/>
<path d="M0 27H1279.5" stroke="#5AAF21" stroke-opacity="0.5" stroke-width="3"/>
<path d="M0 2H1279.5" stroke="#5AAF21" stroke-opacity="0.5" stroke-width="3"/>
<path d="M0 52H1279.5" stroke="#5AAF21" stroke-opacity="0.5" stroke-width="3"/>
<path d="M0 77H1279.5" stroke="#5AAF21" stroke-opacity="0.5" stroke-width="3"/>
<path d="M0 102H1279.5" stroke="#5AAF21" stroke-opacity="0.5" stroke-width="3"/>
<path d="M0 127H1279.5" stroke="#5AAF21" stroke-opacity="0.5" stroke-width="3"/>
<path d="M0 177H1279.5" stroke="#5AAF21" stroke-opacity="0.5" stroke-width="3"/>
<path d="M2 152H1281.5" stroke="#5AAF21" stroke-opacity="0.5" stroke-width="3"/>
<path d="M0 202H1279.5" stroke="#5AAF21" stroke-opacity="0.5" stroke-width="3"/>
<path d="M0 227H1279.5" stroke="#5AAF21" stroke-opacity="0.5" stroke-width="3"/>
<path d="M0 252H1279.5" stroke="#5AAF21" stroke-opacity="0.5" stroke-width="3"/>
<path d="M0 277H1279.5" stroke="#5AAF21" stroke-opacity="0.5" stroke-width="3"/>
<path d="M0 302H1279.5" stroke="#5AAF21" stroke-opacity="0.5" stroke-width="3"/>
<path d="M0 327H1279.5" stroke="#5AAF21" stroke-opacity="0.5" stroke-width="3"/>
<path d="M0 352H1279.5" stroke="#5AAF21" stroke-opacity="0.5" stroke-width="3"/>
<path d="M0 377H1279.5" stroke="#5AAF21" stroke-opacity="0.5" stroke-width="3"/>
<path d="M0 402H1279.5" stroke="#5AAF21" stroke-opacity="0.5" stroke-width="3"/>
<path d="M0 427H1279.5" stroke="#5AAF21" stroke-opacity="0.5" stroke-width="3"/>
<path d="M0 452H1279.5" stroke="#5AAF21" stroke-opacity="0.5" stroke-width="3"/>
<path d="M0 477H1279.5" stroke="#5AAF21" stroke-opacity="0.5" stroke-width="3"/>
<path d="M0 502L1279.5 502" stroke="#5AAF21" stroke-opacity="0.5" stroke-width="3"/>
<path d="M0 527H1279.5" stroke="#5AAF21" stroke-opacity="0.5" stroke-width="3"/>
<path d="M0 552H1279.5" stroke="#5AAF21" stroke-opacity="0.5" stroke-width="3"/>
<path d="M0 577L1279.5 577" stroke="#5AAF21" stroke-opacity="0.5" stroke-width="3"/>
<path d="M0 602L1279.5 602" stroke="#5AAF21" stroke-opacity="0.5" stroke-width="3"/>
<path d="M0 627L1279.5 627" stroke="#5AAF21" stroke-opacity="0.5" stroke-width="3"/>
<path d="M0 652L1279.5 652" stroke="#5AAF21" stroke-opacity="0.5" stroke-width="3"/>
<path d="M0 677L1279.5 677" stroke="#5AAF21" stroke-opacity="0.5" stroke-width="3"/>
<path d="M0 702L1279.5 702" stroke="#5AAF21" stroke-opacity="0.5" stroke-width="3"/>
<path d="M0 727L1279.5 727" stroke="#5AAF21" stroke-opacity="0.5" stroke-width="3"/>
<path d="M0 752L1279.5 752" stroke="#5AAF21" stroke-opacity="0.5" stroke-width="3"/>
<path d="M0 777L1279.5 777" stroke="#5AAF21" stroke-opacity="0.5" stroke-width="3"/>
<path d="M0 802L1279.5 802" stroke="#5AAF21" stroke-opacity="0.5" stroke-width="3"/>
<path d="M0 827L1279.5 827" stroke="#5AAF21" stroke-opacity="0.5" stroke-width="3"/>
<path d="M0 852L1279.5 852" stroke="#5AAF21" stroke-opacity="0.5" stroke-width="3"/>
<path d="M0 877L1279.5 877" stroke="#5AAF21" stroke-opacity="0.5" stroke-width="3"/>
<path d="M0 902L1279.5 902" stroke="#5AAF21" stroke-opacity="0.5" stroke-width="3"/>
<path d="M0 927L1279.5 927" stroke="#5AAF21" stroke-opacity="0.5" stroke-width="3"/>
<path d="M0 952L1279.5 952" stroke="#5AAF21" stroke-opacity="0.5" stroke-width="3"/>
<path d="M0 977L1279.5 977" stroke="#5AAF21" stroke-opacity="0.5" stroke-width="3"/>
<path d="M0 1002L1279.5 1002" stroke="#5AAF21" stroke-opacity="0.5" stroke-width="3"/>
<path d="M0 1027L1279.5 1027" stroke="#5AAF21" stroke-opacity="0.5" stroke-width="3"/>
<path d="M0 1052L1279.5 1052" stroke="#5AAF21" stroke-opacity="0.5" stroke-width="3"/>
<path d="M0 1077L1279.5 1077" stroke="#5AAF21" stroke-opacity="0.5" stroke-width="3"/>
<path d="M0 1102L1279.5 1102" stroke="#5AAF21" stroke-opacity="0.5" stroke-width="3"/>
<path d="M0 1127L1279.5 1127" stroke="#5AAF21" stroke-opacity="0.5" stroke-width="3"/>
<path d="M0 1152L1279.5 1152" stroke="#5AAF21" stroke-opacity="0.5" stroke-width="3"/>
<path d="M0 1177L1279.5 1177" stroke="#5AAF21" stroke-opacity="0.5" stroke-width="3"/>
<path d="M0 1202L1279.5 1202" stroke="#5AAF21" stroke-opacity="0.5" stroke-width="3"/>
<path d="M0 1227L1279.5 1227" stroke="#5AAF21" stroke-opacity="0.5" stroke-width="3"/>
<path d="M0 1252L1279.5 1252" stroke="#5AAF21" stroke-opacity="0.5" stroke-width="3"/>
<path d="M0 1277L1279.5 1277" stroke="#5AAF21" stroke-opacity="0.5" stroke-width="3"/>
<path d="M0 1302L1279.5 1302" stroke="#5AAF21" stroke-opacity="0.5" stroke-width="3"/>
<path d="M0 1327L1279.5 1327" stroke="#5AAF21" stroke-opacity="0.5" stroke-width="3"/>
<path d="M0 1352L1279.5 1352" stroke="#5AAF21" stroke-opacity="0.5" stroke-width="3"/>
<path d="M0 1377L1279.5 1377" stroke="#5AAF21" stroke-opacity="0.5" stroke-width="3"/>
<path d="M0 1402L1279.5 1402" stroke="#5AAF21" stroke-opacity="0.5" stroke-width="3"/>
<path d="M0 1427L1279.5 1427" stroke="#5AAF21" stroke-opacity="0.5" stroke-width="3"/>
<path d="M0 1452L1279.5 1452" stroke="#5AAF21" stroke-opacity="0.5" stroke-width="3"/>
<path d="M0 1477L1279.5 1477" stroke="#5AAF21" stroke-opacity="0.5" stroke-width="3"/>
</svg>
