<svg width="937" height="420" viewBox="0 0 937 420" fill="none" xmlns="http://www.w3.org/2000/svg">
<rect x="5.48571" y="5.48571" width="925.989" height="408.137" fill="#D9D9D9" stroke="#5AAF21" stroke-width="10.9714"/>
<mask id="mask0_18_2829" style="mask-type:alpha" maskUnits="userSpaceOnUse" x="0" y="10" width="933" height="406">
<rect x="0.480469" y="10.4326" width="931.96" height="404.882" fill="#D9D9D9"/>
</mask>
<g mask="url(#mask0_18_2829)">
<path d="M667.402 336.718V293.245H600.263V336.718H667.402ZM667.402 336.718H656.212V325.85H645.022V336.718H633.832V325.85H622.642V336.718H611.453V325.85H600.263V314.982H611.453V304.113H600.263V293.245H611.453V304.113H622.642V293.245H633.832V304.113H645.022V293.245H656.212V304.113H667.402V314.982H656.212V325.85H667.402V336.718ZM656.212 314.982V304.113H645.022V314.982H656.212ZM645.022 314.982H633.832V325.85H645.022V314.982ZM633.832 314.982V304.113H622.642V314.982H633.832ZM622.642 314.982H611.453V325.85H622.642V314.982Z" fill="#5AAF21" fill-opacity="0.5"/>
<path d="M667.402 293.246V249.773H600.263V293.246H667.402ZM667.402 293.246H656.212V282.377H645.022V293.246H633.832V282.377H622.642V293.246H611.453V282.377H600.263V271.509H611.453V260.641H600.263V249.773H611.453V260.641H622.642V249.773H633.832V260.641H645.022V249.773H656.212V260.641H667.402V271.509H656.212V282.377H667.402V293.246ZM656.212 271.509V260.641H645.022V271.509H656.212ZM645.022 271.509H633.832V282.377H645.022V271.509ZM633.832 271.509V260.641H622.642V271.509H633.832ZM622.642 271.509H611.453V282.377H622.642V271.509Z" fill="#5AAF21" fill-opacity="0.5"/>
<path d="M667.402 249.773V206.3H600.263V249.773H667.402ZM667.402 249.773H656.212V238.905H645.022V249.773H633.832V238.905H622.642V249.773H611.453V238.905H600.263V228.037H611.453V217.169H600.263V206.3H611.453V217.169H622.642V206.3H633.832V217.169H645.022V206.3H656.212V217.169H667.402V228.037H656.212V238.905H667.402V249.773ZM656.212 228.037V217.169H645.022V228.037H656.212ZM645.022 228.037H633.832V238.905H645.022V228.037ZM633.832 228.037V217.169H622.642V228.037H633.832ZM622.642 228.037H611.453V238.905H622.642V228.037Z" fill="#5AAF21" fill-opacity="0.5"/>
<path d="M667.402 206.301V162.828H600.263V206.301H667.402ZM667.402 206.301H656.212V195.432H645.022V206.301H633.832V195.432H622.642V206.301H611.453V195.432H600.263V184.564H611.453V173.696H600.263V162.828H611.453V173.696H622.642V162.828H633.832V173.696H645.022V162.828H656.212V173.696H667.402V184.564H656.212V195.432H667.402V206.301ZM656.212 184.564V173.696H645.022V184.564H656.212ZM645.022 184.564H633.832V195.432H645.022V184.564ZM633.832 184.564V173.696H622.642V184.564H633.832ZM622.642 184.564H611.453V195.432H622.642V184.564Z" fill="#5AAF21" fill-opacity="0.5"/>
<path d="M667.402 162.828V119.356H600.263V162.828H667.402ZM667.402 162.828H656.212V151.96H645.022V162.828H633.832V151.96H622.642V162.828H611.453V151.96H600.263V141.092H611.453V130.224H600.263V119.356H611.453V130.224H622.642V119.356H633.832V130.224H645.022V119.356H656.212V130.224H667.402V141.092H656.212V151.96H667.402V162.828ZM656.212 141.092V130.224H645.022V141.092H656.212ZM645.022 141.092H633.832V151.96H645.022V141.092ZM633.832 141.092V130.224H622.642V141.092H633.832ZM622.642 141.092H611.453V151.96H622.642V141.092Z" fill="#5AAF21" fill-opacity="0.5"/>
<path d="M667.402 119.356V75.8835H600.263V119.356L667.402 119.356ZM667.402 119.356H656.212V108.488H645.022V119.356H633.832V108.488H622.642V119.356H611.453V108.488H600.263V97.6197H611.453V86.7516H600.263V75.8835H611.453V86.7516H622.642V75.8835H633.832V86.7516H645.022V75.8835H656.212V86.7516H667.402V97.6197H656.212V108.488H667.402V119.356ZM656.212 97.6197V86.7516H645.022V97.6197H656.212ZM645.022 97.6197H633.832V108.488H645.022V97.6197ZM633.832 97.6197V86.7516H622.642V97.6197H633.832ZM622.642 97.6197H611.453V108.488H622.642V97.6197Z" fill="#5AAF21" fill-opacity="0.5"/>
<path d="M667.402 75.8828V32.4103L600.263 32.4103V75.8828L667.402 75.8828ZM667.402 75.8828H656.212V65.0147H645.022V75.8828H633.832V65.0147H622.642V75.8828H611.453V65.0147H600.263V54.1466H611.453V43.2785H600.263V32.4103H611.453V43.2785H622.642V32.4103H633.832V43.2785L645.022 43.2785V32.4103H656.212V43.2785H667.402V54.1466H656.212V65.0147H667.402V75.8828ZM656.212 54.1466V43.2785H645.022V54.1466H656.212ZM645.022 54.1466H633.832V65.0147H645.022V54.1466ZM633.832 54.1466V43.2785H622.642V54.1466H633.832ZM622.642 54.1466L611.453 54.1466V65.0147H622.642V54.1466Z" fill="#5AAF21" fill-opacity="0.5"/>
<path d="M667.402 32.4102V-0.194199L600.263 7.05121V32.4102L667.402 32.4102ZM667.402 32.4102H656.212V21.542H645.022V32.4102L633.832 32.4102V21.542L622.642 21.542V32.4102H611.453V21.542H600.263V10.6739H611.453V-0.194199H622.642H633.832L645.022 -0.194199H656.212H667.402V10.6739H656.212V21.542H667.402V32.4102ZM656.212 10.6739V-0.194199H645.022V10.6739L656.212 10.6739ZM645.022 10.6739H633.832V21.542L645.022 21.542V10.6739ZM633.832 10.6739V-0.194199H622.642V10.6739H633.832ZM622.642 10.6739L611.453 10.6739V21.542H622.642V10.6739Z" fill="#5AAF21" fill-opacity="0.5"/>
<path d="M600.76 32.4102V-0.194199L533.62 7.05121V32.4102L600.76 32.4102ZM600.76 32.4102H589.57V21.542H578.38V32.4102L567.19 32.4102V21.542L556 21.542V32.4102H544.81V21.542H533.62V10.6739H544.81V-0.194199H556H567.19L578.38 -0.194199H589.57H600.76V10.6739H589.57V21.542H600.76V32.4102ZM589.57 10.6739V-0.194199H578.38V10.6739L589.57 10.6739ZM578.38 10.6739H567.19V21.542L578.38 21.542V10.6739ZM567.19 10.6739V-0.194199H556V10.6739H567.19ZM556 10.6739L544.81 10.6739V21.542H556V10.6739Z" fill="#5AAF21" fill-opacity="0.5"/>
<path d="M534.117 32.4102V-0.194199L466.977 7.05121V32.4102L534.117 32.4102ZM534.117 32.4102H522.927V21.542H511.737V32.4102L500.547 32.4102V21.542L489.357 21.542V32.4102H478.167V21.542H466.977V10.6739H478.167V-0.194199H489.357H500.547L511.737 -0.194199H522.927H534.117V10.6739H522.927V21.542H534.117V32.4102ZM522.927 10.6739V-0.194199H511.737V10.6739L522.927 10.6739ZM511.737 10.6739H500.547V21.542L511.737 21.542V10.6739ZM500.547 10.6739V-0.194199H489.357V10.6739H500.547ZM489.357 10.6739L478.167 10.6739V21.542H489.357V10.6739Z" fill="#5AAF21" fill-opacity="0.5"/>
<path d="M467.475 32.4102V-0.194199L400.335 7.05121V32.4102L467.475 32.4102ZM467.475 32.4102H456.285V21.542H445.095V32.4102L433.905 32.4102V21.542L422.715 21.542V32.4102H411.525V21.542H400.335V10.6739H411.525V-0.194199H422.715H433.905L445.095 -0.194199H456.285H467.475V10.6739H456.285V21.542H467.475V32.4102ZM456.285 10.6739V-0.194199H445.095V10.6739L456.285 10.6739ZM445.095 10.6739H433.905V21.542L445.095 21.542V10.6739ZM433.905 10.6739V-0.194199H422.715V10.6739H433.905ZM422.715 10.6739L411.525 10.6739V21.542H422.715V10.6739Z" fill="#5AAF21" fill-opacity="0.5"/>
<path d="M400.832 32.4102V-0.194199L333.692 7.05121V32.4102L400.832 32.4102ZM400.832 32.4102H389.642V21.542H378.452V32.4102L367.262 32.4102V21.542L356.072 21.542V32.4102H344.882V21.542H333.692V10.6739H344.882V-0.194199H356.072H367.262L378.452 -0.194199H389.642H400.832V10.6739H389.642V21.542H400.832V32.4102ZM389.642 10.6739V-0.194199H378.452V10.6739L389.642 10.6739ZM378.452 10.6739H367.262V21.542L378.452 21.542V10.6739ZM367.262 10.6739V-0.194199H356.072V10.6739H367.262ZM356.072 10.6739L344.882 10.6739V21.542H356.072V10.6739Z" fill="#5AAF21" fill-opacity="0.5"/>
<path d="M334.19 32.4102V-0.194199L267.051 7.05121V32.4102L334.19 32.4102ZM334.19 32.4102H323V21.542H311.81V32.4102L300.621 32.4102V21.542L289.431 21.542V32.4102H278.241V21.542H267.051V10.6739H278.241V-0.194199H289.431H300.621L311.81 -0.194199H323H334.19V10.6739H323V21.542H334.19V32.4102ZM323 10.6739V-0.194199H311.81V10.6739L323 10.6739ZM311.81 10.6739H300.621V21.542L311.81 21.542V10.6739ZM300.621 10.6739V-0.194199H289.431V10.6739H300.621ZM289.431 10.6739L278.241 10.6739V21.542H289.431V10.6739Z" fill="#5AAF21" fill-opacity="0.5"/>
<path d="M267.548 32.4102V-0.194199L200.408 7.05121V32.4102L267.548 32.4102ZM267.548 32.4102H256.358V21.542H245.168V32.4102L233.978 32.4102V21.542L222.788 21.542V32.4102H211.598V21.542H200.408V10.6739H211.598V-0.194199H222.788H233.978L245.168 -0.194199H256.358H267.548V10.6739H256.358V21.542H267.548V32.4102ZM256.358 10.6739V-0.194199H245.168V10.6739L256.358 10.6739ZM245.168 10.6739H233.978V21.542L245.168 21.542V10.6739ZM233.978 10.6739V-0.194199H222.788V10.6739H233.978ZM222.788 10.6739L211.598 10.6739V21.542H222.788V10.6739Z" fill="#5AAF21" fill-opacity="0.5"/>
<path d="M200.905 32.4102V-0.194199L133.765 7.05121V32.4102L200.905 32.4102ZM200.905 32.4102H189.715V21.542H178.525V32.4102L167.335 32.4102V21.542L156.145 21.542V32.4102H144.955V21.542H133.765V10.6739H144.955V-0.194199H156.145H167.335L178.525 -0.194199H189.715H200.905V10.6739H189.715V21.542H200.905V32.4102ZM189.715 10.6739V-0.194199H178.525V10.6739L189.715 10.6739ZM178.525 10.6739H167.335V21.542L178.525 21.542V10.6739ZM167.335 10.6739V-0.194199H156.145V10.6739H167.335ZM156.145 10.6739L144.955 10.6739V21.542H156.145V10.6739Z" fill="#5AAF21" fill-opacity="0.5"/>
<path d="M134.263 32.4102V-0.194199L67.1229 7.05121V32.4102L134.263 32.4102ZM134.263 32.4102H123.073V21.542H111.883V32.4102L100.693 32.4102V21.542L89.5028 21.542V32.4102H78.3129V21.542H67.1229V10.6739H78.3129V-0.194199H89.5028H100.693L111.883 -0.194199H123.073H134.263V10.6739H123.073V21.542H134.263V32.4102ZM123.073 10.6739V-0.194199H111.883V10.6739L123.073 10.6739ZM111.883 10.6739H100.693V21.542L111.883 21.542V10.6739ZM100.693 10.6739V-0.194199H89.5028V10.6739H100.693ZM89.5028 10.6739L78.3129 10.6739V21.542H89.5028V10.6739Z" fill="#5AAF21" fill-opacity="0.5"/>
<path d="M67.6201 32.4102V-0.194199L0.480324 7.05121V32.4102L67.6201 32.4102ZM67.6201 32.4102H56.4302V21.542H45.2402V32.4102L34.0502 32.4102V21.542L22.8603 21.542V32.4102H11.6703V21.542H0.480324V10.6739H11.6703L11.6703 -0.194199H22.8603H34.0502L45.2402 -0.194199H56.4302H67.6201V10.6739H56.4302V21.542H67.6201V32.4102ZM56.4302 10.6739V-0.194199H45.2402V10.6739L56.4302 10.6739ZM45.2402 10.6739H34.0502V21.542L45.2402 21.542V10.6739ZM34.0502 10.6739L34.0502 -0.194199H22.8603L22.8603 10.6739H34.0502ZM22.8603 10.6739L11.6703 10.6739V21.542H22.8603V10.6739Z" fill="#5AAF21" fill-opacity="0.5"/>
<path d="M600.76 336.718V293.245H533.62V336.718H600.76ZM600.76 336.718H589.57V325.85H578.38V336.718H567.19V325.85H556V336.718H544.81V325.85H533.62V314.982H544.81V304.113H533.62V293.245H544.81V304.113H556V293.245H567.19V304.113H578.38V293.245H589.57V304.113H600.76V314.982H589.57V325.85H600.76V336.718ZM589.57 314.982V304.113H578.38V314.982H589.57ZM578.38 314.982H567.19V325.85H578.38V314.982ZM567.19 314.982V304.113H556V314.982H567.19ZM556 314.982H544.81V325.85H556V314.982Z" fill="#5AAF21" fill-opacity="0.5"/>
<path d="M600.76 293.246V249.773H533.62V293.246H600.76ZM600.76 293.246H589.57V282.377H578.38V293.246H567.19V282.377H556V293.246H544.81V282.377H533.62V271.509H544.81V260.641H533.62V249.773H544.81V260.641H556V249.773H567.19V260.641H578.38V249.773H589.57V260.641H600.76V271.509H589.57V282.377H600.76V293.246ZM589.57 271.509V260.641H578.38V271.509H589.57ZM578.38 271.509H567.19V282.377H578.38V271.509ZM567.19 271.509V260.641H556V271.509H567.19ZM556 271.509H544.81V282.377H556V271.509Z" fill="#5AAF21" fill-opacity="0.5"/>
<path d="M600.76 249.773V206.3H533.62V249.773H600.76ZM600.76 249.773H589.57V238.905H578.38V249.773H567.19V238.905H556V249.773H544.81V238.905H533.62V228.037H544.81V217.169H533.62V206.3H544.81V217.169H556V206.3H567.19V217.169H578.38V206.3H589.57V217.169H600.76V228.037H589.57V238.905H600.76V249.773ZM589.57 228.037V217.169H578.38V228.037H589.57ZM578.38 228.037H567.19V238.905H578.38V228.037ZM567.19 228.037V217.169H556V228.037H567.19ZM556 228.037H544.81V238.905H556V228.037Z" fill="#5AAF21" fill-opacity="0.5"/>
<path d="M600.76 206.301V162.828H533.62V206.301H600.76ZM600.76 206.301H589.57V195.432H578.38V206.301H567.19V195.432H556V206.301H544.81V195.432H533.62V184.564H544.81V173.696H533.62V162.828H544.81V173.696H556V162.828H567.19V173.696H578.38V162.828H589.57V173.696H600.76V184.564H589.57V195.432H600.76V206.301ZM589.57 184.564V173.696H578.38V184.564H589.57ZM578.38 184.564H567.19V195.432H578.38V184.564ZM567.19 184.564V173.696H556V184.564H567.19ZM556 184.564H544.81V195.432H556V184.564Z" fill="#5AAF21" fill-opacity="0.5"/>
<path d="M600.76 162.828V119.356H533.62V162.828H600.76ZM600.76 162.828H589.57V151.96H578.38V162.828H567.19V151.96H556V162.828H544.81V151.96H533.62V141.092H544.81V130.224H533.62V119.356H544.81V130.224H556V119.356H567.19V130.224H578.38V119.356H589.57V130.224H600.76V141.092H589.57V151.96H600.76V162.828ZM589.57 141.092V130.224H578.38V141.092H589.57ZM578.38 141.092H567.19V151.96H578.38V141.092ZM567.19 141.092V130.224H556V141.092H567.19ZM556 141.092H544.81V151.96H556V141.092Z" fill="#5AAF21" fill-opacity="0.5"/>
<path d="M600.76 119.356V75.8835H533.62V119.356L600.76 119.356ZM600.76 119.356H589.57V108.488H578.38V119.356H567.19V108.488H556V119.356H544.81V108.488H533.62V97.6197H544.81V86.7516H533.62V75.8835H544.81V86.7516H556V75.8835H567.19V86.7516H578.38V75.8835H589.57V86.7516H600.76V97.6197H589.57V108.488H600.76V119.356ZM589.57 97.6197V86.7516H578.38V97.6197H589.57ZM578.38 97.6197H567.19V108.488H578.38V97.6197ZM567.19 97.6197V86.7516H556V97.6197H567.19ZM556 97.6197H544.81V108.488H556V97.6197Z" fill="#5AAF21" fill-opacity="0.5"/>
<path d="M600.76 75.8828V32.4103L533.62 32.4103V75.8828L600.76 75.8828ZM600.76 75.8828H589.57V65.0147H578.38V75.8828H567.19V65.0147H556V75.8828H544.81V65.0147H533.62V54.1466H544.81V43.2785H533.62V32.4103H544.81V43.2785H556V32.4103H567.19V43.2785L578.38 43.2785V32.4103H589.57V43.2785H600.76V54.1466H589.57V65.0147H600.76V75.8828ZM589.57 54.1466V43.2785H578.38V54.1466H589.57ZM578.38 54.1466H567.19V65.0147H578.38V54.1466ZM567.19 54.1466V43.2785H556V54.1466H567.19ZM556 54.1466L544.81 54.1466V65.0147H556V54.1466Z" fill="#5AAF21" fill-opacity="0.5"/>
<path d="M534.117 336.718V293.245H466.977V336.718H534.117ZM534.117 336.718H522.927V325.85H511.737V336.718H500.547V325.85H489.357V336.718H478.167V325.85H466.977V314.982H478.167V304.113H466.977V293.245H478.167V304.113H489.357V293.245H500.547V304.113H511.737V293.245H522.927V304.113H534.117V314.982H522.927V325.85H534.117V336.718ZM522.927 314.982V304.113H511.737V314.982H522.927ZM511.737 314.982H500.547V325.85H511.737V314.982ZM500.547 314.982V304.113H489.357V314.982H500.547ZM489.357 314.982H478.167V325.85H489.357V314.982Z" fill="#5AAF21" fill-opacity="0.5"/>
<path d="M534.117 293.246V249.773H466.977V293.246H534.117ZM534.117 293.246H522.927V282.377H511.737V293.246H500.547V282.377H489.357V293.246H478.167V282.377H466.977V271.509H478.167V260.641H466.977V249.773H478.167V260.641H489.357V249.773H500.547V260.641H511.737V249.773H522.927V260.641H534.117V271.509H522.927V282.377H534.117V293.246ZM522.927 271.509V260.641H511.737V271.509H522.927ZM511.737 271.509H500.547V282.377H511.737V271.509ZM500.547 271.509V260.641H489.357V271.509H500.547ZM489.357 271.509H478.167V282.377H489.357V271.509Z" fill="#5AAF21" fill-opacity="0.5"/>
<path d="M534.117 249.773V206.3H466.977V249.773H534.117ZM534.117 249.773H522.927V238.905H511.737V249.773H500.547V238.905H489.357V249.773H478.167V238.905H466.977V228.037H478.167V217.169H466.977V206.3H478.167V217.169H489.357V206.3H500.547V217.169H511.737V206.3H522.927V217.169H534.117V228.037H522.927V238.905H534.117V249.773ZM522.927 228.037V217.169H511.737V228.037H522.927ZM511.737 228.037H500.547V238.905H511.737V228.037ZM500.547 228.037V217.169H489.357V228.037H500.547ZM489.357 228.037H478.167V238.905H489.357V228.037Z" fill="#5AAF21" fill-opacity="0.5"/>
<path d="M534.117 206.301V162.828H466.977V206.301H534.117ZM534.117 206.301H522.927V195.432H511.737V206.301H500.547V195.432H489.357V206.301H478.167V195.432H466.977V184.564H478.167V173.696H466.977V162.828H478.167V173.696H489.357V162.828H500.547V173.696H511.737V162.828H522.927V173.696H534.117V184.564H522.927V195.432H534.117V206.301ZM522.927 184.564V173.696H511.737V184.564H522.927ZM511.737 184.564H500.547V195.432H511.737V184.564ZM500.547 184.564V173.696H489.357V184.564H500.547ZM489.357 184.564H478.167V195.432H489.357V184.564Z" fill="#5AAF21" fill-opacity="0.5"/>
<path d="M534.117 162.828V119.356H466.977V162.828H534.117ZM534.117 162.828H522.927V151.96H511.737V162.828H500.547V151.96H489.357V162.828H478.167V151.96H466.977V141.092H478.167V130.224H466.977V119.356H478.167V130.224H489.357V119.356H500.547V130.224H511.737V119.356H522.927V130.224H534.117V141.092H522.927V151.96H534.117V162.828ZM522.927 141.092V130.224H511.737V141.092H522.927ZM511.737 141.092H500.547V151.96H511.737V141.092ZM500.547 141.092V130.224H489.357V141.092H500.547ZM489.357 141.092H478.167V151.96H489.357V141.092Z" fill="#5AAF21" fill-opacity="0.5"/>
<path d="M534.117 119.356V75.8835H466.977V119.356L534.117 119.356ZM534.117 119.356H522.927V108.488H511.737V119.356H500.547V108.488H489.357V119.356H478.167V108.488H466.977V97.6197H478.167V86.7516H466.977V75.8835H478.167V86.7516H489.357V75.8835H500.547V86.7516H511.737V75.8835H522.927V86.7516H534.117V97.6197H522.927V108.488H534.117V119.356ZM522.927 97.6197V86.7516H511.737V97.6197H522.927ZM511.737 97.6197H500.547V108.488H511.737V97.6197ZM500.547 97.6197V86.7516H489.357V97.6197H500.547ZM489.357 97.6197H478.167V108.488H489.357V97.6197Z" fill="#5AAF21" fill-opacity="0.5"/>
<path d="M534.117 75.8828V32.4103L466.977 32.4103V75.8828L534.117 75.8828ZM534.117 75.8828H522.927V65.0147H511.737V75.8828H500.547V65.0147H489.357V75.8828H478.167V65.0147H466.977V54.1466H478.167V43.2785H466.977V32.4103H478.167V43.2785H489.357V32.4103H500.547V43.2785L511.737 43.2785V32.4103H522.927V43.2785H534.117V54.1466H522.927V65.0147H534.117V75.8828ZM522.927 54.1466V43.2785H511.737V54.1466H522.927ZM511.737 54.1466H500.547V65.0147H511.737V54.1466ZM500.547 54.1466V43.2785H489.357V54.1466H500.547ZM489.357 54.1466L478.167 54.1466V65.0147H489.357V54.1466Z" fill="#5AAF21" fill-opacity="0.5"/>
<path d="M467.475 336.718V293.245H400.335V336.718H467.475ZM467.475 336.718H456.285V325.85H445.095V336.718H433.905V325.85H422.715V336.718H411.525V325.85H400.335V314.982H411.525V304.113H400.335V293.245H411.525V304.113H422.715V293.245H433.905V304.113H445.095V293.245H456.285V304.113H467.475V314.982H456.285V325.85H467.475V336.718ZM456.285 314.982V304.113H445.095V314.982H456.285ZM445.095 314.982H433.905V325.85H445.095V314.982ZM433.905 314.982V304.113H422.715V314.982H433.905ZM422.715 314.982H411.525V325.85H422.715V314.982Z" fill="#5AAF21" fill-opacity="0.5"/>
<path d="M467.475 293.246V249.773H400.335V293.246H467.475ZM467.475 293.246H456.285V282.377H445.095V293.246H433.905V282.377H422.715V293.246H411.525V282.377H400.335V271.509H411.525V260.641H400.335V249.773H411.525V260.641H422.715V249.773H433.905V260.641H445.095V249.773H456.285V260.641H467.475V271.509H456.285V282.377H467.475V293.246ZM456.285 271.509V260.641H445.095V271.509H456.285ZM445.095 271.509H433.905V282.377H445.095V271.509ZM433.905 271.509V260.641H422.715V271.509H433.905ZM422.715 271.509H411.525V282.377H422.715V271.509Z" fill="#5AAF21" fill-opacity="0.5"/>
<path d="M467.475 249.773V206.3H400.335V249.773H467.475ZM467.475 249.773H456.285V238.905H445.095V249.773H433.905V238.905H422.715V249.773H411.525V238.905H400.335V228.037H411.525V217.169H400.335V206.3H411.525V217.169H422.715V206.3H433.905V217.169H445.095V206.3H456.285V217.169H467.475V228.037H456.285V238.905H467.475V249.773ZM456.285 228.037V217.169H445.095V228.037H456.285ZM445.095 228.037H433.905V238.905H445.095V228.037ZM433.905 228.037V217.169H422.715V228.037H433.905ZM422.715 228.037H411.525V238.905H422.715V228.037Z" fill="#5AAF21" fill-opacity="0.5"/>
<path d="M467.475 206.301V162.828H400.335V206.301H467.475ZM467.475 206.301H456.285V195.432H445.095V206.301H433.905V195.432H422.715V206.301H411.525V195.432H400.335V184.564H411.525V173.696H400.335V162.828H411.525V173.696H422.715V162.828H433.905V173.696H445.095V162.828H456.285V173.696H467.475V184.564H456.285V195.432H467.475V206.301ZM456.285 184.564V173.696H445.095V184.564H456.285ZM445.095 184.564H433.905V195.432H445.095V184.564ZM433.905 184.564V173.696H422.715V184.564H433.905ZM422.715 184.564H411.525V195.432H422.715V184.564Z" fill="#5AAF21" fill-opacity="0.5"/>
<path d="M467.475 162.828V119.356H400.335V162.828H467.475ZM467.475 162.828H456.285V151.96H445.095V162.828H433.905V151.96H422.715V162.828H411.525V151.96H400.335V141.092H411.525V130.224H400.335V119.356H411.525V130.224H422.715V119.356H433.905V130.224H445.095V119.356H456.285V130.224H467.475V141.092H456.285V151.96H467.475V162.828ZM456.285 141.092V130.224H445.095V141.092H456.285ZM445.095 141.092H433.905V151.96H445.095V141.092ZM433.905 141.092V130.224H422.715V141.092H433.905ZM422.715 141.092H411.525V151.96H422.715V141.092Z" fill="#5AAF21" fill-opacity="0.5"/>
<path d="M467.475 119.356V75.8835H400.335V119.356L467.475 119.356ZM467.475 119.356H456.285V108.488H445.095V119.356H433.905V108.488H422.715V119.356H411.525V108.488H400.335V97.6197H411.525V86.7516H400.335V75.8835H411.525V86.7516H422.715V75.8835H433.905V86.7516H445.095V75.8835H456.285V86.7516H467.475V97.6197H456.285V108.488H467.475V119.356ZM456.285 97.6197V86.7516H445.095V97.6197H456.285ZM445.095 97.6197H433.905V108.488H445.095V97.6197ZM433.905 97.6197V86.7516H422.715V97.6197H433.905ZM422.715 97.6197H411.525V108.488H422.715V97.6197Z" fill="#5AAF21" fill-opacity="0.5"/>
<path d="M467.475 75.8828V32.4103L400.335 32.4103V75.8828L467.475 75.8828ZM467.475 75.8828H456.285V65.0147H445.095V75.8828H433.905V65.0147H422.715V75.8828H411.525V65.0147H400.335V54.1466H411.525V43.2785H400.335V32.4103H411.525V43.2785H422.715V32.4103H433.905V43.2785L445.095 43.2785V32.4103H456.285V43.2785H467.475V54.1466H456.285V65.0147H467.475V75.8828ZM456.285 54.1466V43.2785H445.095V54.1466H456.285ZM445.095 54.1466H433.905V65.0147H445.095V54.1466ZM433.905 54.1466V43.2785H422.715V54.1466H433.905ZM422.715 54.1466L411.525 54.1466V65.0147H422.715V54.1466Z" fill="#5AAF21" fill-opacity="0.5"/>
<path d="M400.832 336.718V293.245H333.692V336.718H400.832ZM400.832 336.718H389.642V325.85H378.452V336.718H367.262V325.85H356.072V336.718H344.882V325.85H333.692V314.982H344.882V304.113H333.692V293.245H344.882V304.113H356.072V293.245H367.262V304.113H378.452V293.245H389.642V304.113H400.832V314.982H389.642V325.85H400.832V336.718ZM389.642 314.982V304.113H378.452V314.982H389.642ZM378.452 314.982H367.262V325.85H378.452V314.982ZM367.262 314.982V304.113H356.072V314.982H367.262ZM356.072 314.982H344.882V325.85H356.072V314.982Z" fill="#5AAF21" fill-opacity="0.5"/>
<path d="M400.832 293.246V249.773H333.692V293.246H400.832ZM400.832 293.246H389.642V282.377H378.452V293.246H367.262V282.377H356.072V293.246H344.882V282.377H333.692V271.509H344.882V260.641H333.692V249.773H344.882V260.641H356.072V249.773H367.262V260.641H378.452V249.773H389.642V260.641H400.832V271.509H389.642V282.377H400.832V293.246ZM389.642 271.509V260.641H378.452V271.509H389.642ZM378.452 271.509H367.262V282.377H378.452V271.509ZM367.262 271.509V260.641H356.072V271.509H367.262ZM356.072 271.509H344.882V282.377H356.072V271.509Z" fill="#5AAF21" fill-opacity="0.5"/>
<path d="M400.832 249.773V206.3H333.692V249.773H400.832ZM400.832 249.773H389.642V238.905H378.452V249.773H367.262V238.905H356.072V249.773H344.882V238.905H333.692V228.037H344.882V217.169H333.692V206.3H344.882V217.169H356.072V206.3H367.262V217.169H378.452V206.3H389.642V217.169H400.832V228.037H389.642V238.905H400.832V249.773ZM389.642 228.037V217.169H378.452V228.037H389.642ZM378.452 228.037H367.262V238.905H378.452V228.037ZM367.262 228.037V217.169H356.072V228.037H367.262ZM356.072 228.037H344.882V238.905H356.072V228.037Z" fill="#5AAF21" fill-opacity="0.5"/>
<path d="M400.832 206.301V162.828H333.692V206.301H400.832ZM400.832 206.301H389.642V195.432H378.452V206.301H367.262V195.432H356.072V206.301H344.882V195.432H333.692V184.564H344.882V173.696H333.692V162.828H344.882V173.696H356.072V162.828H367.262V173.696H378.452V162.828H389.642V173.696H400.832V184.564H389.642V195.432H400.832V206.301ZM389.642 184.564V173.696H378.452V184.564H389.642ZM378.452 184.564H367.262V195.432H378.452V184.564ZM367.262 184.564V173.696H356.072V184.564H367.262ZM356.072 184.564H344.882V195.432H356.072V184.564Z" fill="#5AAF21" fill-opacity="0.5"/>
<path d="M400.832 162.828V119.356H333.692V162.828H400.832ZM400.832 162.828H389.642V151.96H378.452V162.828H367.262V151.96H356.072V162.828H344.882V151.96H333.692V141.092H344.882V130.224H333.692V119.356H344.882V130.224H356.072V119.356H367.262V130.224H378.452V119.356H389.642V130.224H400.832V141.092H389.642V151.96H400.832V162.828ZM389.642 141.092V130.224H378.452V141.092H389.642ZM378.452 141.092H367.262V151.96H378.452V141.092ZM367.262 141.092V130.224H356.072V141.092H367.262ZM356.072 141.092H344.882V151.96H356.072V141.092Z" fill="#5AAF21" fill-opacity="0.5"/>
<path d="M400.832 119.356V75.8835H333.692V119.356L400.832 119.356ZM400.832 119.356H389.642V108.488H378.452V119.356H367.262V108.488H356.072V119.356H344.882V108.488H333.692V97.6197H344.882V86.7516H333.692V75.8835H344.882V86.7516H356.072V75.8835H367.262V86.7516H378.452V75.8835H389.642V86.7516H400.832V97.6197H389.642V108.488H400.832V119.356ZM389.642 97.6197V86.7516H378.452V97.6197H389.642ZM378.452 97.6197H367.262V108.488H378.452V97.6197ZM367.262 97.6197V86.7516H356.072V97.6197H367.262ZM356.072 97.6197H344.882V108.488H356.072V97.6197Z" fill="#5AAF21" fill-opacity="0.5"/>
<path d="M400.832 75.8828V32.4103L333.692 32.4103V75.8828L400.832 75.8828ZM400.832 75.8828H389.642V65.0147H378.452V75.8828H367.262V65.0147H356.072V75.8828H344.882V65.0147H333.692V54.1466H344.882V43.2785H333.692V32.4103H344.882V43.2785H356.072V32.4103H367.262V43.2785L378.452 43.2785V32.4103H389.642V43.2785H400.832V54.1466H389.642V65.0147H400.832V75.8828ZM389.642 54.1466V43.2785H378.452V54.1466H389.642ZM378.452 54.1466H367.262V65.0147H378.452V54.1466ZM367.262 54.1466V43.2785H356.072V54.1466H367.262ZM356.072 54.1466L344.882 54.1466V65.0147H356.072V54.1466Z" fill="#5AAF21" fill-opacity="0.5"/>
<path d="M334.19 336.718V293.245H267.051V336.718H334.19ZM334.19 336.718H323V325.85H311.81V336.718H300.621V325.85H289.431V336.718H278.241V325.85H267.051V314.982H278.241V304.113H267.051V293.245H278.241V304.113H289.431V293.245H300.621V304.113H311.81V293.245H323V304.113H334.19V314.982H323V325.85H334.19V336.718ZM323 314.982V304.113H311.81V314.982H323ZM311.81 314.982H300.621V325.85H311.81V314.982ZM300.621 314.982V304.113H289.431V314.982H300.621ZM289.431 314.982H278.241V325.85H289.431V314.982Z" fill="#5AAF21" fill-opacity="0.5"/>
<path d="M334.19 293.246V249.773H267.051V293.246H334.19ZM334.19 293.246H323V282.377H311.81V293.246H300.621V282.377H289.431V293.246H278.241V282.377H267.051V271.509H278.241V260.641H267.051V249.773H278.241V260.641H289.431V249.773H300.621V260.641H311.81V249.773H323V260.641H334.19V271.509H323V282.377H334.19V293.246ZM323 271.509V260.641H311.81V271.509H323ZM311.81 271.509H300.621V282.377H311.81V271.509ZM300.621 271.509V260.641H289.431V271.509H300.621ZM289.431 271.509H278.241V282.377H289.431V271.509Z" fill="#5AAF21" fill-opacity="0.5"/>
<path d="M334.19 249.773V206.3H267.051V249.773H334.19ZM334.19 249.773H323V238.905H311.81V249.773H300.621V238.905H289.431V249.773H278.241V238.905H267.051V228.037H278.241V217.169H267.051V206.3H278.241V217.169H289.431V206.3H300.621V217.169H311.81V206.3H323V217.169H334.19V228.037H323V238.905H334.19V249.773ZM323 228.037V217.169H311.81V228.037H323ZM311.81 228.037H300.621V238.905H311.81V228.037ZM300.621 228.037V217.169H289.431V228.037H300.621ZM289.431 228.037H278.241V238.905H289.431V228.037Z" fill="#5AAF21" fill-opacity="0.5"/>
<path d="M334.19 206.301V162.828H267.051V206.301H334.19ZM334.19 206.301H323V195.432H311.81V206.301H300.621V195.432H289.431V206.301H278.241V195.432H267.051V184.564H278.241V173.696H267.051V162.828H278.241V173.696H289.431V162.828H300.621V173.696H311.81V162.828H323V173.696H334.19V184.564H323V195.432H334.19V206.301ZM323 184.564V173.696H311.81V184.564H323ZM311.81 184.564H300.621V195.432H311.81V184.564ZM300.621 184.564V173.696H289.431V184.564H300.621ZM289.431 184.564H278.241V195.432H289.431V184.564Z" fill="#5AAF21" fill-opacity="0.5"/>
<path d="M334.19 162.828V119.356H267.051V162.828H334.19ZM334.19 162.828H323V151.96H311.81V162.828H300.621V151.96H289.431V162.828H278.241V151.96H267.051V141.092H278.241V130.224H267.051V119.356H278.241V130.224H289.431V119.356H300.621V130.224H311.81V119.356H323V130.224H334.19V141.092H323V151.96H334.19V162.828ZM323 141.092V130.224H311.81V141.092H323ZM311.81 141.092H300.621V151.96H311.81V141.092ZM300.621 141.092V130.224H289.431V141.092H300.621ZM289.431 141.092H278.241V151.96H289.431V141.092Z" fill="#5AAF21" fill-opacity="0.5"/>
<path d="M334.19 119.356V75.8835H267.051V119.356L334.19 119.356ZM334.19 119.356H323V108.488H311.81V119.356H300.621V108.488H289.431V119.356H278.241V108.488H267.051V97.6197H278.241V86.7516H267.051V75.8835H278.241V86.7516H289.431V75.8835H300.621V86.7516H311.81V75.8835H323V86.7516H334.19V97.6197H323V108.488H334.19V119.356ZM323 97.6197V86.7516H311.81V97.6197H323ZM311.81 97.6197H300.621V108.488H311.81V97.6197ZM300.621 97.6197V86.7516H289.431V97.6197H300.621ZM289.431 97.6197H278.241V108.488H289.431V97.6197Z" fill="#5AAF21" fill-opacity="0.5"/>
<path d="M334.19 75.8828V32.4103L267.051 32.4103V75.8828L334.19 75.8828ZM334.19 75.8828H323V65.0147H311.81V75.8828H300.621V65.0147H289.431V75.8828H278.241V65.0147H267.051V54.1466H278.241V43.2785H267.051V32.4103H278.241V43.2785H289.431V32.4103H300.621V43.2785L311.81 43.2785V32.4103H323V43.2785H334.19V54.1466H323V65.0147H334.19V75.8828ZM323 54.1466V43.2785H311.81V54.1466H323ZM311.81 54.1466H300.621V65.0147H311.81V54.1466ZM300.621 54.1466V43.2785H289.431V54.1466H300.621ZM289.431 54.1466L278.241 54.1466V65.0147H289.431V54.1466Z" fill="#5AAF21" fill-opacity="0.5"/>
<path d="M267.548 336.718V293.245H200.408V336.718H267.548ZM267.548 336.718H256.358V325.85H245.168V336.718H233.978V325.85H222.788V336.718H211.598V325.85H200.408V314.982H211.598V304.113H200.408V293.245H211.598V304.113H222.788V293.245H233.978V304.113H245.168V293.245H256.358V304.113H267.548V314.982H256.358V325.85H267.548V336.718ZM256.358 314.982V304.113H245.168V314.982H256.358ZM245.168 314.982H233.978V325.85H245.168V314.982ZM233.978 314.982V304.113H222.788V314.982H233.978ZM222.788 314.982H211.598V325.85H222.788V314.982Z" fill="#5AAF21" fill-opacity="0.5"/>
<path d="M267.548 293.246V249.773H200.408V293.246H267.548ZM267.548 293.246H256.358V282.377H245.168V293.246H233.978V282.377H222.788V293.246H211.598V282.377H200.408V271.509H211.598V260.641H200.408V249.773H211.598V260.641H222.788V249.773H233.978V260.641H245.168V249.773H256.358V260.641H267.548V271.509H256.358V282.377H267.548V293.246ZM256.358 271.509V260.641H245.168V271.509H256.358ZM245.168 271.509H233.978V282.377H245.168V271.509ZM233.978 271.509V260.641H222.788V271.509H233.978ZM222.788 271.509H211.598V282.377H222.788V271.509Z" fill="#5AAF21" fill-opacity="0.5"/>
<path d="M267.548 249.773V206.3H200.408V249.773H267.548ZM267.548 249.773H256.358V238.905H245.168V249.773H233.978V238.905H222.788V249.773H211.598V238.905H200.408V228.037H211.598V217.169H200.408V206.3H211.598V217.169H222.788V206.3H233.978V217.169H245.168V206.3H256.358V217.169H267.548V228.037H256.358V238.905H267.548V249.773ZM256.358 228.037V217.169H245.168V228.037H256.358ZM245.168 228.037H233.978V238.905H245.168V228.037ZM233.978 228.037V217.169H222.788V228.037H233.978ZM222.788 228.037H211.598V238.905H222.788V228.037Z" fill="#5AAF21" fill-opacity="0.5"/>
<path d="M267.548 206.301V162.828H200.408V206.301H267.548ZM267.548 206.301H256.358V195.432H245.168V206.301H233.978V195.432H222.788V206.301H211.598V195.432H200.408V184.564H211.598V173.696H200.408V162.828H211.598V173.696H222.788V162.828H233.978V173.696H245.168V162.828H256.358V173.696H267.548V184.564H256.358V195.432H267.548V206.301ZM256.358 184.564V173.696H245.168V184.564H256.358ZM245.168 184.564H233.978V195.432H245.168V184.564ZM233.978 184.564V173.696H222.788V184.564H233.978ZM222.788 184.564H211.598V195.432H222.788V184.564Z" fill="#5AAF21" fill-opacity="0.5"/>
<path d="M267.548 162.828V119.356H200.408V162.828H267.548ZM267.548 162.828H256.358V151.96H245.168V162.828H233.978V151.96H222.788V162.828H211.598V151.96H200.408V141.092H211.598V130.224H200.408V119.356H211.598V130.224H222.788V119.356H233.978V130.224H245.168V119.356H256.358V130.224H267.548V141.092H256.358V151.96H267.548V162.828ZM256.358 141.092V130.224H245.168V141.092H256.358ZM245.168 141.092H233.978V151.96H245.168V141.092ZM233.978 141.092V130.224H222.788V141.092H233.978ZM222.788 141.092H211.598V151.96H222.788V141.092Z" fill="#5AAF21" fill-opacity="0.5"/>
<path d="M267.548 119.356V75.8835H200.408V119.356L267.548 119.356ZM267.548 119.356H256.358V108.488H245.168V119.356H233.978V108.488H222.788V119.356H211.598V108.488H200.408V97.6197H211.598V86.7516H200.408V75.8835H211.598V86.7516H222.788V75.8835H233.978V86.7516H245.168V75.8835H256.358V86.7516H267.548V97.6197H256.358V108.488H267.548V119.356ZM256.358 97.6197V86.7516H245.168V97.6197H256.358ZM245.168 97.6197H233.978V108.488H245.168V97.6197ZM233.978 97.6197V86.7516H222.788V97.6197H233.978ZM222.788 97.6197H211.598V108.488H222.788V97.6197Z" fill="#5AAF21" fill-opacity="0.5"/>
<path d="M267.548 75.8828V32.4103L200.408 32.4103V75.8828L267.548 75.8828ZM267.548 75.8828H256.358V65.0147H245.168V75.8828H233.978V65.0147H222.788V75.8828H211.598V65.0147H200.408V54.1466H211.598V43.2785H200.408V32.4103H211.598V43.2785H222.788V32.4103H233.978V43.2785L245.168 43.2785V32.4103H256.358V43.2785H267.548V54.1466H256.358V65.0147H267.548V75.8828ZM256.358 54.1466V43.2785H245.168V54.1466H256.358ZM245.168 54.1466H233.978V65.0147H245.168V54.1466ZM233.978 54.1466V43.2785H222.788V54.1466H233.978ZM222.788 54.1466L211.598 54.1466V65.0147H222.788V54.1466Z" fill="#5AAF21" fill-opacity="0.5"/>
<path d="M200.905 336.718V293.245H133.765V336.718H200.905ZM200.905 336.718H189.715V325.85H178.525V336.718H167.335V325.85H156.145V336.718H144.955V325.85H133.765V314.982H144.955V304.113H133.765V293.245H144.955V304.113H156.145V293.245H167.335V304.113H178.525V293.245H189.715V304.113H200.905V314.982H189.715V325.85H200.905V336.718ZM189.715 314.982V304.113H178.525V314.982H189.715ZM178.525 314.982H167.335V325.85H178.525V314.982ZM167.335 314.982V304.113H156.145V314.982H167.335ZM156.145 314.982H144.955V325.85H156.145V314.982Z" fill="#5AAF21" fill-opacity="0.5"/>
<path d="M200.905 293.246V249.773H133.765V293.246H200.905ZM200.905 293.246H189.715V282.377H178.525V293.246H167.335V282.377H156.145V293.246H144.955V282.377H133.765V271.509H144.955V260.641H133.765V249.773H144.955V260.641H156.145V249.773H167.335V260.641H178.525V249.773H189.715V260.641H200.905V271.509H189.715V282.377H200.905V293.246ZM189.715 271.509V260.641H178.525V271.509H189.715ZM178.525 271.509H167.335V282.377H178.525V271.509ZM167.335 271.509V260.641H156.145V271.509H167.335ZM156.145 271.509H144.955V282.377H156.145V271.509Z" fill="#5AAF21" fill-opacity="0.5"/>
<path d="M200.905 249.773V206.3H133.765V249.773H200.905ZM200.905 249.773H189.715V238.905H178.525V249.773H167.335V238.905H156.145V249.773H144.955V238.905H133.765V228.037H144.955V217.169H133.765V206.3H144.955V217.169H156.145V206.3H167.335V217.169H178.525V206.3H189.715V217.169H200.905V228.037H189.715V238.905H200.905V249.773ZM189.715 228.037V217.169H178.525V228.037H189.715ZM178.525 228.037H167.335V238.905H178.525V228.037ZM167.335 228.037V217.169H156.145V228.037H167.335ZM156.145 228.037H144.955V238.905H156.145V228.037Z" fill="#5AAF21" fill-opacity="0.5"/>
<path d="M200.905 206.301V162.828H133.765V206.301H200.905ZM200.905 206.301H189.715V195.432H178.525V206.301H167.335V195.432H156.145V206.301H144.955V195.432H133.765V184.564H144.955V173.696H133.765V162.828H144.955V173.696H156.145V162.828H167.335V173.696H178.525V162.828H189.715V173.696H200.905V184.564H189.715V195.432H200.905V206.301ZM189.715 184.564V173.696H178.525V184.564H189.715ZM178.525 184.564H167.335V195.432H178.525V184.564ZM167.335 184.564V173.696H156.145V184.564H167.335ZM156.145 184.564H144.955V195.432H156.145V184.564Z" fill="#5AAF21" fill-opacity="0.5"/>
<path d="M200.905 162.828V119.356H133.765V162.828H200.905ZM200.905 162.828H189.715V151.96H178.525V162.828H167.335V151.96H156.145V162.828H144.955V151.96H133.765V141.092H144.955V130.224H133.765V119.356H144.955V130.224H156.145V119.356H167.335V130.224H178.525V119.356H189.715V130.224H200.905V141.092H189.715V151.96H200.905V162.828ZM189.715 141.092V130.224H178.525V141.092H189.715ZM178.525 141.092H167.335V151.96H178.525V141.092ZM167.335 141.092V130.224H156.145V141.092H167.335ZM156.145 141.092H144.955V151.96H156.145V141.092Z" fill="#5AAF21" fill-opacity="0.5"/>
<path d="M200.905 119.356V75.8835H133.765V119.356L200.905 119.356ZM200.905 119.356H189.715V108.488H178.525V119.356H167.335V108.488H156.145V119.356H144.955V108.488H133.765V97.6197H144.955V86.7516H133.765V75.8835H144.955V86.7516H156.145V75.8835H167.335V86.7516H178.525V75.8835H189.715V86.7516H200.905V97.6197H189.715V108.488H200.905V119.356ZM189.715 97.6197V86.7516H178.525V97.6197H189.715ZM178.525 97.6197H167.335V108.488H178.525V97.6197ZM167.335 97.6197V86.7516H156.145V97.6197H167.335ZM156.145 97.6197H144.955V108.488H156.145V97.6197Z" fill="#5AAF21" fill-opacity="0.5"/>
<path d="M200.905 75.8828V32.4103L133.765 32.4103V75.8828L200.905 75.8828ZM200.905 75.8828H189.715V65.0147H178.525V75.8828H167.335V65.0147H156.145V75.8828H144.955V65.0147H133.765V54.1466H144.955V43.2785H133.765V32.4103H144.955V43.2785H156.145V32.4103H167.335V43.2785L178.525 43.2785V32.4103H189.715V43.2785H200.905V54.1466H189.715V65.0147H200.905V75.8828ZM189.715 54.1466V43.2785H178.525V54.1466H189.715ZM178.525 54.1466H167.335V65.0147H178.525V54.1466ZM167.335 54.1466V43.2785H156.145V54.1466H167.335ZM156.145 54.1466L144.955 54.1466V65.0147H156.145V54.1466Z" fill="#5AAF21" fill-opacity="0.5"/>
<path d="M134.263 336.718V293.245H67.1229V336.718H134.263ZM134.263 336.718H123.073V325.85H111.883V336.718H100.693V325.85H89.5028V336.718H78.3129V325.85H67.1229V314.982H78.3129V304.113H67.1229V293.245H78.3129V304.113H89.5028V293.245H100.693V304.113H111.883V293.245H123.073V304.113H134.263V314.982H123.073V325.85H134.263V336.718ZM123.073 314.982V304.113H111.883V314.982H123.073ZM111.883 314.982H100.693V325.85H111.883V314.982ZM100.693 314.982V304.113H89.5028V314.982H100.693ZM89.5028 314.982H78.3129V325.85H89.5028V314.982Z" fill="#5AAF21" fill-opacity="0.5"/>
<path d="M134.263 293.246V249.773H67.1229V293.246H134.263ZM134.263 293.246H123.073V282.377H111.883V293.246H100.693V282.377H89.5028V293.246H78.3129V282.377H67.1229V271.509H78.3129V260.641H67.1229V249.773H78.3129V260.641H89.5028V249.773H100.693V260.641H111.883V249.773H123.073V260.641H134.263V271.509H123.073V282.377H134.263V293.246ZM123.073 271.509V260.641H111.883V271.509H123.073ZM111.883 271.509H100.693V282.377H111.883V271.509ZM100.693 271.509V260.641H89.5028V271.509H100.693ZM89.5028 271.509H78.3129V282.377H89.5028V271.509Z" fill="#5AAF21" fill-opacity="0.5"/>
<path d="M134.263 249.773V206.3H67.1229V249.773H134.263ZM134.263 249.773H123.073V238.905H111.883V249.773H100.693V238.905H89.5028V249.773H78.3129V238.905H67.1229V228.037H78.3129V217.169H67.1229V206.3H78.3129V217.169H89.5028V206.3H100.693V217.169H111.883V206.3H123.073V217.169H134.263V228.037H123.073V238.905H134.263V249.773ZM123.073 228.037V217.169H111.883V228.037H123.073ZM111.883 228.037H100.693V238.905H111.883V228.037ZM100.693 228.037V217.169H89.5028V228.037H100.693ZM89.5028 228.037H78.3129V238.905H89.5028V228.037Z" fill="#5AAF21" fill-opacity="0.5"/>
<path d="M134.263 206.301V162.828H67.1229V206.301H134.263ZM134.263 206.301H123.073V195.432H111.883V206.301H100.693V195.432H89.5028V206.301H78.3129V195.432H67.1229V184.564H78.3129V173.696H67.1229V162.828H78.3129V173.696H89.5028V162.828H100.693V173.696H111.883V162.828H123.073V173.696H134.263V184.564H123.073V195.432H134.263V206.301ZM123.073 184.564V173.696H111.883V184.564H123.073ZM111.883 184.564H100.693V195.432H111.883V184.564ZM100.693 184.564V173.696H89.5028V184.564H100.693ZM89.5028 184.564H78.3129V195.432H89.5028V184.564Z" fill="#5AAF21" fill-opacity="0.5"/>
<path d="M134.263 162.828V119.356H67.1229V162.828H134.263ZM134.263 162.828H123.073V151.96H111.883V162.828H100.693V151.96H89.5028V162.828H78.3129V151.96H67.1229V141.092H78.3129V130.224H67.1229V119.356H78.3129V130.224H89.5028V119.356H100.693V130.224H111.883V119.356H123.073V130.224H134.263V141.092H123.073V151.96H134.263V162.828ZM123.073 141.092V130.224H111.883V141.092H123.073ZM111.883 141.092H100.693V151.96H111.883V141.092ZM100.693 141.092V130.224H89.5028V141.092H100.693ZM89.5028 141.092H78.3129V151.96H89.5028V141.092Z" fill="#5AAF21" fill-opacity="0.5"/>
<path d="M134.263 119.356V75.8835H67.1229V119.356L134.263 119.356ZM134.263 119.356H123.073V108.488H111.883V119.356H100.693V108.488H89.5028V119.356H78.3129V108.488H67.1229V97.6197H78.3129V86.7516H67.1229V75.8835H78.3129V86.7516H89.5028V75.8835H100.693V86.7516H111.883V75.8835H123.073V86.7516H134.263V97.6197H123.073V108.488H134.263V119.356ZM123.073 97.6197V86.7516H111.883V97.6197H123.073ZM111.883 97.6197H100.693V108.488H111.883V97.6197ZM100.693 97.6197V86.7516H89.5028V97.6197H100.693ZM89.5028 97.6197H78.3129V108.488H89.5028V97.6197Z" fill="#5AAF21" fill-opacity="0.5"/>
<path d="M134.263 75.8828V32.4103L67.1229 32.4103V75.8828L134.263 75.8828ZM134.263 75.8828H123.073V65.0147H111.883V75.8828H100.693V65.0147H89.5028V75.8828H78.3129V65.0147H67.1229V54.1466H78.3129V43.2785H67.1229V32.4103H78.3129V43.2785H89.5028V32.4103H100.693V43.2785L111.883 43.2785V32.4103H123.073V43.2785H134.263V54.1466H123.073V65.0147H134.263V75.8828ZM123.073 54.1466V43.2785H111.883V54.1466H123.073ZM111.883 54.1466H100.693V65.0147H111.883V54.1466ZM100.693 54.1466V43.2785H89.5028V54.1466H100.693ZM89.5028 54.1466L78.3129 54.1466V65.0147H89.5028V54.1466Z" fill="#5AAF21" fill-opacity="0.5"/>
<path d="M67.6201 336.718V293.245H0.480324V336.718H67.6201ZM67.6201 336.718H56.4302V325.85H45.2402V336.718H34.0502V325.85H22.8603V336.718H11.6703V325.85H0.480324V314.982H11.6703L11.6703 304.113H0.480324V293.245H11.6703V304.113H22.8603V293.245H34.0502V304.113H45.2402L45.2402 293.245H56.4302L56.4302 304.113H67.6201V314.982H56.4302V325.85H67.6201V336.718ZM56.4302 314.982V304.113H45.2402V314.982H56.4302ZM45.2402 314.982H34.0502V325.85H45.2402V314.982ZM34.0502 314.982L34.0502 304.113H22.8603L22.8603 314.982H34.0502ZM22.8603 314.982H11.6703V325.85H22.8603V314.982Z" fill="#5AAF21" fill-opacity="0.5"/>
<path d="M67.6201 293.246V249.773H0.480324V293.246H67.6201ZM67.6201 293.246H56.4302V282.377H45.2402V293.246H34.0502V282.377H22.8603V293.246H11.6703V282.377H0.480324V271.509H11.6703L11.6703 260.641H0.480324V249.773H11.6703V260.641H22.8603V249.773H34.0502V260.641H45.2402L45.2402 249.773H56.4302L56.4302 260.641H67.6201V271.509H56.4302V282.377H67.6201V293.246ZM56.4302 271.509V260.641H45.2402V271.509H56.4302ZM45.2402 271.509H34.0502V282.377H45.2402V271.509ZM34.0502 271.509L34.0502 260.641H22.8603L22.8603 271.509H34.0502ZM22.8603 271.509H11.6703V282.377H22.8603V271.509Z" fill="#5AAF21" fill-opacity="0.5"/>
<path d="M67.6201 249.773V206.3H0.480324V249.773H67.6201ZM67.6201 249.773H56.4302V238.905H45.2402V249.773H34.0502V238.905H22.8603V249.773H11.6703V238.905H0.480324V228.037H11.6703L11.6703 217.169H0.480324V206.3H11.6703V217.169H22.8603V206.3H34.0502V217.169H45.2402L45.2402 206.3H56.4302L56.4302 217.169H67.6201V228.037H56.4302V238.905H67.6201V249.773ZM56.4302 228.037V217.169H45.2402V228.037H56.4302ZM45.2402 228.037H34.0502V238.905H45.2402V228.037ZM34.0502 228.037L34.0502 217.169H22.8603L22.8603 228.037H34.0502ZM22.8603 228.037H11.6703V238.905H22.8603V228.037Z" fill="#5AAF21" fill-opacity="0.5"/>
<path d="M67.6201 206.301V162.828H0.480324V206.301H67.6201ZM67.6201 206.301H56.4302V195.432H45.2402V206.301H34.0502V195.432H22.8603V206.301H11.6703V195.432H0.480324V184.564H11.6703L11.6703 173.696H0.480324V162.828H11.6703V173.696H22.8603V162.828H34.0502V173.696H45.2402L45.2402 162.828H56.4302L56.4302 173.696H67.6201V184.564H56.4302V195.432H67.6201V206.301ZM56.4302 184.564V173.696H45.2402V184.564H56.4302ZM45.2402 184.564H34.0502V195.432H45.2402V184.564ZM34.0502 184.564L34.0502 173.696H22.8603L22.8603 184.564H34.0502ZM22.8603 184.564H11.6703V195.432H22.8603V184.564Z" fill="#5AAF21" fill-opacity="0.5"/>
<path d="M67.6201 162.828V119.356H0.480324V162.828H67.6201ZM67.6201 162.828H56.4302V151.96H45.2402V162.828H34.0502V151.96H22.8603V162.828H11.6703V151.96H0.480324V141.092H11.6703L11.6703 130.224H0.480324V119.356H11.6703V130.224H22.8603V119.356H34.0502V130.224H45.2402L45.2402 119.356H56.4302L56.4302 130.224H67.6201V141.092H56.4302V151.96H67.6201V162.828ZM56.4302 141.092V130.224H45.2402V141.092H56.4302ZM45.2402 141.092H34.0502V151.96H45.2402V141.092ZM34.0502 141.092L34.0502 130.224H22.8603L22.8603 141.092H34.0502ZM22.8603 141.092H11.6703V151.96H22.8603V141.092Z" fill="#5AAF21" fill-opacity="0.5"/>
<path d="M67.6201 119.356V75.8835H0.480324V119.356L67.6201 119.356ZM67.6201 119.356H56.4302V108.488H45.2402V119.356H34.0502V108.488H22.8603V119.356H11.6703V108.488H0.480324V97.6197H11.6703L11.6703 86.7516H0.480324V75.8835H11.6703V86.7516H22.8603V75.8835H34.0502V86.7516H45.2402L45.2402 75.8835H56.4302L56.4302 86.7516H67.6201V97.6197H56.4302V108.488H67.6201V119.356ZM56.4302 97.6197V86.7516H45.2402V97.6197H56.4302ZM45.2402 97.6197H34.0502V108.488H45.2402V97.6197ZM34.0502 97.6197L34.0502 86.7516H22.8603L22.8603 97.6197H34.0502ZM22.8603 97.6197H11.6703V108.488H22.8603V97.6197Z" fill="#5AAF21" fill-opacity="0.5"/>
<path d="M67.6201 75.8828V32.4103L0.480324 32.4103V75.8828L67.6201 75.8828ZM67.6201 75.8828H56.4302V65.0147H45.2402V75.8828H34.0502V65.0147H22.8603V75.8828H11.6703V65.0147H0.480324V54.1466H11.6703L11.6703 43.2785H0.480324V32.4103H11.6703V43.2785H22.8603V32.4103H34.0502V43.2785L45.2402 43.2785L45.2402 32.4103H56.4302L56.4302 43.2785H67.6201V54.1466H56.4302V65.0147H67.6201V75.8828ZM56.4302 54.1466V43.2785H45.2402V54.1466H56.4302ZM45.2402 54.1466H34.0502V65.0147H45.2402V54.1466ZM34.0502 54.1466L34.0502 43.2785H22.8603L22.8603 54.1466H34.0502ZM22.8603 54.1466L11.6703 54.1466V65.0147H22.8603V54.1466Z" fill="#5AAF21" fill-opacity="0.5"/>
<path d="M0.480469 336.959V380.432H67.6203V336.959H0.480469ZM0.480469 336.959H11.6704V347.827H22.8604V336.959H34.0504V347.827H45.2403V336.959H56.4303V347.827H67.6203V358.695H56.4303V369.564H67.6203V380.432H56.4303V369.564H45.2403V380.432H34.0504V369.564H22.8604V380.432H11.6704V369.564H0.480469V358.695H11.6704V347.827H0.480469V336.959ZM11.6704 358.695V369.564H22.8604V358.695H11.6704ZM22.8604 358.695H34.0504V347.827H22.8604V358.695ZM34.0504 358.695V369.564H45.2403V358.695H34.0504ZM45.2403 358.695H56.4303V347.827H45.2403V358.695Z" fill="#5AAF21" fill-opacity="0.5"/>
<path d="M0.480469 380.432V423.904H67.6203V380.432H0.480469ZM0.480469 380.432H11.6704V391.3H22.8604V380.432H34.0504V391.3H45.2403V380.432H56.4303V391.3H67.6203V402.168H56.4303V413.036H67.6203V423.904H56.4303V413.036H45.2403V423.904H34.0504V413.036H22.8604V423.904H11.6704V413.036H0.480469V402.168H11.6704V391.3H0.480469V380.432ZM11.6704 402.168V413.036H22.8604V402.168H11.6704ZM22.8604 402.168H34.0504V391.3H22.8604V402.168ZM34.0504 402.168V413.036H45.2403V402.168H34.0504ZM45.2403 402.168H56.4303V391.3H45.2403V402.168Z" fill="#5AAF21" fill-opacity="0.5"/>
<path d="M67.123 336.959V380.432H134.263V336.959H67.123ZM67.123 336.959H78.313V347.827H89.503V336.959H100.693V347.827H111.883V336.959H123.073V347.827H134.263V358.695H123.073V369.564H134.263V380.432H123.073V369.564H111.883V380.432H100.693V369.564H89.503V380.432H78.313V369.564H67.123V358.695H78.313V347.827H67.123V336.959ZM78.313 358.695V369.564H89.503V358.695H78.313ZM89.503 358.695H100.693V347.827H89.503V358.695ZM100.693 358.695V369.564H111.883V358.695H100.693ZM111.883 358.695H123.073V347.827H111.883V358.695Z" fill="#5AAF21" fill-opacity="0.5"/>
<path d="M67.123 380.432V423.904H134.263V380.432H67.123ZM67.123 380.432H78.313V391.3H89.503V380.432H100.693V391.3H111.883V380.432H123.073V391.3H134.263V402.168H123.073V413.036H134.263V423.904H123.073V413.036H111.883V423.904H100.693V413.036H89.503V423.904H78.313V413.036H67.123V402.168H78.313V391.3H67.123V380.432ZM78.313 402.168V413.036H89.503V402.168H78.313ZM89.503 402.168H100.693V391.3H89.503V402.168ZM100.693 402.168V413.036H111.883V402.168H100.693ZM111.883 402.168H123.073V391.3H111.883V402.168Z" fill="#5AAF21" fill-opacity="0.5"/>
<path d="M133.766 336.959V380.432H200.905V336.959H133.766ZM133.766 336.959H144.956V347.827H156.146V336.959H167.336V347.827H178.525V336.959H189.715V347.827H200.905V358.695H189.715V369.564H200.905V380.432H189.715V369.564H178.525V380.432H167.336V369.564H156.146V380.432H144.956V369.564H133.766V358.695H144.956V347.827H133.766V336.959ZM144.956 358.695V369.564H156.146V358.695H144.956ZM156.146 358.695H167.336V347.827H156.146V358.695ZM167.336 358.695V369.564H178.525V358.695H167.336ZM178.525 358.695H189.715V347.827H178.525V358.695Z" fill="#5AAF21" fill-opacity="0.5"/>
<path d="M133.766 380.432V423.904H200.905V380.432H133.766ZM133.766 380.432H144.956V391.3H156.146V380.432H167.336V391.3H178.525V380.432H189.715V391.3H200.905V402.168H189.715V413.036H200.905V423.904H189.715V413.036H178.525V423.904H167.336V413.036H156.146V423.904H144.956V413.036H133.766V402.168H144.956V391.3H133.766V380.432ZM144.956 402.168V413.036H156.146V402.168H144.956ZM156.146 402.168H167.336V391.3H156.146V402.168ZM167.336 402.168V413.036H178.525V402.168H167.336ZM178.525 402.168H189.715V391.3H178.525V402.168Z" fill="#5AAF21" fill-opacity="0.5"/>
<path d="M200.408 336.959V380.432H267.548V336.959H200.408ZM200.408 336.959H211.598V347.827H222.788V336.959H233.978V347.827H245.168V336.959H256.358V347.827H267.548V358.695H256.358V369.564H267.548V380.432H256.358V369.564H245.168V380.432H233.978V369.564H222.788V380.432H211.598V369.564H200.408V358.695H211.598V347.827H200.408V336.959ZM211.598 358.695V369.564H222.788V358.695H211.598ZM222.788 358.695H233.978V347.827H222.788V358.695ZM233.978 358.695V369.564H245.168V358.695H233.978ZM245.168 358.695H256.358V347.827H245.168V358.695Z" fill="#5AAF21" fill-opacity="0.5"/>
<path d="M200.408 380.432V423.904H267.548V380.432H200.408ZM200.408 380.432H211.598V391.3H222.788V380.432H233.978V391.3H245.168V380.432H256.358V391.3H267.548V402.168H256.358V413.036H267.548V423.904H256.358V413.036H245.168V423.904H233.978V413.036H222.788V423.904H211.598V413.036H200.408V402.168H211.598V391.3H200.408V380.432ZM211.598 402.168V413.036H222.788V402.168H211.598ZM222.788 402.168H233.978V391.3H222.788V402.168ZM233.978 402.168V413.036H245.168V402.168H233.978ZM245.168 402.168H256.358V391.3H245.168V402.168Z" fill="#5AAF21" fill-opacity="0.5"/>
<path d="M267.051 336.959V380.432H334.191V336.959H267.051ZM267.051 336.959H278.241V347.827H289.431V336.959H300.621V347.827H311.811V336.959H323.001V347.827H334.191V358.695H323.001V369.564H334.191V380.432H323.001V369.564H311.811V380.432H300.621V369.564H289.431V380.432H278.241V369.564H267.051V358.695H278.241V347.827H267.051V336.959ZM278.241 358.695V369.564H289.431V358.695H278.241ZM289.431 358.695H300.621V347.827H289.431V358.695ZM300.621 358.695V369.564H311.811V358.695H300.621ZM311.811 358.695H323.001V347.827H311.811V358.695Z" fill="#5AAF21" fill-opacity="0.5"/>
<path d="M267.051 380.432V423.904H334.191V380.432H267.051ZM267.051 380.432H278.241V391.3H289.431V380.432H300.621V391.3H311.811V380.432H323.001V391.3H334.191V402.168H323.001V413.036H334.191V423.904H323.001V413.036H311.811V423.904H300.621V413.036H289.431V423.904H278.241V413.036H267.051V402.168H278.241V391.3H267.051V380.432ZM278.241 402.168V413.036H289.431V402.168H278.241ZM289.431 402.168H300.621V391.3H289.431V402.168ZM300.621 402.168V413.036H311.811V402.168H300.621ZM311.811 402.168H323.001V391.3H311.811V402.168Z" fill="#5AAF21" fill-opacity="0.5"/>
<path d="M333.692 336.959V380.432H400.832V336.959H333.692ZM333.692 336.959H344.882V347.827H356.072V336.959H367.262V347.827H378.452V336.959H389.642V347.827H400.832V358.695H389.642V369.564H400.832V380.432H389.642V369.564H378.452V380.432H367.262V369.564H356.072V380.432H344.882V369.564H333.692V358.695H344.882V347.827H333.692V336.959ZM344.882 358.695V369.564H356.072V358.695H344.882ZM356.072 358.695H367.262V347.827H356.072V358.695ZM367.262 358.695V369.564H378.452V358.695H367.262ZM378.452 358.695H389.642V347.827H378.452V358.695Z" fill="#5AAF21" fill-opacity="0.5"/>
<path d="M333.692 380.432V423.904H400.832V380.432H333.692ZM333.692 380.432H344.882V391.3H356.072V380.432H367.262V391.3H378.452V380.432H389.642V391.3H400.832V402.168H389.642V413.036H400.832V423.904H389.642V413.036H378.452V423.904H367.262V413.036H356.072V423.904H344.882V413.036H333.692V402.168H344.882V391.3H333.692V380.432ZM344.882 402.168V413.036H356.072V402.168H344.882ZM356.072 402.168H367.262V391.3H356.072V402.168ZM367.262 402.168V413.036H378.452V402.168H367.262ZM378.452 402.168H389.642V391.3H378.452V402.168Z" fill="#5AAF21" fill-opacity="0.5"/>
<path d="M400.335 336.959V380.432H467.475V336.959H400.335ZM400.335 336.959H411.525V347.827H422.715V336.959H433.905V347.827H445.095V336.959H456.285V347.827H467.475V358.695H456.285V369.564H467.475V380.432H456.285V369.564H445.095V380.432H433.905V369.564H422.715V380.432H411.525V369.564H400.335V358.695H411.525V347.827H400.335V336.959ZM411.525 358.695V369.564H422.715V358.695H411.525ZM422.715 358.695H433.905V347.827H422.715V358.695ZM433.905 358.695V369.564H445.095V358.695H433.905ZM445.095 358.695H456.285V347.827H445.095V358.695Z" fill="#5AAF21" fill-opacity="0.5"/>
<path d="M400.335 380.432V423.904H467.475V380.432H400.335ZM400.335 380.432H411.525V391.3H422.715V380.432H433.905V391.3H445.095V380.432H456.285V391.3H467.475V402.168H456.285V413.036H467.475V423.904H456.285V413.036H445.095V423.904H433.905V413.036H422.715V423.904H411.525V413.036H400.335V402.168H411.525V391.3H400.335V380.432ZM411.525 402.168V413.036H422.715V402.168H411.525ZM422.715 402.168H433.905V391.3H422.715V402.168ZM433.905 402.168V413.036H445.095V402.168H433.905ZM445.095 402.168H456.285V391.3H445.095V402.168Z" fill="#5AAF21" fill-opacity="0.5"/>
<path d="M466.978 336.959V380.432H534.117V336.959H466.978ZM466.978 336.959H478.168V347.827H489.357V336.959H500.547V347.827H511.737V336.959H522.927V347.827H534.117V358.695H522.927V369.564H534.117V380.432H522.927V369.564H511.737V380.432H500.547V369.564H489.357V380.432H478.168V369.564H466.978V358.695H478.168V347.827H466.978V336.959ZM478.168 358.695V369.564H489.357V358.695H478.168ZM489.357 358.695H500.547V347.827H489.357V358.695ZM500.547 358.695V369.564H511.737V358.695H500.547ZM511.737 358.695H522.927V347.827H511.737V358.695Z" fill="#5AAF21" fill-opacity="0.5"/>
<path d="M466.978 380.432V423.904H534.117V380.432H466.978ZM466.978 380.432H478.168V391.3H489.357V380.432H500.547V391.3H511.737V380.432H522.927V391.3H534.117V402.168H522.927V413.036H534.117V423.904H522.927V413.036H511.737V423.904H500.547V413.036H489.357V423.904H478.168V413.036H466.978V402.168H478.168V391.3H466.978V380.432ZM478.168 402.168V413.036H489.357V402.168H478.168ZM489.357 402.168H500.547V391.3H489.357V402.168ZM500.547 402.168V413.036H511.737V402.168H500.547ZM511.737 402.168H522.927V391.3H511.737V402.168Z" fill="#5AAF21" fill-opacity="0.5"/>
<path d="M533.62 336.959V380.432H600.76V336.959H533.62ZM533.62 336.959H544.81V347.827H556V336.959H567.19V347.827H578.38V336.959H589.57V347.827H600.76V358.695H589.57V369.564H600.76V380.432H589.57V369.564H578.38V380.432H567.19V369.564H556V380.432H544.81V369.564H533.62V358.695H544.81V347.827H533.62V336.959ZM544.81 358.695V369.564H556V358.695H544.81ZM556 358.695H567.19V347.827H556V358.695ZM567.19 358.695V369.564H578.38V358.695H567.19ZM578.38 358.695H589.57V347.827H578.38V358.695Z" fill="#5AAF21" fill-opacity="0.5"/>
<path d="M533.62 380.432V423.904H600.76V380.432H533.62ZM533.62 380.432H544.81V391.3H556V380.432H567.19V391.3H578.38V380.432H589.57V391.3H600.76V402.168H589.57V413.036H600.76V423.904H589.57V413.036H578.38V423.904H567.19V413.036H556V423.904H544.81V413.036H533.62V402.168H544.81V391.3H533.62V380.432ZM544.81 402.168V413.036H556V402.168H544.81ZM556 402.168H567.19V391.3H556V402.168ZM567.19 402.168V413.036H578.38V402.168H567.19ZM578.38 402.168H589.57V391.3H578.38V402.168Z" fill="#5AAF21" fill-opacity="0.5"/>
<path d="M600.263 336.959V380.432H667.402V336.959H600.263ZM600.263 336.959H611.453V347.827H622.643V336.959H633.833V347.827H645.023V336.959H656.213V347.827H667.402V358.695H656.213V369.564H667.402V380.432H656.213V369.564H645.023V380.432H633.833V369.564H622.643V380.432H611.453V369.564H600.263V358.695H611.453V347.827H600.263V336.959ZM611.453 358.695V369.564H622.643V358.695H611.453ZM622.643 358.695H633.833V347.827H622.643V358.695ZM633.833 358.695V369.564H645.023V358.695H633.833ZM645.023 358.695H656.213V347.827H645.023V358.695Z" fill="#5AAF21" fill-opacity="0.5"/>
<path d="M600.263 380.432V423.904H667.402V380.432H600.263ZM600.263 380.432H611.453V391.3H622.643V380.432H633.833V391.3H645.023V380.432H656.213V391.3H667.402V402.168H656.213V413.036H667.402V423.904H656.213V413.036H645.023V423.904H633.833V413.036H622.643V423.904H611.453V413.036H600.263V402.168H611.453V391.3H600.263V380.432ZM611.453 402.168V413.036H622.643V402.168H611.453ZM622.643 402.168H633.833V391.3H622.643V402.168ZM633.833 402.168V413.036H645.023V402.168H633.833ZM645.023 402.168H656.213V391.3H645.023V402.168Z" fill="#5AAF21" fill-opacity="0.5"/>
<path d="M933.973 32.4102V-0.194199L866.833 7.05121V32.4102L933.973 32.4102ZM933.973 32.4102H922.783V21.542H911.593V32.4102L900.403 32.4102V21.542L889.213 21.542V32.4102H878.023V21.542H866.833V10.6739H878.023V-0.194199H889.213H900.403L911.593 -0.194199H922.783H933.973V10.6739H922.783V21.542H933.973V32.4102ZM922.783 10.6739V-0.194199H911.593V10.6739L922.783 10.6739ZM911.593 10.6739H900.403V21.542L911.593 21.542V10.6739ZM900.403 10.6739V-0.194199H889.213V10.6739H900.403ZM889.213 10.6739L878.023 10.6739V21.542H889.213V10.6739Z" fill="#5AAF21" fill-opacity="0.5"/>
<path d="M867.33 32.4102V-0.194199L800.19 7.05121V32.4102L867.33 32.4102ZM867.33 32.4102H856.14V21.542H844.95V32.4102L833.76 32.4102V21.542L822.57 21.542V32.4102H811.38V21.542H800.19V10.6739H811.38V-0.194199H822.57H833.76L844.95 -0.194199H856.14H867.33V10.6739H856.14V21.542H867.33V32.4102ZM856.14 10.6739V-0.194199H844.95V10.6739L856.14 10.6739ZM844.95 10.6739H833.76V21.542L844.95 21.542V10.6739ZM833.76 10.6739V-0.194199H822.57V10.6739H833.76ZM822.57 10.6739L811.38 10.6739V21.542H822.57V10.6739Z" fill="#5AAF21" fill-opacity="0.5"/>
<path d="M800.688 32.4102V-0.194199L733.548 7.05121V32.4102L800.688 32.4102ZM800.688 32.4102H789.498V21.542H778.308V32.4102L767.118 32.4102V21.542L755.928 21.542V32.4102H744.738V21.542H733.548V10.6739H744.738V-0.194199H755.928H767.118L778.308 -0.194199H789.498H800.688V10.6739H789.498V21.542H800.688V32.4102ZM789.498 10.6739V-0.194199H778.308V10.6739L789.498 10.6739ZM778.308 10.6739H767.118V21.542L778.308 21.542V10.6739ZM767.118 10.6739V-0.194199H755.928V10.6739H767.118ZM755.928 10.6739L744.738 10.6739V21.542H755.928V10.6739Z" fill="#5AAF21" fill-opacity="0.5"/>
<path d="M734.045 32.4102V-0.194199L666.905 7.05121V32.4102L734.045 32.4102ZM734.045 32.4102H722.855V21.542H711.665V32.4102L700.475 32.4102V21.542L689.285 21.542V32.4102H678.095V21.542H666.905V10.6739H678.095V-0.194199H689.285H700.475L711.665 -0.194199H722.855H734.045V10.6739H722.855V21.542H734.045V32.4102ZM722.855 10.6739V-0.194199H711.665V10.6739L722.855 10.6739ZM711.665 10.6739H700.475V21.542L711.665 21.542V10.6739ZM700.475 10.6739V-0.194199H689.285V10.6739H700.475ZM689.285 10.6739L678.095 10.6739V21.542H689.285V10.6739Z" fill="#5AAF21" fill-opacity="0.5"/>
<path d="M933.973 336.718V293.245H866.833V336.718H933.973ZM933.973 336.718H922.783V325.85H911.593V336.718H900.403V325.85H889.213V336.718H878.023V325.85H866.833V314.982H878.023V304.113H866.833V293.245H878.023V304.113H889.213V293.245H900.403V304.113H911.593V293.245H922.783V304.113H933.973V314.982H922.783V325.85H933.973V336.718ZM922.783 314.982V304.113H911.593V314.982H922.783ZM911.593 314.982H900.403V325.85H911.593V314.982ZM900.403 314.982V304.113H889.213V314.982H900.403ZM889.213 314.982H878.023V325.85H889.213V314.982Z" fill="#5AAF21" fill-opacity="0.5"/>
<path d="M933.973 293.246V249.773H866.833V293.246H933.973ZM933.973 293.246H922.783V282.377H911.593V293.246H900.403V282.377H889.213V293.246H878.023V282.377H866.833V271.509H878.023V260.641H866.833V249.773H878.023V260.641H889.213V249.773H900.403V260.641H911.593V249.773H922.783V260.641H933.973V271.509H922.783V282.377H933.973V293.246ZM922.783 271.509V260.641H911.593V271.509H922.783ZM911.593 271.509H900.403V282.377H911.593V271.509ZM900.403 271.509V260.641H889.213V271.509H900.403ZM889.213 271.509H878.023V282.377H889.213V271.509Z" fill="#5AAF21" fill-opacity="0.5"/>
<path d="M933.973 249.773V206.3H866.833V249.773H933.973ZM933.973 249.773H922.783V238.905H911.593V249.773H900.403V238.905H889.213V249.773H878.023V238.905H866.833V228.037H878.023V217.169H866.833V206.3H878.023V217.169H889.213V206.3H900.403V217.169H911.593V206.3H922.783V217.169H933.973V228.037H922.783V238.905H933.973V249.773ZM922.783 228.037V217.169H911.593V228.037H922.783ZM911.593 228.037H900.403V238.905H911.593V228.037ZM900.403 228.037V217.169H889.213V228.037H900.403ZM889.213 228.037H878.023V238.905H889.213V228.037Z" fill="#5AAF21" fill-opacity="0.5"/>
<path d="M933.973 206.301V162.828H866.833V206.301H933.973ZM933.973 206.301H922.783V195.432H911.593V206.301H900.403V195.432H889.213V206.301H878.023V195.432H866.833V184.564H878.023V173.696H866.833V162.828H878.023V173.696H889.213V162.828H900.403V173.696H911.593V162.828H922.783V173.696H933.973V184.564H922.783V195.432H933.973V206.301ZM922.783 184.564V173.696H911.593V184.564H922.783ZM911.593 184.564H900.403V195.432H911.593V184.564ZM900.403 184.564V173.696H889.213V184.564H900.403ZM889.213 184.564H878.023V195.432H889.213V184.564Z" fill="#5AAF21" fill-opacity="0.5"/>
<path d="M933.973 162.828V119.356H866.833V162.828H933.973ZM933.973 162.828H922.783V151.96H911.593V162.828H900.403V151.96H889.213V162.828H878.023V151.96H866.833V141.092H878.023V130.224H866.833V119.356H878.023V130.224H889.213V119.356H900.403V130.224H911.593V119.356H922.783V130.224H933.973V141.092H922.783V151.96H933.973V162.828ZM922.783 141.092V130.224H911.593V141.092H922.783ZM911.593 141.092H900.403V151.96H911.593V141.092ZM900.403 141.092V130.224H889.213V141.092H900.403ZM889.213 141.092H878.023V151.96H889.213V141.092Z" fill="#5AAF21" fill-opacity="0.5"/>
<path d="M933.973 119.356V75.8835H866.833V119.356L933.973 119.356ZM933.973 119.356H922.783V108.488H911.593V119.356H900.403V108.488H889.213V119.356H878.023V108.488H866.833V97.6197H878.023V86.7516H866.833V75.8835H878.023V86.7516H889.213V75.8835H900.403V86.7516H911.593V75.8835H922.783V86.7516H933.973V97.6197H922.783V108.488H933.973V119.356ZM922.783 97.6197V86.7516H911.593V97.6197H922.783ZM911.593 97.6197H900.403V108.488H911.593V97.6197ZM900.403 97.6197V86.7516H889.213V97.6197H900.403ZM889.213 97.6197H878.023V108.488H889.213V97.6197Z" fill="#5AAF21" fill-opacity="0.5"/>
<path d="M933.973 75.8828V32.4103L866.833 32.4103V75.8828L933.973 75.8828ZM933.973 75.8828H922.783V65.0147H911.593V75.8828H900.403V65.0147H889.213V75.8828H878.023V65.0147H866.833V54.1466H878.023V43.2785H866.833V32.4103H878.023V43.2785H889.213V32.4103H900.403V43.2785L911.593 43.2785V32.4103H922.783V43.2785H933.973V54.1466H922.783V65.0147H933.973V75.8828ZM922.783 54.1466V43.2785H911.593V54.1466H922.783ZM911.593 54.1466H900.403V65.0147H911.593V54.1466ZM900.403 54.1466V43.2785H889.213V54.1466H900.403ZM889.213 54.1466L878.023 54.1466V65.0147H889.213V54.1466Z" fill="#5AAF21" fill-opacity="0.5"/>
<path d="M867.33 336.718V293.245H800.19V336.718H867.33ZM867.33 336.718H856.14V325.85H844.95V336.718H833.76V325.85H822.57V336.718H811.38V325.85H800.19V314.982H811.38V304.113H800.19V293.245H811.38V304.113H822.57V293.245H833.76V304.113H844.95V293.245H856.14V304.113H867.33V314.982H856.14V325.85H867.33V336.718ZM856.14 314.982V304.113H844.95V314.982H856.14ZM844.95 314.982H833.76V325.85H844.95V314.982ZM833.76 314.982V304.113H822.57V314.982H833.76ZM822.57 314.982H811.38V325.85H822.57V314.982Z" fill="#5AAF21" fill-opacity="0.5"/>
<path d="M867.33 293.246V249.773H800.19V293.246H867.33ZM867.33 293.246H856.14V282.377H844.95V293.246H833.76V282.377H822.57V293.246H811.38V282.377H800.19V271.509H811.38V260.641H800.19V249.773H811.38V260.641H822.57V249.773H833.76V260.641H844.95V249.773H856.14V260.641H867.33V271.509H856.14V282.377H867.33V293.246ZM856.14 271.509V260.641H844.95V271.509H856.14ZM844.95 271.509H833.76V282.377H844.95V271.509ZM833.76 271.509V260.641H822.57V271.509H833.76ZM822.57 271.509H811.38V282.377H822.57V271.509Z" fill="#5AAF21" fill-opacity="0.5"/>
<path d="M867.33 249.773V206.3H800.19V249.773H867.33ZM867.33 249.773H856.14V238.905H844.95V249.773H833.76V238.905H822.57V249.773H811.38V238.905H800.19V228.037H811.38V217.169H800.19V206.3H811.38V217.169H822.57V206.3H833.76V217.169H844.95V206.3H856.14V217.169H867.33V228.037H856.14V238.905H867.33V249.773ZM856.14 228.037V217.169H844.95V228.037H856.14ZM844.95 228.037H833.76V238.905H844.95V228.037ZM833.76 228.037V217.169H822.57V228.037H833.76ZM822.57 228.037H811.38V238.905H822.57V228.037Z" fill="#5AAF21" fill-opacity="0.5"/>
<path d="M867.33 206.301V162.828H800.19V206.301H867.33ZM867.33 206.301H856.14V195.432H844.95V206.301H833.76V195.432H822.57V206.301H811.38V195.432H800.19V184.564H811.38V173.696H800.19V162.828H811.38V173.696H822.57V162.828H833.76V173.696H844.95V162.828H856.14V173.696H867.33V184.564H856.14V195.432H867.33V206.301ZM856.14 184.564V173.696H844.95V184.564H856.14ZM844.95 184.564H833.76V195.432H844.95V184.564ZM833.76 184.564V173.696H822.57V184.564H833.76ZM822.57 184.564H811.38V195.432H822.57V184.564Z" fill="#5AAF21" fill-opacity="0.5"/>
<path d="M867.33 162.828V119.356H800.19V162.828H867.33ZM867.33 162.828H856.14V151.96H844.95V162.828H833.76V151.96H822.57V162.828H811.38V151.96H800.19V141.092H811.38V130.224H800.19V119.356H811.38V130.224H822.57V119.356H833.76V130.224H844.95V119.356H856.14V130.224H867.33V141.092H856.14V151.96H867.33V162.828ZM856.14 141.092V130.224H844.95V141.092H856.14ZM844.95 141.092H833.76V151.96H844.95V141.092ZM833.76 141.092V130.224H822.57V141.092H833.76ZM822.57 141.092H811.38V151.96H822.57V141.092Z" fill="#5AAF21" fill-opacity="0.5"/>
<path d="M867.33 119.356V75.8835H800.19V119.356L867.33 119.356ZM867.33 119.356H856.14V108.488H844.95V119.356H833.76V108.488H822.57V119.356H811.38V108.488H800.19V97.6197H811.38V86.7516H800.19V75.8835H811.38V86.7516H822.57V75.8835H833.76V86.7516H844.95V75.8835H856.14V86.7516H867.33V97.6197H856.14V108.488H867.33V119.356ZM856.14 97.6197V86.7516H844.95V97.6197H856.14ZM844.95 97.6197H833.76V108.488H844.95V97.6197ZM833.76 97.6197V86.7516H822.57V97.6197H833.76ZM822.57 97.6197H811.38V108.488H822.57V97.6197Z" fill="#5AAF21" fill-opacity="0.5"/>
<path d="M867.33 75.8828V32.4103L800.19 32.4103V75.8828L867.33 75.8828ZM867.33 75.8828H856.14V65.0147H844.95V75.8828H833.76V65.0147H822.57V75.8828H811.38V65.0147H800.19V54.1466H811.38V43.2785H800.19V32.4103H811.38V43.2785H822.57V32.4103H833.76V43.2785L844.95 43.2785V32.4103H856.14V43.2785H867.33V54.1466H856.14V65.0147H867.33V75.8828ZM856.14 54.1466V43.2785H844.95V54.1466H856.14ZM844.95 54.1466H833.76V65.0147H844.95V54.1466ZM833.76 54.1466V43.2785H822.57V54.1466H833.76ZM822.57 54.1466L811.38 54.1466V65.0147H822.57V54.1466Z" fill="#5AAF21" fill-opacity="0.5"/>
<path d="M800.688 336.718V293.245H733.548V336.718H800.688ZM800.688 336.718H789.498V325.85H778.308V336.718H767.118V325.85H755.928V336.718H744.738V325.85H733.548V314.982H744.738V304.113H733.548V293.245H744.738V304.113H755.928V293.245H767.118V304.113H778.308V293.245H789.498V304.113H800.688V314.982H789.498V325.85H800.688V336.718ZM789.498 314.982V304.113H778.308V314.982H789.498ZM778.308 314.982H767.118V325.85H778.308V314.982ZM767.118 314.982V304.113H755.928V314.982H767.118ZM755.928 314.982H744.738V325.85H755.928V314.982Z" fill="#5AAF21" fill-opacity="0.5"/>
<path d="M800.688 293.246V249.773H733.548V293.246H800.688ZM800.688 293.246H789.498V282.377H778.308V293.246H767.118V282.377H755.928V293.246H744.738V282.377H733.548V271.509H744.738V260.641H733.548V249.773H744.738V260.641H755.928V249.773H767.118V260.641H778.308V249.773H789.498V260.641H800.688V271.509H789.498V282.377H800.688V293.246ZM789.498 271.509V260.641H778.308V271.509H789.498ZM778.308 271.509H767.118V282.377H778.308V271.509ZM767.118 271.509V260.641H755.928V271.509H767.118ZM755.928 271.509H744.738V282.377H755.928V271.509Z" fill="#5AAF21" fill-opacity="0.5"/>
<path d="M800.688 249.773V206.3H733.548V249.773H800.688ZM800.688 249.773H789.498V238.905H778.308V249.773H767.118V238.905H755.928V249.773H744.738V238.905H733.548V228.037H744.738V217.169H733.548V206.3H744.738V217.169H755.928V206.3H767.118V217.169H778.308V206.3H789.498V217.169H800.688V228.037H789.498V238.905H800.688V249.773ZM789.498 228.037V217.169H778.308V228.037H789.498ZM778.308 228.037H767.118V238.905H778.308V228.037ZM767.118 228.037V217.169H755.928V228.037H767.118ZM755.928 228.037H744.738V238.905H755.928V228.037Z" fill="#5AAF21" fill-opacity="0.5"/>
<path d="M800.688 206.301V162.828H733.548V206.301H800.688ZM800.688 206.301H789.498V195.432H778.308V206.301H767.118V195.432H755.928V206.301H744.738V195.432H733.548V184.564H744.738V173.696H733.548V162.828H744.738V173.696H755.928V162.828H767.118V173.696H778.308V162.828H789.498V173.696H800.688V184.564H789.498V195.432H800.688V206.301ZM789.498 184.564V173.696H778.308V184.564H789.498ZM778.308 184.564H767.118V195.432H778.308V184.564ZM767.118 184.564V173.696H755.928V184.564H767.118ZM755.928 184.564H744.738V195.432H755.928V184.564Z" fill="#5AAF21" fill-opacity="0.5"/>
<path d="M800.688 162.828V119.356H733.548V162.828H800.688ZM800.688 162.828H789.498V151.96H778.308V162.828H767.118V151.96H755.928V162.828H744.738V151.96H733.548V141.092H744.738V130.224H733.548V119.356H744.738V130.224H755.928V119.356H767.118V130.224H778.308V119.356H789.498V130.224H800.688V141.092H789.498V151.96H800.688V162.828ZM789.498 141.092V130.224H778.308V141.092H789.498ZM778.308 141.092H767.118V151.96H778.308V141.092ZM767.118 141.092V130.224H755.928V141.092H767.118ZM755.928 141.092H744.738V151.96H755.928V141.092Z" fill="#5AAF21" fill-opacity="0.5"/>
<path d="M800.688 119.356V75.8835H733.548V119.356L800.688 119.356ZM800.688 119.356H789.498V108.488H778.308V119.356H767.118V108.488H755.928V119.356H744.738V108.488H733.548V97.6197H744.738V86.7516H733.548V75.8835H744.738V86.7516H755.928V75.8835H767.118V86.7516H778.308V75.8835H789.498V86.7516H800.688V97.6197H789.498V108.488H800.688V119.356ZM789.498 97.6197V86.7516H778.308V97.6197H789.498ZM778.308 97.6197H767.118V108.488H778.308V97.6197ZM767.118 97.6197V86.7516H755.928V97.6197H767.118ZM755.928 97.6197H744.738V108.488H755.928V97.6197Z" fill="#5AAF21" fill-opacity="0.5"/>
<path d="M800.688 75.8828V32.4103L733.548 32.4103V75.8828L800.688 75.8828ZM800.688 75.8828H789.498V65.0147H778.308V75.8828H767.118V65.0147H755.928V75.8828H744.738V65.0147H733.548V54.1466H744.738V43.2785H733.548V32.4103H744.738V43.2785H755.928V32.4103H767.118V43.2785L778.308 43.2785V32.4103H789.498V43.2785H800.688V54.1466H789.498V65.0147H800.688V75.8828ZM789.498 54.1466V43.2785H778.308V54.1466H789.498ZM778.308 54.1466H767.118V65.0147H778.308V54.1466ZM767.118 54.1466V43.2785H755.928V54.1466H767.118ZM755.928 54.1466L744.738 54.1466V65.0147H755.928V54.1466Z" fill="#5AAF21" fill-opacity="0.5"/>
<path d="M734.045 336.718V293.245H666.905V336.718H734.045ZM734.045 336.718H722.855V325.85H711.665V336.718H700.475V325.85H689.285V336.718H678.095V325.85H666.905V314.982H678.095V304.113H666.905V293.245H678.095V304.113H689.285V293.245H700.475V304.113H711.665V293.245H722.855V304.113H734.045V314.982H722.855V325.85H734.045V336.718ZM722.855 314.982V304.113H711.665V314.982H722.855ZM711.665 314.982H700.475V325.85H711.665V314.982ZM700.475 314.982V304.113H689.285V314.982H700.475ZM689.285 314.982H678.095V325.85H689.285V314.982Z" fill="#5AAF21" fill-opacity="0.5"/>
<path d="M734.045 293.246V249.773H666.905V293.246H734.045ZM734.045 293.246H722.855V282.377H711.665V293.246H700.475V282.377H689.285V293.246H678.095V282.377H666.905V271.509H678.095V260.641H666.905V249.773H678.095V260.641H689.285V249.773H700.475V260.641H711.665V249.773H722.855V260.641H734.045V271.509H722.855V282.377H734.045V293.246ZM722.855 271.509V260.641H711.665V271.509H722.855ZM711.665 271.509H700.475V282.377H711.665V271.509ZM700.475 271.509V260.641H689.285V271.509H700.475ZM689.285 271.509H678.095V282.377H689.285V271.509Z" fill="#5AAF21" fill-opacity="0.5"/>
<path d="M734.045 249.773V206.3H666.905V249.773H734.045ZM734.045 249.773H722.855V238.905H711.665V249.773H700.475V238.905H689.285V249.773H678.095V238.905H666.905V228.037H678.095V217.169H666.905V206.3H678.095V217.169H689.285V206.3H700.475V217.169H711.665V206.3H722.855V217.169H734.045V228.037H722.855V238.905H734.045V249.773ZM722.855 228.037V217.169H711.665V228.037H722.855ZM711.665 228.037H700.475V238.905H711.665V228.037ZM700.475 228.037V217.169H689.285V228.037H700.475ZM689.285 228.037H678.095V238.905H689.285V228.037Z" fill="#5AAF21" fill-opacity="0.5"/>
<path d="M734.045 206.301V162.828H666.905V206.301H734.045ZM734.045 206.301H722.855V195.432H711.665V206.301H700.475V195.432H689.285V206.301H678.095V195.432H666.905V184.564H678.095V173.696H666.905V162.828H678.095V173.696H689.285V162.828H700.475V173.696H711.665V162.828H722.855V173.696H734.045V184.564H722.855V195.432H734.045V206.301ZM722.855 184.564V173.696H711.665V184.564H722.855ZM711.665 184.564H700.475V195.432H711.665V184.564ZM700.475 184.564V173.696H689.285V184.564H700.475ZM689.285 184.564H678.095V195.432H689.285V184.564Z" fill="#5AAF21" fill-opacity="0.5"/>
<path d="M734.045 162.828V119.356H666.905V162.828H734.045ZM734.045 162.828H722.855V151.96H711.665V162.828H700.475V151.96H689.285V162.828H678.095V151.96H666.905V141.092H678.095V130.224H666.905V119.356H678.095V130.224H689.285V119.356H700.475V130.224H711.665V119.356H722.855V130.224H734.045V141.092H722.855V151.96H734.045V162.828ZM722.855 141.092V130.224H711.665V141.092H722.855ZM711.665 141.092H700.475V151.96H711.665V141.092ZM700.475 141.092V130.224H689.285V141.092H700.475ZM689.285 141.092H678.095V151.96H689.285V141.092Z" fill="#5AAF21" fill-opacity="0.5"/>
<path d="M734.045 119.356V75.8835H666.905V119.356L734.045 119.356ZM734.045 119.356H722.855V108.488H711.665V119.356H700.475V108.488H689.285V119.356H678.095V108.488H666.905V97.6197H678.095V86.7516H666.905V75.8835H678.095V86.7516H689.285V75.8835H700.475V86.7516H711.665V75.8835H722.855V86.7516H734.045V97.6197H722.855V108.488H734.045V119.356ZM722.855 97.6197V86.7516H711.665V97.6197H722.855ZM711.665 97.6197H700.475V108.488H711.665V97.6197ZM700.475 97.6197V86.7516H689.285V97.6197H700.475ZM689.285 97.6197H678.095V108.488H689.285V97.6197Z" fill="#5AAF21" fill-opacity="0.5"/>
<path d="M734.045 75.8828V32.4103L666.905 32.4103V75.8828L734.045 75.8828ZM734.045 75.8828H722.855V65.0147H711.665V75.8828H700.475V65.0147H689.285V75.8828H678.095V65.0147H666.905V54.1466H678.095V43.2785H666.905V32.4103H678.095V43.2785H689.285V32.4103H700.475V43.2785L711.665 43.2785V32.4103H722.855V43.2785H734.045V54.1466H722.855V65.0147H734.045V75.8828ZM722.855 54.1466V43.2785H711.665V54.1466H722.855ZM711.665 54.1466H700.475V65.0147H711.665V54.1466ZM700.475 54.1466V43.2785H689.285V54.1466H700.475ZM689.285 54.1466L678.095 54.1466V65.0147H689.285V54.1466Z" fill="#5AAF21" fill-opacity="0.5"/>
<path d="M666.905 336.959V380.432H734.045V336.959H666.905ZM666.905 336.959H678.095V347.827H689.285V336.959H700.475V347.827H711.665V336.959H722.855V347.827H734.045V358.695H722.855V369.564H734.045V380.432H722.855V369.564H711.665V380.432H700.475V369.564H689.285V380.432H678.095V369.564H666.905V358.695H678.095V347.827H666.905V336.959ZM678.095 358.695V369.564H689.285V358.695H678.095ZM689.285 358.695H700.475V347.827H689.285V358.695ZM700.475 358.695V369.564H711.665V358.695H700.475ZM711.665 358.695H722.855V347.827H711.665V358.695Z" fill="#5AAF21" fill-opacity="0.5"/>
<path d="M666.905 380.432V423.904H734.045V380.432H666.905ZM666.905 380.432H678.095V391.3H689.285V380.432H700.475V391.3H711.665V380.432H722.855V391.3H734.045V402.168H722.855V413.036H734.045V423.904H722.855V413.036H711.665V423.904H700.475V413.036H689.285V423.904H678.095V413.036H666.905V402.168H678.095V391.3H666.905V380.432ZM678.095 402.168V413.036H689.285V402.168H678.095ZM689.285 402.168H700.475V391.3H689.285V402.168ZM700.475 402.168V413.036H711.665V402.168H700.475ZM711.665 402.168H722.855V391.3H711.665V402.168Z" fill="#5AAF21" fill-opacity="0.5"/>
<path d="M733.548 336.959V380.432H800.688V336.959H733.548ZM733.548 336.959H744.738V347.827H755.928V336.959H767.118V347.827H778.308V336.959H789.498V347.827H800.688V358.695H789.498V369.564H800.688V380.432H789.498V369.564H778.308V380.432H767.118V369.564H755.928V380.432H744.738V369.564H733.548V358.695H744.738V347.827H733.548V336.959ZM744.738 358.695V369.564H755.928V358.695H744.738ZM755.928 358.695H767.118V347.827H755.928V358.695ZM767.118 358.695V369.564H778.308V358.695H767.118ZM778.308 358.695H789.498V347.827H778.308V358.695Z" fill="#5AAF21" fill-opacity="0.5"/>
<path d="M733.548 380.432V423.904H800.688V380.432H733.548ZM733.548 380.432H744.738V391.3H755.928V380.432H767.118V391.3H778.308V380.432H789.498V391.3H800.688V402.168H789.498V413.036H800.688V423.904H789.498V413.036H778.308V423.904H767.118V413.036H755.928V423.904H744.738V413.036H733.548V402.168H744.738V391.3H733.548V380.432ZM744.738 402.168V413.036H755.928V402.168H744.738ZM755.928 402.168H767.118V391.3H755.928V402.168ZM767.118 402.168V413.036H778.308V402.168H767.118ZM778.308 402.168H789.498V391.3H778.308V402.168Z" fill="#5AAF21" fill-opacity="0.5"/>
<path d="M800.19 336.959V380.432H867.33V336.959H800.19ZM800.19 336.959H811.38V347.827H822.57V336.959H833.76V347.827H844.95V336.959H856.14V347.827H867.33V358.695H856.14V369.564H867.33V380.432H856.14V369.564H844.95V380.432H833.76V369.564H822.57V380.432H811.38V369.564H800.19V358.695H811.38V347.827H800.19V336.959ZM811.38 358.695V369.564H822.57V358.695H811.38ZM822.57 358.695H833.76V347.827H822.57V358.695ZM833.76 358.695V369.564H844.95V358.695H833.76ZM844.95 358.695H856.14V347.827H844.95V358.695Z" fill="#5AAF21" fill-opacity="0.5"/>
<path d="M800.19 380.432V423.904H867.33V380.432H800.19ZM800.19 380.432H811.38V391.3H822.57V380.432H833.76V391.3H844.95V380.432H856.14V391.3H867.33V402.168H856.14V413.036H867.33V423.904H856.14V413.036H844.95V423.904H833.76V413.036H822.57V423.904H811.38V413.036H800.19V402.168H811.38V391.3H800.19V380.432ZM811.38 402.168V413.036H822.57V402.168H811.38ZM822.57 402.168H833.76V391.3H822.57V402.168ZM833.76 402.168V413.036H844.95V402.168H833.76ZM844.95 402.168H856.14V391.3H844.95V402.168Z" fill="#5AAF21" fill-opacity="0.5"/>
<path d="M866.832 336.959V380.432H933.972V336.959H866.832ZM866.832 336.959H878.022V347.827H889.212V336.959H900.402V347.827H911.592V336.959H922.782V347.827H933.972V358.695H922.782V369.564H933.972V380.432H922.782V369.564H911.592V380.432H900.402V369.564H889.212V380.432H878.022V369.564H866.832V358.695H878.022V347.827H866.832V336.959ZM878.022 358.695V369.564H889.212V358.695H878.022ZM889.212 358.695H900.402V347.827H889.212V358.695ZM900.402 358.695V369.564H911.592V358.695H900.402ZM911.592 358.695H922.782V347.827H911.592V358.695Z" fill="#5AAF21" fill-opacity="0.5"/>
<path d="M866.832 380.432V423.904H933.972V380.432H866.832ZM866.832 380.432H878.022V391.3H889.212V380.432H900.402V391.3H911.592V380.432H922.782V391.3H933.972V402.168H922.782V413.036H933.972V423.904H922.782V413.036H911.592V423.904H900.402V413.036H889.212V423.904H878.022V413.036H866.832V402.168H878.022V391.3H866.832V380.432ZM878.022 402.168V413.036H889.212V402.168H878.022ZM889.212 402.168H900.402V391.3H889.212V402.168ZM900.402 402.168V413.036H911.592V402.168H900.402ZM911.592 402.168H922.782V391.3H911.592V402.168Z" fill="#5AAF21" fill-opacity="0.5"/>
</g>
<path d="M41.3536 54.0801L38.7022 62.2995H44.005L41.3536 54.0801Z" fill="#357C05"/>
<path d="M891.48 45.3145L888.48 42.3145L900.48 30.3145L888.48 18.3145L891.48 15.3145L903.48 27.3145L915.48 15.3145L918.48 18.3145L906.48 30.3145L918.48 42.3145L915.48 45.3145L903.48 33.3145L891.48 45.3145Z" fill="#357C05"/>
<path d="M856.98 41.718V23.9109H830.98M856.98 41.718V47.3145H824.48V23.9109H830.98M856.98 41.718H861.48V18.3145H830.98V23.9109" stroke="#357C05" stroke-width="3"/>
<path d="M812.48 45.3145V39.3145H776.48V45.3145H812.48Z" fill="#357C05"/>
<path d="M57.9923 66.575C61.2369 66.575 64.3486 65.3028 66.6429 63.0383C68.9372 60.7738 70.2261 57.7025 70.2261 54.5C70.2261 51.2975 68.9372 48.2262 66.6429 45.9617C64.3486 43.6972 61.2369 42.425 57.9923 42.425C54.7477 42.425 51.6359 43.6972 49.3417 45.9617C47.0474 48.2262 45.7584 51.2975 45.7584 54.5C45.7584 57.7025 47.0474 60.7738 49.3417 63.0383C51.6359 65.3028 54.7477 66.575 57.9923 66.575ZM32.0216 57.8465C31.8818 56.7425 31.7769 55.6385 31.7769 54.5C31.7769 53.3615 31.8818 52.223 32.0216 51.05L24.6463 45.4265C23.9822 44.909 23.8074 43.9775 24.2269 43.2185L31.2177 31.2815C31.6371 30.5225 32.5809 30.212 33.3498 30.5225L42.0533 33.9725C43.8709 32.627 45.7584 31.454 47.9605 30.5915L49.2538 21.449C49.3248 21.0427 49.5393 20.6742 49.8592 20.409C50.1791 20.1438 50.5837 19.9989 51.0015 20H64.983C65.8569 20 66.5909 20.621 66.7307 21.449L68.024 30.5915C70.2261 31.454 72.1136 32.627 73.9312 33.9725L82.6347 30.5225C83.4037 30.212 84.3475 30.5225 84.7669 31.2815L91.7577 43.2185C92.2121 43.9775 92.0023 44.909 91.3382 45.4265L83.963 51.05C84.1028 52.223 84.2076 53.3615 84.2076 54.5C84.2076 55.6385 84.1028 56.7425 83.963 57.8465L91.3382 63.5735C92.0023 64.091 92.2121 65.0225 91.7577 65.7815L84.7669 77.7185C84.3475 78.4775 83.4037 78.7535 82.6347 78.4775L73.9312 74.993C72.1136 76.373 70.2261 77.546 68.024 78.4085L66.7307 87.551C66.5909 88.379 65.8569 89 64.983 89H51.0015C50.1277 89 49.3936 88.379 49.2538 87.551L47.9605 78.4085C45.7584 77.5115 43.8709 76.373 42.0533 74.993L33.3498 78.4775C32.5809 78.7535 31.6371 78.4775 31.2177 77.7185L24.2269 65.7815C23.8074 65.0225 23.9822 64.091 24.6463 63.5735L32.0216 57.8465Z" fill="#357C05"/>
</svg>
