<svg width="1280" height="541" viewBox="0 0 1280 541" fill="none" xmlns="http://www.w3.org/2000/svg">
<path d="M25 537V-4.64916e-06" stroke="#5AAF21" stroke-opacity="0.5" stroke-width="3"/>
<path d="M1 541V4" stroke="#5AAF21" stroke-opacity="0.5" stroke-width="3"/>
<path d="M75 537V-4.64916e-06" stroke="#5AAF21" stroke-opacity="0.5" stroke-width="3"/>
<path d="M125 537V-4.64916e-06" stroke="#5AAF21" stroke-opacity="0.5" stroke-width="3"/>
<path d="M175 537V-4.64916e-06" stroke="#5AAF21" stroke-opacity="0.5" stroke-width="3"/>
<path d="M225 537V-4.64916e-06" stroke="#5AAF21" stroke-opacity="0.5" stroke-width="3"/>
<path d="M275 537V-4.64916e-06" stroke="#5AAF21" stroke-opacity="0.5" stroke-width="3"/>
<path d="M325 537V-4.64916e-06" stroke="#5AAF21" stroke-opacity="0.5" stroke-width="3"/>
<path d="M375 537V-4.64916e-06" stroke="#5AAF21" stroke-opacity="0.5" stroke-width="3"/>
<path d="M425 537V-4.64916e-06" stroke="#5AAF21" stroke-opacity="0.5" stroke-width="3"/>
<path d="M475 537V-4.64916e-06" stroke="#5AAF21" stroke-opacity="0.5" stroke-width="3"/>
<path d="M525 537V-4.64916e-06" stroke="#5AAF21" stroke-opacity="0.5" stroke-width="3"/>
<path d="M575 537V-4.64916e-06" stroke="#5AAF21" stroke-opacity="0.5" stroke-width="3"/>
<path d="M625 537V-4.64916e-06" stroke="#5AAF21" stroke-opacity="0.5" stroke-width="3"/>
<path d="M675 537V-4.64916e-06" stroke="#5AAF21" stroke-opacity="0.5" stroke-width="3"/>
<path d="M725 537V-4.64916e-06" stroke="#5AAF21" stroke-opacity="0.5" stroke-width="3"/>
<path d="M775 537V-4.64916e-06" stroke="#5AAF21" stroke-opacity="0.5" stroke-width="3"/>
<path d="M800 537V-4.64916e-06" stroke="#5AAF21" stroke-opacity="0.5" stroke-width="3"/>
<path d="M850 537V-4.64916e-06" stroke="#5AAF21" stroke-opacity="0.5" stroke-width="3"/>
<path d="M900 537V-4.64916e-06" stroke="#5AAF21" stroke-opacity="0.5" stroke-width="3"/>
<path d="M950 537V-4.64916e-06" stroke="#5AAF21" stroke-opacity="0.5" stroke-width="3"/>
<path d="M1000 537V-4.64916e-06" stroke="#5AAF21" stroke-opacity="0.5" stroke-width="3"/>
<path d="M1050 537V-4.64916e-06" stroke="#5AAF21" stroke-opacity="0.5" stroke-width="3"/>
<path d="M1125 537V-4.64916e-06" stroke="#5AAF21" stroke-opacity="0.5" stroke-width="3"/>
<path d="M1150 537V-4.64916e-06" stroke="#5AAF21" stroke-opacity="0.5" stroke-width="3"/>
<path d="M1225 537V-4.64916e-06" stroke="#5AAF21" stroke-opacity="0.5" stroke-width="3"/>
<path d="M1275 536L1275 1.4782e-05" stroke="#5AAF21" stroke-opacity="0.5" stroke-width="3"/>
<path d="M50 537V-4.64916e-06" stroke="#5AAF21" stroke-opacity="0.5" stroke-width="3"/>
<path d="M100 537V-4.64916e-06" stroke="#5AAF21" stroke-opacity="0.5" stroke-width="3"/>
<path d="M150 537V-4.64916e-06" stroke="#5AAF21" stroke-opacity="0.5" stroke-width="3"/>
<path d="M200 537V-4.64916e-06" stroke="#5AAF21" stroke-opacity="0.5" stroke-width="3"/>
<path d="M250 537V-4.64916e-06" stroke="#5AAF21" stroke-opacity="0.5" stroke-width="3"/>
<path d="M300 537V-4.64916e-06" stroke="#5AAF21" stroke-opacity="0.5" stroke-width="3"/>
<path d="M350 537V-4.64916e-06" stroke="#5AAF21" stroke-opacity="0.5" stroke-width="3"/>
<path d="M400 537V-4.64916e-06" stroke="#5AAF21" stroke-opacity="0.5" stroke-width="3"/>
<path d="M450 537V-4.64916e-06" stroke="#5AAF21" stroke-opacity="0.5" stroke-width="3"/>
<path d="M500 537V-4.64916e-06" stroke="#5AAF21" stroke-opacity="0.5" stroke-width="3"/>
<path d="M550 537V-4.64916e-06" stroke="#5AAF21" stroke-opacity="0.5" stroke-width="3"/>
<path d="M600 537V-4.64916e-06" stroke="#5AAF21" stroke-opacity="0.5" stroke-width="3"/>
<path d="M650 537V-4.64916e-06" stroke="#5AAF21" stroke-opacity="0.5" stroke-width="3"/>
<path d="M700 537V-4.64916e-06" stroke="#5AAF21" stroke-opacity="0.5" stroke-width="3"/>
<path d="M750 537V-4.64916e-06" stroke="#5AAF21" stroke-opacity="0.5" stroke-width="3"/>
<path d="M1100 537V-4.64916e-06" stroke="#5AAF21" stroke-opacity="0.5" stroke-width="3"/>
<path d="M825 537V-4.64916e-06" stroke="#5AAF21" stroke-opacity="0.5" stroke-width="3"/>
<path d="M875 537V-4.64916e-06" stroke="#5AAF21" stroke-opacity="0.5" stroke-width="3"/>
<path d="M925 537V-4.64916e-06" stroke="#5AAF21" stroke-opacity="0.5" stroke-width="3"/>
<path d="M975 537V-4.64916e-06" stroke="#5AAF21" stroke-opacity="0.5" stroke-width="3"/>
<path d="M1025 537V-4.64916e-06" stroke="#5AAF21" stroke-opacity="0.5" stroke-width="3"/>
<path d="M1075 537V-4.64916e-06" stroke="#5AAF21" stroke-opacity="0.5" stroke-width="3"/>
<path d="M1200 537V-4.64916e-06" stroke="#5AAF21" stroke-opacity="0.5" stroke-width="3"/>
<path d="M1175 537V-4.64916e-06" stroke="#5AAF21" stroke-opacity="0.5" stroke-width="3"/>
<path d="M1250 537V-4.64916e-06" stroke="#5AAF21" stroke-opacity="0.5" stroke-width="3"/>
<path d="M0 537H1280.5" stroke="#5AAF21" stroke-opacity="0.5" stroke-width="3"/>
<path d="M0 512H1280.5" stroke="#5AAF21" stroke-opacity="0.5" stroke-width="3"/>
<path d="M0 487H1280.5" stroke="#5AAF21" stroke-opacity="0.5" stroke-width="3"/>
<path d="M0 462H1280.5" stroke="#5AAF21" stroke-opacity="0.5" stroke-width="3"/>
<path d="M0 437H1280.5" stroke="#5AAF21" stroke-opacity="0.5" stroke-width="3"/>
<path d="M0 412H1280.5" stroke="#5AAF21" stroke-opacity="0.5" stroke-width="3"/>
<path d="M0 387H1280.5" stroke="#5AAF21" stroke-opacity="0.5" stroke-width="3"/>
<path d="M0 362H1280.5" stroke="#5AAF21" stroke-opacity="0.5" stroke-width="3"/>
<path d="M0 337H1280.5" stroke="#5AAF21" stroke-opacity="0.5" stroke-width="3"/>
<path d="M0 312H1280.5" stroke="#5AAF21" stroke-opacity="0.5" stroke-width="3"/>
<path d="M0 287H1280.5" stroke="#5AAF21" stroke-opacity="0.5" stroke-width="3"/>
<path d="M0 262H1280.5" stroke="#5AAF21" stroke-opacity="0.5" stroke-width="3"/>
<path d="M0 237H1280.5" stroke="#5AAF21" stroke-opacity="0.5" stroke-width="3"/>
<path d="M0 212H1280.5" stroke="#5AAF21" stroke-opacity="0.5" stroke-width="3"/>
<path d="M0 187H1280.5" stroke="#5AAF21" stroke-opacity="0.5" stroke-width="3"/>
<path d="M0 162H1280.5" stroke="#5AAF21" stroke-opacity="0.5" stroke-width="3"/>
<path d="M0 137H1280.5" stroke="#5AAF21" stroke-opacity="0.5" stroke-width="3"/>
<path d="M0 112H1280.5" stroke="#5AAF21" stroke-opacity="0.5" stroke-width="3"/>
<path d="M0 87H1280.5" stroke="#5AAF21" stroke-opacity="0.5" stroke-width="3"/>
<path d="M0 62H1280.5" stroke="#5AAF21" stroke-opacity="0.5" stroke-width="3"/>
<path d="M0 37H1280.5" stroke="#5AAF21" stroke-opacity="0.5" stroke-width="3"/>
<path d="M0 12H1280.5" stroke="#5AAF21" stroke-opacity="0.5" stroke-width="3"/>
</svg>
