<svg width="1136" height="990" viewBox="0 0 1136 990" fill="none" xmlns="http://www.w3.org/2000/svg">
<rect x="5.51429" y="5.51429" width="1124.97" height="978.971" fill="#D9D9D9" stroke="#5AAF21" stroke-width="10.9714"/>
<path d="M10 505V434.637H122.695V505H10ZM10 505H28.7826V487.409H47.5651V505H66.3477V487.409H85.1302V505H103.913V487.409H122.695V469.818H103.913V452.227H122.695V434.637H103.913V452.227H85.1302V434.637H66.3477V452.227H47.5651V434.637H28.7826V452.227H10V469.818H28.7826V487.409H10V505ZM28.7826 469.818V452.227H47.5651V469.818H28.7826ZM47.5651 469.818H66.3477V487.409H47.5651V469.818ZM66.3477 469.818V452.227H85.1302V469.818H66.3477ZM85.1302 469.818H103.913V487.409H85.1302V469.818Z" fill="#5AAF21" fill-opacity="0.5"/>
<path d="M10 434V363.637H122.695V434H10ZM10 434H28.7826V416.409H47.5651V434H66.3477V416.409H85.1302V434H103.913V416.409H122.695V398.818H103.913V381.228H122.695V363.637H103.913V381.228H85.1302V363.637H66.3477V381.228H47.5651V363.637H28.7826V381.228H10V398.818H28.7826V416.409H10V434ZM28.7826 398.818V381.228H47.5651V398.818H28.7826ZM47.5651 398.818H66.3477V416.409H47.5651V398.818ZM66.3477 398.818V381.228H85.1302V398.818H66.3477ZM85.1302 398.818H103.913V416.409H85.1302V398.818Z" fill="#5AAF21" fill-opacity="0.5"/>
<path d="M10 364V293.637H122.695V364H10ZM10 364H28.7826V346.409H47.5651V364H66.3477V346.409H85.1302V364H103.913V346.409H122.695V328.819H103.913V311.228H122.695V293.637H103.913V311.228H85.1302V293.637H66.3477V311.228H47.5651V293.637H28.7826V311.228H10V328.819H28.7826V346.409H10V364ZM28.7826 328.819V311.228H47.5651V328.819H28.7826ZM47.5651 328.819H66.3477V346.409H47.5651V328.819ZM66.3477 328.819V311.228H85.1302V328.819H66.3477ZM85.1302 328.819H103.913V346.409H85.1302V328.819Z" fill="#5AAF21" fill-opacity="0.5"/>
<path d="M10 294V223.636H122.695V294H10ZM10 294H28.7826V276.409H47.5651V294H66.3477V276.409H85.1302V294H103.913V276.409H122.695V258.818H103.913V241.227H122.695V223.636H103.913V241.227H85.1302V223.636H66.3477V241.227H47.5651V223.636H28.7826V241.227H10V258.818H28.7826V276.409H10V294ZM28.7826 258.818V241.227H47.5651V258.818H28.7826ZM47.5651 258.818H66.3477V276.409H47.5651V258.818ZM66.3477 258.818V241.227H85.1302V258.818H66.3477ZM85.1302 258.818H103.913V276.409H85.1302V258.818Z" fill="#5AAF21" fill-opacity="0.5"/>
<path d="M10 223V152.636H122.695V223H10ZM10 223H28.7826V205.409H47.5651V223H66.3477V205.409H85.1302V223H103.913V205.409H122.695V187.818H103.913V170.227H122.695V152.636H103.913V170.227H85.1302V152.636H66.3477V170.227H47.5651V152.636H28.7826V170.227H10V187.818H28.7826V205.409H10V223ZM28.7826 187.818V170.227H47.5651V187.818H28.7826ZM47.5651 187.818H66.3477V205.409H47.5651V187.818ZM66.3477 187.818V170.227H85.1302V187.818H66.3477ZM85.1302 187.818H103.913V205.409H85.1302V187.818Z" fill="#5AAF21" fill-opacity="0.5"/>
<path d="M10 153V82.6364H122.695V153H10ZM10 153H28.7826V135.409H47.5651V153H66.3477V135.409H85.1302V153H103.913V135.409H122.695V117.818H103.913V100.227H122.695V82.6364H103.913V100.227H85.1302V82.6364H66.3477V100.227H47.5651V82.6364H28.7826V100.227H10V117.818H28.7826V135.409H10V153ZM28.7826 117.818V100.227H47.5651V117.818H28.7826ZM47.5651 117.818H66.3477V135.409H47.5651V117.818ZM66.3477 117.818V100.227H85.1302V117.818H66.3477ZM85.1302 117.818H103.913V135.409H85.1302V117.818Z" fill="#5AAF21" fill-opacity="0.5"/>
<path d="M10 82.1367V11.7733H122.695V82.1367H10ZM10 82.1367H28.7826V64.5459H47.5651V82.1367H66.3477V64.5459H85.1302V82.1367H103.913V64.5459H122.695V46.955H103.913V29.3641H122.695V11.7733H103.913V29.3641H85.1302V11.7733H66.3477V29.3641H47.5651V11.7733H28.7826V29.3641H10V46.955H28.7826V64.5459H10V82.1367ZM28.7826 46.955V29.3641H47.5651V46.955H28.7826ZM47.5651 46.955H66.3477V64.5459H47.5651V46.955ZM66.3477 46.955V29.3641H85.1302V46.955H66.3477ZM85.1302 46.955H103.913V64.5459H85.1302V46.955Z" fill="#5AAF21" fill-opacity="0.5"/>
<path d="M121.695 505V434.637H234.391V505H121.695ZM121.695 505H140.478V487.409H159.26V505H178.043V487.409H196.826V505H215.608V487.409H234.391V469.818H215.608V452.227H234.391V434.637H215.608V452.227H196.826V434.637H178.043V452.227H159.26V434.637H140.478V452.227H121.695V469.818H140.478V487.409H121.695V505ZM140.478 469.818V452.227H159.26V469.818H140.478ZM159.26 469.818H178.043V487.409H159.26V469.818ZM178.043 469.818V452.227H196.826V469.818H178.043ZM196.826 469.818H215.608V487.409H196.826V469.818Z" fill="#5AAF21" fill-opacity="0.5"/>
<path d="M121.695 434V363.637H234.391V434H121.695ZM121.695 434H140.478V416.409H159.26V434H178.043V416.409H196.826V434H215.608V416.409H234.391V398.818H215.608V381.228H234.391V363.637H215.608V381.228H196.826V363.637H178.043V381.228H159.26V363.637H140.478V381.228H121.695V398.818H140.478V416.409H121.695V434ZM140.478 398.818V381.228H159.26V398.818H140.478ZM159.26 398.818H178.043V416.409H159.26V398.818ZM178.043 398.818V381.228H196.826V398.818H178.043ZM196.826 398.818H215.608V416.409H196.826V398.818Z" fill="#5AAF21" fill-opacity="0.5"/>
<path d="M121.695 364V293.637H234.391V364H121.695ZM121.695 364H140.478V346.409H159.26V364H178.043V346.409H196.826V364H215.608V346.409H234.391V328.819H215.608V311.228H234.391V293.637H215.608V311.228H196.826V293.637H178.043V311.228H159.26V293.637H140.478V311.228H121.695V328.819H140.478V346.409H121.695V364ZM140.478 328.819V311.228H159.26V328.819H140.478ZM159.26 328.819H178.043V346.409H159.26V328.819ZM178.043 328.819V311.228H196.826V328.819H178.043ZM196.826 328.819H215.608V346.409H196.826V328.819Z" fill="#5AAF21" fill-opacity="0.5"/>
<path d="M121.695 294V223.636H234.391V294H121.695ZM121.695 294H140.478V276.409H159.26V294H178.043V276.409H196.826V294H215.608V276.409H234.391V258.818H215.608V241.227H234.391V223.636H215.608V241.227H196.826V223.636H178.043V241.227H159.26V223.636H140.478V241.227H121.695V258.818H140.478V276.409H121.695V294ZM140.478 258.818V241.227H159.26V258.818H140.478ZM159.26 258.818H178.043V276.409H159.26V258.818ZM178.043 258.818V241.227H196.826V258.818H178.043ZM196.826 258.818H215.608V276.409H196.826V258.818Z" fill="#5AAF21" fill-opacity="0.5"/>
<path d="M121.695 223V152.636H234.391V223H121.695ZM121.695 223H140.478V205.409H159.26V223H178.043V205.409H196.826V223H215.608V205.409H234.391V187.818H215.608V170.227H234.391V152.636H215.608V170.227H196.826V152.636H178.043V170.227H159.26V152.636H140.478V170.227H121.695V187.818H140.478V205.409H121.695V223ZM140.478 187.818V170.227H159.26V187.818H140.478ZM159.26 187.818H178.043V205.409H159.26V187.818ZM178.043 187.818V170.227H196.826V187.818H178.043ZM196.826 187.818H215.608V205.409H196.826V187.818Z" fill="#5AAF21" fill-opacity="0.5"/>
<path d="M121.695 153V82.6364H234.391V153H121.695ZM121.695 153H140.478V135.409H159.26V153H178.043V135.409H196.826V153H215.608V135.409H234.391V117.818H215.608V100.227H234.391V82.6364H215.608V100.227H196.826V82.6364H178.043V100.227H159.26V82.6364H140.478V100.227H121.695V117.818H140.478V135.409H121.695V153ZM140.478 117.818V100.227H159.26V117.818H140.478ZM159.26 117.818H178.043V135.409H159.26V117.818ZM178.043 117.818V100.227H196.826V117.818H178.043ZM196.826 117.818H215.608V135.409H196.826V117.818Z" fill="#5AAF21" fill-opacity="0.5"/>
<path d="M121.695 82.1367V11.7733H234.391V82.1367H121.695ZM121.695 82.1367H140.478V64.5459H159.26V82.1367H178.043V64.5459H196.826V82.1367H215.608V64.5459H234.391V46.955H215.608V29.3641H234.391V11.7733H215.608V29.3641H196.826V11.7733H178.043V29.3641H159.26V11.7733H140.478V29.3641H121.695V46.955H140.478V64.5459H121.695V82.1367ZM140.478 46.955V29.3641H159.26V46.955H140.478ZM159.26 46.955H178.043V64.5459H159.26V46.955ZM178.043 46.955V29.3641H196.826V46.955H178.043ZM196.826 46.955H215.608V64.5459H196.826V46.955Z" fill="#5AAF21" fill-opacity="0.5"/>
<path d="M233.391 505V434.637H346.086V505H233.391ZM233.391 505H252.173V487.409H270.956V505H289.738V487.409H308.521V505H327.303V487.409H346.086V469.818H327.303V452.227H346.086V434.637H327.303V452.227H308.521V434.637H289.738V452.227H270.956V434.637H252.173V452.227H233.391V469.818H252.173V487.409H233.391V505ZM252.173 469.818V452.227H270.956V469.818H252.173ZM270.956 469.818H289.738V487.409H270.956V469.818ZM289.738 469.818V452.227H308.521V469.818H289.738ZM308.521 469.818H327.303V487.409H308.521V469.818Z" fill="#5AAF21" fill-opacity="0.5"/>
<path d="M233.391 434V363.637H346.086V434H233.391ZM233.391 434H252.173V416.409H270.956V434H289.738V416.409H308.521V434H327.303V416.409H346.086V398.818H327.303V381.228H346.086V363.637H327.303V381.228H308.521V363.637H289.738V381.228H270.956V363.637H252.173V381.228H233.391V398.818H252.173V416.409H233.391V434ZM252.173 398.818V381.228H270.956V398.818H252.173ZM270.956 398.818H289.738V416.409H270.956V398.818ZM289.738 398.818V381.228H308.521V398.818H289.738ZM308.521 398.818H327.303V416.409H308.521V398.818Z" fill="#5AAF21" fill-opacity="0.5"/>
<path d="M233.391 364V293.637H346.086V364H233.391ZM233.391 364H252.173V346.409H270.956V364H289.738V346.409H308.521V364H327.303V346.409H346.086V328.819H327.303V311.228H346.086V293.637H327.303V311.228H308.521V293.637H289.738V311.228H270.956V293.637H252.173V311.228H233.391V328.819H252.173V346.409H233.391V364ZM252.173 328.819V311.228H270.956V328.819H252.173ZM270.956 328.819H289.738V346.409H270.956V328.819ZM289.738 328.819V311.228H308.521V328.819H289.738ZM308.521 328.819H327.303V346.409H308.521V328.819Z" fill="#5AAF21" fill-opacity="0.5"/>
<path d="M233.391 294V223.636H346.086V294H233.391ZM233.391 294H252.173V276.409H270.956V294H289.738V276.409H308.521V294H327.303V276.409H346.086V258.818H327.303V241.227H346.086V223.636H327.303V241.227H308.521V223.636H289.738V241.227H270.956V223.636H252.173V241.227H233.391V258.818H252.173V276.409H233.391V294ZM252.173 258.818V241.227H270.956V258.818H252.173ZM270.956 258.818H289.738V276.409H270.956V258.818ZM289.738 258.818V241.227H308.521V258.818H289.738ZM308.521 258.818H327.303V276.409H308.521V258.818Z" fill="#5AAF21" fill-opacity="0.5"/>
<path d="M233.391 223V152.636H346.086V223H233.391ZM233.391 223H252.173V205.409H270.956V223H289.738V205.409H308.521V223H327.303V205.409H346.086V187.818H327.303V170.227H346.086V152.636H327.303V170.227H308.521V152.636H289.738V170.227H270.956V152.636H252.173V170.227H233.391V187.818H252.173V205.409H233.391V223ZM252.173 187.818V170.227H270.956V187.818H252.173ZM270.956 187.818H289.738V205.409H270.956V187.818ZM289.738 187.818V170.227H308.521V187.818H289.738ZM308.521 187.818H327.303V205.409H308.521V187.818Z" fill="#5AAF21" fill-opacity="0.5"/>
<path d="M233.391 153V82.6364H346.086V153H233.391ZM233.391 153H252.173V135.409H270.956V153H289.738V135.409H308.521V153H327.303V135.409H346.086V117.818H327.303V100.227H346.086V82.6364H327.303V100.227H308.521V82.6364H289.738V100.227H270.956V82.6364H252.173V100.227H233.391V117.818H252.173V135.409H233.391V153ZM252.173 117.818V100.227H270.956V117.818H252.173ZM270.956 117.818H289.738V135.409H270.956V117.818ZM289.738 117.818V100.227H308.521V117.818H289.738ZM308.521 117.818H327.303V135.409H308.521V117.818Z" fill="#5AAF21" fill-opacity="0.5"/>
<path d="M233.391 82.1367V11.7733H346.086V82.1367H233.391ZM233.391 82.1367H252.173V64.5459H270.956V82.1367H289.738V64.5459H308.521V82.1367H327.303V64.5459H346.086V46.955H327.303V29.3641H346.086V11.7733H327.303V29.3641H308.521V11.7733H289.738V29.3641H270.956V11.7733H252.173V29.3641H233.391V46.955H252.173V64.5459H233.391V82.1367ZM252.173 46.955V29.3641H270.956V46.955H252.173ZM270.956 46.955H289.738V64.5459H270.956V46.955ZM289.738 46.955V29.3641H308.521V46.955H289.738ZM308.521 46.955H327.303V64.5459H308.521V46.955Z" fill="#5AAF21" fill-opacity="0.5"/>
<path d="M345.086 505V434.637H457.781V505H345.086ZM345.086 505H363.869V487.409H382.651V505H401.434V487.409H420.216V505H438.999V487.409H457.781V469.818H438.999V452.227H457.781V434.637H438.999V452.227H420.216V434.637H401.434V452.227H382.651V434.637H363.869V452.227H345.086V469.818H363.869V487.409H345.086V505ZM363.869 469.818V452.227H382.651V469.818H363.869ZM382.651 469.818H401.434V487.409H382.651V469.818ZM401.434 469.818V452.227H420.216V469.818H401.434ZM420.216 469.818H438.999V487.409H420.216V469.818Z" fill="#5AAF21" fill-opacity="0.5"/>
<path d="M345.086 434V363.637H457.781V434H345.086ZM345.086 434H363.869V416.409H382.651V434H401.434V416.409H420.216V434H438.999V416.409H457.781V398.818H438.999V381.228H457.781V363.637H438.999V381.228H420.216V363.637H401.434V381.228H382.651V363.637H363.869V381.228H345.086V398.818H363.869V416.409H345.086V434ZM363.869 398.818V381.228H382.651V398.818H363.869ZM382.651 398.818H401.434V416.409H382.651V398.818ZM401.434 398.818V381.228H420.216V398.818H401.434ZM420.216 398.818H438.999V416.409H420.216V398.818Z" fill="#5AAF21" fill-opacity="0.5"/>
<path d="M345.086 364V293.637H457.781V364H345.086ZM345.086 364H363.869V346.409H382.651V364H401.434V346.409H420.216V364H438.999V346.409H457.781V328.819H438.999V311.228H457.781V293.637H438.999V311.228H420.216V293.637H401.434V311.228H382.651V293.637H363.869V311.228H345.086V328.819H363.869V346.409H345.086V364ZM363.869 328.819V311.228H382.651V328.819H363.869ZM382.651 328.819H401.434V346.409H382.651V328.819ZM401.434 328.819V311.228H420.216V328.819H401.434ZM420.216 328.819H438.999V346.409H420.216V328.819Z" fill="#5AAF21" fill-opacity="0.5"/>
<path d="M345.086 294V223.636H457.781V294H345.086ZM345.086 294H363.869V276.409H382.651V294H401.434V276.409H420.216V294H438.999V276.409H457.781V258.818H438.999V241.227H457.781V223.636H438.999V241.227H420.216V223.636H401.434V241.227H382.651V223.636H363.869V241.227H345.086V258.818H363.869V276.409H345.086V294ZM363.869 258.818V241.227H382.651V258.818H363.869ZM382.651 258.818H401.434V276.409H382.651V258.818ZM401.434 258.818V241.227H420.216V258.818H401.434ZM420.216 258.818H438.999V276.409H420.216V258.818Z" fill="#5AAF21" fill-opacity="0.5"/>
<path d="M345.086 223V152.636H457.781V223H345.086ZM345.086 223H363.869V205.409H382.651V223H401.434V205.409H420.216V223H438.999V205.409H457.781V187.818H438.999V170.227H457.781V152.636H438.999V170.227H420.216V152.636H401.434V170.227H382.651V152.636H363.869V170.227H345.086V187.818H363.869V205.409H345.086V223ZM363.869 187.818V170.227H382.651V187.818H363.869ZM382.651 187.818H401.434V205.409H382.651V187.818ZM401.434 187.818V170.227H420.216V187.818H401.434ZM420.216 187.818H438.999V205.409H420.216V187.818Z" fill="#5AAF21" fill-opacity="0.5"/>
<path d="M345.086 153V82.6364H457.781V153H345.086ZM345.086 153H363.869V135.409H382.651V153H401.434V135.409H420.216V153H438.999V135.409H457.781V117.818H438.999V100.227H457.781V82.6364H438.999V100.227H420.216V82.6364H401.434V100.227H382.651V82.6364H363.869V100.227H345.086V117.818H363.869V135.409H345.086V153ZM363.869 117.818V100.227H382.651V117.818H363.869ZM382.651 117.818H401.434V135.409H382.651V117.818ZM401.434 117.818V100.227H420.216V117.818H401.434ZM420.216 117.818H438.999V135.409H420.216V117.818Z" fill="#5AAF21" fill-opacity="0.5"/>
<path d="M345.086 82.1367V11.7733H457.781V82.1367H345.086ZM345.086 82.1367H363.869V64.5459H382.651V82.1367H401.434V64.5459H420.216V82.1367H438.999V64.5459H457.781V46.955H438.999V29.3641H457.781V11.7733H438.999V29.3641H420.216V11.7733H401.434V29.3641H382.651V11.7733H363.869V29.3641H345.086V46.955H363.869V64.5459H345.086V82.1367ZM363.869 46.955V29.3641H382.651V46.955H363.869ZM382.651 46.955H401.434V64.5459H382.651V46.955ZM401.434 46.955V29.3641H420.216V46.955H401.434ZM420.216 46.955H438.999V64.5459H420.216V46.955Z" fill="#5AAF21" fill-opacity="0.5"/>
<path d="M456.781 505V434.637H569.477V505H456.781ZM456.781 505H475.564V487.409H494.346V505H513.129V487.409H531.912V505H550.694V487.409H569.477V469.818H550.694V452.227H569.477V434.637H550.694V452.227H531.912V434.637H513.129V452.227H494.346V434.637H475.564V452.227H456.781V469.818H475.564V487.409H456.781V505ZM475.564 469.818V452.227H494.346V469.818H475.564ZM494.346 469.818H513.129V487.409H494.346V469.818ZM513.129 469.818V452.227H531.912V469.818H513.129ZM531.912 469.818H550.694V487.409H531.912V469.818Z" fill="#5AAF21" fill-opacity="0.5"/>
<path d="M456.781 434V363.637H569.477V434H456.781ZM456.781 434H475.564V416.409H494.346V434H513.129V416.409H531.912V434H550.694V416.409H569.477V398.818H550.694V381.228H569.477V363.637H550.694V381.228H531.912V363.637H513.129V381.228H494.346V363.637H475.564V381.228H456.781V398.818H475.564V416.409H456.781V434ZM475.564 398.818V381.228H494.346V398.818H475.564ZM494.346 398.818H513.129V416.409H494.346V398.818ZM513.129 398.818V381.228H531.912V398.818H513.129ZM531.912 398.818H550.694V416.409H531.912V398.818Z" fill="#5AAF21" fill-opacity="0.5"/>
<path d="M456.781 364V293.637H569.477V364H456.781ZM456.781 364H475.564V346.409H494.346V364H513.129V346.409H531.912V364H550.694V346.409H569.477V328.819H550.694V311.228H569.477V293.637H550.694V311.228H531.912V293.637H513.129V311.228H494.346V293.637H475.564V311.228H456.781V328.819H475.564V346.409H456.781V364ZM475.564 328.819V311.228H494.346V328.819H475.564ZM494.346 328.819H513.129V346.409H494.346V328.819ZM513.129 328.819V311.228H531.912V328.819H513.129ZM531.912 328.819H550.694V346.409H531.912V328.819Z" fill="#5AAF21" fill-opacity="0.5"/>
<path d="M456.781 294V223.636H569.477V294H456.781ZM456.781 294H475.564V276.409H494.346V294H513.129V276.409H531.912V294H550.694V276.409H569.477V258.818H550.694V241.227H569.477V223.636H550.694V241.227H531.912V223.636H513.129V241.227H494.346V223.636H475.564V241.227H456.781V258.818H475.564V276.409H456.781V294ZM475.564 258.818V241.227H494.346V258.818H475.564ZM494.346 258.818H513.129V276.409H494.346V258.818ZM513.129 258.818V241.227H531.912V258.818H513.129ZM531.912 258.818H550.694V276.409H531.912V258.818Z" fill="#5AAF21" fill-opacity="0.5"/>
<path d="M456.781 223V152.636H569.477V223H456.781ZM456.781 223H475.564V205.409H494.346V223H513.129V205.409H531.912V223H550.694V205.409H569.477V187.818H550.694V170.227H569.477V152.636H550.694V170.227H531.912V152.636H513.129V170.227H494.346V152.636H475.564V170.227H456.781V187.818H475.564V205.409H456.781V223ZM475.564 187.818V170.227H494.346V187.818H475.564ZM494.346 187.818H513.129V205.409H494.346V187.818ZM513.129 187.818V170.227H531.912V187.818H513.129ZM531.912 187.818H550.694V205.409H531.912V187.818Z" fill="#5AAF21" fill-opacity="0.5"/>
<path d="M456.781 153V82.6364H569.477V153H456.781ZM456.781 153H475.564V135.409H494.346V153H513.129V135.409H531.912V153H550.694V135.409H569.477V117.818H550.694V100.227H569.477V82.6364H550.694V100.227H531.912V82.6364H513.129V100.227H494.346V82.6364H475.564V100.227H456.781V117.818H475.564V135.409H456.781V153ZM475.564 117.818V100.227H494.346V117.818H475.564ZM494.346 117.818H513.129V135.409H494.346V117.818ZM513.129 117.818V100.227H531.912V117.818H513.129ZM531.912 117.818H550.694V135.409H531.912V117.818Z" fill="#5AAF21" fill-opacity="0.5"/>
<path d="M456.781 82.1367V11.7733H569.477V82.1367H456.781ZM456.781 82.1367H475.564V64.5459H494.346V82.1367H513.129V64.5459H531.912V82.1367H550.694V64.5459H569.477V46.955H550.694V29.3641H569.477V11.7733H550.694V29.3641H531.912V11.7733H513.129V29.3641H494.346V11.7733H475.564V29.3641H456.781V46.955H475.564V64.5459H456.781V82.1367ZM475.564 46.955V29.3641H494.346V46.955H475.564ZM494.346 46.955H513.129V64.5459H494.346V46.955ZM513.129 46.955V29.3641H531.912V46.955H513.129ZM531.912 46.955H550.694V64.5459H531.912V46.955Z" fill="#5AAF21" fill-opacity="0.5"/>
<path d="M568.477 505V434.637H681.172V505H568.477ZM568.477 505H587.259V487.409H606.042V505H624.824V487.409H643.607V505H662.389V487.409H681.172V469.818H662.389V452.227H681.172V434.637H662.389V452.227H643.607V434.637H624.824V452.227H606.042V434.637H587.259V452.227H568.477V469.818H587.259V487.409H568.477V505ZM587.259 469.818V452.227H606.042V469.818H587.259ZM606.042 469.818H624.824V487.409H606.042V469.818ZM624.824 469.818V452.227H643.607V469.818H624.824ZM643.607 469.818H662.389V487.409H643.607V469.818Z" fill="#5AAF21" fill-opacity="0.5"/>
<path d="M568.477 434V363.637H681.172V434H568.477ZM568.477 434H587.259V416.409H606.042V434H624.824V416.409H643.607V434H662.389V416.409H681.172V398.818H662.389V381.228H681.172V363.637H662.389V381.228H643.607V363.637H624.824V381.228H606.042V363.637H587.259V381.228H568.477V398.818H587.259V416.409H568.477V434ZM587.259 398.818V381.228H606.042V398.818H587.259ZM606.042 398.818H624.824V416.409H606.042V398.818ZM624.824 398.818V381.228H643.607V398.818H624.824ZM643.607 398.818H662.389V416.409H643.607V398.818Z" fill="#5AAF21" fill-opacity="0.5"/>
<path d="M568.477 364V293.637H681.172V364H568.477ZM568.477 364H587.259V346.409H606.042V364H624.824V346.409H643.607V364H662.389V346.409H681.172V328.819H662.389V311.228H681.172V293.637H662.389V311.228H643.607V293.637H624.824V311.228H606.042V293.637H587.259V311.228H568.477V328.819H587.259V346.409H568.477V364ZM587.259 328.819V311.228H606.042V328.819H587.259ZM606.042 328.819H624.824V346.409H606.042V328.819ZM624.824 328.819V311.228H643.607V328.819H624.824ZM643.607 328.819H662.389V346.409H643.607V328.819Z" fill="#5AAF21" fill-opacity="0.5"/>
<path d="M568.477 294V223.636H681.172V294H568.477ZM568.477 294H587.259V276.409H606.042V294H624.824V276.409H643.607V294H662.389V276.409H681.172V258.818H662.389V241.227H681.172V223.636H662.389V241.227H643.607V223.636H624.824V241.227H606.042V223.636H587.259V241.227H568.477V258.818H587.259V276.409H568.477V294ZM587.259 258.818V241.227H606.042V258.818H587.259ZM606.042 258.818H624.824V276.409H606.042V258.818ZM624.824 258.818V241.227H643.607V258.818H624.824ZM643.607 258.818H662.389V276.409H643.607V258.818Z" fill="#5AAF21" fill-opacity="0.5"/>
<path d="M568.477 223V152.636H681.172V223H568.477ZM568.477 223H587.259V205.409H606.042V223H624.824V205.409H643.607V223H662.389V205.409H681.172V187.818H662.389V170.227H681.172V152.636H662.389V170.227H643.607V152.636H624.824V170.227H606.042V152.636H587.259V170.227H568.477V187.818H587.259V205.409H568.477V223ZM587.259 187.818V170.227H606.042V187.818H587.259ZM606.042 187.818H624.824V205.409H606.042V187.818ZM624.824 187.818V170.227H643.607V187.818H624.824ZM643.607 187.818H662.389V205.409H643.607V187.818Z" fill="#5AAF21" fill-opacity="0.5"/>
<path d="M568.477 153V82.6364H681.172V153H568.477ZM568.477 153H587.259V135.409H606.042V153H624.824V135.409H643.607V153H662.389V135.409H681.172V117.818H662.389V100.227H681.172V82.6364H662.389V100.227H643.607V82.6364H624.824V100.227H606.042V82.6364H587.259V100.227H568.477V117.818H587.259V135.409H568.477V153ZM587.259 117.818V100.227H606.042V117.818H587.259ZM606.042 117.818H624.824V135.409H606.042V117.818ZM624.824 117.818V100.227H643.607V117.818H624.824ZM643.607 117.818H662.389V135.409H643.607V117.818Z" fill="#5AAF21" fill-opacity="0.5"/>
<path d="M568.477 82.1367V11.7733H681.172V82.1367H568.477ZM568.477 82.1367H587.259V64.5459H606.042V82.1367H624.824V64.5459H643.607V82.1367H662.389V64.5459H681.172V46.955H662.389V29.3641H681.172V11.7733H662.389V29.3641H643.607V11.7733H624.824V29.3641H606.042V11.7733H587.259V29.3641H568.477V46.955H587.259V64.5459H568.477V82.1367ZM587.259 46.955V29.3641H606.042V46.955H587.259ZM606.042 46.955H624.824V64.5459H606.042V46.955ZM624.824 46.955V29.3641H643.607V46.955H624.824ZM643.607 46.955H662.389V64.5459H643.607V46.955Z" fill="#5AAF21" fill-opacity="0.5"/>
<path d="M680.172 505V434.637H792.867V505H680.172ZM680.172 505H698.954V487.409H717.737V505H736.52V487.409H755.302V505H774.085V487.409H792.867V469.818H774.085V452.227H792.867V434.637H774.085V452.227H755.302V434.637H736.52V452.227H717.737V434.637H698.954V452.227H680.172V469.818H698.954V487.409H680.172V505ZM698.954 469.818V452.227H717.737V469.818H698.954ZM717.737 469.818H736.52V487.409H717.737V469.818ZM736.52 469.818V452.227H755.302V469.818H736.52ZM755.302 469.818H774.085V487.409H755.302V469.818Z" fill="#5AAF21" fill-opacity="0.5"/>
<path d="M680.172 434V363.637H792.867V434H680.172ZM680.172 434H698.954V416.409H717.737V434H736.52V416.409H755.302V434H774.085V416.409H792.867V398.818H774.085V381.228H792.867V363.637H774.085V381.228H755.302V363.637H736.52V381.228H717.737V363.637H698.954V381.228H680.172V398.818H698.954V416.409H680.172V434ZM698.954 398.818V381.228H717.737V398.818H698.954ZM717.737 398.818H736.52V416.409H717.737V398.818ZM736.52 398.818V381.228H755.302V398.818H736.52ZM755.302 398.818H774.085V416.409H755.302V398.818Z" fill="#5AAF21" fill-opacity="0.5"/>
<path d="M680.172 364V293.637H792.867V364H680.172ZM680.172 364H698.954V346.409H717.737V364H736.52V346.409H755.302V364H774.085V346.409H792.867V328.819H774.085V311.228H792.867V293.637H774.085V311.228H755.302V293.637H736.52V311.228H717.737V293.637H698.954V311.228H680.172V328.819H698.954V346.409H680.172V364ZM698.954 328.819V311.228H717.737V328.819H698.954ZM717.737 328.819H736.52V346.409H717.737V328.819ZM736.52 328.819V311.228H755.302V328.819H736.52ZM755.302 328.819H774.085V346.409H755.302V328.819Z" fill="#5AAF21" fill-opacity="0.5"/>
<path d="M680.172 294V223.636H792.867V294H680.172ZM680.172 294H698.954V276.409H717.737V294H736.52V276.409H755.302V294H774.085V276.409H792.867V258.818H774.085V241.227H792.867V223.636H774.085V241.227H755.302V223.636H736.52V241.227H717.737V223.636H698.954V241.227H680.172V258.818H698.954V276.409H680.172V294ZM698.954 258.818V241.227H717.737V258.818H698.954ZM717.737 258.818H736.52V276.409H717.737V258.818ZM736.52 258.818V241.227H755.302V258.818H736.52ZM755.302 258.818H774.085V276.409H755.302V258.818Z" fill="#5AAF21" fill-opacity="0.5"/>
<path d="M680.172 223V152.636H792.867V223H680.172ZM680.172 223H698.954V205.409H717.737V223H736.52V205.409H755.302V223H774.085V205.409H792.867V187.818H774.085V170.227H792.867V152.636H774.085V170.227H755.302V152.636H736.52V170.227H717.737V152.636H698.954V170.227H680.172V187.818H698.954V205.409H680.172V223ZM698.954 187.818V170.227H717.737V187.818H698.954ZM717.737 187.818H736.52V205.409H717.737V187.818ZM736.52 187.818V170.227H755.302V187.818H736.52ZM755.302 187.818H774.085V205.409H755.302V187.818Z" fill="#5AAF21" fill-opacity="0.5"/>
<path d="M680.172 153V82.6364H792.867V153H680.172ZM680.172 153H698.954V135.409H717.737V153H736.52V135.409H755.302V153H774.085V135.409H792.867V117.818H774.085V100.227H792.867V82.6364H774.085V100.227H755.302V82.6364H736.52V100.227H717.737V82.6364H698.954V100.227H680.172V117.818H698.954V135.409H680.172V153ZM698.954 117.818V100.227H717.737V117.818H698.954ZM717.737 117.818H736.52V135.409H717.737V117.818ZM736.52 117.818V100.227H755.302V117.818H736.52ZM755.302 117.818H774.085V135.409H755.302V117.818Z" fill="#5AAF21" fill-opacity="0.5"/>
<path d="M680.172 82.1367V11.7733H792.867V82.1367H680.172ZM680.172 82.1367H698.954V64.5459H717.737V82.1367H736.52V64.5459H755.302V82.1367H774.085V64.5459H792.867V46.955H774.085V29.3641H792.867V11.7733H774.085V29.3641H755.302V11.7733H736.52V29.3641H717.737V11.7733H698.954V29.3641H680.172V46.955H698.954V64.5459H680.172V82.1367ZM698.954 46.955V29.3641H717.737V46.955H698.954ZM717.737 46.955H736.52V64.5459H717.737V46.955ZM736.52 46.955V29.3641H755.302V46.955H736.52ZM755.302 46.955H774.085V64.5459H755.302V46.955Z" fill="#5AAF21" fill-opacity="0.5"/>
<path d="M791.867 505V434.637H904.563V505H791.867ZM791.867 505H810.65V487.409H829.432V505H848.215V487.409H866.997V505H885.78V487.409H904.563V469.818H885.78V452.227H904.563V434.637H885.78V452.227H866.997V434.637H848.215V452.227H829.432V434.637H810.65V452.227H791.867V469.818H810.65V487.409H791.867V505ZM810.65 469.818V452.227H829.432V469.818H810.65ZM829.432 469.818H848.215V487.409H829.432V469.818ZM848.215 469.818V452.227H866.997V469.818H848.215ZM866.997 469.818H885.78V487.409H866.997V469.818Z" fill="#5AAF21" fill-opacity="0.5"/>
<path d="M791.867 434V363.637H904.563V434H791.867ZM791.867 434H810.65V416.409H829.432V434H848.215V416.409H866.997V434H885.78V416.409H904.563V398.818H885.78V381.228H904.563V363.637H885.78V381.228H866.997V363.637H848.215V381.228H829.432V363.637H810.65V381.228H791.867V398.818H810.65V416.409H791.867V434ZM810.65 398.818V381.228H829.432V398.818H810.65ZM829.432 398.818H848.215V416.409H829.432V398.818ZM848.215 398.818V381.228H866.997V398.818H848.215ZM866.997 398.818H885.78V416.409H866.997V398.818Z" fill="#5AAF21" fill-opacity="0.5"/>
<path d="M791.867 364V293.637H904.563V364H791.867ZM791.867 364H810.65V346.409H829.432V364H848.215V346.409H866.997V364H885.78V346.409H904.563V328.819H885.78V311.228H904.563V293.637H885.78V311.228H866.997V293.637H848.215V311.228H829.432V293.637H810.65V311.228H791.867V328.819H810.65V346.409H791.867V364ZM810.65 328.819V311.228H829.432V328.819H810.65ZM829.432 328.819H848.215V346.409H829.432V328.819ZM848.215 328.819V311.228H866.997V328.819H848.215ZM866.997 328.819H885.78V346.409H866.997V328.819Z" fill="#5AAF21" fill-opacity="0.5"/>
<path d="M791.867 294V223.636H904.563V294H791.867ZM791.867 294H810.65V276.409H829.432V294H848.215V276.409H866.997V294H885.78V276.409H904.563V258.818H885.78V241.227H904.563V223.636H885.78V241.227H866.997V223.636H848.215V241.227H829.432V223.636H810.65V241.227H791.867V258.818H810.65V276.409H791.867V294ZM810.65 258.818V241.227H829.432V258.818H810.65ZM829.432 258.818H848.215V276.409H829.432V258.818ZM848.215 258.818V241.227H866.997V258.818H848.215ZM866.997 258.818H885.78V276.409H866.997V258.818Z" fill="#5AAF21" fill-opacity="0.5"/>
<path d="M791.867 223V152.636H904.563V223H791.867ZM791.867 223H810.65V205.409H829.432V223H848.215V205.409H866.997V223H885.78V205.409H904.563V187.818H885.78V170.227H904.563V152.636H885.78V170.227H866.997V152.636H848.215V170.227H829.432V152.636H810.65V170.227H791.867V187.818H810.65V205.409H791.867V223ZM810.65 187.818V170.227H829.432V187.818H810.65ZM829.432 187.818H848.215V205.409H829.432V187.818ZM848.215 187.818V170.227H866.997V187.818H848.215ZM866.997 187.818H885.78V205.409H866.997V187.818Z" fill="#5AAF21" fill-opacity="0.5"/>
<path d="M791.867 153V82.6364H904.563V153H791.867ZM791.867 153H810.65V135.409H829.432V153H848.215V135.409H866.997V153H885.78V135.409H904.563V117.818H885.78V100.227H904.563V82.6364H885.78V100.227H866.997V82.6364H848.215V100.227H829.432V82.6364H810.65V100.227H791.867V117.818H810.65V135.409H791.867V153ZM810.65 117.818V100.227H829.432V117.818H810.65ZM829.432 117.818H848.215V135.409H829.432V117.818ZM848.215 117.818V100.227H866.997V117.818H848.215ZM866.997 117.818H885.78V135.409H866.997V117.818Z" fill="#5AAF21" fill-opacity="0.5"/>
<path d="M791.867 82.1367V11.7733H904.563V82.1367H791.867ZM791.867 82.1367H810.65V64.5459H829.432V82.1367H848.215V64.5459H866.997V82.1367H885.78V64.5459H904.563V46.955H885.78V29.3641H904.563V11.7733H885.78V29.3641H866.997V11.7733H848.215V29.3641H829.432V11.7733H810.65V29.3641H791.867V46.955H810.65V64.5459H791.867V82.1367ZM810.65 46.955V29.3641H829.432V46.955H810.65ZM829.432 46.955H848.215V64.5459H829.432V46.955ZM848.215 46.955V29.3641H866.997V46.955H848.215ZM866.997 46.955H885.78V64.5459H866.997V46.955Z" fill="#5AAF21" fill-opacity="0.5"/>
<path d="M903.563 505V434.637H1016.26V505H903.563ZM903.563 505H922.345V487.409H941.128V505H959.91V487.409H978.693V505H997.475V487.409H1016.26V469.818H997.475V452.227H1016.26V434.637H997.475V452.227H978.693V434.637H959.91V452.227H941.128V434.637H922.345V452.227H903.563V469.818H922.345V487.409H903.563V505ZM922.345 469.818V452.227H941.128V469.818H922.345ZM941.128 469.818H959.91V487.409H941.128V469.818ZM959.91 469.818V452.227H978.693V469.818H959.91ZM978.693 469.818H997.475V487.409H978.693V469.818Z" fill="#5AAF21" fill-opacity="0.5"/>
<path d="M903.563 434V363.637H1016.26V434H903.563ZM903.563 434H922.345V416.409H941.128V434H959.91V416.409H978.693V434H997.475V416.409H1016.26V398.818H997.475V381.228H1016.26V363.637H997.475V381.228H978.693V363.637H959.91V381.228H941.128V363.637H922.345V381.228H903.563V398.818H922.345V416.409H903.563V434ZM922.345 398.818V381.228H941.128V398.818H922.345ZM941.128 398.818H959.91V416.409H941.128V398.818ZM959.91 398.818V381.228H978.693V398.818H959.91ZM978.693 398.818H997.475V416.409H978.693V398.818Z" fill="#5AAF21" fill-opacity="0.5"/>
<path d="M903.563 364V293.637H1016.26V364H903.563ZM903.563 364H922.345V346.409H941.128V364H959.91V346.409H978.693V364H997.475V346.409H1016.26V328.819H997.475V311.228H1016.26V293.637H997.475V311.228H978.693V293.637H959.91V311.228H941.128V293.637H922.345V311.228H903.563V328.819H922.345V346.409H903.563V364ZM922.345 328.819V311.228H941.128V328.819H922.345ZM941.128 328.819H959.91V346.409H941.128V328.819ZM959.91 328.819V311.228H978.693V328.819H959.91ZM978.693 328.819H997.475V346.409H978.693V328.819Z" fill="#5AAF21" fill-opacity="0.5"/>
<path d="M903.563 294V223.636H1016.26V294H903.563ZM903.563 294H922.345V276.409H941.128V294H959.91V276.409H978.693V294H997.475V276.409H1016.26V258.818H997.475V241.227H1016.26V223.636H997.475V241.227H978.693V223.636H959.91V241.227H941.128V223.636H922.345V241.227H903.563V258.818H922.345V276.409H903.563V294ZM922.345 258.818V241.227H941.128V258.818H922.345ZM941.128 258.818H959.91V276.409H941.128V258.818ZM959.91 258.818V241.227H978.693V258.818H959.91ZM978.693 258.818H997.475V276.409H978.693V258.818Z" fill="#5AAF21" fill-opacity="0.5"/>
<path d="M903.563 223V152.636H1016.26V223H903.563ZM903.563 223H922.345V205.409H941.128V223H959.91V205.409H978.693V223H997.475V205.409H1016.26V187.818H997.475V170.227H1016.26V152.636H997.475V170.227H978.693V152.636H959.91V170.227H941.128V152.636H922.345V170.227H903.563V187.818H922.345V205.409H903.563V223ZM922.345 187.818V170.227H941.128V187.818H922.345ZM941.128 187.818H959.91V205.409H941.128V187.818ZM959.91 187.818V170.227H978.693V187.818H959.91ZM978.693 187.818H997.475V205.409H978.693V187.818Z" fill="#5AAF21" fill-opacity="0.5"/>
<path d="M903.563 153V82.6364H1016.26V153H903.563ZM903.563 153H922.345V135.409H941.128V153H959.91V135.409H978.693V153H997.475V135.409H1016.26V117.818H997.475V100.227H1016.26V82.6364H997.475V100.227H978.693V82.6364H959.91V100.227H941.128V82.6364H922.345V100.227H903.563V117.818H922.345V135.409H903.563V153ZM922.345 117.818V100.227H941.128V117.818H922.345ZM941.128 117.818H959.91V135.409H941.128V117.818ZM959.91 117.818V100.227H978.693V117.818H959.91ZM978.693 117.818H997.475V135.409H978.693V117.818Z" fill="#5AAF21" fill-opacity="0.5"/>
<path d="M903.563 82.1367V11.7733H1016.26V82.1367H903.563ZM903.563 82.1367H922.345V64.5459H941.128V82.1367H959.91V64.5459H978.693V82.1367H997.475V64.5459H1016.26V46.955H997.475V29.3641H1016.26V11.7733H997.475V29.3641H978.693V11.7733H959.91V29.3641H941.128V11.7733H922.345V29.3641H903.563V46.955H922.345V64.5459H903.563V82.1367ZM922.345 46.955V29.3641H941.128V46.955H922.345ZM941.128 46.955H959.91V64.5459H941.128V46.955ZM959.91 46.955V29.3641H978.693V46.955H959.91ZM978.693 46.955H997.475V64.5459H978.693V46.955Z" fill="#5AAF21" fill-opacity="0.5"/>
<path d="M1015.26 505V434.637H1127.95V505H1015.26ZM1015.26 505H1034.04V487.409H1052.82V505H1071.61V487.409H1090.39V505H1109.17V487.409H1127.95V469.818H1109.17V452.227H1127.95V434.637H1109.17V452.227H1090.39V434.637H1071.61V452.227H1052.82V434.637H1034.04V452.227H1015.26V469.818H1034.04V487.409H1015.26V505ZM1034.04 469.818V452.227H1052.82V469.818H1034.04ZM1052.82 469.818H1071.61V487.409H1052.82V469.818ZM1071.61 469.818V452.227H1090.39V469.818H1071.61ZM1090.39 469.818H1109.17V487.409H1090.39V469.818Z" fill="#5AAF21" fill-opacity="0.5"/>
<path d="M1015.26 434V363.637H1127.95V434H1015.26ZM1015.26 434H1034.04V416.409H1052.82V434H1071.61V416.409H1090.39V434H1109.17V416.409H1127.95V398.818H1109.17V381.228H1127.95V363.637H1109.17V381.228H1090.39V363.637H1071.61V381.228H1052.82V363.637H1034.04V381.228H1015.26V398.818H1034.04V416.409H1015.26V434ZM1034.04 398.818V381.228H1052.82V398.818H1034.04ZM1052.82 398.818H1071.61V416.409H1052.82V398.818ZM1071.61 398.818V381.228H1090.39V398.818H1071.61ZM1090.39 398.818H1109.17V416.409H1090.39V398.818Z" fill="#5AAF21" fill-opacity="0.5"/>
<path d="M1015.26 364V293.637H1127.95V364H1015.26ZM1015.26 364H1034.04V346.409H1052.82V364H1071.61V346.409H1090.39V364H1109.17V346.409H1127.95V328.819H1109.17V311.228H1127.95V293.637H1109.17V311.228H1090.39V293.637H1071.61V311.228H1052.82V293.637H1034.04V311.228H1015.26V328.819H1034.04V346.409H1015.26V364ZM1034.04 328.819V311.228H1052.82V328.819H1034.04ZM1052.82 328.819H1071.61V346.409H1052.82V328.819ZM1071.61 328.819V311.228H1090.39V328.819H1071.61ZM1090.39 328.819H1109.17V346.409H1090.39V328.819Z" fill="#5AAF21" fill-opacity="0.5"/>
<path d="M1015.26 294V223.636H1127.95V294H1015.26ZM1015.26 294H1034.04V276.409H1052.82V294H1071.61V276.409H1090.39V294H1109.17V276.409H1127.95V258.818H1109.17V241.227H1127.95V223.636H1109.17V241.227H1090.39V223.636H1071.61V241.227H1052.82V223.636H1034.04V241.227H1015.26V258.818H1034.04V276.409H1015.26V294ZM1034.04 258.818V241.227H1052.82V258.818H1034.04ZM1052.82 258.818H1071.61V276.409H1052.82V258.818ZM1071.61 258.818V241.227H1090.39V258.818H1071.61ZM1090.39 258.818H1109.17V276.409H1090.39V258.818Z" fill="#5AAF21" fill-opacity="0.5"/>
<path d="M1015.26 223V152.636H1127.95V223H1015.26ZM1015.26 223H1034.04V205.409H1052.82V223H1071.61V205.409H1090.39V223H1109.17V205.409H1127.95V187.818H1109.17V170.227H1127.95V152.636H1109.17V170.227H1090.39V152.636H1071.61V170.227H1052.82V152.636H1034.04V170.227H1015.26V187.818H1034.04V205.409H1015.26V223ZM1034.04 187.818V170.227H1052.82V187.818H1034.04ZM1052.82 187.818H1071.61V205.409H1052.82V187.818ZM1071.61 187.818V170.227H1090.39V187.818H1071.61ZM1090.39 187.818H1109.17V205.409H1090.39V187.818Z" fill="#5AAF21" fill-opacity="0.5"/>
<path d="M1015.26 153V82.6364H1127.95V153H1015.26ZM1015.26 153H1034.04V135.409H1052.82V153H1071.61V135.409H1090.39V153H1109.17V135.409H1127.95V117.818H1109.17V100.227H1127.95V82.6364H1109.17V100.227H1090.39V82.6364H1071.61V100.227H1052.82V82.6364H1034.04V100.227H1015.26V117.818H1034.04V135.409H1015.26V153ZM1034.04 117.818V100.227H1052.82V117.818H1034.04ZM1052.82 117.818H1071.61V135.409H1052.82V117.818ZM1071.61 117.818V100.227H1090.39V117.818H1071.61ZM1090.39 117.818H1109.17V135.409H1090.39V117.818Z" fill="#5AAF21" fill-opacity="0.5"/>
<path d="M1015.26 82.1367V11.7733H1127.95V82.1367H1015.26ZM1015.26 82.1367H1034.04V64.5459H1052.82V82.1367H1071.61V64.5459H1090.39V82.1367H1109.17V64.5459H1127.95V46.955H1109.17V29.3641H1127.95V11.7733H1109.17V29.3641H1090.39V11.7733H1071.61V29.3641H1052.82V11.7733H1034.04V29.3641H1015.26V46.955H1034.04V64.5459H1015.26V82.1367ZM1034.04 46.955V29.3641H1052.82V46.955H1034.04ZM1052.82 46.955H1071.61V64.5459H1052.82V46.955ZM1071.61 46.955V29.3641H1090.39V46.955H1071.61ZM1090.39 46.955H1109.17V64.5459H1090.39V46.955Z" fill="#5AAF21" fill-opacity="0.5"/>
<path d="M10 486.34V556.703H122.695V486.34H10ZM10 486.34H28.7826V503.931H47.5651V486.34H66.3477V503.931H85.1302V486.34H103.913V503.931H122.695V521.522H103.913V539.112H122.695V556.703H103.913V539.112H85.1302V556.703H66.3477V539.112H47.5651V556.703H28.7826V539.112H10V521.522H28.7826V503.931H10V486.34ZM28.7826 521.522V539.112H47.5651V521.522H28.7826ZM47.5651 521.522H66.3477V503.931H47.5651V521.522ZM66.3477 521.522V539.112H85.1302V521.522H66.3477ZM85.1302 521.522H103.913V503.931H85.1302V521.522Z" fill="#5AAF21" fill-opacity="0.5"/>
<path d="M10 556.703V627.066H122.695V556.703H10ZM10 556.703H28.7826V574.294H47.5651V556.703H66.3477V574.294H85.1302V556.703H103.913V574.294H122.695V591.885H103.913V609.476H122.695V627.066H103.913V609.476H85.1302V627.066H66.3477V609.476H47.5651V627.066H28.7826V609.476H10V591.885H28.7826V574.294H10V556.703ZM28.7826 591.885V609.476H47.5651V591.885H28.7826ZM47.5651 591.885H66.3477V574.294H47.5651V591.885ZM66.3477 591.885V609.476H85.1302V591.885H66.3477ZM85.1302 591.885H103.913V574.294H85.1302V591.885Z" fill="#5AAF21" fill-opacity="0.5"/>
<path d="M10 627.067V697.43H122.695V627.067H10ZM10 627.067H28.7826V644.658H47.5651V627.067H66.3477V644.658H85.1302V627.067H103.913V644.658H122.695V662.249H103.913V679.84H122.695V697.43H103.913V679.84H85.1302V697.43H66.3477V679.84H47.5651V697.43H28.7826V679.84H10V662.249H28.7826V644.658H10V627.067ZM28.7826 662.249V679.84H47.5651V662.249H28.7826ZM47.5651 662.249H66.3477V644.658H47.5651V662.249ZM66.3477 662.249V679.84H85.1302V662.249H66.3477ZM85.1302 662.249H103.913V644.658H85.1302V662.249Z" fill="#5AAF21" fill-opacity="0.5"/>
<path d="M10 697.43V767.794H122.695V697.43H10ZM10 697.43H28.7826V715.021H47.5651V697.43H66.3477V715.021H85.1302V697.43H103.913V715.021H122.695V732.612H103.913V750.203H122.695V767.794H103.913V750.203H85.1302V767.794H66.3477V750.203H47.5651V767.794H28.7826V750.203H10V732.612H28.7826V715.021H10V697.43ZM28.7826 732.612V750.203H47.5651V732.612H28.7826ZM47.5651 732.612H66.3477V715.021H47.5651V732.612ZM66.3477 732.612V750.203H85.1302V732.612H66.3477ZM85.1302 732.612H103.913V715.021H85.1302V732.612Z" fill="#5AAF21" fill-opacity="0.5"/>
<path d="M10 767.793V838.157H122.695V767.793H10ZM10 767.793H28.7826V785.384H47.5651V767.793H66.3477V785.384H85.1302V767.793H103.913V785.384H122.695V802.975H103.913V820.566H122.695V838.157H103.913V820.566H85.1302V838.157H66.3477V820.566H47.5651V838.157H28.7826V820.566H10V802.975H28.7826V785.384H10V767.793ZM28.7826 802.975V820.566H47.5651V802.975H28.7826ZM47.5651 802.975H66.3477V785.384H47.5651V802.975ZM66.3477 802.975V820.566H85.1302V802.975H66.3477ZM85.1302 802.975H103.913V785.384H85.1302V802.975Z" fill="#5AAF21" fill-opacity="0.5"/>
<path d="M10 838.157V908.521H122.695V838.157H10ZM10 838.157H28.7826V855.748H47.5651V838.157H66.3477V855.748H85.1302V838.157H103.913V855.748H122.695V873.339H103.913V890.93H122.695V908.521H103.913V890.93H85.1302V908.521H66.3477V890.93H47.5651V908.521H28.7826V890.93H10V873.339H28.7826V855.748H10V838.157ZM28.7826 873.339V890.93H47.5651V873.339H28.7826ZM47.5651 873.339H66.3477V855.748H47.5651V873.339ZM66.3477 873.339V890.93H85.1302V873.339H66.3477ZM85.1302 873.339H103.913V855.748H85.1302V873.339Z" fill="#5AAF21" fill-opacity="0.5"/>
<path d="M10 908.521V978.884H122.695V908.521H10ZM10 908.521H28.7826V926.111H47.5651V908.521H66.3477V926.111H85.1302V908.521H103.913V926.111H122.695V943.702H103.913V961.293H122.695V978.884H103.913V961.293H85.1302V978.884H66.3477V961.293H47.5651V978.884H28.7826V961.293H10V943.702H28.7826V926.111H10V908.521ZM28.7826 943.702V961.293H47.5651V943.702H28.7826ZM47.5651 943.702H66.3477V926.111H47.5651V943.702ZM66.3477 943.702V961.293H85.1302V943.702H66.3477ZM85.1302 943.702H103.913V926.111H85.1302V943.702Z" fill="#5AAF21" fill-opacity="0.5"/>
<path d="M121.861 486.34V556.703H234.557V486.34H121.861ZM121.861 486.34H140.644V503.931H159.426V486.34H178.209V503.931H196.992V486.34H215.774V503.931H234.557V521.522H215.774V539.112H234.557V556.703H215.774V539.112H196.992V556.703H178.209V539.112H159.426V556.703H140.644V539.112H121.861V521.522H140.644V503.931H121.861V486.34ZM140.644 521.522V539.112H159.426V521.522H140.644ZM159.426 521.522H178.209V503.931H159.426V521.522ZM178.209 521.522V539.112H196.992V521.522H178.209ZM196.992 521.522H215.774V503.931H196.992V521.522Z" fill="#5AAF21" fill-opacity="0.5"/>
<path d="M121.861 556.703V627.066H234.557V556.703H121.861ZM121.861 556.703H140.644V574.294H159.426V556.703H178.209V574.294H196.992V556.703H215.774V574.294H234.557V591.885H215.774V609.476H234.557V627.066H215.774V609.476H196.992V627.066H178.209V609.476H159.426V627.066H140.644V609.476H121.861V591.885H140.644V574.294H121.861V556.703ZM140.644 591.885V609.476H159.426V591.885H140.644ZM159.426 591.885H178.209V574.294H159.426V591.885ZM178.209 591.885V609.476H196.992V591.885H178.209ZM196.992 591.885H215.774V574.294H196.992V591.885Z" fill="#5AAF21" fill-opacity="0.5"/>
<path d="M121.861 627.067V697.43H234.557V627.067H121.861ZM121.861 627.067H140.644V644.658H159.426V627.067H178.209V644.658H196.992V627.067H215.774V644.658H234.557V662.249H215.774V679.84H234.557V697.43H215.774V679.84H196.992V697.43H178.209V679.84H159.426V697.43H140.644V679.84H121.861V662.249H140.644V644.658H121.861V627.067ZM140.644 662.249V679.84H159.426V662.249H140.644ZM159.426 662.249H178.209V644.658H159.426V662.249ZM178.209 662.249V679.84H196.992V662.249H178.209ZM196.992 662.249H215.774V644.658H196.992V662.249Z" fill="#5AAF21" fill-opacity="0.5"/>
<path d="M121.861 697.43V767.794H234.557V697.43H121.861ZM121.861 697.43H140.644V715.021H159.426V697.43H178.209V715.021H196.992V697.43H215.774V715.021H234.557V732.612H215.774V750.203H234.557V767.794H215.774V750.203H196.992V767.794H178.209V750.203H159.426V767.794H140.644V750.203H121.861V732.612H140.644V715.021H121.861V697.43ZM140.644 732.612V750.203H159.426V732.612H140.644ZM159.426 732.612H178.209V715.021H159.426V732.612ZM178.209 732.612V750.203H196.992V732.612H178.209ZM196.992 732.612H215.774V715.021H196.992V732.612Z" fill="#5AAF21" fill-opacity="0.5"/>
<path d="M121.861 767.793V838.157H234.557V767.793H121.861ZM121.861 767.793H140.644V785.384H159.426V767.793H178.209V785.384H196.992V767.793H215.774V785.384H234.557V802.975H215.774V820.566H234.557V838.157H215.774V820.566H196.992V838.157H178.209V820.566H159.426V838.157H140.644V820.566H121.861V802.975H140.644V785.384H121.861V767.793ZM140.644 802.975V820.566H159.426V802.975H140.644ZM159.426 802.975H178.209V785.384H159.426V802.975ZM178.209 802.975V820.566H196.992V802.975H178.209ZM196.992 802.975H215.774V785.384H196.992V802.975Z" fill="#5AAF21" fill-opacity="0.5"/>
<path d="M121.861 838.157V908.521H234.557V838.157H121.861ZM121.861 838.157H140.644V855.748H159.426V838.157H178.209V855.748H196.992V838.157H215.774V855.748H234.557V873.339H215.774V890.93H234.557V908.521H215.774V890.93H196.992V908.521H178.209V890.93H159.426V908.521H140.644V890.93H121.861V873.339H140.644V855.748H121.861V838.157ZM140.644 873.339V890.93H159.426V873.339H140.644ZM159.426 873.339H178.209V855.748H159.426V873.339ZM178.209 873.339V890.93H196.992V873.339H178.209ZM196.992 873.339H215.774V855.748H196.992V873.339Z" fill="#5AAF21" fill-opacity="0.5"/>
<path d="M121.861 908.521V978.884H234.557V908.521H121.861ZM121.861 908.521H140.644V926.111H159.426V908.521H178.209V926.111H196.992V908.521H215.774V926.111H234.557V943.702H215.774V961.293H234.557V978.884H215.774V961.293H196.992V978.884H178.209V961.293H159.426V978.884H140.644V961.293H121.861V943.702H140.644V926.111H121.861V908.521ZM140.644 943.702V961.293H159.426V943.702H140.644ZM159.426 943.702H178.209V926.111H159.426V943.702ZM178.209 943.702V961.293H196.992V943.702H178.209ZM196.992 943.702H215.774V926.111H196.992V943.702Z" fill="#5AAF21" fill-opacity="0.5"/>
<path d="M233.721 486.34V556.703H346.416V486.34H233.721ZM233.721 486.34H252.503V503.931H271.286V486.34H290.068V503.931H308.851V486.34H327.634V503.931H346.416V521.522H327.634V539.112H346.416V556.703H327.634V539.112H308.851V556.703H290.068V539.112H271.286V556.703H252.503V539.112H233.721V521.522H252.503V503.931H233.721V486.34ZM252.503 521.522V539.112H271.286V521.522H252.503ZM271.286 521.522H290.068V503.931H271.286V521.522ZM290.068 521.522V539.112H308.851V521.522H290.068ZM308.851 521.522H327.634V503.931H308.851V521.522Z" fill="#5AAF21" fill-opacity="0.5"/>
<path d="M233.721 556.703V627.066H346.416V556.703H233.721ZM233.721 556.703H252.503V574.294H271.286V556.703H290.068V574.294H308.851V556.703H327.634V574.294H346.416V591.885H327.634V609.476H346.416V627.066H327.634V609.476H308.851V627.066H290.068V609.476H271.286V627.066H252.503V609.476H233.721V591.885H252.503V574.294H233.721V556.703ZM252.503 591.885V609.476H271.286V591.885H252.503ZM271.286 591.885H290.068V574.294H271.286V591.885ZM290.068 591.885V609.476H308.851V591.885H290.068ZM308.851 591.885H327.634V574.294H308.851V591.885Z" fill="#5AAF21" fill-opacity="0.5"/>
<path d="M233.721 627.067V697.43H346.416V627.067H233.721ZM233.721 627.067H252.503V644.658H271.286V627.067H290.068V644.658H308.851V627.067H327.634V644.658H346.416V662.249H327.634V679.84H346.416V697.43H327.634V679.84H308.851V697.43H290.068V679.84H271.286V697.43H252.503V679.84H233.721V662.249H252.503V644.658H233.721V627.067ZM252.503 662.249V679.84H271.286V662.249H252.503ZM271.286 662.249H290.068V644.658H271.286V662.249ZM290.068 662.249V679.84H308.851V662.249H290.068ZM308.851 662.249H327.634V644.658H308.851V662.249Z" fill="#5AAF21" fill-opacity="0.5"/>
<path d="M233.721 697.43V767.794H346.416V697.43H233.721ZM233.721 697.43H252.503V715.021H271.286V697.43H290.068V715.021H308.851V697.43H327.634V715.021H346.416V732.612H327.634V750.203H346.416V767.794H327.634V750.203H308.851V767.794H290.068V750.203H271.286V767.794H252.503V750.203H233.721V732.612H252.503V715.021H233.721V697.43ZM252.503 732.612V750.203H271.286V732.612H252.503ZM271.286 732.612H290.068V715.021H271.286V732.612ZM290.068 732.612V750.203H308.851V732.612H290.068ZM308.851 732.612H327.634V715.021H308.851V732.612Z" fill="#5AAF21" fill-opacity="0.5"/>
<path d="M233.721 767.793V838.157H346.416V767.793H233.721ZM233.721 767.793H252.503V785.384H271.286V767.793H290.068V785.384H308.851V767.793H327.634V785.384H346.416V802.975H327.634V820.566H346.416V838.157H327.634V820.566H308.851V838.157H290.068V820.566H271.286V838.157H252.503V820.566H233.721V802.975H252.503V785.384H233.721V767.793ZM252.503 802.975V820.566H271.286V802.975H252.503ZM271.286 802.975H290.068V785.384H271.286V802.975ZM290.068 802.975V820.566H308.851V802.975H290.068ZM308.851 802.975H327.634V785.384H308.851V802.975Z" fill="#5AAF21" fill-opacity="0.5"/>
<path d="M233.721 838.157V908.521H346.416V838.157H233.721ZM233.721 838.157H252.503V855.748H271.286V838.157H290.068V855.748H308.851V838.157H327.634V855.748H346.416V873.339H327.634V890.93H346.416V908.521H327.634V890.93H308.851V908.521H290.068V890.93H271.286V908.521H252.503V890.93H233.721V873.339H252.503V855.748H233.721V838.157ZM252.503 873.339V890.93H271.286V873.339H252.503ZM271.286 873.339H290.068V855.748H271.286V873.339ZM290.068 873.339V890.93H308.851V873.339H290.068ZM308.851 873.339H327.634V855.748H308.851V873.339Z" fill="#5AAF21" fill-opacity="0.5"/>
<path d="M233.721 908.521V978.884H346.416V908.521H233.721ZM233.721 908.521H252.503V926.111H271.286V908.521H290.068V926.111H308.851V908.521H327.634V926.111H346.416V943.702H327.634V961.293H346.416V978.884H327.634V961.293H308.851V978.884H290.068V961.293H271.286V978.884H252.503V961.293H233.721V943.702H252.503V926.111H233.721V908.521ZM252.503 943.702V961.293H271.286V943.702H252.503ZM271.286 943.702H290.068V926.111H271.286V943.702ZM290.068 943.702V961.293H308.851V943.702H290.068ZM308.851 943.702H327.634V926.111H308.851V943.702Z" fill="#5AAF21" fill-opacity="0.5"/>
<path d="M345.582 486.34V556.703H458.277V486.34H345.582ZM345.582 486.34H364.365V503.931H383.147V486.34H401.93V503.931H420.712V486.34H439.495V503.931H458.277V521.522H439.495V539.112H458.277V556.703H439.495V539.112H420.712V556.703H401.93V539.112H383.147V556.703H364.365V539.112H345.582V521.522H364.365V503.931H345.582V486.34ZM364.365 521.522V539.112H383.147V521.522H364.365ZM383.147 521.522H401.93V503.931H383.147V521.522ZM401.93 521.522V539.112H420.712V521.522H401.93ZM420.712 521.522H439.495V503.931H420.712V521.522Z" fill="#5AAF21" fill-opacity="0.5"/>
<path d="M345.582 556.703V627.066H458.277V556.703H345.582ZM345.582 556.703H364.365V574.294H383.147V556.703H401.93V574.294H420.712V556.703H439.495V574.294H458.277V591.885H439.495V609.476H458.277V627.066H439.495V609.476H420.712V627.066H401.93V609.476H383.147V627.066H364.365V609.476H345.582V591.885H364.365V574.294H345.582V556.703ZM364.365 591.885V609.476H383.147V591.885H364.365ZM383.147 591.885H401.93V574.294H383.147V591.885ZM401.93 591.885V609.476H420.712V591.885H401.93ZM420.712 591.885H439.495V574.294H420.712V591.885Z" fill="#5AAF21" fill-opacity="0.5"/>
<path d="M345.582 627.067V697.43H458.277V627.067H345.582ZM345.582 627.067H364.365V644.658H383.147V627.067H401.93V644.658H420.712V627.067H439.495V644.658H458.277V662.249H439.495V679.84H458.277V697.43H439.495V679.84H420.712V697.43H401.93V679.84H383.147V697.43H364.365V679.84H345.582V662.249H364.365V644.658H345.582V627.067ZM364.365 662.249V679.84H383.147V662.249H364.365ZM383.147 662.249H401.93V644.658H383.147V662.249ZM401.93 662.249V679.84H420.712V662.249H401.93ZM420.712 662.249H439.495V644.658H420.712V662.249Z" fill="#5AAF21" fill-opacity="0.5"/>
<path d="M345.582 697.43V767.794H458.277V697.43H345.582ZM345.582 697.43H364.365V715.021H383.147V697.43H401.93V715.021H420.712V697.43H439.495V715.021H458.277V732.612H439.495V750.203H458.277V767.794H439.495V750.203H420.712V767.794H401.93V750.203H383.147V767.794H364.365V750.203H345.582V732.612H364.365V715.021H345.582V697.43ZM364.365 732.612V750.203H383.147V732.612H364.365ZM383.147 732.612H401.93V715.021H383.147V732.612ZM401.93 732.612V750.203H420.712V732.612H401.93ZM420.712 732.612H439.495V715.021H420.712V732.612Z" fill="#5AAF21" fill-opacity="0.5"/>
<path d="M345.582 767.793V838.157H458.277V767.793H345.582ZM345.582 767.793H364.365V785.384H383.147V767.793H401.93V785.384H420.712V767.793H439.495V785.384H458.277V802.975H439.495V820.566H458.277V838.157H439.495V820.566H420.712V838.157H401.93V820.566H383.147V838.157H364.365V820.566H345.582V802.975H364.365V785.384H345.582V767.793ZM364.365 802.975V820.566H383.147V802.975H364.365ZM383.147 802.975H401.93V785.384H383.147V802.975ZM401.93 802.975V820.566H420.712V802.975H401.93ZM420.712 802.975H439.495V785.384H420.712V802.975Z" fill="#5AAF21" fill-opacity="0.5"/>
<path d="M345.582 838.157V908.521H458.277V838.157H345.582ZM345.582 838.157H364.365V855.748H383.147V838.157H401.93V855.748H420.712V838.157H439.495V855.748H458.277V873.339H439.495V890.93H458.277V908.521H439.495V890.93H420.712V908.521H401.93V890.93H383.147V908.521H364.365V890.93H345.582V873.339H364.365V855.748H345.582V838.157ZM364.365 873.339V890.93H383.147V873.339H364.365ZM383.147 873.339H401.93V855.748H383.147V873.339ZM401.93 873.339V890.93H420.712V873.339H401.93ZM420.712 873.339H439.495V855.748H420.712V873.339Z" fill="#5AAF21" fill-opacity="0.5"/>
<path d="M345.582 908.521V978.884H458.277V908.521H345.582ZM345.582 908.521H364.365V926.111H383.147V908.521H401.93V926.111H420.712V908.521H439.495V926.111H458.277V943.702H439.495V961.293H458.277V978.884H439.495V961.293H420.712V978.884H401.93V961.293H383.147V978.884H364.365V961.293H345.582V943.702H364.365V926.111H345.582V908.521ZM364.365 943.702V961.293H383.147V943.702H364.365ZM383.147 943.702H401.93V926.111H383.147V943.702ZM401.93 943.702V961.293H420.712V943.702H401.93ZM420.712 943.702H439.495V926.111H420.712V943.702Z" fill="#5AAF21" fill-opacity="0.5"/>
<path d="M457.441 486.34V556.703H570.137V486.34H457.441ZM457.441 486.34H476.224V503.931H495.007V486.34H513.789V503.931H532.572V486.34H551.354V503.931H570.137V521.522H551.354V539.112H570.137V556.703H551.354V539.112H532.572V556.703H513.789V539.112H495.007V556.703H476.224V539.112H457.441V521.522H476.224V503.931H457.441V486.34ZM476.224 521.522V539.112H495.007V521.522H476.224ZM495.007 521.522H513.789V503.931H495.007V521.522ZM513.789 521.522V539.112H532.572V521.522H513.789ZM532.572 521.522H551.354V503.931H532.572V521.522Z" fill="#5AAF21" fill-opacity="0.5"/>
<path d="M457.441 556.703V627.066H570.137V556.703H457.441ZM457.441 556.703H476.224V574.294H495.007V556.703H513.789V574.294H532.572V556.703H551.354V574.294H570.137V591.885H551.354V609.476H570.137V627.066H551.354V609.476H532.572V627.066H513.789V609.476H495.007V627.066H476.224V609.476H457.441V591.885H476.224V574.294H457.441V556.703ZM476.224 591.885V609.476H495.007V591.885H476.224ZM495.007 591.885H513.789V574.294H495.007V591.885ZM513.789 591.885V609.476H532.572V591.885H513.789ZM532.572 591.885H551.354V574.294H532.572V591.885Z" fill="#5AAF21" fill-opacity="0.5"/>
<path d="M457.441 627.067V697.43H570.137V627.067H457.441ZM457.441 627.067H476.224V644.658H495.007V627.067H513.789V644.658H532.572V627.067H551.354V644.658H570.137V662.249H551.354V679.84H570.137V697.43H551.354V679.84H532.572V697.43H513.789V679.84H495.007V697.43H476.224V679.84H457.441V662.249H476.224V644.658H457.441V627.067ZM476.224 662.249V679.84H495.007V662.249H476.224ZM495.007 662.249H513.789V644.658H495.007V662.249ZM513.789 662.249V679.84H532.572V662.249H513.789ZM532.572 662.249H551.354V644.658H532.572V662.249Z" fill="#5AAF21" fill-opacity="0.5"/>
<path d="M457.441 697.43V767.794H570.137V697.43H457.441ZM457.441 697.43H476.224V715.021H495.007V697.43H513.789V715.021H532.572V697.43H551.354V715.021H570.137V732.612H551.354V750.203H570.137V767.794H551.354V750.203H532.572V767.794H513.789V750.203H495.007V767.794H476.224V750.203H457.441V732.612H476.224V715.021H457.441V697.43ZM476.224 732.612V750.203H495.007V732.612H476.224ZM495.007 732.612H513.789V715.021H495.007V732.612ZM513.789 732.612V750.203H532.572V732.612H513.789ZM532.572 732.612H551.354V715.021H532.572V732.612Z" fill="#5AAF21" fill-opacity="0.5"/>
<path d="M457.441 767.793V838.157H570.137V767.793H457.441ZM457.441 767.793H476.224V785.384H495.007V767.793H513.789V785.384H532.572V767.793H551.354V785.384H570.137V802.975H551.354V820.566H570.137V838.157H551.354V820.566H532.572V838.157H513.789V820.566H495.007V838.157H476.224V820.566H457.441V802.975H476.224V785.384H457.441V767.793ZM476.224 802.975V820.566H495.007V802.975H476.224ZM495.007 802.975H513.789V785.384H495.007V802.975ZM513.789 802.975V820.566H532.572V802.975H513.789ZM532.572 802.975H551.354V785.384H532.572V802.975Z" fill="#5AAF21" fill-opacity="0.5"/>
<path d="M457.441 838.157V908.521H570.137V838.157H457.441ZM457.441 838.157H476.224V855.748H495.007V838.157H513.789V855.748H532.572V838.157H551.354V855.748H570.137V873.339H551.354V890.93H570.137V908.521H551.354V890.93H532.572V908.521H513.789V890.93H495.007V908.521H476.224V890.93H457.441V873.339H476.224V855.748H457.441V838.157ZM476.224 873.339V890.93H495.007V873.339H476.224ZM495.007 873.339H513.789V855.748H495.007V873.339ZM513.789 873.339V890.93H532.572V873.339H513.789ZM532.572 873.339H551.354V855.748H532.572V873.339Z" fill="#5AAF21" fill-opacity="0.5"/>
<path d="M457.441 908.521V978.884H570.137V908.521H457.441ZM457.441 908.521H476.224V926.111H495.007V908.521H513.789V926.111H532.572V908.521H551.354V926.111H570.137V943.702H551.354V961.293H570.137V978.884H551.354V961.293H532.572V978.884H513.789V961.293H495.007V978.884H476.224V961.293H457.441V943.702H476.224V926.111H457.441V908.521ZM476.224 943.702V961.293H495.007V943.702H476.224ZM495.007 943.702H513.789V926.111H495.007V943.702ZM513.789 943.702V961.293H532.572V943.702H513.789ZM532.572 943.702H551.354V926.111H532.572V943.702Z" fill="#5AAF21" fill-opacity="0.5"/>
<path d="M569.303 486.34V556.703H681.998V486.34H569.303ZM569.303 486.34H588.085V503.931H606.868V486.34H625.65V503.931H644.433V486.34H663.216V503.931H681.998V521.522H663.216V539.112H681.998V556.703H663.216V539.112H644.433V556.703H625.65V539.112H606.868V556.703H588.085V539.112H569.303V521.522H588.085V503.931H569.303V486.34ZM588.085 521.522V539.112H606.868V521.522H588.085ZM606.868 521.522H625.65V503.931H606.868V521.522ZM625.65 521.522V539.112H644.433V521.522H625.65ZM644.433 521.522H663.216V503.931H644.433V521.522Z" fill="#5AAF21" fill-opacity="0.5"/>
<path d="M569.303 556.703V627.066H681.998V556.703H569.303ZM569.303 556.703H588.085V574.294H606.868V556.703H625.65V574.294H644.433V556.703H663.216V574.294H681.998V591.885H663.216V609.476H681.998V627.066H663.216V609.476H644.433V627.066H625.65V609.476H606.868V627.066H588.085V609.476H569.303V591.885H588.085V574.294H569.303V556.703ZM588.085 591.885V609.476H606.868V591.885H588.085ZM606.868 591.885H625.65V574.294H606.868V591.885ZM625.65 591.885V609.476H644.433V591.885H625.65ZM644.433 591.885H663.216V574.294H644.433V591.885Z" fill="#5AAF21" fill-opacity="0.5"/>
<path d="M569.303 627.067V697.43H681.998V627.067H569.303ZM569.303 627.067H588.085V644.658H606.868V627.067H625.65V644.658H644.433V627.067H663.216V644.658H681.998V662.249H663.216V679.84H681.998V697.43H663.216V679.84H644.433V697.43H625.65V679.84H606.868V697.43H588.085V679.84H569.303V662.249H588.085V644.658H569.303V627.067ZM588.085 662.249V679.84H606.868V662.249H588.085ZM606.868 662.249H625.65V644.658H606.868V662.249ZM625.65 662.249V679.84H644.433V662.249H625.65ZM644.433 662.249H663.216V644.658H644.433V662.249Z" fill="#5AAF21" fill-opacity="0.5"/>
<path d="M569.303 697.43V767.794H681.998V697.43H569.303ZM569.303 697.43H588.085V715.021H606.868V697.43H625.65V715.021H644.433V697.43H663.216V715.021H681.998V732.612H663.216V750.203H681.998V767.794H663.216V750.203H644.433V767.794H625.65V750.203H606.868V767.794H588.085V750.203H569.303V732.612H588.085V715.021H569.303V697.43ZM588.085 732.612V750.203H606.868V732.612H588.085ZM606.868 732.612H625.65V715.021H606.868V732.612ZM625.65 732.612V750.203H644.433V732.612H625.65ZM644.433 732.612H663.216V715.021H644.433V732.612Z" fill="#5AAF21" fill-opacity="0.5"/>
<path d="M569.303 767.793V838.157H681.998V767.793H569.303ZM569.303 767.793H588.085V785.384H606.868V767.793H625.65V785.384H644.433V767.793H663.216V785.384H681.998V802.975H663.216V820.566H681.998V838.157H663.216V820.566H644.433V838.157H625.65V820.566H606.868V838.157H588.085V820.566H569.303V802.975H588.085V785.384H569.303V767.793ZM588.085 802.975V820.566H606.868V802.975H588.085ZM606.868 802.975H625.65V785.384H606.868V802.975ZM625.65 802.975V820.566H644.433V802.975H625.65ZM644.433 802.975H663.216V785.384H644.433V802.975Z" fill="#5AAF21" fill-opacity="0.5"/>
<path d="M569.303 838.157V908.521H681.998V838.157H569.303ZM569.303 838.157H588.085V855.748H606.868V838.157H625.65V855.748H644.433V838.157H663.216V855.748H681.998V873.339H663.216V890.93H681.998V908.521H663.216V890.93H644.433V908.521H625.65V890.93H606.868V908.521H588.085V890.93H569.303V873.339H588.085V855.748H569.303V838.157ZM588.085 873.339V890.93H606.868V873.339H588.085ZM606.868 873.339H625.65V855.748H606.868V873.339ZM625.65 873.339V890.93H644.433V873.339H625.65ZM644.433 873.339H663.216V855.748H644.433V873.339Z" fill="#5AAF21" fill-opacity="0.5"/>
<path d="M569.303 908.521V978.884H681.998V908.521H569.303ZM569.303 908.521H588.085V926.111H606.868V908.521H625.65V926.111H644.433V908.521H663.216V926.111H681.998V943.702H663.216V961.293H681.998V978.884H663.216V961.293H644.433V978.884H625.65V961.293H606.868V978.884H588.085V961.293H569.303V943.702H588.085V926.111H569.303V908.521ZM588.085 943.702V961.293H606.868V943.702H588.085ZM606.868 943.702H625.65V926.111H606.868V943.702ZM625.65 943.702V961.293H644.433V943.702H625.65ZM644.433 943.702H663.216V926.111H644.433V943.702Z" fill="#5AAF21" fill-opacity="0.5"/>
<path d="M681.164 486.34V556.703H793.859V486.34H681.164ZM681.164 486.34H699.947V503.931H718.729V486.34H737.512V503.931H756.294V486.34H775.077V503.931H793.859V521.522H775.077V539.112H793.859V556.703H775.077V539.112H756.294V556.703H737.512V539.112H718.729V556.703H699.947V539.112H681.164V521.522H699.947V503.931H681.164V486.34ZM699.947 521.522V539.112H718.729V521.522H699.947ZM718.729 521.522H737.512V503.931H718.729V521.522ZM737.512 521.522V539.112H756.294V521.522H737.512ZM756.294 521.522H775.077V503.931H756.294V521.522Z" fill="#5AAF21" fill-opacity="0.5"/>
<path d="M681.164 556.703V627.066H793.859V556.703H681.164ZM681.164 556.703H699.947V574.294H718.729V556.703H737.512V574.294H756.294V556.703H775.077V574.294H793.859V591.885H775.077V609.476H793.859V627.066H775.077V609.476H756.294V627.066H737.512V609.476H718.729V627.066H699.947V609.476H681.164V591.885H699.947V574.294H681.164V556.703ZM699.947 591.885V609.476H718.729V591.885H699.947ZM718.729 591.885H737.512V574.294H718.729V591.885ZM737.512 591.885V609.476H756.294V591.885H737.512ZM756.294 591.885H775.077V574.294H756.294V591.885Z" fill="#5AAF21" fill-opacity="0.5"/>
<path d="M681.164 627.067V697.43H793.859V627.067H681.164ZM681.164 627.067H699.947V644.658H718.729V627.067H737.512V644.658H756.294V627.067H775.077V644.658H793.859V662.249H775.077V679.84H793.859V697.43H775.077V679.84H756.294V697.43H737.512V679.84H718.729V697.43H699.947V679.84H681.164V662.249H699.947V644.658H681.164V627.067ZM699.947 662.249V679.84H718.729V662.249H699.947ZM718.729 662.249H737.512V644.658H718.729V662.249ZM737.512 662.249V679.84H756.294V662.249H737.512ZM756.294 662.249H775.077V644.658H756.294V662.249Z" fill="#5AAF21" fill-opacity="0.5"/>
<path d="M681.164 697.43V767.794H793.859V697.43H681.164ZM681.164 697.43H699.947V715.021H718.729V697.43H737.512V715.021H756.294V697.43H775.077V715.021H793.859V732.612H775.077V750.203H793.859V767.794H775.077V750.203H756.294V767.794H737.512V750.203H718.729V767.794H699.947V750.203H681.164V732.612H699.947V715.021H681.164V697.43ZM699.947 732.612V750.203H718.729V732.612H699.947ZM718.729 732.612H737.512V715.021H718.729V732.612ZM737.512 732.612V750.203H756.294V732.612H737.512ZM756.294 732.612H775.077V715.021H756.294V732.612Z" fill="#5AAF21" fill-opacity="0.5"/>
<path d="M681.164 767.793V838.157H793.859V767.793H681.164ZM681.164 767.793H699.947V785.384H718.729V767.793H737.512V785.384H756.294V767.793H775.077V785.384H793.859V802.975H775.077V820.566H793.859V838.157H775.077V820.566H756.294V838.157H737.512V820.566H718.729V838.157H699.947V820.566H681.164V802.975H699.947V785.384H681.164V767.793ZM699.947 802.975V820.566H718.729V802.975H699.947ZM718.729 802.975H737.512V785.384H718.729V802.975ZM737.512 802.975V820.566H756.294V802.975H737.512ZM756.294 802.975H775.077V785.384H756.294V802.975Z" fill="#5AAF21" fill-opacity="0.5"/>
<path d="M681.164 838.157V908.521H793.859V838.157H681.164ZM681.164 838.157H699.947V855.748H718.729V838.157H737.512V855.748H756.294V838.157H775.077V855.748H793.859V873.339H775.077V890.93H793.859V908.521H775.077V890.93H756.294V908.521H737.512V890.93H718.729V908.521H699.947V890.93H681.164V873.339H699.947V855.748H681.164V838.157ZM699.947 873.339V890.93H718.729V873.339H699.947ZM718.729 873.339H737.512V855.748H718.729V873.339ZM737.512 873.339V890.93H756.294V873.339H737.512ZM756.294 873.339H775.077V855.748H756.294V873.339Z" fill="#5AAF21" fill-opacity="0.5"/>
<path d="M681.164 908.521V978.884H793.859V908.521H681.164ZM681.164 908.521H699.947V926.111H718.729V908.521H737.512V926.111H756.294V908.521H775.077V926.111H793.859V943.702H775.077V961.293H793.859V978.884H775.077V961.293H756.294V978.884H737.512V961.293H718.729V978.884H699.947V961.293H681.164V943.702H699.947V926.111H681.164V908.521ZM699.947 943.702V961.293H718.729V943.702H699.947ZM718.729 943.702H737.512V926.111H718.729V943.702ZM737.512 943.702V961.293H756.294V943.702H737.512ZM756.294 943.702H775.077V926.111H756.294V943.702Z" fill="#5AAF21" fill-opacity="0.5"/>
<path d="M793.023 486.34V556.703H905.719V486.34H793.023ZM793.023 486.34H811.806V503.931H830.589V486.34H849.371V503.931H868.154V486.34H886.936V503.931H905.719V521.522H886.936V539.112H905.719V556.703H886.936V539.112H868.154V556.703H849.371V539.112H830.589V556.703H811.806V539.112H793.023V521.522H811.806V503.931H793.023V486.34ZM811.806 521.522V539.112H830.589V521.522H811.806ZM830.589 521.522H849.371V503.931H830.589V521.522ZM849.371 521.522V539.112H868.154V521.522H849.371ZM868.154 521.522H886.936V503.931H868.154V521.522Z" fill="#5AAF21" fill-opacity="0.5"/>
<path d="M793.023 556.703V627.066H905.719V556.703H793.023ZM793.023 556.703H811.806V574.294H830.589V556.703H849.371V574.294H868.154V556.703H886.936V574.294H905.719V591.885H886.936V609.476H905.719V627.066H886.936V609.476H868.154V627.066H849.371V609.476H830.589V627.066H811.806V609.476H793.023V591.885H811.806V574.294H793.023V556.703ZM811.806 591.885V609.476H830.589V591.885H811.806ZM830.589 591.885H849.371V574.294H830.589V591.885ZM849.371 591.885V609.476H868.154V591.885H849.371ZM868.154 591.885H886.936V574.294H868.154V591.885Z" fill="#5AAF21" fill-opacity="0.5"/>
<path d="M793.023 627.067V697.43H905.719V627.067H793.023ZM793.023 627.067H811.806V644.658H830.589V627.067H849.371V644.658H868.154V627.067H886.936V644.658H905.719V662.249H886.936V679.84H905.719V697.43H886.936V679.84H868.154V697.43H849.371V679.84H830.589V697.43H811.806V679.84H793.023V662.249H811.806V644.658H793.023V627.067ZM811.806 662.249V679.84H830.589V662.249H811.806ZM830.589 662.249H849.371V644.658H830.589V662.249ZM849.371 662.249V679.84H868.154V662.249H849.371ZM868.154 662.249H886.936V644.658H868.154V662.249Z" fill="#5AAF21" fill-opacity="0.5"/>
<path d="M793.023 697.43V767.794H905.719V697.43H793.023ZM793.023 697.43H811.806V715.021H830.589V697.43H849.371V715.021H868.154V697.43H886.936V715.021H905.719V732.612H886.936V750.203H905.719V767.794H886.936V750.203H868.154V767.794H849.371V750.203H830.589V767.794H811.806V750.203H793.023V732.612H811.806V715.021H793.023V697.43ZM811.806 732.612V750.203H830.589V732.612H811.806ZM830.589 732.612H849.371V715.021H830.589V732.612ZM849.371 732.612V750.203H868.154V732.612H849.371ZM868.154 732.612H886.936V715.021H868.154V732.612Z" fill="#5AAF21" fill-opacity="0.5"/>
<path d="M793.023 767.793V838.157H905.719V767.793H793.023ZM793.023 767.793H811.806V785.384H830.589V767.793H849.371V785.384H868.154V767.793H886.936V785.384H905.719V802.975H886.936V820.566H905.719V838.157H886.936V820.566H868.154V838.157H849.371V820.566H830.589V838.157H811.806V820.566H793.023V802.975H811.806V785.384H793.023V767.793ZM811.806 802.975V820.566H830.589V802.975H811.806ZM830.589 802.975H849.371V785.384H830.589V802.975ZM849.371 802.975V820.566H868.154V802.975H849.371ZM868.154 802.975H886.936V785.384H868.154V802.975Z" fill="#5AAF21" fill-opacity="0.5"/>
<path d="M793.023 838.157V908.521H905.719V838.157H793.023ZM793.023 838.157H811.806V855.748H830.589V838.157H849.371V855.748H868.154V838.157H886.936V855.748H905.719V873.339H886.936V890.93H905.719V908.521H886.936V890.93H868.154V908.521H849.371V890.93H830.589V908.521H811.806V890.93H793.023V873.339H811.806V855.748H793.023V838.157ZM811.806 873.339V890.93H830.589V873.339H811.806ZM830.589 873.339H849.371V855.748H830.589V873.339ZM849.371 873.339V890.93H868.154V873.339H849.371ZM868.154 873.339H886.936V855.748H868.154V873.339Z" fill="#5AAF21" fill-opacity="0.5"/>
<path d="M793.023 908.521V978.884H905.719V908.521H793.023ZM793.023 908.521H811.806V926.111H830.589V908.521H849.371V926.111H868.154V908.521H886.936V926.111H905.719V943.702H886.936V961.293H905.719V978.884H886.936V961.293H868.154V978.884H849.371V961.293H830.589V978.884H811.806V961.293H793.023V943.702H811.806V926.111H793.023V908.521ZM811.806 943.702V961.293H830.589V943.702H811.806ZM830.589 943.702H849.371V926.111H830.589V943.702ZM849.371 943.702V961.293H868.154V943.702H849.371ZM868.154 943.702H886.936V926.111H868.154V943.702Z" fill="#5AAF21" fill-opacity="0.5"/>
<path d="M904.885 486.34V556.703H1017.58V486.34H904.885ZM904.885 486.34H923.667V503.931H942.45V486.34H961.232V503.931H980.015V486.34H998.798V503.931H1017.58V521.522H998.798V539.112H1017.58V556.703H998.798V539.112H980.015V556.703H961.232V539.112H942.45V556.703H923.667V539.112H904.885V521.522H923.667V503.931H904.885V486.34ZM923.667 521.522V539.112H942.45V521.522H923.667ZM942.45 521.522H961.232V503.931H942.45V521.522ZM961.232 521.522V539.112H980.015V521.522H961.232ZM980.015 521.522H998.798V503.931H980.015V521.522Z" fill="#5AAF21" fill-opacity="0.5"/>
<path d="M904.885 556.703V627.066H1017.58V556.703H904.885ZM904.885 556.703H923.667V574.294H942.45V556.703H961.232V574.294H980.015V556.703H998.798V574.294H1017.58V591.885H998.798V609.476H1017.58V627.066H998.798V609.476H980.015V627.066H961.232V609.476H942.45V627.066H923.667V609.476H904.885V591.885H923.667V574.294H904.885V556.703ZM923.667 591.885V609.476H942.45V591.885H923.667ZM942.45 591.885H961.232V574.294H942.45V591.885ZM961.232 591.885V609.476H980.015V591.885H961.232ZM980.015 591.885H998.798V574.294H980.015V591.885Z" fill="#5AAF21" fill-opacity="0.5"/>
<path d="M904.885 627.067V697.43H1017.58V627.067H904.885ZM904.885 627.067H923.667V644.658H942.45V627.067H961.232V644.658H980.015V627.067H998.798V644.658H1017.58V662.249H998.798V679.84H1017.58V697.43H998.798V679.84H980.015V697.43H961.232V679.84H942.45V697.43H923.667V679.84H904.885V662.249H923.667V644.658H904.885V627.067ZM923.667 662.249V679.84H942.45V662.249H923.667ZM942.45 662.249H961.232V644.658H942.45V662.249ZM961.232 662.249V679.84H980.015V662.249H961.232ZM980.015 662.249H998.798V644.658H980.015V662.249Z" fill="#5AAF21" fill-opacity="0.5"/>
<path d="M904.885 697.43V767.794H1017.58V697.43H904.885ZM904.885 697.43H923.667V715.021H942.45V697.43H961.232V715.021H980.015V697.43H998.798V715.021H1017.58V732.612H998.798V750.203H1017.58V767.794H998.798V750.203H980.015V767.794H961.232V750.203H942.45V767.794H923.667V750.203H904.885V732.612H923.667V715.021H904.885V697.43ZM923.667 732.612V750.203H942.45V732.612H923.667ZM942.45 732.612H961.232V715.021H942.45V732.612ZM961.232 732.612V750.203H980.015V732.612H961.232ZM980.015 732.612H998.798V715.021H980.015V732.612Z" fill="#5AAF21" fill-opacity="0.5"/>
<path d="M904.885 767.793V838.157H1017.58V767.793H904.885ZM904.885 767.793H923.667V785.384H942.45V767.793H961.232V785.384H980.015V767.793H998.798V785.384H1017.58V802.975H998.798V820.566H1017.58V838.157H998.798V820.566H980.015V838.157H961.232V820.566H942.45V838.157H923.667V820.566H904.885V802.975H923.667V785.384H904.885V767.793ZM923.667 802.975V820.566H942.45V802.975H923.667ZM942.45 802.975H961.232V785.384H942.45V802.975ZM961.232 802.975V820.566H980.015V802.975H961.232ZM980.015 802.975H998.798V785.384H980.015V802.975Z" fill="#5AAF21" fill-opacity="0.5"/>
<path d="M904.885 838.157V908.521H1017.58V838.157H904.885ZM904.885 838.157H923.667V855.748H942.45V838.157H961.232V855.748H980.015V838.157H998.798V855.748H1017.58V873.339H998.798V890.93H1017.58V908.521H998.798V890.93H980.015V908.521H961.232V890.93H942.45V908.521H923.667V890.93H904.885V873.339H923.667V855.748H904.885V838.157ZM923.667 873.339V890.93H942.45V873.339H923.667ZM942.45 873.339H961.232V855.748H942.45V873.339ZM961.232 873.339V890.93H980.015V873.339H961.232ZM980.015 873.339H998.798V855.748H980.015V873.339Z" fill="#5AAF21" fill-opacity="0.5"/>
<path d="M904.885 908.521V978.884H1017.58V908.521H904.885ZM904.885 908.521H923.667V926.111H942.45V908.521H961.232V926.111H980.015V908.521H998.798V926.111H1017.58V943.702H998.798V961.293H1017.58V978.884H998.798V961.293H980.015V978.884H961.232V961.293H942.45V978.884H923.667V961.293H904.885V943.702H923.667V926.111H904.885V908.521ZM923.667 943.702V961.293H942.45V943.702H923.667ZM942.45 943.702H961.232V926.111H942.45V943.702ZM961.232 943.702V961.293H980.015V943.702H961.232ZM980.015 943.702H998.798V926.111H980.015V943.702Z" fill="#5AAF21" fill-opacity="0.5"/>
<path d="M1016.75 486.34V556.703H1129.44V486.34H1016.75ZM1016.75 486.34H1035.53V503.931H1054.31V486.34H1073.09V503.931H1091.88V486.34H1110.66V503.931H1129.44V521.522H1110.66V539.112H1129.44V556.703H1110.66V539.112H1091.88V556.703H1073.09V539.112H1054.31V556.703H1035.53V539.112H1016.75V521.522H1035.53V503.931H1016.75V486.34ZM1035.53 521.522V539.112H1054.31V521.522H1035.53ZM1054.31 521.522H1073.09V503.931H1054.31V521.522ZM1073.09 521.522V539.112H1091.88V521.522H1073.09ZM1091.88 521.522H1110.66V503.931H1091.88V521.522Z" fill="#5AAF21" fill-opacity="0.5"/>
<path d="M1016.75 556.703V627.066H1129.44V556.703H1016.75ZM1016.75 556.703H1035.53V574.294H1054.31V556.703H1073.09V574.294H1091.88V556.703H1110.66V574.294H1129.44V591.885H1110.66V609.476H1129.44V627.066H1110.66V609.476H1091.88V627.066H1073.09V609.476H1054.31V627.066H1035.53V609.476H1016.75V591.885H1035.53V574.294H1016.75V556.703ZM1035.53 591.885V609.476H1054.31V591.885H1035.53ZM1054.31 591.885H1073.09V574.294H1054.31V591.885ZM1073.09 591.885V609.476H1091.88V591.885H1073.09ZM1091.88 591.885H1110.66V574.294H1091.88V591.885Z" fill="#5AAF21" fill-opacity="0.5"/>
<path d="M1016.75 627.067V697.43H1129.44V627.067H1016.75ZM1016.75 627.067H1035.53V644.658H1054.31V627.067H1073.09V644.658H1091.88V627.067H1110.66V644.658H1129.44V662.249H1110.66V679.84H1129.44V697.43H1110.66V679.84H1091.88V697.43H1073.09V679.84H1054.31V697.43H1035.53V679.84H1016.75V662.249H1035.53V644.658H1016.75V627.067ZM1035.53 662.249V679.84H1054.31V662.249H1035.53ZM1054.31 662.249H1073.09V644.658H1054.31V662.249ZM1073.09 662.249V679.84H1091.88V662.249H1073.09ZM1091.88 662.249H1110.66V644.658H1091.88V662.249Z" fill="#5AAF21" fill-opacity="0.5"/>
<path d="M1016.75 697.43V767.794H1129.44V697.43H1016.75ZM1016.75 697.43H1035.53V715.021H1054.31V697.43H1073.09V715.021H1091.88V697.43H1110.66V715.021H1129.44V732.612H1110.66V750.203H1129.44V767.794H1110.66V750.203H1091.88V767.794H1073.09V750.203H1054.31V767.794H1035.53V750.203H1016.75V732.612H1035.53V715.021H1016.75V697.43ZM1035.53 732.612V750.203H1054.31V732.612H1035.53ZM1054.31 732.612H1073.09V715.021H1054.31V732.612ZM1073.09 732.612V750.203H1091.88V732.612H1073.09ZM1091.88 732.612H1110.66V715.021H1091.88V732.612Z" fill="#5AAF21" fill-opacity="0.5"/>
<path d="M1016.75 767.793V838.157H1129.44V767.793H1016.75ZM1016.75 767.793H1035.53V785.384H1054.31V767.793H1073.09V785.384H1091.88V767.793H1110.66V785.384H1129.44V802.975H1110.66V820.566H1129.44V838.157H1110.66V820.566H1091.88V838.157H1073.09V820.566H1054.31V838.157H1035.53V820.566H1016.75V802.975H1035.53V785.384H1016.75V767.793ZM1035.53 802.975V820.566H1054.31V802.975H1035.53ZM1054.31 802.975H1073.09V785.384H1054.31V802.975ZM1073.09 802.975V820.566H1091.88V802.975H1073.09ZM1091.88 802.975H1110.66V785.384H1091.88V802.975Z" fill="#5AAF21" fill-opacity="0.5"/>
<path d="M1016.75 838.157V908.521H1129.44V838.157H1016.75ZM1016.75 838.157H1035.53V855.748H1054.31V838.157H1073.09V855.748H1091.88V838.157H1110.66V855.748H1129.44V873.339H1110.66V890.93H1129.44V908.521H1110.66V890.93H1091.88V908.521H1073.09V890.93H1054.31V908.521H1035.53V890.93H1016.75V873.339H1035.53V855.748H1016.75V838.157ZM1035.53 873.339V890.93H1054.31V873.339H1035.53ZM1054.31 873.339H1073.09V855.748H1054.31V873.339ZM1073.09 873.339V890.93H1091.88V873.339H1073.09ZM1091.88 873.339H1110.66V855.748H1091.88V873.339Z" fill="#5AAF21" fill-opacity="0.5"/>
<path d="M1016.75 908.521V978.884H1129.44V908.521H1016.75ZM1016.75 908.521H1035.53V926.111H1054.31V908.521H1073.09V926.111H1091.88V908.521H1110.66V926.111H1129.44V943.702H1110.66V961.293H1129.44V978.884H1110.66V961.293H1091.88V978.884H1073.09V961.293H1054.31V978.884H1035.53V961.293H1016.75V943.702H1035.53V926.111H1016.75V908.521ZM1035.53 943.702V961.293H1054.31V943.702H1035.53ZM1054.31 943.702H1073.09V926.111H1054.31V943.702ZM1073.09 943.702V961.293H1091.88V943.702H1073.09ZM1091.88 943.702H1110.66V926.111H1091.88V943.702Z" fill="#5AAF21" fill-opacity="0.5"/>
<path d="M1053.48 83.0673L1048.47 78.0586L1068.5 58.0239L1048.47 37.9892L1053.48 32.9805L1073.51 53.0152L1093.54 32.9805L1098.55 37.9892L1078.52 58.0239L1098.55 78.0586L1093.54 83.0673L1073.51 63.0326L1053.48 83.0673Z" fill="#357C05"/>
</svg>
