<svg width="1277" height="751" viewBox="0 0 1277 751" fill="none" xmlns="http://www.w3.org/2000/svg">
<path d="M26.5 3.5V748.5" stroke="#5AAF21" stroke-opacity="0.5" stroke-width="3"/>
<path d="M1.5 3.5V748.5" stroke="#5AAF21" stroke-opacity="0.5" stroke-width="3"/>
<path d="M75.5 3.5V748.5" stroke="#5AAF21" stroke-opacity="0.5" stroke-width="3"/>
<path d="M125.5 3.5V748.5" stroke="#5AAF21" stroke-opacity="0.5" stroke-width="3"/>
<path d="M175.5 3.5V748.5" stroke="#5AAF21" stroke-opacity="0.5" stroke-width="3"/>
<path d="M225.5 3.5V748.5" stroke="#5AAF21" stroke-opacity="0.5" stroke-width="3"/>
<path d="M275.5 3.5V748.5" stroke="#5AAF21" stroke-opacity="0.5" stroke-width="3"/>
<path d="M325.5 3.5V748.5" stroke="#5AAF21" stroke-opacity="0.5" stroke-width="3"/>
<path d="M375.5 3.5V748.5" stroke="#5AAF21" stroke-opacity="0.5" stroke-width="3"/>
<path d="M425.5 3.5V748.5" stroke="#5AAF21" stroke-opacity="0.5" stroke-width="3"/>
<path d="M475.5 3.5V748.5" stroke="#5AAF21" stroke-opacity="0.5" stroke-width="3"/>
<path d="M525.5 3.5V748.5" stroke="#5AAF21" stroke-opacity="0.5" stroke-width="3"/>
<path d="M575.5 3.5V748.5" stroke="#5AAF21" stroke-opacity="0.5" stroke-width="3"/>
<path d="M625.5 3.5V748.5" stroke="#5AAF21" stroke-opacity="0.5" stroke-width="3"/>
<path d="M675.5 3.5V748.5" stroke="#5AAF21" stroke-opacity="0.5" stroke-width="3"/>
<path d="M725.5 3.5V748.5" stroke="#5AAF21" stroke-opacity="0.5" stroke-width="3"/>
<path d="M775.5 3.5V748.5" stroke="#5AAF21" stroke-opacity="0.5" stroke-width="3"/>
<path d="M800.5 3.5V748.5" stroke="#5AAF21" stroke-opacity="0.5" stroke-width="3"/>
<path d="M850.5 3.5V748.5" stroke="#5AAF21" stroke-opacity="0.5" stroke-width="3"/>
<path d="M900.5 3.5V748.5" stroke="#5AAF21" stroke-opacity="0.5" stroke-width="3"/>
<path d="M950.5 3.5V748.5" stroke="#5AAF21" stroke-opacity="0.5" stroke-width="3"/>
<path d="M1000.5 3.5V748.5" stroke="#5AAF21" stroke-opacity="0.5" stroke-width="3"/>
<path d="M1050.5 3.5V748.5" stroke="#5AAF21" stroke-opacity="0.5" stroke-width="3"/>
<path d="M1125.5 3.5V748.5" stroke="#5AAF21" stroke-opacity="0.5" stroke-width="3"/>
<path d="M1150.5 3.5V748.5" stroke="#5AAF21" stroke-opacity="0.5" stroke-width="3"/>
<path d="M1226.5 3.5V748.5" stroke="#5AAF21" stroke-opacity="0.5" stroke-width="3"/>
<path d="M1275.5 3.5V748.5" stroke="#5AAF21" stroke-opacity="0.5" stroke-width="3"/>
<path d="M50.5 3.5V748.5" stroke="#5AAF21" stroke-opacity="0.5" stroke-width="3"/>
<path d="M100.5 3.5V748.5" stroke="#5AAF21" stroke-opacity="0.5" stroke-width="3"/>
<path d="M150.5 3.5V748.5" stroke="#5AAF21" stroke-opacity="0.5" stroke-width="3"/>
<path d="M200.5 3.5V748.5" stroke="#5AAF21" stroke-opacity="0.5" stroke-width="3"/>
<path d="M250.5 3.5V748.5" stroke="#5AAF21" stroke-opacity="0.5" stroke-width="3"/>
<path d="M300.5 3.5V748.5" stroke="#5AAF21" stroke-opacity="0.5" stroke-width="3"/>
<path d="M350.5 3.5V748.5" stroke="#5AAF21" stroke-opacity="0.5" stroke-width="3"/>
<path d="M400.5 3.5V748.5" stroke="#5AAF21" stroke-opacity="0.5" stroke-width="3"/>
<path d="M450.5 3.5L450.5 748.5" stroke="#5AAF21" stroke-opacity="0.5" stroke-width="3"/>
<path d="M500.5 3.5V748.5" stroke="#5AAF21" stroke-opacity="0.5" stroke-width="3"/>
<path d="M550.5 3.5V748.5" stroke="#5AAF21" stroke-opacity="0.5" stroke-width="3"/>
<path d="M600.5 3.5V748.5" stroke="#5AAF21" stroke-opacity="0.5" stroke-width="3"/>
<path d="M650.5 3.5V748.5" stroke="#5AAF21" stroke-opacity="0.5" stroke-width="3"/>
<path d="M700.5 3.5V748.5" stroke="#5AAF21" stroke-opacity="0.5" stroke-width="3"/>
<path d="M750.5 3.5V748.5" stroke="#5AAF21" stroke-opacity="0.5" stroke-width="3"/>
<path d="M1100.5 3.5V748.5" stroke="#5AAF21" stroke-opacity="0.5" stroke-width="3"/>
<path d="M825.5 3.5V748.5" stroke="#5AAF21" stroke-opacity="0.5" stroke-width="3"/>
<path d="M875.5 3.5V748.5" stroke="#5AAF21" stroke-opacity="0.5" stroke-width="3"/>
<path d="M925.5 3.5V748.5" stroke="#5AAF21" stroke-opacity="0.5" stroke-width="3"/>
<path d="M975.5 3.5V748.5" stroke="#5AAF21" stroke-opacity="0.5" stroke-width="3"/>
<path d="M1025.5 3.5V748.5" stroke="#5AAF21" stroke-opacity="0.5" stroke-width="3"/>
<path d="M1075.5 3.5V748.5" stroke="#5AAF21" stroke-opacity="0.5" stroke-width="3"/>
<path d="M1200.5 3.5V748.5" stroke="#5AAF21" stroke-opacity="0.5" stroke-width="3"/>
<path d="M1175.5 3.5V748.5" stroke="#5AAF21" stroke-opacity="0.5" stroke-width="3"/>
<path d="M1251.5 3.5V748.5" stroke="#5AAF21" stroke-opacity="0.5" stroke-width="3"/>
<path d="M1.5 26.5H1275" stroke="#5AAF21" stroke-opacity="0.5" stroke-width="3"/>
<path d="M0 2L1277 2.00011" stroke="#5AAF21" stroke-opacity="0.5" stroke-width="3"/>
<path d="M1.5 51.5H1276.5" stroke="#5AAF21" stroke-opacity="0.5" stroke-width="3"/>
<path d="M1.5 76.5H1276.5" stroke="#5AAF21" stroke-opacity="0.5" stroke-width="3"/>
<path d="M1.5 101.5H1276.5" stroke="#5AAF21" stroke-opacity="0.5" stroke-width="3"/>
<path d="M1.5 125.5H1276.5" stroke="#5AAF21" stroke-opacity="0.5" stroke-width="3"/>
<path d="M1.5 150.5H1276.5" stroke="#5AAF21" stroke-opacity="0.5" stroke-width="3"/>
<path d="M1.5 175.5H1276.5" stroke="#5AAF21" stroke-opacity="0.5" stroke-width="3"/>
<path d="M1.5 200.5H1276.5" stroke="#5AAF21" stroke-opacity="0.5" stroke-width="3"/>
<path d="M1.5 225.5H1276.5" stroke="#5AAF21" stroke-opacity="0.5" stroke-width="3"/>
<path d="M1.5 250.5H1276.5" stroke="#5AAF21" stroke-opacity="0.5" stroke-width="3"/>
<path d="M1.5 275.5H1276.5" stroke="#5AAF21" stroke-opacity="0.5" stroke-width="3"/>
<path d="M1.5 300.5H1276.5" stroke="#5AAF21" stroke-opacity="0.5" stroke-width="3"/>
<path d="M1.5 325.5H1276.5" stroke="#5AAF21" stroke-opacity="0.5" stroke-width="3"/>
<path d="M1.5 350.5H1276.5" stroke="#5AAF21" stroke-opacity="0.5" stroke-width="3"/>
<path d="M1.5 375.5H1276.5" stroke="#5AAF21" stroke-opacity="0.5" stroke-width="3"/>
<path d="M1.5 400.5H1276.5" stroke="#5AAF21" stroke-opacity="0.5" stroke-width="3"/>
<path d="M1.5 425.5H1276.5" stroke="#5AAF21" stroke-opacity="0.5" stroke-width="3"/>
<path d="M1.5 450.5H1276.5" stroke="#5AAF21" stroke-opacity="0.5" stroke-width="3"/>
<path d="M1.5 475.5H1276.5" stroke="#5AAF21" stroke-opacity="0.5" stroke-width="3"/>
<path d="M1.5 500.5H1276.5" stroke="#5AAF21" stroke-opacity="0.5" stroke-width="3"/>
<path d="M1.5 525.5H1276.5" stroke="#5AAF21" stroke-opacity="0.5" stroke-width="3"/>
<path d="M1.5 550.5H1276.5" stroke="#5AAF21" stroke-opacity="0.5" stroke-width="3"/>
<path d="M1.5 575.5H1276.5" stroke="#5AAF21" stroke-opacity="0.5" stroke-width="3"/>
<path d="M1.5 600.5H1276.5" stroke="#5AAF21" stroke-opacity="0.5" stroke-width="3"/>
<path d="M1.5 625.5H1276.5" stroke="#5AAF21" stroke-opacity="0.5" stroke-width="3"/>
<path d="M1.5 650.5H1276.5" stroke="#5AAF21" stroke-opacity="0.5" stroke-width="3"/>
<path d="M1.5 675.5H1276.5" stroke="#5AAF21" stroke-opacity="0.5" stroke-width="3"/>
<path d="M1.5 700.5H1276.5" stroke="#5AAF21" stroke-opacity="0.5" stroke-width="3"/>
<path d="M1.5 725.5H1276.5" stroke="#5AAF21" stroke-opacity="0.5" stroke-width="3"/>
<path d="M1.5 749.5H1277" stroke="#5AAF21" stroke-opacity="0.5" stroke-width="3"/>
</svg>
