<svg width="464" height="270" viewBox="0 0 464 270" fill="none" xmlns="http://www.w3.org/2000/svg">
<path d="M106.55 0.113533C107.18 0.198586 108.766 0.351685 110.049 0.453751C121.059 1.38933 131.532 4.99557 138.88 10.3879C139.86 11.1024 140.769 11.6807 140.909 11.6807C141.049 11.6807 142.122 11.3745 143.265 11.0003C147.907 9.52038 153.132 8.49975 158.684 8.00644C162.859 7.6322 170.16 7.75128 174.195 8.2616C185.182 9.63945 194.279 12.9225 201.253 18.0597C207.645 22.7546 211.167 28.4872 211.494 34.696C211.54 35.6996 211.61 36.5502 211.657 36.5842C211.704 36.6182 212.963 36.8564 214.433 37.1115C223.623 38.7445 232.3 42.2657 238.015 46.6714C242.82 50.3798 246.133 55.0577 247.229 59.6505C247.812 62.1511 247.579 66.6248 246.739 68.9723C245.083 73.6162 242.307 77.0863 237.292 80.7606C233.233 83.7375 229.921 85.4555 224.696 87.2757C221.71 88.3133 218.328 89.1979 214.689 89.8953L212.263 90.3546L212.217 93.0763C212.147 97.1418 211.284 99.8125 208.811 103.453C203.959 110.631 193.509 116.483 181.1 119C175.595 120.123 172.143 120.446 165.915 120.446C160.27 120.446 157.471 120.225 152.852 119.426C147.744 118.541 142.169 116.874 137.97 114.969C136.897 114.476 135.941 114.084 135.847 114.084C135.754 114.084 134.868 114.544 133.841 115.105C129.036 117.793 122.692 120.021 116.37 121.246C108.696 122.709 99.3424 122.896 91.3882 121.722C78.0457 119.766 66.8026 114.271 60.6912 106.719C60.2714 106.191 59.8049 105.749 59.6649 105.749C59.5249 105.749 58.4753 105.902 57.3323 106.072C45.8093 107.909 32.7467 106.702 22.2267 102.857C11.6134 98.9789 4.19576 92.8721 1.32666 85.6767C-0.446121 81.2369 -0.446121 77.3585 1.34998 72.8337C2.93614 68.8702 6.34174 64.7707 10.5404 61.7768C11.1935 61.3176 11.73 60.8753 11.73 60.8072C11.73 60.7392 11.2402 60.0418 10.657 59.2763C4.70892 51.4514 5.12878 42.5889 11.8233 35.0702C16.9317 29.3377 25.3524 24.8299 35.4292 22.4144C41.5406 20.9515 45.7393 20.4752 52.877 20.4412L58.1954 20.4241L58.9884 19.0123C62.464 12.7184 70.0683 7.15591 79.7719 3.82184C82.8976 2.75018 88.2625 1.44036 91.5048 0.964066C96.9631 0.18158 103.728 -0.209663 106.55 0.113533Z" fill="#357C05"/>
<path d="M231.174 94.7824C234.64 95.5292 237.571 98.009 238.67 101.095C239.107 102.321 239.248 104.406 238.98 105.744C238.628 107.59 237.416 109.563 235.852 110.873C231.413 114.621 224.397 114.199 220.522 109.972C219.507 108.858 218.634 107.182 218.338 105.773C217.309 100.869 220.62 96.1351 225.946 94.8388C227.285 94.5288 229.849 94.4865 231.174 94.7824Z" fill="#357C05"/>
<path d="M257.042 119.158C258.366 119.497 259.536 120.173 260.55 121.187C262.086 122.723 262.791 124.428 262.791 126.668C262.791 128.923 261.974 130.811 260.325 132.304C255.957 136.306 249.011 134.009 247.785 128.176C247.672 127.627 247.573 126.936 247.573 126.626C247.573 124.231 248.968 121.624 250.983 120.243C252.59 119.144 255.168 118.679 257.042 119.158Z" fill="#357C05"/>
<path d="M277.008 144.732C278.22 144.985 279.502 146.028 280.15 147.268C280.432 147.803 280.474 148.113 280.474 149.311C280.474 150.509 280.418 150.804 280.15 151.326C278.769 153.904 275.599 154.75 273.274 153.143C271.978 152.242 271.161 150.537 271.273 148.973C271.344 148.043 271.865 146.831 272.499 146.098C273.457 145.013 275.458 144.408 277.008 144.732Z" fill="#357C05"/>
<path d="M288.364 164.303C289.534 164.599 290.407 165.458 290.788 166.684C291.013 167.389 291.013 167.473 290.788 168.093C290.309 169.39 289.703 169.995 288.406 170.474C287.786 170.7 287.702 170.7 286.997 170.474C284.757 169.77 283.883 167.473 285.137 165.557C285.743 164.613 287.265 164.021 288.364 164.303Z" fill="#357C05"/>
<path d="M375.261 155.787C372.231 151.655 389.989 112.751 399.248 93.8157C442.172 89.9425 438.384 131.257 437.122 132.548C435.859 133.839 379.048 160.951 375.261 155.787Z" fill="#357C05"/>
<ellipse cx="421.635" cy="111.375" rx="12.9193" ry="30.4313" transform="rotate(-46.6557 421.635 111.375)" fill="#5AAF21"/>
<path d="M431.247 119.76C435.614 114.956 447.491 108.232 460.067 119.76" stroke="#357C05" stroke-width="1.90047"/>
<path d="M426.007 106.658C421.64 104.912 416.051 100.632 428.627 97.4884C444.347 93.5584 427.317 89.6283 424.697 88.3183C422.077 87.0083 424.697 81.7683 431.247 81.7683C437.797 81.7683 435.177 77.8383 431.247 75.2183" stroke="#357C05" stroke-width="1.90047"/>
<path d="M407.667 67.3589C412.47 70.4156 419.981 79.411 411.597 90.939" stroke="#357C05" stroke-width="1.90047"/>
<circle cx="446.967" cy="94.8695" r="3.93002" fill="#5AAF21"/>
<circle cx="384.087" cy="94.8695" r="3.93002" fill="#5AAF21"/>
<circle cx="381.467" cy="68.6688" r="3.93002" fill="#5AAF21"/>
<circle cx="449.588" cy="76.5283" r="1.31001" fill="#5AAF21"/>
<circle cx="461.378" cy="104.038" r="2.62001" fill="#5AAF21"/>
<path d="M433.564 241.812C414.494 268.384 342.514 271.38 308.908 269.557C242.477 255.88 242.086 214.067 241.304 188.276C240.523 162.485 279.209 120.673 330.009 125.362C380.81 130.051 457.401 208.596 433.564 241.812Z" fill="#357C05"/>
<path d="M334.304 154.2C268.655 157.326 264.486 182.596 270.608 194.84C233.094 210.471 286.239 237.044 317.501 248.376C454.115 249.939 419.492 207.866 385.104 186.634C395.525 174.52 399.954 151.074 334.304 154.2Z" fill="#5AAF21"/>
<path d="M336.641 213.7C343.154 206.667 362.276 193.302 386.66 196.116" stroke="#282828" stroke-width="1.6297"/>
<path d="M326.938 228.49C326.938 233.227 323.671 236.846 319.893 236.846C316.116 236.846 312.848 233.227 312.848 228.49C312.848 223.754 316.116 220.135 319.893 220.135C323.671 220.135 326.938 223.754 326.938 228.49Z" stroke="#282828" stroke-width="1.6297"/>
<path d="M300.243 203.599C298.06 198.359 291.335 187.879 281.903 187.879" stroke="#282828" stroke-width="1.6297"/>
</svg>
