<svg width="1227" height="917" viewBox="0 0 1227 917" fill="none" xmlns="http://www.w3.org/2000/svg">
<path d="M803.796 0.542847C801.294 0.948364 794.994 1.67822 789.899 2.16479C746.169 6.62512 704.57 23.8177 675.386 49.5255C671.495 52.9316 667.882 55.6889 667.326 55.6889C666.77 55.6889 662.508 54.2291 657.968 52.445C639.532 45.3895 618.778 40.5237 596.728 38.1719C580.144 36.3878 551.146 36.9554 535.118 39.3884C491.481 45.9572 455.348 61.6089 427.646 86.1003C402.261 108.483 388.271 135.813 386.974 165.413C386.789 170.198 386.511 174.253 386.326 174.415C386.14 174.577 381.137 175.713 375.3 176.929C338.797 184.714 304.332 201.501 281.634 222.506C262.548 240.185 249.392 262.487 245.038 284.383C242.722 296.304 243.648 317.633 246.983 328.824C253.561 350.963 264.587 367.507 284.506 385.024C300.626 399.216 313.782 407.407 334.535 416.084C346.394 421.031 359.828 425.248 374.281 428.573L383.917 430.763L384.102 443.739C384.38 463.121 387.808 475.853 397.629 493.208C416.899 527.431 458.405 555.328 507.694 567.331C529.559 572.683 543.271 574.224 568.008 574.224C590.428 574.224 601.546 573.17 619.89 569.358C640.18 565.141 662.323 557.193 678.999 548.111C683.261 545.759 687.06 543.893 687.43 543.893C687.801 543.893 691.322 546.083 695.398 548.759C714.483 561.573 739.684 572.196 764.791 578.035C795.272 585.01 832.424 585.902 864.017 580.306C917.011 570.98 961.667 544.786 985.941 508.778C987.609 506.264 989.462 504.156 990.018 504.156C990.573 504.156 994.743 504.886 999.282 505.697C1045.05 514.455 1096.93 508.697 1138.72 490.369C1180.87 471.879 1210.33 442.765 1221.73 408.461C1228.77 387.295 1228.77 368.805 1221.64 347.233C1215.34 328.337 1201.81 308.793 1185.13 294.52C1182.54 292.33 1180.41 290.222 1180.41 289.897C1180.41 289.573 1182.35 286.248 1184.67 282.599C1208.3 245.294 1206.63 203.042 1180.04 167.197C1159.75 139.868 1126.3 118.377 1086.28 106.861C1062 99.8868 1045.33 97.6161 1016.98 97.4539L995.854 97.3728L992.704 90.6418C978.9 60.6358 948.697 34.1171 910.155 18.222C897.74 13.1129 876.432 6.86841 863.554 4.59772C841.874 0.867249 815.006 -0.997986 803.796 0.542847Z" fill="#357C05"/>
<path d="M308.817 451.874C295.05 455.435 283.41 467.257 279.045 481.968C277.31 487.812 276.75 497.754 277.813 504.135C279.212 512.935 284.025 522.34 290.237 528.587C307.866 546.455 335.736 544.44 351.126 524.288C355.155 518.981 358.625 510.987 359.8 504.27C363.886 480.893 350.734 458.323 329.58 452.143C324.263 450.665 314.078 450.464 308.817 451.874Z" fill="#357C05"/>
<path d="M206.063 568.082C200.803 569.694 196.158 572.919 192.129 577.755C186.028 585.077 183.23 593.205 183.23 603.886C183.23 614.634 186.476 623.635 193.024 630.755C210.373 649.833 237.963 638.883 242.832 611.073C243.279 608.454 243.671 605.162 243.671 603.684C243.671 592.265 238.131 579.838 230.128 573.255C223.748 568.015 213.507 565.798 206.063 568.082Z" fill="#357C05"/>
<path d="M126.767 690.004C121.954 691.213 116.861 696.184 114.287 702.096C113.167 704.648 112.999 706.126 112.999 711.836C112.999 717.546 113.223 718.956 114.287 721.442C119.771 733.734 132.363 737.765 141.597 730.107C146.746 725.808 149.992 717.68 149.544 710.224C149.264 705.79 147.193 700.013 144.675 696.52C140.869 691.348 132.923 688.459 126.767 690.004Z" fill="#357C05"/>
<path d="M154.603 717.626C159.881 710.428 128.942 642.648 112.812 609.658C38.0282 602.91 44.6268 674.889 46.8263 677.138C49.0258 679.387 148.004 726.623 154.603 717.626Z" fill="#357C05"/>
<ellipse cx="22.5084" cy="53.0182" rx="22.5084" ry="53.0182" transform="matrix(-0.686381 -0.727242 -0.727242 0.686381 127.815 620.228)" fill="#5AAF21"/>
<path d="M57.0622 654.858C49.4544 646.49 28.7613 634.774 6.85092 654.858" stroke="#357C05" stroke-width="2.3323"/>
<path d="M66.1909 632.033C73.7986 628.99 83.5366 621.535 61.6262 616.057C34.2382 609.21 63.9085 602.363 68.4731 600.081C73.0378 597.798 68.4731 588.669 57.0615 588.669C45.6498 588.669 50.2145 581.822 57.0615 577.257" stroke="#357C05" stroke-width="2.3323"/>
<path d="M98.1433 563.564C89.7748 568.889 76.6894 584.561 91.2963 604.646" stroke="#357C05" stroke-width="2.3323"/>
<circle cx="6.84699" cy="6.84699" r="6.84699" transform="matrix(-1 0 0 1 36.5216 604.648)" fill="#5AAF21"/>
<circle cx="6.84699" cy="6.84699" r="6.84699" transform="matrix(-1 0 0 1 146.07 604.648)" fill="#5AAF21"/>
<circle cx="6.84699" cy="6.84699" r="6.84699" transform="matrix(-1 0 0 1 150.637 559)" fill="#5AAF21"/>
<circle cx="2.28233" cy="2.28233" r="2.28233" transform="matrix(-1 0 0 1 27.3909 577.257)" fill="#5AAF21"/>
<circle cx="4.56466" cy="4.56466" r="4.56466" transform="matrix(-1 0 0 1 9.12958 622.904)" fill="#5AAF21"/>
<path d="M53.0212 867.503C86.2449 913.798 211.651 919.018 270.201 915.841C385.939 892.013 386.62 819.165 387.981 774.232C389.343 729.298 321.942 656.451 233.437 664.621C144.931 672.791 11.4916 809.634 53.0212 867.503Z" fill="#357C05"/>
<path d="M225.954 714.863C340.331 720.309 347.593 764.335 336.926 785.667C402.284 812.9 309.694 859.195 255.229 878.938C17.2168 881.661 77.5368 808.361 137.448 771.37C119.293 750.265 111.577 709.416 225.954 714.863Z" fill="#5AAF21"/>
<path d="M221.883 818.527C210.536 806.272 177.222 782.988 134.739 787.89" stroke="#282828" stroke-width="2"/>
<path d="M238.367 844.293C238.367 852.714 244.19 859.269 251.061 859.269C257.933 859.269 263.755 852.714 263.755 844.293C263.755 835.871 257.933 829.316 251.061 829.316C244.19 829.316 238.367 835.871 238.367 844.293Z" stroke="#282828" stroke-width="2"/>
<path d="M285.296 800.927C289.1 791.798 300.816 773.539 317.248 773.539" stroke="#282828" stroke-width="2"/>
</svg>
