<svg width="414" height="270" viewBox="0 0 414 270" fill="none" xmlns="http://www.w3.org/2000/svg">
<path d="M292.637 9.38928C292.015 9.52914 290.443 9.82028 289.169 10.034C278.244 11.9278 268.087 16.4447 261.211 22.4751C260.294 23.2747 259.435 23.932 259.295 23.9442C259.155 23.9564 258.056 23.7437 256.881 23.4691C252.111 22.3937 246.799 21.8283 241.206 21.8184C236.999 21.8078 229.711 22.5624 225.721 23.4239C214.858 25.7578 206.049 29.8318 199.524 35.5746C193.543 40.8246 190.521 46.8621 190.735 53.0975C190.776 54.1049 190.78 54.9613 190.736 54.9994C190.693 55.0374 189.454 55.3852 188.007 55.7682C178.962 58.2008 170.594 62.4763 165.264 67.3783C160.783 71.5038 157.879 76.4687 157.183 81.1556C156.817 83.7062 157.44 88.1584 158.484 90.432C160.544 94.9304 163.621 98.1578 168.954 101.394C173.271 104.017 176.732 105.446 182.114 106.811C185.189 107.588 188.647 108.178 192.346 108.559L194.811 108.807L195.095 111.523C195.519 115.582 196.614 118.176 199.403 121.6C204.878 128.354 215.834 133.295 228.459 134.731C234.06 135.374 237.54 135.397 243.766 134.855C249.409 134.363 252.188 133.898 256.736 132.697C261.765 131.368 267.194 129.216 271.225 126.946C272.255 126.359 273.177 125.885 273.27 125.877C273.363 125.869 274.29 126.251 275.364 126.723C280.402 128.991 286.939 130.667 293.365 131.341C301.164 132.135 310.532 131.508 318.381 129.642C331.549 126.525 342.311 120.053 347.763 111.971C348.137 111.407 348.565 110.924 348.705 110.912C348.845 110.9 349.907 110.962 351.065 111.032C362.744 111.866 375.698 109.521 385.88 104.762C396.153 99.9607 403.036 93.2099 405.278 85.7668C406.664 81.174 406.326 77.2968 404.137 72.9297C402.206 69.1054 398.445 65.3036 393.987 62.6761C393.294 62.2738 392.719 61.8784 392.713 61.8104C392.707 61.7424 393.136 61.0025 393.652 60.1865C398.917 51.8461 397.726 43.0228 390.379 36.0891C384.773 30.803 375.963 27.0296 365.678 25.492C359.441 24.5616 355.203 24.451 348.064 25.0383L342.746 25.4843L341.83 24.1419C337.807 18.1524 329.721 13.2536 319.73 10.7653C316.512 9.96605 311.035 9.12367 307.752 8.92978C302.227 8.62271 295.431 8.82047 292.637 9.38928Z" fill="#357C05"/>
<path d="M176.292 114.88C172.892 115.928 170.178 118.662 169.348 121.843C169.018 123.106 169.058 125.203 169.443 126.518C169.955 128.333 171.339 130.199 173.016 131.373C177.78 134.734 184.758 133.7 188.263 129.137C189.18 127.936 189.908 126.184 190.081 124.749C190.682 119.758 186.96 115.313 181.523 114.481C180.158 114.288 177.59 114.469 176.292 114.88Z" fill="#357C05"/>
<path d="M152.554 141.5C151.259 141.954 150.149 142.732 149.223 143.834C147.821 145.503 147.265 147.269 147.46 149.509C147.657 151.762 148.638 153.579 150.416 154.928C155.131 158.548 161.875 155.648 162.593 149.709C162.658 149.15 162.696 148.451 162.669 148.142C162.461 145.747 160.839 143.262 158.705 142.057C157.003 141.099 154.385 140.858 152.554 141.5Z" fill="#357C05"/>
<path d="M134.821 168.805C133.632 169.164 132.441 170.318 131.901 171.614C131.665 172.173 131.65 172.487 131.754 173.684C131.859 174.882 131.941 175.173 132.254 175.67C133.859 178.128 137.102 178.697 139.286 176.889C140.503 175.875 141.172 174.099 140.923 172.545C140.772 171.622 140.145 170.456 139.447 169.778C138.395 168.777 136.342 168.346 134.821 168.805Z" fill="#357C05"/>
<path d="M125.171 189.358C124.027 189.756 123.229 190.691 122.955 191.95C122.791 192.674 122.799 192.758 123.078 193.359C123.67 194.613 124.328 195.166 125.666 195.532C126.305 195.703 126.39 195.696 127.074 195.409C129.253 194.51 129.926 192.138 128.506 190.331C127.818 189.44 126.245 188.981 125.171 189.358Z" fill="#357C05"/>
<path d="M21.7428 144.712C-2.23985 200.161 -11.9646 299.136 140.998 251.447C332.201 191.836 87.4531 41.8155 21.7428 144.712Z" fill="#357C05"/>
<path d="M83.3962 259.531C8.94077 245.557 44.9673 211.733 72.2874 196.568C52.9885 186.383 66.23 172.035 75.2631 166.134C136.612 132.97 144.936 157.68 141.429 174.181C178.35 169.431 178.462 176.582 175.155 209.091C172.51 235.098 112.88 253.554 83.3962 259.531Z" fill="#5AAF21"/>
<path d="M145.843 166.125C148.292 160.968 155.794 150.018 166.211 147.474" stroke="#282828" stroke-width="1.83869"/>
<path d="M53.906 202.773C62.1221 193.363 86.2433 175.919 117 181.423" stroke="#282828" stroke-width="1.83869"/>
<ellipse cx="54.811" cy="164.778" rx="27.7915" ry="15.6772" transform="rotate(-40.7867 54.811 164.778)" fill="#B7D7A3"/>
<path d="M125.999 132.053C134.09 127.087 151.682 120.406 157.315 133.418C164.358 149.682 120.029 135.131 125.999 132.053Z" fill="#B7D7A3"/>
</svg>
