<svg width="529" height="350" viewBox="0 0 529 350" fill="none" xmlns="http://www.w3.org/2000/svg">
<path d="M116.302 0.12442C116.99 0.217255 118.721 0.384369 120.121 0.495773C132.139 1.51698 143.571 5.45326 151.591 11.3391C152.66 12.119 153.653 12.7503 153.806 12.7503C153.959 12.7503 155.13 12.416 156.377 12.0076C161.444 10.3922 167.147 9.27815 173.207 8.7397C177.765 8.33121 185.734 8.46119 190.139 9.01821C202.131 10.5222 212.06 14.1057 219.673 19.713C226.649 24.8376 230.494 31.0949 230.85 37.872C230.901 38.9675 230.978 39.8958 231.029 39.933C231.08 39.9701 232.454 40.23 234.058 40.5085C244.09 42.291 253.561 46.1345 259.799 50.9434C265.044 54.9911 268.66 60.0972 269.856 65.1104C270.493 67.8398 270.238 72.723 269.322 75.2853C267.514 80.3542 264.484 84.142 259.01 88.1525C254.58 91.4018 250.964 93.2771 245.261 95.2639C242.002 96.3965 238.31 97.362 234.339 98.1232L231.691 98.6246L231.64 101.595C231.563 106.033 230.621 108.948 227.922 112.921C222.627 120.757 211.22 127.144 197.675 129.892C191.666 131.118 187.898 131.47 181.1 131.47C174.938 131.47 171.883 131.229 166.842 130.356C161.266 129.391 155.181 127.571 150.598 125.492C149.427 124.953 148.383 124.526 148.281 124.526C148.179 124.526 147.212 125.027 146.091 125.64C140.846 128.574 133.921 131.006 127.021 132.343C118.645 133.94 108.435 134.144 99.7526 132.863C85.189 130.728 72.9169 124.73 66.2462 116.486C65.7879 115.911 65.2786 115.428 65.1259 115.428C64.9731 115.428 63.8274 115.595 62.5798 115.781C50.0022 117.786 35.7441 116.468 24.2612 112.272C12.6766 108.038 4.58005 101.373 1.44836 93.5185C-0.486664 88.6724 -0.486664 84.4391 1.47382 79.5001C3.20514 75.1739 6.92242 70.6992 11.5054 67.4313C12.2183 66.93 12.8039 66.4472 12.8039 66.373C12.8039 66.2987 12.2692 65.5374 11.6327 64.7019C5.14017 56.1609 5.59848 46.4873 12.9057 38.2805C18.4816 32.0232 27.673 27.1029 38.6721 24.4663C45.3428 22.8695 49.9258 22.3496 57.7168 22.3125L63.5218 22.2939L64.3875 20.7528C68.1812 13.8829 76.4814 7.81133 87.0731 4.17212C90.4848 3.00237 96.3409 1.57268 99.8799 1.0528C105.838 0.198685 113.221 -0.228363 116.302 0.12442Z" fill="#357C05"/>
<path d="M252.331 103.458C256.114 104.273 259.313 106.98 260.513 110.348C260.989 111.686 261.143 113.962 260.851 115.423C260.467 117.438 259.144 119.591 257.437 121.021C252.592 125.112 244.933 124.651 240.704 120.037C239.596 118.822 238.643 116.992 238.32 115.454C237.197 110.102 240.811 104.934 246.625 103.519C248.086 103.181 250.885 103.135 252.331 103.458Z" fill="#357C05"/>
<path d="M280.567 130.064C282.013 130.433 283.289 131.171 284.396 132.279C286.073 133.955 286.842 135.816 286.842 138.261C286.842 140.722 285.95 142.783 284.15 144.413C279.383 148.781 271.8 146.274 270.462 139.907C270.339 139.307 270.232 138.554 270.232 138.215C270.232 135.601 271.754 132.756 273.954 131.248C275.707 130.049 278.521 129.541 280.567 130.064Z" fill="#357C05"/>
<path d="M302.36 157.978C303.682 158.255 305.082 159.393 305.789 160.747C306.097 161.331 306.143 161.669 306.143 162.977C306.143 164.284 306.081 164.607 305.789 165.176C304.282 167.99 300.822 168.913 298.284 167.16C296.869 166.176 295.977 164.315 296.1 162.608C296.177 161.593 296.746 160.27 297.438 159.47C298.484 158.286 300.668 157.625 302.36 157.978Z" fill="#357C05"/>
<path d="M314.756 179.341C316.032 179.664 316.986 180.602 317.401 181.94C317.647 182.709 317.647 182.801 317.401 183.478C316.878 184.893 316.217 185.554 314.802 186.077C314.125 186.323 314.033 186.323 313.264 186.077C310.818 185.308 309.865 182.801 311.234 180.71C311.895 179.679 313.556 179.033 314.756 179.341Z" fill="#357C05"/>
<path d="M484.187 181.068C525.204 232.409 563.695 333.506 389.53 327.169C171.824 319.247 385.818 91.8551 484.187 181.068Z" fill="#357C05"/>
<path d="M452.293 319.192C526.442 283.248 478.966 258.045 445.959 249.936C463.303 233.732 445.306 222.458 434.139 218.846C360.274 201.571 358.6 229.884 366.996 246.2C326.889 251.766 328.816 259.303 341.576 292.476C351.785 319.015 419.641 321.344 452.293 319.192Z" fill="#5AAF21"/>
<path d="M360.062 239.007C356.018 234.294 345.015 224.945 333.356 225.252" stroke="#282828" stroke-width="2"/>
<path d="M467.024 251.195C455.712 243.667 425.412 232.253 394.705 246.819" stroke="#282828" stroke-width="2"/>
<ellipse cx="30.2296" cy="17.0526" rx="30.2296" ry="17.0526" transform="matrix(-0.902174 -0.431373 -0.431373 0.902174 489.845 209.234)" fill="#B7D7A3"/>
<path d="M371.152 197.577C361.24 194.677 340.868 192.693 338.674 207.958C335.931 227.041 378.296 199.101 371.152 197.577Z" fill="#B7D7A3"/>
</svg>
