<svg width="990" height="738" viewBox="0 0 990 738" fill="none" xmlns="http://www.w3.org/2000/svg">
<path d="M669.261 249.715C626.999 317.559 594.85 445.152 804.348 412.776C1066.22 372.305 775.433 127.98 669.261 249.715Z" fill="#357C05"/>
<path d="M709.065 378.795C645.616 371.899 662.521 312.327 699.917 294.701C675.331 279.564 728.758 274.431 741.2 267.433C825.096 229.026 833.919 262.376 827.844 283.853C877.002 280.818 880.527 301.985 872.042 337.764C864.061 371.417 772.514 385.691 709.065 378.795Z" fill="#5AAF21"/>
<path d="M724.971 317.117C718.877 312.653 703.258 304.624 689.533 308.213" stroke="#282828" stroke-width="2.30085"/>
<path d="M855.035 301.964C839.554 296.176 800.506 291.039 768.165 316.788" stroke="#282828" stroke-width="2.30085"/>
<path d="M674.855 224.057C651.682 245.942 666.34 256.261 676.566 258.685C689.843 254.66 719.001 241.56 729.427 221.36C739.854 201.159 709.29 203.607 692.704 207.356C679.449 161.434 644.56 75.1903 611.042 97.5868C577.524 119.983 639.618 191.232 674.855 224.057Z" fill="#357C05"/>
<path d="M736.331 253.5C741.98 263.466 732.238 279.663 714.571 289.677C696.905 299.691 678.004 299.73 672.355 289.764C666.706 279.799 676.448 263.602 694.115 253.588C711.781 243.573 730.682 243.534 736.331 253.5Z" fill="#B7D7A3"/>
<path d="M806.735 252.907C818.517 248.548 843.068 244.416 847.023 262.754C851.967 285.676 798.195 255.361 806.735 252.907Z" fill="#B7D7A3"/>
<path d="M587.971 384.16C580.66 386.572 574.479 394.584 572.161 404.552C571.239 408.513 570.942 415.249 571.507 419.574C572.25 425.537 574.806 431.909 578.104 436.143C587.466 448.251 602.266 446.885 610.439 433.229C612.579 429.633 614.422 424.217 615.046 419.665C617.215 403.824 610.231 388.53 598.997 384.342C596.174 383.34 590.765 383.204 587.971 384.16Z" fill="#357C05"/>
<path d="M234.601 324.383C235.988 324.67 239.48 325.187 242.305 325.531C266.546 328.686 289.607 340.847 305.785 359.032C307.942 361.441 309.945 363.392 310.253 363.392C310.561 363.392 312.924 362.359 315.44 361.097C325.661 356.106 337.165 352.664 349.388 351.001C358.582 349.739 374.657 350.14 383.542 351.861C407.732 356.508 427.762 367.579 443.118 384.904C457.191 400.736 464.946 420.068 465.665 441.007C465.768 444.391 465.922 447.26 466.025 447.374C466.127 447.489 468.901 448.292 472.136 449.153C492.372 454.66 511.477 466.534 524.06 481.392C534.64 493.897 541.933 509.673 544.347 525.161C545.631 533.594 545.117 548.681 543.268 556.598C539.622 572.258 533.51 583.961 522.468 596.352C513.532 606.39 506.239 612.184 494.734 618.322C488.16 621.822 480.713 624.805 472.701 627.157L467.36 628.706L467.257 637.884C467.103 651.594 465.203 660.601 459.759 672.877C449.076 697.085 426.067 716.818 398.744 725.308C386.624 729.095 379.023 730.184 365.31 730.184C352.881 730.184 346.718 729.439 336.549 726.743C325.301 723.76 313.026 718.138 303.782 711.713C301.419 710.049 299.313 708.73 299.108 708.73C298.903 708.73 296.951 710.279 294.691 712.172C284.111 721.236 270.142 728.75 256.223 732.881C239.326 737.814 218.731 738.445 201.218 734.487C171.841 727.89 147.086 709.361 133.63 683.891C132.705 682.112 131.678 680.621 131.37 680.621C131.062 680.621 128.75 681.137 126.234 681.711C100.863 687.906 72.1016 683.833 48.9387 670.869C25.5704 657.79 9.23822 637.196 2.92108 612.93C-0.982178 597.958 -0.982178 584.879 2.97247 569.619C6.46484 556.253 13.9633 542.428 23.2079 532.332C24.6459 530.783 25.8271 529.292 25.8271 529.062C25.8271 528.833 24.7487 526.481 23.4647 523.899C10.3681 497.511 11.2926 467.624 26.0326 442.269C37.2802 422.937 55.8208 407.735 78.0078 399.589C91.4639 394.656 100.708 393.049 116.424 392.935L128.134 392.877L129.88 388.116C137.533 366.891 154.276 348.133 175.641 336.889C182.523 333.275 194.336 328.858 201.475 327.252C213.493 324.613 228.387 323.293 234.601 324.383Z" fill="#357C05"/>
<path d="M545.53 438.597C542.614 439.738 540.039 442.019 537.806 445.44C534.424 450.619 532.873 456.368 532.873 463.924C532.873 471.526 534.672 477.893 538.302 482.93C547.919 496.425 563.214 488.679 565.913 469.008C566.161 467.155 566.378 464.826 566.378 463.781C566.378 455.703 563.307 446.913 558.87 442.256C555.334 438.55 549.656 436.982 545.53 438.597Z" fill="#357C05"/>
</svg>
