<svg width="1283" height="1273" viewBox="0 0 1283 1273" fill="none" xmlns="http://www.w3.org/2000/svg">
<path d="M1252 1270V636" stroke="#5AAF21" stroke-opacity="0.5" stroke-width="3"/>
<path d="M1202 1270V636" stroke="#5AAF21" stroke-opacity="0.5" stroke-width="3"/>
<path d="M1152 1270V636" stroke="#5AAF21" stroke-opacity="0.5" stroke-width="3"/>
<path d="M1102 1270V636" stroke="#5AAF21" stroke-opacity="0.5" stroke-width="3"/>
<path d="M1052 1270V636" stroke="#5AAF21" stroke-opacity="0.5" stroke-width="3"/>
<path d="M1002 1270L1002 636" stroke="#5AAF21" stroke-opacity="0.5" stroke-width="3"/>
<path d="M952 1270L952 636" stroke="#5AAF21" stroke-opacity="0.5" stroke-width="3"/>
<path d="M902 1270L902 636" stroke="#5AAF21" stroke-opacity="0.5" stroke-width="3"/>
<path d="M852 1270L852 636" stroke="#5AAF21" stroke-opacity="0.5" stroke-width="3"/>
<path d="M802 1270L802 636" stroke="#5AAF21" stroke-opacity="0.5" stroke-width="3"/>
<path d="M752 1270L752 636" stroke="#5AAF21" stroke-opacity="0.5" stroke-width="3"/>
<path d="M702 1270L702 636" stroke="#5AAF21" stroke-opacity="0.5" stroke-width="3"/>
<path d="M652 1270L652 636" stroke="#5AAF21" stroke-opacity="0.5" stroke-width="3"/>
<path d="M602 1270L602 636" stroke="#5AAF21" stroke-opacity="0.5" stroke-width="3"/>
<path d="M552 1270L552 636" stroke="#5AAF21" stroke-opacity="0.5" stroke-width="3"/>
<path d="M502 1270L502 636" stroke="#5AAF21" stroke-opacity="0.5" stroke-width="3"/>
<path d="M477 1270L477 636" stroke="#5AAF21" stroke-opacity="0.5" stroke-width="3"/>
<path d="M427 1270L427 636" stroke="#5AAF21" stroke-opacity="0.5" stroke-width="3"/>
<path d="M377 1270L377 636" stroke="#5AAF21" stroke-opacity="0.5" stroke-width="3"/>
<path d="M327 1270L327 636" stroke="#5AAF21" stroke-opacity="0.5" stroke-width="3"/>
<path d="M277 1270L277 636" stroke="#5AAF21" stroke-opacity="0.5" stroke-width="3"/>
<path d="M227 1270L227 636" stroke="#5AAF21" stroke-opacity="0.5" stroke-width="3"/>
<path d="M152 1270L152 636" stroke="#5AAF21" stroke-opacity="0.5" stroke-width="3"/>
<path d="M127 1270L127 636" stroke="#5AAF21" stroke-opacity="0.5" stroke-width="3"/>
<path d="M52.0002 1270L52.0002 636" stroke="#5AAF21" stroke-opacity="0.5" stroke-width="3"/>
<path d="M1277 1270V636" stroke="#5AAF21" stroke-opacity="0.5" stroke-width="3"/>
<path d="M1227 1270V636" stroke="#5AAF21" stroke-opacity="0.5" stroke-width="3"/>
<path d="M1177 1270V636" stroke="#5AAF21" stroke-opacity="0.5" stroke-width="3"/>
<path d="M1127 1270V636" stroke="#5AAF21" stroke-opacity="0.5" stroke-width="3"/>
<path d="M1077 1270V636" stroke="#5AAF21" stroke-opacity="0.5" stroke-width="3"/>
<path d="M1027 1270V636" stroke="#5AAF21" stroke-opacity="0.5" stroke-width="3"/>
<path d="M977 1270L977 636" stroke="#5AAF21" stroke-opacity="0.5" stroke-width="3"/>
<path d="M927 1270L927 636" stroke="#5AAF21" stroke-opacity="0.5" stroke-width="3"/>
<path d="M877 1270L877 636" stroke="#5AAF21" stroke-opacity="0.5" stroke-width="3"/>
<path d="M827 1270L827 636" stroke="#5AAF21" stroke-opacity="0.5" stroke-width="3"/>
<path d="M777 1270L777 636" stroke="#5AAF21" stroke-opacity="0.5" stroke-width="3"/>
<path d="M727 1270L727 636" stroke="#5AAF21" stroke-opacity="0.5" stroke-width="3"/>
<path d="M677 1270L677 636" stroke="#5AAF21" stroke-opacity="0.5" stroke-width="3"/>
<path d="M627 1270L627 636" stroke="#5AAF21" stroke-opacity="0.5" stroke-width="3"/>
<path d="M577 1270L577 636" stroke="#5AAF21" stroke-opacity="0.5" stroke-width="3"/>
<path d="M527 1270L527 636" stroke="#5AAF21" stroke-opacity="0.5" stroke-width="3"/>
<path d="M177 1270L177 636" stroke="#5AAF21" stroke-opacity="0.5" stroke-width="3"/>
<path d="M452 1270L452 636" stroke="#5AAF21" stroke-opacity="0.5" stroke-width="3"/>
<path d="M402 1270L402 636" stroke="#5AAF21" stroke-opacity="0.5" stroke-width="3"/>
<path d="M352 1270L352 636" stroke="#5AAF21" stroke-opacity="0.5" stroke-width="3"/>
<path d="M302 1270L302 636" stroke="#5AAF21" stroke-opacity="0.5" stroke-width="3"/>
<path d="M252 1270L252 636" stroke="#5AAF21" stroke-opacity="0.5" stroke-width="3"/>
<path d="M202 1270L202 636" stroke="#5AAF21" stroke-opacity="0.5" stroke-width="3"/>
<path d="M77 1270L77 636" stroke="#5AAF21" stroke-opacity="0.5" stroke-width="3"/>
<path d="M102 1270L102 636" stroke="#5AAF21" stroke-opacity="0.5" stroke-width="3"/>
<path d="M27 1270L27 636" stroke="#5AAF21" stroke-opacity="0.5" stroke-width="3"/>
<path d="M1282 1248L1.5 1248" stroke="#5AAF21" stroke-opacity="0.5" stroke-width="3"/>
<path d="M1280.5 1271.5L0 1271.5" stroke="#5AAF21" stroke-opacity="0.5" stroke-width="3"/>
<path d="M1282 1223L1.5 1223" stroke="#5AAF21" stroke-opacity="0.5" stroke-width="3"/>
<path d="M1282 1198L1.5 1198" stroke="#5AAF21" stroke-opacity="0.5" stroke-width="3"/>
<path d="M1282 1173L1.5 1173" stroke="#5AAF21" stroke-opacity="0.5" stroke-width="3"/>
<path d="M1282 1148L1.5 1148" stroke="#5AAF21" stroke-opacity="0.5" stroke-width="3"/>
<path d="M1282 1123L1.5 1123" stroke="#5AAF21" stroke-opacity="0.5" stroke-width="3"/>
<path d="M1282 1098L1.5 1098" stroke="#5AAF21" stroke-opacity="0.5" stroke-width="3"/>
<path d="M1282 1073L1.5 1073" stroke="#5AAF21" stroke-opacity="0.5" stroke-width="3"/>
<path d="M1282 1048L1.5 1048" stroke="#5AAF21" stroke-opacity="0.5" stroke-width="3"/>
<path d="M1282 1023L1.5 1023" stroke="#5AAF21" stroke-opacity="0.5" stroke-width="3"/>
<path d="M1282 998L1.5 998" stroke="#5AAF21" stroke-opacity="0.5" stroke-width="3"/>
<path d="M1282 973L1.5 973" stroke="#5AAF21" stroke-opacity="0.5" stroke-width="3"/>
<path d="M1282 948L1.5 948" stroke="#5AAF21" stroke-opacity="0.5" stroke-width="3"/>
<path d="M1282 923L1.5 923" stroke="#5AAF21" stroke-opacity="0.5" stroke-width="3"/>
<path d="M1282 898L1.5 898" stroke="#5AAF21" stroke-opacity="0.5" stroke-width="3"/>
<path d="M1282 873L1.5 873" stroke="#5AAF21" stroke-opacity="0.5" stroke-width="3"/>
<path d="M1282 848L1.5 848" stroke="#5AAF21" stroke-opacity="0.5" stroke-width="3"/>
<path d="M1282 823L1.5 823" stroke="#5AAF21" stroke-opacity="0.5" stroke-width="3"/>
<path d="M1282 798L1.5 798" stroke="#5AAF21" stroke-opacity="0.5" stroke-width="3"/>
<path d="M1282 773L1.5 773" stroke="#5AAF21" stroke-opacity="0.5" stroke-width="3"/>
<path d="M1282 748L1.5 748" stroke="#5AAF21" stroke-opacity="0.5" stroke-width="3"/>
<path d="M1282 723L1.5 723" stroke="#5AAF21" stroke-opacity="0.5" stroke-width="3"/>
<path d="M1282 698L1.5 698" stroke="#5AAF21" stroke-opacity="0.5" stroke-width="3"/>
<path d="M1282 673L1.5 673" stroke="#5AAF21" stroke-opacity="0.5" stroke-width="3"/>
<path d="M1282.5 648L2 648" stroke="#5AAF21" stroke-opacity="0.5" stroke-width="3"/>
<path d="M27 2V636" stroke="#5AAF21" stroke-opacity="0.5" stroke-width="3"/>
<path d="M2 2V639" stroke="#5AAF21" stroke-opacity="0.5" stroke-width="3"/>
<path d="M77 2V636" stroke="#5AAF21" stroke-opacity="0.5" stroke-width="3"/>
<path d="M127 2V636" stroke="#5AAF21" stroke-opacity="0.5" stroke-width="3"/>
<path d="M177 2V636" stroke="#5AAF21" stroke-opacity="0.5" stroke-width="3"/>
<path d="M227 2V636" stroke="#5AAF21" stroke-opacity="0.5" stroke-width="3"/>
<path d="M277 2V636" stroke="#5AAF21" stroke-opacity="0.5" stroke-width="3"/>
<path d="M327 2V636" stroke="#5AAF21" stroke-opacity="0.5" stroke-width="3"/>
<path d="M377 2V636" stroke="#5AAF21" stroke-opacity="0.5" stroke-width="3"/>
<path d="M427 2V636" stroke="#5AAF21" stroke-opacity="0.5" stroke-width="3"/>
<path d="M477 2V636" stroke="#5AAF21" stroke-opacity="0.5" stroke-width="3"/>
<path d="M527 2V636" stroke="#5AAF21" stroke-opacity="0.5" stroke-width="3"/>
<path d="M577 2V636" stroke="#5AAF21" stroke-opacity="0.5" stroke-width="3"/>
<path d="M627 2V636" stroke="#5AAF21" stroke-opacity="0.5" stroke-width="3"/>
<path d="M677 2V636" stroke="#5AAF21" stroke-opacity="0.5" stroke-width="3"/>
<path d="M727 2V636" stroke="#5AAF21" stroke-opacity="0.5" stroke-width="3"/>
<path d="M777 2V636" stroke="#5AAF21" stroke-opacity="0.5" stroke-width="3"/>
<path d="M802 2V636" stroke="#5AAF21" stroke-opacity="0.5" stroke-width="3"/>
<path d="M852 2V636" stroke="#5AAF21" stroke-opacity="0.5" stroke-width="3"/>
<path d="M902 2V636" stroke="#5AAF21" stroke-opacity="0.5" stroke-width="3"/>
<path d="M952 2V636" stroke="#5AAF21" stroke-opacity="0.5" stroke-width="3"/>
<path d="M1002 2V636" stroke="#5AAF21" stroke-opacity="0.5" stroke-width="3"/>
<path d="M1052 2V636" stroke="#5AAF21" stroke-opacity="0.5" stroke-width="3"/>
<path d="M1127 2V636" stroke="#5AAF21" stroke-opacity="0.5" stroke-width="3"/>
<path d="M1152 2V636" stroke="#5AAF21" stroke-opacity="0.5" stroke-width="3"/>
<path d="M1227 2V636" stroke="#5AAF21" stroke-opacity="0.5" stroke-width="3"/>
<path d="M1277 2V636" stroke="#5AAF21" stroke-opacity="0.5" stroke-width="3"/>
<path d="M52 2V636" stroke="#5AAF21" stroke-opacity="0.5" stroke-width="3"/>
<path d="M102 2V636" stroke="#5AAF21" stroke-opacity="0.5" stroke-width="3"/>
<path d="M152 2V636" stroke="#5AAF21" stroke-opacity="0.5" stroke-width="3"/>
<path d="M202 2V636" stroke="#5AAF21" stroke-opacity="0.5" stroke-width="3"/>
<path d="M252 2V636" stroke="#5AAF21" stroke-opacity="0.5" stroke-width="3"/>
<path d="M302 2V636" stroke="#5AAF21" stroke-opacity="0.5" stroke-width="3"/>
<path d="M352 2V636" stroke="#5AAF21" stroke-opacity="0.5" stroke-width="3"/>
<path d="M402 2V636" stroke="#5AAF21" stroke-opacity="0.5" stroke-width="3"/>
<path d="M452 2V636" stroke="#5AAF21" stroke-opacity="0.5" stroke-width="3"/>
<path d="M502 2V636" stroke="#5AAF21" stroke-opacity="0.5" stroke-width="3"/>
<path d="M552 2V636" stroke="#5AAF21" stroke-opacity="0.5" stroke-width="3"/>
<path d="M602 2V636" stroke="#5AAF21" stroke-opacity="0.5" stroke-width="3"/>
<path d="M652 2V636" stroke="#5AAF21" stroke-opacity="0.5" stroke-width="3"/>
<path d="M702 2V636" stroke="#5AAF21" stroke-opacity="0.5" stroke-width="3"/>
<path d="M752 2V636" stroke="#5AAF21" stroke-opacity="0.5" stroke-width="3"/>
<path d="M1102 2V636" stroke="#5AAF21" stroke-opacity="0.5" stroke-width="3"/>
<path d="M827 2V636" stroke="#5AAF21" stroke-opacity="0.5" stroke-width="3"/>
<path d="M877 2V636" stroke="#5AAF21" stroke-opacity="0.5" stroke-width="3"/>
<path d="M927 2V636" stroke="#5AAF21" stroke-opacity="0.5" stroke-width="3"/>
<path d="M977 2V636" stroke="#5AAF21" stroke-opacity="0.5" stroke-width="3"/>
<path d="M1027 2V636" stroke="#5AAF21" stroke-opacity="0.5" stroke-width="3"/>
<path d="M1077 2V636" stroke="#5AAF21" stroke-opacity="0.5" stroke-width="3"/>
<path d="M1202 2V636" stroke="#5AAF21" stroke-opacity="0.5" stroke-width="3"/>
<path d="M1177 2V636" stroke="#5AAF21" stroke-opacity="0.5" stroke-width="3"/>
<path d="M1252 2V636" stroke="#5AAF21" stroke-opacity="0.5" stroke-width="3"/>
<path d="M2 24H1282.5" stroke="#5AAF21" stroke-opacity="0.5" stroke-width="3"/>
<path d="M2 2H1282.5" stroke="#5AAF21" stroke-opacity="0.5" stroke-width="3"/>
<path d="M2 49H1282.5" stroke="#5AAF21" stroke-opacity="0.5" stroke-width="3"/>
<path d="M2 74H1282.5" stroke="#5AAF21" stroke-opacity="0.5" stroke-width="3"/>
<path d="M2 99H1282.5" stroke="#5AAF21" stroke-opacity="0.5" stroke-width="3"/>
<path d="M2 124H1282.5" stroke="#5AAF21" stroke-opacity="0.5" stroke-width="3"/>
<path d="M2 149H1282.5" stroke="#5AAF21" stroke-opacity="0.5" stroke-width="3"/>
<path d="M2 174H1282.5" stroke="#5AAF21" stroke-opacity="0.5" stroke-width="3"/>
<path d="M2 199H1282.5" stroke="#5AAF21" stroke-opacity="0.5" stroke-width="3"/>
<path d="M2 224H1282.5" stroke="#5AAF21" stroke-opacity="0.5" stroke-width="3"/>
<path d="M2 249H1282.5" stroke="#5AAF21" stroke-opacity="0.5" stroke-width="3"/>
<path d="M2 274H1282.5" stroke="#5AAF21" stroke-opacity="0.5" stroke-width="3"/>
<path d="M2 299H1282.5" stroke="#5AAF21" stroke-opacity="0.5" stroke-width="3"/>
<path d="M2 324H1282.5" stroke="#5AAF21" stroke-opacity="0.5" stroke-width="3"/>
<path d="M2 349H1282.5" stroke="#5AAF21" stroke-opacity="0.5" stroke-width="3"/>
<path d="M2 374H1282.5" stroke="#5AAF21" stroke-opacity="0.5" stroke-width="3"/>
<path d="M2 399H1282.5" stroke="#5AAF21" stroke-opacity="0.5" stroke-width="3"/>
<path d="M2 424H1282.5" stroke="#5AAF21" stroke-opacity="0.5" stroke-width="3"/>
<path d="M2 449H1282.5" stroke="#5AAF21" stroke-opacity="0.5" stroke-width="3"/>
<path d="M2 474H1282.5" stroke="#5AAF21" stroke-opacity="0.5" stroke-width="3"/>
<path d="M2 499H1282.5" stroke="#5AAF21" stroke-opacity="0.5" stroke-width="3"/>
<path d="M2 524H1282.5" stroke="#5AAF21" stroke-opacity="0.5" stroke-width="3"/>
<path d="M2 549H1282.5" stroke="#5AAF21" stroke-opacity="0.5" stroke-width="3"/>
<path d="M2 574H1282.5" stroke="#5AAF21" stroke-opacity="0.5" stroke-width="3"/>
<path d="M2 599H1282.5" stroke="#5AAF21" stroke-opacity="0.5" stroke-width="3"/>
<path d="M2 624H1282.5" stroke="#5AAF21" stroke-opacity="0.5" stroke-width="3"/>
<path d="M2 1273L2 639" stroke="#5AAF21" stroke-opacity="0.5" stroke-width="3"/>
</svg>
