<svg width="416" height="265" viewBox="0 0 416 265" fill="none" xmlns="http://www.w3.org/2000/svg">
<path d="M130.346 264.147C18.5139 262.572 41.0902 209.675 66.3574 183.423C104.947 158.222 159.222 182.11 181.536 197.205C257.141 254.696 178.911 265.787 130.346 264.147Z" fill="#357C05"/>
<path d="M76.2018 167.672C56.5131 175.548 64.7168 188.017 71.2797 193.268C78.4989 191.299 94.9062 186.378 102.782 182.44C110.657 178.503 93.5936 161.767 84.0774 153.892C71.2797 147.985 80.1396 123.373 78.1708 105.653C76.2019 87.9337 32.8864 50.5251 8.27554 75.136C-11.4132 94.8247 8.60381 105.653 21.0734 108.607C16.3481 103.882 21.0734 93.5118 24.0267 88.9175C53.166 74.7417 55.8568 114.513 53.5597 136.17C58.285 150.346 70.6233 163.078 76.2018 167.672Z" fill="#357C05"/>
<path d="M59.008 220.71C56.7154 214.329 56.6086 202.086 74.5229 204.163C96.9158 206.758 64.4083 230.134 59.008 220.71Z" fill="#5AAF21"/>
<path d="M104.198 215.668C120.983 208.455 156.569 200.687 164.626 227.32C174.698 260.611 80.6975 238.14 104.198 215.668Z" fill="#5AAF21"/>
<path d="M118.668 222.578C109.48 216.343 88.3474 204.07 77.3217 204.858C63.5396 205.842 110.792 204.856 118.668 209.779" stroke="#282828" stroke-width="2"/>
<path d="M154.106 221.591L163.95 217.653" stroke="#282828" stroke-width="2"/>
<path d="M177.732 220.607C168.872 223.232 151.153 229.073 151.153 231.435" stroke="#282828" stroke-width="2"/>
<path d="M297.753 0.124176C297.058 0.21701 295.308 0.384125 293.892 0.495529C281.743 1.51674 270.185 5.45302 262.077 11.3389C260.996 12.1187 259.992 12.75 259.837 12.75C259.683 12.75 258.499 12.4158 257.238 12.0073C252.115 10.392 246.35 9.27791 240.223 8.73946C235.616 8.33097 227.559 8.46095 223.106 9.01797C210.982 10.5219 200.943 14.1054 193.247 19.7128C186.194 24.8374 182.307 31.0946 181.947 37.8717C181.896 38.9672 181.818 39.8956 181.767 39.9327C181.715 39.9698 180.325 40.2298 178.704 40.5083C168.562 42.2908 158.987 46.1342 152.68 50.9432C147.378 54.9909 143.723 60.0969 142.513 65.1101C141.869 67.8395 142.127 72.7228 143.053 75.2851C144.881 80.354 147.944 84.1417 153.478 88.1523C157.957 91.4016 161.612 93.2769 167.378 95.2636C170.673 96.3962 174.405 97.3617 178.421 98.123L181.098 98.6243L181.149 101.595C181.226 106.033 182.179 108.948 184.907 112.921C190.261 120.757 201.793 127.144 215.487 129.892C221.562 131.117 225.371 131.47 232.244 131.47C238.473 131.47 241.562 131.229 246.658 130.356C252.296 129.391 258.447 127.571 263.081 125.491C264.265 124.953 265.32 124.526 265.423 124.526C265.526 124.526 266.504 125.027 267.637 125.64C272.939 128.574 279.941 131.006 286.916 132.343C295.385 133.94 305.707 134.144 314.484 132.863C329.208 130.727 341.615 124.73 348.359 116.486C348.822 115.911 349.337 115.428 349.491 115.428C349.646 115.428 350.804 115.595 352.065 115.781C364.781 117.786 379.196 116.468 390.805 112.271C402.516 108.038 410.702 101.372 413.868 93.5183C415.824 88.6722 415.824 84.4388 413.842 79.4999C412.092 75.1737 408.334 70.6989 403.701 67.4311C402.98 66.9297 402.388 66.447 402.388 66.3727C402.388 66.2984 402.928 65.5372 403.572 64.7017C410.136 56.1606 409.672 46.487 402.285 38.2802C396.648 32.023 387.355 27.1026 376.236 24.4661C369.492 22.8693 364.858 22.3494 356.982 22.3122L351.113 22.2937L350.238 20.7526C346.402 13.8826 338.011 7.81109 327.303 4.17188C323.854 3.00212 317.934 1.57243 314.356 1.05255C308.332 0.198441 300.868 -0.228607 297.753 0.124176Z" fill="#357C05"/>
<path d="M160.231 103.457C156.406 104.272 153.172 106.979 151.959 110.347C151.477 111.685 151.322 113.962 151.617 115.423C152.006 117.437 153.343 119.59 155.069 121.021C159.967 125.112 167.71 124.65 171.986 120.036C173.105 118.821 174.069 116.991 174.396 115.453C175.531 110.101 171.877 104.934 165.999 103.519C164.522 103.18 161.692 103.134 160.231 103.457Z" fill="#357C05"/>
<path d="M131.685 130.064C130.223 130.433 128.933 131.171 127.813 132.279C126.118 133.955 125.341 135.816 125.341 138.261C125.341 140.722 126.243 142.783 128.062 144.413C132.882 148.781 140.547 146.274 141.9 139.907C142.024 139.307 142.133 138.553 142.133 138.215C142.133 135.601 140.594 132.755 138.371 131.248C136.598 130.048 133.753 129.541 131.685 130.064Z" fill="#357C05"/>
<path d="M109.653 157.978C108.316 158.255 106.901 159.393 106.185 160.747C105.874 161.331 105.828 161.669 105.828 162.977C105.828 164.284 105.89 164.607 106.185 165.176C107.709 167.99 111.208 168.913 113.773 167.16C115.204 166.176 116.105 164.315 115.981 162.608C115.903 161.593 115.328 160.27 114.628 159.47C113.571 158.286 111.363 157.625 109.653 157.978Z" fill="#357C05"/>
<path d="M97.1205 179.341C95.83 179.664 94.866 180.602 94.4462 181.94C94.1974 182.709 94.1974 182.801 94.4462 183.478C94.9748 184.893 95.6434 185.554 97.0739 186.077C97.758 186.323 97.8513 186.323 98.6287 186.077C101.101 185.308 102.065 182.801 100.681 180.709C100.013 179.679 98.3333 179.033 97.1205 179.341Z" fill="#357C05"/>
</svg>
