<svg width="519" height="461" viewBox="0 0 519 461" fill="none" xmlns="http://www.w3.org/2000/svg">
<path d="M129.522 4.66553V460.635" stroke="#D4D3D3" stroke-width="1.36737"/>
<path d="M0 231.953L518.087 231.953" stroke="#D4D3D3" stroke-width="1.36737"/>
<path d="M0 346.295L518.087 346.295" stroke="#D4D3D3" stroke-width="1.36737"/>
<path d="M260.102 0.467773L260.102 460.638" stroke="#D4D3D3" stroke-width="1.36737"/>
<path d="M0 117.608L518.087 117.608" stroke="#D4D3D3" stroke-width="1.36737"/>
<path d="M388.566 3.26758L388.566 460.638" stroke="#D4D3D3" stroke-width="1.36737"/>
<path d="M117.954 84.067C106.794 97.7947 64.6718 99.3425 45.0055 98.4004C6.13021 91.3347 5.90154 69.7337 5.44419 56.4097C4.98683 43.0857 27.626 21.4848 57.3541 23.9073C87.0823 26.3298 131.903 66.9074 117.954 84.067Z" fill="#357C05"/>
<path d="M59.8667 38.805C21.4488 40.42 19.0096 53.4748 22.5922 59.8003C0.639112 67.8755 31.7393 81.6031 50.0336 87.4575C129.979 88.265 109.719 66.5295 89.5949 55.5609C95.693 49.3026 98.2847 37.1899 59.8667 38.805Z" fill="#5AAF21"/>
<path d="M61.2349 69.5452C65.0462 65.9114 76.2362 59.0072 90.5057 60.4607" stroke="#282828" stroke-width="2"/>
<path d="M19.1581 52.792C25.4848 55.6183 38.4585 61.7554 39.7391 63.6934" stroke="#282828" stroke-width="2"/>
<path d="M63.5218 60.8656C64.9701 59.0487 69.0558 55.536 73.8123 56.0205" stroke="#282828" stroke-width="2"/>
<path d="M35.3944 54.2036L41.34 60.4618" stroke="#282828" stroke-width="2"/>
</svg>
