<svg width="438" height="526" viewBox="0 0 438 526" fill="none" xmlns="http://www.w3.org/2000/svg">
<rect x="5.7721" y="6.24573" width="426.423" height="514.194" fill="#D9D9D9" stroke="#5AAF21" stroke-width="10.9714"/>
<mask id="mask0_1_1650" style="mask-type:alpha" maskUnits="userSpaceOnUse" x="11" y="12" width="416" height="504">
<rect x="11" y="12" width="415.451" height="503.223" fill="#D9D9D9"/>
</mask>
<g mask="url(#mask0_1_1650)">
<path d="M179 525.5H224V458H179V525.5ZM179 525.5V514.25H190.25V503H179V491.75H190.25V480.5H179V469.25H190.25V458H201.5V469.25H212.75V458H224V469.25H212.75V480.5H224V491.75H212.75V503H224V514.25H212.75V525.5H201.5V514.25H190.25V525.5H179ZM201.5 514.25H212.75V503H201.5V514.25ZM201.5 503V491.75H190.25V503H201.5ZM201.5 491.75H212.75V480.5H201.5V491.75ZM201.5 480.5V469.25H190.25V480.5H201.5Z" fill="#5AAF21" fill-opacity="0.5"/>
<path d="M224 525.5H269V458H224V525.5ZM224 525.5V514.25H235.25V503H224V491.75H235.25V480.5H224V469.25H235.25V458H246.5V469.25H257.75V458H269V469.25H257.75V480.5H269V491.75H257.75V503H269V514.25H257.75V525.5H246.5V514.25H235.25V525.5H224ZM246.5 514.25H257.75V503H246.5V514.25ZM246.5 503V491.75H235.25V503H246.5ZM246.5 491.75H257.75V480.5H246.5V491.75ZM246.5 480.5V469.25H235.25V480.5H246.5Z" fill="#5AAF21" fill-opacity="0.5"/>
<path d="M269 525.5H314V458H269V525.5ZM269 525.5V514.25H280.25V503H269V491.75H280.25V480.5H269V469.25H280.25V458H291.5V469.25H302.75V458H314V469.25H302.75V480.5H314V491.75H302.75V503H314V514.25H302.75V525.5H291.5V514.25H280.25V525.5H269ZM291.5 514.25H302.75V503H291.5V514.25ZM291.5 503V491.75H280.25V503H291.5ZM291.5 491.75H302.75V480.5H291.5V491.75ZM291.5 480.5V469.25H280.25V480.5H291.5Z" fill="#5AAF21" fill-opacity="0.5"/>
<path d="M314 525.5H359V458H314V525.5ZM314 525.5V514.25H325.25V503H314V491.75H325.25V480.5H314V469.25H325.25V458H336.5V469.25H347.75V458H359V469.25H347.75V480.5H359V491.75H347.75V503H359V514.25H347.75V525.5H336.5V514.25H325.25V525.5H314ZM336.5 514.25H347.75V503H336.5V514.25ZM336.5 503V491.75H325.25V503H336.5ZM336.5 491.75H347.75V480.5H336.5V491.75ZM336.5 480.5V469.25H325.25V480.5H336.5Z" fill="#5AAF21" fill-opacity="0.5"/>
<path d="M359 525.5H404V458H359V525.5ZM359 525.5V514.25H370.25V503H359V491.75H370.25V480.5H359V469.25H370.25V458H381.5V469.25H392.75V458H404V469.25H392.75V480.5H404V491.75H392.75V503H404V514.25H392.75V525.5H381.5V514.25H370.25V525.5H359ZM381.5 514.25H392.75V503H381.5V514.25ZM381.5 503V491.75H370.25V503H381.5ZM381.5 491.75H392.75V480.5H381.5V491.75ZM381.5 480.5V469.25H370.25V480.5H381.5Z" fill="#5AAF21" fill-opacity="0.5"/>
<path d="M404 525.5H449V458H404V525.5ZM404 525.5V514.25H415.25V503H404V491.75H415.25V480.5H404V469.25H415.25V458H426.5V469.25H437.75V458H449V469.25H437.75V480.5H449V491.75H437.75V503H449V514.25H437.75V525.5H426.5V514.25H415.25V525.5H404ZM426.5 514.25H437.75V503H426.5V514.25ZM426.5 503V491.75H415.25V503H426.5ZM426.5 491.75H437.75V480.5H426.5V491.75ZM426.5 480.5V469.25H415.25V480.5H426.5Z" fill="#5AAF21" fill-opacity="0.5"/>
<path d="M179 458.5H224V391H179V458.5ZM179 458.5V447.25H190.25V436H179V424.75H190.25V413.5H179V402.25H190.25V391H201.5V402.25H212.75V391H224V402.25H212.75V413.5H224V424.75H212.75V436H224V447.25H212.75V458.5H201.5V447.25H190.25V458.5H179ZM201.5 447.25H212.75V436H201.5V447.25ZM201.5 436V424.75H190.25V436H201.5ZM201.5 424.75H212.75V413.5H201.5V424.75ZM201.5 413.5V402.25H190.25V413.5H201.5Z" fill="#5AAF21" fill-opacity="0.5"/>
<path d="M224 458.5H269V391H224V458.5ZM224 458.5V447.25H235.25V436H224V424.75H235.25V413.5H224V402.25H235.25V391H246.5V402.25H257.75V391H269V402.25H257.75V413.5H269V424.75H257.75V436H269V447.25H257.75V458.5H246.5V447.25H235.25V458.5H224ZM246.5 447.25H257.75V436H246.5V447.25ZM246.5 436V424.75H235.25V436H246.5ZM246.5 424.75H257.75V413.5H246.5V424.75ZM246.5 413.5V402.25H235.25V413.5H246.5Z" fill="#5AAF21" fill-opacity="0.5"/>
<path d="M269 458.5H314V391H269V458.5ZM269 458.5V447.25H280.25V436H269V424.75H280.25V413.5H269V402.25H280.25V391H291.5V402.25H302.75V391H314V402.25H302.75V413.5H314V424.75H302.75V436H314V447.25H302.75V458.5H291.5V447.25H280.25V458.5H269ZM291.5 447.25H302.75V436H291.5V447.25ZM291.5 436V424.75H280.25V436H291.5ZM291.5 424.75H302.75V413.5H291.5V424.75ZM291.5 413.5V402.25H280.25V413.5H291.5Z" fill="#5AAF21" fill-opacity="0.5"/>
<path d="M314 458.5H359V391H314V458.5ZM314 458.5V447.25H325.25V436H314V424.75H325.25V413.5H314V402.25H325.25V391H336.5V402.25H347.75V391H359V402.25H347.75V413.5H359V424.75H347.75V436H359V447.25H347.75V458.5H336.5V447.25H325.25V458.5H314ZM336.5 447.25H347.75V436H336.5V447.25ZM336.5 436V424.75H325.25V436H336.5ZM336.5 424.75H347.75V413.5H336.5V424.75ZM336.5 413.5V402.25H325.25V413.5H336.5Z" fill="#5AAF21" fill-opacity="0.5"/>
<path d="M359 458.5H404V391H359V458.5ZM359 458.5V447.25H370.25V436H359V424.75H370.25V413.5H359V402.25H370.25V391H381.5V402.25H392.75V391H404V402.25H392.75V413.5H404V424.75H392.75V436H404V447.25H392.75V458.5H381.5V447.25H370.25V458.5H359ZM381.5 447.25H392.75V436H381.5V447.25ZM381.5 436V424.75H370.25V436H381.5ZM381.5 424.75H392.75V413.5H381.5V424.75ZM381.5 413.5V402.25H370.25V413.5H381.5Z" fill="#5AAF21" fill-opacity="0.5"/>
<path d="M404 458.5H449V391H404V458.5ZM404 458.5V447.25H415.25V436H404V424.75H415.25V413.5H404V402.25H415.25V391H426.5V402.25H437.75V391H449V402.25H437.75V413.5H449V424.75H437.75V436H449V447.25H437.75V458.5H426.5V447.25H415.25V458.5H404ZM426.5 447.25H437.75V436H426.5V447.25ZM426.5 436V424.75H415.25V436H426.5ZM426.5 424.75H437.75V413.5H426.5V424.75ZM426.5 413.5V402.25H415.25V413.5H426.5Z" fill="#5AAF21" fill-opacity="0.5"/>
<path d="M179 391.5H224V324H179V391.5ZM179 391.5V380.25H190.25V369H179V357.75H190.25V346.5H179V335.25H190.25V324H201.5V335.25H212.75V324H224V335.25H212.75V346.5H224V357.75H212.75V369H224V380.25H212.75V391.5H201.5V380.25H190.25V391.5H179ZM201.5 380.25H212.75V369H201.5V380.25ZM201.5 369V357.75H190.25V369H201.5ZM201.5 357.75H212.75V346.5H201.5V357.75ZM201.5 346.5V335.25H190.25V346.5H201.5Z" fill="#5AAF21" fill-opacity="0.5"/>
<path d="M224 391.5H269V324H224V391.5ZM224 391.5V380.25H235.25V369H224V357.75H235.25V346.5H224V335.25H235.25V324H246.5V335.25H257.75V324H269V335.25H257.75V346.5H269V357.75H257.75V369H269V380.25H257.75V391.5H246.5V380.25H235.25V391.5H224ZM246.5 380.25H257.75V369H246.5V380.25ZM246.5 369V357.75H235.25V369H246.5ZM246.5 357.75H257.75V346.5H246.5V357.75ZM246.5 346.5V335.25H235.25V346.5H246.5Z" fill="#5AAF21" fill-opacity="0.5"/>
<path d="M269 391.5H314V324H269V391.5ZM269 391.5V380.25H280.25V369H269V357.75H280.25V346.5H269V335.25H280.25V324H291.5V335.25H302.75V324H314V335.25H302.75V346.5H314V357.75H302.75V369H314V380.25H302.75V391.5H291.5V380.25H280.25V391.5H269ZM291.5 380.25H302.75V369H291.5V380.25ZM291.5 369V357.75H280.25V369H291.5ZM291.5 357.75H302.75V346.5H291.5V357.75ZM291.5 346.5V335.25H280.25V346.5H291.5Z" fill="#5AAF21" fill-opacity="0.5"/>
<path d="M314 391.5H359V324H314V391.5ZM314 391.5V380.25H325.25V369H314V357.75H325.25V346.5H314V335.25H325.25V324H336.5V335.25H347.75V324H359V335.25H347.75V346.5H359V357.75H347.75V369H359V380.25H347.75V391.5H336.5V380.25H325.25V391.5H314ZM336.5 380.25H347.75V369H336.5V380.25ZM336.5 369V357.75H325.25V369H336.5ZM336.5 357.75H347.75V346.5H336.5V357.75ZM336.5 346.5V335.25H325.25V346.5H336.5Z" fill="#5AAF21" fill-opacity="0.5"/>
<path d="M359 391.5H404V324H359V391.5ZM359 391.5V380.25H370.25V369H359V357.75H370.25V346.5H359V335.25H370.25V324H381.5V335.25H392.75V324H404V335.25H392.75V346.5H404V357.75H392.75V369H404V380.25H392.75V391.5H381.5V380.25H370.25V391.5H359ZM381.5 380.25H392.75V369H381.5V380.25ZM381.5 369V357.75H370.25V369H381.5ZM381.5 357.75H392.75V346.5H381.5V357.75ZM381.5 346.5V335.25H370.25V346.5H381.5Z" fill="#5AAF21" fill-opacity="0.5"/>
<path d="M404 391.5H449V324H404V391.5ZM404 391.5V380.25H415.25V369H404V357.75H415.25V346.5H404V335.25H415.25V324H426.5V335.25H437.75V324H449V335.25H437.75V346.5H449V357.75H437.75V369H449V380.25H437.75V391.5H426.5V380.25H415.25V391.5H404ZM426.5 380.25H437.75V369H426.5V380.25ZM426.5 369V357.75H415.25V369H426.5ZM426.5 357.75H437.75V346.5H426.5V357.75ZM426.5 346.5V335.25H415.25V346.5H426.5Z" fill="#5AAF21" fill-opacity="0.5"/>
<path d="M179 324.5H224V257H179V324.5ZM179 324.5V313.25H190.25V302H179V290.75H190.25V279.5H179V268.25H190.25V257H201.5V268.25H212.75V257H224V268.25H212.75V279.5H224V290.75H212.75V302H224V313.25H212.75V324.5H201.5V313.25H190.25V324.5H179ZM201.5 313.25H212.75V302H201.5V313.25ZM201.5 302V290.75H190.25V302H201.5ZM201.5 290.75H212.75V279.5H201.5V290.75ZM201.5 279.5V268.25H190.25V279.5H201.5Z" fill="#5AAF21" fill-opacity="0.5"/>
<path d="M224 324.5H269V257H224V324.5ZM224 324.5V313.25H235.25V302H224V290.75H235.25V279.5H224V268.25H235.25V257H246.5V268.25H257.75V257H269V268.25H257.75V279.5H269V290.75H257.75V302H269V313.25H257.75V324.5H246.5V313.25H235.25V324.5H224ZM246.5 313.25H257.75V302H246.5V313.25ZM246.5 302V290.75H235.25V302H246.5ZM246.5 290.75H257.75V279.5H246.5V290.75ZM246.5 279.5V268.25H235.25V279.5H246.5Z" fill="#5AAF21" fill-opacity="0.5"/>
<path d="M269 324.5H314V257H269V324.5ZM269 324.5V313.25H280.25V302H269V290.75H280.25V279.5H269V268.25H280.25V257H291.5V268.25H302.75V257H314V268.25H302.75V279.5H314V290.75H302.75V302H314V313.25H302.75V324.5H291.5V313.25H280.25V324.5H269ZM291.5 313.25H302.75V302H291.5V313.25ZM291.5 302V290.75H280.25V302H291.5ZM291.5 290.75H302.75V279.5H291.5V290.75ZM291.5 279.5V268.25H280.25V279.5H291.5Z" fill="#5AAF21" fill-opacity="0.5"/>
<path d="M314 324.5H359V257H314V324.5ZM314 324.5V313.25H325.25V302H314V290.75H325.25V279.5H314V268.25H325.25V257H336.5V268.25H347.75V257H359V268.25H347.75V279.5H359V290.75H347.75V302H359V313.25H347.75V324.5H336.5V313.25H325.25V324.5H314ZM336.5 313.25H347.75V302H336.5V313.25ZM336.5 302V290.75H325.25V302H336.5ZM336.5 290.75H347.75V279.5H336.5V290.75ZM336.5 279.5V268.25H325.25V279.5H336.5Z" fill="#5AAF21" fill-opacity="0.5"/>
<path d="M359 324.5H404V257H359V324.5ZM359 324.5V313.25H370.25V302H359V290.75H370.25V279.5H359V268.25H370.25V257H381.5V268.25H392.75V257H404V268.25H392.75V279.5H404V290.75H392.75V302H404V313.25H392.75V324.5H381.5V313.25H370.25V324.5H359ZM381.5 313.25H392.75V302H381.5V313.25ZM381.5 302V290.75H370.25V302H381.5ZM381.5 290.75H392.75V279.5H381.5V290.75ZM381.5 279.5V268.25H370.25V279.5H381.5Z" fill="#5AAF21" fill-opacity="0.5"/>
<path d="M404 324.5H449V257H404V324.5ZM404 324.5V313.25H415.25V302H404V290.75H415.25V279.5H404V268.25H415.25V257H426.5V268.25H437.75V257H449V268.25H437.75V279.5H449V290.75H437.75V302H449V313.25H437.75V324.5H426.5V313.25H415.25V324.5H404ZM426.5 313.25H437.75V302H426.5V313.25ZM426.5 302V290.75H415.25V302H426.5ZM426.5 290.75H437.75V279.5H426.5V290.75ZM426.5 279.5V268.25H415.25V279.5H426.5Z" fill="#5AAF21" fill-opacity="0.5"/>
<path d="M179 257.5H224V190H179V257.5ZM179 257.5V246.25H190.25V235H179V223.75H190.25V212.5H179V201.25H190.25V190H201.5V201.25H212.75V190H224V201.25H212.75V212.5H224V223.75H212.75V235H224V246.25H212.75V257.5H201.5V246.25H190.25V257.5H179ZM201.5 246.25H212.75V235H201.5V246.25ZM201.5 235V223.75H190.25V235H201.5ZM201.5 223.75H212.75V212.5H201.5V223.75ZM201.5 212.5V201.25H190.25V212.5H201.5Z" fill="#5AAF21" fill-opacity="0.5"/>
<path d="M224 257.5H269V190H224V257.5ZM224 257.5V246.25H235.25V235H224V223.75H235.25V212.5H224V201.25H235.25V190H246.5V201.25H257.75V190H269V201.25H257.75V212.5H269V223.75H257.75V235H269V246.25H257.75V257.5H246.5V246.25H235.25V257.5H224ZM246.5 246.25H257.75V235H246.5V246.25ZM246.5 235V223.75H235.25V235H246.5ZM246.5 223.75H257.75V212.5H246.5V223.75ZM246.5 212.5V201.25H235.25V212.5H246.5Z" fill="#5AAF21" fill-opacity="0.5"/>
<path d="M269 257.5H314V190H269V257.5ZM269 257.5V246.25H280.25V235H269V223.75H280.25V212.5H269V201.25H280.25V190H291.5V201.25H302.75V190H314V201.25H302.75V212.5H314V223.75H302.75V235H314V246.25H302.75V257.5H291.5V246.25H280.25V257.5H269ZM291.5 246.25H302.75V235H291.5V246.25ZM291.5 235V223.75H280.25V235H291.5ZM291.5 223.75H302.75V212.5H291.5V223.75ZM291.5 212.5V201.25H280.25V212.5H291.5Z" fill="#5AAF21" fill-opacity="0.5"/>
<path d="M314 257.5H359V190H314V257.5ZM314 257.5V246.25H325.25V235H314V223.75H325.25V212.5H314V201.25H325.25V190H336.5V201.25H347.75V190H359V201.25H347.75V212.5H359V223.75H347.75V235H359V246.25H347.75V257.5H336.5V246.25H325.25V257.5H314ZM336.5 246.25H347.75V235H336.5V246.25ZM336.5 235V223.75H325.25V235H336.5ZM336.5 223.75H347.75V212.5H336.5V223.75ZM336.5 212.5V201.25H325.25V212.5H336.5Z" fill="#5AAF21" fill-opacity="0.5"/>
<path d="M359 257.5H404V190H359V257.5ZM359 257.5V246.25H370.25V235H359V223.75H370.25V212.5H359V201.25H370.25V190H381.5V201.25H392.75V190H404V201.25H392.75V212.5H404V223.75H392.75V235H404V246.25H392.75V257.5H381.5V246.25H370.25V257.5H359ZM381.5 246.25H392.75V235H381.5V246.25ZM381.5 235V223.75H370.25V235H381.5ZM381.5 223.75H392.75V212.5H381.5V223.75ZM381.5 212.5V201.25H370.25V212.5H381.5Z" fill="#5AAF21" fill-opacity="0.5"/>
<path d="M404 257.5H449V190H404V257.5ZM404 257.5V246.25H415.25V235H404V223.75H415.25V212.5H404V201.25H415.25V190H426.5V201.25H437.75V190H449V201.25H437.75V212.5H449V223.75H437.75V235H449V246.25H437.75V257.5H426.5V246.25H415.25V257.5H404ZM426.5 246.25H437.75V235H426.5V246.25ZM426.5 235V223.75H415.25V235H426.5ZM426.5 223.75H437.75V212.5H426.5V223.75ZM426.5 212.5V201.25H415.25V212.5H426.5Z" fill="#5AAF21" fill-opacity="0.5"/>
<path d="M179 190.5H224V123H179V190.5ZM179 190.5V179.25H190.25V168H179V156.75H190.25V145.5H179V134.25H190.25V123H201.5V134.25H212.75V123H224V134.25H212.75V145.5H224V156.75H212.75V168H224V179.25H212.75V190.5H201.5V179.25H190.25V190.5H179ZM201.5 179.25H212.75V168H201.5V179.25ZM201.5 168V156.75H190.25V168H201.5ZM201.5 156.75H212.75V145.5H201.5V156.75ZM201.5 145.5V134.25H190.25V145.5H201.5Z" fill="#5AAF21" fill-opacity="0.5"/>
<path d="M224 190.5H269V123H224V190.5ZM224 190.5V179.25H235.25V168H224V156.75H235.25V145.5H224V134.25H235.25V123H246.5V134.25H257.75V123H269V134.25H257.75V145.5H269V156.75H257.75V168H269V179.25H257.75V190.5H246.5V179.25H235.25V190.5H224ZM246.5 179.25H257.75V168H246.5V179.25ZM246.5 168V156.75H235.25V168H246.5ZM246.5 156.75H257.75V145.5H246.5V156.75ZM246.5 145.5V134.25H235.25V145.5H246.5Z" fill="#5AAF21" fill-opacity="0.5"/>
<path d="M269 190.5H314V123H269V190.5ZM269 190.5V179.25H280.25V168H269V156.75H280.25V145.5H269V134.25H280.25V123H291.5V134.25H302.75V123H314V134.25H302.75V145.5H314V156.75H302.75V168H314V179.25H302.75V190.5H291.5V179.25H280.25V190.5H269ZM291.5 179.25H302.75V168H291.5V179.25ZM291.5 168V156.75H280.25V168H291.5ZM291.5 156.75H302.75V145.5H291.5V156.75ZM291.5 145.5V134.25H280.25V145.5H291.5Z" fill="#5AAF21" fill-opacity="0.5"/>
<path d="M314 190.5H359V123H314V190.5ZM314 190.5V179.25H325.25V168H314V156.75H325.25V145.5H314V134.25H325.25V123H336.5V134.25H347.75V123H359V134.25H347.75V145.5H359V156.75H347.75V168H359V179.25H347.75V190.5H336.5V179.25H325.25V190.5H314ZM336.5 179.25H347.75V168H336.5V179.25ZM336.5 168V156.75H325.25V168H336.5ZM336.5 156.75H347.75V145.5H336.5V156.75ZM336.5 145.5V134.25H325.25V145.5H336.5Z" fill="#5AAF21" fill-opacity="0.5"/>
<path d="M359 190.5H404V123H359V190.5ZM359 190.5V179.25H370.25V168H359V156.75H370.25V145.5H359V134.25H370.25V123H381.5V134.25H392.75V123H404V134.25H392.75V145.5H404V156.75H392.75V168H404V179.25H392.75V190.5H381.5V179.25H370.25V190.5H359ZM381.5 179.25H392.75V168H381.5V179.25ZM381.5 168V156.75H370.25V168H381.5ZM381.5 156.75H392.75V145.5H381.5V156.75ZM381.5 145.5V134.25H370.25V145.5H381.5Z" fill="#5AAF21" fill-opacity="0.5"/>
<path d="M404 190.5H449V123H404V190.5ZM404 190.5V179.25H415.25V168H404V156.75H415.25V145.5H404V134.25H415.25V123H426.5V134.25H437.75V123H449V134.25H437.75V145.5H449V156.75H437.75V168H449V179.25H437.75V190.5H426.5V179.25H415.25V190.5H404ZM426.5 179.25H437.75V168H426.5V179.25ZM426.5 168V156.75H415.25V168H426.5ZM426.5 156.75H437.75V145.5H426.5V156.75ZM426.5 145.5V134.25H415.25V145.5H426.5Z" fill="#5AAF21" fill-opacity="0.5"/>
<path d="M179 123.5H224V56H179V123.5ZM179 123.5V112.25H190.25V101H179V89.75H190.25V78.5H179V67.25H190.25V56H201.5V67.25H212.75V56H224V67.25H212.75V78.5H224V89.75H212.75V101H224V112.25H212.75V123.5H201.5V112.25H190.25V123.5H179ZM201.5 112.25H212.75V101H201.5V112.25ZM201.5 101V89.75H190.25V101H201.5ZM201.5 89.75H212.75V78.5H201.5V89.75ZM201.5 78.5V67.25H190.25V78.5H201.5Z" fill="#5AAF21" fill-opacity="0.5"/>
<path d="M224 123.5H269V56H224V123.5ZM224 123.5V112.25H235.25V101H224V89.75H235.25V78.5H224V67.25H235.25V56H246.5V67.25H257.75V56H269V67.25H257.75V78.5H269V89.75H257.75V101H269V112.25H257.75V123.5H246.5V112.25H235.25V123.5H224ZM246.5 112.25H257.75V101H246.5V112.25ZM246.5 101V89.75H235.25V101H246.5ZM246.5 89.75H257.75V78.5H246.5V89.75ZM246.5 78.5V67.25H235.25V78.5H246.5Z" fill="#5AAF21" fill-opacity="0.5"/>
<path d="M269 123.5H314V56H269V123.5ZM269 123.5V112.25H280.25V101H269V89.75H280.25V78.5H269V67.25H280.25V56H291.5V67.25H302.75V56H314V67.25H302.75V78.5H314V89.75H302.75V101H314V112.25H302.75V123.5H291.5V112.25H280.25V123.5H269ZM291.5 112.25H302.75V101H291.5V112.25ZM291.5 101V89.75H280.25V101H291.5ZM291.5 89.75H302.75V78.5H291.5V89.75ZM291.5 78.5V67.25H280.25V78.5H291.5Z" fill="#5AAF21" fill-opacity="0.5"/>
<path d="M314 123.5H359V56H314V123.5ZM314 123.5V112.25H325.25V101H314V89.75H325.25V78.5H314V67.25H325.25V56H336.5V67.25H347.75V56H359V67.25H347.75V78.5H359V89.75H347.75V101H359V112.25H347.75V123.5H336.5V112.25H325.25V123.5H314ZM336.5 112.25H347.75V101H336.5V112.25ZM336.5 101V89.75H325.25V101H336.5ZM336.5 89.75H347.75V78.5H336.5V89.75ZM336.5 78.5V67.25H325.25V78.5H336.5Z" fill="#5AAF21" fill-opacity="0.5"/>
<path d="M359 123.5H404V56H359V123.5ZM359 123.5V112.25H370.25V101H359V89.75H370.25V78.5H359V67.25H370.25V56H381.5V67.25H392.75V56H404V67.25H392.75V78.5H404V89.75H392.75V101H404V112.25H392.75V123.5H381.5V112.25H370.25V123.5H359ZM381.5 112.25H392.75V101H381.5V112.25ZM381.5 101V89.75H370.25V101H381.5ZM381.5 89.75H392.75V78.5H381.5V89.75ZM381.5 78.5V67.25H370.25V78.5H381.5Z" fill="#5AAF21" fill-opacity="0.5"/>
<path d="M404 123.5H449V56H404V123.5ZM404 123.5V112.25H415.25V101H404V89.75H415.25V78.5H404V67.25H415.25V56H426.5V67.25H437.75V56H449V67.25H437.75V78.5H449V89.75H437.75V101H449V112.25H437.75V123.5H426.5V112.25H415.25V123.5H404ZM426.5 112.25H437.75V101H426.5V112.25ZM426.5 101V89.75H415.25V101H426.5ZM426.5 89.75H437.75V78.5H426.5V89.75ZM426.5 78.5V67.25H415.25V78.5H426.5Z" fill="#5AAF21" fill-opacity="0.5"/>
<path d="M179 56.5H224V-11H179V56.5ZM179 56.5V45.25H190.25V34H179V22.75H190.25V11.5H179V0.25H190.25V-11H201.5V0.25H212.75V-11H224V0.25H212.75V11.5H224V22.75H212.75V34H224V45.25H212.75V56.5H201.5V45.25H190.25V56.5H179ZM201.5 45.25H212.75V34H201.5V45.25ZM201.5 34V22.75H190.25V34H201.5ZM201.5 22.75H212.75V11.5H201.5V22.75ZM201.5 11.5V0.25H190.25V11.5H201.5Z" fill="#5AAF21" fill-opacity="0.5"/>
<path d="M224 56.5H269V-11H224V56.5ZM224 56.5V45.25H235.25V34H224V22.75H235.25V11.5H224V0.25H235.25V-11H246.5V0.25H257.75V-11H269V0.25H257.75V11.5H269V22.75H257.75V34H269V45.25H257.75V56.5H246.5V45.25H235.25V56.5H224ZM246.5 45.25H257.75V34H246.5V45.25ZM246.5 34V22.75H235.25V34H246.5ZM246.5 22.75H257.75V11.5H246.5V22.75ZM246.5 11.5V0.25H235.25V11.5H246.5Z" fill="#5AAF21" fill-opacity="0.5"/>
<path d="M269 56.5H314V-11H269V56.5ZM269 56.5V45.25H280.25V34H269V22.75H280.25V11.5H269V0.25H280.25V-11H291.5V0.25H302.75V-11H314V0.25H302.75V11.5H314V22.75H302.75V34H314V45.25H302.75V56.5H291.5V45.25H280.25V56.5H269ZM291.5 45.25H302.75V34H291.5V45.25ZM291.5 34V22.75H280.25V34H291.5ZM291.5 22.75H302.75V11.5H291.5V22.75ZM291.5 11.5V0.25H280.25V11.5H291.5Z" fill="#5AAF21" fill-opacity="0.5"/>
<path d="M314 56.5H359V-11H314V56.5ZM314 56.5V45.25H325.25V34H314V22.75H325.25V11.5H314V0.25H325.25V-11H336.5V0.25H347.75V-11H359V0.25H347.75V11.5H359V22.75H347.75V34H359V45.25H347.75V56.5H336.5V45.25H325.25V56.5H314ZM336.5 45.25H347.75V34H336.5V45.25ZM336.5 34V22.75H325.25V34H336.5ZM336.5 22.75H347.75V11.5H336.5V22.75ZM336.5 11.5V0.25H325.25V11.5H336.5Z" fill="#5AAF21" fill-opacity="0.5"/>
<path d="M359 56.5H404V-11H359V56.5ZM359 56.5V45.25H370.25V34H359V22.75H370.25V11.5H359V0.25H370.25V-11H381.5V0.25H392.75V-11H404V0.25H392.75V11.5H404V22.75H392.75V34H404V45.25H392.75V56.5H381.5V45.25H370.25V56.5H359ZM381.5 45.25H392.75V34H381.5V45.25ZM381.5 34V22.75H370.25V34H381.5ZM381.5 22.75H392.75V11.5H381.5V22.75ZM381.5 11.5V0.25H370.25V11.5H381.5Z" fill="#5AAF21" fill-opacity="0.5"/>
<path d="M404 56.5H449V-11H404V56.5ZM404 56.5V45.25H415.25V34H404V22.75H415.25V11.5H404V0.25H415.25V-11H426.5V0.25H437.75V-11H449V0.25H437.75V11.5H449V22.75H437.75V34H449V45.25H437.75V56.5H426.5V45.25H415.25V56.5H404ZM426.5 45.25H437.75V34H426.5V45.25ZM426.5 34V22.75H415.25V34H426.5ZM426.5 22.75H437.75V11.5H426.5V22.75ZM426.5 11.5V0.25H415.25V11.5H426.5Z" fill="#5AAF21" fill-opacity="0.5"/>
<path d="M178.75 -11L133.75 -11V56.5H178.75V-11ZM178.75 -11V0.25H167.5V11.5H178.75V22.75H167.5V34H178.75V45.25H167.5V56.5H156.25V45.25H145V56.5H133.75V45.25H145V34H133.75V22.75H145V11.5H133.75V0.25L145 0.25V-11H156.25V0.25L167.5 0.25V-11H178.75ZM156.25 0.25H145V11.5L156.25 11.5V0.25ZM156.25 11.5V22.75H167.5V11.5H156.25ZM156.25 22.75H145V34H156.25V22.75ZM156.25 34V45.25H167.5V34H156.25Z" fill="#5AAF21" fill-opacity="0.5"/>
<path d="M133.75 -11L88.75 -11V56.5H133.75V-11ZM133.75 -11V0.25H122.5V11.5H133.75V22.75H122.5V34H133.75V45.25H122.5V56.5H111.25V45.25H100V56.5H88.75V45.25H100V34H88.75V22.75H100V11.5H88.75V0.25L100 0.25V-11H111.25V0.25L122.5 0.25V-11H133.75ZM111.25 0.25H100V11.5L111.25 11.5V0.25ZM111.25 11.5V22.75H122.5V11.5H111.25ZM111.25 22.75H100V34H111.25V22.75ZM111.25 34V45.25H122.5V34H111.25Z" fill="#5AAF21" fill-opacity="0.5"/>
<path d="M88.75 -11L43.75 -11L43.75 56.5H88.75V-11ZM88.75 -11V0.25H77.5V11.5H88.75V22.75H77.5V34H88.75V45.25H77.5V56.5H66.25V45.25H55L55 56.5H43.75L43.75 45.25H55V34H43.75V22.75H55V11.5H43.75V0.25L55 0.25V-11H66.25V0.25L77.5 0.25V-11H88.75ZM66.25 0.25H55V11.5L66.25 11.5V0.25ZM66.25 11.5V22.75H77.5V11.5H66.25ZM66.25 22.75H55V34H66.25V22.75ZM66.25 34V45.25H77.5V34H66.25Z" fill="#5AAF21" fill-opacity="0.5"/>
<path d="M43.75 -11L-1.25 -11L-1.25 56.5H43.75L43.75 -11ZM43.75 -11V0.25H32.5V11.5H43.75V22.75H32.5V34H43.75V45.25H32.5V56.5H21.25V45.25H10L10 56.5H-1.25L-1.25 45.25H10V34H-1.25V22.75H10V11.5H-1.25V0.25L10 0.25V-11H21.25V0.25L32.5 0.25V-11H43.75ZM21.25 0.25H10V11.5L21.25 11.5V0.25ZM21.25 11.5L21.25 22.75H32.5V11.5H21.25ZM21.25 22.75H10V34H21.25V22.75ZM21.25 34V45.25H32.5V34H21.25Z" fill="#5AAF21" fill-opacity="0.5"/>
<path d="M178.75 56H133.75V123.5H178.75V56ZM178.75 56V67.25H167.5V78.5H178.75V89.75H167.5V101H178.75V112.25H167.5V123.5H156.25V112.25H145V123.5H133.75V112.25H145V101H133.75V89.75H145V78.5H133.75V67.25H145V56H156.25V67.25H167.5V56H178.75ZM156.25 67.25H145V78.5H156.25V67.25ZM156.25 78.5V89.75H167.5V78.5H156.25ZM156.25 89.75H145V101H156.25V89.75ZM156.25 101V112.25H167.5V101H156.25Z" fill="#5AAF21" fill-opacity="0.5"/>
<path d="M133.75 56H88.75V123.5H133.75V56ZM133.75 56V67.25H122.5V78.5H133.75V89.75H122.5V101H133.75V112.25H122.5V123.5H111.25V112.25H100V123.5H88.75V112.25H100V101H88.75V89.75H100V78.5H88.75V67.25H100V56H111.25V67.25H122.5V56H133.75ZM111.25 67.25H100V78.5H111.25V67.25ZM111.25 78.5V89.75H122.5V78.5H111.25ZM111.25 89.75H100V101H111.25V89.75ZM111.25 101V112.25H122.5V101H111.25Z" fill="#5AAF21" fill-opacity="0.5"/>
<path d="M88.75 56H43.75L43.75 123.5H88.75V56ZM88.75 56V67.25H77.5V78.5H88.75V89.75H77.5V101H88.75V112.25H77.5V123.5H66.25V112.25H55L55 123.5H43.75L43.75 112.25H55V101H43.75V89.75H55V78.5H43.75V67.25H55V56H66.25V67.25H77.5V56H88.75ZM66.25 67.25H55V78.5H66.25V67.25ZM66.25 78.5V89.75H77.5V78.5H66.25ZM66.25 89.75H55V101H66.25V89.75ZM66.25 101V112.25H77.5V101H66.25Z" fill="#5AAF21" fill-opacity="0.5"/>
<path d="M43.75 56H-1.25L-1.25 123.5H43.75L43.75 56ZM43.75 56V67.25H32.5V78.5H43.75V89.75H32.5V101H43.75V112.25H32.5V123.5H21.25V112.25H10L10 123.5H-1.25L-1.25 112.25H10V101H-1.25V89.75H10V78.5H-1.25V67.25H10V56H21.25V67.25H32.5V56H43.75ZM21.25 67.25H10V78.5H21.25V67.25ZM21.25 78.5L21.25 89.75H32.5V78.5H21.25ZM21.25 89.75H10V101H21.25V89.75ZM21.25 101V112.25H32.5V101H21.25Z" fill="#5AAF21" fill-opacity="0.5"/>
<path d="M178.75 123H133.75V190.5H178.75V123ZM178.75 123V134.25H167.5V145.5H178.75V156.75H167.5V168H178.75V179.25H167.5V190.5H156.25V179.25H145V190.5H133.75V179.25H145V168H133.75V156.75H145V145.5H133.75V134.25H145V123H156.25V134.25H167.5V123H178.75ZM156.25 134.25H145V145.5H156.25V134.25ZM156.25 145.5V156.75H167.5V145.5H156.25ZM156.25 156.75H145V168H156.25V156.75ZM156.25 168V179.25H167.5V168H156.25Z" fill="#5AAF21" fill-opacity="0.5"/>
<path d="M133.75 123H88.75V190.5H133.75V123ZM133.75 123V134.25H122.5V145.5H133.75V156.75H122.5V168H133.75V179.25H122.5V190.5H111.25V179.25H100V190.5H88.75V179.25H100V168H88.75V156.75H100V145.5H88.75V134.25H100V123H111.25V134.25H122.5V123H133.75ZM111.25 134.25H100V145.5H111.25V134.25ZM111.25 145.5V156.75H122.5V145.5H111.25ZM111.25 156.75H100V168H111.25V156.75ZM111.25 168V179.25H122.5V168H111.25Z" fill="#5AAF21" fill-opacity="0.5"/>
<path d="M88.75 123H43.75L43.75 190.5H88.75V123ZM88.75 123V134.25H77.5V145.5H88.75V156.75H77.5V168H88.75V179.25H77.5V190.5H66.25V179.25H55L55 190.5H43.75L43.75 179.25H55V168H43.75V156.75H55V145.5H43.75V134.25H55V123H66.25V134.25H77.5V123H88.75ZM66.25 134.25H55V145.5H66.25V134.25ZM66.25 145.5V156.75H77.5V145.5H66.25ZM66.25 156.75H55V168H66.25V156.75ZM66.25 168V179.25H77.5V168H66.25Z" fill="#5AAF21" fill-opacity="0.5"/>
<path d="M43.75 123H-1.25L-1.25 190.5H43.75L43.75 123ZM43.75 123V134.25H32.5V145.5H43.75V156.75H32.5V168H43.75V179.25H32.5V190.5H21.25V179.25H10L10 190.5H-1.25L-1.25 179.25H10V168H-1.25V156.75H10V145.5H-1.25V134.25H10V123H21.25V134.25H32.5V123H43.75ZM21.25 134.25H10V145.5H21.25V134.25ZM21.25 145.5L21.25 156.75H32.5V145.5H21.25ZM21.25 156.75H10V168H21.25V156.75ZM21.25 168V179.25H32.5V168H21.25Z" fill="#5AAF21" fill-opacity="0.5"/>
<path d="M178.75 190H133.75V257.5H178.75V190ZM178.75 190V201.25H167.5V212.5H178.75V223.75H167.5V235H178.75V246.25H167.5V257.5H156.25V246.25H145V257.5H133.75V246.25H145V235H133.75V223.75H145V212.5H133.75V201.25H145V190H156.25V201.25H167.5V190H178.75ZM156.25 201.25H145V212.5H156.25V201.25ZM156.25 212.5V223.75H167.5V212.5H156.25ZM156.25 223.75H145V235H156.25V223.75ZM156.25 235V246.25H167.5V235H156.25Z" fill="#5AAF21" fill-opacity="0.5"/>
<path d="M133.75 190H88.75V257.5H133.75V190ZM133.75 190V201.25H122.5V212.5H133.75V223.75H122.5V235H133.75V246.25H122.5V257.5H111.25V246.25H100V257.5H88.75V246.25H100V235H88.75V223.75H100V212.5H88.75V201.25H100V190H111.25V201.25H122.5V190H133.75ZM111.25 201.25H100V212.5H111.25V201.25ZM111.25 212.5V223.75H122.5V212.5H111.25ZM111.25 223.75H100V235H111.25V223.75ZM111.25 235V246.25H122.5V235H111.25Z" fill="#5AAF21" fill-opacity="0.5"/>
<path d="M88.75 190H43.75L43.75 257.5H88.75V190ZM88.75 190V201.25H77.5V212.5H88.75V223.75H77.5V235H88.75V246.25H77.5V257.5H66.25V246.25H55L55 257.5H43.75L43.75 246.25H55V235H43.75V223.75H55V212.5H43.75V201.25H55V190H66.25V201.25H77.5V190H88.75ZM66.25 201.25H55V212.5H66.25V201.25ZM66.25 212.5V223.75H77.5V212.5H66.25ZM66.25 223.75H55V235H66.25V223.75ZM66.25 235V246.25H77.5V235H66.25Z" fill="#5AAF21" fill-opacity="0.5"/>
<path d="M43.75 190H-1.25L-1.25 257.5H43.75L43.75 190ZM43.75 190V201.25H32.5V212.5H43.75V223.75H32.5V235H43.75V246.25H32.5V257.5H21.25V246.25H10L10 257.5H-1.25L-1.25 246.25H10V235H-1.25V223.75H10V212.5H-1.25V201.25H10V190H21.25V201.25H32.5V190H43.75ZM21.25 201.25H10V212.5H21.25V201.25ZM21.25 212.5L21.25 223.75H32.5V212.5H21.25ZM21.25 223.75H10V235H21.25V223.75ZM21.25 235V246.25H32.5V235H21.25Z" fill="#5AAF21" fill-opacity="0.5"/>
<path d="M178.75 257H133.75V324.5H178.75V257ZM178.75 257V268.25H167.5V279.5H178.75V290.75H167.5V302H178.75V313.25H167.5V324.5H156.25V313.25H145V324.5H133.75V313.25H145V302H133.75V290.75H145V279.5H133.75V268.25H145V257H156.25V268.25H167.5V257H178.75ZM156.25 268.25H145V279.5H156.25V268.25ZM156.25 279.5V290.75H167.5V279.5H156.25ZM156.25 290.75H145V302H156.25V290.75ZM156.25 302V313.25H167.5V302H156.25Z" fill="#5AAF21" fill-opacity="0.5"/>
<path d="M133.75 257H88.75V324.5H133.75V257ZM133.75 257V268.25H122.5V279.5H133.75V290.75H122.5V302H133.75V313.25H122.5V324.5H111.25V313.25H100V324.5H88.75V313.25H100V302H88.75V290.75H100V279.5H88.75V268.25H100V257H111.25V268.25H122.5V257H133.75ZM111.25 268.25H100V279.5H111.25V268.25ZM111.25 279.5V290.75H122.5V279.5H111.25ZM111.25 290.75H100V302H111.25V290.75ZM111.25 302V313.25H122.5V302H111.25Z" fill="#5AAF21" fill-opacity="0.5"/>
<path d="M88.75 257H43.75L43.75 324.5H88.75V257ZM88.75 257V268.25H77.5V279.5H88.75V290.75H77.5V302H88.75V313.25H77.5V324.5H66.25V313.25H55L55 324.5H43.75L43.75 313.25H55V302H43.75V290.75H55V279.5H43.75V268.25H55V257H66.25V268.25H77.5V257H88.75ZM66.25 268.25H55V279.5H66.25V268.25ZM66.25 279.5V290.75H77.5V279.5H66.25ZM66.25 290.75H55V302H66.25V290.75ZM66.25 302V313.25H77.5V302H66.25Z" fill="#5AAF21" fill-opacity="0.5"/>
<path d="M43.75 257H-1.25L-1.25 324.5H43.75L43.75 257ZM43.75 257V268.25H32.5V279.5H43.75V290.75H32.5V302H43.75V313.25H32.5V324.5H21.25V313.25H10L10 324.5H-1.25L-1.25 313.25H10V302H-1.25V290.75H10V279.5H-1.25V268.25H10V257H21.25V268.25H32.5V257H43.75ZM21.25 268.25H10V279.5H21.25V268.25ZM21.25 279.5L21.25 290.75H32.5V279.5H21.25ZM21.25 290.75H10V302H21.25V290.75ZM21.25 302V313.25H32.5V302H21.25Z" fill="#5AAF21" fill-opacity="0.5"/>
<path d="M178.75 324H133.75V391.5H178.75V324ZM178.75 324V335.25H167.5V346.5H178.75V357.75H167.5V369H178.75V380.25H167.5V391.5H156.25V380.25H145V391.5H133.75V380.25H145V369H133.75V357.75H145V346.5H133.75V335.25H145V324H156.25V335.25H167.5V324H178.75ZM156.25 335.25H145V346.5H156.25V335.25ZM156.25 346.5V357.75H167.5V346.5H156.25ZM156.25 357.75H145V369H156.25V357.75ZM156.25 369V380.25H167.5V369H156.25Z" fill="#5AAF21" fill-opacity="0.5"/>
<path d="M133.75 324H88.75V391.5H133.75V324ZM133.75 324V335.25H122.5V346.5H133.75V357.75H122.5V369H133.75V380.25H122.5V391.5H111.25V380.25H100V391.5H88.75V380.25H100V369H88.75V357.75H100V346.5H88.75V335.25H100V324H111.25V335.25H122.5V324H133.75ZM111.25 335.25H100V346.5H111.25V335.25ZM111.25 346.5V357.75H122.5V346.5H111.25ZM111.25 357.75H100V369H111.25V357.75ZM111.25 369V380.25H122.5V369H111.25Z" fill="#5AAF21" fill-opacity="0.5"/>
<path d="M88.75 324H43.75L43.75 391.5H88.75V324ZM88.75 324V335.25H77.5V346.5H88.75V357.75H77.5V369H88.75V380.25H77.5V391.5H66.25V380.25H55L55 391.5H43.75L43.75 380.25H55V369H43.75V357.75H55V346.5H43.75V335.25H55V324H66.25V335.25H77.5V324H88.75ZM66.25 335.25H55V346.5H66.25V335.25ZM66.25 346.5V357.75H77.5V346.5H66.25ZM66.25 357.75H55V369H66.25V357.75ZM66.25 369V380.25H77.5V369H66.25Z" fill="#5AAF21" fill-opacity="0.5"/>
<path d="M43.75 324H-1.25L-1.25 391.5H43.75L43.75 324ZM43.75 324V335.25H32.5V346.5H43.75V357.75H32.5V369H43.75V380.25H32.5V391.5H21.25V380.25H10L10 391.5H-1.25L-1.25 380.25H10V369H-1.25V357.75H10V346.5H-1.25V335.25H10V324H21.25V335.25H32.5V324H43.75ZM21.25 335.25H10V346.5H21.25V335.25ZM21.25 346.5L21.25 357.75H32.5V346.5H21.25ZM21.25 357.75H10V369H21.25V357.75ZM21.25 369V380.25H32.5V369H21.25Z" fill="#5AAF21" fill-opacity="0.5"/>
<path d="M178.75 391H133.75V458.5H178.75V391ZM178.75 391V402.25H167.5V413.5H178.75V424.75H167.5V436H178.75V447.25H167.5V458.5H156.25V447.25H145V458.5H133.75V447.25H145V436H133.75V424.75H145V413.5H133.75V402.25H145V391H156.25V402.25H167.5V391H178.75ZM156.25 402.25H145V413.5H156.25V402.25ZM156.25 413.5V424.75H167.5V413.5H156.25ZM156.25 424.75H145V436H156.25V424.75ZM156.25 436V447.25H167.5V436H156.25Z" fill="#5AAF21" fill-opacity="0.5"/>
<path d="M133.75 391H88.75V458.5H133.75V391ZM133.75 391V402.25H122.5V413.5H133.75V424.75H122.5V436H133.75V447.25H122.5V458.5H111.25V447.25H100V458.5H88.75V447.25H100V436H88.75V424.75H100V413.5H88.75V402.25H100V391H111.25V402.25H122.5V391H133.75ZM111.25 402.25H100V413.5H111.25V402.25ZM111.25 413.5V424.75H122.5V413.5H111.25ZM111.25 424.75H100V436H111.25V424.75ZM111.25 436V447.25H122.5V436H111.25Z" fill="#5AAF21" fill-opacity="0.5"/>
<path d="M88.75 391H43.75L43.75 458.5H88.75V391ZM88.75 391V402.25H77.5V413.5H88.75V424.75H77.5V436H88.75V447.25H77.5V458.5H66.25V447.25H55L55 458.5H43.75L43.75 447.25H55V436H43.75V424.75H55V413.5H43.75V402.25H55V391H66.25V402.25H77.5V391H88.75ZM66.25 402.25H55V413.5H66.25V402.25ZM66.25 413.5V424.75H77.5V413.5H66.25ZM66.25 424.75H55V436H66.25V424.75ZM66.25 436V447.25H77.5V436H66.25Z" fill="#5AAF21" fill-opacity="0.5"/>
<path d="M43.75 391H-1.25L-1.25 458.5H43.75L43.75 391ZM43.75 391V402.25H32.5V413.5H43.75V424.75H32.5V436H43.75V447.25H32.5V458.5H21.25V447.25H10L10 458.5H-1.25L-1.25 447.25H10V436H-1.25V424.75H10V413.5H-1.25V402.25H10V391H21.25V402.25H32.5V391H43.75ZM21.25 402.25H10V413.5H21.25V402.25ZM21.25 413.5L21.25 424.75H32.5V413.5H21.25ZM21.25 424.75H10V436H21.25V424.75ZM21.25 436V447.25H32.5V436H21.25Z" fill="#5AAF21" fill-opacity="0.5"/>
<path d="M178.75 458H133.75V525.5H178.75V458ZM178.75 458V469.25H167.5V480.5H178.75V491.75H167.5V503H178.75V514.25H167.5V525.5H156.25V514.25H145V525.5H133.75V514.25H145V503H133.75V491.75H145V480.5H133.75V469.25H145V458H156.25V469.25H167.5V458H178.75ZM156.25 469.25H145V480.5H156.25V469.25ZM156.25 480.5V491.75H167.5V480.5H156.25ZM156.25 491.75H145V503H156.25V491.75ZM156.25 503V514.25H167.5V503H156.25Z" fill="#5AAF21" fill-opacity="0.5"/>
<path d="M133.75 458H88.75V525.5H133.75V458ZM133.75 458V469.25H122.5V480.5H133.75V491.75H122.5V503H133.75V514.25H122.5V525.5H111.25V514.25H100V525.5H88.75V514.25H100V503H88.75V491.75H100V480.5H88.75V469.25H100V458H111.25V469.25H122.5V458H133.75ZM111.25 469.25H100V480.5H111.25V469.25ZM111.25 480.5V491.75H122.5V480.5H111.25ZM111.25 491.75H100V503H111.25V491.75ZM111.25 503V514.25H122.5V503H111.25Z" fill="#5AAF21" fill-opacity="0.5"/>
<path d="M88.75 458H43.75L43.75 525.5H88.75V458ZM88.75 458V469.25H77.5V480.5H88.75V491.75H77.5V503H88.75V514.25H77.5V525.5H66.25V514.25H55L55 525.5H43.75L43.75 514.25H55V503H43.75V491.75H55V480.5H43.75V469.25H55V458H66.25V469.25H77.5V458H88.75ZM66.25 469.25H55V480.5H66.25V469.25ZM66.25 480.5V491.75H77.5V480.5H66.25ZM66.25 491.75H55V503H66.25V491.75ZM66.25 503V514.25H77.5V503H66.25Z" fill="#5AAF21" fill-opacity="0.5"/>
<path d="M43.75 458H-1.25L-1.25 525.5H43.75L43.75 458ZM43.75 458V469.25H32.5V480.5H43.75V491.75H32.5V503H43.75V514.25H32.5V525.5H21.25V514.25H10L10 525.5H-1.25L-1.25 514.25H10V503H-1.25V491.75H10V480.5H-1.25V469.25H10V458H21.25V469.25H32.5V458H43.75ZM21.25 469.25H10V480.5H21.25V469.25ZM21.25 480.5L21.25 491.75H32.5V480.5H21.25ZM21.25 491.75H10V503H21.25V491.75ZM21.25 503V514.25H32.5V503H21.25Z" fill="#5AAF21" fill-opacity="0.5"/>
</g>
<mask id="mask1_1_1650" style="mask-type:alpha" maskUnits="userSpaceOnUse" x="10" y="13" width="417" height="500">
<rect x="16.4813" y="19.2174" width="405.004" height="488.251" fill="#D9D9D9" stroke="#357C05" stroke-width="10.9714"/>
</mask>
<g mask="url(#mask1_1_1650)">
<path d="M430.539 370.616C386.714 424.686 221.292 430.782 144.059 427.072C-8.61072 399.242 -9.50875 314.161 -11.3049 261.681C-13.101 209.201 75.8066 124.12 192.554 133.662C309.301 143.204 485.321 303.029 430.539 370.616Z" fill="#357C05"/>
<path d="M202.423 192.341C51.5491 198.702 41.9698 250.121 56.0394 275.036C-30.1741 306.842 91.9616 360.912 163.806 383.971C477.767 387.152 398.199 301.541 319.17 258.338C343.118 233.688 353.296 185.98 202.423 192.341Z" fill="#5AAF21"/>
<path d="M207.794 313.418C222.762 299.105 266.707 271.911 322.746 277.636" stroke="#282828" stroke-width="3"/>
<path d="M42.5519 247.432C67.3982 258.564 118.348 282.736 123.377 290.37" stroke="#282828" stroke-width="3"/>
<path d="M216.774 279.23C222.462 272.074 238.507 258.238 257.187 260.147" stroke="#282828" stroke-width="3"/>
<path d="M106.313 252.992L129.662 277.641" stroke="#282828" stroke-width="3"/>
</g>
</svg>
