<svg width="484" height="264" viewBox="0 0 484 264" fill="none" xmlns="http://www.w3.org/2000/svg">
<path d="M355.673 0.110062C354.919 0.192139 353.021 0.339882 351.486 0.438377C338.31 1.34126 325.777 4.82147 316.985 10.0254C315.812 10.7148 314.724 11.273 314.556 11.273C314.389 11.273 313.105 10.9775 311.737 10.6163C306.182 9.18815 299.93 8.20319 293.286 7.72712C288.29 7.36596 279.553 7.48087 274.724 7.97336C261.577 9.30306 250.69 12.4714 242.344 17.429C234.696 21.9599 230.481 27.4921 230.09 33.4839C230.035 34.4525 229.951 35.2733 229.895 35.3061C229.839 35.339 228.332 35.5688 226.573 35.815C215.575 37.391 205.192 40.7891 198.353 45.0408C192.603 48.6196 188.639 53.134 187.327 57.5663C186.629 59.9795 186.908 64.2969 187.913 66.5623C189.895 71.0439 193.217 74.3928 199.218 77.9387C204.075 80.8115 208.039 82.4695 214.291 84.226C217.864 85.2274 221.912 86.081 226.266 86.7541L229.169 87.1973L229.225 89.8239C229.309 93.7473 230.342 96.3247 233.3 99.8377C239.106 106.765 251.612 112.412 266.461 114.842C273.049 115.925 277.18 116.237 284.633 116.237C291.388 116.237 294.738 116.024 300.265 115.252C306.378 114.399 313.049 112.79 318.073 110.951C319.357 110.475 320.502 110.098 320.613 110.098C320.725 110.098 321.786 110.541 323.014 111.083C328.764 113.676 336.357 115.827 343.921 117.009C353.105 118.421 364.298 118.601 373.816 117.469C389.783 115.581 403.237 110.278 410.55 102.99C411.053 102.481 411.611 102.054 411.778 102.054C411.946 102.054 413.202 102.202 414.57 102.366C428.359 104.139 443.99 102.973 456.579 99.2631C469.28 95.5203 478.156 89.6269 481.59 82.6829C483.711 78.3983 483.711 74.6554 481.562 70.2888C479.664 66.4638 475.588 62.5076 470.564 59.6183C469.782 59.1751 469.14 58.7483 469.14 58.6826C469.14 58.6169 469.726 57.9439 470.424 57.2052C477.542 49.6538 477.04 41.101 469.029 33.8451C462.916 28.3129 452.839 23.9626 440.78 21.6315C433.467 20.2197 428.443 19.7601 419.901 19.7273L413.537 19.7108L412.588 18.3483C408.429 12.2744 399.329 6.90631 387.717 3.68876C383.977 2.65455 377.557 1.39051 373.677 0.930862C367.145 0.17572 359.05 -0.201843 355.673 0.110062Z" fill="#357C05"/>
<path d="M206.542 91.4704C202.394 92.1911 198.887 94.5842 197.572 97.5621C197.049 98.7451 196.881 100.758 197.201 102.049C197.623 103.831 199.073 105.734 200.944 106.999C206.256 110.616 214.652 110.208 219.289 106.129C220.503 105.054 221.549 103.436 221.903 102.077C223.134 97.3446 219.171 92.7758 212.798 91.5248C211.196 91.2256 208.127 91.1848 206.542 91.4704Z" fill="#357C05"/>
<path d="M175.585 114.994C174 115.32 172.601 115.973 171.387 116.952C169.549 118.434 168.706 120.08 168.706 122.242C168.706 124.417 169.684 126.239 171.657 127.681C176.884 131.542 185.196 129.326 186.663 123.697C186.798 123.166 186.916 122.5 186.916 122.201C186.916 119.889 185.247 117.374 182.836 116.041C180.913 114.981 177.828 114.532 175.585 114.994Z" fill="#357C05"/>
<path d="M151.692 139.674C150.242 139.919 148.707 140.925 147.932 142.122C147.595 142.639 147.544 142.938 147.544 144.093C147.544 145.249 147.611 145.535 147.932 146.038C149.584 148.526 153.378 149.342 156.16 147.792C157.711 146.922 158.689 145.276 158.554 143.767C158.47 142.87 157.846 141.7 157.087 140.993C155.941 139.946 153.547 139.362 151.692 139.674Z" fill="#357C05"/>
<path d="M138.102 158.561C136.703 158.847 135.658 159.676 135.202 160.859C134.933 161.539 134.933 161.621 135.202 162.219C135.776 163.47 136.501 164.055 138.052 164.517C138.794 164.735 138.895 164.735 139.738 164.517C142.419 163.837 143.464 161.621 141.964 159.771C141.239 158.86 139.418 158.289 138.102 158.561Z" fill="#357C05"/>
<path d="M71.6381 205.404C32.5214 209.953 7.58075 231.558 0 241.792C0 257.256 41.6941 262.639 62.5412 263.397C109.163 249.752 214.914 250.889 233.108 256.574C247.663 261.123 264.189 254.679 270.633 250.889C384.344 258.166 354.4 228.904 325.214 213.364C367.287 191.759 305.883 189.485 301.335 179.251C297.696 171.063 267.222 167.5 252.439 166.742C250.62 157.645 218.326 147.79 202.406 144C169.809 144 103.932 148.548 101.203 166.742C98.474 184.936 80.356 200.098 71.6381 205.404Z" fill="#357C05"/>
<path d="M161.47 196.305C113.257 190.846 114.091 218.289 120.534 232.692C134.18 245.2 186.487 241.79 261.536 232.692C321.576 225.414 290.343 210.708 267.222 204.265C261.764 195.168 232.35 195.168 218.326 196.305C199.223 167.195 172.463 184.175 161.47 196.305Z" fill="#5AAF21"/>
<path d="M123.944 220.187L180.8 214.501" stroke="#282828" stroke-width="2.27423"/>
<path d="M229.696 216.775H284.277" stroke="#282828" stroke-width="2.27423"/>
<path d="M242.205 205.404H258.124" stroke="#282828" stroke-width="2.27423"/>
<path d="M146.688 206.541H163.744" stroke="#282828" stroke-width="2.27423"/>
<path d="M56.2151 246.635C67.9653 245.119 93.0576 240.039 99.4254 231.852C107.385 221.618 43.7069 209.11 56.2151 246.635Z" fill="#5AAF21"/>
<path d="M109.413 185.872C115.098 151.758 203.793 161.992 167.405 191.557C138.589 214.971 117.052 201.686 109.635 191.856C109.624 191.843 109.613 191.828 109.603 191.814C108.911 190.839 109.185 187.461 109.413 185.872Z" fill="#D7EECB" fill-opacity="0.8"/>
<path d="M253.789 197.123C245.297 200.426 236.552 180.01 247.842 183.908C256.783 186.995 256.442 193.385 255.126 196.282C255.125 196.286 255.123 196.29 255.121 196.295C254.985 196.573 254.18 196.962 253.789 197.123Z" fill="#D7EECB" fill-opacity="0.8"/>
</svg>
