<svg width="344" height="234" viewBox="0 0 344 234" fill="none" xmlns="http://www.w3.org/2000/svg">
<path d="M249.586 10.9672C249.033 11.0273 247.642 11.1356 246.517 11.2078C236.86 11.8696 227.674 14.4205 221.229 18.2347C220.37 18.7401 219.572 19.1492 219.449 19.1492C219.326 19.1492 218.385 18.9326 217.383 18.6679C213.311 17.6211 208.728 16.8991 203.859 16.5502C200.197 16.2855 193.793 16.3697 190.253 16.7307C180.617 17.7053 172.638 20.0276 166.52 23.6614C160.914 26.9823 157.825 31.0372 157.539 35.429C157.498 36.139 157.436 36.7406 157.395 36.7646C157.354 36.7887 156.25 36.9572 154.961 37.1376C146.9 38.2928 139.289 40.7835 134.276 43.8999C130.061 46.5229 127.156 49.8318 126.195 53.0806C125.683 54.8493 125.888 58.0139 126.624 59.6743C128.077 62.9592 130.512 65.4138 134.91 68.0128C138.47 70.1185 141.376 71.3337 145.959 72.6212C148.577 73.3552 151.544 73.9809 154.736 74.4742L156.863 74.7991L156.904 76.7243C156.966 79.6 157.723 81.4891 159.891 84.064C164.147 89.1417 173.313 93.2808 184.197 95.0616C189.026 95.8558 192.054 96.0844 197.516 96.0844C202.468 96.0844 204.923 95.928 208.974 95.3624C213.454 94.7368 218.344 93.5576 222.027 92.21C222.968 91.861 223.807 91.5843 223.889 91.5843C223.971 91.5843 224.748 91.9092 225.648 92.3062C229.863 94.2073 235.428 95.7836 240.972 96.6499C247.704 97.6847 255.908 97.8171 262.885 96.9868C274.587 95.6031 284.449 91.7166 289.809 86.3742C290.178 86.0012 290.587 85.6884 290.709 85.6884C290.832 85.6884 291.753 85.7967 292.755 85.917C302.862 87.2165 314.32 86.3622 323.547 83.6429C332.856 80.8995 339.362 76.5799 341.879 71.4902C343.434 68.3497 343.434 65.6063 341.858 62.4057C340.467 59.6021 337.48 56.7023 333.797 54.5846C333.224 54.2598 332.754 53.9469 332.754 53.8988C332.754 53.8507 333.183 53.3573 333.695 52.8159C338.912 47.281 338.544 41.0121 332.672 35.6938C328.191 31.6388 320.805 28.4502 311.967 26.7416C306.607 25.7069 302.924 25.37 296.663 25.3459L291.998 25.3339L291.303 24.3352C288.254 19.8832 281.585 15.9486 273.073 13.5902C270.332 12.8322 265.626 11.9057 262.782 11.5688C257.995 11.0153 252.061 10.7386 249.586 10.9672Z" fill="#357C05"/>
<path d="M140.278 77.9306C137.237 78.4589 134.667 80.213 133.703 82.3957C133.32 83.2628 133.196 84.7378 133.431 85.6847C133.74 86.9903 134.803 88.3856 136.175 89.3125C140.068 91.9636 146.222 91.6646 149.621 88.6746C150.511 87.8873 151.277 86.7012 151.536 85.7046C152.438 82.2362 149.534 78.8874 144.863 77.9705C143.689 77.7513 141.439 77.7214 140.278 77.9306Z" fill="#357C05"/>
<path d="M117.587 95.1733C116.425 95.4125 115.4 95.8909 114.51 96.6084C113.163 97.6948 112.545 98.9008 112.545 100.485C112.545 102.08 113.261 103.416 114.707 104.472C118.539 107.303 124.631 105.678 125.707 101.552C125.805 101.163 125.892 100.675 125.892 100.456C125.892 98.7612 124.668 96.9174 122.901 95.9407C121.492 95.1633 119.231 94.8344 117.587 95.1733Z" fill="#357C05"/>
<path d="M100.076 113.262C99.0129 113.442 97.8882 114.179 97.3197 115.056C97.0726 115.435 97.0355 115.654 97.0355 116.502C97.0355 117.349 97.0849 117.558 97.3197 117.927C98.5309 119.751 101.312 120.349 103.351 119.212C104.488 118.575 105.205 117.369 105.106 116.262C105.044 115.605 104.587 114.747 104.03 114.229C103.19 113.462 101.435 113.033 100.076 113.262Z" fill="#357C05"/>
<path d="M90.1138 127.106C89.0881 127.316 88.3218 127.924 87.9881 128.791C87.7904 129.289 87.7904 129.349 87.9881 129.787C88.4083 130.704 88.9398 131.133 90.0767 131.472C90.6205 131.631 90.6947 131.631 91.3126 131.472C93.2776 130.973 94.0438 129.349 92.9439 127.993C92.4125 127.326 91.0778 126.907 90.1138 127.106Z" fill="#357C05"/>
<path d="M153.999 232.922C21.8736 231.061 48.5468 168.565 78.3991 137.55C123.992 107.775 188.116 135.999 214.479 153.833C303.804 221.757 211.378 234.861 153.999 232.922Z" fill="#357C05"/>
<path d="M90.03 118.941C66.7684 128.246 76.4607 142.978 84.2146 149.181C92.7438 146.855 112.128 141.041 121.433 136.389C130.738 131.737 110.578 111.964 99.3346 102.66C84.2146 95.6813 94.6823 66.6032 92.3562 45.6678C90.03 24.7324 38.8542 -19.4645 9.77728 9.61242C-13.4843 32.874 10.1651 45.6678 24.8975 49.157C19.3147 43.5743 24.8975 31.3228 28.3867 25.8948C62.8138 9.14654 65.9929 56.1348 63.2791 81.7225C68.8618 98.4708 83.4391 113.513 90.03 118.941Z" fill="#357C05"/>
<path d="M69.7154 181.604C67.0066 174.065 66.8805 159.6 88.0456 162.053C114.502 165.119 76.0956 192.737 69.7154 181.604Z" fill="#5AAF21"/>
<path d="M123.106 175.646C142.938 167.124 184.982 157.946 194.501 189.412C206.4 228.745 95.3416 202.196 123.106 175.646Z" fill="#5AAF21"/>
<path d="M140.201 183.81C129.346 176.444 104.379 161.944 91.3521 162.875C75.069 164.038 130.897 162.873 140.201 168.688" stroke="#282828" stroke-width="2"/>
<path d="M182.071 182.644L193.702 177.992" stroke="#282828" stroke-width="2"/>
<path d="M209.985 181.481C199.517 184.583 178.582 191.484 178.582 194.275" stroke="#282828" stroke-width="2"/>
</svg>
