<svg width="82" height="319" viewBox="0 0 82 319" fill="none" xmlns="http://www.w3.org/2000/svg">
<path d="M44.2231 16.1934H37.2746C17.0767 16.1934 0.703125 32.567 0.703125 52.7648V282.068C0.703125 302.266 17.0767 318.639 37.2746 318.639H44.2231C64.421 318.639 80.7945 302.265 80.7945 282.068V52.7648C80.7945 32.5669 64.4209 16.1934 44.2231 16.1934Z" fill="#D9D9D9"/>
<mask id="mask0_1_2843" style="mask-type:alpha" maskUnits="userSpaceOnUse" x="1" y="16" width="81" height="303">
<path d="M44.5209 16H37.5724C17.3746 16 1.00098 32.3736 1.00098 52.5715V281.874C1.00098 302.072 17.3746 318.446 37.5724 318.446H44.521C64.7188 318.446 81.0924 302.072 81.0924 281.874V52.5714C81.0924 32.3736 64.7188 16 44.5209 16Z" fill="#D9D9D9"/>
</mask>
<g mask="url(#mask0_1_2843)">
<path d="M92.7832 26.6045V-5.99983L25.6434 1.24558V26.6045L92.7832 26.6045ZM92.7832 26.6045H81.5932V15.7364H70.4033V26.6045H59.2133V15.7364L48.0233 15.7364V26.6045L36.8334 26.6045V15.7364H25.6434V4.86829H36.8334L36.8334 -5.99983H48.0233H59.2133L70.4033 -5.99983H81.5932H92.7832V4.86829H81.5932V15.7364L92.7832 15.7364V26.6045ZM81.5932 4.86829V-5.99983H70.4033V4.86829L81.5932 4.86829ZM70.4033 4.86829H59.2133V15.7364L70.4033 15.7364V4.86829ZM59.2133 4.86829L59.2133 -5.99983H48.0233L48.0233 4.86829H59.2133ZM48.0233 4.86829L36.8334 4.86829V15.7364L48.0233 15.7364V4.86829Z" fill="#5AAF21" fill-opacity="0.5"/>
<path d="M26.1406 26.6045L26.1406 -5.99983L-40.9992 1.24558V26.6045L26.1406 26.6045ZM26.1406 26.6045H14.9507L14.9507 15.7364H3.76069V26.6045H-7.42927V15.7364L-18.6192 15.7364V26.6045L-29.8092 26.6045V15.7364H-40.9992V4.86829H-29.8092L-29.8092 -5.99983H-18.6192H-7.42927L3.76069 -5.99983H14.9507H26.1406V4.86829H14.9507L14.9507 15.7364L26.1406 15.7364V26.6045ZM14.9507 4.86829V-5.99983H3.76069V4.86829L14.9507 4.86829ZM3.76069 4.86829H-7.42927V15.7364L3.76069 15.7364L3.76069 4.86829ZM-7.42927 4.86829L-7.42927 -5.99983H-18.6192L-18.6192 4.86829H-7.42927ZM-18.6192 4.86829L-29.8092 4.86829V15.7364L-18.6192 15.7364V4.86829Z" fill="#5AAF21" fill-opacity="0.5"/>
<path d="M92.7832 330.912V287.44H25.6434V330.912H92.7832ZM92.7832 330.912H81.5932V320.044H70.4033V330.912H59.2133V320.044H48.0233V330.912H36.8334V320.044H25.6434V309.176H36.8334L36.8334 298.308H25.6434V287.44H36.8334V298.308H48.0233V287.44H59.2133V298.308H70.4033V287.44H81.5932V298.308H92.7832V309.176H81.5932V320.044H92.7832V330.912ZM81.5932 309.176V298.308H70.4033V309.176H81.5932ZM70.4033 309.176H59.2133V320.044H70.4033V309.176ZM59.2133 309.176L59.2133 298.308H48.0233L48.0233 309.176H59.2133ZM48.0233 309.176H36.8334V320.044H48.0233V309.176Z" fill="#5AAF21" fill-opacity="0.5"/>
<path d="M92.7832 287.44V243.967H25.6434V287.44H92.7832ZM92.7832 287.44H81.5932V276.572H70.4033V287.44H59.2133V276.572H48.0233V287.44H36.8334V276.572H25.6434V265.703H36.8334L36.8334 254.835H25.6434V243.967H36.8334V254.835H48.0233V243.967H59.2133V254.835H70.4033V243.967H81.5932V254.835H92.7832V265.703H81.5932V276.572H92.7832V287.44ZM81.5932 265.703V254.835H70.4033V265.703H81.5932ZM70.4033 265.703H59.2133V276.572H70.4033V265.703ZM59.2133 265.703L59.2133 254.835H48.0233L48.0233 265.703H59.2133ZM48.0233 265.703H36.8334V276.572H48.0233V265.703Z" fill="#5AAF21" fill-opacity="0.5"/>
<path d="M92.7832 243.967V200.495H25.6434V243.967H92.7832ZM92.7832 243.967H81.5932V233.099H70.4033V243.967H59.2133V233.099H48.0233V243.967H36.8334V233.099H25.6434V222.231H36.8334L36.8334 211.363H25.6434V200.495H36.8334V211.363H48.0233V200.495H59.2133V211.363H70.4033V200.495H81.5932V211.363H92.7832V222.231H81.5932V233.099H92.7832V243.967ZM81.5932 222.231V211.363H70.4033V222.231H81.5932ZM70.4033 222.231H59.2133V233.099H70.4033V222.231ZM59.2133 222.231L59.2133 211.363H48.0233L48.0233 222.231H59.2133ZM48.0233 222.231H36.8334V233.099H48.0233V222.231Z" fill="#5AAF21" fill-opacity="0.5"/>
<path d="M92.7832 200.495V157.022H25.6434V200.495H92.7832ZM92.7832 200.495H81.5932V189.627H70.4033V200.495H59.2133V189.627H48.0233V200.495H36.8334V189.627H25.6434V178.759H36.8334L36.8334 167.891H25.6434V157.022H36.8334V167.891H48.0233V157.022H59.2133V167.891H70.4033V157.022H81.5932V167.891H92.7832V178.759H81.5932V189.627H92.7832V200.495ZM81.5932 178.759V167.891H70.4033V178.759H81.5932ZM70.4033 178.759H59.2133V189.627H70.4033V178.759ZM59.2133 178.759L59.2133 167.891H48.0233L48.0233 178.759H59.2133ZM48.0233 178.759H36.8334V189.627H48.0233V178.759Z" fill="#5AAF21" fill-opacity="0.5"/>
<path d="M92.7832 157.023V113.55H25.6434V157.023H92.7832ZM92.7832 157.023H81.5932V146.154H70.4033V157.023H59.2133V146.154H48.0233V157.023H36.8334V146.154H25.6434V135.286H36.8334L36.8334 124.418H25.6434V113.55H36.8334V124.418H48.0233V113.55H59.2133V124.418H70.4033V113.55H81.5932V124.418H92.7832V135.286H81.5932V146.154H92.7832V157.023ZM81.5932 135.286V124.418H70.4033V135.286H81.5932ZM70.4033 135.286H59.2133V146.154H70.4033V135.286ZM59.2133 135.286L59.2133 124.418H48.0233L48.0233 135.286H59.2133ZM48.0233 135.286H36.8334V146.154H48.0233V135.286Z" fill="#5AAF21" fill-opacity="0.5"/>
<path d="M92.7832 113.55V70.0777H25.6434V113.55L92.7832 113.55ZM92.7832 113.55H81.5932V102.682H70.4033V113.55H59.2133V102.682H48.0233V113.55H36.8334V102.682H25.6434V91.814H36.8334L36.8334 80.9459H25.6434V70.0777H36.8334V80.9459H48.0233V70.0777H59.2133V80.9459H70.4033V70.0777H81.5932V80.9459H92.7832V91.814H81.5932V102.682H92.7832V113.55ZM81.5932 91.814V80.9459H70.4033V91.814H81.5932ZM70.4033 91.814H59.2133V102.682H70.4033V91.814ZM59.2133 91.814L59.2133 80.9459H48.0233L48.0233 91.814H59.2133ZM48.0233 91.814H36.8334V102.682H48.0233V91.814Z" fill="#5AAF21" fill-opacity="0.5"/>
<path d="M92.7832 70.0769V26.6044L25.6434 26.6044V70.0769L92.7832 70.0769ZM92.7832 70.0769H81.5932V59.2088H70.4033V70.0769H59.2133V59.2088L48.0233 59.2088V70.0769H36.8334V59.2088H25.6434V48.3407H36.8334L36.8334 37.4726H25.6434V26.6044H36.8334V37.4726H48.0233V26.6044H59.2133V37.4726L70.4033 37.4726V26.6044H81.5932V37.4726H92.7832V48.3407H81.5932V59.2088H92.7832V70.0769ZM81.5932 48.3407V37.4726H70.4033V48.3407H81.5932ZM70.4033 48.3407H59.2133V59.2088H70.4033V48.3407ZM59.2133 48.3407L59.2133 37.4726H48.0233L48.0233 48.3407H59.2133ZM48.0233 48.3407L36.8334 48.3407V59.2088H48.0233V48.3407Z" fill="#5AAF21" fill-opacity="0.5"/>
<path d="M26.1406 330.912L26.1406 287.44H-40.9992V330.912H26.1406ZM26.1406 330.912H14.9507L14.9507 320.044H3.76069V330.912H-7.42927V320.044H-18.6192V330.912H-29.8092V320.044H-40.9992V309.176H-29.8092L-29.8092 298.308H-40.9992V287.44H-29.8092V298.308H-18.6192V287.44H-7.42927V298.308H3.76069L3.76069 287.44H14.9507L14.9507 298.308H26.1406V309.176H14.9507L14.9507 320.044H26.1406V330.912ZM14.9507 309.176V298.308H3.76069V309.176H14.9507ZM3.76069 309.176H-7.42927V320.044H3.76069L3.76069 309.176ZM-7.42927 309.176L-7.42927 298.308H-18.6192L-18.6192 309.176H-7.42927ZM-18.6192 309.176H-29.8092V320.044H-18.6192V309.176Z" fill="#5AAF21" fill-opacity="0.5"/>
<path d="M26.1406 287.44L26.1406 243.967H-40.9992V287.44H26.1406ZM26.1406 287.44H14.9507L14.9507 276.572H3.76069V287.44H-7.42927V276.572H-18.6192V287.44H-29.8092V276.572H-40.9992V265.703H-29.8092L-29.8092 254.835H-40.9992V243.967H-29.8092V254.835H-18.6192V243.967H-7.42927V254.835H3.76069L3.76069 243.967H14.9507L14.9507 254.835H26.1406V265.703H14.9507L14.9507 276.572H26.1406V287.44ZM14.9507 265.703V254.835H3.76069V265.703H14.9507ZM3.76069 265.703H-7.42927V276.572H3.76069L3.76069 265.703ZM-7.42927 265.703L-7.42927 254.835H-18.6192L-18.6192 265.703H-7.42927ZM-18.6192 265.703H-29.8092V276.572H-18.6192V265.703Z" fill="#5AAF21" fill-opacity="0.5"/>
<path d="M26.1406 243.967L26.1406 200.495H-40.9992V243.967H26.1406ZM26.1406 243.967H14.9507L14.9507 233.099H3.76069V243.967H-7.42927V233.099H-18.6192V243.967H-29.8092V233.099H-40.9992V222.231H-29.8092L-29.8092 211.363H-40.9992V200.495H-29.8092V211.363H-18.6192V200.495H-7.42927V211.363H3.76069L3.76069 200.495H14.9507L14.9507 211.363H26.1406V222.231H14.9507L14.9507 233.099H26.1406V243.967ZM14.9507 222.231V211.363H3.76069V222.231H14.9507ZM3.76069 222.231H-7.42927V233.099H3.76069L3.76069 222.231ZM-7.42927 222.231L-7.42927 211.363H-18.6192L-18.6192 222.231H-7.42927ZM-18.6192 222.231H-29.8092V233.099H-18.6192V222.231Z" fill="#5AAF21" fill-opacity="0.5"/>
<path d="M26.1406 200.495L26.1406 157.022H-40.9992V200.495H26.1406ZM26.1406 200.495H14.9507L14.9507 189.627H3.76069V200.495H-7.42927V189.627H-18.6192V200.495H-29.8092V189.627H-40.9992V178.759H-29.8092L-29.8092 167.891H-40.9992V157.022H-29.8092V167.891H-18.6192V157.022H-7.42927V167.891H3.76069L3.76069 157.022H14.9507L14.9507 167.891H26.1406V178.759H14.9507L14.9507 189.627H26.1406V200.495ZM14.9507 178.759V167.891H3.76069V178.759H14.9507ZM3.76069 178.759H-7.42927V189.627H3.76069L3.76069 178.759ZM-7.42927 178.759L-7.42927 167.891H-18.6192L-18.6192 178.759H-7.42927ZM-18.6192 178.759H-29.8092V189.627H-18.6192V178.759Z" fill="#5AAF21" fill-opacity="0.5"/>
<path d="M26.1406 157.023L26.1406 113.55H-40.9992V157.023H26.1406ZM26.1406 157.023H14.9507L14.9507 146.154H3.76069V157.023H-7.42927V146.154H-18.6192V157.023H-29.8092V146.154H-40.9992V135.286H-29.8092L-29.8092 124.418H-40.9992V113.55H-29.8092V124.418H-18.6192V113.55H-7.42927V124.418H3.76069L3.76069 113.55H14.9507L14.9507 124.418H26.1406V135.286H14.9507L14.9507 146.154H26.1406V157.023ZM14.9507 135.286V124.418H3.76069V135.286H14.9507ZM3.76069 135.286H-7.42927V146.154H3.76069L3.76069 135.286ZM-7.42927 135.286L-7.42927 124.418H-18.6192L-18.6192 135.286H-7.42927ZM-18.6192 135.286H-29.8092V146.154H-18.6192V135.286Z" fill="#5AAF21" fill-opacity="0.5"/>
<path d="M26.1406 113.55L26.1406 70.0777H-40.9992V113.55L26.1406 113.55ZM26.1406 113.55H14.9507L14.9507 102.682H3.76069V113.55H-7.42927V102.682H-18.6192V113.55H-29.8092V102.682H-40.9992V91.814H-29.8092L-29.8092 80.9459H-40.9992V70.0777H-29.8092V80.9459H-18.6192V70.0777H-7.42927V80.9459H3.76069L3.76069 70.0777H14.9507L14.9507 80.9459H26.1406V91.814H14.9507L14.9507 102.682H26.1406V113.55ZM14.9507 91.814V80.9459H3.76069V91.814H14.9507ZM3.76069 91.814H-7.42927V102.682H3.76069L3.76069 91.814ZM-7.42927 91.814L-7.42927 80.9459H-18.6192L-18.6192 91.814H-7.42927ZM-18.6192 91.814H-29.8092V102.682H-18.6192V91.814Z" fill="#5AAF21" fill-opacity="0.5"/>
<path d="M26.1406 70.0769L26.1406 26.6044L-40.9992 26.6044V70.0769L26.1406 70.0769ZM26.1406 70.0769H14.9507L14.9507 59.2088H3.76069V70.0769H-7.42927V59.2088L-18.6192 59.2088V70.0769H-29.8092V59.2088H-40.9992V48.3407H-29.8092L-29.8092 37.4726H-40.9992V26.6044H-29.8092V37.4726H-18.6192V26.6044H-7.42927V37.4726L3.76069 37.4726L3.76069 26.6044H14.9507L14.9507 37.4726H26.1406V48.3407H14.9507L14.9507 59.2088H26.1406V70.0769ZM14.9507 48.3407V37.4726H3.76069V48.3407H14.9507ZM3.76069 48.3407H-7.42927V59.2088H3.76069L3.76069 48.3407ZM-7.42927 48.3407L-7.42927 37.4726H-18.6192L-18.6192 48.3407H-7.42927ZM-18.6192 48.3407L-29.8092 48.3407V59.2088H-18.6192V48.3407Z" fill="#5AAF21" fill-opacity="0.5"/>
</g>
<path d="M28.6494 183.188L26.9732 188.384H30.3256L28.6494 183.188Z" fill="#357C05"/>
<path d="M60.9999 160.559H34.1809V168.94H40.8856V172.293H19.0952C16.2456 172.293 14.0666 174.472 14.0666 177.321V195.759C14.0666 198.609 16.2456 200.788 19.0952 200.788H20.7714V209.337L31.3314 200.788H42.5618V189.055H60.9999C63.8494 189.055 66.0285 186.876 66.0285 184.026V165.588C66.0285 162.738 63.8494 160.559 60.9999 160.559ZM32.1694 193.916L31.3314 191.234H26.1352L25.1294 193.916H21.1066L26.638 178.998H30.6609L36.1923 193.916H32.1694ZM57.6475 180.674V184.026C55.4685 184.026 53.1218 183.356 51.1104 182.35C49.099 183.356 46.7523 183.858 44.4056 184.026L44.238 180.674C45.4114 180.674 46.5847 180.506 47.758 180.171C46.2494 178.662 45.2437 176.818 44.7409 174.807H48.2609C48.7637 176.316 49.7694 177.489 50.9428 178.495C52.7866 176.986 53.9599 174.807 54.1275 172.293H44.0704V168.94H49.099V165.588H52.4514V168.94H57.9828L58.1504 170.617C58.318 174.137 56.9771 177.657 54.4628 180.171C55.6361 180.506 56.6418 180.674 57.6475 180.674Z" fill="#357C05"/>
<path d="M40.3894 129.748C37.9987 129.748 35.706 128.804 34.0156 127.124C32.3251 125.443 31.3754 123.164 31.3754 120.788C31.3754 118.412 32.3251 116.133 34.0156 114.452C35.706 112.772 37.9987 111.828 40.3894 111.828C42.78 111.828 45.0728 112.772 46.7632 114.452C48.4537 116.133 49.4034 118.412 49.4034 120.788C49.4034 123.164 48.4537 125.443 46.7632 127.124C45.0728 128.804 42.78 129.748 40.3894 129.748ZM59.5248 123.271C59.6278 122.452 59.705 121.633 59.705 120.788C59.705 119.943 59.6278 119.098 59.5248 118.228L64.9589 114.055C65.4482 113.671 65.577 112.98 65.268 112.417L60.1171 103.559C59.8081 102.996 59.1127 102.766 58.5461 102.996L52.1333 105.556C50.7941 104.558 49.4034 103.687 47.7809 103.047L46.8279 96.2633C46.7756 95.9617 46.6176 95.6884 46.3819 95.4916C46.1462 95.2948 45.8481 95.1872 45.5402 95.1881H35.2386C34.5947 95.1881 34.0539 95.6489 33.9508 96.2633L32.9979 103.047C31.3754 103.687 29.9847 104.558 28.6455 105.556L22.2327 102.996C21.6661 102.766 20.9707 102.996 20.6617 103.559L15.5108 112.417C15.176 112.98 15.3306 113.671 15.8199 114.055L21.254 118.228C21.151 119.098 21.0737 119.943 21.0737 120.788C21.0737 121.633 21.151 122.452 21.254 123.271L15.8199 127.521C15.3306 127.905 15.176 128.596 15.5108 129.159L20.6617 138.017C20.9707 138.58 21.6661 138.785 22.2327 138.58L28.6455 135.994C29.9847 137.018 31.3754 137.889 32.9979 138.529L33.9508 145.313C34.0539 145.927 34.5947 146.388 35.2386 146.388H45.5402C46.1841 146.388 46.7249 145.927 46.8279 145.313L47.7809 138.529C49.4034 137.863 50.7941 137.018 52.1333 135.994L58.5461 138.58C59.1127 138.785 59.8081 138.58 60.1171 138.017L65.268 129.159C65.577 128.596 65.4482 127.905 64.9589 127.521L59.5248 123.271Z" fill="#357C05"/>
<path d="M60.8632 260.35C60.8632 263.871 59.8477 266.7 57.8166 268.836C55.7855 270.915 53.3595 271.954 50.5386 271.954C48.9588 271.954 47.7741 271.579 46.9842 270.828C46.1943 270.02 45.7994 268.981 45.7994 267.711C45.7994 265.574 46.6175 263.698 48.2536 262.082C49.8898 260.407 51.8362 259.57 54.0929 259.57C54.7136 259.57 55.3342 259.657 55.9548 259.83C56.5754 259.945 57.196 260.119 57.8166 260.35V241.384L35.0516 247.706V264.333C35.0516 267.797 34.0361 270.597 32.005 272.733C30.0304 274.812 27.5761 275.851 24.6424 275.851C23.0626 275.851 21.8779 275.476 21.088 274.725C20.2981 273.975 19.9032 272.964 19.9032 271.694C19.9032 269.558 20.7213 267.682 22.3574 266.065C23.9936 264.391 25.9682 263.554 28.2814 263.554C28.902 263.554 29.5226 263.611 30.1432 263.727C30.7638 263.842 31.3844 264.044 32.005 264.333V232.551L60.8632 225.017V260.35ZM35.0516 242.337L57.8166 236.015V231.079L35.0516 237.487V242.337Z" fill="#357C05"/>
<circle cx="40.3831" cy="40.514" r="39.68" fill="#357C05"/>
<rect x="16.7947" y="22.0453" width="47.1771" height="9.87429" rx="4.93714" fill="#D9D9D9"/>
<rect x="16.7947" y="35.5768" width="47.1771" height="9.87429" rx="4.93714" fill="#D9D9D9"/>
<rect x="16.7947" y="49.1082" width="47.1771" height="9.87429" rx="4.93714" fill="#D9D9D9"/>
</svg>
