<svg width="498" height="387" viewBox="0 0 498 387" fill="none" xmlns="http://www.w3.org/2000/svg">
<path d="M120.534 1.12233C121.244 1.26921 123.032 1.53357 124.479 1.70981C136.892 3.32536 148.7 9.55261 156.984 18.8641C158.088 20.0978 159.114 21.0965 159.271 21.0965C159.429 21.0965 160.639 20.5678 161.928 19.9216C167.161 17.366 173.052 15.6036 179.311 14.7518C184.018 14.1055 192.25 14.3112 196.799 15.1924C209.186 17.5717 219.442 23.2408 227.305 32.1117C234.511 40.2188 238.482 50.1178 238.85 60.8392C238.903 62.5723 238.982 64.041 239.034 64.0997C239.087 64.1585 240.507 64.5697 242.164 65.0103C252.525 67.8302 262.308 73.9106 268.751 81.5184C274.169 87.9219 277.903 95.9996 279.139 103.931C279.797 108.249 279.534 115.974 278.587 120.027C276.72 128.046 273.59 134.039 267.936 140.383C263.36 145.524 259.626 148.491 253.735 151.634C250.369 153.425 246.556 154.953 242.453 156.157L239.718 156.95L239.665 161.65C239.586 168.67 238.613 173.282 235.826 179.568C230.356 191.964 218.574 202.068 204.583 206.416C198.377 208.354 194.485 208.912 187.463 208.912C181.099 208.912 177.943 208.531 172.736 207.15C166.977 205.623 160.692 202.744 155.958 199.454C154.748 198.602 153.67 197.927 153.565 197.927C153.46 197.927 152.46 198.72 151.303 199.689C145.886 204.33 138.732 208.178 131.606 210.293C122.954 212.819 112.408 213.142 103.44 211.115C88.3976 207.738 75.7218 198.25 68.8316 185.208C68.3582 184.297 67.8323 183.534 67.6745 183.534C67.5167 183.534 66.3333 183.798 65.0447 184.092C52.0533 187.264 37.3263 185.178 25.4657 178.54C13.5 171.843 5.13715 161.298 1.90244 148.872C-0.0962219 141.206 -0.0962219 134.509 1.92874 126.695C3.71704 119.851 7.55658 112.772 12.2903 107.602C13.0266 106.809 13.6315 106.045 13.6315 105.928C13.6315 105.81 13.0792 104.606 12.4218 103.284C5.7157 89.7724 6.18906 74.4687 13.7367 61.4855C19.496 51.5865 28.9897 43.8024 40.3506 39.6314C47.2407 37.1052 51.9744 36.2827 60.0217 36.224L66.0177 36.1946L66.9118 33.7566C70.8303 22.8883 79.4035 13.2831 90.3436 7.52582C93.8676 5.67528 99.9162 3.41348 103.572 2.59102C109.725 1.23984 117.352 0.56424 120.534 1.12233Z" fill="#357C05"/>
<path d="M261.035 164.597C264.943 165.886 268.247 170.168 269.486 175.497C269.979 177.613 270.137 181.214 269.836 183.526C269.438 186.713 268.072 190.119 266.309 192.382C261.305 198.854 253.394 198.124 249.026 190.825C247.882 188.903 246.897 186.008 246.563 183.574C245.404 175.107 249.137 166.932 255.141 164.694C256.651 164.159 259.542 164.086 261.035 164.597Z" fill="#357C05"/>
<path d="M290.202 206.688C291.695 207.272 293.014 208.44 294.158 210.192C295.889 212.844 296.683 215.788 296.683 219.656C296.683 223.549 295.762 226.81 293.903 229.389C288.979 236.299 281.147 232.333 279.765 222.26C279.638 221.311 279.527 220.119 279.527 219.583C279.527 215.447 281.1 210.946 283.371 208.562C285.182 206.664 288.089 205.861 290.202 206.688Z" fill="#357C05"/>
<path d="M312.712 250.849C314.078 251.287 315.524 253.087 316.254 255.228C316.572 256.153 316.62 256.688 316.62 258.756C316.62 260.824 316.556 261.335 316.254 262.235C314.698 266.688 311.123 268.148 308.502 265.374C307.041 263.817 306.12 260.873 306.247 258.172C306.326 256.566 306.914 254.474 307.629 253.209C308.709 251.335 310.965 250.289 312.712 250.849Z" fill="#357C05"/>
<path d="M325.515 284.644C326.833 285.155 327.818 286.639 328.247 288.756C328.501 289.972 328.501 290.118 328.247 291.189C327.707 293.427 327.024 294.474 325.562 295.301C324.863 295.69 324.768 295.69 323.974 295.301C321.448 294.084 320.463 290.118 321.877 286.809C322.56 285.179 324.276 284.157 325.515 284.644Z" fill="#357C05"/>
<path d="M351.057 380.079C220.773 352.298 239.028 272.441 264.44 235.985C289.028 178.507 299.167 180.902 301.162 189.284C298.608 221.536 314.201 211.504 322.318 202.456C333.813 212.994 348.396 193.542 354.25 182.499C359.763 201.611 374.753 177.403 376.157 175.008C376.17 174.975 376.186 174.944 376.203 174.915C376.298 174.757 376.278 174.802 376.157 175.008C375.275 177.167 384.204 185.68 385.384 184.894C389.216 184.894 394.165 175.048 396.161 170.125C396.161 183.537 403.612 185.559 407.337 184.894C424.102 178.108 421.307 191.679 429.69 198.066C436.395 203.175 450.845 195.937 457.231 191.679C455.954 220.099 463.884 218.422 468.008 214.032C467.742 221.349 469.126 237.502 476.79 243.569C484.453 249.636 493.022 270.578 496.348 280.291C502.202 325.129 481.34 407.86 351.057 380.079Z" fill="#357C05" stroke="#357C05" stroke-width="0.798306"/>
<path d="M297.171 336.571C257.894 297.295 300.497 279.758 326.708 275.9C386.741 210.439 415.586 250.753 422.505 279.093C466.412 285.081 470.403 315.815 454.038 339.764C437.673 363.714 346.267 385.667 297.171 336.571Z" fill="#5AAF21"/>
<path d="M406.539 316.215C417.849 308.232 442.303 291.947 449.648 290.669" stroke="#282828" stroke-width="3"/>
<path d="M332.856 271.051C338.961 276.125 351.356 287.165 352.095 290.73" stroke="#282828" stroke-width="3"/>
<circle cx="449.647" cy="261.531" r="14.7687" fill="#5AAF21"/>
<ellipse cx="274.504" cy="267.225" rx="10.0799" ry="12.7102" transform="rotate(45.7171 274.504 267.225)" fill="#B7D7A3"/>
<path d="M336.288 260.733C310.103 260.733 305.952 244.766 319.124 231.994C332.296 219.221 410.53 209.641 403.345 226.405C396.161 243.17 362.472 260.733 336.288 260.733Z" fill="#B7D7A3"/>
<path d="M408.534 292.266C412.126 288.541 420.03 281.09 422.903 281.09" stroke="#282828" stroke-width="3"/>
<path d="M357.842 312.961C343.872 302.45 310.822 282.226 290.385 285.419" stroke="#282828" stroke-width="3"/>
</svg>
