<svg width="805" height="468" viewBox="0 0 805 468" fill="none" xmlns="http://www.w3.org/2000/svg">
<path d="M226.552 0.311859C227.891 0.544617 231.264 0.963654 233.992 1.24298C257.401 3.80362 279.67 13.6737 295.293 28.4323C297.376 30.3877 299.311 31.9707 299.608 31.9707C299.906 31.9707 302.187 31.1326 304.617 30.1084C314.487 26.0579 325.597 23.2645 337.401 21.9143C346.279 20.8901 361.803 21.216 370.383 22.6127C393.743 26.3838 413.086 35.3693 427.915 49.4296C441.505 62.2793 448.994 77.9691 449.688 94.9624C449.787 97.7093 449.936 100.037 450.035 100.13C450.134 100.223 452.813 100.875 455.937 101.574C475.478 106.043 493.928 115.68 506.08 127.739C516.297 137.888 523.339 150.691 525.67 163.262C526.91 170.106 526.414 182.35 524.629 188.775C521.107 201.485 515.205 210.983 504.542 221.039C495.912 229.187 488.87 233.889 477.76 238.87C471.411 241.71 464.22 244.131 456.483 246.04L451.325 247.297L451.226 254.746C451.077 265.874 449.242 273.183 443.984 283.146C433.668 302.793 411.449 318.809 385.063 325.699C373.359 328.772 366.018 329.657 352.776 329.657C340.773 329.657 334.822 329.051 325.002 326.863C314.14 324.442 302.286 319.88 293.359 314.665C291.077 313.315 289.044 312.244 288.846 312.244C288.647 312.244 286.763 313.501 284.58 315.038C274.363 322.394 260.873 328.493 247.432 331.845C231.115 335.849 211.227 336.361 194.314 333.149C165.945 327.794 142.039 312.756 129.045 292.085C128.152 290.642 127.16 289.431 126.862 289.431C126.565 289.431 124.333 289.85 121.903 290.316C97.402 295.344 69.6277 292.039 47.2596 281.517C24.6931 270.902 8.92126 254.188 2.82086 234.494C-0.948486 222.343 -0.948486 211.728 2.87048 199.343C6.24304 188.496 13.4842 177.275 22.4116 169.081C23.8003 167.824 24.941 166.614 24.941 166.428C24.941 166.241 23.8995 164.332 22.6596 162.237C10.0124 140.821 10.9052 116.565 25.1394 95.9867C36.0011 80.2969 53.9056 67.9593 75.3314 61.3482C88.3257 57.3443 97.2532 56.0407 112.43 55.9476L123.738 55.901L125.424 52.0368C132.814 34.8106 148.983 19.5865 169.615 10.4613C176.261 7.5282 187.668 3.9433 194.562 2.63971C206.168 0.498077 220.551 -0.572754 226.552 0.311859Z" fill="#357C05"/>
<path d="M491.528 259.417C498.897 261.461 505.129 268.248 507.466 276.694C508.394 280.049 508.694 285.756 508.125 289.42C507.376 294.471 504.799 299.87 501.474 303.457C492.037 313.715 477.117 312.558 468.879 300.989C466.722 297.942 464.864 293.353 464.235 289.497C462.048 276.077 469.088 263.119 480.413 259.571C483.259 258.723 488.711 258.607 491.528 259.417Z" fill="#357C05"/>
<path d="M546.534 326.131C549.351 327.056 551.837 328.907 553.994 331.684C557.26 335.887 558.758 340.553 558.758 346.685C558.758 352.855 557.02 358.023 553.515 362.111C544.228 373.063 529.458 366.777 526.851 350.811C526.612 349.307 526.402 347.418 526.402 346.569C526.402 340.014 529.368 332.879 533.652 329.1C537.067 326.092 542.55 324.819 546.534 326.131Z" fill="#357C05"/>
<path d="M588.984 396.125C591.561 396.819 594.287 399.673 595.665 403.067C596.264 404.532 596.354 405.381 596.354 408.659C596.354 411.936 596.234 412.746 595.665 414.173C592.729 421.23 585.988 423.544 581.045 419.148C578.289 416.68 576.551 412.014 576.791 407.733C576.941 405.188 578.049 401.871 579.397 399.866C581.435 396.897 585.689 395.238 588.984 396.125Z" fill="#357C05"/>
<path d="M800.31 435.347C826.98 350.035 733.388 326.214 683.879 323.578C629.384 323.578 556.684 344.564 550.7 408.847C543.221 489.201 628.917 461.633 663.751 456.076C698.585 450.52 773.169 497.749 800.31 435.347Z" fill="#357C05"/>
<path d="M762.474 398.411C737.886 386.886 706.385 359.4 722.92 342.577C552.301 306.017 553.157 462.987 599.553 450.867C636.67 441.17 678.733 446.826 695.125 450.867C817.936 458.02 787.062 409.935 762.474 398.411Z" fill="#5AAF21"/>
<ellipse cx="20.4914" cy="11.5593" rx="20.4914" ry="11.5593" transform="matrix(-0.810963 -0.585097 -0.585097 0.810963 769.148 367.859)" fill="#B7D7A3"/>
<ellipse cx="9.22627" cy="7.36985" rx="9.22627" ry="7.36985" transform="matrix(-0.236283 -0.971684 -0.971684 0.236283 773.422 407.544)" fill="#B7D7A3"/>
<path d="M645.626 400.513C638.431 395.312 618.485 385.382 596.26 387.263" stroke="#282828" stroke-width="2.34477"/>
<path d="M695.852 401.58C704.153 396.912 726.925 388.373 751.612 391.562" stroke="#282828" stroke-width="2.34477"/>
<path d="M640.283 387.69C637.434 386.408 630.709 383.715 626.606 383.202" stroke="#282828" stroke-width="2.34477"/>
<path d="M693.478 392.392C696.039 391.244 702.063 388.87 705.678 388.552" stroke="#282828" stroke-width="2.34477"/>
</svg>
