<svg width="544" height="279" viewBox="0 0 544 279" fill="none" xmlns="http://www.w3.org/2000/svg">
<path d="M435.181 0.405521C434.541 0.53783 432.93 0.77599 431.627 0.934757C420.445 2.3902 409.807 8.00022 402.344 16.3888C401.349 17.5002 400.425 18.3999 400.283 18.3999C400.141 18.3999 399.051 17.9236 397.89 17.3414C393.175 15.0392 387.868 13.4515 382.23 12.6841C377.989 12.1019 370.573 12.2871 366.475 13.081C355.316 15.2245 346.076 20.3317 338.992 28.3233C332.501 35.627 328.923 44.5448 328.592 54.2036C328.544 55.7648 328.473 57.088 328.426 57.1409C328.378 57.1938 327.099 57.5643 325.606 57.9612C316.272 60.5016 307.459 65.9793 301.654 72.8331C296.774 78.6019 293.409 85.8791 292.296 93.0239C291.704 96.9139 291.941 103.873 292.793 107.525C294.476 114.75 297.295 120.148 302.389 125.864C306.511 130.495 309.875 133.167 315.182 135.999C318.215 137.613 321.65 138.989 325.346 140.074L327.81 140.789L327.857 145.022C327.928 151.347 328.805 155.502 331.316 161.165C336.244 172.332 346.858 181.435 359.462 185.351C365.053 187.098 368.56 187.6 374.885 187.6C380.619 187.6 383.462 187.256 388.153 186.013C393.341 184.637 399.003 182.043 403.268 179.08C404.358 178.312 405.329 177.704 405.424 177.704C405.519 177.704 406.419 178.418 407.461 179.291C412.342 183.472 418.786 186.939 425.207 188.844C433.001 191.12 442.502 191.411 450.58 189.585C464.132 186.542 475.551 177.995 481.759 166.245C482.185 165.425 482.659 164.737 482.801 164.737C482.943 164.737 484.009 164.975 485.17 165.24C496.874 168.098 510.141 166.219 520.826 160.238C531.606 154.205 539.14 144.705 542.054 133.511C543.855 126.605 543.855 120.571 542.031 113.532C540.419 107.367 536.96 100.989 532.696 96.3317C532.033 95.6172 531.488 94.9292 531.488 94.8233C531.488 94.7175 531.985 93.6325 532.577 92.4417C538.619 80.269 538.192 66.4821 531.393 54.7857C526.204 45.8679 517.652 38.8554 507.417 35.0977C501.21 32.8219 496.945 32.081 489.695 32.0281L484.294 32.0016L483.488 29.8052C479.958 20.0141 472.235 11.361 462.379 6.17432C459.204 4.50719 453.755 2.46958 450.462 1.72864C444.918 0.511372 438.047 -0.097271 435.181 0.405521Z" fill="#357C05"/>
<path d="M308.605 147.677C305.084 148.839 302.107 152.697 300.991 157.497C300.547 159.404 300.404 162.648 300.676 164.73C301.034 167.602 302.265 170.67 303.853 172.709C308.361 178.539 315.488 177.882 319.424 171.306C320.454 169.574 321.341 166.966 321.642 164.774C322.687 157.146 319.323 149.781 313.914 147.765C312.554 147.283 309.95 147.217 308.605 147.677Z" fill="#357C05"/>
<path d="M282.329 185.597C280.984 186.123 279.796 187.175 278.766 188.753C277.206 191.142 276.49 193.794 276.49 197.28C276.49 200.787 277.32 203.724 278.995 206.047C283.431 212.272 290.486 208.699 291.731 199.625C291.846 198.77 291.946 197.696 291.946 197.214C291.946 193.488 290.529 189.432 288.483 187.284C286.851 185.575 284.232 184.851 282.329 185.597Z" fill="#357C05"/>
<path d="M3.27008 147.858C22.9185 93.4213 128.486 36.4199 268.611 159.119C422.718 294.061 -43.1597 345.036 3.27008 147.858Z" fill="#357C05"/>
<path d="M204.924 148.333C150.868 117.038 136.172 151.891 110.484 155.447C84.7965 159.003 41.139 138.456 26.3208 175.007C11.5027 211.559 159.881 294.737 240.491 247.122C304.979 209.03 263.277 190.418 234.366 185.874C227.25 161.967 216.252 156.829 204.924 148.333Z" fill="#5AAF21"/>
<ellipse cx="31.8032" cy="137.918" rx="12.4471" ry="10.8665" transform="rotate(-11.8696 31.8032 137.918)" fill="#B7D7A3"/>
<ellipse cx="92.2594" cy="138.314" rx="12.4471" ry="10.8665" transform="rotate(-11.8696 92.2594 138.314)" fill="#5AAF21"/>
<path d="M90.6461 141.023C70.9546 143.789 36.5899 141.853 56.6634 111.98C81.7553 74.6385 175.01 126.008 90.6461 141.023Z" fill="#B7D7A3" stroke="#B7D7A3"/>
<path d="M195.355 195.711C208.354 189.782 237.942 179.686 252.295 186.737" stroke="black" stroke-width="3"/>
<path d="M31.6112 183.996C43.8608 178.003 78.0805 170.64 116.963 189.133" stroke="black" stroke-width="3"/>
<path d="M198.957 182.811C203.238 179.913 214.17 174.987 223.654 178.465" stroke="black" stroke-width="3"/>
<path d="M73.4975 165.425C80.2809 166.94 95.0725 171.313 99.9723 176.687" stroke="black" stroke-width="3"/>
</svg>
