<svg width="606" height="460" viewBox="0 0 606 460" fill="none" xmlns="http://www.w3.org/2000/svg">
<path d="M474.556 1.03716C473.782 1.19739 471.831 1.48582 470.252 1.67812C456.709 3.4408 443.826 10.2351 434.788 20.3945C433.583 21.7406 432.464 22.8302 432.291 22.8302C432.119 22.8302 430.799 22.2534 429.393 21.5483C423.683 18.7601 417.256 16.8371 410.427 15.9077C405.291 15.2027 396.31 15.427 391.346 16.3885C377.832 18.9844 366.642 25.1698 358.062 34.8485C350.2 43.6939 345.868 54.4943 345.466 66.1921C345.409 68.083 345.323 69.6854 345.265 69.7495C345.208 69.8136 343.658 70.2623 341.851 70.743C330.546 73.8197 319.872 80.4538 312.842 88.7543C306.931 95.741 302.857 104.554 301.508 113.207C300.791 117.919 301.078 126.347 302.111 130.77C304.148 139.519 307.562 146.057 313.731 152.98C318.724 158.588 322.798 161.825 329.226 165.255C332.898 167.21 337.059 168.876 341.535 170.19L344.519 171.055L344.577 176.183C344.663 183.843 345.724 188.874 348.766 195.733C354.734 209.257 367.588 220.282 382.853 225.025C389.625 227.141 393.871 227.749 401.532 227.749C408.476 227.749 411.919 227.333 417.601 225.827C423.884 224.16 430.742 221.019 435.907 217.43C437.227 216.5 438.403 215.763 438.518 215.763C438.633 215.763 439.723 216.629 440.985 217.686C446.896 222.75 454.701 226.948 462.477 229.256C471.917 232.012 483.423 232.364 493.207 230.153C509.619 226.467 523.449 216.116 530.967 201.886C531.484 200.893 532.057 200.059 532.23 200.059C532.402 200.059 533.693 200.348 535.099 200.668C549.273 204.13 565.341 201.854 578.282 194.611C591.337 187.304 600.462 175.799 603.991 162.242C606.172 153.877 606.172 146.57 603.962 138.045C602.011 130.578 597.822 122.854 592.657 117.214C591.854 116.348 591.194 115.515 591.194 115.387C591.194 115.259 591.796 113.945 592.514 112.502C599.831 97.76 599.314 81.0627 591.079 66.8972C584.795 56.0968 574.437 47.6039 562.042 43.0529C554.524 40.2968 549.359 39.3994 540.579 39.3353L534.037 39.3033L533.062 36.6432C528.786 24.7852 519.432 14.3053 507.496 8.02376C503.651 6.0047 497.052 3.53694 493.063 2.63959C486.349 1.16534 478.028 0.428223 474.556 1.03716Z" fill="#357C05"/>
<path d="M321.258 179.398C316.995 180.805 313.39 185.477 312.038 191.291C311.501 193.6 311.327 197.529 311.656 200.051C312.09 203.529 313.58 207.245 315.504 209.714C320.964 216.775 329.595 215.979 334.362 208.015C335.609 205.918 336.684 202.759 337.048 200.104C338.313 190.866 334.24 181.947 327.689 179.504C326.042 178.92 322.888 178.841 321.258 179.398Z" fill="#357C05"/>
<path d="M289.438 225.323C287.808 225.96 286.37 227.234 285.122 229.145C283.233 232.039 282.366 235.251 282.366 239.472C282.366 243.719 283.371 247.276 285.399 250.09C290.772 257.629 299.317 253.302 300.825 242.312C300.963 241.277 301.085 239.976 301.085 239.392C301.085 234.879 299.369 229.968 296.89 227.367C294.915 225.296 291.743 224.42 289.438 225.323Z" fill="#357C05"/>
<path d="M264.878 273.505C263.388 273.982 261.811 275.947 261.013 278.283C260.667 279.292 260.615 279.876 260.615 282.132C260.615 284.389 260.684 284.946 261.013 285.928C262.712 290.786 266.612 292.379 269.471 289.353C271.066 287.654 272.071 284.442 271.933 281.495C271.846 279.743 271.205 277.46 270.425 276.08C269.246 274.036 266.785 272.894 264.878 273.505Z" fill="#357C05"/>
<path d="M250.908 310.377C249.469 310.935 248.395 312.554 247.927 314.864C247.649 316.191 247.649 316.35 247.927 317.518C248.516 319.961 249.261 321.102 250.856 322.005C251.618 322.429 251.722 322.429 252.589 322.005C255.345 320.677 256.419 316.35 254.877 312.74C254.132 310.961 252.26 309.846 250.908 310.377Z" fill="#357C05"/>
<path d="M30.6013 327.216C-1.95936 393.525 21.4275 417.282 47.4406 420.15C56.0862 421.869 63.7093 404.001 83.846 417.59C104.489 443.418 102.087 429.492 140.511 435.428C195.338 467.491 179.745 432.668 183.891 431.013C203.408 410.543 220.487 431.166 222.064 428.327C270.543 426.736 271.391 311.886 276.159 303.577C280.926 295.267 277.813 297.142 281.948 275.125C286.082 253.108 263.787 270.887 254.233 274.655C264.732 249.74 260.391 241.348 261.599 233.27C262.806 225.191 245.401 233.225 236.842 239.504C271.573 181.205 266.207 151.805 255.236 157.976C244.266 164.147 192.484 192.241 147.683 234.409C171.315 182.55 121.768 229.563 94.0404 259.552C103.888 217.756 73.8897 250.815 57.6598 272.569C58.0712 233.983 39.7922 292.923 30.6013 327.216Z" fill="#357C05"/>
<path d="M201.908 400.409C174.595 383.779 157.071 403.563 127.527 398.366C21.5012 390.82 50.1158 363.344 52.3672 360.003C84.8446 340.986 56.1668 332.483 89.8485 316.446C157.599 249.48 180.106 286.664 203.962 308.418C299.831 272.575 236.048 421.196 201.908 400.409Z" fill="#5AAF21"/>
<path d="M171.878 366.628L238.312 336.493" stroke="#282828" stroke-width="3"/>
<path d="M177.708 348.486L207.5 337.752" stroke="#282828" stroke-width="3"/>
<path d="M121.083 361.563L61.4049 331.206" stroke="#282828" stroke-width="3"/>
<path d="M114.096 337.956L90.5232 320.972" stroke="#282828" stroke-width="3"/>
<path d="M215.052 289.825C206.155 301.363 198.508 323.272 233.316 317.186C276.826 309.578 235.986 264.253 215.052 289.825Z" fill="#B7D7A3"/>
<path d="M184.338 252.968C166.132 264.729 175.591 289.438 208.869 265.636C250.466 235.883 196.393 242.572 184.338 252.968Z" fill="#5AAF21"/>
<path d="M83.9215 267.362C65.9311 279.237 42.5752 306.736 93.0743 321.735C156.198 340.483 134.973 225.578 83.9215 267.362Z" fill="#B7D7A3"/>
</svg>
