<svg width="415" height="448" viewBox="0 0 415 448" fill="none" xmlns="http://www.w3.org/2000/svg">
<rect x="5.87719" y="5.95507" width="403.383" height="436.562" fill="#F5F5FA" stroke="#5AAF21" stroke-width="10.9141"/>
<mask id="mask0_112_5" style="mask-type:alpha" maskUnits="userSpaceOnUse" x="10" y="6" width="395" height="433">
<rect x="10" y="6" width="395" height="433" fill="#F5F5FA"/>
</mask>
<g mask="url(#mask0_112_5)">
<path d="M324.75 -44L279.75 -44L279.75 23.599L324.75 23.599L324.75 -44ZM324.75 -44L324.75 -32.7335L313.5 -32.7335L313.5 -21.467L324.75 -21.467L324.75 -10.2005L313.5 -10.2005L313.5 1.06603L324.75 1.06603L324.75 12.3325L313.5 12.3325L313.5 23.599L302.25 23.599L302.25 12.3325L291 12.3325L291 23.599L279.75 23.599L279.75 12.3325L291 12.3325L291 1.06603L279.75 1.06603L279.75 -10.2005L291 -10.2005L291 -21.467L279.75 -21.467L279.75 -32.7335L291 -32.7335L291 -44L302.25 -44L302.25 -32.7335L313.5 -32.7335L313.5 -44L324.75 -44ZM302.25 -32.7335L291 -32.7335L291 -21.467L302.25 -21.467L302.25 -32.7335ZM302.25 -21.467L302.25 -10.2005L313.5 -10.2005L313.5 -21.467L302.25 -21.467ZM302.25 -10.2005L291 -10.2005L291 1.06603L302.25 1.06603L302.25 -10.2005ZM302.25 1.06603L302.25 12.3325L313.5 12.3325L313.5 1.06603L302.25 1.06603Z" fill="#5AAF21" fill-opacity="0.5"/>
<path d="M279.75 -44L234.75 -44L234.75 23.599L279.75 23.599L279.75 -44ZM279.75 -44L279.75 -32.7335L268.5 -32.7335L268.5 -21.467L279.75 -21.467L279.75 -10.2005L268.5 -10.2005L268.5 1.06603L279.75 1.06603L279.75 12.3325L268.5 12.3325L268.5 23.599L257.25 23.599L257.25 12.3325L246 12.3325L246 23.599L234.75 23.599L234.75 12.3325L246 12.3325L246 1.06603L234.75 1.06603L234.75 -10.2005L246 -10.2005L246 -21.467L234.75 -21.467L234.75 -32.7335L246 -32.7335L246 -44L257.25 -44L257.25 -32.7335L268.5 -32.7335L268.5 -44L279.75 -44ZM257.25 -32.7335L246 -32.7335L246 -21.467L257.25 -21.467L257.25 -32.7335ZM257.25 -21.467L257.25 -10.2005L268.5 -10.2005L268.5 -21.467L257.25 -21.467ZM257.25 -10.2005L246 -10.2005L246 1.06603L257.25 1.06603L257.25 -10.2005ZM257.25 1.06603L257.25 12.3325L268.5 12.3325L268.5 1.06603L257.25 1.06603Z" fill="#5AAF21" fill-opacity="0.5"/>
<path d="M234.75 -44L189.75 -44L189.75 23.599L234.75 23.599L234.75 -44ZM234.75 -44L234.75 -32.7335L223.5 -32.7335L223.5 -21.467L234.75 -21.467L234.75 -10.2005L223.5 -10.2005L223.5 1.06603L234.75 1.06603L234.75 12.3325L223.5 12.3325L223.5 23.599L212.25 23.599L212.25 12.3325L201 12.3325L201 23.599L189.75 23.599L189.75 12.3325L201 12.3325L201 1.06603L189.75 1.06603L189.75 -10.2005L201 -10.2005L201 -21.467L189.75 -21.467L189.75 -32.7335L201 -32.7335L201 -44L212.25 -44L212.25 -32.7335L223.5 -32.7335L223.5 -44L234.75 -44ZM212.25 -32.7335L201 -32.7335L201 -21.467L212.25 -21.467L212.25 -32.7335ZM212.25 -21.467L212.25 -10.2005L223.5 -10.2005L223.5 -21.467L212.25 -21.467ZM212.25 -10.2005L201 -10.2005L201 1.06603L212.25 1.06603L212.25 -10.2005ZM212.25 1.06603L212.25 12.3325L223.5 12.3325L223.5 1.06603L212.25 1.06603Z" fill="#5AAF21" fill-opacity="0.5"/>
<path d="M189.75 -44L144.75 -44L144.75 23.599L189.75 23.599L189.75 -44ZM189.75 -44L189.75 -32.7335L178.5 -32.7335L178.5 -21.467L189.75 -21.467L189.75 -10.2005L178.5 -10.2005L178.5 1.06603L189.75 1.06603L189.75 12.3325L178.5 12.3325L178.5 23.599L167.25 23.599L167.25 12.3325L156 12.3325L156 23.599L144.75 23.599L144.75 12.3325L156 12.3325L156 1.06603L144.75 1.06603L144.75 -10.2005L156 -10.2005L156 -21.467L144.75 -21.467L144.75 -32.7335L156 -32.7335L156 -44L167.25 -44L167.25 -32.7335L178.5 -32.7335L178.5 -44L189.75 -44ZM167.25 -32.7335L156 -32.7335L156 -21.467L167.25 -21.467L167.25 -32.7335ZM167.25 -21.467L167.25 -10.2005L178.5 -10.2005L178.5 -21.467L167.25 -21.467ZM167.25 -10.2005L156 -10.2005L156 1.06603L167.25 1.06603L167.25 -10.2005ZM167.25 1.06603L167.25 12.3325L178.5 12.3325L178.5 1.06603L167.25 1.06603Z" fill="#5AAF21" fill-opacity="0.5"/>
<path d="M144.75 -44L99.75 -44L99.75 23.599L144.75 23.599L144.75 -44ZM144.75 -44L144.75 -32.7335L133.5 -32.7335L133.5 -21.467L144.75 -21.467L144.75 -10.2005L133.5 -10.2005L133.5 1.06603L144.75 1.06603L144.75 12.3325L133.5 12.3325L133.5 23.599L122.25 23.599L122.25 12.3325L111 12.3325L111 23.599L99.75 23.599L99.75 12.3325L111 12.3325L111 1.06603L99.75 1.06603L99.75 -10.2005L111 -10.2005L111 -21.467L99.75 -21.467L99.75 -32.7335L111 -32.7335L111 -44L122.25 -44L122.25 -32.7335L133.5 -32.7335L133.5 -44L144.75 -44ZM122.25 -32.7335L111 -32.7335L111 -21.467L122.25 -21.467L122.25 -32.7335ZM122.25 -21.467L122.25 -10.2005L133.5 -10.2005L133.5 -21.467L122.25 -21.467ZM122.25 -10.2005L111 -10.2005L111 1.06603L122.25 1.06603L122.25 -10.2005ZM122.25 1.06603L122.25 12.3325L133.5 12.3325L133.5 1.06603L122.25 1.06603Z" fill="#5AAF21" fill-opacity="0.5"/>
<path d="M99.75 -44L54.75 -44L54.75 23.599L99.75 23.599L99.75 -44ZM99.75 -44L99.75 -32.7335L88.5 -32.7335L88.5 -21.467L99.75 -21.467L99.75 -10.2005L88.5 -10.2005L88.5 1.06603L99.75 1.06603L99.75 12.3325L88.5 12.3325L88.5 23.599L77.25 23.599L77.25 12.3325L66 12.3325L66 23.599L54.75 23.599L54.75 12.3325L66 12.3325L66 1.06603L54.75 1.06603L54.75 -10.2005L66 -10.2005L66 -21.467L54.75 -21.467L54.75 -32.7335L66 -32.7335L66 -44L77.25 -44L77.25 -32.7335L88.5 -32.7335L88.5 -44L99.75 -44ZM77.25 -32.7335L66 -32.7335L66 -21.467L77.25 -21.467L77.25 -32.7335ZM77.25 -21.467L77.25 -10.2005L88.5 -10.2005L88.5 -21.467L77.25 -21.467ZM77.25 -10.2005L66 -10.2005L66 1.06603L77.25 1.06603L77.25 -10.2005ZM77.25 1.06603L77.25 12.3325L88.5 12.3325L88.5 1.06603L77.25 1.06603Z" fill="#5AAF21" fill-opacity="0.5"/>
<path d="M54.75 -44L9.74997 -44L9.74997 23.599L54.75 23.599L54.75 -44ZM54.75 -44L54.75 -32.7335L43.5 -32.7335L43.5 -21.467L54.75 -21.467L54.75 -10.2005L43.5 -10.2005L43.5 1.06603L54.75 1.06603L54.75 12.3325L43.5 12.3325L43.5 23.599L32.25 23.599L32.25 12.3325L21 12.3325L21 23.599L9.74997 23.599L9.74997 12.3325L21 12.3325L21 1.06603L9.74997 1.06603L9.74997 -10.2005L21 -10.2005L21 -21.467L9.74997 -21.467L9.74997 -32.7335L21 -32.7335L21 -44L32.25 -44L32.25 -32.7335L43.5 -32.7335L43.5 -44L54.75 -44ZM32.25 -32.7335L21 -32.7335L21 -21.467L32.25 -21.467L32.25 -32.7335ZM32.25 -21.467L32.25 -10.2005L43.5 -10.2005L43.5 -21.467L32.25 -21.467ZM32.25 -10.2005L21 -10.2005L21 1.06603L32.25 1.06603L32.25 -10.2005ZM32.25 1.06603L32.25 12.3325L43.5 12.3325L43.5 1.06603L32.25 1.06603Z" fill="#5AAF21" fill-opacity="0.5"/>
<path d="M324.75 23.0981L279.75 23.0981L279.75 90.6972L324.75 90.6972L324.75 23.0981ZM324.75 23.0981L324.75 34.3647L313.5 34.3647L313.5 45.6312L324.75 45.6312L324.75 56.8977L313.5 56.8977L313.5 68.1642L324.75 68.1642L324.75 79.4307L313.5 79.4307L313.5 90.6972L302.25 90.6972L302.25 79.4307L291 79.4307L291 90.6972L279.75 90.6972L279.75 79.4307L291 79.4307L291 68.1642L279.75 68.1642L279.75 56.8977L291 56.8977L291 45.6312L279.75 45.6312L279.75 34.3646L291 34.3647L291 23.0981L302.25 23.0981L302.25 34.3647L313.5 34.3647L313.5 23.0981L324.75 23.0981ZM302.25 34.3647L291 34.3647L291 45.6312L302.25 45.6312L302.25 34.3647ZM302.25 45.6312L302.25 56.8977L313.5 56.8977L313.5 45.6312L302.25 45.6312ZM302.25 56.8977L291 56.8977L291 68.1642L302.25 68.1642L302.25 56.8977ZM302.25 68.1642L302.25 79.4307L313.5 79.4307L313.5 68.1642L302.25 68.1642Z" fill="#5AAF21" fill-opacity="0.5"/>
<path d="M279.75 23.0981L234.75 23.0981L234.75 90.6972L279.75 90.6972L279.75 23.0981ZM279.75 23.0981L279.75 34.3647L268.5 34.3647L268.5 45.6312L279.75 45.6312L279.75 56.8977L268.5 56.8977L268.5 68.1642L279.75 68.1642L279.75 79.4307L268.5 79.4307L268.5 90.6972L257.25 90.6972L257.25 79.4307L246 79.4307L246 90.6972L234.75 90.6972L234.75 79.4307L246 79.4307L246 68.1642L234.75 68.1642L234.75 56.8977L246 56.8977L246 45.6312L234.75 45.6312L234.75 34.3646L246 34.3647L246 23.0981L257.25 23.0981L257.25 34.3647L268.5 34.3647L268.5 23.0981L279.75 23.0981ZM257.25 34.3647L246 34.3647L246 45.6312L257.25 45.6312L257.25 34.3647ZM257.25 45.6312L257.25 56.8977L268.5 56.8977L268.5 45.6312L257.25 45.6312ZM257.25 56.8977L246 56.8977L246 68.1642L257.25 68.1642L257.25 56.8977ZM257.25 68.1642L257.25 79.4307L268.5 79.4307L268.5 68.1642L257.25 68.1642Z" fill="#5AAF21" fill-opacity="0.5"/>
<path d="M234.75 23.0981L189.75 23.0981L189.75 90.6972L234.75 90.6972L234.75 23.0981ZM234.75 23.0981L234.75 34.3647L223.5 34.3647L223.5 45.6312L234.75 45.6312L234.75 56.8977L223.5 56.8977L223.5 68.1642L234.75 68.1642L234.75 79.4307L223.5 79.4307L223.5 90.6972L212.25 90.6972L212.25 79.4307L201 79.4307L201 90.6972L189.75 90.6972L189.75 79.4307L201 79.4307L201 68.1642L189.75 68.1642L189.75 56.8977L201 56.8977L201 45.6312L189.75 45.6312L189.75 34.3646L201 34.3647L201 23.0981L212.25 23.0981L212.25 34.3647L223.5 34.3647L223.5 23.0981L234.75 23.0981ZM212.25 34.3647L201 34.3647L201 45.6312L212.25 45.6312L212.25 34.3647ZM212.25 45.6312L212.25 56.8977L223.5 56.8977L223.5 45.6312L212.25 45.6312ZM212.25 56.8977L201 56.8977L201 68.1642L212.25 68.1642L212.25 56.8977ZM212.25 68.1642L212.25 79.4307L223.5 79.4307L223.5 68.1642L212.25 68.1642Z" fill="#5AAF21" fill-opacity="0.5"/>
<path d="M189.75 23.0981L144.75 23.0981L144.75 90.6972L189.75 90.6972L189.75 23.0981ZM189.75 23.0981L189.75 34.3647L178.5 34.3647L178.5 45.6312L189.75 45.6312L189.75 56.8977L178.5 56.8977L178.5 68.1642L189.75 68.1642L189.75 79.4307L178.5 79.4307L178.5 90.6972L167.25 90.6972L167.25 79.4307L156 79.4307L156 90.6972L144.75 90.6972L144.75 79.4307L156 79.4307L156 68.1642L144.75 68.1642L144.75 56.8977L156 56.8977L156 45.6312L144.75 45.6312L144.75 34.3646L156 34.3647L156 23.0981L167.25 23.0981L167.25 34.3647L178.5 34.3647L178.5 23.0981L189.75 23.0981ZM167.25 34.3647L156 34.3647L156 45.6312L167.25 45.6312L167.25 34.3647ZM167.25 45.6312L167.25 56.8977L178.5 56.8977L178.5 45.6312L167.25 45.6312ZM167.25 56.8977L156 56.8977L156 68.1642L167.25 68.1642L167.25 56.8977ZM167.25 68.1642L167.25 79.4307L178.5 79.4307L178.5 68.1642L167.25 68.1642Z" fill="#5AAF21" fill-opacity="0.5"/>
<path d="M144.75 23.0981L99.75 23.0981L99.75 90.6972L144.75 90.6972L144.75 23.0981ZM144.75 23.0981L144.75 34.3647L133.5 34.3647L133.5 45.6312L144.75 45.6312L144.75 56.8977L133.5 56.8977L133.5 68.1642L144.75 68.1642L144.75 79.4307L133.5 79.4307L133.5 90.6972L122.25 90.6972L122.25 79.4307L111 79.4307L111 90.6972L99.75 90.6972L99.75 79.4307L111 79.4307L111 68.1642L99.75 68.1642L99.75 56.8977L111 56.8977L111 45.6312L99.75 45.6312L99.75 34.3646L111 34.3647L111 23.0981L122.25 23.0981L122.25 34.3647L133.5 34.3647L133.5 23.0981L144.75 23.0981ZM122.25 34.3647L111 34.3647L111 45.6312L122.25 45.6312L122.25 34.3647ZM122.25 45.6312L122.25 56.8977L133.5 56.8977L133.5 45.6312L122.25 45.6312ZM122.25 56.8977L111 56.8977L111 68.1642L122.25 68.1642L122.25 56.8977ZM122.25 68.1642L122.25 79.4307L133.5 79.4307L133.5 68.1642L122.25 68.1642Z" fill="#5AAF21" fill-opacity="0.5"/>
<path d="M99.75 23.0981L54.75 23.0981L54.75 90.6972L99.75 90.6972L99.75 23.0981ZM99.75 23.0981L99.75 34.3647L88.5 34.3647L88.5 45.6312L99.75 45.6312L99.75 56.8977L88.5 56.8977L88.5 68.1642L99.75 68.1642L99.75 79.4307L88.5 79.4307L88.5 90.6972L77.25 90.6972L77.25 79.4307L66 79.4307L66 90.6972L54.75 90.6972L54.75 79.4307L66 79.4307L66 68.1642L54.75 68.1642L54.75 56.8977L66 56.8977L66 45.6312L54.75 45.6312L54.75 34.3646L66 34.3647L66 23.0981L77.25 23.0981L77.25 34.3647L88.5 34.3647L88.5 23.0981L99.75 23.0981ZM77.25 34.3647L66 34.3647L66 45.6312L77.25 45.6312L77.25 34.3647ZM77.25 45.6312L77.25 56.8977L88.5 56.8977L88.5 45.6312L77.25 45.6312ZM77.25 56.8977L66 56.8977L66 68.1642L77.25 68.1642L77.25 56.8977ZM77.25 68.1642L77.25 79.4307L88.5 79.4307L88.5 68.1642L77.25 68.1642Z" fill="#5AAF21" fill-opacity="0.5"/>
<path d="M54.75 23.0981L9.74997 23.0981L9.74997 90.6972L54.75 90.6972L54.75 23.0981ZM54.75 23.0981L54.75 34.3647L43.5 34.3647L43.5 45.6312L54.75 45.6312L54.75 56.8977L43.5 56.8977L43.5 68.1642L54.75 68.1642L54.75 79.4307L43.5 79.4307L43.5 90.6972L32.25 90.6972L32.25 79.4307L21 79.4307L21 90.6972L9.74997 90.6972L9.74997 79.4307L21 79.4307L21 68.1642L9.74997 68.1642L9.74997 56.8977L21 56.8977L21 45.6312L9.74997 45.6312L9.74997 34.3646L21 34.3647L21 23.0981L32.25 23.0981L32.25 34.3647L43.5 34.3647L43.5 23.0981L54.75 23.0981ZM32.25 34.3647L21 34.3647L21 45.6312L32.25 45.6312L32.25 34.3647ZM32.25 45.6312L32.25 56.8977L43.5 56.8977L43.5 45.6312L32.25 45.6312ZM32.25 56.8977L21 56.8977L21 68.1642L32.25 68.1642L32.25 56.8977ZM32.25 68.1642L32.25 79.4307L43.5 79.4307L43.5 68.1642L32.25 68.1642Z" fill="#5AAF21" fill-opacity="0.5"/>
<path d="M324.75 90.1968L279.75 90.1968L279.75 157.796L324.75 157.796L324.75 90.1968ZM324.75 90.1968L324.75 101.463L313.5 101.463L313.5 112.73L324.75 112.73L324.75 123.996L313.5 123.996L313.5 135.263L324.75 135.263L324.75 146.529L313.5 146.529L313.5 157.796L302.25 157.796L302.25 146.529L291 146.529L291 157.796L279.75 157.796L279.75 146.529L291 146.529L291 135.263L279.75 135.263L279.75 123.996L291 123.996L291 112.73L279.75 112.73L279.75 101.463L291 101.463L291 90.1968L302.25 90.1968L302.25 101.463L313.5 101.463L313.5 90.1968L324.75 90.1968ZM302.25 101.463L291 101.463L291 112.73L302.25 112.73L302.25 101.463ZM302.25 112.73L302.25 123.996L313.5 123.996L313.5 112.73L302.25 112.73ZM302.25 123.996L291 123.996L291 135.263L302.25 135.263L302.25 123.996ZM302.25 135.263L302.25 146.529L313.5 146.529L313.5 135.263L302.25 135.263Z" fill="#5AAF21" fill-opacity="0.5"/>
<path d="M279.75 90.1968L234.75 90.1968L234.75 157.796L279.75 157.796L279.75 90.1968ZM279.75 90.1968L279.75 101.463L268.5 101.463L268.5 112.73L279.75 112.73L279.75 123.996L268.5 123.996L268.5 135.263L279.75 135.263L279.75 146.529L268.5 146.529L268.5 157.796L257.25 157.796L257.25 146.529L246 146.529L246 157.796L234.75 157.796L234.75 146.529L246 146.529L246 135.263L234.75 135.263L234.75 123.996L246 123.996L246 112.73L234.75 112.73L234.75 101.463L246 101.463L246 90.1968L257.25 90.1968L257.25 101.463L268.5 101.463L268.5 90.1968L279.75 90.1968ZM257.25 101.463L246 101.463L246 112.73L257.25 112.73L257.25 101.463ZM257.25 112.73L257.25 123.996L268.5 123.996L268.5 112.73L257.25 112.73ZM257.25 123.996L246 123.996L246 135.263L257.25 135.263L257.25 123.996ZM257.25 135.263L257.25 146.529L268.5 146.529L268.5 135.263L257.25 135.263Z" fill="#5AAF21" fill-opacity="0.5"/>
<path d="M234.75 90.1968L189.75 90.1968L189.75 157.796L234.75 157.796L234.75 90.1968ZM234.75 90.1968L234.75 101.463L223.5 101.463L223.5 112.73L234.75 112.73L234.75 123.996L223.5 123.996L223.5 135.263L234.75 135.263L234.75 146.529L223.5 146.529L223.5 157.796L212.25 157.796L212.25 146.529L201 146.529L201 157.796L189.75 157.796L189.75 146.529L201 146.529L201 135.263L189.75 135.263L189.75 123.996L201 123.996L201 112.73L189.75 112.73L189.75 101.463L201 101.463L201 90.1968L212.25 90.1968L212.25 101.463L223.5 101.463L223.5 90.1968L234.75 90.1968ZM212.25 101.463L201 101.463L201 112.73L212.25 112.73L212.25 101.463ZM212.25 112.73L212.25 123.996L223.5 123.996L223.5 112.73L212.25 112.73ZM212.25 123.996L201 123.996L201 135.263L212.25 135.263L212.25 123.996ZM212.25 135.263L212.25 146.529L223.5 146.529L223.5 135.263L212.25 135.263Z" fill="#5AAF21" fill-opacity="0.5"/>
<path d="M189.75 90.1968L144.75 90.1968L144.75 157.796L189.75 157.796L189.75 90.1968ZM189.75 90.1968L189.75 101.463L178.5 101.463L178.5 112.73L189.75 112.73L189.75 123.996L178.5 123.996L178.5 135.263L189.75 135.263L189.75 146.529L178.5 146.529L178.5 157.796L167.25 157.796L167.25 146.529L156 146.529L156 157.796L144.75 157.796L144.75 146.529L156 146.529L156 135.263L144.75 135.263L144.75 123.996L156 123.996L156 112.73L144.75 112.73L144.75 101.463L156 101.463L156 90.1968L167.25 90.1968L167.25 101.463L178.5 101.463L178.5 90.1968L189.75 90.1968ZM167.25 101.463L156 101.463L156 112.73L167.25 112.73L167.25 101.463ZM167.25 112.73L167.25 123.996L178.5 123.996L178.5 112.73L167.25 112.73ZM167.25 123.996L156 123.996L156 135.263L167.25 135.263L167.25 123.996ZM167.25 135.263L167.25 146.529L178.5 146.529L178.5 135.263L167.25 135.263Z" fill="#5AAF21" fill-opacity="0.5"/>
<path d="M144.75 90.1968L99.75 90.1968L99.75 157.796L144.75 157.796L144.75 90.1968ZM144.75 90.1968L144.75 101.463L133.5 101.463L133.5 112.73L144.75 112.73L144.75 123.996L133.5 123.996L133.5 135.263L144.75 135.263L144.75 146.529L133.5 146.529L133.5 157.796L122.25 157.796L122.25 146.529L111 146.529L111 157.796L99.75 157.796L99.75 146.529L111 146.529L111 135.263L99.75 135.263L99.75 123.996L111 123.996L111 112.73L99.75 112.73L99.75 101.463L111 101.463L111 90.1968L122.25 90.1968L122.25 101.463L133.5 101.463L133.5 90.1968L144.75 90.1968ZM122.25 101.463L111 101.463L111 112.73L122.25 112.73L122.25 101.463ZM122.25 112.73L122.25 123.996L133.5 123.996L133.5 112.73L122.25 112.73ZM122.25 123.996L111 123.996L111 135.263L122.25 135.263L122.25 123.996ZM122.25 135.263L122.25 146.529L133.5 146.529L133.5 135.263L122.25 135.263Z" fill="#5AAF21" fill-opacity="0.5"/>
<path d="M99.75 90.1968L54.75 90.1968L54.75 157.796L99.75 157.796L99.75 90.1968ZM99.75 90.1968L99.75 101.463L88.5 101.463L88.5 112.73L99.75 112.73L99.75 123.996L88.5 123.996L88.5 135.263L99.75 135.263L99.75 146.529L88.5 146.529L88.5 157.796L77.25 157.796L77.25 146.529L66 146.529L66 157.796L54.75 157.796L54.75 146.529L66 146.529L66 135.263L54.75 135.263L54.75 123.996L66 123.996L66 112.73L54.75 112.73L54.75 101.463L66 101.463L66 90.1968L77.25 90.1968L77.25 101.463L88.5 101.463L88.5 90.1968L99.75 90.1968ZM77.25 101.463L66 101.463L66 112.73L77.25 112.73L77.25 101.463ZM77.25 112.73L77.25 123.996L88.5 123.996L88.5 112.73L77.25 112.73ZM77.25 123.996L66 123.996L66 135.263L77.25 135.263L77.25 123.996ZM77.25 135.263L77.25 146.529L88.5 146.529L88.5 135.263L77.25 135.263Z" fill="#5AAF21" fill-opacity="0.5"/>
<path d="M54.75 90.1968L9.74997 90.1968L9.74997 157.796L54.75 157.796L54.75 90.1968ZM54.75 90.1968L54.75 101.463L43.5 101.463L43.5 112.73L54.75 112.73L54.75 123.996L43.5 123.996L43.5 135.263L54.75 135.263L54.75 146.529L43.5 146.529L43.5 157.796L32.25 157.796L32.25 146.529L21 146.529L21 157.796L9.74997 157.796L9.74997 146.529L21 146.529L21 135.263L9.74997 135.263L9.74997 123.996L21 123.996L21 112.73L9.74997 112.73L9.74997 101.463L21 101.463L21 90.1968L32.25 90.1968L32.25 101.463L43.5 101.463L43.5 90.1968L54.75 90.1968ZM32.25 101.463L21 101.463L21 112.73L32.25 112.73L32.25 101.463ZM32.25 112.73L32.25 123.996L43.5 123.996L43.5 112.73L32.25 112.73ZM32.25 123.996L21 123.996L21 135.263L32.25 135.263L32.25 123.996ZM32.25 135.263L32.25 146.529L43.5 146.529L43.5 135.263L32.25 135.263Z" fill="#5AAF21" fill-opacity="0.5"/>
<path d="M324.75 157.295L279.75 157.295L279.75 224.894L324.75 224.894L324.75 157.295ZM324.75 157.295L324.75 168.561L313.5 168.561L313.5 179.828L324.75 179.828L324.75 191.094L313.5 191.094L313.5 202.361L324.75 202.361L324.75 213.627L313.5 213.627L313.5 224.894L302.25 224.894L302.25 213.627L291 213.627L291 224.894L279.75 224.894L279.75 213.627L291 213.627L291 202.361L279.75 202.361L279.75 191.094L291 191.094L291 179.828L279.75 179.828L279.75 168.561L291 168.561L291 157.295L302.25 157.295L302.25 168.561L313.5 168.561L313.5 157.295L324.75 157.295ZM302.25 168.561L291 168.561L291 179.828L302.25 179.828L302.25 168.561ZM302.25 179.828L302.25 191.094L313.5 191.094L313.5 179.828L302.25 179.828ZM302.25 191.094L291 191.094L291 202.361L302.25 202.361L302.25 191.094ZM302.25 202.361L302.25 213.627L313.5 213.627L313.5 202.361L302.25 202.361Z" fill="#5AAF21" fill-opacity="0.5"/>
<path d="M279.75 157.295L234.75 157.295L234.75 224.894L279.75 224.894L279.75 157.295ZM279.75 157.295L279.75 168.561L268.5 168.561L268.5 179.828L279.75 179.828L279.75 191.094L268.5 191.094L268.5 202.361L279.75 202.361L279.75 213.627L268.5 213.627L268.5 224.894L257.25 224.894L257.25 213.627L246 213.627L246 224.894L234.75 224.894L234.75 213.627L246 213.627L246 202.361L234.75 202.361L234.75 191.094L246 191.094L246 179.828L234.75 179.828L234.75 168.561L246 168.561L246 157.295L257.25 157.295L257.25 168.561L268.5 168.561L268.5 157.295L279.75 157.295ZM257.25 168.561L246 168.561L246 179.828L257.25 179.828L257.25 168.561ZM257.25 179.828L257.25 191.094L268.5 191.094L268.5 179.828L257.25 179.828ZM257.25 191.094L246 191.094L246 202.361L257.25 202.361L257.25 191.094ZM257.25 202.361L257.25 213.627L268.5 213.627L268.5 202.361L257.25 202.361Z" fill="#5AAF21" fill-opacity="0.5"/>
<path d="M234.75 157.295L189.75 157.295L189.75 224.894L234.75 224.894L234.75 157.295ZM234.75 157.295L234.75 168.561L223.5 168.561L223.5 179.828L234.75 179.828L234.75 191.094L223.5 191.094L223.5 202.361L234.75 202.361L234.75 213.627L223.5 213.627L223.5 224.894L212.25 224.894L212.25 213.627L201 213.627L201 224.894L189.75 224.894L189.75 213.627L201 213.627L201 202.361L189.75 202.361L189.75 191.094L201 191.094L201 179.828L189.75 179.828L189.75 168.561L201 168.561L201 157.295L212.25 157.295L212.25 168.561L223.5 168.561L223.5 157.295L234.75 157.295ZM212.25 168.561L201 168.561L201 179.828L212.25 179.828L212.25 168.561ZM212.25 179.828L212.25 191.094L223.5 191.094L223.5 179.828L212.25 179.828ZM212.25 191.094L201 191.094L201 202.361L212.25 202.361L212.25 191.094ZM212.25 202.361L212.25 213.627L223.5 213.627L223.5 202.361L212.25 202.361Z" fill="#5AAF21" fill-opacity="0.5"/>
<path d="M189.75 157.295L144.75 157.295L144.75 224.894L189.75 224.894L189.75 157.295ZM189.75 157.295L189.75 168.561L178.5 168.561L178.5 179.828L189.75 179.828L189.75 191.094L178.5 191.094L178.5 202.361L189.75 202.361L189.75 213.627L178.5 213.627L178.5 224.894L167.25 224.894L167.25 213.627L156 213.627L156 224.894L144.75 224.894L144.75 213.627L156 213.627L156 202.361L144.75 202.361L144.75 191.094L156 191.094L156 179.828L144.75 179.828L144.75 168.561L156 168.561L156 157.295L167.25 157.295L167.25 168.561L178.5 168.561L178.5 157.295L189.75 157.295ZM167.25 168.561L156 168.561L156 179.828L167.25 179.828L167.25 168.561ZM167.25 179.828L167.25 191.094L178.5 191.094L178.5 179.828L167.25 179.828ZM167.25 191.094L156 191.094L156 202.361L167.25 202.361L167.25 191.094ZM167.25 202.361L167.25 213.627L178.5 213.627L178.5 202.361L167.25 202.361Z" fill="#5AAF21" fill-opacity="0.5"/>
<path d="M144.75 157.295L99.75 157.295L99.75 224.894L144.75 224.894L144.75 157.295ZM144.75 157.295L144.75 168.561L133.5 168.561L133.5 179.828L144.75 179.828L144.75 191.094L133.5 191.094L133.5 202.361L144.75 202.361L144.75 213.627L133.5 213.627L133.5 224.894L122.25 224.894L122.25 213.627L111 213.627L111 224.894L99.75 224.894L99.75 213.627L111 213.627L111 202.361L99.75 202.361L99.75 191.094L111 191.094L111 179.828L99.75 179.828L99.75 168.561L111 168.561L111 157.295L122.25 157.295L122.25 168.561L133.5 168.561L133.5 157.295L144.75 157.295ZM122.25 168.561L111 168.561L111 179.828L122.25 179.828L122.25 168.561ZM122.25 179.828L122.25 191.094L133.5 191.094L133.5 179.828L122.25 179.828ZM122.25 191.094L111 191.094L111 202.361L122.25 202.361L122.25 191.094ZM122.25 202.361L122.25 213.627L133.5 213.627L133.5 202.361L122.25 202.361Z" fill="#5AAF21" fill-opacity="0.5"/>
<path d="M99.75 157.295L54.75 157.295L54.75 224.894L99.75 224.894L99.75 157.295ZM99.75 157.295L99.75 168.561L88.5 168.561L88.5 179.828L99.75 179.828L99.75 191.094L88.5 191.094L88.5 202.361L99.75 202.361L99.75 213.627L88.5 213.627L88.5 224.894L77.25 224.894L77.25 213.627L66 213.627L66 224.894L54.75 224.894L54.75 213.627L66 213.627L66 202.361L54.75 202.361L54.75 191.094L66 191.094L66 179.828L54.75 179.828L54.75 168.561L66 168.561L66 157.295L77.25 157.295L77.25 168.561L88.5 168.561L88.5 157.295L99.75 157.295ZM77.25 168.561L66 168.561L66 179.828L77.25 179.828L77.25 168.561ZM77.25 179.828L77.25 191.094L88.5 191.094L88.5 179.828L77.25 179.828ZM77.25 191.094L66 191.094L66 202.361L77.25 202.361L77.25 191.094ZM77.25 202.361L77.25 213.627L88.5 213.627L88.5 202.361L77.25 202.361Z" fill="#5AAF21" fill-opacity="0.5"/>
<path d="M54.75 157.295L9.74995 157.295L9.74995 224.894L54.75 224.894L54.75 157.295ZM54.75 157.295L54.75 168.561L43.5 168.561L43.5 179.828L54.75 179.828L54.75 191.094L43.5 191.094L43.5 202.361L54.75 202.361L54.75 213.627L43.5 213.627L43.5 224.894L32.25 224.894L32.25 213.627L21 213.627L21 224.894L9.74995 224.894L9.74995 213.627L21 213.627L21 202.361L9.74995 202.361L9.74995 191.094L21 191.094L21 179.828L9.74995 179.828L9.74995 168.561L21 168.561L21 157.295L32.25 157.295L32.25 168.561L43.5 168.561L43.5 157.295L54.75 157.295ZM32.25 168.561L21 168.561L21 179.828L32.25 179.828L32.25 168.561ZM32.25 179.828L32.25 191.094L43.5 191.094L43.5 179.828L32.25 179.828ZM32.25 191.094L21 191.094L21 202.361L32.25 202.361L32.25 191.094ZM32.25 202.361L32.25 213.627L43.5 213.627L43.5 202.361L32.25 202.361Z" fill="#5AAF21" fill-opacity="0.5"/>
<path d="M324.75 224.393L279.75 224.393L279.75 291.992L324.75 291.992L324.75 224.393ZM324.75 224.393L324.75 235.66L313.5 235.66L313.5 246.926L324.75 246.926L324.75 258.193L313.5 258.193L313.5 269.459L324.75 269.459L324.75 280.726L313.5 280.726L313.5 291.992L302.25 291.992L302.25 280.726L291 280.726L291 291.992L279.75 291.992L279.75 280.726L291 280.726L291 269.459L279.75 269.459L279.75 258.193L291 258.193L291 246.926L279.75 246.926L279.75 235.66L291 235.66L291 224.393L302.25 224.393L302.25 235.66L313.5 235.66L313.5 224.393L324.75 224.393ZM302.25 235.66L291 235.66L291 246.926L302.25 246.926L302.25 235.66ZM302.25 246.926L302.25 258.193L313.5 258.193L313.5 246.926L302.25 246.926ZM302.25 258.193L291 258.193L291 269.459L302.25 269.459L302.25 258.193ZM302.25 269.459L302.25 280.726L313.5 280.726L313.5 269.459L302.25 269.459Z" fill="#5AAF21" fill-opacity="0.5"/>
<path d="M279.75 224.393L234.75 224.393L234.75 291.992L279.75 291.992L279.75 224.393ZM279.75 224.393L279.75 235.66L268.5 235.66L268.5 246.926L279.75 246.926L279.75 258.193L268.5 258.193L268.5 269.459L279.75 269.459L279.75 280.726L268.5 280.726L268.5 291.992L257.25 291.992L257.25 280.726L246 280.726L246 291.992L234.75 291.992L234.75 280.726L246 280.726L246 269.459L234.75 269.459L234.75 258.193L246 258.193L246 246.926L234.75 246.926L234.75 235.66L246 235.66L246 224.393L257.25 224.393L257.25 235.66L268.5 235.66L268.5 224.393L279.75 224.393ZM257.25 235.66L246 235.66L246 246.926L257.25 246.926L257.25 235.66ZM257.25 246.926L257.25 258.193L268.5 258.193L268.5 246.926L257.25 246.926ZM257.25 258.193L246 258.193L246 269.459L257.25 269.459L257.25 258.193ZM257.25 269.459L257.25 280.726L268.5 280.726L268.5 269.459L257.25 269.459Z" fill="#5AAF21" fill-opacity="0.5"/>
<path d="M234.75 224.393L189.75 224.393L189.75 291.992L234.75 291.992L234.75 224.393ZM234.75 224.393L234.75 235.66L223.5 235.66L223.5 246.926L234.75 246.926L234.75 258.193L223.5 258.193L223.5 269.459L234.75 269.459L234.75 280.726L223.5 280.726L223.5 291.992L212.25 291.992L212.25 280.726L201 280.726L201 291.992L189.75 291.992L189.75 280.726L201 280.726L201 269.459L189.75 269.459L189.75 258.193L201 258.193L201 246.926L189.75 246.926L189.75 235.66L201 235.66L201 224.393L212.25 224.393L212.25 235.66L223.5 235.66L223.5 224.393L234.75 224.393ZM212.25 235.66L201 235.66L201 246.926L212.25 246.926L212.25 235.66ZM212.25 246.926L212.25 258.193L223.5 258.193L223.5 246.926L212.25 246.926ZM212.25 258.193L201 258.193L201 269.459L212.25 269.459L212.25 258.193ZM212.25 269.459L212.25 280.726L223.5 280.726L223.5 269.459L212.25 269.459Z" fill="#5AAF21" fill-opacity="0.5"/>
<path d="M189.75 224.393L144.75 224.393L144.75 291.992L189.75 291.992L189.75 224.393ZM189.75 224.393L189.75 235.66L178.5 235.66L178.5 246.926L189.75 246.926L189.75 258.193L178.5 258.193L178.5 269.459L189.75 269.459L189.75 280.726L178.5 280.726L178.5 291.992L167.25 291.992L167.25 280.726L156 280.726L156 291.992L144.75 291.992L144.75 280.726L156 280.726L156 269.459L144.75 269.459L144.75 258.193L156 258.193L156 246.926L144.75 246.926L144.75 235.66L156 235.66L156 224.393L167.25 224.393L167.25 235.66L178.5 235.66L178.5 224.393L189.75 224.393ZM167.25 235.66L156 235.66L156 246.926L167.25 246.926L167.25 235.66ZM167.25 246.926L167.25 258.193L178.5 258.193L178.5 246.926L167.25 246.926ZM167.25 258.193L156 258.193L156 269.459L167.25 269.459L167.25 258.193ZM167.25 269.459L167.25 280.726L178.5 280.726L178.5 269.459L167.25 269.459Z" fill="#5AAF21" fill-opacity="0.5"/>
<path d="M144.75 224.393L99.75 224.393L99.75 291.992L144.75 291.992L144.75 224.393ZM144.75 224.393L144.75 235.66L133.5 235.66L133.5 246.926L144.75 246.926L144.75 258.193L133.5 258.193L133.5 269.459L144.75 269.459L144.75 280.726L133.5 280.726L133.5 291.992L122.25 291.992L122.25 280.726L111 280.726L111 291.992L99.75 291.992L99.75 280.726L111 280.726L111 269.459L99.75 269.459L99.75 258.193L111 258.193L111 246.926L99.75 246.926L99.75 235.66L111 235.66L111 224.393L122.25 224.393L122.25 235.66L133.5 235.66L133.5 224.393L144.75 224.393ZM122.25 235.66L111 235.66L111 246.926L122.25 246.926L122.25 235.66ZM122.25 246.926L122.25 258.193L133.5 258.193L133.5 246.926L122.25 246.926ZM122.25 258.193L111 258.193L111 269.459L122.25 269.459L122.25 258.193ZM122.25 269.459L122.25 280.726L133.5 280.726L133.5 269.459L122.25 269.459Z" fill="#5AAF21" fill-opacity="0.5"/>
<path d="M99.75 224.393L54.75 224.393L54.75 291.992L99.75 291.992L99.75 224.393ZM99.75 224.393L99.75 235.66L88.5 235.66L88.5 246.926L99.75 246.926L99.75 258.193L88.5 258.193L88.5 269.459L99.75 269.459L99.75 280.726L88.5 280.726L88.5 291.992L77.25 291.992L77.25 280.726L66 280.726L66 291.992L54.75 291.992L54.75 280.726L66 280.726L66 269.459L54.75 269.459L54.75 258.193L66 258.193L66 246.926L54.75 246.926L54.75 235.66L66 235.66L66 224.393L77.25 224.393L77.25 235.66L88.5 235.66L88.5 224.393L99.75 224.393ZM77.25 235.66L66 235.66L66 246.926L77.25 246.926L77.25 235.66ZM77.25 246.926L77.25 258.193L88.5 258.193L88.5 246.926L77.25 246.926ZM77.25 258.193L66 258.193L66 269.459L77.25 269.459L77.25 258.193ZM77.25 269.459L77.25 280.726L88.5 280.726L88.5 269.459L77.25 269.459Z" fill="#5AAF21" fill-opacity="0.5"/>
<path d="M54.75 224.393L9.74995 224.393L9.74995 291.992L54.75 291.992L54.75 224.393ZM54.75 224.393L54.75 235.66L43.5 235.66L43.5 246.926L54.75 246.926L54.75 258.193L43.5 258.193L43.5 269.459L54.75 269.459L54.75 280.726L43.5 280.726L43.5 291.992L32.25 291.992L32.25 280.726L21 280.726L21 291.992L9.74995 291.992L9.74995 280.726L21 280.726L21 269.459L9.74995 269.459L9.74995 258.193L21 258.193L21 246.926L9.74995 246.926L9.74995 235.66L21 235.66L21 224.393L32.25 224.393L32.25 235.66L43.5 235.66L43.5 224.393L54.75 224.393ZM32.25 235.66L21 235.66L21 246.926L32.25 246.926L32.25 235.66ZM32.25 246.926L32.25 258.193L43.5 258.193L43.5 246.926L32.25 246.926ZM32.25 258.193L21 258.193L21 269.459L32.25 269.459L32.25 258.193ZM32.25 269.459L32.25 280.726L43.5 280.726L43.5 269.459L32.25 269.459Z" fill="#5AAF21" fill-opacity="0.5"/>
<path d="M324.75 291.492L279.75 291.492L279.75 359.091L324.75 359.091L324.75 291.492ZM324.75 291.492L324.75 302.758L313.5 302.758L313.5 314.025L324.75 314.025L324.75 325.291L313.5 325.291L313.5 336.558L324.75 336.558L324.75 347.824L313.5 347.824L313.5 359.091L302.25 359.091L302.25 347.824L291 347.824L291 359.091L279.75 359.091L279.75 347.824L291 347.824L291 336.558L279.75 336.558L279.75 325.291L291 325.291L291 314.025L279.75 314.025L279.75 302.758L291 302.758L291 291.492L302.25 291.492L302.25 302.758L313.5 302.758L313.5 291.492L324.75 291.492ZM302.25 302.758L291 302.758L291 314.025L302.25 314.025L302.25 302.758ZM302.25 314.025L302.25 325.291L313.5 325.291L313.5 314.025L302.25 314.025ZM302.25 325.291L291 325.291L291 336.558L302.25 336.558L302.25 325.291ZM302.25 336.558L302.25 347.824L313.5 347.824L313.5 336.558L302.25 336.558Z" fill="#5AAF21" fill-opacity="0.5"/>
<path d="M279.75 291.492L234.75 291.492L234.75 359.091L279.75 359.091L279.75 291.492ZM279.75 291.492L279.75 302.758L268.5 302.758L268.5 314.025L279.75 314.025L279.75 325.291L268.5 325.291L268.5 336.558L279.75 336.558L279.75 347.824L268.5 347.824L268.5 359.091L257.25 359.091L257.25 347.824L246 347.824L246 359.091L234.75 359.091L234.75 347.824L246 347.824L246 336.558L234.75 336.558L234.75 325.291L246 325.291L246 314.025L234.75 314.025L234.75 302.758L246 302.758L246 291.492L257.25 291.492L257.25 302.758L268.5 302.758L268.5 291.492L279.75 291.492ZM257.25 302.758L246 302.758L246 314.025L257.25 314.025L257.25 302.758ZM257.25 314.025L257.25 325.291L268.5 325.291L268.5 314.025L257.25 314.025ZM257.25 325.291L246 325.291L246 336.558L257.25 336.558L257.25 325.291ZM257.25 336.558L257.25 347.824L268.5 347.824L268.5 336.558L257.25 336.558Z" fill="#5AAF21" fill-opacity="0.5"/>
<path d="M234.75 291.492L189.75 291.492L189.75 359.091L234.75 359.091L234.75 291.492ZM234.75 291.492L234.75 302.758L223.5 302.758L223.5 314.025L234.75 314.025L234.75 325.291L223.5 325.291L223.5 336.558L234.75 336.558L234.75 347.824L223.5 347.824L223.5 359.091L212.25 359.091L212.25 347.824L201 347.824L201 359.091L189.75 359.091L189.75 347.824L201 347.824L201 336.558L189.75 336.558L189.75 325.291L201 325.291L201 314.025L189.75 314.025L189.75 302.758L201 302.758L201 291.492L212.25 291.492L212.25 302.758L223.5 302.758L223.5 291.492L234.75 291.492ZM212.25 302.758L201 302.758L201 314.025L212.25 314.025L212.25 302.758ZM212.25 314.025L212.25 325.291L223.5 325.291L223.5 314.025L212.25 314.025ZM212.25 325.291L201 325.291L201 336.558L212.25 336.558L212.25 325.291ZM212.25 336.558L212.25 347.824L223.5 347.824L223.5 336.558L212.25 336.558Z" fill="#5AAF21" fill-opacity="0.5"/>
<path d="M189.75 291.492L144.75 291.492L144.75 359.091L189.75 359.091L189.75 291.492ZM189.75 291.492L189.75 302.758L178.5 302.758L178.5 314.025L189.75 314.025L189.75 325.291L178.5 325.291L178.5 336.558L189.75 336.558L189.75 347.824L178.5 347.824L178.5 359.091L167.25 359.091L167.25 347.824L156 347.824L156 359.091L144.75 359.091L144.75 347.824L156 347.824L156 336.558L144.75 336.558L144.75 325.291L156 325.291L156 314.025L144.75 314.025L144.75 302.758L156 302.758L156 291.492L167.25 291.492L167.25 302.758L178.5 302.758L178.5 291.492L189.75 291.492ZM167.25 302.758L156 302.758L156 314.025L167.25 314.025L167.25 302.758ZM167.25 314.025L167.25 325.291L178.5 325.291L178.5 314.025L167.25 314.025ZM167.25 325.291L156 325.291L156 336.558L167.25 336.558L167.25 325.291ZM167.25 336.558L167.25 347.824L178.5 347.824L178.5 336.558L167.25 336.558Z" fill="#5AAF21" fill-opacity="0.5"/>
<path d="M144.75 291.492L99.75 291.492L99.75 359.091L144.75 359.091L144.75 291.492ZM144.75 291.492L144.75 302.758L133.5 302.758L133.5 314.025L144.75 314.025L144.75 325.291L133.5 325.291L133.5 336.558L144.75 336.558L144.75 347.824L133.5 347.824L133.5 359.091L122.25 359.091L122.25 347.824L111 347.824L111 359.091L99.75 359.091L99.75 347.824L111 347.824L111 336.558L99.75 336.558L99.75 325.291L111 325.291L111 314.025L99.75 314.025L99.75 302.758L111 302.758L111 291.492L122.25 291.492L122.25 302.758L133.5 302.758L133.5 291.492L144.75 291.492ZM122.25 302.758L111 302.758L111 314.025L122.25 314.025L122.25 302.758ZM122.25 314.025L122.25 325.291L133.5 325.291L133.5 314.025L122.25 314.025ZM122.25 325.291L111 325.291L111 336.558L122.25 336.558L122.25 325.291ZM122.25 336.558L122.25 347.824L133.5 347.824L133.5 336.558L122.25 336.558Z" fill="#5AAF21" fill-opacity="0.5"/>
<path d="M99.75 291.492L54.75 291.492L54.75 359.091L99.75 359.091L99.75 291.492ZM99.75 291.492L99.75 302.758L88.5 302.758L88.5 314.025L99.75 314.025L99.75 325.291L88.5 325.291L88.5 336.558L99.75 336.558L99.75 347.824L88.5 347.824L88.5 359.091L77.25 359.091L77.25 347.824L66 347.824L66 359.091L54.75 359.091L54.75 347.824L66 347.824L66 336.558L54.75 336.558L54.75 325.291L66 325.291L66 314.025L54.75 314.025L54.75 302.758L66 302.758L66 291.492L77.25 291.492L77.25 302.758L88.5 302.758L88.5 291.492L99.75 291.492ZM77.25 302.758L66 302.758L66 314.025L77.25 314.025L77.25 302.758ZM77.25 314.025L77.25 325.291L88.5 325.291L88.5 314.025L77.25 314.025ZM77.25 325.291L66 325.291L66 336.558L77.25 336.558L77.25 325.291ZM77.25 336.558L77.25 347.824L88.5 347.824L88.5 336.558L77.25 336.558Z" fill="#5AAF21" fill-opacity="0.5"/>
<path d="M54.75 291.492L9.74995 291.492L9.74995 359.091L54.75 359.091L54.75 291.492ZM54.75 291.492L54.75 302.758L43.5 302.758L43.5 314.025L54.75 314.025L54.75 325.291L43.5 325.291L43.5 336.558L54.75 336.558L54.75 347.824L43.5 347.824L43.5 359.091L32.25 359.091L32.25 347.824L21 347.824L21 359.091L9.74995 359.091L9.74995 347.824L21 347.824L21 336.558L9.74995 336.558L9.74995 325.291L21 325.291L21 314.025L9.74995 314.025L9.74995 302.758L21 302.758L21 291.492L32.25 291.492L32.25 302.758L43.5 302.758L43.5 291.492L54.75 291.492ZM32.25 302.758L21 302.758L21 314.025L32.25 314.025L32.25 302.758ZM32.25 314.025L32.25 325.291L43.5 325.291L43.5 314.025L32.25 314.025ZM32.25 325.291L21 325.291L21 336.558L32.25 336.558L32.25 325.291ZM32.25 336.558L32.25 347.824L43.5 347.824L43.5 336.558L32.25 336.558Z" fill="#5AAF21" fill-opacity="0.5"/>
<path d="M324.75 358.59L279.75 358.59L279.75 426.189L324.75 426.189L324.75 358.59ZM324.75 358.59L324.75 369.856L313.5 369.856L313.5 381.123L324.75 381.123L324.75 392.389L313.5 392.389L313.5 403.656L324.75 403.656L324.75 414.922L313.5 414.922L313.5 426.189L302.25 426.189L302.25 414.922L291 414.922L291 426.189L279.75 426.189L279.75 414.922L291 414.922L291 403.656L279.75 403.656L279.75 392.389L291 392.389L291 381.123L279.75 381.123L279.75 369.856L291 369.856L291 358.59L302.25 358.59L302.25 369.856L313.5 369.856L313.5 358.59L324.75 358.59ZM302.25 369.856L291 369.856L291 381.123L302.25 381.123L302.25 369.856ZM302.25 381.123L302.25 392.389L313.5 392.389L313.5 381.123L302.25 381.123ZM302.25 392.389L291 392.389L291 403.656L302.25 403.656L302.25 392.389ZM302.25 403.656L302.25 414.922L313.5 414.922L313.5 403.656L302.25 403.656Z" fill="#5AAF21" fill-opacity="0.5"/>
<path d="M279.75 358.59L234.75 358.59L234.75 426.189L279.75 426.189L279.75 358.59ZM279.75 358.59L279.75 369.856L268.5 369.856L268.5 381.123L279.75 381.123L279.75 392.389L268.5 392.389L268.5 403.656L279.75 403.656L279.75 414.922L268.5 414.922L268.5 426.189L257.25 426.189L257.25 414.922L246 414.922L246 426.189L234.75 426.189L234.75 414.922L246 414.922L246 403.656L234.75 403.656L234.75 392.389L246 392.389L246 381.123L234.75 381.123L234.75 369.856L246 369.856L246 358.59L257.25 358.59L257.25 369.856L268.5 369.856L268.5 358.59L279.75 358.59ZM257.25 369.856L246 369.856L246 381.123L257.25 381.123L257.25 369.856ZM257.25 381.123L257.25 392.389L268.5 392.389L268.5 381.123L257.25 381.123ZM257.25 392.389L246 392.389L246 403.656L257.25 403.656L257.25 392.389ZM257.25 403.656L257.25 414.922L268.5 414.922L268.5 403.656L257.25 403.656Z" fill="#5AAF21" fill-opacity="0.5"/>
<path d="M234.75 358.59L189.75 358.59L189.75 426.189L234.75 426.189L234.75 358.59ZM234.75 358.59L234.75 369.856L223.5 369.856L223.5 381.123L234.75 381.123L234.75 392.389L223.5 392.389L223.5 403.656L234.75 403.656L234.75 414.922L223.5 414.922L223.5 426.189L212.25 426.189L212.25 414.922L201 414.922L201 426.189L189.75 426.189L189.75 414.922L201 414.922L201 403.656L189.75 403.656L189.75 392.389L201 392.389L201 381.123L189.75 381.123L189.75 369.856L201 369.856L201 358.59L212.25 358.59L212.25 369.856L223.5 369.856L223.5 358.59L234.75 358.59ZM212.25 369.856L201 369.856L201 381.123L212.25 381.123L212.25 369.856ZM212.25 381.123L212.25 392.389L223.5 392.389L223.5 381.123L212.25 381.123ZM212.25 392.389L201 392.389L201 403.656L212.25 403.656L212.25 392.389ZM212.25 403.656L212.25 414.922L223.5 414.922L223.5 403.656L212.25 403.656Z" fill="#5AAF21" fill-opacity="0.5"/>
<path d="M189.75 358.59L144.75 358.59L144.75 426.189L189.75 426.189L189.75 358.59ZM189.75 358.59L189.75 369.856L178.5 369.856L178.5 381.123L189.75 381.123L189.75 392.389L178.5 392.389L178.5 403.656L189.75 403.656L189.75 414.922L178.5 414.922L178.5 426.189L167.25 426.189L167.25 414.922L156 414.922L156 426.189L144.75 426.189L144.75 414.922L156 414.922L156 403.656L144.75 403.656L144.75 392.389L156 392.389L156 381.123L144.75 381.123L144.75 369.856L156 369.856L156 358.59L167.25 358.59L167.25 369.856L178.5 369.856L178.5 358.59L189.75 358.59ZM167.25 369.856L156 369.856L156 381.123L167.25 381.123L167.25 369.856ZM167.25 381.123L167.25 392.389L178.5 392.389L178.5 381.123L167.25 381.123ZM167.25 392.389L156 392.389L156 403.656L167.25 403.656L167.25 392.389ZM167.25 403.656L167.25 414.922L178.5 414.922L178.5 403.656L167.25 403.656Z" fill="#5AAF21" fill-opacity="0.5"/>
<path d="M144.75 358.59L99.75 358.59L99.75 426.189L144.75 426.189L144.75 358.59ZM144.75 358.59L144.75 369.856L133.5 369.856L133.5 381.123L144.75 381.123L144.75 392.389L133.5 392.389L133.5 403.656L144.75 403.656L144.75 414.922L133.5 414.922L133.5 426.189L122.25 426.189L122.25 414.922L111 414.922L111 426.189L99.75 426.189L99.75 414.922L111 414.922L111 403.656L99.75 403.656L99.75 392.389L111 392.389L111 381.123L99.75 381.123L99.75 369.856L111 369.856L111 358.59L122.25 358.59L122.25 369.856L133.5 369.856L133.5 358.59L144.75 358.59ZM122.25 369.856L111 369.856L111 381.123L122.25 381.123L122.25 369.856ZM122.25 381.123L122.25 392.389L133.5 392.389L133.5 381.123L122.25 381.123ZM122.25 392.389L111 392.389L111 403.656L122.25 403.656L122.25 392.389ZM122.25 403.656L122.25 414.922L133.5 414.922L133.5 403.656L122.25 403.656Z" fill="#5AAF21" fill-opacity="0.5"/>
<path d="M99.75 358.59L54.75 358.59L54.75 426.189L99.75 426.189L99.75 358.59ZM99.75 358.59L99.75 369.856L88.5 369.856L88.5 381.123L99.75 381.123L99.75 392.389L88.5 392.389L88.5 403.656L99.75 403.656L99.75 414.922L88.5 414.922L88.5 426.189L77.25 426.189L77.25 414.922L66 414.922L66 426.189L54.75 426.189L54.75 414.922L66 414.922L66 403.656L54.75 403.656L54.75 392.389L66 392.389L66 381.123L54.75 381.123L54.75 369.856L66 369.856L66 358.59L77.25 358.59L77.25 369.856L88.5 369.856L88.5 358.59L99.75 358.59ZM77.25 369.856L66 369.856L66 381.123L77.25 381.123L77.25 369.856ZM77.25 381.123L77.25 392.389L88.5 392.389L88.5 381.123L77.25 381.123ZM77.25 392.389L66 392.389L66 403.656L77.25 403.656L77.25 392.389ZM77.25 403.656L77.25 414.922L88.5 414.922L88.5 403.656L77.25 403.656Z" fill="#5AAF21" fill-opacity="0.5"/>
<path d="M54.75 358.59L9.74998 358.59L9.74998 426.189L54.75 426.189L54.75 358.59ZM54.75 358.59L54.75 369.856L43.5 369.856L43.5 381.123L54.75 381.123L54.75 392.389L43.5 392.389L43.5 403.656L54.75 403.656L54.75 414.922L43.5 414.922L43.5 426.189L32.25 426.189L32.25 414.922L21 414.922L21 426.189L9.74998 426.189L9.74998 414.922L21 414.922L21 403.656L9.74998 403.656L9.74998 392.389L21 392.389L21 381.123L9.74998 381.123L9.74998 369.856L21 369.856L21 358.59L32.25 358.59L32.25 369.856L43.5 369.856L43.5 358.59L54.75 358.59ZM32.25 369.856L21 369.856L21 381.123L32.25 381.123L32.25 369.856ZM32.25 381.123L32.25 392.389L43.5 392.389L43.5 381.123L32.25 381.123ZM32.25 392.389L21 392.389L21 403.656L32.25 403.656L32.25 392.389ZM32.25 403.656L32.25 414.922L43.5 414.922L43.5 403.656L32.25 403.656Z" fill="#5AAF21" fill-opacity="0.5"/>
<path d="M324.75 425.688L279.75 425.688L279.75 493.287L324.75 493.287L324.75 425.688ZM324.75 425.688L324.75 436.954L313.5 436.954L313.5 448.221L324.75 448.221L324.75 459.488L313.5 459.488L313.5 470.754L324.75 470.754L324.75 482.021L313.5 482.021L313.5 493.287L302.25 493.287L302.25 482.021L291 482.021L291 493.287L279.75 493.287L279.75 482.021L291 482.021L291 470.754L279.75 470.754L279.75 459.488L291 459.488L291 448.221L279.75 448.221L279.75 436.954L291 436.954L291 425.688L302.25 425.688L302.25 436.954L313.5 436.954L313.5 425.688L324.75 425.688ZM302.25 436.954L291 436.954L291 448.221L302.25 448.221L302.25 436.954ZM302.25 448.221L302.25 459.488L313.5 459.488L313.5 448.221L302.25 448.221ZM302.25 459.488L291 459.488L291 470.754L302.25 470.754L302.25 459.488ZM302.25 470.754L302.25 482.021L313.5 482.021L313.5 470.754L302.25 470.754Z" fill="#5AAF21" fill-opacity="0.5"/>
<path d="M279.75 425.688L234.75 425.688L234.75 493.287L279.75 493.287L279.75 425.688ZM279.75 425.688L279.75 436.954L268.5 436.954L268.5 448.221L279.75 448.221L279.75 459.488L268.5 459.488L268.5 470.754L279.75 470.754L279.75 482.021L268.5 482.021L268.5 493.287L257.25 493.287L257.25 482.021L246 482.021L246 493.287L234.75 493.287L234.75 482.021L246 482.021L246 470.754L234.75 470.754L234.75 459.488L246 459.488L246 448.221L234.75 448.221L234.75 436.954L246 436.954L246 425.688L257.25 425.688L257.25 436.954L268.5 436.954L268.5 425.688L279.75 425.688ZM257.25 436.954L246 436.954L246 448.221L257.25 448.221L257.25 436.954ZM257.25 448.221L257.25 459.488L268.5 459.488L268.5 448.221L257.25 448.221ZM257.25 459.488L246 459.488L246 470.754L257.25 470.754L257.25 459.488ZM257.25 470.754L257.25 482.021L268.5 482.021L268.5 470.754L257.25 470.754Z" fill="#5AAF21" fill-opacity="0.5"/>
<path d="M234.75 425.688L189.75 425.688L189.75 493.287L234.75 493.287L234.75 425.688ZM234.75 425.688L234.75 436.954L223.5 436.954L223.5 448.221L234.75 448.221L234.75 459.488L223.5 459.488L223.5 470.754L234.75 470.754L234.75 482.021L223.5 482.021L223.5 493.287L212.25 493.287L212.25 482.021L201 482.021L201 493.287L189.75 493.287L189.75 482.021L201 482.021L201 470.754L189.75 470.754L189.75 459.488L201 459.488L201 448.221L189.75 448.221L189.75 436.954L201 436.954L201 425.688L212.25 425.688L212.25 436.954L223.5 436.954L223.5 425.688L234.75 425.688ZM212.25 436.954L201 436.954L201 448.221L212.25 448.221L212.25 436.954ZM212.25 448.221L212.25 459.488L223.5 459.488L223.5 448.221L212.25 448.221ZM212.25 459.488L201 459.488L201 470.754L212.25 470.754L212.25 459.488ZM212.25 470.754L212.25 482.021L223.5 482.021L223.5 470.754L212.25 470.754Z" fill="#5AAF21" fill-opacity="0.5"/>
<path d="M189.75 425.688L144.75 425.688L144.75 493.287L189.75 493.287L189.75 425.688ZM189.75 425.688L189.75 436.954L178.5 436.954L178.5 448.221L189.75 448.221L189.75 459.488L178.5 459.488L178.5 470.754L189.75 470.754L189.75 482.021L178.5 482.021L178.5 493.287L167.25 493.287L167.25 482.021L156 482.021L156 493.287L144.75 493.287L144.75 482.021L156 482.021L156 470.754L144.75 470.754L144.75 459.488L156 459.488L156 448.221L144.75 448.221L144.75 436.954L156 436.954L156 425.688L167.25 425.688L167.25 436.954L178.5 436.954L178.5 425.688L189.75 425.688ZM167.25 436.954L156 436.954L156 448.221L167.25 448.221L167.25 436.954ZM167.25 448.221L167.25 459.488L178.5 459.488L178.5 448.221L167.25 448.221ZM167.25 459.488L156 459.488L156 470.754L167.25 470.754L167.25 459.488ZM167.25 470.754L167.25 482.021L178.5 482.021L178.5 470.754L167.25 470.754Z" fill="#5AAF21" fill-opacity="0.5"/>
<path d="M144.75 425.688L99.75 425.688L99.75 493.287L144.75 493.287L144.75 425.688ZM144.75 425.688L144.75 436.954L133.5 436.954L133.5 448.221L144.75 448.221L144.75 459.488L133.5 459.488L133.5 470.754L144.75 470.754L144.75 482.021L133.5 482.021L133.5 493.287L122.25 493.287L122.25 482.021L111 482.021L111 493.287L99.75 493.287L99.75 482.021L111 482.021L111 470.754L99.75 470.754L99.75 459.488L111 459.488L111 448.221L99.75 448.221L99.75 436.954L111 436.954L111 425.688L122.25 425.688L122.25 436.954L133.5 436.954L133.5 425.688L144.75 425.688ZM122.25 436.954L111 436.954L111 448.221L122.25 448.221L122.25 436.954ZM122.25 448.221L122.25 459.488L133.5 459.488L133.5 448.221L122.25 448.221ZM122.25 459.488L111 459.488L111 470.754L122.25 470.754L122.25 459.488ZM122.25 470.754L122.25 482.021L133.5 482.021L133.5 470.754L122.25 470.754Z" fill="#5AAF21" fill-opacity="0.5"/>
<path d="M99.75 425.688L54.75 425.688L54.75 493.287L99.75 493.287L99.75 425.688ZM99.75 425.688L99.75 436.954L88.5 436.954L88.5 448.221L99.75 448.221L99.75 459.488L88.5 459.488L88.5 470.754L99.75 470.754L99.75 482.021L88.5 482.021L88.5 493.287L77.25 493.287L77.25 482.021L66 482.021L66 493.287L54.75 493.287L54.75 482.021L66 482.021L66 470.754L54.75 470.754L54.75 459.488L66 459.488L66 448.221L54.75 448.221L54.75 436.954L66 436.954L66 425.688L77.25 425.688L77.25 436.954L88.5 436.954L88.5 425.688L99.75 425.688ZM77.25 436.954L66 436.954L66 448.221L77.25 448.221L77.25 436.954ZM77.25 448.221L77.25 459.488L88.5 459.488L88.5 448.221L77.25 448.221ZM77.25 459.488L66 459.488L66 470.754L77.25 470.754L77.25 459.488ZM77.25 470.754L77.25 482.021L88.5 482.021L88.5 470.754L77.25 470.754Z" fill="#5AAF21" fill-opacity="0.5"/>
<path d="M54.75 425.688L9.74998 425.688L9.74998 493.287L54.75 493.287L54.75 425.688ZM54.75 425.688L54.75 436.954L43.5 436.954L43.5 448.221L54.75 448.221L54.75 459.488L43.5 459.488L43.5 470.754L54.75 470.754L54.75 482.021L43.5 482.021L43.5 493.287L32.25 493.287L32.25 482.021L21 482.021L21 493.287L9.74998 493.287L9.74998 482.021L21 482.021L21 470.754L9.74998 470.754L9.74998 459.488L21 459.488L21 448.221L9.74998 448.221L9.74998 436.954L21 436.954L21 425.688L32.25 425.688L32.25 436.954L43.5 436.954L43.5 425.688L54.75 425.688ZM32.25 436.954L21 436.954L21 448.221L32.25 448.221L32.25 436.954ZM32.25 448.221L32.25 459.488L43.5 459.488L43.5 448.221L32.25 448.221ZM32.25 459.488L21 459.488L21 470.754L32.25 470.754L32.25 459.488ZM32.25 470.754L32.25 482.021L43.5 482.021L43.5 470.754L32.25 470.754Z" fill="#5AAF21" fill-opacity="0.5"/>
<path d="M325 -32.9839L370 -32.9839L370 34.6152L325 34.6152L325 -32.9839ZM325 -32.9839L325 -21.7174L336.25 -21.7174L336.25 -10.4509L325 -10.4509L325 0.815636L336.25 0.815635L336.25 12.0821L325 12.0821L325 23.3487L336.25 23.3487L336.25 34.6152L347.5 34.6152L347.5 23.3487L358.75 23.3487L358.75 34.6152L370 34.6152L370 23.3486L358.75 23.3487L358.75 12.0821L370 12.0821L370 0.815634L358.75 0.815634L358.75 -10.4509L370 -10.4509L370 -21.7174L358.75 -21.7174L358.75 -32.9839L347.5 -32.9839L347.5 -21.7174L336.25 -21.7174L336.25 -32.9839L325 -32.9839ZM347.5 -21.7174L358.75 -21.7174L358.75 -10.4509L347.5 -10.4509L347.5 -21.7174ZM347.5 -10.4509L347.5 0.815635L336.25 0.815635L336.25 -10.4509L347.5 -10.4509ZM347.5 0.815635L358.75 0.815634L358.75 12.0821L347.5 12.0821L347.5 0.815635ZM347.5 12.0821L347.5 23.3487L336.25 23.3487L336.25 12.0821L347.5 12.0821Z" fill="#5AAF21" fill-opacity="0.5"/>
<path d="M370 -32.9839L415 -32.9839L415 34.6152L370 34.6152L370 -32.9839ZM370 -32.9839L370 -21.7174L381.25 -21.7174L381.25 -10.4509L370 -10.4509L370 0.815636L381.25 0.815635L381.25 12.0821L370 12.0821L370 23.3487L381.25 23.3487L381.25 34.6152L392.5 34.6152L392.5 23.3487L403.75 23.3487L403.75 34.6152L415 34.6152L415 23.3486L403.75 23.3487L403.75 12.0821L415 12.0821L415 0.815634L403.75 0.815634L403.75 -10.4509L415 -10.4509L415 -21.7174L403.75 -21.7174L403.75 -32.9839L392.5 -32.9839L392.5 -21.7174L381.25 -21.7174L381.25 -32.9839L370 -32.9839ZM392.5 -21.7174L403.75 -21.7174L403.75 -10.4509L392.5 -10.4509L392.5 -21.7174ZM392.5 -10.4509L392.5 0.815635L381.25 0.815635L381.25 -10.4509L392.5 -10.4509ZM392.5 0.815635L403.75 0.815634L403.75 12.0821L392.5 12.0821L392.5 0.815635ZM392.5 12.0821L392.5 23.3487L381.25 23.3487L381.25 12.0821L392.5 12.0821Z" fill="#5AAF21" fill-opacity="0.5"/>
<path d="M325 34.1143L370 34.1143L370 101.713L325 101.713L325 34.1143ZM325 34.1143L325 45.3808L336.25 45.3808L336.25 56.6473L325 56.6473L325 67.9138L336.25 67.9138L336.25 79.1803L325 79.1803L325 90.4468L336.25 90.4468L336.25 101.713L347.5 101.713L347.5 90.4468L358.75 90.4468L358.75 101.713L370 101.713L370 90.4468L358.75 90.4468L358.75 79.1803L370 79.1803L370 67.9138L358.75 67.9138L358.75 56.6473L370 56.6473L370 45.3808L358.75 45.3808L358.75 34.1143L347.5 34.1143L347.5 45.3808L336.25 45.3808L336.25 34.1143L325 34.1143ZM347.5 45.3808L358.75 45.3808L358.75 56.6473L347.5 56.6473L347.5 45.3808ZM347.5 56.6473L347.5 67.9138L336.25 67.9138L336.25 56.6473L347.5 56.6473ZM347.5 67.9138L358.75 67.9138L358.75 79.1803L347.5 79.1803L347.5 67.9138ZM347.5 79.1803L347.5 90.4468L336.25 90.4468L336.25 79.1803L347.5 79.1803Z" fill="#5AAF21" fill-opacity="0.5"/>
<path d="M370 34.1143L415 34.1143L415 101.713L370 101.713L370 34.1143ZM370 34.1143L370 45.3808L381.25 45.3808L381.25 56.6473L370 56.6473L370 67.9138L381.25 67.9138L381.25 79.1803L370 79.1803L370 90.4468L381.25 90.4468L381.25 101.713L392.5 101.713L392.5 90.4468L403.75 90.4468L403.75 101.713L415 101.713L415 90.4468L403.75 90.4468L403.75 79.1803L415 79.1803L415 67.9138L403.75 67.9138L403.75 56.6473L415 56.6473L415 45.3808L403.75 45.3808L403.75 34.1143L392.5 34.1143L392.5 45.3808L381.25 45.3808L381.25 34.1143L370 34.1143ZM392.5 45.3808L403.75 45.3808L403.75 56.6473L392.5 56.6473L392.5 45.3808ZM392.5 56.6473L392.5 67.9138L381.25 67.9138L381.25 56.6473L392.5 56.6473ZM392.5 67.9138L403.75 67.9138L403.75 79.1803L392.5 79.1803L392.5 67.9138ZM392.5 79.1803L392.5 90.4468L381.25 90.4468L381.25 79.1803L392.5 79.1803Z" fill="#5AAF21" fill-opacity="0.5"/>
<path d="M325 101.213L370 101.213L370 168.812L325 168.812L325 101.213ZM325 101.213L325 112.479L336.25 112.479L336.25 123.746L325 123.746L325 135.012L336.25 135.012L336.25 146.279L325 146.279L325 157.545L336.25 157.545L336.25 168.812L347.5 168.812L347.5 157.545L358.75 157.545L358.75 168.812L370 168.812L370 157.545L358.75 157.545L358.75 146.279L370 146.279L370 135.012L358.75 135.012L358.75 123.746L370 123.746L370 112.479L358.75 112.479L358.75 101.213L347.5 101.213L347.5 112.479L336.25 112.479L336.25 101.213L325 101.213ZM347.5 112.479L358.75 112.479L358.75 123.746L347.5 123.746L347.5 112.479ZM347.5 123.746L347.5 135.012L336.25 135.012L336.25 123.746L347.5 123.746ZM347.5 135.012L358.75 135.012L358.75 146.279L347.5 146.279L347.5 135.012ZM347.5 146.279L347.5 157.545L336.25 157.545L336.25 146.279L347.5 146.279Z" fill="#5AAF21" fill-opacity="0.5"/>
<path d="M370 101.213L415 101.213L415 168.812L370 168.812L370 101.213ZM370 101.213L370 112.479L381.25 112.479L381.25 123.746L370 123.746L370 135.012L381.25 135.012L381.25 146.279L370 146.279L370 157.545L381.25 157.545L381.25 168.812L392.5 168.812L392.5 157.545L403.75 157.545L403.75 168.812L415 168.812L415 157.545L403.75 157.545L403.75 146.279L415 146.279L415 135.012L403.75 135.012L403.75 123.746L415 123.746L415 112.479L403.75 112.479L403.75 101.213L392.5 101.213L392.5 112.479L381.25 112.479L381.25 101.213L370 101.213ZM392.5 112.479L403.75 112.479L403.75 123.746L392.5 123.746L392.5 112.479ZM392.5 123.746L392.5 135.012L381.25 135.012L381.25 123.746L392.5 123.746ZM392.5 135.012L403.75 135.012L403.75 146.279L392.5 146.279L392.5 135.012ZM392.5 146.279L392.5 157.545L381.25 157.545L381.25 146.279L392.5 146.279Z" fill="#5AAF21" fill-opacity="0.5"/>
<path d="M325 168.311L370 168.311L370 235.91L325 235.91L325 168.311ZM325 168.311L325 179.578L336.25 179.578L336.25 190.844L325 190.844L325 202.111L336.25 202.111L336.25 213.377L325 213.377L325 224.644L336.25 224.644L336.25 235.91L347.5 235.91L347.5 224.644L358.75 224.644L358.75 235.91L370 235.91L370 224.644L358.75 224.644L358.75 213.377L370 213.377L370 202.111L358.75 202.111L358.75 190.844L370 190.844L370 179.578L358.75 179.578L358.75 168.311L347.5 168.311L347.5 179.578L336.25 179.578L336.25 168.311L325 168.311ZM347.5 179.578L358.75 179.578L358.75 190.844L347.5 190.844L347.5 179.578ZM347.5 190.844L347.5 202.111L336.25 202.111L336.25 190.844L347.5 190.844ZM347.5 202.111L358.75 202.111L358.75 213.377L347.5 213.377L347.5 202.111ZM347.5 213.377L347.5 224.644L336.25 224.644L336.25 213.377L347.5 213.377Z" fill="#5AAF21" fill-opacity="0.5"/>
<path d="M370 168.311L415 168.311L415 235.91L370 235.91L370 168.311ZM370 168.311L370 179.578L381.25 179.578L381.25 190.844L370 190.844L370 202.111L381.25 202.111L381.25 213.377L370 213.377L370 224.644L381.25 224.644L381.25 235.91L392.5 235.91L392.5 224.644L403.75 224.644L403.75 235.91L415 235.91L415 224.644L403.75 224.644L403.75 213.377L415 213.377L415 202.111L403.75 202.111L403.75 190.844L415 190.844L415 179.578L403.75 179.578L403.75 168.311L392.5 168.311L392.5 179.578L381.25 179.578L381.25 168.311L370 168.311ZM392.5 179.578L403.75 179.578L403.75 190.844L392.5 190.844L392.5 179.578ZM392.5 190.844L392.5 202.111L381.25 202.111L381.25 190.844L392.5 190.844ZM392.5 202.111L403.75 202.111L403.75 213.377L392.5 213.377L392.5 202.111ZM392.5 213.377L392.5 224.644L381.25 224.644L381.25 213.377L392.5 213.377Z" fill="#5AAF21" fill-opacity="0.5"/>
<path d="M325 235.409L370 235.409L370 303.008L325 303.008L325 235.409ZM325 235.409L325 246.676L336.25 246.676L336.25 257.942L325 257.942L325 269.209L336.25 269.209L336.25 280.475L325 280.475L325 291.742L336.25 291.742L336.25 303.008L347.5 303.008L347.5 291.742L358.75 291.742L358.75 303.008L370 303.008L370 291.742L358.75 291.742L358.75 280.475L370 280.475L370 269.209L358.75 269.209L358.75 257.942L370 257.942L370 246.676L358.75 246.676L358.75 235.409L347.5 235.409L347.5 246.676L336.25 246.676L336.25 235.409L325 235.409ZM347.5 246.676L358.75 246.676L358.75 257.942L347.5 257.942L347.5 246.676ZM347.5 257.942L347.5 269.209L336.25 269.209L336.25 257.942L347.5 257.942ZM347.5 269.209L358.75 269.209L358.75 280.475L347.5 280.475L347.5 269.209ZM347.5 280.475L347.5 291.742L336.25 291.742L336.25 280.475L347.5 280.475Z" fill="#5AAF21" fill-opacity="0.5"/>
<path d="M370 235.409L415 235.409L415 303.008L370 303.008L370 235.409ZM370 235.409L370 246.676L381.25 246.676L381.25 257.942L370 257.942L370 269.209L381.25 269.209L381.25 280.475L370 280.475L370 291.742L381.25 291.742L381.25 303.008L392.5 303.008L392.5 291.742L403.75 291.742L403.75 303.008L415 303.008L415 291.742L403.75 291.742L403.75 280.475L415 280.475L415 269.209L403.75 269.209L403.75 257.942L415 257.942L415 246.676L403.75 246.676L403.75 235.409L392.5 235.409L392.5 246.676L381.25 246.676L381.25 235.409L370 235.409ZM392.5 246.676L403.75 246.676L403.75 257.942L392.5 257.942L392.5 246.676ZM392.5 257.942L392.5 269.209L381.25 269.209L381.25 257.942L392.5 257.942ZM392.5 269.209L403.75 269.209L403.75 280.475L392.5 280.475L392.5 269.209ZM392.5 280.475L392.5 291.742L381.25 291.742L381.25 280.475L392.5 280.475Z" fill="#5AAF21" fill-opacity="0.5"/>
<path d="M325 302.508L370 302.508L370 370.107L325 370.107L325 302.508ZM325 302.508L325 313.774L336.25 313.774L336.25 325.041L325 325.041L325 336.307L336.25 336.307L336.25 347.574L325 347.574L325 358.84L336.25 358.84L336.25 370.107L347.5 370.107L347.5 358.84L358.75 358.84L358.75 370.107L370 370.107L370 358.84L358.75 358.84L358.75 347.574L370 347.574L370 336.307L358.75 336.307L358.75 325.041L370 325.041L370 313.774L358.75 313.774L358.75 302.508L347.5 302.508L347.5 313.774L336.25 313.774L336.25 302.508L325 302.508ZM347.5 313.774L358.75 313.774L358.75 325.041L347.5 325.041L347.5 313.774ZM347.5 325.041L347.5 336.307L336.25 336.307L336.25 325.041L347.5 325.041ZM347.5 336.307L358.75 336.307L358.75 347.574L347.5 347.574L347.5 336.307ZM347.5 347.574L347.5 358.84L336.25 358.84L336.25 347.574L347.5 347.574Z" fill="#5AAF21" fill-opacity="0.5"/>
<path d="M370 302.508L415 302.508L415 370.107L370 370.107L370 302.508ZM370 302.508L370 313.774L381.25 313.774L381.25 325.041L370 325.041L370 336.307L381.25 336.307L381.25 347.574L370 347.574L370 358.84L381.25 358.84L381.25 370.107L392.5 370.107L392.5 358.84L403.75 358.84L403.75 370.107L415 370.107L415 358.84L403.75 358.84L403.75 347.574L415 347.574L415 336.307L403.75 336.307L403.75 325.041L415 325.041L415 313.774L403.75 313.774L403.75 302.508L392.5 302.508L392.5 313.774L381.25 313.774L381.25 302.508L370 302.508ZM392.5 313.774L403.75 313.774L403.75 325.041L392.5 325.041L392.5 313.774ZM392.5 325.041L392.5 336.307L381.25 336.307L381.25 325.041L392.5 325.041ZM392.5 336.307L403.75 336.307L403.75 347.574L392.5 347.574L392.5 336.307ZM392.5 347.574L392.5 358.84L381.25 358.84L381.25 347.574L392.5 347.574Z" fill="#5AAF21" fill-opacity="0.5"/>
<path d="M325 369.606L370 369.606L370 437.205L325 437.205L325 369.606ZM325 369.606L325 380.872L336.25 380.872L336.25 392.139L325 392.139L325 403.405L336.25 403.405L336.25 414.672L325 414.672L325 425.938L336.25 425.938L336.25 437.205L347.5 437.205L347.5 425.938L358.75 425.938L358.75 437.205L370 437.205L370 425.938L358.75 425.938L358.75 414.672L370 414.672L370 403.405L358.75 403.405L358.75 392.139L370 392.139L370 380.872L358.75 380.872L358.75 369.606L347.5 369.606L347.5 380.872L336.25 380.872L336.25 369.606L325 369.606ZM347.5 380.872L358.75 380.872L358.75 392.139L347.5 392.139L347.5 380.872ZM347.5 392.139L347.5 403.405L336.25 403.405L336.25 392.139L347.5 392.139ZM347.5 403.405L358.75 403.405L358.75 414.672L347.5 414.672L347.5 403.405ZM347.5 414.672L347.5 425.938L336.25 425.938L336.25 414.672L347.5 414.672Z" fill="#5AAF21" fill-opacity="0.5"/>
<path d="M370 369.606L415 369.606L415 437.205L370 437.205L370 369.606ZM370 369.606L370 380.872L381.25 380.872L381.25 392.139L370 392.139L370 403.405L381.25 403.405L381.25 414.672L370 414.672L370 425.938L381.25 425.938L381.25 437.205L392.5 437.205L392.5 425.938L403.75 425.938L403.75 437.205L415 437.205L415 425.938L403.75 425.938L403.75 414.672L415 414.672L415 403.405L403.75 403.405L403.75 392.139L415 392.139L415 380.872L403.75 380.872L403.75 369.606L392.5 369.606L392.5 380.872L381.25 380.872L381.25 369.606L370 369.606ZM392.5 380.872L403.75 380.872L403.75 392.139L392.5 392.139L392.5 380.872ZM392.5 392.139L392.5 403.405L381.25 403.405L381.25 392.139L392.5 392.139ZM392.5 403.405L403.75 403.405L403.75 414.672L392.5 414.672L392.5 403.405ZM392.5 414.672L392.5 425.938L381.25 425.938L381.25 414.672L392.5 414.672Z" fill="#5AAF21" fill-opacity="0.5"/>
<path d="M325 436.704L370 436.704L370 504.303L325 504.303L325 436.704ZM325 436.704L325 447.971L336.25 447.971L336.25 459.237L325 459.237L325 470.504L336.25 470.504L336.25 481.77L325 481.77L325 493.037L336.25 493.037L336.25 504.303L347.5 504.303L347.5 493.037L358.75 493.037L358.75 504.303L370 504.303L370 493.037L358.75 493.037L358.75 481.77L370 481.77L370 470.504L358.75 470.504L358.75 459.237L370 459.237L370 447.971L358.75 447.971L358.75 436.704L347.5 436.704L347.5 447.971L336.25 447.971L336.25 436.704L325 436.704ZM347.5 447.971L358.75 447.971L358.75 459.237L347.5 459.237L347.5 447.971ZM347.5 459.237L347.5 470.504L336.25 470.504L336.25 459.237L347.5 459.237ZM347.5 470.504L358.75 470.504L358.75 481.77L347.5 481.77L347.5 470.504ZM347.5 481.77L347.5 493.037L336.25 493.037L336.25 481.77L347.5 481.77Z" fill="#5AAF21" fill-opacity="0.5"/>
<path d="M370 436.704L415 436.704L415 504.303L370 504.303L370 436.704ZM370 436.704L370 447.971L381.25 447.971L381.25 459.237L370 459.237L370 470.504L381.25 470.504L381.25 481.77L370 481.77L370 493.037L381.25 493.037L381.25 504.303L392.5 504.303L392.5 493.037L403.75 493.037L403.75 504.303L415 504.303L415 493.037L403.75 493.037L403.75 481.77L415 481.77L415 470.504L403.75 470.504L403.75 459.237L415 459.237L415 447.971L403.75 447.971L403.75 436.704L392.5 436.704L392.5 447.971L381.25 447.971L381.25 436.704L370 436.704ZM392.5 447.971L403.75 447.971L403.75 459.237L392.5 459.237L392.5 447.971ZM392.5 459.237L392.5 470.504L381.25 470.504L381.25 459.237L392.5 459.237ZM392.5 470.504L403.75 470.504L403.75 481.77L392.5 481.77L392.5 470.504ZM392.5 481.77L392.5 493.037L381.25 493.037L381.25 481.77L392.5 481.77Z" fill="#5AAF21" fill-opacity="0.5"/>
</g>
<path d="M50.0009 213.001C15.8775 103.85 135.624 73.3722 198.967 70C268.69 70 361.705 96.8504 369.361 179.097C378.931 281.904 269.288 246.633 224.719 239.524C180.151 232.415 84.7258 292.841 50.0009 213.001Z" fill="#5AAF21"/>
<path d="M98.4094 165.744C129.868 150.999 170.172 115.832 149.017 94.3076C367.313 47.531 366.219 248.365 306.858 232.858C259.369 220.452 205.551 227.689 184.579 232.858C27.4494 242.01 66.9508 180.488 98.4094 165.744Z" fill="#357C05"/>
<ellipse cx="119.785" cy="123.309" rx="26.2176" ry="14.7894" transform="rotate(-35.8098 119.785 123.309)" fill="#B7D7A3"/>
<ellipse cx="96.3533" cy="168.186" rx="11.8045" ry="9.42929" transform="rotate(-76.3327 96.3533 168.186)" fill="#B7D7A3"/>
<path d="M247.91 168.433C257.115 161.78 282.635 149.075 311.071 151.481" stroke="#282828" stroke-width="3"/>
<path d="M183.648 169.798C173.028 163.826 143.892 152.901 112.307 156.981" stroke="#282828" stroke-width="3"/>
<path d="M254.746 152.028C258.391 150.387 266.995 146.942 272.245 146.286" stroke="#282828" stroke-width="3"/>
<path d="M186.685 158.042C183.41 156.575 175.702 153.537 171.077 153.13" stroke="#282828" stroke-width="3"/>
</svg>
