<svg width="416" height="449" viewBox="0 0 416 449" fill="none" xmlns="http://www.w3.org/2000/svg">
<rect x="3.77418" y="3.54567" width="408.202" height="441.381" fill="#F5F5FA" stroke="white" stroke-width="6.09524"/>
<mask id="mask0_112_4" style="mask-type:alpha" maskUnits="userSpaceOnUse" x="1" y="1" width="415" height="448">
<rect x="1" y="1" width="414.297" height="447.476" fill="#F5F5FA"/>
</mask>
<g mask="url(#mask0_112_4)">
<path d="M326.75 -44L281.75 -44L281.75 23.599L326.75 23.599L326.75 -44ZM326.75 -44L326.75 -32.7335L315.5 -32.7335L315.5 -21.467L326.75 -21.467L326.75 -10.2005L315.5 -10.2005L315.5 1.06603L326.75 1.06603L326.75 12.3325L315.5 12.3325L315.5 23.599L304.25 23.599L304.25 12.3325L293 12.3325L293 23.599L281.75 23.599L281.75 12.3325L293 12.3325L293 1.06603L281.75 1.06603L281.75 -10.2005L293 -10.2005L293 -21.467L281.75 -21.467L281.75 -32.7335L293 -32.7335L293 -44L304.25 -44L304.25 -32.7335L315.5 -32.7335L315.5 -44L326.75 -44ZM304.25 -32.7335L293 -32.7335L293 -21.467L304.25 -21.467L304.25 -32.7335ZM304.25 -21.467L304.25 -10.2005L315.5 -10.2005L315.5 -21.467L304.25 -21.467ZM304.25 -10.2005L293 -10.2005L293 1.06603L304.25 1.06603L304.25 -10.2005ZM304.25 1.06603L304.25 12.3325L315.5 12.3325L315.5 1.06603L304.25 1.06603Z" fill="#5AAF21" fill-opacity="0.5"/>
<path d="M281.75 -44L236.75 -44L236.75 23.599L281.75 23.599L281.75 -44ZM281.75 -44L281.75 -32.7335L270.5 -32.7335L270.5 -21.467L281.75 -21.467L281.75 -10.2005L270.5 -10.2005L270.5 1.06603L281.75 1.06603L281.75 12.3325L270.5 12.3325L270.5 23.599L259.25 23.599L259.25 12.3325L248 12.3325L248 23.599L236.75 23.599L236.75 12.3325L248 12.3325L248 1.06603L236.75 1.06603L236.75 -10.2005L248 -10.2005L248 -21.467L236.75 -21.467L236.75 -32.7335L248 -32.7335L248 -44L259.25 -44L259.25 -32.7335L270.5 -32.7335L270.5 -44L281.75 -44ZM259.25 -32.7335L248 -32.7335L248 -21.467L259.25 -21.467L259.25 -32.7335ZM259.25 -21.467L259.25 -10.2005L270.5 -10.2005L270.5 -21.467L259.25 -21.467ZM259.25 -10.2005L248 -10.2005L248 1.06603L259.25 1.06603L259.25 -10.2005ZM259.25 1.06603L259.25 12.3325L270.5 12.3325L270.5 1.06603L259.25 1.06603Z" fill="#5AAF21" fill-opacity="0.5"/>
<path d="M236.75 -44L191.75 -44L191.75 23.599L236.75 23.599L236.75 -44ZM236.75 -44L236.75 -32.7335L225.5 -32.7335L225.5 -21.467L236.75 -21.467L236.75 -10.2005L225.5 -10.2005L225.5 1.06603L236.75 1.06603L236.75 12.3325L225.5 12.3325L225.5 23.599L214.25 23.599L214.25 12.3325L203 12.3325L203 23.599L191.75 23.599L191.75 12.3325L203 12.3325L203 1.06603L191.75 1.06603L191.75 -10.2005L203 -10.2005L203 -21.467L191.75 -21.467L191.75 -32.7335L203 -32.7335L203 -44L214.25 -44L214.25 -32.7335L225.5 -32.7335L225.5 -44L236.75 -44ZM214.25 -32.7335L203 -32.7335L203 -21.467L214.25 -21.467L214.25 -32.7335ZM214.25 -21.467L214.25 -10.2005L225.5 -10.2005L225.5 -21.467L214.25 -21.467ZM214.25 -10.2005L203 -10.2005L203 1.06603L214.25 1.06603L214.25 -10.2005ZM214.25 1.06603L214.25 12.3325L225.5 12.3325L225.5 1.06603L214.25 1.06603Z" fill="#5AAF21" fill-opacity="0.5"/>
<path d="M191.75 -44L146.75 -44L146.75 23.599L191.75 23.599L191.75 -44ZM191.75 -44L191.75 -32.7335L180.5 -32.7335L180.5 -21.467L191.75 -21.467L191.75 -10.2005L180.5 -10.2005L180.5 1.06603L191.75 1.06603L191.75 12.3325L180.5 12.3325L180.5 23.599L169.25 23.599L169.25 12.3325L158 12.3325L158 23.599L146.75 23.599L146.75 12.3325L158 12.3325L158 1.06603L146.75 1.06603L146.75 -10.2005L158 -10.2005L158 -21.467L146.75 -21.467L146.75 -32.7335L158 -32.7335L158 -44L169.25 -44L169.25 -32.7335L180.5 -32.7335L180.5 -44L191.75 -44ZM169.25 -32.7335L158 -32.7335L158 -21.467L169.25 -21.467L169.25 -32.7335ZM169.25 -21.467L169.25 -10.2005L180.5 -10.2005L180.5 -21.467L169.25 -21.467ZM169.25 -10.2005L158 -10.2005L158 1.06603L169.25 1.06603L169.25 -10.2005ZM169.25 1.06603L169.25 12.3325L180.5 12.3325L180.5 1.06603L169.25 1.06603Z" fill="#5AAF21" fill-opacity="0.5"/>
<path d="M146.75 -44L101.75 -44L101.75 23.599L146.75 23.599L146.75 -44ZM146.75 -44L146.75 -32.7335L135.5 -32.7335L135.5 -21.467L146.75 -21.467L146.75 -10.2005L135.5 -10.2005L135.5 1.06603L146.75 1.06603L146.75 12.3325L135.5 12.3325L135.5 23.599L124.25 23.599L124.25 12.3325L113 12.3325L113 23.599L101.75 23.599L101.75 12.3325L113 12.3325L113 1.06603L101.75 1.06603L101.75 -10.2005L113 -10.2005L113 -21.467L101.75 -21.467L101.75 -32.7335L113 -32.7335L113 -44L124.25 -44L124.25 -32.7335L135.5 -32.7335L135.5 -44L146.75 -44ZM124.25 -32.7335L113 -32.7335L113 -21.467L124.25 -21.467L124.25 -32.7335ZM124.25 -21.467L124.25 -10.2005L135.5 -10.2005L135.5 -21.467L124.25 -21.467ZM124.25 -10.2005L113 -10.2005L113 1.06603L124.25 1.06603L124.25 -10.2005ZM124.25 1.06603L124.25 12.3325L135.5 12.3325L135.5 1.06603L124.25 1.06603Z" fill="#5AAF21" fill-opacity="0.5"/>
<path d="M101.75 -44L56.75 -44L56.75 23.599L101.75 23.599L101.75 -44ZM101.75 -44L101.75 -32.7335L90.5 -32.7335L90.5 -21.467L101.75 -21.467L101.75 -10.2005L90.5 -10.2005L90.5 1.06603L101.75 1.06603L101.75 12.3325L90.5 12.3325L90.5 23.599L79.25 23.599L79.25 12.3325L68 12.3325L68 23.599L56.75 23.599L56.75 12.3325L68 12.3325L68 1.06603L56.75 1.06603L56.75 -10.2005L68 -10.2005L68 -21.467L56.75 -21.467L56.75 -32.7335L68 -32.7335L68 -44L79.25 -44L79.25 -32.7335L90.5 -32.7335L90.5 -44L101.75 -44ZM79.25 -32.7335L68 -32.7335L68 -21.467L79.25 -21.467L79.25 -32.7335ZM79.25 -21.467L79.25 -10.2005L90.5 -10.2005L90.5 -21.467L79.25 -21.467ZM79.25 -10.2005L68 -10.2005L68 1.06603L79.25 1.06603L79.25 -10.2005ZM79.25 1.06603L79.25 12.3325L90.5 12.3325L90.5 1.06603L79.25 1.06603Z" fill="#5AAF21" fill-opacity="0.5"/>
<path d="M56.75 -44L11.75 -44L11.75 23.599L56.75 23.599L56.75 -44ZM56.75 -44L56.75 -32.7335L45.5 -32.7335L45.5 -21.467L56.75 -21.467L56.75 -10.2005L45.5 -10.2005L45.5 1.06603L56.75 1.06603L56.75 12.3325L45.5 12.3325L45.5 23.599L34.25 23.599L34.25 12.3325L23 12.3325L23 23.599L11.75 23.599L11.75 12.3325L23 12.3325L23 1.06603L11.75 1.06603L11.75 -10.2005L23 -10.2005L23 -21.467L11.75 -21.467L11.75 -32.7335L23 -32.7335L23 -44L34.25 -44L34.25 -32.7335L45.5 -32.7335L45.5 -44L56.75 -44ZM34.25 -32.7335L23 -32.7335L23 -21.467L34.25 -21.467L34.25 -32.7335ZM34.25 -21.467L34.25 -10.2005L45.5 -10.2005L45.5 -21.467L34.25 -21.467ZM34.25 -10.2005L23 -10.2005L23 1.06603L34.25 1.06603L34.25 -10.2005ZM34.25 1.06603L34.25 12.3325L45.5 12.3325L45.5 1.06603L34.25 1.06603Z" fill="#5AAF21" fill-opacity="0.5"/>
<path d="M11.75 -44L-22 -44L-14.5 23.599L11.75 23.599L11.75 -44ZM11.75 -44L11.75 -32.7335L0.499969 -32.7335L0.499968 -21.467L11.75 -21.467L11.75 -10.2005L0.499968 -10.2005L0.499968 1.06603L11.75 1.06603L11.75 12.3325L0.499967 12.3325L0.499967 23.599L-10.75 23.599L-10.75 12.3325L-22 12.3325L-22 1.06603L-22 -10.2005L-22 -21.467L-22 -32.7335L-22 -44L-10.75 -44L-10.75 -32.7335L0.499969 -32.7335L0.499969 -44L11.75 -44ZM-10.75 -32.7335L-22 -32.7335L-22 -21.467L-10.75 -21.467L-10.75 -32.7335ZM-10.75 -21.467L-10.75 -10.2005L0.499968 -10.2005L0.499968 -21.467L-10.75 -21.467ZM-10.75 -10.2005L-22 -10.2005L-22 1.06603L-10.75 1.06603L-10.75 -10.2005ZM-10.75 1.06603L-10.75 12.3325L0.499967 12.3325L0.499968 1.06603L-10.75 1.06603Z" fill="#5AAF21" fill-opacity="0.5"/>
<path d="M11.75 23.0981L-22 23.0981L-14.5 90.6972L11.75 90.6972L11.75 23.0981ZM11.75 23.0981L11.75 34.3647L0.499969 34.3647L0.499968 45.6312L11.75 45.6312L11.75 56.8977L0.499968 56.8977L0.499968 68.1642L11.75 68.1642L11.75 79.4307L0.499967 79.4307L0.499967 90.6972L-10.75 90.6972L-10.75 79.4307L-22 79.4307L-22 68.1642L-22 56.8977L-22 45.6312L-22 34.3647L-22 23.0981L-10.75 23.0981L-10.75 34.3647L0.499969 34.3647L0.499969 23.0981L11.75 23.0981ZM-10.75 34.3647L-22 34.3647L-22 45.6312L-10.75 45.6312L-10.75 34.3647ZM-10.75 45.6312L-10.75 56.8977L0.499968 56.8977L0.499968 45.6312L-10.75 45.6312ZM-10.75 56.8977L-22 56.8977L-22 68.1642L-10.75 68.1642L-10.75 56.8977ZM-10.75 68.1642L-10.75 79.4307L0.499967 79.4307L0.499968 68.1642L-10.75 68.1642Z" fill="#5AAF21" fill-opacity="0.5"/>
<path d="M11.75 90.1968L-22 90.1968L-14.5 157.796L11.75 157.796L11.75 90.1968ZM11.75 90.1968L11.75 101.463L0.499969 101.463L0.499968 112.73L11.75 112.73L11.75 123.996L0.499968 123.996L0.499968 135.263L11.75 135.263L11.75 146.529L0.499967 146.529L0.499967 157.796L-10.75 157.796L-10.75 146.529L-22 146.529L-22 135.263L-22 123.996L-22 112.73L-22 101.463L-22 90.1968L-10.75 90.1968L-10.75 101.463L0.499969 101.463L0.499969 90.1968L11.75 90.1968ZM-10.75 101.463L-22 101.463L-22 112.73L-10.75 112.73L-10.75 101.463ZM-10.75 112.73L-10.75 123.996L0.499968 123.996L0.499968 112.73L-10.75 112.73ZM-10.75 123.996L-22 123.996L-22 135.263L-10.75 135.263L-10.75 123.996ZM-10.75 135.263L-10.75 146.529L0.499967 146.529L0.499968 135.263L-10.75 135.263Z" fill="#5AAF21" fill-opacity="0.5"/>
<path d="M11.75 157.295L-22 157.295L-14.5 224.894L11.75 224.894L11.75 157.295ZM11.75 157.295L11.75 168.561L0.499969 168.561L0.499968 179.828L11.75 179.828L11.75 191.094L0.499968 191.094L0.499968 202.361L11.75 202.361L11.75 213.627L0.499967 213.627L0.499967 224.894L-10.75 224.894L-10.75 213.627L-22 213.627L-22 202.361L-22 191.094L-22 179.828L-22 168.561L-22 157.295L-10.75 157.295L-10.75 168.561L0.499969 168.561L0.499969 157.295L11.75 157.295ZM-10.75 168.561L-22 168.561L-22 179.828L-10.75 179.828L-10.75 168.561ZM-10.75 179.828L-10.75 191.094L0.499968 191.094L0.499968 179.828L-10.75 179.828ZM-10.75 191.094L-22 191.094L-22 202.361L-10.75 202.361L-10.75 191.094ZM-10.75 202.361L-10.75 213.627L0.499967 213.627L0.499968 202.361L-10.75 202.361Z" fill="#5AAF21" fill-opacity="0.5"/>
<path d="M11.75 224.393L-22 224.393L-14.5 291.992L11.75 291.992L11.75 224.393ZM11.75 224.393L11.75 235.66L0.5 235.66L0.499999 246.926L11.75 246.926L11.75 258.193L0.499999 258.193L0.499998 269.459L11.75 269.459L11.75 280.726L0.499998 280.726L0.499997 291.992L-10.75 291.992L-10.75 280.726L-22 280.726L-22 269.459L-22 258.193L-22 246.926L-22 235.66L-22 224.393L-10.75 224.393L-10.75 235.66L0.5 235.66L0.5 224.393L11.75 224.393ZM-10.75 235.66L-22 235.66L-22 246.926L-10.75 246.926L-10.75 235.66ZM-10.75 246.926L-10.75 258.193L0.499999 258.193L0.499999 246.926L-10.75 246.926ZM-10.75 258.193L-22 258.193L-22 269.459L-10.75 269.459L-10.75 258.193ZM-10.75 269.459L-10.75 280.726L0.499998 280.726L0.499998 269.459L-10.75 269.459Z" fill="#5AAF21" fill-opacity="0.5"/>
<path d="M11.75 291.492L-22 291.492L-14.5 359.091L11.75 359.091L11.75 291.492ZM11.75 291.492L11.75 302.758L0.5 302.758L0.499999 314.025L11.75 314.025L11.75 325.291L0.499999 325.291L0.499998 336.558L11.75 336.558L11.75 347.824L0.499998 347.824L0.499997 359.091L-10.75 359.091L-10.75 347.824L-22 347.824L-22 336.558L-22 325.291L-22 314.025L-22 302.758L-22 291.492L-10.75 291.492L-10.75 302.758L0.5 302.758L0.5 291.492L11.75 291.492ZM-10.75 302.758L-22 302.758L-22 314.025L-10.75 314.025L-10.75 302.758ZM-10.75 314.025L-10.75 325.291L0.499999 325.291L0.499999 314.025L-10.75 314.025ZM-10.75 325.291L-22 325.291L-22 336.558L-10.75 336.558L-10.75 325.291ZM-10.75 336.558L-10.75 347.824L0.499998 347.824L0.499998 336.558L-10.75 336.558Z" fill="#5AAF21" fill-opacity="0.5"/>
<path d="M11.75 358.59L-22 358.59L-14.5 426.189L11.75 426.189L11.75 358.59ZM11.75 358.59L11.75 369.856L0.499969 369.856L0.499968 381.123L11.75 381.123L11.75 392.389L0.499968 392.389L0.499968 403.656L11.75 403.656L11.75 414.922L0.499967 414.922L0.499967 426.189L-10.75 426.189L-10.75 414.922L-22 414.922L-22 403.656L-22 392.389L-22 381.123L-22 369.856L-22 358.59L-10.75 358.59L-10.75 369.856L0.499969 369.856L0.499969 358.59L11.75 358.59ZM-10.75 369.856L-22 369.856L-22 381.123L-10.75 381.123L-10.75 369.856ZM-10.75 381.123L-10.75 392.389L0.499968 392.389L0.499968 381.123L-10.75 381.123ZM-10.75 392.389L-22 392.389L-22 403.656L-10.75 403.656L-10.75 392.389ZM-10.75 403.656L-10.75 414.922L0.499967 414.922L0.499968 403.656L-10.75 403.656Z" fill="#5AAF21" fill-opacity="0.5"/>
<path d="M11.75 425.688L-22 425.688L-14.5 493.287L11.75 493.287L11.75 425.688ZM11.75 425.688L11.75 436.954L0.499969 436.954L0.499968 448.221L11.75 448.221L11.75 459.488L0.499968 459.488L0.499968 470.754L11.75 470.754L11.75 482.021L0.499967 482.021L0.499967 493.287L-10.75 493.287L-10.75 482.021L-22 482.021L-22 470.754L-22 459.488L-22 448.221L-22 436.954L-22 425.688L-10.75 425.688L-10.75 436.954L0.499969 436.954L0.499969 425.688L11.75 425.688ZM-10.75 436.954L-22 436.954L-22 448.221L-10.75 448.221L-10.75 436.954ZM-10.75 448.221L-10.75 459.488L0.499968 459.488L0.499968 448.221L-10.75 448.221ZM-10.75 459.488L-22 459.488L-22 470.754L-10.75 470.754L-10.75 459.488ZM-10.75 470.754L-10.75 482.021L0.499967 482.021L0.499968 470.754L-10.75 470.754Z" fill="#5AAF21" fill-opacity="0.5"/>
<path d="M326.75 23.0981L281.75 23.0981L281.75 90.6972L326.75 90.6972L326.75 23.0981ZM326.75 23.0981L326.75 34.3647L315.5 34.3647L315.5 45.6312L326.75 45.6312L326.75 56.8977L315.5 56.8977L315.5 68.1642L326.75 68.1642L326.75 79.4307L315.5 79.4307L315.5 90.6972L304.25 90.6972L304.25 79.4307L293 79.4307L293 90.6972L281.75 90.6972L281.75 79.4307L293 79.4307L293 68.1642L281.75 68.1642L281.75 56.8977L293 56.8977L293 45.6312L281.75 45.6312L281.75 34.3646L293 34.3647L293 23.0981L304.25 23.0981L304.25 34.3647L315.5 34.3647L315.5 23.0981L326.75 23.0981ZM304.25 34.3647L293 34.3647L293 45.6312L304.25 45.6312L304.25 34.3647ZM304.25 45.6312L304.25 56.8977L315.5 56.8977L315.5 45.6312L304.25 45.6312ZM304.25 56.8977L293 56.8977L293 68.1642L304.25 68.1642L304.25 56.8977ZM304.25 68.1642L304.25 79.4307L315.5 79.4307L315.5 68.1642L304.25 68.1642Z" fill="#5AAF21" fill-opacity="0.5"/>
<path d="M281.75 23.0981L236.75 23.0981L236.75 90.6972L281.75 90.6972L281.75 23.0981ZM281.75 23.0981L281.75 34.3647L270.5 34.3647L270.5 45.6312L281.75 45.6312L281.75 56.8977L270.5 56.8977L270.5 68.1642L281.75 68.1642L281.75 79.4307L270.5 79.4307L270.5 90.6972L259.25 90.6972L259.25 79.4307L248 79.4307L248 90.6972L236.75 90.6972L236.75 79.4307L248 79.4307L248 68.1642L236.75 68.1642L236.75 56.8977L248 56.8977L248 45.6312L236.75 45.6312L236.75 34.3646L248 34.3647L248 23.0981L259.25 23.0981L259.25 34.3647L270.5 34.3647L270.5 23.0981L281.75 23.0981ZM259.25 34.3647L248 34.3647L248 45.6312L259.25 45.6312L259.25 34.3647ZM259.25 45.6312L259.25 56.8977L270.5 56.8977L270.5 45.6312L259.25 45.6312ZM259.25 56.8977L248 56.8977L248 68.1642L259.25 68.1642L259.25 56.8977ZM259.25 68.1642L259.25 79.4307L270.5 79.4307L270.5 68.1642L259.25 68.1642Z" fill="#5AAF21" fill-opacity="0.5"/>
<path d="M236.75 23.0981L191.75 23.0981L191.75 90.6972L236.75 90.6972L236.75 23.0981ZM236.75 23.0981L236.75 34.3647L225.5 34.3647L225.5 45.6312L236.75 45.6312L236.75 56.8977L225.5 56.8977L225.5 68.1642L236.75 68.1642L236.75 79.4307L225.5 79.4307L225.5 90.6972L214.25 90.6972L214.25 79.4307L203 79.4307L203 90.6972L191.75 90.6972L191.75 79.4307L203 79.4307L203 68.1642L191.75 68.1642L191.75 56.8977L203 56.8977L203 45.6312L191.75 45.6312L191.75 34.3646L203 34.3647L203 23.0981L214.25 23.0981L214.25 34.3647L225.5 34.3647L225.5 23.0981L236.75 23.0981ZM214.25 34.3647L203 34.3647L203 45.6312L214.25 45.6312L214.25 34.3647ZM214.25 45.6312L214.25 56.8977L225.5 56.8977L225.5 45.6312L214.25 45.6312ZM214.25 56.8977L203 56.8977L203 68.1642L214.25 68.1642L214.25 56.8977ZM214.25 68.1642L214.25 79.4307L225.5 79.4307L225.5 68.1642L214.25 68.1642Z" fill="#5AAF21" fill-opacity="0.5"/>
<path d="M191.75 23.0981L146.75 23.0981L146.75 90.6972L191.75 90.6972L191.75 23.0981ZM191.75 23.0981L191.75 34.3647L180.5 34.3647L180.5 45.6312L191.75 45.6312L191.75 56.8977L180.5 56.8977L180.5 68.1642L191.75 68.1642L191.75 79.4307L180.5 79.4307L180.5 90.6972L169.25 90.6972L169.25 79.4307L158 79.4307L158 90.6972L146.75 90.6972L146.75 79.4307L158 79.4307L158 68.1642L146.75 68.1642L146.75 56.8977L158 56.8977L158 45.6312L146.75 45.6312L146.75 34.3646L158 34.3647L158 23.0981L169.25 23.0981L169.25 34.3647L180.5 34.3647L180.5 23.0981L191.75 23.0981ZM169.25 34.3647L158 34.3647L158 45.6312L169.25 45.6312L169.25 34.3647ZM169.25 45.6312L169.25 56.8977L180.5 56.8977L180.5 45.6312L169.25 45.6312ZM169.25 56.8977L158 56.8977L158 68.1642L169.25 68.1642L169.25 56.8977ZM169.25 68.1642L169.25 79.4307L180.5 79.4307L180.5 68.1642L169.25 68.1642Z" fill="#5AAF21" fill-opacity="0.5"/>
<path d="M146.75 23.0981L101.75 23.0981L101.75 90.6972L146.75 90.6972L146.75 23.0981ZM146.75 23.0981L146.75 34.3647L135.5 34.3647L135.5 45.6312L146.75 45.6312L146.75 56.8977L135.5 56.8977L135.5 68.1642L146.75 68.1642L146.75 79.4307L135.5 79.4307L135.5 90.6972L124.25 90.6972L124.25 79.4307L113 79.4307L113 90.6972L101.75 90.6972L101.75 79.4307L113 79.4307L113 68.1642L101.75 68.1642L101.75 56.8977L113 56.8977L113 45.6312L101.75 45.6312L101.75 34.3646L113 34.3647L113 23.0981L124.25 23.0981L124.25 34.3647L135.5 34.3647L135.5 23.0981L146.75 23.0981ZM124.25 34.3647L113 34.3647L113 45.6312L124.25 45.6312L124.25 34.3647ZM124.25 45.6312L124.25 56.8977L135.5 56.8977L135.5 45.6312L124.25 45.6312ZM124.25 56.8977L113 56.8977L113 68.1642L124.25 68.1642L124.25 56.8977ZM124.25 68.1642L124.25 79.4307L135.5 79.4307L135.5 68.1642L124.25 68.1642Z" fill="#5AAF21" fill-opacity="0.5"/>
<path d="M101.75 23.0981L56.75 23.0981L56.75 90.6972L101.75 90.6972L101.75 23.0981ZM101.75 23.0981L101.75 34.3647L90.5 34.3647L90.5 45.6312L101.75 45.6312L101.75 56.8977L90.5 56.8977L90.5 68.1642L101.75 68.1642L101.75 79.4307L90.5 79.4307L90.5 90.6972L79.25 90.6972L79.25 79.4307L68 79.4307L68 90.6972L56.75 90.6972L56.75 79.4307L68 79.4307L68 68.1642L56.75 68.1642L56.75 56.8977L68 56.8977L68 45.6312L56.75 45.6312L56.75 34.3646L68 34.3647L68 23.0981L79.25 23.0981L79.25 34.3647L90.5 34.3647L90.5 23.0981L101.75 23.0981ZM79.25 34.3647L68 34.3647L68 45.6312L79.25 45.6312L79.25 34.3647ZM79.25 45.6312L79.25 56.8977L90.5 56.8977L90.5 45.6312L79.25 45.6312ZM79.25 56.8977L68 56.8977L68 68.1642L79.25 68.1642L79.25 56.8977ZM79.25 68.1642L79.25 79.4307L90.5 79.4307L90.5 68.1642L79.25 68.1642Z" fill="#5AAF21" fill-opacity="0.5"/>
<path d="M56.75 23.0981L11.75 23.0981L11.75 90.6972L56.75 90.6972L56.75 23.0981ZM56.75 23.0981L56.75 34.3647L45.5 34.3647L45.5 45.6312L56.75 45.6312L56.75 56.8977L45.5 56.8977L45.5 68.1642L56.75 68.1642L56.75 79.4307L45.5 79.4307L45.5 90.6972L34.25 90.6972L34.25 79.4307L23 79.4307L23 90.6972L11.75 90.6972L11.75 79.4307L23 79.4307L23 68.1642L11.75 68.1642L11.75 56.8977L23 56.8977L23 45.6312L11.75 45.6312L11.75 34.3646L23 34.3647L23 23.0981L34.25 23.0981L34.25 34.3647L45.5 34.3647L45.5 23.0981L56.75 23.0981ZM34.25 34.3647L23 34.3647L23 45.6312L34.25 45.6312L34.25 34.3647ZM34.25 45.6312L34.25 56.8977L45.5 56.8977L45.5 45.6312L34.25 45.6312ZM34.25 56.8977L23 56.8977L23 68.1642L34.25 68.1642L34.25 56.8977ZM34.25 68.1642L34.25 79.4307L45.5 79.4307L45.5 68.1642L34.25 68.1642Z" fill="#5AAF21" fill-opacity="0.5"/>
<path d="M326.75 90.1968L281.75 90.1968L281.75 157.796L326.75 157.796L326.75 90.1968ZM326.75 90.1968L326.75 101.463L315.5 101.463L315.5 112.73L326.75 112.73L326.75 123.996L315.5 123.996L315.5 135.263L326.75 135.263L326.75 146.529L315.5 146.529L315.5 157.796L304.25 157.796L304.25 146.529L293 146.529L293 157.796L281.75 157.796L281.75 146.529L293 146.529L293 135.263L281.75 135.263L281.75 123.996L293 123.996L293 112.73L281.75 112.73L281.75 101.463L293 101.463L293 90.1968L304.25 90.1968L304.25 101.463L315.5 101.463L315.5 90.1968L326.75 90.1968ZM304.25 101.463L293 101.463L293 112.73L304.25 112.73L304.25 101.463ZM304.25 112.73L304.25 123.996L315.5 123.996L315.5 112.73L304.25 112.73ZM304.25 123.996L293 123.996L293 135.263L304.25 135.263L304.25 123.996ZM304.25 135.263L304.25 146.529L315.5 146.529L315.5 135.263L304.25 135.263Z" fill="#5AAF21" fill-opacity="0.5"/>
<path d="M281.75 90.1968L236.75 90.1968L236.75 157.796L281.75 157.796L281.75 90.1968ZM281.75 90.1968L281.75 101.463L270.5 101.463L270.5 112.73L281.75 112.73L281.75 123.996L270.5 123.996L270.5 135.263L281.75 135.263L281.75 146.529L270.5 146.529L270.5 157.796L259.25 157.796L259.25 146.529L248 146.529L248 157.796L236.75 157.796L236.75 146.529L248 146.529L248 135.263L236.75 135.263L236.75 123.996L248 123.996L248 112.73L236.75 112.73L236.75 101.463L248 101.463L248 90.1968L259.25 90.1968L259.25 101.463L270.5 101.463L270.5 90.1968L281.75 90.1968ZM259.25 101.463L248 101.463L248 112.73L259.25 112.73L259.25 101.463ZM259.25 112.73L259.25 123.996L270.5 123.996L270.5 112.73L259.25 112.73ZM259.25 123.996L248 123.996L248 135.263L259.25 135.263L259.25 123.996ZM259.25 135.263L259.25 146.529L270.5 146.529L270.5 135.263L259.25 135.263Z" fill="#5AAF21" fill-opacity="0.5"/>
<path d="M236.75 90.1968L191.75 90.1968L191.75 157.796L236.75 157.796L236.75 90.1968ZM236.75 90.1968L236.75 101.463L225.5 101.463L225.5 112.73L236.75 112.73L236.75 123.996L225.5 123.996L225.5 135.263L236.75 135.263L236.75 146.529L225.5 146.529L225.5 157.796L214.25 157.796L214.25 146.529L203 146.529L203 157.796L191.75 157.796L191.75 146.529L203 146.529L203 135.263L191.75 135.263L191.75 123.996L203 123.996L203 112.73L191.75 112.73L191.75 101.463L203 101.463L203 90.1968L214.25 90.1968L214.25 101.463L225.5 101.463L225.5 90.1968L236.75 90.1968ZM214.25 101.463L203 101.463L203 112.73L214.25 112.73L214.25 101.463ZM214.25 112.73L214.25 123.996L225.5 123.996L225.5 112.73L214.25 112.73ZM214.25 123.996L203 123.996L203 135.263L214.25 135.263L214.25 123.996ZM214.25 135.263L214.25 146.529L225.5 146.529L225.5 135.263L214.25 135.263Z" fill="#5AAF21" fill-opacity="0.5"/>
<path d="M191.75 90.1968L146.75 90.1968L146.75 157.796L191.75 157.796L191.75 90.1968ZM191.75 90.1968L191.75 101.463L180.5 101.463L180.5 112.73L191.75 112.73L191.75 123.996L180.5 123.996L180.5 135.263L191.75 135.263L191.75 146.529L180.5 146.529L180.5 157.796L169.25 157.796L169.25 146.529L158 146.529L158 157.796L146.75 157.796L146.75 146.529L158 146.529L158 135.263L146.75 135.263L146.75 123.996L158 123.996L158 112.73L146.75 112.73L146.75 101.463L158 101.463L158 90.1968L169.25 90.1968L169.25 101.463L180.5 101.463L180.5 90.1968L191.75 90.1968ZM169.25 101.463L158 101.463L158 112.73L169.25 112.73L169.25 101.463ZM169.25 112.73L169.25 123.996L180.5 123.996L180.5 112.73L169.25 112.73ZM169.25 123.996L158 123.996L158 135.263L169.25 135.263L169.25 123.996ZM169.25 135.263L169.25 146.529L180.5 146.529L180.5 135.263L169.25 135.263Z" fill="#5AAF21" fill-opacity="0.5"/>
<path d="M146.75 90.1968L101.75 90.1968L101.75 157.796L146.75 157.796L146.75 90.1968ZM146.75 90.1968L146.75 101.463L135.5 101.463L135.5 112.73L146.75 112.73L146.75 123.996L135.5 123.996L135.5 135.263L146.75 135.263L146.75 146.529L135.5 146.529L135.5 157.796L124.25 157.796L124.25 146.529L113 146.529L113 157.796L101.75 157.796L101.75 146.529L113 146.529L113 135.263L101.75 135.263L101.75 123.996L113 123.996L113 112.73L101.75 112.73L101.75 101.463L113 101.463L113 90.1968L124.25 90.1968L124.25 101.463L135.5 101.463L135.5 90.1968L146.75 90.1968ZM124.25 101.463L113 101.463L113 112.73L124.25 112.73L124.25 101.463ZM124.25 112.73L124.25 123.996L135.5 123.996L135.5 112.73L124.25 112.73ZM124.25 123.996L113 123.996L113 135.263L124.25 135.263L124.25 123.996ZM124.25 135.263L124.25 146.529L135.5 146.529L135.5 135.263L124.25 135.263Z" fill="#5AAF21" fill-opacity="0.5"/>
<path d="M101.75 90.1968L56.75 90.1968L56.75 157.796L101.75 157.796L101.75 90.1968ZM101.75 90.1968L101.75 101.463L90.5 101.463L90.5 112.73L101.75 112.73L101.75 123.996L90.5 123.996L90.5 135.263L101.75 135.263L101.75 146.529L90.5 146.529L90.5 157.796L79.25 157.796L79.25 146.529L68 146.529L68 157.796L56.75 157.796L56.75 146.529L68 146.529L68 135.263L56.75 135.263L56.75 123.996L68 123.996L68 112.73L56.75 112.73L56.75 101.463L68 101.463L68 90.1968L79.25 90.1968L79.25 101.463L90.5 101.463L90.5 90.1968L101.75 90.1968ZM79.25 101.463L68 101.463L68 112.73L79.25 112.73L79.25 101.463ZM79.25 112.73L79.25 123.996L90.5 123.996L90.5 112.73L79.25 112.73ZM79.25 123.996L68 123.996L68 135.263L79.25 135.263L79.25 123.996ZM79.25 135.263L79.25 146.529L90.5 146.529L90.5 135.263L79.25 135.263Z" fill="#5AAF21" fill-opacity="0.5"/>
<path d="M56.75 90.1968L11.75 90.1968L11.75 157.796L56.75 157.796L56.75 90.1968ZM56.75 90.1968L56.75 101.463L45.5 101.463L45.5 112.73L56.75 112.73L56.75 123.996L45.5 123.996L45.5 135.263L56.75 135.263L56.75 146.529L45.5 146.529L45.5 157.796L34.25 157.796L34.25 146.529L23 146.529L23 157.796L11.75 157.796L11.75 146.529L23 146.529L23 135.263L11.75 135.263L11.75 123.996L23 123.996L23 112.73L11.75 112.73L11.75 101.463L23 101.463L23 90.1968L34.25 90.1968L34.25 101.463L45.5 101.463L45.5 90.1968L56.75 90.1968ZM34.25 101.463L23 101.463L23 112.73L34.25 112.73L34.25 101.463ZM34.25 112.73L34.25 123.996L45.5 123.996L45.5 112.73L34.25 112.73ZM34.25 123.996L23 123.996L23 135.263L34.25 135.263L34.25 123.996ZM34.25 135.263L34.25 146.529L45.5 146.529L45.5 135.263L34.25 135.263Z" fill="#5AAF21" fill-opacity="0.5"/>
<path d="M326.75 157.295L281.75 157.295L281.75 224.894L326.75 224.894L326.75 157.295ZM326.75 157.295L326.75 168.561L315.5 168.561L315.5 179.828L326.75 179.828L326.75 191.094L315.5 191.094L315.5 202.361L326.75 202.361L326.75 213.627L315.5 213.627L315.5 224.894L304.25 224.894L304.25 213.627L293 213.627L293 224.894L281.75 224.894L281.75 213.627L293 213.627L293 202.361L281.75 202.361L281.75 191.094L293 191.094L293 179.828L281.75 179.828L281.75 168.561L293 168.561L293 157.295L304.25 157.295L304.25 168.561L315.5 168.561L315.5 157.295L326.75 157.295ZM304.25 168.561L293 168.561L293 179.828L304.25 179.828L304.25 168.561ZM304.25 179.828L304.25 191.094L315.5 191.094L315.5 179.828L304.25 179.828ZM304.25 191.094L293 191.094L293 202.361L304.25 202.361L304.25 191.094ZM304.25 202.361L304.25 213.627L315.5 213.627L315.5 202.361L304.25 202.361Z" fill="#5AAF21" fill-opacity="0.5"/>
<path d="M281.75 157.295L236.75 157.295L236.75 224.894L281.75 224.894L281.75 157.295ZM281.75 157.295L281.75 168.561L270.5 168.561L270.5 179.828L281.75 179.828L281.75 191.094L270.5 191.094L270.5 202.361L281.75 202.361L281.75 213.627L270.5 213.627L270.5 224.894L259.25 224.894L259.25 213.627L248 213.627L248 224.894L236.75 224.894L236.75 213.627L248 213.627L248 202.361L236.75 202.361L236.75 191.094L248 191.094L248 179.828L236.75 179.828L236.75 168.561L248 168.561L248 157.295L259.25 157.295L259.25 168.561L270.5 168.561L270.5 157.295L281.75 157.295ZM259.25 168.561L248 168.561L248 179.828L259.25 179.828L259.25 168.561ZM259.25 179.828L259.25 191.094L270.5 191.094L270.5 179.828L259.25 179.828ZM259.25 191.094L248 191.094L248 202.361L259.25 202.361L259.25 191.094ZM259.25 202.361L259.25 213.627L270.5 213.627L270.5 202.361L259.25 202.361Z" fill="#5AAF21" fill-opacity="0.5"/>
<path d="M236.75 157.295L191.75 157.295L191.75 224.894L236.75 224.894L236.75 157.295ZM236.75 157.295L236.75 168.561L225.5 168.561L225.5 179.828L236.75 179.828L236.75 191.094L225.5 191.094L225.5 202.361L236.75 202.361L236.75 213.627L225.5 213.627L225.5 224.894L214.25 224.894L214.25 213.627L203 213.627L203 224.894L191.75 224.894L191.75 213.627L203 213.627L203 202.361L191.75 202.361L191.75 191.094L203 191.094L203 179.828L191.75 179.828L191.75 168.561L203 168.561L203 157.295L214.25 157.295L214.25 168.561L225.5 168.561L225.5 157.295L236.75 157.295ZM214.25 168.561L203 168.561L203 179.828L214.25 179.828L214.25 168.561ZM214.25 179.828L214.25 191.094L225.5 191.094L225.5 179.828L214.25 179.828ZM214.25 191.094L203 191.094L203 202.361L214.25 202.361L214.25 191.094ZM214.25 202.361L214.25 213.627L225.5 213.627L225.5 202.361L214.25 202.361Z" fill="#5AAF21" fill-opacity="0.5"/>
<path d="M191.75 157.295L146.75 157.295L146.75 224.894L191.75 224.894L191.75 157.295ZM191.75 157.295L191.75 168.561L180.5 168.561L180.5 179.828L191.75 179.828L191.75 191.094L180.5 191.094L180.5 202.361L191.75 202.361L191.75 213.627L180.5 213.627L180.5 224.894L169.25 224.894L169.25 213.627L158 213.627L158 224.894L146.75 224.894L146.75 213.627L158 213.627L158 202.361L146.75 202.361L146.75 191.094L158 191.094L158 179.828L146.75 179.828L146.75 168.561L158 168.561L158 157.295L169.25 157.295L169.25 168.561L180.5 168.561L180.5 157.295L191.75 157.295ZM169.25 168.561L158 168.561L158 179.828L169.25 179.828L169.25 168.561ZM169.25 179.828L169.25 191.094L180.5 191.094L180.5 179.828L169.25 179.828ZM169.25 191.094L158 191.094L158 202.361L169.25 202.361L169.25 191.094ZM169.25 202.361L169.25 213.627L180.5 213.627L180.5 202.361L169.25 202.361Z" fill="#5AAF21" fill-opacity="0.5"/>
<path d="M146.75 157.295L101.75 157.295L101.75 224.894L146.75 224.894L146.75 157.295ZM146.75 157.295L146.75 168.561L135.5 168.561L135.5 179.828L146.75 179.828L146.75 191.094L135.5 191.094L135.5 202.361L146.75 202.361L146.75 213.627L135.5 213.627L135.5 224.894L124.25 224.894L124.25 213.627L113 213.627L113 224.894L101.75 224.894L101.75 213.627L113 213.627L113 202.361L101.75 202.361L101.75 191.094L113 191.094L113 179.828L101.75 179.828L101.75 168.561L113 168.561L113 157.295L124.25 157.295L124.25 168.561L135.5 168.561L135.5 157.295L146.75 157.295ZM124.25 168.561L113 168.561L113 179.828L124.25 179.828L124.25 168.561ZM124.25 179.828L124.25 191.094L135.5 191.094L135.5 179.828L124.25 179.828ZM124.25 191.094L113 191.094L113 202.361L124.25 202.361L124.25 191.094ZM124.25 202.361L124.25 213.627L135.5 213.627L135.5 202.361L124.25 202.361Z" fill="#5AAF21" fill-opacity="0.5"/>
<path d="M101.75 157.295L56.75 157.295L56.75 224.894L101.75 224.894L101.75 157.295ZM101.75 157.295L101.75 168.561L90.5 168.561L90.5 179.828L101.75 179.828L101.75 191.094L90.5 191.094L90.5 202.361L101.75 202.361L101.75 213.627L90.5 213.627L90.5 224.894L79.25 224.894L79.25 213.627L68 213.627L68 224.894L56.75 224.894L56.75 213.627L68 213.627L68 202.361L56.75 202.361L56.75 191.094L68 191.094L68 179.828L56.75 179.828L56.75 168.561L68 168.561L68 157.295L79.25 157.295L79.25 168.561L90.5 168.561L90.5 157.295L101.75 157.295ZM79.25 168.561L68 168.561L68 179.828L79.25 179.828L79.25 168.561ZM79.25 179.828L79.25 191.094L90.5 191.094L90.5 179.828L79.25 179.828ZM79.25 191.094L68 191.094L68 202.361L79.25 202.361L79.25 191.094ZM79.25 202.361L79.25 213.627L90.5 213.627L90.5 202.361L79.25 202.361Z" fill="#5AAF21" fill-opacity="0.5"/>
<path d="M56.75 157.295L11.75 157.295L11.75 224.894L56.75 224.894L56.75 157.295ZM56.75 157.295L56.75 168.561L45.5 168.561L45.5 179.828L56.75 179.828L56.75 191.094L45.5 191.094L45.5 202.361L56.75 202.361L56.75 213.627L45.5 213.627L45.5 224.894L34.25 224.894L34.25 213.627L23 213.627L23 224.894L11.75 224.894L11.75 213.627L23 213.627L23 202.361L11.75 202.361L11.75 191.094L23 191.094L23 179.828L11.75 179.828L11.75 168.561L23 168.561L23 157.295L34.25 157.295L34.25 168.561L45.5 168.561L45.5 157.295L56.75 157.295ZM34.25 168.561L23 168.561L23 179.828L34.25 179.828L34.25 168.561ZM34.25 179.828L34.25 191.094L45.5 191.094L45.5 179.828L34.25 179.828ZM34.25 191.094L23 191.094L23 202.361L34.25 202.361L34.25 191.094ZM34.25 202.361L34.25 213.627L45.5 213.627L45.5 202.361L34.25 202.361Z" fill="#5AAF21" fill-opacity="0.5"/>
<path d="M326.75 224.393L281.75 224.393L281.75 291.992L326.75 291.992L326.75 224.393ZM326.75 224.393L326.75 235.66L315.5 235.66L315.5 246.926L326.75 246.926L326.75 258.193L315.5 258.193L315.5 269.459L326.75 269.459L326.75 280.726L315.5 280.726L315.5 291.992L304.25 291.992L304.25 280.726L293 280.726L293 291.992L281.75 291.992L281.75 280.726L293 280.726L293 269.459L281.75 269.459L281.75 258.193L293 258.193L293 246.926L281.75 246.926L281.75 235.66L293 235.66L293 224.393L304.25 224.393L304.25 235.66L315.5 235.66L315.5 224.393L326.75 224.393ZM304.25 235.66L293 235.66L293 246.926L304.25 246.926L304.25 235.66ZM304.25 246.926L304.25 258.193L315.5 258.193L315.5 246.926L304.25 246.926ZM304.25 258.193L293 258.193L293 269.459L304.25 269.459L304.25 258.193ZM304.25 269.459L304.25 280.726L315.5 280.726L315.5 269.459L304.25 269.459Z" fill="#5AAF21" fill-opacity="0.5"/>
<path d="M281.75 224.393L236.75 224.393L236.75 291.992L281.75 291.992L281.75 224.393ZM281.75 224.393L281.75 235.66L270.5 235.66L270.5 246.926L281.75 246.926L281.75 258.193L270.5 258.193L270.5 269.459L281.75 269.459L281.75 280.726L270.5 280.726L270.5 291.992L259.25 291.992L259.25 280.726L248 280.726L248 291.992L236.75 291.992L236.75 280.726L248 280.726L248 269.459L236.75 269.459L236.75 258.193L248 258.193L248 246.926L236.75 246.926L236.75 235.66L248 235.66L248 224.393L259.25 224.393L259.25 235.66L270.5 235.66L270.5 224.393L281.75 224.393ZM259.25 235.66L248 235.66L248 246.926L259.25 246.926L259.25 235.66ZM259.25 246.926L259.25 258.193L270.5 258.193L270.5 246.926L259.25 246.926ZM259.25 258.193L248 258.193L248 269.459L259.25 269.459L259.25 258.193ZM259.25 269.459L259.25 280.726L270.5 280.726L270.5 269.459L259.25 269.459Z" fill="#5AAF21" fill-opacity="0.5"/>
<path d="M236.75 224.393L191.75 224.393L191.75 291.992L236.75 291.992L236.75 224.393ZM236.75 224.393L236.75 235.66L225.5 235.66L225.5 246.926L236.75 246.926L236.75 258.193L225.5 258.193L225.5 269.459L236.75 269.459L236.75 280.726L225.5 280.726L225.5 291.992L214.25 291.992L214.25 280.726L203 280.726L203 291.992L191.75 291.992L191.75 280.726L203 280.726L203 269.459L191.75 269.459L191.75 258.193L203 258.193L203 246.926L191.75 246.926L191.75 235.66L203 235.66L203 224.393L214.25 224.393L214.25 235.66L225.5 235.66L225.5 224.393L236.75 224.393ZM214.25 235.66L203 235.66L203 246.926L214.25 246.926L214.25 235.66ZM214.25 246.926L214.25 258.193L225.5 258.193L225.5 246.926L214.25 246.926ZM214.25 258.193L203 258.193L203 269.459L214.25 269.459L214.25 258.193ZM214.25 269.459L214.25 280.726L225.5 280.726L225.5 269.459L214.25 269.459Z" fill="#5AAF21" fill-opacity="0.5"/>
<path d="M191.75 224.393L146.75 224.393L146.75 291.992L191.75 291.992L191.75 224.393ZM191.75 224.393L191.75 235.66L180.5 235.66L180.5 246.926L191.75 246.926L191.75 258.193L180.5 258.193L180.5 269.459L191.75 269.459L191.75 280.726L180.5 280.726L180.5 291.992L169.25 291.992L169.25 280.726L158 280.726L158 291.992L146.75 291.992L146.75 280.726L158 280.726L158 269.459L146.75 269.459L146.75 258.193L158 258.193L158 246.926L146.75 246.926L146.75 235.66L158 235.66L158 224.393L169.25 224.393L169.25 235.66L180.5 235.66L180.5 224.393L191.75 224.393ZM169.25 235.66L158 235.66L158 246.926L169.25 246.926L169.25 235.66ZM169.25 246.926L169.25 258.193L180.5 258.193L180.5 246.926L169.25 246.926ZM169.25 258.193L158 258.193L158 269.459L169.25 269.459L169.25 258.193ZM169.25 269.459L169.25 280.726L180.5 280.726L180.5 269.459L169.25 269.459Z" fill="#5AAF21" fill-opacity="0.5"/>
<path d="M146.75 224.393L101.75 224.393L101.75 291.992L146.75 291.992L146.75 224.393ZM146.75 224.393L146.75 235.66L135.5 235.66L135.5 246.926L146.75 246.926L146.75 258.193L135.5 258.193L135.5 269.459L146.75 269.459L146.75 280.726L135.5 280.726L135.5 291.992L124.25 291.992L124.25 280.726L113 280.726L113 291.992L101.75 291.992L101.75 280.726L113 280.726L113 269.459L101.75 269.459L101.75 258.193L113 258.193L113 246.926L101.75 246.926L101.75 235.66L113 235.66L113 224.393L124.25 224.393L124.25 235.66L135.5 235.66L135.5 224.393L146.75 224.393ZM124.25 235.66L113 235.66L113 246.926L124.25 246.926L124.25 235.66ZM124.25 246.926L124.25 258.193L135.5 258.193L135.5 246.926L124.25 246.926ZM124.25 258.193L113 258.193L113 269.459L124.25 269.459L124.25 258.193ZM124.25 269.459L124.25 280.726L135.5 280.726L135.5 269.459L124.25 269.459Z" fill="#5AAF21" fill-opacity="0.5"/>
<path d="M101.75 224.393L56.75 224.393L56.75 291.992L101.75 291.992L101.75 224.393ZM101.75 224.393L101.75 235.66L90.5 235.66L90.5 246.926L101.75 246.926L101.75 258.193L90.5 258.193L90.5 269.459L101.75 269.459L101.75 280.726L90.5 280.726L90.5 291.992L79.25 291.992L79.25 280.726L68 280.726L68 291.992L56.75 291.992L56.75 280.726L68 280.726L68 269.459L56.75 269.459L56.75 258.193L68 258.193L68 246.926L56.75 246.926L56.75 235.66L68 235.66L68 224.393L79.25 224.393L79.25 235.66L90.5 235.66L90.5 224.393L101.75 224.393ZM79.25 235.66L68 235.66L68 246.926L79.25 246.926L79.25 235.66ZM79.25 246.926L79.25 258.193L90.5 258.193L90.5 246.926L79.25 246.926ZM79.25 258.193L68 258.193L68 269.459L79.25 269.459L79.25 258.193ZM79.25 269.459L79.25 280.726L90.5 280.726L90.5 269.459L79.25 269.459Z" fill="#5AAF21" fill-opacity="0.5"/>
<path d="M56.75 224.393L11.75 224.393L11.75 291.992L56.75 291.992L56.75 224.393ZM56.75 224.393L56.75 235.66L45.5 235.66L45.5 246.926L56.75 246.926L56.75 258.193L45.5 258.193L45.5 269.459L56.75 269.459L56.75 280.726L45.5 280.726L45.5 291.992L34.25 291.992L34.25 280.726L23 280.726L23 291.992L11.75 291.992L11.75 280.726L23 280.726L23 269.459L11.75 269.459L11.75 258.193L23 258.193L23 246.926L11.75 246.926L11.75 235.66L23 235.66L23 224.393L34.25 224.393L34.25 235.66L45.5 235.66L45.5 224.393L56.75 224.393ZM34.25 235.66L23 235.66L23 246.926L34.25 246.926L34.25 235.66ZM34.25 246.926L34.25 258.193L45.5 258.193L45.5 246.926L34.25 246.926ZM34.25 258.193L23 258.193L23 269.459L34.25 269.459L34.25 258.193ZM34.25 269.459L34.25 280.726L45.5 280.726L45.5 269.459L34.25 269.459Z" fill="#5AAF21" fill-opacity="0.5"/>
<path d="M326.75 291.492L281.75 291.492L281.75 359.091L326.75 359.091L326.75 291.492ZM326.75 291.492L326.75 302.758L315.5 302.758L315.5 314.025L326.75 314.025L326.75 325.291L315.5 325.291L315.5 336.558L326.75 336.558L326.75 347.824L315.5 347.824L315.5 359.091L304.25 359.091L304.25 347.824L293 347.824L293 359.091L281.75 359.091L281.75 347.824L293 347.824L293 336.558L281.75 336.558L281.75 325.291L293 325.291L293 314.025L281.75 314.025L281.75 302.758L293 302.758L293 291.492L304.25 291.492L304.25 302.758L315.5 302.758L315.5 291.492L326.75 291.492ZM304.25 302.758L293 302.758L293 314.025L304.25 314.025L304.25 302.758ZM304.25 314.025L304.25 325.291L315.5 325.291L315.5 314.025L304.25 314.025ZM304.25 325.291L293 325.291L293 336.558L304.25 336.558L304.25 325.291ZM304.25 336.558L304.25 347.824L315.5 347.824L315.5 336.558L304.25 336.558Z" fill="#5AAF21" fill-opacity="0.5"/>
<path d="M281.75 291.492L236.75 291.492L236.75 359.091L281.75 359.091L281.75 291.492ZM281.75 291.492L281.75 302.758L270.5 302.758L270.5 314.025L281.75 314.025L281.75 325.291L270.5 325.291L270.5 336.558L281.75 336.558L281.75 347.824L270.5 347.824L270.5 359.091L259.25 359.091L259.25 347.824L248 347.824L248 359.091L236.75 359.091L236.75 347.824L248 347.824L248 336.558L236.75 336.558L236.75 325.291L248 325.291L248 314.025L236.75 314.025L236.75 302.758L248 302.758L248 291.492L259.25 291.492L259.25 302.758L270.5 302.758L270.5 291.492L281.75 291.492ZM259.25 302.758L248 302.758L248 314.025L259.25 314.025L259.25 302.758ZM259.25 314.025L259.25 325.291L270.5 325.291L270.5 314.025L259.25 314.025ZM259.25 325.291L248 325.291L248 336.558L259.25 336.558L259.25 325.291ZM259.25 336.558L259.25 347.824L270.5 347.824L270.5 336.558L259.25 336.558Z" fill="#5AAF21" fill-opacity="0.5"/>
<path d="M236.75 291.492L191.75 291.492L191.75 359.091L236.75 359.091L236.75 291.492ZM236.75 291.492L236.75 302.758L225.5 302.758L225.5 314.025L236.75 314.025L236.75 325.291L225.5 325.291L225.5 336.558L236.75 336.558L236.75 347.824L225.5 347.824L225.5 359.091L214.25 359.091L214.25 347.824L203 347.824L203 359.091L191.75 359.091L191.75 347.824L203 347.824L203 336.558L191.75 336.558L191.75 325.291L203 325.291L203 314.025L191.75 314.025L191.75 302.758L203 302.758L203 291.492L214.25 291.492L214.25 302.758L225.5 302.758L225.5 291.492L236.75 291.492ZM214.25 302.758L203 302.758L203 314.025L214.25 314.025L214.25 302.758ZM214.25 314.025L214.25 325.291L225.5 325.291L225.5 314.025L214.25 314.025ZM214.25 325.291L203 325.291L203 336.558L214.25 336.558L214.25 325.291ZM214.25 336.558L214.25 347.824L225.5 347.824L225.5 336.558L214.25 336.558Z" fill="#5AAF21" fill-opacity="0.5"/>
<path d="M191.75 291.492L146.75 291.492L146.75 359.091L191.75 359.091L191.75 291.492ZM191.75 291.492L191.75 302.758L180.5 302.758L180.5 314.025L191.75 314.025L191.75 325.291L180.5 325.291L180.5 336.558L191.75 336.558L191.75 347.824L180.5 347.824L180.5 359.091L169.25 359.091L169.25 347.824L158 347.824L158 359.091L146.75 359.091L146.75 347.824L158 347.824L158 336.558L146.75 336.558L146.75 325.291L158 325.291L158 314.025L146.75 314.025L146.75 302.758L158 302.758L158 291.492L169.25 291.492L169.25 302.758L180.5 302.758L180.5 291.492L191.75 291.492ZM169.25 302.758L158 302.758L158 314.025L169.25 314.025L169.25 302.758ZM169.25 314.025L169.25 325.291L180.5 325.291L180.5 314.025L169.25 314.025ZM169.25 325.291L158 325.291L158 336.558L169.25 336.558L169.25 325.291ZM169.25 336.558L169.25 347.824L180.5 347.824L180.5 336.558L169.25 336.558Z" fill="#5AAF21" fill-opacity="0.5"/>
<path d="M146.75 291.492L101.75 291.492L101.75 359.091L146.75 359.091L146.75 291.492ZM146.75 291.492L146.75 302.758L135.5 302.758L135.5 314.025L146.75 314.025L146.75 325.291L135.5 325.291L135.5 336.558L146.75 336.558L146.75 347.824L135.5 347.824L135.5 359.091L124.25 359.091L124.25 347.824L113 347.824L113 359.091L101.75 359.091L101.75 347.824L113 347.824L113 336.558L101.75 336.558L101.75 325.291L113 325.291L113 314.025L101.75 314.025L101.75 302.758L113 302.758L113 291.492L124.25 291.492L124.25 302.758L135.5 302.758L135.5 291.492L146.75 291.492ZM124.25 302.758L113 302.758L113 314.025L124.25 314.025L124.25 302.758ZM124.25 314.025L124.25 325.291L135.5 325.291L135.5 314.025L124.25 314.025ZM124.25 325.291L113 325.291L113 336.558L124.25 336.558L124.25 325.291ZM124.25 336.558L124.25 347.824L135.5 347.824L135.5 336.558L124.25 336.558Z" fill="#5AAF21" fill-opacity="0.5"/>
<path d="M101.75 291.492L56.75 291.492L56.75 359.091L101.75 359.091L101.75 291.492ZM101.75 291.492L101.75 302.758L90.5 302.758L90.5 314.025L101.75 314.025L101.75 325.291L90.5 325.291L90.5 336.558L101.75 336.558L101.75 347.824L90.5 347.824L90.5 359.091L79.25 359.091L79.25 347.824L68 347.824L68 359.091L56.75 359.091L56.75 347.824L68 347.824L68 336.558L56.75 336.558L56.75 325.291L68 325.291L68 314.025L56.75 314.025L56.75 302.758L68 302.758L68 291.492L79.25 291.492L79.25 302.758L90.5 302.758L90.5 291.492L101.75 291.492ZM79.25 302.758L68 302.758L68 314.025L79.25 314.025L79.25 302.758ZM79.25 314.025L79.25 325.291L90.5 325.291L90.5 314.025L79.25 314.025ZM79.25 325.291L68 325.291L68 336.558L79.25 336.558L79.25 325.291ZM79.25 336.558L79.25 347.824L90.5 347.824L90.5 336.558L79.25 336.558Z" fill="#5AAF21" fill-opacity="0.5"/>
<path d="M56.75 291.492L11.75 291.492L11.75 359.091L56.75 359.091L56.75 291.492ZM56.75 291.492L56.75 302.758L45.5 302.758L45.5 314.025L56.75 314.025L56.75 325.291L45.5 325.291L45.5 336.558L56.75 336.558L56.75 347.824L45.5 347.824L45.5 359.091L34.25 359.091L34.25 347.824L23 347.824L23 359.091L11.75 359.091L11.75 347.824L23 347.824L23 336.558L11.75 336.558L11.75 325.291L23 325.291L23 314.025L11.75 314.025L11.75 302.758L23 302.758L23 291.492L34.25 291.492L34.25 302.758L45.5 302.758L45.5 291.492L56.75 291.492ZM34.25 302.758L23 302.758L23 314.025L34.25 314.025L34.25 302.758ZM34.25 314.025L34.25 325.291L45.5 325.291L45.5 314.025L34.25 314.025ZM34.25 325.291L23 325.291L23 336.558L34.25 336.558L34.25 325.291ZM34.25 336.558L34.25 347.824L45.5 347.824L45.5 336.558L34.25 336.558Z" fill="#5AAF21" fill-opacity="0.5"/>
<path d="M326.75 358.59L281.75 358.59L281.75 426.189L326.75 426.189L326.75 358.59ZM326.75 358.59L326.75 369.856L315.5 369.856L315.5 381.123L326.75 381.123L326.75 392.389L315.5 392.389L315.5 403.656L326.75 403.656L326.75 414.922L315.5 414.922L315.5 426.189L304.25 426.189L304.25 414.922L293 414.922L293 426.189L281.75 426.189L281.75 414.922L293 414.922L293 403.656L281.75 403.656L281.75 392.389L293 392.389L293 381.123L281.75 381.123L281.75 369.856L293 369.856L293 358.59L304.25 358.59L304.25 369.856L315.5 369.856L315.5 358.59L326.75 358.59ZM304.25 369.856L293 369.856L293 381.123L304.25 381.123L304.25 369.856ZM304.25 381.123L304.25 392.389L315.5 392.389L315.5 381.123L304.25 381.123ZM304.25 392.389L293 392.389L293 403.656L304.25 403.656L304.25 392.389ZM304.25 403.656L304.25 414.922L315.5 414.922L315.5 403.656L304.25 403.656Z" fill="#5AAF21" fill-opacity="0.5"/>
<path d="M281.75 358.59L236.75 358.59L236.75 426.189L281.75 426.189L281.75 358.59ZM281.75 358.59L281.75 369.856L270.5 369.856L270.5 381.123L281.75 381.123L281.75 392.389L270.5 392.389L270.5 403.656L281.75 403.656L281.75 414.922L270.5 414.922L270.5 426.189L259.25 426.189L259.25 414.922L248 414.922L248 426.189L236.75 426.189L236.75 414.922L248 414.922L248 403.656L236.75 403.656L236.75 392.389L248 392.389L248 381.123L236.75 381.123L236.75 369.856L248 369.856L248 358.59L259.25 358.59L259.25 369.856L270.5 369.856L270.5 358.59L281.75 358.59ZM259.25 369.856L248 369.856L248 381.123L259.25 381.123L259.25 369.856ZM259.25 381.123L259.25 392.389L270.5 392.389L270.5 381.123L259.25 381.123ZM259.25 392.389L248 392.389L248 403.656L259.25 403.656L259.25 392.389ZM259.25 403.656L259.25 414.922L270.5 414.922L270.5 403.656L259.25 403.656Z" fill="#5AAF21" fill-opacity="0.5"/>
<path d="M236.75 358.59L191.75 358.59L191.75 426.189L236.75 426.189L236.75 358.59ZM236.75 358.59L236.75 369.856L225.5 369.856L225.5 381.123L236.75 381.123L236.75 392.389L225.5 392.389L225.5 403.656L236.75 403.656L236.75 414.922L225.5 414.922L225.5 426.189L214.25 426.189L214.25 414.922L203 414.922L203 426.189L191.75 426.189L191.75 414.922L203 414.922L203 403.656L191.75 403.656L191.75 392.389L203 392.389L203 381.123L191.75 381.123L191.75 369.856L203 369.856L203 358.59L214.25 358.59L214.25 369.856L225.5 369.856L225.5 358.59L236.75 358.59ZM214.25 369.856L203 369.856L203 381.123L214.25 381.123L214.25 369.856ZM214.25 381.123L214.25 392.389L225.5 392.389L225.5 381.123L214.25 381.123ZM214.25 392.389L203 392.389L203 403.656L214.25 403.656L214.25 392.389ZM214.25 403.656L214.25 414.922L225.5 414.922L225.5 403.656L214.25 403.656Z" fill="#5AAF21" fill-opacity="0.5"/>
<path d="M191.75 358.59L146.75 358.59L146.75 426.189L191.75 426.189L191.75 358.59ZM191.75 358.59L191.75 369.856L180.5 369.856L180.5 381.123L191.75 381.123L191.75 392.389L180.5 392.389L180.5 403.656L191.75 403.656L191.75 414.922L180.5 414.922L180.5 426.189L169.25 426.189L169.25 414.922L158 414.922L158 426.189L146.75 426.189L146.75 414.922L158 414.922L158 403.656L146.75 403.656L146.75 392.389L158 392.389L158 381.123L146.75 381.123L146.75 369.856L158 369.856L158 358.59L169.25 358.59L169.25 369.856L180.5 369.856L180.5 358.59L191.75 358.59ZM169.25 369.856L158 369.856L158 381.123L169.25 381.123L169.25 369.856ZM169.25 381.123L169.25 392.389L180.5 392.389L180.5 381.123L169.25 381.123ZM169.25 392.389L158 392.389L158 403.656L169.25 403.656L169.25 392.389ZM169.25 403.656L169.25 414.922L180.5 414.922L180.5 403.656L169.25 403.656Z" fill="#5AAF21" fill-opacity="0.5"/>
<path d="M146.75 358.59L101.75 358.59L101.75 426.189L146.75 426.189L146.75 358.59ZM146.75 358.59L146.75 369.856L135.5 369.856L135.5 381.123L146.75 381.123L146.75 392.389L135.5 392.389L135.5 403.656L146.75 403.656L146.75 414.922L135.5 414.922L135.5 426.189L124.25 426.189L124.25 414.922L113 414.922L113 426.189L101.75 426.189L101.75 414.922L113 414.922L113 403.656L101.75 403.656L101.75 392.389L113 392.389L113 381.123L101.75 381.123L101.75 369.856L113 369.856L113 358.59L124.25 358.59L124.25 369.856L135.5 369.856L135.5 358.59L146.75 358.59ZM124.25 369.856L113 369.856L113 381.123L124.25 381.123L124.25 369.856ZM124.25 381.123L124.25 392.389L135.5 392.389L135.5 381.123L124.25 381.123ZM124.25 392.389L113 392.389L113 403.656L124.25 403.656L124.25 392.389ZM124.25 403.656L124.25 414.922L135.5 414.922L135.5 403.656L124.25 403.656Z" fill="#5AAF21" fill-opacity="0.5"/>
<path d="M101.75 358.59L56.75 358.59L56.75 426.189L101.75 426.189L101.75 358.59ZM101.75 358.59L101.75 369.856L90.5 369.856L90.5 381.123L101.75 381.123L101.75 392.389L90.5 392.389L90.5 403.656L101.75 403.656L101.75 414.922L90.5 414.922L90.5 426.189L79.25 426.189L79.25 414.922L68 414.922L68 426.189L56.75 426.189L56.75 414.922L68 414.922L68 403.656L56.75 403.656L56.75 392.389L68 392.389L68 381.123L56.75 381.123L56.75 369.856L68 369.856L68 358.59L79.25 358.59L79.25 369.856L90.5 369.856L90.5 358.59L101.75 358.59ZM79.25 369.856L68 369.856L68 381.123L79.25 381.123L79.25 369.856ZM79.25 381.123L79.25 392.389L90.5 392.389L90.5 381.123L79.25 381.123ZM79.25 392.389L68 392.389L68 403.656L79.25 403.656L79.25 392.389ZM79.25 403.656L79.25 414.922L90.5 414.922L90.5 403.656L79.25 403.656Z" fill="#5AAF21" fill-opacity="0.5"/>
<path d="M56.75 358.59L11.75 358.59L11.75 426.189L56.75 426.189L56.75 358.59ZM56.75 358.59L56.75 369.856L45.5 369.856L45.5 381.123L56.75 381.123L56.75 392.389L45.5 392.389L45.5 403.656L56.75 403.656L56.75 414.922L45.5 414.922L45.5 426.189L34.25 426.189L34.25 414.922L23 414.922L23 426.189L11.75 426.189L11.75 414.922L23 414.922L23 403.656L11.75 403.656L11.75 392.389L23 392.389L23 381.123L11.75 381.123L11.75 369.856L23 369.856L23 358.59L34.25 358.59L34.25 369.856L45.5 369.856L45.5 358.59L56.75 358.59ZM34.25 369.856L23 369.856L23 381.123L34.25 381.123L34.25 369.856ZM34.25 381.123L34.25 392.389L45.5 392.389L45.5 381.123L34.25 381.123ZM34.25 392.389L23 392.389L23 403.656L34.25 403.656L34.25 392.389ZM34.25 403.656L34.25 414.922L45.5 414.922L45.5 403.656L34.25 403.656Z" fill="#5AAF21" fill-opacity="0.5"/>
<path d="M326.75 425.688L281.75 425.688L281.75 493.287L326.75 493.287L326.75 425.688ZM326.75 425.688L326.75 436.954L315.5 436.954L315.5 448.221L326.75 448.221L326.75 459.488L315.5 459.488L315.5 470.754L326.75 470.754L326.75 482.021L315.5 482.021L315.5 493.287L304.25 493.287L304.25 482.021L293 482.021L293 493.287L281.75 493.287L281.75 482.021L293 482.021L293 470.754L281.75 470.754L281.75 459.488L293 459.488L293 448.221L281.75 448.221L281.75 436.954L293 436.954L293 425.688L304.25 425.688L304.25 436.954L315.5 436.954L315.5 425.688L326.75 425.688ZM304.25 436.954L293 436.954L293 448.221L304.25 448.221L304.25 436.954ZM304.25 448.221L304.25 459.488L315.5 459.488L315.5 448.221L304.25 448.221ZM304.25 459.488L293 459.488L293 470.754L304.25 470.754L304.25 459.488ZM304.25 470.754L304.25 482.021L315.5 482.021L315.5 470.754L304.25 470.754Z" fill="#5AAF21" fill-opacity="0.5"/>
<path d="M281.75 425.688L236.75 425.688L236.75 493.287L281.75 493.287L281.75 425.688ZM281.75 425.688L281.75 436.954L270.5 436.954L270.5 448.221L281.75 448.221L281.75 459.488L270.5 459.488L270.5 470.754L281.75 470.754L281.75 482.021L270.5 482.021L270.5 493.287L259.25 493.287L259.25 482.021L248 482.021L248 493.287L236.75 493.287L236.75 482.021L248 482.021L248 470.754L236.75 470.754L236.75 459.488L248 459.488L248 448.221L236.75 448.221L236.75 436.954L248 436.954L248 425.688L259.25 425.688L259.25 436.954L270.5 436.954L270.5 425.688L281.75 425.688ZM259.25 436.954L248 436.954L248 448.221L259.25 448.221L259.25 436.954ZM259.25 448.221L259.25 459.488L270.5 459.488L270.5 448.221L259.25 448.221ZM259.25 459.488L248 459.488L248 470.754L259.25 470.754L259.25 459.488ZM259.25 470.754L259.25 482.021L270.5 482.021L270.5 470.754L259.25 470.754Z" fill="#5AAF21" fill-opacity="0.5"/>
<path d="M236.75 425.688L191.75 425.688L191.75 493.287L236.75 493.287L236.75 425.688ZM236.75 425.688L236.75 436.954L225.5 436.954L225.5 448.221L236.75 448.221L236.75 459.488L225.5 459.488L225.5 470.754L236.75 470.754L236.75 482.021L225.5 482.021L225.5 493.287L214.25 493.287L214.25 482.021L203 482.021L203 493.287L191.75 493.287L191.75 482.021L203 482.021L203 470.754L191.75 470.754L191.75 459.488L203 459.488L203 448.221L191.75 448.221L191.75 436.954L203 436.954L203 425.688L214.25 425.688L214.25 436.954L225.5 436.954L225.5 425.688L236.75 425.688ZM214.25 436.954L203 436.954L203 448.221L214.25 448.221L214.25 436.954ZM214.25 448.221L214.25 459.488L225.5 459.488L225.5 448.221L214.25 448.221ZM214.25 459.488L203 459.488L203 470.754L214.25 470.754L214.25 459.488ZM214.25 470.754L214.25 482.021L225.5 482.021L225.5 470.754L214.25 470.754Z" fill="#5AAF21" fill-opacity="0.5"/>
<path d="M191.75 425.688L146.75 425.688L146.75 493.287L191.75 493.287L191.75 425.688ZM191.75 425.688L191.75 436.954L180.5 436.954L180.5 448.221L191.75 448.221L191.75 459.488L180.5 459.488L180.5 470.754L191.75 470.754L191.75 482.021L180.5 482.021L180.5 493.287L169.25 493.287L169.25 482.021L158 482.021L158 493.287L146.75 493.287L146.75 482.021L158 482.021L158 470.754L146.75 470.754L146.75 459.488L158 459.488L158 448.221L146.75 448.221L146.75 436.954L158 436.954L158 425.688L169.25 425.688L169.25 436.954L180.5 436.954L180.5 425.688L191.75 425.688ZM169.25 436.954L158 436.954L158 448.221L169.25 448.221L169.25 436.954ZM169.25 448.221L169.25 459.488L180.5 459.488L180.5 448.221L169.25 448.221ZM169.25 459.488L158 459.488L158 470.754L169.25 470.754L169.25 459.488ZM169.25 470.754L169.25 482.021L180.5 482.021L180.5 470.754L169.25 470.754Z" fill="#5AAF21" fill-opacity="0.5"/>
<path d="M146.75 425.688L101.75 425.688L101.75 493.287L146.75 493.287L146.75 425.688ZM146.75 425.688L146.75 436.954L135.5 436.954L135.5 448.221L146.75 448.221L146.75 459.488L135.5 459.488L135.5 470.754L146.75 470.754L146.75 482.021L135.5 482.021L135.5 493.287L124.25 493.287L124.25 482.021L113 482.021L113 493.287L101.75 493.287L101.75 482.021L113 482.021L113 470.754L101.75 470.754L101.75 459.488L113 459.488L113 448.221L101.75 448.221L101.75 436.954L113 436.954L113 425.688L124.25 425.688L124.25 436.954L135.5 436.954L135.5 425.688L146.75 425.688ZM124.25 436.954L113 436.954L113 448.221L124.25 448.221L124.25 436.954ZM124.25 448.221L124.25 459.488L135.5 459.488L135.5 448.221L124.25 448.221ZM124.25 459.488L113 459.488L113 470.754L124.25 470.754L124.25 459.488ZM124.25 470.754L124.25 482.021L135.5 482.021L135.5 470.754L124.25 470.754Z" fill="#5AAF21" fill-opacity="0.5"/>
<path d="M101.75 425.688L56.75 425.688L56.75 493.287L101.75 493.287L101.75 425.688ZM101.75 425.688L101.75 436.954L90.5 436.954L90.5 448.221L101.75 448.221L101.75 459.488L90.5 459.488L90.5 470.754L101.75 470.754L101.75 482.021L90.5 482.021L90.5 493.287L79.25 493.287L79.25 482.021L68 482.021L68 493.287L56.75 493.287L56.75 482.021L68 482.021L68 470.754L56.75 470.754L56.75 459.488L68 459.488L68 448.221L56.75 448.221L56.75 436.954L68 436.954L68 425.688L79.25 425.688L79.25 436.954L90.5 436.954L90.5 425.688L101.75 425.688ZM79.25 436.954L68 436.954L68 448.221L79.25 448.221L79.25 436.954ZM79.25 448.221L79.25 459.488L90.5 459.488L90.5 448.221L79.25 448.221ZM79.25 459.488L68 459.488L68 470.754L79.25 470.754L79.25 459.488ZM79.25 470.754L79.25 482.021L90.5 482.021L90.5 470.754L79.25 470.754Z" fill="#5AAF21" fill-opacity="0.5"/>
<path d="M56.75 425.688L11.75 425.688L11.75 493.287L56.75 493.287L56.75 425.688ZM56.75 425.688L56.75 436.954L45.5 436.954L45.5 448.221L56.75 448.221L56.75 459.488L45.5 459.488L45.5 470.754L56.75 470.754L56.75 482.021L45.5 482.021L45.5 493.287L34.25 493.287L34.25 482.021L23 482.021L23 493.287L11.75 493.287L11.75 482.021L23 482.021L23 470.754L11.75 470.754L11.75 459.488L23 459.488L23 448.221L11.75 448.221L11.75 436.954L23 436.954L23 425.688L34.25 425.688L34.25 436.954L45.5 436.954L45.5 425.688L56.75 425.688ZM34.25 436.954L23 436.954L23 448.221L34.25 448.221L34.25 436.954ZM34.25 448.221L34.25 459.488L45.5 459.488L45.5 448.221L34.25 448.221ZM34.25 459.488L23 459.488L23 470.754L34.25 470.754L34.25 459.488ZM34.25 470.754L34.25 482.021L45.5 482.021L45.5 470.754L34.25 470.754Z" fill="#5AAF21" fill-opacity="0.5"/>
<path d="M327 -32.9839L372 -32.9839L372 34.6152L327 34.6152L327 -32.9839ZM327 -32.9839L327 -21.7174L338.25 -21.7174L338.25 -10.4509L327 -10.4509L327 0.815636L338.25 0.815635L338.25 12.0821L327 12.0821L327 23.3487L338.25 23.3487L338.25 34.6152L349.5 34.6152L349.5 23.3487L360.75 23.3487L360.75 34.6152L372 34.6152L372 23.3486L360.75 23.3487L360.75 12.0821L372 12.0821L372 0.815634L360.75 0.815634L360.75 -10.4509L372 -10.4509L372 -21.7174L360.75 -21.7174L360.75 -32.9839L349.5 -32.9839L349.5 -21.7174L338.25 -21.7174L338.25 -32.9839L327 -32.9839ZM349.5 -21.7174L360.75 -21.7174L360.75 -10.4509L349.5 -10.4509L349.5 -21.7174ZM349.5 -10.4509L349.5 0.815635L338.25 0.815635L338.25 -10.4509L349.5 -10.4509ZM349.5 0.815635L360.75 0.815634L360.75 12.0821L349.5 12.0821L349.5 0.815635ZM349.5 12.0821L349.5 23.3487L338.25 23.3487L338.25 12.0821L349.5 12.0821Z" fill="#5AAF21" fill-opacity="0.5"/>
<path d="M372 -32.9839L417 -32.9839L417 34.6152L372 34.6152L372 -32.9839ZM372 -32.9839L372 -21.7174L383.25 -21.7174L383.25 -10.4509L372 -10.4509L372 0.815636L383.25 0.815635L383.25 12.0821L372 12.0821L372 23.3487L383.25 23.3487L383.25 34.6152L394.5 34.6152L394.5 23.3487L405.75 23.3487L405.75 34.6152L417 34.6152L417 23.3486L405.75 23.3487L405.75 12.0821L417 12.0821L417 0.815634L405.75 0.815634L405.75 -10.4509L417 -10.4509L417 -21.7174L405.75 -21.7174L405.75 -32.9839L394.5 -32.9839L394.5 -21.7174L383.25 -21.7174L383.25 -32.9839L372 -32.9839ZM394.5 -21.7174L405.75 -21.7174L405.75 -10.4509L394.5 -10.4509L394.5 -21.7174ZM394.5 -10.4509L394.5 0.815635L383.25 0.815635L383.25 -10.4509L394.5 -10.4509ZM394.5 0.815635L405.75 0.815634L405.75 12.0821L394.5 12.0821L394.5 0.815635ZM394.5 12.0821L394.5 23.3487L383.25 23.3487L383.25 12.0821L394.5 12.0821Z" fill="#5AAF21" fill-opacity="0.5"/>
<path d="M327 34.1143L372 34.1143L372 101.713L327 101.713L327 34.1143ZM327 34.1143L327 45.3808L338.25 45.3808L338.25 56.6473L327 56.6473L327 67.9138L338.25 67.9138L338.25 79.1803L327 79.1803L327 90.4468L338.25 90.4468L338.25 101.713L349.5 101.713L349.5 90.4468L360.75 90.4468L360.75 101.713L372 101.713L372 90.4468L360.75 90.4468L360.75 79.1803L372 79.1803L372 67.9138L360.75 67.9138L360.75 56.6473L372 56.6473L372 45.3808L360.75 45.3808L360.75 34.1143L349.5 34.1143L349.5 45.3808L338.25 45.3808L338.25 34.1143L327 34.1143ZM349.5 45.3808L360.75 45.3808L360.75 56.6473L349.5 56.6473L349.5 45.3808ZM349.5 56.6473L349.5 67.9138L338.25 67.9138L338.25 56.6473L349.5 56.6473ZM349.5 67.9138L360.75 67.9138L360.75 79.1803L349.5 79.1803L349.5 67.9138ZM349.5 79.1803L349.5 90.4468L338.25 90.4468L338.25 79.1803L349.5 79.1803Z" fill="#5AAF21" fill-opacity="0.5"/>
<path d="M372 34.1143L417 34.1143L417 101.713L372 101.713L372 34.1143ZM372 34.1143L372 45.3808L383.25 45.3808L383.25 56.6473L372 56.6473L372 67.9138L383.25 67.9138L383.25 79.1803L372 79.1803L372 90.4468L383.25 90.4468L383.25 101.713L394.5 101.713L394.5 90.4468L405.75 90.4468L405.75 101.713L417 101.713L417 90.4468L405.75 90.4468L405.75 79.1803L417 79.1803L417 67.9138L405.75 67.9138L405.75 56.6473L417 56.6473L417 45.3808L405.75 45.3808L405.75 34.1143L394.5 34.1143L394.5 45.3808L383.25 45.3808L383.25 34.1143L372 34.1143ZM394.5 45.3808L405.75 45.3808L405.75 56.6473L394.5 56.6473L394.5 45.3808ZM394.5 56.6473L394.5 67.9138L383.25 67.9138L383.25 56.6473L394.5 56.6473ZM394.5 67.9138L405.75 67.9138L405.75 79.1803L394.5 79.1803L394.5 67.9138ZM394.5 79.1803L394.5 90.4468L383.25 90.4468L383.25 79.1803L394.5 79.1803Z" fill="#5AAF21" fill-opacity="0.5"/>
<path d="M327 101.213L372 101.213L372 168.812L327 168.812L327 101.213ZM327 101.213L327 112.479L338.25 112.479L338.25 123.746L327 123.746L327 135.012L338.25 135.012L338.25 146.279L327 146.279L327 157.545L338.25 157.545L338.25 168.812L349.5 168.812L349.5 157.545L360.75 157.545L360.75 168.812L372 168.812L372 157.545L360.75 157.545L360.75 146.279L372 146.279L372 135.012L360.75 135.012L360.75 123.746L372 123.746L372 112.479L360.75 112.479L360.75 101.213L349.5 101.213L349.5 112.479L338.25 112.479L338.25 101.213L327 101.213ZM349.5 112.479L360.75 112.479L360.75 123.746L349.5 123.746L349.5 112.479ZM349.5 123.746L349.5 135.012L338.25 135.012L338.25 123.746L349.5 123.746ZM349.5 135.012L360.75 135.012L360.75 146.279L349.5 146.279L349.5 135.012ZM349.5 146.279L349.5 157.545L338.25 157.545L338.25 146.279L349.5 146.279Z" fill="#5AAF21" fill-opacity="0.5"/>
<path d="M372 101.213L417 101.213L417 168.812L372 168.812L372 101.213ZM372 101.213L372 112.479L383.25 112.479L383.25 123.746L372 123.746L372 135.012L383.25 135.012L383.25 146.279L372 146.279L372 157.545L383.25 157.545L383.25 168.812L394.5 168.812L394.5 157.545L405.75 157.545L405.75 168.812L417 168.812L417 157.545L405.75 157.545L405.75 146.279L417 146.279L417 135.012L405.75 135.012L405.75 123.746L417 123.746L417 112.479L405.75 112.479L405.75 101.213L394.5 101.213L394.5 112.479L383.25 112.479L383.25 101.213L372 101.213ZM394.5 112.479L405.75 112.479L405.75 123.746L394.5 123.746L394.5 112.479ZM394.5 123.746L394.5 135.012L383.25 135.012L383.25 123.746L394.5 123.746ZM394.5 135.012L405.75 135.012L405.75 146.279L394.5 146.279L394.5 135.012ZM394.5 146.279L394.5 157.545L383.25 157.545L383.25 146.279L394.5 146.279Z" fill="#5AAF21" fill-opacity="0.5"/>
<path d="M327 168.311L372 168.311L372 235.91L327 235.91L327 168.311ZM327 168.311L327 179.578L338.25 179.578L338.25 190.844L327 190.844L327 202.111L338.25 202.111L338.25 213.377L327 213.377L327 224.644L338.25 224.644L338.25 235.91L349.5 235.91L349.5 224.644L360.75 224.644L360.75 235.91L372 235.91L372 224.644L360.75 224.644L360.75 213.377L372 213.377L372 202.111L360.75 202.111L360.75 190.844L372 190.844L372 179.578L360.75 179.578L360.75 168.311L349.5 168.311L349.5 179.578L338.25 179.578L338.25 168.311L327 168.311ZM349.5 179.578L360.75 179.578L360.75 190.844L349.5 190.844L349.5 179.578ZM349.5 190.844L349.5 202.111L338.25 202.111L338.25 190.844L349.5 190.844ZM349.5 202.111L360.75 202.111L360.75 213.377L349.5 213.377L349.5 202.111ZM349.5 213.377L349.5 224.644L338.25 224.644L338.25 213.377L349.5 213.377Z" fill="#5AAF21" fill-opacity="0.5"/>
<path d="M372 168.311L417 168.311L417 235.91L372 235.91L372 168.311ZM372 168.311L372 179.578L383.25 179.578L383.25 190.844L372 190.844L372 202.111L383.25 202.111L383.25 213.377L372 213.377L372 224.644L383.25 224.644L383.25 235.91L394.5 235.91L394.5 224.644L405.75 224.644L405.75 235.91L417 235.91L417 224.644L405.75 224.644L405.75 213.377L417 213.377L417 202.111L405.75 202.111L405.75 190.844L417 190.844L417 179.578L405.75 179.578L405.75 168.311L394.5 168.311L394.5 179.578L383.25 179.578L383.25 168.311L372 168.311ZM394.5 179.578L405.75 179.578L405.75 190.844L394.5 190.844L394.5 179.578ZM394.5 190.844L394.5 202.111L383.25 202.111L383.25 190.844L394.5 190.844ZM394.5 202.111L405.75 202.111L405.75 213.377L394.5 213.377L394.5 202.111ZM394.5 213.377L394.5 224.644L383.25 224.644L383.25 213.377L394.5 213.377Z" fill="#5AAF21" fill-opacity="0.5"/>
<path d="M327 235.409L372 235.409L372 303.008L327 303.008L327 235.409ZM327 235.409L327 246.676L338.25 246.676L338.25 257.942L327 257.942L327 269.209L338.25 269.209L338.25 280.475L327 280.475L327 291.742L338.25 291.742L338.25 303.008L349.5 303.008L349.5 291.742L360.75 291.742L360.75 303.008L372 303.008L372 291.742L360.75 291.742L360.75 280.475L372 280.475L372 269.209L360.75 269.209L360.75 257.942L372 257.942L372 246.676L360.75 246.676L360.75 235.409L349.5 235.409L349.5 246.676L338.25 246.676L338.25 235.409L327 235.409ZM349.5 246.676L360.75 246.676L360.75 257.942L349.5 257.942L349.5 246.676ZM349.5 257.942L349.5 269.209L338.25 269.209L338.25 257.942L349.5 257.942ZM349.5 269.209L360.75 269.209L360.75 280.475L349.5 280.475L349.5 269.209ZM349.5 280.475L349.5 291.742L338.25 291.742L338.25 280.475L349.5 280.475Z" fill="#5AAF21" fill-opacity="0.5"/>
<path d="M372 235.409L417 235.409L417 303.008L372 303.008L372 235.409ZM372 235.409L372 246.676L383.25 246.676L383.25 257.942L372 257.942L372 269.209L383.25 269.209L383.25 280.475L372 280.475L372 291.742L383.25 291.742L383.25 303.008L394.5 303.008L394.5 291.742L405.75 291.742L405.75 303.008L417 303.008L417 291.742L405.75 291.742L405.75 280.475L417 280.475L417 269.209L405.75 269.209L405.75 257.942L417 257.942L417 246.676L405.75 246.676L405.75 235.409L394.5 235.409L394.5 246.676L383.25 246.676L383.25 235.409L372 235.409ZM394.5 246.676L405.75 246.676L405.75 257.942L394.5 257.942L394.5 246.676ZM394.5 257.942L394.5 269.209L383.25 269.209L383.25 257.942L394.5 257.942ZM394.5 269.209L405.75 269.209L405.75 280.475L394.5 280.475L394.5 269.209ZM394.5 280.475L394.5 291.742L383.25 291.742L383.25 280.475L394.5 280.475Z" fill="#5AAF21" fill-opacity="0.5"/>
<path d="M327 302.508L372 302.508L372 370.107L327 370.107L327 302.508ZM327 302.508L327 313.774L338.25 313.774L338.25 325.041L327 325.041L327 336.307L338.25 336.307L338.25 347.574L327 347.574L327 358.84L338.25 358.84L338.25 370.107L349.5 370.107L349.5 358.84L360.75 358.84L360.75 370.107L372 370.107L372 358.84L360.75 358.84L360.75 347.574L372 347.574L372 336.307L360.75 336.307L360.75 325.041L372 325.041L372 313.774L360.75 313.774L360.75 302.508L349.5 302.508L349.5 313.774L338.25 313.774L338.25 302.508L327 302.508ZM349.5 313.774L360.75 313.774L360.75 325.041L349.5 325.041L349.5 313.774ZM349.5 325.041L349.5 336.307L338.25 336.307L338.25 325.041L349.5 325.041ZM349.5 336.307L360.75 336.307L360.75 347.574L349.5 347.574L349.5 336.307ZM349.5 347.574L349.5 358.84L338.25 358.84L338.25 347.574L349.5 347.574Z" fill="#5AAF21" fill-opacity="0.5"/>
<path d="M372 302.508L417 302.508L417 370.107L372 370.107L372 302.508ZM372 302.508L372 313.774L383.25 313.774L383.25 325.041L372 325.041L372 336.307L383.25 336.307L383.25 347.574L372 347.574L372 358.84L383.25 358.84L383.25 370.107L394.5 370.107L394.5 358.84L405.75 358.84L405.75 370.107L417 370.107L417 358.84L405.75 358.84L405.75 347.574L417 347.574L417 336.307L405.75 336.307L405.75 325.041L417 325.041L417 313.774L405.75 313.774L405.75 302.508L394.5 302.508L394.5 313.774L383.25 313.774L383.25 302.508L372 302.508ZM394.5 313.774L405.75 313.774L405.75 325.041L394.5 325.041L394.5 313.774ZM394.5 325.041L394.5 336.307L383.25 336.307L383.25 325.041L394.5 325.041ZM394.5 336.307L405.75 336.307L405.75 347.574L394.5 347.574L394.5 336.307ZM394.5 347.574L394.5 358.84L383.25 358.84L383.25 347.574L394.5 347.574Z" fill="#5AAF21" fill-opacity="0.5"/>
<path d="M327 369.606L372 369.606L372 437.205L327 437.205L327 369.606ZM327 369.606L327 380.872L338.25 380.872L338.25 392.139L327 392.139L327 403.405L338.25 403.405L338.25 414.672L327 414.672L327 425.938L338.25 425.938L338.25 437.205L349.5 437.205L349.5 425.938L360.75 425.938L360.75 437.205L372 437.205L372 425.938L360.75 425.938L360.75 414.672L372 414.672L372 403.405L360.75 403.405L360.75 392.139L372 392.139L372 380.872L360.75 380.872L360.75 369.606L349.5 369.606L349.5 380.872L338.25 380.872L338.25 369.606L327 369.606ZM349.5 380.872L360.75 380.872L360.75 392.139L349.5 392.139L349.5 380.872ZM349.5 392.139L349.5 403.405L338.25 403.405L338.25 392.139L349.5 392.139ZM349.5 403.405L360.75 403.405L360.75 414.672L349.5 414.672L349.5 403.405ZM349.5 414.672L349.5 425.938L338.25 425.938L338.25 414.672L349.5 414.672Z" fill="#5AAF21" fill-opacity="0.5"/>
<path d="M372 369.606L417 369.606L417 437.205L372 437.205L372 369.606ZM372 369.606L372 380.872L383.25 380.872L383.25 392.139L372 392.139L372 403.405L383.25 403.405L383.25 414.672L372 414.672L372 425.938L383.25 425.938L383.25 437.205L394.5 437.205L394.5 425.938L405.75 425.938L405.75 437.205L417 437.205L417 425.938L405.75 425.938L405.75 414.672L417 414.672L417 403.405L405.75 403.405L405.75 392.139L417 392.139L417 380.872L405.75 380.872L405.75 369.606L394.5 369.606L394.5 380.872L383.25 380.872L383.25 369.606L372 369.606ZM394.5 380.872L405.75 380.872L405.75 392.139L394.5 392.139L394.5 380.872ZM394.5 392.139L394.5 403.405L383.25 403.405L383.25 392.139L394.5 392.139ZM394.5 403.405L405.75 403.405L405.75 414.672L394.5 414.672L394.5 403.405ZM394.5 414.672L394.5 425.938L383.25 425.938L383.25 414.672L394.5 414.672Z" fill="#5AAF21" fill-opacity="0.5"/>
<path d="M327 436.704L372 436.704L372 504.303L327 504.303L327 436.704ZM327 436.704L327 447.971L338.25 447.971L338.25 459.237L327 459.237L327 470.504L338.25 470.504L338.25 481.77L327 481.77L327 493.037L338.25 493.037L338.25 504.303L349.5 504.303L349.5 493.037L360.75 493.037L360.75 504.303L372 504.303L372 493.037L360.75 493.037L360.75 481.77L372 481.77L372 470.504L360.75 470.504L360.75 459.237L372 459.237L372 447.971L360.75 447.971L360.75 436.704L349.5 436.704L349.5 447.971L338.25 447.971L338.25 436.704L327 436.704ZM349.5 447.971L360.75 447.971L360.75 459.237L349.5 459.237L349.5 447.971ZM349.5 459.237L349.5 470.504L338.25 470.504L338.25 459.237L349.5 459.237ZM349.5 470.504L360.75 470.504L360.75 481.77L349.5 481.77L349.5 470.504ZM349.5 481.77L349.5 493.037L338.25 493.037L338.25 481.77L349.5 481.77Z" fill="#5AAF21" fill-opacity="0.5"/>
<path d="M372 436.704L417 436.704L417 504.303L372 504.303L372 436.704ZM372 436.704L372 447.971L383.25 447.971L383.25 459.237L372 459.237L372 470.504L383.25 470.504L383.25 481.77L372 481.77L372 493.037L383.25 493.037L383.25 504.303L394.5 504.303L394.5 493.037L405.75 493.037L405.75 504.303L417 504.303L417 493.037L405.75 493.037L405.75 481.77L417 481.77L417 470.504L405.75 470.504L405.75 459.237L417 459.237L417 447.971L405.75 447.971L405.75 436.704L394.5 436.704L394.5 447.971L383.25 447.971L383.25 436.704L372 436.704ZM394.5 447.971L405.75 447.971L405.75 459.237L394.5 459.237L394.5 447.971ZM394.5 459.237L394.5 470.504L383.25 470.504L383.25 459.237L394.5 459.237ZM394.5 470.504L405.75 470.504L405.75 481.77L394.5 481.77L394.5 470.504ZM394.5 481.77L394.5 493.037L383.25 493.037L383.25 481.77L394.5 481.77Z" fill="#5AAF21" fill-opacity="0.5"/>
</g>
<path d="M48.0009 213.001C13.8775 103.85 133.624 73.3722 196.967 70C266.69 70 359.705 96.8504 367.361 179.097C376.931 281.904 267.288 246.633 222.719 239.524C178.151 232.415 82.7258 292.841 48.0009 213.001Z" fill="#357C05"/>
<path d="M96.4094 165.744C127.868 150.999 168.172 115.832 147.017 94.3076C365.313 47.531 364.219 248.365 304.858 232.858C257.369 220.452 203.551 227.689 182.579 232.858C25.4494 242.01 64.9508 180.488 96.4094 165.744Z" fill="#5AAF21"/>
<ellipse cx="117.785" cy="123.309" rx="26.2176" ry="14.7894" transform="rotate(-35.8098 117.785 123.309)" fill="#B7D7A3"/>
<ellipse cx="94.3533" cy="168.186" rx="11.8045" ry="9.42929" transform="rotate(-76.3327 94.3533 168.186)" fill="#B7D7A3"/>
<path d="M245.91 168.433C255.115 161.78 280.635 149.075 309.071 151.481" stroke="#282828" stroke-width="3"/>
<path d="M181.648 169.798C171.028 163.826 141.892 152.901 110.307 156.981" stroke="#282828" stroke-width="3"/>
<path d="M252.746 152.028C256.391 150.387 264.995 146.942 270.245 146.286" stroke="#282828" stroke-width="3"/>
<path d="M184.685 158.042C181.41 156.575 173.702 153.537 169.077 153.13" stroke="#282828" stroke-width="3"/>
</svg>
