<svg width="458" height="401" viewBox="0 0 458 401" fill="none" xmlns="http://www.w3.org/2000/svg">
<path d="M124.847 380.999C-37.9529 330.599 -7.31954 189.333 28.3471 124.999C49.6806 70.4996 92.3477 -23.1 92.3477 38.5C89.9477 94.9 118.348 79.6667 132.848 65C159.248 78.2 185.848 48.5 195.848 32C211.448 48.4 226.348 25.1667 231.848 11.5C234.681 18.8333 242.148 33.2 249.348 32C256.548 30.8 267.348 10.1667 271.848 0C272.848 11.1667 277.248 34.5 286.848 38.5C296.448 42.5 309.514 28.1667 314.848 20.5C314.181 29.6667 317.848 49.1 337.848 53.5C357.848 57.9 383.848 45.3333 394.348 38.5C392.014 54.6665 388.748 86.9993 394.348 86.9993C401.348 86.9993 402.348 52.4993 407.848 86.9993C412.248 114.599 428.014 143.499 435.348 154.499C525.848 353.999 328.347 443.999 124.847 380.999Z" fill="#357C05"/>
<path d="M224.872 335.752C43.3281 307.767 50.6414 235.807 76.9911 203.325C83.4434 148.556 179.702 119.372 236.166 131.865C292.629 144.358 334.394 150.022 338.338 186.335C468.473 250.299 451.802 370.732 224.872 335.752Z" fill="#5AAF21"/>
<path d="M366.268 144.909C362.312 172.147 365.336 219.633 409.079 191.664C463.757 156.703 376.865 116.266 366.268 144.909Z" fill="#5AAF21"/>
<path d="M291.914 110.791C191.914 197.191 143.581 171.791 131.914 148.291C118.844 133.79 124.414 110.791 166.914 96.2906C327.714 44.6906 317.248 84.4573 291.914 110.791Z" fill="#B7D7A3"/>
<path d="M40.4143 167.791C35.081 187.958 35.1143 220.791 77.9143 190.791C131.414 153.291 48.4146 144.791 40.4143 167.791Z" fill="#B7D7A3"/>
<path d="M229.5 273L95 224V211L229.5 273Z" fill="#282828"/>
<path d="M371.5 223L384.5 230.5L295.367 279.911L371.5 223Z" fill="#282828"/>
<path d="M328 214L301 235V229.5L321.5 207.5L328 214Z" fill="#282828"/>
<path d="M147.5 207.5L197.5 221V215.5L152 200L147.5 207.5Z" fill="#282828"/>
</svg>
