<svg width="558" height="382" viewBox="0 0 558 382" fill="none" xmlns="http://www.w3.org/2000/svg">
<path d="M423.667 0.219498C422.874 0.383469 420.877 0.678619 419.262 0.875397C405.404 2.67911 392.221 9.63164 382.972 20.0276C381.739 21.405 380.594 22.5201 380.417 22.5201C380.241 22.5201 378.891 21.9297 377.452 21.2083C371.609 18.3551 365.032 16.3874 358.044 15.4364C352.788 14.7149 343.598 14.9444 338.519 15.9283C324.69 18.5847 313.239 24.9141 304.46 34.8182C296.415 43.8696 291.981 54.9215 291.57 66.8916C291.512 68.8266 291.423 70.4663 291.365 70.5319C291.306 70.5975 289.72 71.0566 287.871 71.5485C276.302 74.6968 265.38 81.4854 258.186 89.9793C252.138 97.1286 247.969 106.147 246.589 115.002C245.855 119.823 246.148 128.448 247.205 132.973C249.29 141.927 252.784 148.617 259.097 155.7C264.206 161.44 268.375 164.752 274.952 168.261C278.71 170.261 282.967 171.967 287.548 173.311L290.601 174.197L290.66 179.444C290.748 187.282 291.834 192.431 294.947 199.449C301.054 213.288 314.208 224.57 329.828 229.423C336.757 231.588 341.103 232.211 348.942 232.211C356.048 232.211 359.571 231.785 365.384 230.243C371.815 228.538 378.832 225.324 384.117 221.651C385.468 220.7 386.671 219.946 386.789 219.946C386.906 219.946 388.022 220.831 389.314 221.913C395.362 227.095 403.349 231.391 411.306 233.752C420.965 236.573 432.739 236.934 442.751 234.671C459.546 230.899 473.698 220.306 481.391 205.746C481.919 204.729 482.507 203.876 482.683 203.876C482.859 203.876 484.18 204.171 485.619 204.499C500.123 208.041 516.566 205.713 529.808 198.301C543.167 190.824 552.504 179.05 556.115 165.178C558.347 156.619 558.347 149.141 556.086 140.418C554.089 132.777 549.803 124.873 544.518 119.101C543.695 118.216 543.02 117.363 543.02 117.232C543.02 117.101 543.637 115.756 544.371 114.28C551.858 99.1947 551.329 82.1085 542.903 67.6131C536.473 56.5612 525.873 47.8706 513.189 43.2137C505.496 40.3933 500.211 39.4751 491.227 39.4095L484.533 39.3767L483.534 36.6547C479.159 24.5206 469.588 13.7966 457.373 7.36879C453.439 5.3027 446.686 2.7775 442.605 1.85924C435.734 0.350677 427.219 -0.40361 423.667 0.219498Z" fill="#357C05"/>
<path d="M266.8 182.733C262.437 184.173 258.748 188.954 257.365 194.903C256.815 197.266 256.638 201.287 256.975 203.867C257.418 207.426 258.943 211.229 260.912 213.755C266.499 220.981 275.331 220.166 280.208 212.016C281.485 209.87 282.585 206.638 282.958 203.921C284.252 194.468 280.084 185.341 273.38 182.842C271.695 182.244 268.467 182.163 266.8 182.733Z" fill="#357C05"/>
<path d="M234.236 229.727C232.569 230.379 231.097 231.683 229.82 233.639C227.887 236.6 227 239.887 227 244.206C227 248.552 228.029 252.192 230.104 255.072C235.602 262.787 244.346 258.359 245.889 247.113C246.03 246.053 246.155 244.722 246.155 244.125C246.155 239.507 244.399 234.481 241.863 231.819C239.841 229.7 236.595 228.804 234.236 229.727Z" fill="#357C05"/>
<path d="M132.679 376.145C250.049 351.117 233.604 279.175 210.71 246.332C188.559 194.551 179.425 196.709 177.627 204.26C179.929 233.315 165.881 224.278 158.569 216.127C148.213 225.62 135.076 208.096 129.802 198.147C124.835 215.365 111.331 193.557 110.066 191.399C110.054 191.369 110.04 191.342 110.024 191.315C109.939 191.173 109.957 191.213 110.066 191.399C110.861 193.344 102.817 201.013 101.754 200.305C98.3018 200.305 93.8428 191.435 92.0449 187C92.0449 199.082 85.3325 200.904 81.9763 200.305C66.8735 194.192 69.3907 206.418 61.8392 212.171C55.7981 216.774 42.7809 210.253 37.0275 206.418C38.1782 232.021 31.0343 230.51 27.3185 226.555C27.5582 233.147 26.3117 247.699 19.4075 253.165C12.5034 258.63 4.78416 277.497 1.78757 286.247C-3.48643 326.641 15.3082 401.172 132.679 376.145Z" fill="#357C05" stroke="#357C05" stroke-width="0.719182"/>
<path d="M46.8048 336.949C11.4211 301.565 49.8014 285.767 73.4145 282.291C127.497 223.318 153.483 259.637 159.716 285.168C199.271 290.562 202.867 318.25 188.124 339.826C173.381 361.401 91.0345 381.179 46.8048 336.949Z" fill="#5AAF21"/>
<path d="M145.333 318.61C155.521 311.418 177.552 296.747 184.169 295.596" stroke="#282828" stroke-width="3"/>
<path d="M78.953 277.923C84.4532 282.494 95.6199 292.439 96.2859 295.651" stroke="#282828" stroke-width="3"/>
<circle cx="25.1518" cy="269.346" r="13.3049" fill="#5AAF21"/>
<ellipse cx="183.008" cy="274.476" rx="9.08079" ry="11.4504" transform="rotate(45.7171 183.008 274.476)" fill="#B7D7A3"/>
<path d="M142.361 269.192C161.828 269.192 164.915 257.343 155.122 247.865C145.328 238.387 87.1626 231.278 92.5043 243.719C97.8461 256.159 122.893 269.192 142.361 269.192Z" fill="#B7D7A3"/>
<path d="M147.13 297.035C150.367 293.679 157.487 286.966 160.076 286.966" stroke="#282828" stroke-width="3"/>
<path d="M101.463 315.679C88.8769 306.209 59.1028 287.99 40.6917 290.867" stroke="#282828" stroke-width="3"/>
</svg>
