<svg width="1138" height="590" viewBox="0 0 1138 590" fill="none" xmlns="http://www.w3.org/2000/svg">
<rect x="6.2948" y="5.51429" width="1125.28" height="578.202" fill="#D9D9D9" stroke="#5AAF21" stroke-width="10.9714"/>
<rect x="6.2948" y="5.51429" width="1125.28" height="578.202" fill="#D9D9D9" stroke="#5AAF21" stroke-width="10.9714"/>
<path d="M11 11.6201V86.7504H123.695V11.6201H11ZM11 11.6201H29.7826V30.4027H48.5651V11.6201H67.3477V30.4027H86.1302V11.6201H104.913V30.4027H123.695V49.1852H104.913V67.9678H123.695V86.7504H104.913V67.9678H86.1302V86.7504H67.3477V67.9678H48.5651V86.7504H29.7826V67.9678H11V49.1852H29.7826V30.4027H11V11.6201ZM29.7826 49.1852V67.9678H48.5651V49.1852H29.7826ZM48.5651 49.1852H67.3477V30.4027H48.5651V49.1852ZM67.3477 49.1852V67.9678H86.1302V49.1852H67.3477ZM86.1302 49.1852H104.913V30.4027H86.1302V49.1852Z" fill="#5AAF21" fill-opacity="0.5"/>
<path d="M11 86.7505V161.881H123.695V86.7505H11ZM11 86.7505H29.7826V105.533H48.5651V86.7505H67.3477V105.533H86.1302V86.7505H104.913V105.533H123.695V124.316H104.913V143.098H123.695V161.881H104.913V143.098H86.1302V161.881H67.3477V143.098H48.5651V161.881H29.7826V143.098H11V124.316H29.7826V105.533H11V86.7505ZM29.7826 124.316V143.098H48.5651V124.316H29.7826ZM48.5651 124.316H67.3477V105.533H48.5651V124.316ZM67.3477 124.316V143.098H86.1302V124.316H67.3477ZM86.1302 124.316H104.913V105.533H86.1302V124.316Z" fill="#5AAF21" fill-opacity="0.5"/>
<path d="M11 161.88V237.011H123.695V161.88H11ZM11 161.88H29.7826V180.663H48.5651V161.88H67.3477V180.663H86.1302V161.88H104.913V180.663H123.695V199.445H104.913V218.228H123.695V237.011H104.913V218.228H86.1302V237.011H67.3477V218.228H48.5651V237.011H29.7826V218.228H11V199.445H29.7826V180.663H11V161.88ZM29.7826 199.445V218.228H48.5651V199.445H29.7826ZM48.5651 199.445H67.3477V180.663H48.5651V199.445ZM67.3477 199.445V218.228H86.1302V199.445H67.3477ZM86.1302 199.445H104.913V180.663H86.1302V199.445Z" fill="#5AAF21" fill-opacity="0.5"/>
<path d="M11 237.011V312.141H123.695V237.011H11ZM11 237.011H29.7826V255.793H48.5651V237.011H67.3477V255.793H86.1302V237.011H104.913V255.793H123.695V274.576H104.913V293.358H123.695V312.141H104.913V293.358H86.1302V312.141H67.3477V293.358H48.5651V312.141H29.7826V293.358H11V274.576H29.7826V255.793H11V237.011ZM29.7826 274.576V293.358H48.5651V274.576H29.7826ZM48.5651 274.576H67.3477V255.793H48.5651V274.576ZM67.3477 274.576V293.358H86.1302V274.576H67.3477ZM86.1302 274.576H104.913V255.793H86.1302V274.576Z" fill="#5AAF21" fill-opacity="0.5"/>
<path d="M11 312.141V387.271H123.695V312.141H11ZM11 312.141H29.7826V330.924H48.5651V312.141H67.3477V330.924H86.1302V312.141H104.913V330.924H123.695V349.706H104.913V368.489H123.695V387.271H104.913V368.489H86.1302V387.271H67.3477V368.489H48.5651V387.271H29.7826V368.489H11V349.706H29.7826V330.924H11V312.141ZM29.7826 349.706V368.489H48.5651V349.706H29.7826ZM48.5651 349.706H67.3477V330.924H48.5651V349.706ZM67.3477 349.706V368.489H86.1302V349.706H67.3477ZM86.1302 349.706H104.913V330.924H86.1302V349.706Z" fill="#5AAF21" fill-opacity="0.5"/>
<path d="M11 387.271V462.402H123.695V387.271H11ZM11 387.271H29.7826V406.054H48.5651V387.271H67.3477V406.054H86.1302V387.271H104.913V406.054H123.695V424.837H104.913V443.619H123.695V462.402H104.913V443.619H86.1302V462.402H67.3477V443.619H48.5651V462.402H29.7826V443.619H11V424.837H29.7826V406.054H11V387.271ZM29.7826 424.837V443.619H48.5651V424.837H29.7826ZM48.5651 424.837H67.3477V406.054H48.5651V424.837ZM67.3477 424.837V443.619H86.1302V424.837H67.3477ZM86.1302 424.837H104.913V406.054H86.1302V424.837Z" fill="#5AAF21" fill-opacity="0.5"/>
<path d="M11 462.401V537.532H123.695V462.401H11ZM11 462.401H29.7826V481.184H48.5651V462.401H67.3477V481.184H86.1302V462.401H104.913V481.184H123.695V499.966H104.913V518.749H123.695V537.532H104.913V518.749H86.1302V537.532H67.3477V518.749H48.5651V537.532H29.7826V518.749H11V499.966H29.7826V481.184H11V462.401ZM29.7826 499.966V518.749H48.5651V499.966H29.7826ZM48.5651 499.966H67.3477V481.184H48.5651V499.966ZM67.3477 499.966V518.749H86.1302V499.966H67.3477ZM86.1302 499.966H104.913V481.184H86.1302V499.966Z" fill="#5AAF21" fill-opacity="0.5"/>
<path d="M682 538V588H795V538H682ZM682 538H700.833V554.667H719.667V538H738.5V554.667H757.333V538H776.167V554.667H795V571.333H776.167V588H757.333H738.5H719.667H700.833H682V571.333H700.833V554.667H682V538ZM700.833 571.333V588H719.667V571.333H700.833ZM719.667 571.333H738.5V554.667H719.667V571.333ZM738.5 571.333V588H757.333V571.333H738.5ZM757.333 571.333H776.167V554.667H757.333V571.333Z" fill="#5AAF21" fill-opacity="0.5"/>
<path d="M795 537V587.5H906V537H795ZM795 537H813.5V553.833H832V537H850.5V553.833H869V537H887.5V553.833H906V570.667H887.5V587.5H869H850.5H832H813.5H795V570.667H813.5V553.833H795V537ZM813.5 570.667V587.5H832V570.667H813.5ZM832 570.667H850.5V553.833H832V570.667ZM850.5 570.667V587.5H869V570.667H850.5ZM869 570.667H887.5V553.833H869V570.667Z" fill="#5AAF21" fill-opacity="0.5"/>
<path d="M906 537V587H1018V537H906ZM906 537H924.667V553.667H943.333V537H962V553.667H980.667V537H999.333V553.667H1018V570.333H999.333V587H980.667H962H943.333H924.667H906V570.333H924.667V553.667H906V537ZM924.667 570.333V587H943.333V570.333H924.667ZM943.333 570.333H962V553.667H943.333V570.333ZM962 570.333V587H980.667V570.333H962ZM980.667 570.333H999.333V553.667H980.667V570.333Z" fill="#5AAF21" fill-opacity="0.5"/>
<path d="M570 537V588H682V537H570ZM570 537H588.667V554H607.333V537H626V554H644.667V537H663.333V554H682V571H663.333V588H644.667H626H607.333H588.667H570V571H588.667V554H570V537ZM588.667 571V588H607.333V571H588.667ZM607.333 571H626V554H607.333V571ZM626 571V588H644.667V571H626ZM644.667 571H663.333V554H644.667V571Z" fill="#5AAF21" fill-opacity="0.5"/>
<path d="M460 537V588H572V537H460ZM460 537H478.667V554H497.333V537H516V554H534.667V537H553.333V554H572V571H553.333V588H534.667H516H497.333H478.667H460V571H478.667V554H460V537ZM478.667 571V588H497.333V571H478.667ZM497.333 571H516V554H497.333V571ZM516 571V588H534.667V571H516ZM534.667 571H553.333V554H534.667V571Z" fill="#5AAF21" fill-opacity="0.5"/>
<path d="M348 537V588H460V537H348ZM348 537H366.667V554H385.333V537H404V554H422.667V537H441.333V554H460V571H441.333V588H422.667H404H385.333H366.667H348V571H366.667V554H348V537ZM366.667 571V588H385.333V571H366.667ZM385.333 571H404V554H385.333V571ZM404 571V588H422.667V571H404ZM422.667 571H441.333V554H422.667V571Z" fill="#5AAF21" fill-opacity="0.5"/>
<path d="M236 537V588H348V537H236ZM236 537H254.667V554H273.333V537H292V554H310.667V537H329.333V554H348V571H329.333V588H310.667H292H273.333H254.667H236V571H254.667V554H236V537ZM254.667 571V588H273.333V571H254.667ZM273.333 571H292V554H273.333V571ZM292 571V588H310.667V571H292ZM310.667 571H329.333V554H310.667V571Z" fill="#5AAF21" fill-opacity="0.5"/>
<path d="M124 537V588H236V537H124ZM124 537H142.667V554H161.333V537H180V554H198.667V537H217.333V554H236V571H217.333V588H198.667H180H161.333H142.667H124V571H142.667V554H124V537ZM142.667 571V588H161.333V571H142.667ZM161.333 571H180V554H161.333V571ZM180 571V588H198.667V571H180ZM198.667 571H217.333V554H198.667V571Z" fill="#5AAF21" fill-opacity="0.5"/>
<path d="M11 537V588H124V537H11ZM11 537H29.8333V554H48.6667V537H67.5V554H86.3333V537H105.167V554H124V571H105.167V588H86.3333H67.5H48.6667H29.8333H11V571H29.8333V554H11V537ZM29.8333 571V588H48.6667V571H29.8333ZM48.6667 571H67.5V554H48.6667V571ZM67.5 571V588H86.3333V571H67.5ZM86.3333 571H105.167V554H86.3333V571Z" fill="#5AAF21" fill-opacity="0.5"/>
<path d="M1018 537V587H1130V537H1018ZM1018 537H1036.67V553.667H1055.33V537H1074V553.667H1092.67V537H1111.33V553.667H1130V570.333H1111.33V587H1092.67H1074H1055.33H1036.67H1018V570.333H1036.67V553.667H1018V537ZM1036.67 570.333V587H1055.33V570.333H1036.67ZM1055.33 570.333H1074V553.667H1055.33V570.333ZM1074 570.333V587H1092.67V570.333H1074ZM1092.67 570.333H1111.33V553.667H1092.67V570.333Z" fill="#5AAF21" fill-opacity="0.5"/>
<path d="M122.861 11.6201V86.7504H235.556V11.6201H122.861ZM122.861 11.6201H141.643V30.4027H160.426V11.6201H179.208V30.4027H197.991V11.6201H216.773V30.4027H235.556V49.1852H216.773V67.9678H235.556V86.7504H216.773V67.9678H197.991V86.7504H179.208V67.9678H160.426V86.7504H141.643V67.9678H122.861V49.1852H141.643V30.4027H122.861V11.6201ZM141.643 49.1852V67.9678H160.426V49.1852H141.643ZM160.426 49.1852H179.208V30.4027H160.426V49.1852ZM179.208 49.1852V67.9678H197.991V49.1852H179.208ZM197.991 49.1852H216.773V30.4027H197.991V49.1852Z" fill="#5AAF21" fill-opacity="0.5"/>
<path d="M122.861 86.7505V161.881H235.556V86.7505H122.861ZM122.861 86.7505H141.643V105.533H160.426V86.7505H179.208V105.533H197.991V86.7505H216.773V105.533H235.556V124.316H216.773V143.098H235.556V161.881H216.773V143.098H197.991V161.881H179.208V143.098H160.426V161.881H141.643V143.098H122.861V124.316H141.643V105.533H122.861V86.7505ZM141.643 124.316V143.098H160.426V124.316H141.643ZM160.426 124.316H179.208V105.533H160.426V124.316ZM179.208 124.316V143.098H197.991V124.316H179.208ZM197.991 124.316H216.773V105.533H197.991V124.316Z" fill="#5AAF21" fill-opacity="0.5"/>
<path d="M122.861 161.88V237.011H235.556V161.88H122.861ZM122.861 161.88H141.643V180.663H160.426V161.88H179.208V180.663H197.991V161.88H216.773V180.663H235.556V199.445H216.773V218.228H235.556V237.011H216.773V218.228H197.991V237.011H179.208V218.228H160.426V237.011H141.643V218.228H122.861V199.445H141.643V180.663H122.861V161.88ZM141.643 199.445V218.228H160.426V199.445H141.643ZM160.426 199.445H179.208V180.663H160.426V199.445ZM179.208 199.445V218.228H197.991V199.445H179.208ZM197.991 199.445H216.773V180.663H197.991V199.445Z" fill="#5AAF21" fill-opacity="0.5"/>
<path d="M122.861 237.011V312.141H235.556V237.011H122.861ZM122.861 237.011H141.643V255.793H160.426V237.011H179.208V255.793H197.991V237.011H216.773V255.793H235.556V274.576H216.773V293.358H235.556V312.141H216.773V293.358H197.991V312.141H179.208V293.358H160.426V312.141H141.643V293.358H122.861V274.576H141.643V255.793H122.861V237.011ZM141.643 274.576V293.358H160.426V274.576H141.643ZM160.426 274.576H179.208V255.793H160.426V274.576ZM179.208 274.576V293.358H197.991V274.576H179.208ZM197.991 274.576H216.773V255.793H197.991V274.576Z" fill="#5AAF21" fill-opacity="0.5"/>
<path d="M122.861 312.141V387.271H235.556V312.141H122.861ZM122.861 312.141H141.643V330.924H160.426V312.141H179.208V330.924H197.991V312.141H216.773V330.924H235.556V349.706H216.773V368.489H235.556V387.271H216.773V368.489H197.991V387.271H179.208V368.489H160.426V387.271H141.643V368.489H122.861V349.706H141.643V330.924H122.861V312.141ZM141.643 349.706V368.489H160.426V349.706H141.643ZM160.426 349.706H179.208V330.924H160.426V349.706ZM179.208 349.706V368.489H197.991V349.706H179.208ZM197.991 349.706H216.773V330.924H197.991V349.706Z" fill="#5AAF21" fill-opacity="0.5"/>
<path d="M122.861 387.271V462.402H235.556V387.271H122.861ZM122.861 387.271H141.643V406.054H160.426V387.271H179.208V406.054H197.991V387.271H216.773V406.054H235.556V424.837H216.773V443.619H235.556V462.402H216.773V443.619H197.991V462.402H179.208V443.619H160.426V462.402H141.643V443.619H122.861V424.837H141.643V406.054H122.861V387.271ZM141.643 424.837V443.619H160.426V424.837H141.643ZM160.426 424.837H179.208V406.054H160.426V424.837ZM179.208 424.837V443.619H197.991V424.837H179.208ZM197.991 424.837H216.773V406.054H197.991V424.837Z" fill="#5AAF21" fill-opacity="0.5"/>
<path d="M122.861 462.401V537.532H235.556V462.401H122.861ZM122.861 462.401H141.643V481.184H160.426V462.401H179.208V481.184H197.991V462.401H216.773V481.184H235.556V499.966H216.773V518.749H235.556V537.532H216.773V518.749H197.991V537.532H179.208V518.749H160.426V537.532H141.643V518.749H122.861V499.966H141.643V481.184H122.861V462.401ZM141.643 499.966V518.749H160.426V499.966H141.643ZM160.426 499.966H179.208V481.184H160.426V499.966ZM179.208 499.966V518.749H197.991V499.966H179.208ZM197.991 499.966H216.773V481.184H197.991V499.966Z" fill="#5AAF21" fill-opacity="0.5"/>
<path d="M234.721 11.6201V86.7504H347.417V11.6201H234.721ZM234.721 11.6201H253.504V30.4027H272.286V11.6201H291.069V30.4027H309.851V11.6201H328.634V30.4027H347.417V49.1852H328.634V67.9678H347.417V86.7504H328.634V67.9678H309.851V86.7504H291.069V67.9678H272.286V86.7504H253.504V67.9678H234.721V49.1852H253.504V30.4027H234.721V11.6201ZM253.504 49.1852V67.9678H272.286V49.1852H253.504ZM272.286 49.1852H291.069V30.4027H272.286V49.1852ZM291.069 49.1852V67.9678H309.851V49.1852H291.069ZM309.851 49.1852H328.634V30.4027H309.851V49.1852Z" fill="#5AAF21" fill-opacity="0.5"/>
<path d="M234.721 86.7505V161.881H347.417V86.7505H234.721ZM234.721 86.7505H253.504V105.533H272.286V86.7505H291.069V105.533H309.851V86.7505H328.634V105.533H347.417V124.316H328.634V143.098H347.417V161.881H328.634V143.098H309.851V161.881H291.069V143.098H272.286V161.881H253.504V143.098H234.721V124.316H253.504V105.533H234.721V86.7505ZM253.504 124.316V143.098H272.286V124.316H253.504ZM272.286 124.316H291.069V105.533H272.286V124.316ZM291.069 124.316V143.098H309.851V124.316H291.069ZM309.851 124.316H328.634V105.533H309.851V124.316Z" fill="#5AAF21" fill-opacity="0.5"/>
<path d="M234.721 161.88V237.011H347.417V161.88H234.721ZM234.721 161.88H253.504V180.663H272.286V161.88H291.069V180.663H309.851V161.88H328.634V180.663H347.417V199.445H328.634V218.228H347.417V237.011H328.634V218.228H309.851V237.011H291.069V218.228H272.286V237.011H253.504V218.228H234.721V199.445H253.504V180.663H234.721V161.88ZM253.504 199.445V218.228H272.286V199.445H253.504ZM272.286 199.445H291.069V180.663H272.286V199.445ZM291.069 199.445V218.228H309.851V199.445H291.069ZM309.851 199.445H328.634V180.663H309.851V199.445Z" fill="#5AAF21" fill-opacity="0.5"/>
<path d="M234.721 237.011V312.141H347.417V237.011H234.721ZM234.721 237.011H253.504V255.793H272.286V237.011H291.069V255.793H309.851V237.011H328.634V255.793H347.417V274.576H328.634V293.358H347.417V312.141H328.634V293.358H309.851V312.141H291.069V293.358H272.286V312.141H253.504V293.358H234.721V274.576H253.504V255.793H234.721V237.011ZM253.504 274.576V293.358H272.286V274.576H253.504ZM272.286 274.576H291.069V255.793H272.286V274.576ZM291.069 274.576V293.358H309.851V274.576H291.069ZM309.851 274.576H328.634V255.793H309.851V274.576Z" fill="#5AAF21" fill-opacity="0.5"/>
<path d="M234.721 312.141V387.271H347.417V312.141H234.721ZM234.721 312.141H253.504V330.924H272.286V312.141H291.069V330.924H309.851V312.141H328.634V330.924H347.417V349.706H328.634V368.489H347.417V387.271H328.634V368.489H309.851V387.271H291.069V368.489H272.286V387.271H253.504V368.489H234.721V349.706H253.504V330.924H234.721V312.141ZM253.504 349.706V368.489H272.286V349.706H253.504ZM272.286 349.706H291.069V330.924H272.286V349.706ZM291.069 349.706V368.489H309.851V349.706H291.069ZM309.851 349.706H328.634V330.924H309.851V349.706Z" fill="#5AAF21" fill-opacity="0.5"/>
<path d="M234.721 387.271V462.402H347.417V387.271H234.721ZM234.721 387.271H253.504V406.054H272.286V387.271H291.069V406.054H309.851V387.271H328.634V406.054H347.417V424.837H328.634V443.619H347.417V462.402H328.634V443.619H309.851V462.402H291.069V443.619H272.286V462.402H253.504V443.619H234.721V424.837H253.504V406.054H234.721V387.271ZM253.504 424.837V443.619H272.286V424.837H253.504ZM272.286 424.837H291.069V406.054H272.286V424.837ZM291.069 424.837V443.619H309.851V424.837H291.069ZM309.851 424.837H328.634V406.054H309.851V424.837Z" fill="#5AAF21" fill-opacity="0.5"/>
<path d="M234.721 462.401V537.532H347.417V462.401H234.721ZM234.721 462.401H253.504V481.184H272.286V462.401H291.069V481.184H309.851V462.401H328.634V481.184H347.417V499.966H328.634V518.749H347.417V537.532H328.634V518.749H309.851V537.532H291.069V518.749H272.286V537.532H253.504V518.749H234.721V499.966H253.504V481.184H234.721V462.401ZM253.504 499.966V518.749H272.286V499.966H253.504ZM272.286 499.966H291.069V481.184H272.286V499.966ZM291.069 499.966V518.749H309.851V499.966H291.069ZM309.851 499.966H328.634V481.184H309.851V499.966Z" fill="#5AAF21" fill-opacity="0.5"/>
<path d="M346.582 11.6201V86.7504H459.277V11.6201H346.582ZM346.582 11.6201H365.364V30.4027H384.147V11.6201H402.929V30.4027H421.712V11.6201H440.495V30.4027H459.277V49.1852H440.495V67.9678H459.277V86.7504H440.495V67.9678H421.712V86.7504H402.929V67.9678H384.147V86.7504H365.364V67.9678H346.582V49.1852H365.364V30.4027H346.582V11.6201ZM365.364 49.1852V67.9678H384.147V49.1852H365.364ZM384.147 49.1852H402.929V30.4027H384.147V49.1852ZM402.929 49.1852V67.9678H421.712V49.1852H402.929ZM421.712 49.1852H440.495V30.4027H421.712V49.1852Z" fill="#5AAF21" fill-opacity="0.5"/>
<path d="M346.582 86.7505V161.881H459.277V86.7505H346.582ZM346.582 86.7505H365.364V105.533H384.147V86.7505H402.929V105.533H421.712V86.7505H440.495V105.533H459.277V124.316H440.495V143.098H459.277V161.881H440.495V143.098H421.712V161.881H402.929V143.098H384.147V161.881H365.364V143.098H346.582V124.316H365.364V105.533H346.582V86.7505ZM365.364 124.316V143.098H384.147V124.316H365.364ZM384.147 124.316H402.929V105.533H384.147V124.316ZM402.929 124.316V143.098H421.712V124.316H402.929ZM421.712 124.316H440.495V105.533H421.712V124.316Z" fill="#5AAF21" fill-opacity="0.5"/>
<path d="M346.582 161.88V237.011H459.277V161.88H346.582ZM346.582 161.88H365.364V180.663H384.147V161.88H402.929V180.663H421.712V161.88H440.495V180.663H459.277V199.445H440.495V218.228H459.277V237.011H440.495V218.228H421.712V237.011H402.929V218.228H384.147V237.011H365.364V218.228H346.582V199.445H365.364V180.663H346.582V161.88ZM365.364 199.445V218.228H384.147V199.445H365.364ZM384.147 199.445H402.929V180.663H384.147V199.445ZM402.929 199.445V218.228H421.712V199.445H402.929ZM421.712 199.445H440.495V180.663H421.712V199.445Z" fill="#5AAF21" fill-opacity="0.5"/>
<path d="M346.582 237.011V312.141H459.277V237.011H346.582ZM346.582 237.011H365.364V255.793H384.147V237.011H402.929V255.793H421.712V237.011H440.495V255.793H459.277V274.576H440.495V293.358H459.277V312.141H440.495V293.358H421.712V312.141H402.929V293.358H384.147V312.141H365.364V293.358H346.582V274.576H365.364V255.793H346.582V237.011ZM365.364 274.576V293.358H384.147V274.576H365.364ZM384.147 274.576H402.929V255.793H384.147V274.576ZM402.929 274.576V293.358H421.712V274.576H402.929ZM421.712 274.576H440.495V255.793H421.712V274.576Z" fill="#5AAF21" fill-opacity="0.5"/>
<path d="M346.582 312.141V387.271H459.277V312.141H346.582ZM346.582 312.141H365.364V330.924H384.147V312.141H402.929V330.924H421.712V312.141H440.495V330.924H459.277V349.706H440.495V368.489H459.277V387.271H440.495V368.489H421.712V387.271H402.929V368.489H384.147V387.271H365.364V368.489H346.582V349.706H365.364V330.924H346.582V312.141ZM365.364 349.706V368.489H384.147V349.706H365.364ZM384.147 349.706H402.929V330.924H384.147V349.706ZM402.929 349.706V368.489H421.712V349.706H402.929ZM421.712 349.706H440.495V330.924H421.712V349.706Z" fill="#5AAF21" fill-opacity="0.5"/>
<path d="M346.582 387.271V462.402H459.277V387.271H346.582ZM346.582 387.271H365.364V406.054H384.147V387.271H402.929V406.054H421.712V387.271H440.495V406.054H459.277V424.837H440.495V443.619H459.277V462.402H440.495V443.619H421.712V462.402H402.929V443.619H384.147V462.402H365.364V443.619H346.582V424.837H365.364V406.054H346.582V387.271ZM365.364 424.837V443.619H384.147V424.837H365.364ZM384.147 424.837H402.929V406.054H384.147V424.837ZM402.929 424.837V443.619H421.712V424.837H402.929ZM421.712 424.837H440.495V406.054H421.712V424.837Z" fill="#5AAF21" fill-opacity="0.5"/>
<path d="M346.582 462.401V537.532H459.277V462.401H346.582ZM346.582 462.401H365.364V481.184H384.147V462.401H402.929V481.184H421.712V462.401H440.495V481.184H459.277V499.966H440.495V518.749H459.277V537.532H440.495V518.749H421.712V537.532H402.929V518.749H384.147V537.532H365.364V518.749H346.582V499.966H365.364V481.184H346.582V462.401ZM365.364 499.966V518.749H384.147V499.966H365.364ZM384.147 499.966H402.929V481.184H384.147V499.966ZM402.929 499.966V518.749H421.712V499.966H402.929ZM421.712 499.966H440.495V481.184H421.712V499.966Z" fill="#5AAF21" fill-opacity="0.5"/>
<path d="M458.442 11.6201V86.7504H571.138V11.6201H458.442ZM458.442 11.6201H477.225V30.4027H496.007V11.6201H514.79V30.4027H533.573V11.6201H552.355V30.4027H571.138V49.1852H552.355V67.9678H571.138V86.7504H552.355V67.9678H533.573V86.7504H514.79V67.9678H496.007V86.7504H477.225V67.9678H458.442V49.1852H477.225V30.4027H458.442V11.6201ZM477.225 49.1852V67.9678H496.007V49.1852H477.225ZM496.007 49.1852H514.79V30.4027H496.007V49.1852ZM514.79 49.1852V67.9678H533.573V49.1852H514.79ZM533.573 49.1852H552.355V30.4027H533.573V49.1852Z" fill="#5AAF21" fill-opacity="0.5"/>
<path d="M458.442 86.7505V161.881H571.138V86.7505H458.442ZM458.442 86.7505H477.225V105.533H496.007V86.7505H514.79V105.533H533.573V86.7505H552.355V105.533H571.138V124.316H552.355V143.098H571.138V161.881H552.355V143.098H533.573V161.881H514.79V143.098H496.007V161.881H477.225V143.098H458.442V124.316H477.225V105.533H458.442V86.7505ZM477.225 124.316V143.098H496.007V124.316H477.225ZM496.007 124.316H514.79V105.533H496.007V124.316ZM514.79 124.316V143.098H533.573V124.316H514.79ZM533.573 124.316H552.355V105.533H533.573V124.316Z" fill="#5AAF21" fill-opacity="0.5"/>
<path d="M458.442 161.88V237.011H571.138V161.88H458.442ZM458.442 161.88H477.225V180.663H496.007V161.88H514.79V180.663H533.573V161.88H552.355V180.663H571.138V199.445H552.355V218.228H571.138V237.011H552.355V218.228H533.573V237.011H514.79V218.228H496.007V237.011H477.225V218.228H458.442V199.445H477.225V180.663H458.442V161.88ZM477.225 199.445V218.228H496.007V199.445H477.225ZM496.007 199.445H514.79V180.663H496.007V199.445ZM514.79 199.445V218.228H533.573V199.445H514.79ZM533.573 199.445H552.355V180.663H533.573V199.445Z" fill="#5AAF21" fill-opacity="0.5"/>
<path d="M458.442 237.011V312.141H571.138V237.011H458.442ZM458.442 237.011H477.225V255.793H496.007V237.011H514.79V255.793H533.573V237.011H552.355V255.793H571.138V274.576H552.355V293.358H571.138V312.141H552.355V293.358H533.573V312.141H514.79V293.358H496.007V312.141H477.225V293.358H458.442V274.576H477.225V255.793H458.442V237.011ZM477.225 274.576V293.358H496.007V274.576H477.225ZM496.007 274.576H514.79V255.793H496.007V274.576ZM514.79 274.576V293.358H533.573V274.576H514.79ZM533.573 274.576H552.355V255.793H533.573V274.576Z" fill="#5AAF21" fill-opacity="0.5"/>
<path d="M458.442 312.141V387.271H571.138V312.141H458.442ZM458.442 312.141H477.225V330.924H496.007V312.141H514.79V330.924H533.573V312.141H552.355V330.924H571.138V349.706H552.355V368.489H571.138V387.271H552.355V368.489H533.573V387.271H514.79V368.489H496.007V387.271H477.225V368.489H458.442V349.706H477.225V330.924H458.442V312.141ZM477.225 349.706V368.489H496.007V349.706H477.225ZM496.007 349.706H514.79V330.924H496.007V349.706ZM514.79 349.706V368.489H533.573V349.706H514.79ZM533.573 349.706H552.355V330.924H533.573V349.706Z" fill="#5AAF21" fill-opacity="0.5"/>
<path d="M458.442 387.271V462.402H571.138V387.271H458.442ZM458.442 387.271H477.225V406.054H496.007V387.271H514.79V406.054H533.573V387.271H552.355V406.054H571.138V424.837H552.355V443.619H571.138V462.402H552.355V443.619H533.573V462.402H514.79V443.619H496.007V462.402H477.225V443.619H458.442V424.837H477.225V406.054H458.442V387.271ZM477.225 424.837V443.619H496.007V424.837H477.225ZM496.007 424.837H514.79V406.054H496.007V424.837ZM514.79 424.837V443.619H533.573V424.837H514.79ZM533.573 424.837H552.355V406.054H533.573V424.837Z" fill="#5AAF21" fill-opacity="0.5"/>
<path d="M458.442 462.401V537.532H571.138V462.401H458.442ZM458.442 462.401H477.225V481.184H496.007V462.401H514.79V481.184H533.573V462.401H552.355V481.184H571.138V499.966H552.355V518.749H571.138V537.532H552.355V518.749H533.573V537.532H514.79V518.749H496.007V537.532H477.225V518.749H458.442V499.966H477.225V481.184H458.442V462.401ZM477.225 499.966V518.749H496.007V499.966H477.225ZM496.007 499.966H514.79V481.184H496.007V499.966ZM514.79 499.966V518.749H533.573V499.966H514.79ZM533.573 499.966H552.355V481.184H533.573V499.966Z" fill="#5AAF21" fill-opacity="0.5"/>
<path d="M570.303 11.6201V86.7504H682.998V11.6201H570.303ZM570.303 11.6201H589.085V30.4027H607.868V11.6201H626.651V30.4027H645.433V11.6201H664.216V30.4027H682.998V49.1852H664.216V67.9678H682.998V86.7504H664.216V67.9678H645.433V86.7504H626.651V67.9678H607.868V86.7504H589.085V67.9678H570.303V49.1852H589.085V30.4027H570.303V11.6201ZM589.085 49.1852V67.9678H607.868V49.1852H589.085ZM607.868 49.1852H626.651V30.4027H607.868V49.1852ZM626.651 49.1852V67.9678H645.433V49.1852H626.651ZM645.433 49.1852H664.216V30.4027H645.433V49.1852Z" fill="#5AAF21" fill-opacity="0.5"/>
<path d="M570.303 86.7505V161.881H682.998V86.7505H570.303ZM570.303 86.7505H589.085V105.533H607.868V86.7505H626.651V105.533H645.433V86.7505H664.216V105.533H682.998V124.316H664.216V143.098H682.998V161.881H664.216V143.098H645.433V161.881H626.651V143.098H607.868V161.881H589.085V143.098H570.303V124.316H589.085V105.533H570.303V86.7505ZM589.085 124.316V143.098H607.868V124.316H589.085ZM607.868 124.316H626.651V105.533H607.868V124.316ZM626.651 124.316V143.098H645.433V124.316H626.651ZM645.433 124.316H664.216V105.533H645.433V124.316Z" fill="#5AAF21" fill-opacity="0.5"/>
<path d="M570.303 161.88V237.011H682.998V161.88H570.303ZM570.303 161.88H589.085V180.663H607.868V161.88H626.651V180.663H645.433V161.88H664.216V180.663H682.998V199.445H664.216V218.228H682.998V237.011H664.216V218.228H645.433V237.011H626.651V218.228H607.868V237.011H589.085V218.228H570.303V199.445H589.085V180.663H570.303V161.88ZM589.085 199.445V218.228H607.868V199.445H589.085ZM607.868 199.445H626.651V180.663H607.868V199.445ZM626.651 199.445V218.228H645.433V199.445H626.651ZM645.433 199.445H664.216V180.663H645.433V199.445Z" fill="#5AAF21" fill-opacity="0.5"/>
<path d="M570.303 237.011V312.141H682.998V237.011H570.303ZM570.303 237.011H589.085V255.793H607.868V237.011H626.651V255.793H645.433V237.011H664.216V255.793H682.998V274.576H664.216V293.358H682.998V312.141H664.216V293.358H645.433V312.141H626.651V293.358H607.868V312.141H589.085V293.358H570.303V274.576H589.085V255.793H570.303V237.011ZM589.085 274.576V293.358H607.868V274.576H589.085ZM607.868 274.576H626.651V255.793H607.868V274.576ZM626.651 274.576V293.358H645.433V274.576H626.651ZM645.433 274.576H664.216V255.793H645.433V274.576Z" fill="#5AAF21" fill-opacity="0.5"/>
<path d="M570.303 312.141V387.271H682.998V312.141H570.303ZM570.303 312.141H589.085V330.924H607.868V312.141H626.651V330.924H645.433V312.141H664.216V330.924H682.998V349.706H664.216V368.489H682.998V387.271H664.216V368.489H645.433V387.271H626.651V368.489H607.868V387.271H589.085V368.489H570.303V349.706H589.085V330.924H570.303V312.141ZM589.085 349.706V368.489H607.868V349.706H589.085ZM607.868 349.706H626.651V330.924H607.868V349.706ZM626.651 349.706V368.489H645.433V349.706H626.651ZM645.433 349.706H664.216V330.924H645.433V349.706Z" fill="#5AAF21" fill-opacity="0.5"/>
<path d="M570.303 387.271V462.402H682.998V387.271H570.303ZM570.303 387.271H589.085V406.054H607.868V387.271H626.651V406.054H645.433V387.271H664.216V406.054H682.998V424.837H664.216V443.619H682.998V462.402H664.216V443.619H645.433V462.402H626.651V443.619H607.868V462.402H589.085V443.619H570.303V424.837H589.085V406.054H570.303V387.271ZM589.085 424.837V443.619H607.868V424.837H589.085ZM607.868 424.837H626.651V406.054H607.868V424.837ZM626.651 424.837V443.619H645.433V424.837H626.651ZM645.433 424.837H664.216V406.054H645.433V424.837Z" fill="#5AAF21" fill-opacity="0.5"/>
<path d="M570.303 462.401V537.532H682.998V462.401H570.303ZM570.303 462.401H589.085V481.184H607.868V462.401H626.651V481.184H645.433V462.401H664.216V481.184H682.998V499.966H664.216V518.749H682.998V537.532H664.216V518.749H645.433V537.532H626.651V518.749H607.868V537.532H589.085V518.749H570.303V499.966H589.085V481.184H570.303V462.401ZM589.085 499.966V518.749H607.868V499.966H589.085ZM607.868 499.966H626.651V481.184H607.868V499.966ZM626.651 499.966V518.749H645.433V499.966H626.651ZM645.433 499.966H664.216V481.184H645.433V499.966Z" fill="#5AAF21" fill-opacity="0.5"/>
<path d="M682.163 11.6201V86.7504H794.859V11.6201H682.163ZM682.163 11.6201H700.946V30.4027H719.729V11.6201H738.511V30.4027H757.294V11.6201H776.076V30.4027H794.859V49.1852H776.076V67.9678H794.859V86.7504H776.076V67.9678H757.294V86.7504H738.511V67.9678H719.729V86.7504H700.946V67.9678H682.163V49.1852H700.946V30.4027H682.163V11.6201ZM700.946 49.1852V67.9678H719.729V49.1852H700.946ZM719.729 49.1852H738.511V30.4027H719.729V49.1852ZM738.511 49.1852V67.9678H757.294V49.1852H738.511ZM757.294 49.1852H776.076V30.4027H757.294V49.1852Z" fill="#5AAF21" fill-opacity="0.5"/>
<path d="M682.163 86.7505V161.881H794.859V86.7505H682.163ZM682.163 86.7505H700.946V105.533H719.729V86.7505H738.511V105.533H757.294V86.7505H776.076V105.533H794.859V124.316H776.076V143.098H794.859V161.881H776.076V143.098H757.294V161.881H738.511V143.098H719.729V161.881H700.946V143.098H682.163V124.316H700.946V105.533H682.163V86.7505ZM700.946 124.316V143.098H719.729V124.316H700.946ZM719.729 124.316H738.511V105.533H719.729V124.316ZM738.511 124.316V143.098H757.294V124.316H738.511ZM757.294 124.316H776.076V105.533H757.294V124.316Z" fill="#5AAF21" fill-opacity="0.5"/>
<path d="M682.163 161.88V237.011H794.859V161.88H682.163ZM682.163 161.88H700.946V180.663H719.729V161.88H738.511V180.663H757.294V161.88H776.076V180.663H794.859V199.445H776.076V218.228H794.859V237.011H776.076V218.228H757.294V237.011H738.511V218.228H719.729V237.011H700.946V218.228H682.163V199.445H700.946V180.663H682.163V161.88ZM700.946 199.445V218.228H719.729V199.445H700.946ZM719.729 199.445H738.511V180.663H719.729V199.445ZM738.511 199.445V218.228H757.294V199.445H738.511ZM757.294 199.445H776.076V180.663H757.294V199.445Z" fill="#5AAF21" fill-opacity="0.5"/>
<path d="M682.163 237.011V312.141H794.859V237.011H682.163ZM682.163 237.011H700.946V255.793H719.729V237.011H738.511V255.793H757.294V237.011H776.076V255.793H794.859V274.576H776.076V293.358H794.859V312.141H776.076V293.358H757.294V312.141H738.511V293.358H719.729V312.141H700.946V293.358H682.163V274.576H700.946V255.793H682.163V237.011ZM700.946 274.576V293.358H719.729V274.576H700.946ZM719.729 274.576H738.511V255.793H719.729V274.576ZM738.511 274.576V293.358H757.294V274.576H738.511ZM757.294 274.576H776.076V255.793H757.294V274.576Z" fill="#5AAF21" fill-opacity="0.5"/>
<path d="M682.163 312.141V387.271H794.859V312.141H682.163ZM682.163 312.141H700.946V330.924H719.729V312.141H738.511V330.924H757.294V312.141H776.076V330.924H794.859V349.706H776.076V368.489H794.859V387.271H776.076V368.489H757.294V387.271H738.511V368.489H719.729V387.271H700.946V368.489H682.163V349.706H700.946V330.924H682.163V312.141ZM700.946 349.706V368.489H719.729V349.706H700.946ZM719.729 349.706H738.511V330.924H719.729V349.706ZM738.511 349.706V368.489H757.294V349.706H738.511ZM757.294 349.706H776.076V330.924H757.294V349.706Z" fill="#5AAF21" fill-opacity="0.5"/>
<path d="M682.163 387.271V462.402H794.859V387.271H682.163ZM682.163 387.271H700.946V406.054H719.729V387.271H738.511V406.054H757.294V387.271H776.076V406.054H794.859V424.837H776.076V443.619H794.859V462.402H776.076V443.619H757.294V462.402H738.511V443.619H719.729V462.402H700.946V443.619H682.163V424.837H700.946V406.054H682.163V387.271ZM700.946 424.837V443.619H719.729V424.837H700.946ZM719.729 424.837H738.511V406.054H719.729V424.837ZM738.511 424.837V443.619H757.294V424.837H738.511ZM757.294 424.837H776.076V406.054H757.294V424.837Z" fill="#5AAF21" fill-opacity="0.5"/>
<path d="M682.163 462.401V537.532H794.859V462.401H682.163ZM682.163 462.401H700.946V481.184H719.729V462.401H738.511V481.184H757.294V462.401H776.076V481.184H794.859V499.966H776.076V518.749H794.859V537.532H776.076V518.749H757.294V537.532H738.511V518.749H719.729V537.532H700.946V518.749H682.163V499.966H700.946V481.184H682.163V462.401ZM700.946 499.966V518.749H719.729V499.966H700.946ZM719.729 499.966H738.511V481.184H719.729V499.966ZM738.511 499.966V518.749H757.294V499.966H738.511ZM757.294 499.966H776.076V481.184H757.294V499.966Z" fill="#5AAF21" fill-opacity="0.5"/>
<path d="M794.024 11.6201V86.7504H906.719V11.6201H794.024ZM794.024 11.6201H812.807V30.4027H831.589V11.6201H850.372V30.4027H869.154V11.6201H887.937V30.4027H906.719V49.1852H887.937V67.9678H906.719V86.7504H887.937V67.9678H869.154V86.7504H850.372V67.9678H831.589V86.7504H812.807V67.9678H794.024V49.1852H812.807V30.4027H794.024V11.6201ZM812.807 49.1852V67.9678H831.589V49.1852H812.807ZM831.589 49.1852H850.372V30.4027H831.589V49.1852ZM850.372 49.1852V67.9678H869.154V49.1852H850.372ZM869.154 49.1852H887.937V30.4027H869.154V49.1852Z" fill="#5AAF21" fill-opacity="0.5"/>
<path d="M794.024 86.7505V161.881H906.719V86.7505H794.024ZM794.024 86.7505H812.807V105.533H831.589V86.7505H850.372V105.533H869.154V86.7505H887.937V105.533H906.719V124.316H887.937V143.098H906.719V161.881H887.937V143.098H869.154V161.881H850.372V143.098H831.589V161.881H812.807V143.098H794.024V124.316H812.807V105.533H794.024V86.7505ZM812.807 124.316V143.098H831.589V124.316H812.807ZM831.589 124.316H850.372V105.533H831.589V124.316ZM850.372 124.316V143.098H869.154V124.316H850.372ZM869.154 124.316H887.937V105.533H869.154V124.316Z" fill="#5AAF21" fill-opacity="0.5"/>
<path d="M794.024 161.88V237.011H906.719V161.88H794.024ZM794.024 161.88H812.807V180.663H831.589V161.88H850.372V180.663H869.154V161.88H887.937V180.663H906.719V199.445H887.937V218.228H906.719V237.011H887.937V218.228H869.154V237.011H850.372V218.228H831.589V237.011H812.807V218.228H794.024V199.445H812.807V180.663H794.024V161.88ZM812.807 199.445V218.228H831.589V199.445H812.807ZM831.589 199.445H850.372V180.663H831.589V199.445ZM850.372 199.445V218.228H869.154V199.445H850.372ZM869.154 199.445H887.937V180.663H869.154V199.445Z" fill="#5AAF21" fill-opacity="0.5"/>
<path d="M794.024 237.011V312.141H906.719V237.011H794.024ZM794.024 237.011H812.807V255.793H831.589V237.011H850.372V255.793H869.154V237.011H887.937V255.793H906.719V274.576H887.937V293.358H906.719V312.141H887.937V293.358H869.154V312.141H850.372V293.358H831.589V312.141H812.807V293.358H794.024V274.576H812.807V255.793H794.024V237.011ZM812.807 274.576V293.358H831.589V274.576H812.807ZM831.589 274.576H850.372V255.793H831.589V274.576ZM850.372 274.576V293.358H869.154V274.576H850.372ZM869.154 274.576H887.937V255.793H869.154V274.576Z" fill="#5AAF21" fill-opacity="0.5"/>
<path d="M794.024 312.141V387.271H906.719V312.141H794.024ZM794.024 312.141H812.807V330.924H831.589V312.141H850.372V330.924H869.154V312.141H887.937V330.924H906.719V349.706H887.937V368.489H906.719V387.271H887.937V368.489H869.154V387.271H850.372V368.489H831.589V387.271H812.807V368.489H794.024V349.706H812.807V330.924H794.024V312.141ZM812.807 349.706V368.489H831.589V349.706H812.807ZM831.589 349.706H850.372V330.924H831.589V349.706ZM850.372 349.706V368.489H869.154V349.706H850.372ZM869.154 349.706H887.937V330.924H869.154V349.706Z" fill="#5AAF21" fill-opacity="0.5"/>
<path d="M794.024 387.271V462.402H906.719V387.271H794.024ZM794.024 387.271H812.807V406.054H831.589V387.271H850.372V406.054H869.154V387.271H887.937V406.054H906.719V424.837H887.937V443.619H906.719V462.402H887.937V443.619H869.154V462.402H850.372V443.619H831.589V462.402H812.807V443.619H794.024V424.837H812.807V406.054H794.024V387.271ZM812.807 424.837V443.619H831.589V424.837H812.807ZM831.589 424.837H850.372V406.054H831.589V424.837ZM850.372 424.837V443.619H869.154V424.837H850.372ZM869.154 424.837H887.937V406.054H869.154V424.837Z" fill="#5AAF21" fill-opacity="0.5"/>
<path d="M794.024 462.401V537.532H906.719V462.401H794.024ZM794.024 462.401H812.807V481.184H831.589V462.401H850.372V481.184H869.154V462.401H887.937V481.184H906.719V499.966H887.937V518.749H906.719V537.532H887.937V518.749H869.154V537.532H850.372V518.749H831.589V537.532H812.807V518.749H794.024V499.966H812.807V481.184H794.024V462.401ZM812.807 499.966V518.749H831.589V499.966H812.807ZM831.589 499.966H850.372V481.184H831.589V499.966ZM850.372 499.966V518.749H869.154V499.966H850.372ZM869.154 499.966H887.937V481.184H869.154V499.966Z" fill="#5AAF21" fill-opacity="0.5"/>
<path d="M905.885 11.6201V86.7504H1018.58V11.6201H905.885ZM905.885 11.6201H924.667V30.4027H943.45V11.6201H962.232V30.4027H981.015V11.6201H999.797V30.4027H1018.58V49.1852H999.797V67.9678H1018.58V86.7504H999.797V67.9678H981.015V86.7504H962.232V67.9678H943.45V86.7504H924.667V67.9678H905.885V49.1852H924.667V30.4027H905.885V11.6201ZM924.667 49.1852V67.9678H943.45V49.1852H924.667ZM943.45 49.1852H962.232V30.4027H943.45V49.1852ZM962.232 49.1852V67.9678H981.015V49.1852H962.232ZM981.015 49.1852H999.797V30.4027H981.015V49.1852Z" fill="#5AAF21" fill-opacity="0.5"/>
<path d="M905.885 86.7505V161.881H1018.58V86.7505H905.885ZM905.885 86.7505H924.667V105.533H943.45V86.7505H962.232V105.533H981.015V86.7505H999.797V105.533H1018.58V124.316H999.797V143.098H1018.58V161.881H999.797V143.098H981.015V161.881H962.232V143.098H943.45V161.881H924.667V143.098H905.885V124.316H924.667V105.533H905.885V86.7505ZM924.667 124.316V143.098H943.45V124.316H924.667ZM943.45 124.316H962.232V105.533H943.45V124.316ZM962.232 124.316V143.098H981.015V124.316H962.232ZM981.015 124.316H999.797V105.533H981.015V124.316Z" fill="#5AAF21" fill-opacity="0.5"/>
<path d="M905.885 161.88V237.011H1018.58V161.88H905.885ZM905.885 161.88H924.667V180.663H943.45V161.88H962.232V180.663H981.015V161.88H999.797V180.663H1018.58V199.445H999.797V218.228H1018.58V237.011H999.797V218.228H981.015V237.011H962.232V218.228H943.45V237.011H924.667V218.228H905.885V199.445H924.667V180.663H905.885V161.88ZM924.667 199.445V218.228H943.45V199.445H924.667ZM943.45 199.445H962.232V180.663H943.45V199.445ZM962.232 199.445V218.228H981.015V199.445H962.232ZM981.015 199.445H999.797V180.663H981.015V199.445Z" fill="#5AAF21" fill-opacity="0.5"/>
<path d="M905.885 237.011V312.141H1018.58V237.011H905.885ZM905.885 237.011H924.667V255.793H943.45V237.011H962.232V255.793H981.015V237.011H999.797V255.793H1018.58V274.576H999.797V293.358H1018.58V312.141H999.797V293.358H981.015V312.141H962.232V293.358H943.45V312.141H924.667V293.358H905.885V274.576H924.667V255.793H905.885V237.011ZM924.667 274.576V293.358H943.45V274.576H924.667ZM943.45 274.576H962.232V255.793H943.45V274.576ZM962.232 274.576V293.358H981.015V274.576H962.232ZM981.015 274.576H999.797V255.793H981.015V274.576Z" fill="#5AAF21" fill-opacity="0.5"/>
<path d="M905.885 312.141V387.271H1018.58V312.141H905.885ZM905.885 312.141H924.667V330.924H943.45V312.141H962.232V330.924H981.015V312.141H999.797V330.924H1018.58V349.706H999.797V368.489H1018.58V387.271H999.797V368.489H981.015V387.271H962.232V368.489H943.45V387.271H924.667V368.489H905.885V349.706H924.667V330.924H905.885V312.141ZM924.667 349.706V368.489H943.45V349.706H924.667ZM943.45 349.706H962.232V330.924H943.45V349.706ZM962.232 349.706V368.489H981.015V349.706H962.232ZM981.015 349.706H999.797V330.924H981.015V349.706Z" fill="#5AAF21" fill-opacity="0.5"/>
<path d="M905.885 387.271V462.402H1018.58V387.271H905.885ZM905.885 387.271H924.667V406.054H943.45V387.271H962.232V406.054H981.015V387.271H999.797V406.054H1018.58V424.837H999.797V443.619H1018.58V462.402H999.797V443.619H981.015V462.402H962.232V443.619H943.45V462.402H924.667V443.619H905.885V424.837H924.667V406.054H905.885V387.271ZM924.667 424.837V443.619H943.45V424.837H924.667ZM943.45 424.837H962.232V406.054H943.45V424.837ZM962.232 424.837V443.619H981.015V424.837H962.232ZM981.015 424.837H999.797V406.054H981.015V424.837Z" fill="#5AAF21" fill-opacity="0.5"/>
<path d="M905.885 462.401V537.532H1018.58V462.401H905.885ZM905.885 462.401H924.667V481.184H943.45V462.401H962.232V481.184H981.015V462.401H999.797V481.184H1018.58V499.966H999.797V518.749H1018.58V537.532H999.797V518.749H981.015V537.532H962.232V518.749H943.45V537.532H924.667V518.749H905.885V499.966H924.667V481.184H905.885V462.401ZM924.667 499.966V518.749H943.45V499.966H924.667ZM943.45 499.966H962.232V481.184H943.45V499.966ZM962.232 499.966V518.749H981.015V499.966H962.232ZM981.015 499.966H999.797V481.184H981.015V499.966Z" fill="#5AAF21" fill-opacity="0.5"/>
<path d="M1017.75 11.6201V86.7504H1130.44V11.6201H1017.75ZM1017.75 11.6201H1036.53V30.4027H1055.31V11.6201H1074.09V30.4027H1092.88V11.6201H1111.66V30.4027H1130.44V49.1852H1111.66V67.9678H1130.44V86.7504H1111.66V67.9678H1092.88V86.7504H1074.09V67.9678H1055.31V86.7504H1036.53V67.9678H1017.75V49.1852H1036.53V30.4027H1017.75V11.6201ZM1036.53 49.1852V67.9678H1055.31V49.1852H1036.53ZM1055.31 49.1852H1074.09V30.4027H1055.31V49.1852ZM1074.09 49.1852V67.9678H1092.88V49.1852H1074.09ZM1092.88 49.1852H1111.66V30.4027H1092.88V49.1852Z" fill="#5AAF21" fill-opacity="0.5"/>
<path d="M1017.75 86.7505V161.881H1130.44V86.7505H1017.75ZM1017.75 86.7505H1036.53V105.533H1055.31V86.7505H1074.09V105.533H1092.88V86.7505H1111.66V105.533H1130.44V124.316H1111.66V143.098H1130.44V161.881H1111.66V143.098H1092.88V161.881H1074.09V143.098H1055.31V161.881H1036.53V143.098H1017.75V124.316H1036.53V105.533H1017.75V86.7505ZM1036.53 124.316V143.098H1055.31V124.316H1036.53ZM1055.31 124.316H1074.09V105.533H1055.31V124.316ZM1074.09 124.316V143.098H1092.88V124.316H1074.09ZM1092.88 124.316H1111.66V105.533H1092.88V124.316Z" fill="#5AAF21" fill-opacity="0.5"/>
<path d="M1017.75 161.88V237.011H1130.44V161.88H1017.75ZM1017.75 161.88H1036.53V180.663H1055.31V161.88H1074.09V180.663H1092.88V161.88H1111.66V180.663H1130.44V199.445H1111.66V218.228H1130.44V237.011H1111.66V218.228H1092.88V237.011H1074.09V218.228H1055.31V237.011H1036.53V218.228H1017.75V199.445H1036.53V180.663H1017.75V161.88ZM1036.53 199.445V218.228H1055.31V199.445H1036.53ZM1055.31 199.445H1074.09V180.663H1055.31V199.445ZM1074.09 199.445V218.228H1092.88V199.445H1074.09ZM1092.88 199.445H1111.66V180.663H1092.88V199.445Z" fill="#5AAF21" fill-opacity="0.5"/>
<path d="M1017.75 237.011V312.141H1130.44V237.011H1017.75ZM1017.75 237.011H1036.53V255.793H1055.31V237.011H1074.09V255.793H1092.88V237.011H1111.66V255.793H1130.44V274.576H1111.66V293.358H1130.44V312.141H1111.66V293.358H1092.88V312.141H1074.09V293.358H1055.31V312.141H1036.53V293.358H1017.75V274.576H1036.53V255.793H1017.75V237.011ZM1036.53 274.576V293.358H1055.31V274.576H1036.53ZM1055.31 274.576H1074.09V255.793H1055.31V274.576ZM1074.09 274.576V293.358H1092.88V274.576H1074.09ZM1092.88 274.576H1111.66V255.793H1092.88V274.576Z" fill="#5AAF21" fill-opacity="0.5"/>
<path d="M1017.75 312.141V387.271H1130.44V312.141H1017.75ZM1017.75 312.141H1036.53V330.924H1055.31V312.141H1074.09V330.924H1092.88V312.141H1111.66V330.924H1130.44V349.706H1111.66V368.489H1130.44V387.271H1111.66V368.489H1092.88V387.271H1074.09V368.489H1055.31V387.271H1036.53V368.489H1017.75V349.706H1036.53V330.924H1017.75V312.141ZM1036.53 349.706V368.489H1055.31V349.706H1036.53ZM1055.31 349.706H1074.09V330.924H1055.31V349.706ZM1074.09 349.706V368.489H1092.88V349.706H1074.09ZM1092.88 349.706H1111.66V330.924H1092.88V349.706Z" fill="#5AAF21" fill-opacity="0.5"/>
<path d="M1017.75 387.271V462.402H1130.44V387.271H1017.75ZM1017.75 387.271H1036.53V406.054H1055.31V387.271H1074.09V406.054H1092.88V387.271H1111.66V406.054H1130.44V424.837H1111.66V443.619H1130.44V462.402H1111.66V443.619H1092.88V462.402H1074.09V443.619H1055.31V462.402H1036.53V443.619H1017.75V424.837H1036.53V406.054H1017.75V387.271ZM1036.53 424.837V443.619H1055.31V424.837H1036.53ZM1055.31 424.837H1074.09V406.054H1055.31V424.837ZM1074.09 424.837V443.619H1092.88V424.837H1074.09ZM1092.88 424.837H1111.66V406.054H1092.88V424.837Z" fill="#5AAF21" fill-opacity="0.5"/>
<path d="M1017.75 462.401V537.532H1130.44V462.401H1017.75ZM1017.75 462.401H1036.53V481.184H1055.31V462.401H1074.09V481.184H1092.88V462.401H1111.66V481.184H1130.44V499.966H1111.66V518.749H1130.44V537.532H1111.66V518.749H1092.88V537.532H1074.09V518.749H1055.31V537.532H1036.53V518.749H1017.75V499.966H1036.53V481.184H1017.75V462.401ZM1036.53 499.966V518.749H1055.31V499.966H1036.53ZM1055.31 499.966H1074.09V481.184H1055.31V499.966ZM1074.09 499.966V518.749H1092.88V499.966H1074.09ZM1092.88 499.966H1111.66V481.184H1092.88V499.966Z" fill="#5AAF21" fill-opacity="0.5"/>
<path d="M1054.48 86.7499L1049.47 81.7412L1069.5 61.7065L1049.47 41.6718L1054.48 36.6631L1074.51 56.6978L1094.54 36.6631L1099.55 41.6718L1079.52 61.7065L1099.55 81.7412L1094.54 86.7499L1074.51 66.7152L1054.48 86.7499Z" fill="#357C05"/>
<path d="M1021.92 80.7455V51.0156H978.51M1021.92 80.7455V90.0891H967.658V51.0156H978.51M1021.92 80.7455H1029.43V41.6719H978.51V51.0156" stroke="#357C05" stroke-width="3"/>
<path d="M947.623 86.7498V76.7324H887.519V86.7498H947.623Z" fill="#357C05"/>
</svg>
